<svg width="343" height="154" viewBox="0 0 343 154" fill="none" xmlns="http://www.w3.org/2000/svg">
<rect width="343" height="150" fill="url(#paint0_linear_28_304)"/>
<path opacity="0.2" d="M285 154C317.033 154 343 145.186 343 134.313C343 123.44 317.033 114.626 285 114.626C252.967 114.626 227 123.44 227 134.313C227 145.186 252.967 154 285 154Z" fill="black"/>
<path d="M337.968 121.127L337.977 125.739C337.977 125.785 337.975 125.833 337.974 125.88C337.926 127.456 336.988 128.882 335.537 129.538C333.503 130.458 331.095 131.173 328.468 131.701C327.652 131.866 326.817 132.012 325.964 132.141C324.089 132.423 322.133 132.619 320.144 132.736C319.441 132.777 318.734 132.808 318.025 132.829C315.361 132.908 312.666 132.852 310.05 132.67C308.878 132.587 307.721 132.479 306.589 132.347C303.686 132.008 300.955 131.507 298.565 130.864C297.193 130.496 295.933 130.081 294.818 129.621C294.301 129.409 293.843 129.102 293.46 128.728C292.724 128.004 292.268 127.024 292.216 125.964C292.212 125.898 292.21 125.832 292.21 125.765L292.201 121.212L337.968 121.127Z" fill="#FDB748"/>
<path d="M337.974 125.88C337.926 127.456 336.989 128.882 335.538 129.538C332.872 130.744 329.568 131.598 325.965 132.141C323.428 132.521 320.743 132.747 318.025 132.829C315.361 132.908 312.666 132.852 310.05 132.67C308.878 132.587 307.721 132.479 306.589 132.347C303.686 132.008 300.955 131.507 298.565 130.864C297.193 130.496 295.933 130.081 294.818 129.621C294.301 129.409 293.843 129.102 293.461 128.728C292.725 128.004 292.268 127.024 292.217 125.964C293.126 126.378 294.084 126.763 295.079 127.115C296.851 127.742 298.748 128.273 300.729 128.708C303.37 129.289 306.159 129.7 309 129.944C310.182 130.046 311.374 130.118 312.567 130.162C315.348 130.265 318.142 130.212 320.856 130.009C323.803 129.787 326.658 129.387 329.308 128.81C332.583 128.098 335.543 127.119 337.974 125.88Z" fill="#FF901E"/>
<path opacity="0.2" d="M308.282 121.182L300.729 128.708L298.565 130.864C297.193 130.496 295.933 130.081 294.817 129.621C294.3 129.409 293.842 129.102 293.46 128.728L295.079 127.115L301.019 121.196L308.282 121.182Z" fill="#FFEAA5"/>
<path opacity="0.2" d="M337.968 121.127L337.97 122.257L331.486 128.717L328.467 131.7C327.652 131.866 326.816 132.012 325.964 132.141C324.089 132.422 322.133 132.619 320.144 132.735L323.034 129.917L331.842 121.139L337.968 121.127Z" fill="#FFEAA5"/>
<path opacity="0.2" d="M321.601 121.157L312.566 130.162L310.05 132.669C308.877 132.586 307.721 132.479 306.589 132.346L309 129.944L317.811 121.164L321.601 121.157Z" fill="#FFEAA5"/>
<path d="M337.968 121.053C337.975 124.387 327.735 127.109 315.096 127.133C302.458 127.156 292.207 124.472 292.201 121.137C292.201 121.062 292.205 120.988 292.218 120.913C292.657 117.681 302.719 115.08 315.073 115.057C327.428 115.034 337.5 117.599 337.951 120.828C337.963 120.903 337.968 120.978 337.968 121.053Z" fill="#FFEAA5"/>
<path d="M333.375 121.061C333.375 121.135 333.367 121.209 333.357 121.283C332.92 123.842 324.898 125.903 315.093 125.921C305.289 125.939 297.259 123.908 296.813 121.35C296.802 121.277 296.794 121.202 296.794 121.129C296.789 118.468 304.99 116.288 315.075 116.269C325.161 116.251 333.37 118.4 333.375 121.061Z" fill="#FF901E"/>
<path d="M333.357 121.283C332.921 123.842 324.899 125.903 315.094 125.921C314.874 125.921 314.657 125.92 314.44 125.919C312.253 125.902 310.163 125.784 308.233 125.581C306.304 125.378 304.537 125.09 303 124.735C302.61 124.645 302.234 124.551 301.872 124.452C300.233 124.001 298.92 123.468 298.043 122.876C297.831 122.734 297.644 122.588 297.486 122.44C297.108 122.091 296.88 121.726 296.813 121.35C297.249 118.79 305.271 116.729 315.076 116.711C316.317 116.709 317.529 116.74 318.703 116.8C319.3 116.83 319.89 116.869 320.467 116.915C322.822 117.103 324.977 117.413 326.823 117.819C327.221 117.906 327.607 117.998 327.977 118.095C329.414 118.47 330.617 118.907 331.519 119.391C332.398 119.863 332.991 120.377 333.242 120.92C333.298 121.04 333.337 121.161 333.357 121.283Z" fill="#FDB748"/>
<path opacity="0.2" d="M333.242 120.921L314.44 125.919C312.253 125.902 310.163 125.784 308.233 125.581L331.519 119.391C332.398 119.863 332.991 120.378 333.242 120.921Z" fill="#FFEAA5"/>
<path opacity="0.2" d="M320.466 116.915L298.043 122.875C297.831 122.734 297.644 122.588 297.486 122.44L318.703 116.8C319.3 116.831 319.89 116.87 320.466 116.915Z" fill="#FFEAA5"/>
<path opacity="0.2" d="M327.977 118.096L303 124.735C302.609 124.645 302.234 124.551 301.871 124.452L326.823 117.819C327.221 117.906 327.606 117.999 327.977 118.096Z" fill="#FFEAA5"/>
<path d="M324.437 119.069L318.375 119.08C318.904 119.294 319.336 119.55 319.567 119.856L324.438 119.847L324.44 120.767L319.609 120.776C319.024 121.669 316.629 122.153 314.806 122.351C314.301 122.407 313.757 122.432 313.212 122.433L310.753 122.438L320.481 124.986L315.931 124.994L306.204 122.446L306.202 121.526L311.88 121.516C313.72 121.512 315.316 121.21 315.956 120.783L306.737 120.8L306.735 119.88L315.949 119.863C315.36 119.423 314.072 119.19 313.359 119.089L306.734 119.101L306.732 118.181L324.435 118.148L324.437 119.069Z" fill="#FF5E00"/>
<path d="M324.436 118.874L318.374 118.885C318.903 119.099 319.336 119.356 319.567 119.662L324.438 119.653L324.439 120.573L319.609 120.582C319.023 121.474 316.629 121.959 314.805 122.157C314.301 122.212 313.756 122.238 313.212 122.239L310.752 122.243L320.48 124.791L315.931 124.799L306.203 122.252L306.201 121.332L311.88 121.321C313.72 121.318 315.315 121.016 315.955 120.589L306.736 120.606L306.735 119.685L315.948 119.668C315.36 119.229 314.072 118.995 313.358 118.895L306.733 118.907L306.731 117.987L324.434 117.954L324.436 118.874Z" fill="#FF8400"/>
<path d="M330.438 114.182L330.447 118.794C330.447 118.84 330.445 118.888 330.444 118.935C330.396 120.511 329.458 121.937 328.007 122.593C325.973 123.513 323.565 124.228 320.938 124.755C320.122 124.92 319.287 125.067 318.434 125.196C316.559 125.477 314.603 125.674 312.614 125.79C311.911 125.832 311.205 125.863 310.495 125.884C307.831 125.963 305.136 125.906 302.52 125.724C301.348 125.641 300.191 125.534 299.059 125.401C296.156 125.062 293.425 124.562 291.035 123.919C289.663 123.551 288.403 123.136 287.288 122.676C286.771 122.464 286.313 122.157 285.93 121.782C285.194 121.059 284.738 120.079 284.686 119.019C284.682 118.952 284.68 118.886 284.68 118.82L284.671 114.267L330.438 114.182Z" fill="#FDB748"/>
<path d="M330.444 118.934C330.396 120.51 329.458 121.936 328.007 122.593C325.342 123.798 322.038 124.652 318.434 125.195C315.898 125.575 313.212 125.801 310.495 125.884C307.83 125.963 305.136 125.906 302.519 125.724C301.347 125.641 300.191 125.534 299.059 125.401C296.156 125.062 293.425 124.562 291.035 123.919C289.663 123.55 288.403 123.135 287.287 122.676C286.77 122.463 286.312 122.157 285.93 121.782C285.194 121.059 284.738 120.078 284.686 119.019C285.596 119.433 286.554 119.817 287.549 120.169C289.321 120.796 291.218 121.327 293.198 121.763C295.839 122.343 298.629 122.754 301.47 122.999C302.651 123.1 303.844 123.172 305.036 123.216C307.817 123.319 310.611 123.266 313.325 123.064C316.272 122.842 319.128 122.441 321.777 121.865C325.052 121.152 328.012 120.173 330.444 118.934Z" fill="#FF901E"/>
<path opacity="0.2" d="M300.752 114.237L293.199 121.763L291.035 123.919C289.663 123.551 288.403 123.136 287.287 122.676C286.77 122.464 286.312 122.157 285.93 121.782L287.549 120.17L293.489 114.25L300.752 114.237Z" fill="#FFEAA5"/>
<path opacity="0.2" d="M330.439 114.182L330.441 115.311L323.957 121.772L320.938 124.755C320.123 124.92 319.287 125.067 318.435 125.195C316.56 125.477 314.604 125.674 312.615 125.79L315.505 122.971L324.313 114.193L330.439 114.182Z" fill="#FFEAA5"/>
<path opacity="0.2" d="M314.071 114.212L305.036 123.216L302.519 125.724C301.347 125.641 300.191 125.534 299.059 125.401L301.47 122.999L310.282 114.219L314.071 114.212Z" fill="#FFEAA5"/>
<path d="M330.438 114.107C330.444 117.442 320.205 120.164 307.566 120.187C294.928 120.211 284.677 117.527 284.671 114.192C284.67 114.117 284.675 114.042 284.687 113.967C285.126 110.736 295.188 108.134 307.543 108.112C319.897 108.089 329.969 110.653 330.42 113.883C330.433 113.958 330.438 114.033 330.438 114.107Z" fill="#FFEAA5"/>
<path d="M325.844 114.116C325.845 114.19 325.837 114.264 325.827 114.337C325.39 116.897 317.368 118.957 307.563 118.975C297.759 118.993 289.729 116.963 289.282 114.405C289.272 114.331 289.264 114.257 289.264 114.183C289.259 111.522 297.46 109.342 307.545 109.323C317.631 109.305 325.84 111.455 325.844 114.116Z" fill="#FF901E"/>
<path d="M325.827 114.337C325.391 116.897 317.369 118.957 307.564 118.975C307.344 118.976 307.127 118.975 306.911 118.973C304.723 118.957 302.633 118.839 300.703 118.636C298.774 118.433 297.007 118.145 295.47 117.789C295.08 117.699 294.704 117.605 294.342 117.506C292.703 117.056 291.39 116.522 290.513 115.93C290.301 115.788 290.115 115.643 289.956 115.495C289.578 115.146 289.35 114.781 289.283 114.404C289.72 111.845 297.742 109.784 307.546 109.766C308.787 109.763 309.999 109.794 311.173 109.854C311.77 109.885 312.36 109.924 312.937 109.97C315.293 110.157 317.447 110.468 319.293 110.873C319.691 110.96 320.077 111.053 320.447 111.15C321.885 111.524 323.087 111.962 323.989 112.445C324.868 112.917 325.461 113.432 325.712 113.975C325.768 114.095 325.807 114.216 325.827 114.337Z" fill="#FDB748"/>
<path opacity="0.2" d="M325.712 113.975L306.911 118.973C304.723 118.957 302.633 118.839 300.703 118.636L323.989 112.446C324.868 112.918 325.461 113.432 325.712 113.975Z" fill="#FFEAA5"/>
<path opacity="0.2" d="M312.936 109.97L290.513 115.93C290.301 115.789 290.114 115.643 289.956 115.495L311.173 109.855C311.77 109.885 312.36 109.924 312.936 109.97Z" fill="#FFEAA5"/>
<path opacity="0.2" d="M320.447 111.15L295.47 117.79C295.079 117.7 294.704 117.605 294.341 117.506L319.293 110.874C319.691 110.961 320.076 111.053 320.447 111.15Z" fill="#FFEAA5"/>
<path d="M316.907 112.124L310.845 112.135C311.374 112.348 311.807 112.605 312.038 112.911L316.909 112.902L316.91 113.822L312.08 113.831C311.494 114.723 309.1 115.208 307.276 115.406C306.772 115.461 306.227 115.487 305.683 115.488L303.223 115.493L312.951 118.04L308.402 118.049L298.674 115.501L298.673 114.581L304.351 114.571C306.191 114.567 307.786 114.265 308.427 113.838L299.208 113.855L299.206 112.935L308.419 112.917C307.831 112.478 306.543 112.244 305.83 112.144L299.204 112.156L299.203 111.236L316.905 111.203L316.907 112.124Z" fill="#FF5E00"/>
<path d="M316.907 111.929L310.845 111.94C311.374 112.153 311.806 112.41 312.037 112.716L316.908 112.707L316.91 113.627L312.079 113.636C311.493 114.528 309.099 115.013 307.275 115.211C306.771 115.267 306.227 115.292 305.682 115.294L303.223 115.298L312.951 117.846L308.402 117.854L298.674 115.307L298.672 114.387L304.35 114.376C306.19 114.373 307.786 114.071 308.426 113.643L299.207 113.66L299.205 112.741L308.419 112.723C307.831 112.284 306.543 112.05 305.829 111.95L299.204 111.962L299.202 111.042L316.905 111.009L316.907 111.929Z" fill="#FF8400"/>
<path d="M338.941 106.789L338.95 111.401C338.95 111.447 338.948 111.495 338.947 111.542C338.899 113.118 337.961 114.544 336.51 115.2C334.476 116.12 332.068 116.835 329.44 117.362C328.625 117.528 327.79 117.674 326.937 117.803C325.062 118.084 323.106 118.281 321.117 118.398C320.414 118.439 319.707 118.47 318.998 118.491C316.334 118.57 313.639 118.514 311.023 118.331C309.85 118.249 308.694 118.141 307.562 118.009C304.659 117.67 301.928 117.169 299.538 116.526C298.166 116.158 296.906 115.743 295.791 115.283C295.274 115.071 294.816 114.764 294.433 114.39C293.697 113.666 293.241 112.686 293.189 111.626C293.184 111.56 293.183 111.493 293.183 111.427L293.174 106.874L338.941 106.789Z" fill="#FDB748"/>
<path d="M338.948 111.542C338.9 113.118 337.962 114.544 336.512 115.2C333.846 116.406 330.542 117.26 326.938 117.803C324.402 118.183 321.716 118.409 318.999 118.491C316.335 118.57 313.64 118.514 311.024 118.331C309.852 118.249 308.695 118.141 307.563 118.009C304.66 117.67 301.929 117.169 299.539 116.526C298.167 116.158 296.907 115.743 295.792 115.283C295.275 115.071 294.817 114.764 294.434 114.39C293.698 113.666 293.242 112.686 293.19 111.626C294.1 112.04 295.058 112.425 296.053 112.777C297.825 113.404 299.722 113.935 301.703 114.37C304.343 114.951 307.133 115.361 309.974 115.606C311.155 115.707 312.348 115.779 313.54 115.824C316.321 115.927 319.115 115.874 321.829 115.671C324.776 115.449 327.632 115.048 330.281 114.472C333.556 113.76 336.516 112.781 338.948 111.542Z" fill="#FF901E"/>
<path opacity="0.2" d="M309.255 106.844L301.702 114.37L299.538 116.527C298.166 116.158 296.906 115.743 295.79 115.284C295.273 115.071 294.815 114.765 294.433 114.39L296.052 112.777L301.992 106.858L309.255 106.844Z" fill="#FFEAA5"/>
<path opacity="0.2" d="M338.941 106.789L338.943 107.918L332.459 114.38L329.44 117.362C328.625 117.528 327.79 117.674 326.937 117.803C325.062 118.084 323.106 118.281 321.117 118.398L324.007 115.579L332.816 106.801L338.941 106.789Z" fill="#FFEAA5"/>
<path opacity="0.2" d="M322.574 106.819L313.539 115.824L311.023 118.331C309.85 118.248 308.694 118.141 307.562 118.008L309.973 115.606L318.785 106.826L322.574 106.819Z" fill="#FFEAA5"/>
<path d="M338.941 106.715C338.947 110.049 328.708 112.772 316.068 112.795C303.43 112.818 293.18 110.134 293.174 106.799C293.174 106.725 293.178 106.65 293.19 106.575C293.629 103.344 303.691 100.742 316.046 100.719C328.4 100.696 338.472 103.261 338.923 106.49C338.936 106.565 338.941 106.64 338.941 106.715Z" fill="#FFEAA5"/>
<path d="M334.347 106.723C334.347 106.797 334.34 106.872 334.33 106.945C333.893 109.504 325.871 111.565 316.066 111.583C306.262 111.601 298.232 109.57 297.785 107.012C297.775 106.939 297.767 106.865 297.767 106.791C297.762 104.13 305.963 101.95 316.048 101.931C326.134 101.912 334.343 104.062 334.347 106.723Z" fill="#FF901E"/>
<path d="M334.33 106.945C333.893 109.504 325.871 111.565 316.066 111.583C315.847 111.583 315.63 111.582 315.413 111.581C313.226 111.564 311.136 111.446 309.206 111.243C307.276 111.04 305.51 110.752 303.973 110.397C303.582 110.307 303.207 110.213 302.844 110.114C301.205 109.663 299.892 109.13 299.016 108.538C298.803 108.396 298.617 108.25 298.458 108.102C298.08 107.753 297.852 107.388 297.785 107.012C298.222 104.452 306.244 102.391 316.049 102.373C317.289 102.371 318.501 102.402 319.675 102.462C320.273 102.492 320.862 102.531 321.439 102.577C323.795 102.765 325.949 103.075 327.795 103.481C328.193 103.568 328.579 103.66 328.949 103.757C330.387 104.132 331.59 104.569 332.491 105.053C333.37 105.525 333.963 106.039 334.214 106.582C334.271 106.702 334.309 106.823 334.33 106.945Z" fill="#FDB748"/>
<path opacity="0.2" d="M334.215 106.583L315.413 111.581C313.226 111.564 311.136 111.446 309.206 111.243L332.492 105.053C333.371 105.525 333.964 106.04 334.215 106.583Z" fill="#FFEAA5"/>
<path opacity="0.2" d="M321.439 102.578L299.016 108.538C298.804 108.396 298.617 108.251 298.459 108.103L319.676 102.463C320.273 102.493 320.862 102.532 321.439 102.578Z" fill="#FFEAA5"/>
<path opacity="0.2" d="M328.949 103.758L303.972 110.397C303.582 110.307 303.206 110.213 302.844 110.114L327.795 103.481C328.194 103.568 328.579 103.661 328.949 103.758Z" fill="#FFEAA5"/>
<path d="M325.409 104.731L319.347 104.742C319.876 104.956 320.308 105.213 320.54 105.519L325.411 105.51L325.412 106.43L320.582 106.439C319.996 107.331 317.602 107.816 315.778 108.014C315.274 108.069 314.729 108.095 314.185 108.096L311.725 108.1L321.453 110.648L316.904 110.656L307.176 108.109L307.174 107.189L312.852 107.178C314.693 107.175 316.288 106.872 316.928 106.445L307.709 106.462L307.708 105.542L316.921 105.525C316.333 105.086 315.045 104.852 314.331 104.751L307.706 104.764L307.704 103.844L325.407 103.811L325.409 104.731Z" fill="#FF5E00"/>
<path d="M325.409 104.536L319.347 104.547C319.876 104.761 320.308 105.018 320.539 105.324L325.41 105.315L325.412 106.235L320.581 106.244C319.996 107.136 317.601 107.621 315.778 107.818C315.273 107.874 314.729 107.9 314.185 107.901L311.725 107.905L321.453 110.453L316.904 110.461L307.176 107.914L307.174 106.993L312.852 106.983C314.693 106.979 316.288 106.677 316.928 106.25L307.709 106.267L307.708 105.347L316.921 105.33C316.333 104.891 315.045 104.657 314.331 104.556L307.706 104.568L307.704 103.648L325.407 103.615L325.409 104.536Z" fill="#FF8400"/>
<path d="M330.412 99.4277L330.421 104.04C330.421 104.086 330.42 104.134 330.418 104.18C330.37 105.756 329.432 107.183 327.982 107.839C325.947 108.759 323.54 109.474 320.912 110.001C320.096 110.166 319.261 110.313 318.408 110.441C316.533 110.723 314.577 110.92 312.589 111.036C311.885 111.078 311.179 111.108 310.469 111.13C307.805 111.209 305.11 111.152 302.494 110.97C301.322 110.887 300.165 110.78 299.033 110.647C296.13 110.308 293.399 109.808 291.009 109.165C289.637 108.797 288.377 108.382 287.262 107.922C286.745 107.709 286.287 107.403 285.905 107.028C285.169 106.305 284.712 105.325 284.661 104.265C284.656 104.198 284.654 104.132 284.654 104.066L284.645 99.5124L330.412 99.4277Z" fill="#FDB748"/>
<path d="M330.418 104.18C330.37 105.756 329.432 107.183 327.981 107.839C325.316 109.044 322.012 109.899 318.408 110.441C315.872 110.822 313.186 111.047 310.469 111.13C307.804 111.209 305.11 111.152 302.494 110.97C301.321 110.887 300.165 110.78 299.033 110.647C296.13 110.308 293.399 109.808 291.009 109.165C289.637 108.797 288.377 108.382 287.262 107.922C286.744 107.709 286.286 107.403 285.904 107.028C285.168 106.305 284.712 105.325 284.66 104.265C285.57 104.679 286.528 105.063 287.523 105.415C289.295 106.042 291.192 106.574 293.172 107.009C295.813 107.589 298.603 108 301.444 108.245C302.625 108.346 303.818 108.418 305.01 108.462C307.791 108.565 310.585 108.512 313.299 108.309C316.247 108.088 319.102 107.687 321.751 107.11C325.026 106.398 327.986 105.419 330.418 104.18Z" fill="#FF901E"/>
<path opacity="0.2" d="M300.726 99.4825L293.173 107.009L291.009 109.165C289.637 108.797 288.377 108.382 287.262 107.922C286.744 107.709 286.286 107.403 285.904 107.028L287.523 105.415L293.463 99.4962L300.726 99.4825Z" fill="#FFEAA5"/>
<path opacity="0.2" d="M330.413 99.4277L330.415 100.557L323.931 107.018L320.912 110.001C320.097 110.166 319.261 110.313 318.409 110.441C316.534 110.723 314.578 110.92 312.589 111.036L315.478 108.217L324.287 99.4391L330.413 99.4277Z" fill="#FFEAA5"/>
<path opacity="0.2" d="M314.045 99.4579L305.01 108.462L302.494 110.97C301.321 110.887 300.165 110.779 299.033 110.647L301.444 108.245L310.256 99.4648L314.045 99.4579Z" fill="#FFEAA5"/>
<path d="M330.412 99.3535C330.418 102.688 320.179 105.41 307.54 105.434C294.902 105.457 284.651 102.773 284.645 99.438C284.645 99.3632 284.649 99.2885 284.661 99.2137C285.1 95.9823 295.162 93.3807 307.517 93.3579C319.872 93.335 329.943 95.8995 330.394 99.1292C330.407 99.204 330.412 99.2788 330.412 99.3535Z" fill="#FFEAA5"/>
<path d="M325.819 99.3619C325.819 99.4358 325.811 99.51 325.801 99.5834C325.365 102.143 317.343 104.203 307.538 104.221C297.733 104.24 289.703 102.209 289.257 99.6507C289.246 99.5774 289.239 99.5032 289.238 99.4292C289.233 96.768 297.434 94.5883 307.519 94.5695C317.605 94.5512 325.814 96.701 325.819 99.3619Z" fill="#FF901E"/>
<path d="M325.802 99.5833C325.365 102.143 317.343 104.203 307.538 104.221C307.318 104.222 307.101 104.221 306.885 104.219C304.698 104.203 302.607 104.085 300.678 103.882C298.748 103.678 296.981 103.391 295.444 103.035C295.054 102.945 294.678 102.851 294.316 102.752C292.677 102.302 291.364 101.768 290.487 101.176C290.275 101.034 290.089 100.889 289.93 100.741C289.552 100.392 289.324 100.027 289.257 99.6504C289.694 97.0908 297.716 95.0299 307.521 95.0116C308.761 95.0093 309.973 95.0401 311.147 95.1004C311.744 95.1309 312.334 95.1694 312.911 95.2157C315.267 95.4032 317.421 95.7137 319.267 96.119C319.665 96.2063 320.051 96.2988 320.421 96.3956C321.859 96.77 323.061 97.2076 323.963 97.6913C324.842 98.1631 325.435 98.6777 325.686 99.2206C325.742 99.3404 325.781 99.4617 325.802 99.5833Z" fill="#FDB748"/>
<path opacity="0.2" d="M325.686 99.2214L306.884 104.219C304.697 104.203 302.607 104.085 300.677 103.882L323.963 97.6919C324.842 98.1637 325.435 98.6786 325.686 99.2214Z" fill="#FFEAA5"/>
<path opacity="0.2" d="M312.911 95.2165L290.487 101.177C290.275 101.035 290.088 100.889 289.93 100.742L311.147 95.1015C311.744 95.1318 312.334 95.1703 312.911 95.2165Z" fill="#FFEAA5"/>
<path opacity="0.2" d="M320.421 96.3964L295.444 103.036C295.053 102.946 294.678 102.852 294.316 102.753L319.267 96.1198C319.665 96.2071 320.051 96.2993 320.421 96.3964Z" fill="#FFEAA5"/>
<path d="M316.882 97.3696L310.82 97.3807C311.349 97.5942 311.781 97.8511 312.012 98.1571L316.883 98.1482L316.885 99.0681L312.054 99.077C311.469 99.9692 309.074 100.454 307.251 100.652C306.746 100.707 306.202 100.733 305.658 100.734L303.198 100.739L312.926 103.286L308.377 103.294L298.649 100.747L298.647 99.8267L304.326 99.8162C306.166 99.8127 307.761 99.5105 308.401 99.0832L299.182 99.1004L299.181 98.1805L308.394 98.1633C307.806 97.7241 306.518 97.4903 305.804 97.3896L299.179 97.4019L299.177 96.482L316.88 96.4492L316.882 97.3696Z" fill="#FF5E00"/>
<path d="M316.881 97.1747L310.819 97.1858C311.348 97.3993 311.78 97.6562 312.012 97.9622L316.883 97.9533L316.884 98.8732L312.054 98.882C311.468 99.7742 309.073 100.259 307.25 100.457C306.746 100.513 306.201 100.539 305.657 100.539L303.197 100.544L312.925 103.092L308.376 103.1L298.648 100.553L298.646 99.6327L304.324 99.6221C306.164 99.6187 307.76 99.3164 308.4 98.8892L299.181 98.9063L299.179 97.9864L308.393 97.9693C307.805 97.5303 306.517 97.2963 305.803 97.1955L299.178 97.2078L299.176 96.2876L316.879 96.2548L316.881 97.1747Z" fill="#FF8400"/>
<path d="M335.682 92.4588L335.691 97.0708C335.691 97.117 335.69 97.165 335.688 97.2115C335.64 98.7875 334.702 100.214 333.251 100.87C331.217 101.79 328.809 102.505 326.182 103.032C325.366 103.197 324.531 103.344 323.678 103.473C321.803 103.754 319.847 103.951 317.859 104.067C317.155 104.109 316.449 104.14 315.739 104.161C313.075 104.24 310.38 104.183 307.764 104.001C306.592 103.918 305.435 103.811 304.303 103.678C301.4 103.339 298.669 102.839 296.279 102.196C294.907 101.828 293.647 101.413 292.532 100.953C292.015 100.741 291.557 100.434 291.175 100.059C290.439 99.3361 289.982 98.3557 289.931 97.296C289.926 97.2295 289.924 97.1633 289.924 97.0968L289.915 92.5436L335.682 92.4588Z" fill="#FDB748"/>
<path d="M335.689 97.2114C335.641 98.7875 334.704 100.214 333.253 100.87C330.587 102.075 327.283 102.93 323.68 103.472C321.143 103.852 318.458 104.078 315.74 104.161C313.076 104.24 310.381 104.183 307.765 104.001C306.593 103.918 305.436 103.81 304.304 103.678C301.401 103.339 298.67 102.839 296.28 102.196C294.908 101.827 293.648 101.412 292.533 100.953C292.016 100.74 291.558 100.434 291.176 100.059C290.44 99.3358 289.983 98.3554 289.932 97.2956C290.841 97.7095 291.799 98.0939 292.794 98.4461C294.566 99.0732 296.463 99.6043 298.444 100.04C301.085 100.62 303.874 101.031 306.715 101.276C307.897 101.377 309.089 101.449 310.281 101.493C313.063 101.596 315.856 101.543 318.571 101.34C321.518 101.119 324.373 100.718 327.023 100.141C330.297 99.4294 333.257 98.4504 335.689 97.2114Z" fill="#FF901E"/>
<path opacity="0.2" d="M305.995 92.5136L298.442 100.04L296.278 102.196C294.906 101.828 293.646 101.413 292.531 100.953C292.014 100.741 291.556 100.434 291.174 100.059L292.793 98.4465L298.733 92.5273L305.995 92.5136Z" fill="#FFEAA5"/>
<path opacity="0.2" d="M335.682 92.4588L335.684 93.5882L329.2 100.049L326.181 103.032C325.366 103.197 324.53 103.344 323.678 103.472C321.803 103.754 319.847 103.951 317.858 104.067L320.748 101.248L329.556 92.4702L335.682 92.4588Z" fill="#FFEAA5"/>
<path opacity="0.2" d="M319.315 92.4891L310.28 101.493L307.763 104.001C306.591 103.918 305.434 103.811 304.303 103.678L306.714 101.276L315.525 92.4959L319.315 92.4891Z" fill="#FFEAA5"/>
<path d="M335.682 92.3846C335.688 95.7191 325.449 98.4413 312.81 98.4647C300.172 98.4882 289.921 95.8036 289.915 92.4691C289.914 92.3943 289.919 92.3195 289.931 92.2448C290.37 89.0133 300.432 86.4118 312.787 86.3889C325.142 86.3661 335.213 88.9305 335.665 92.1603C335.677 92.235 335.682 92.3098 335.682 92.3846Z" fill="#FFEAA5"/>
<path d="M331.089 92.3929C331.089 92.4669 331.081 92.5411 331.071 92.6144C330.634 95.174 322.612 97.2344 312.807 97.2524C303.003 97.2704 294.973 95.2396 294.526 92.6818C294.516 92.6084 294.508 92.5342 294.508 92.4603C294.503 89.7991 302.704 87.6194 312.789 87.6006C322.875 87.5823 331.084 89.732 331.089 92.3929Z" fill="#FF901E"/>
<path d="M331.071 92.6147C330.634 95.1743 322.612 97.2347 312.807 97.2527C312.588 97.2529 312.371 97.2521 312.154 97.2504C309.967 97.2341 307.876 97.1162 305.947 96.913C304.017 96.7098 302.251 96.4221 300.714 96.0668C300.323 95.9766 299.948 95.8824 299.585 95.7834C297.946 95.3333 296.633 94.7995 295.757 94.2073C295.545 94.0657 295.358 93.9199 295.2 93.7721C294.821 93.4233 294.594 93.058 294.526 92.6818C294.963 90.1222 302.985 88.0612 312.79 88.043C314.03 88.0407 315.242 88.0715 316.417 88.1317C317.014 88.1623 317.603 88.2008 318.18 88.247C320.536 88.4345 322.691 88.7451 324.536 89.1504C324.935 89.238 325.32 89.3302 325.69 89.4269C327.128 89.8014 328.331 90.2389 329.233 90.7227C330.111 91.1945 330.704 91.7091 330.956 92.2519C331.012 92.3715 331.05 92.4928 331.071 92.6147Z" fill="#FDB748"/>
<path opacity="0.2" d="M330.956 92.2525L312.155 97.2503C309.968 97.2341 307.877 97.1162 305.948 96.913L329.233 90.723C330.112 91.195 330.705 91.7096 330.956 92.2525Z" fill="#FFEAA5"/>
<path opacity="0.2" d="M318.18 88.2476L295.757 94.2076C295.545 94.066 295.358 93.9201 295.2 93.7723L316.417 88.1323C317.014 88.1628 317.603 88.2013 318.18 88.2476Z" fill="#FFEAA5"/>
<path opacity="0.2" d="M325.69 89.4274L300.713 96.067C300.323 95.9768 299.948 95.8826 299.585 95.7836L324.536 89.1509C324.935 89.2382 325.32 89.3304 325.69 89.4274Z" fill="#FFEAA5"/>
<path d="M322.15 90.401L316.088 90.4122C316.617 90.6257 317.05 90.8825 317.281 91.1885L322.152 91.1797L322.153 92.0995L317.323 92.1084C316.737 93.0006 314.343 93.4855 312.519 93.6833C312.015 93.7387 311.47 93.7646 310.926 93.7655L308.466 93.7701L318.194 96.3176L313.645 96.3259L303.917 93.7783L303.915 92.8582L309.594 92.8476C311.434 92.8442 313.029 92.5419 313.669 92.1147L304.45 92.1318L304.449 91.2119L313.662 91.1948C313.074 90.7555 311.786 90.5218 311.072 90.421L304.447 90.4333L304.445 89.5134L322.148 89.4806L322.15 90.401Z" fill="#FF5E00"/>
<path d="M322.15 90.2061L316.088 90.2172C316.617 90.4307 317.049 90.6876 317.28 90.9935L322.151 90.9844L322.153 91.9043L317.322 91.9131C316.737 92.8053 314.342 93.2902 312.519 93.4883C312.014 93.5437 311.47 93.5696 310.926 93.5705L308.466 93.5751L318.194 96.1227L313.645 96.1309L303.917 93.5833L303.915 92.6635L309.594 92.6529C311.434 92.6495 313.029 92.3472 313.669 91.92L304.45 91.9371L304.449 91.0172L313.662 91.0001C313.074 90.5611 311.786 90.3271 311.072 90.2263L304.447 90.2386L304.445 89.3187L322.148 89.2859L322.15 90.2061Z" fill="#FF8400"/>
<path d="M342.134 85.07L342.142 89.682C342.142 89.7282 342.141 89.7762 342.139 89.8227C342.091 91.3987 341.154 92.825 339.703 93.4811C337.669 94.401 335.261 95.1162 332.633 95.6434C331.818 95.8087 330.982 95.9554 330.13 96.0838C328.255 96.3652 326.299 96.5621 324.31 96.6786C323.606 96.72 322.9 96.7508 322.19 96.7722C319.526 96.8513 316.832 96.7945 314.215 96.6124C313.043 96.5296 311.886 96.422 310.755 96.2896C307.851 95.9502 305.12 95.4502 302.73 94.8071C301.358 94.439 300.098 94.024 298.983 93.5642C298.466 93.3518 298.008 93.0453 297.626 92.6705C296.89 91.9473 296.434 90.9669 296.382 89.9072C296.377 89.8407 296.375 89.7745 296.375 89.708L296.367 85.1548L342.134 85.07Z" fill="#FDB748"/>
<path d="M342.14 89.8228C342.092 91.3988 341.154 92.825 339.703 93.4812C337.038 94.6865 333.734 95.541 330.13 96.0839C327.594 96.464 324.908 96.6898 322.191 96.7723C319.526 96.8513 316.832 96.7945 314.215 96.6124C313.043 96.5297 311.887 96.4221 310.755 96.2896C307.852 95.9503 305.121 95.4502 302.73 94.8072C301.359 94.439 300.099 94.024 298.983 93.5642C298.466 93.3519 298.008 93.0454 297.626 92.6706C296.89 91.9474 296.434 90.967 296.382 89.9072C297.292 90.3211 298.25 90.7058 299.245 91.0577C301.017 91.6848 302.914 92.2159 304.894 92.6509C307.535 93.2317 310.325 93.6421 313.166 93.887C314.347 93.9884 315.54 94.0603 316.732 94.1045C319.514 94.2076 322.307 94.1545 325.021 93.9518C327.969 93.7301 330.824 93.3293 333.474 92.7528C336.748 92.0404 339.708 91.0617 342.14 89.8228Z" fill="#FF901E"/>
<path opacity="0.2" d="M312.447 85.1248L304.894 92.6509L302.73 94.8072C301.358 94.439 300.098 94.024 298.983 93.5642C298.466 93.3518 298.008 93.0453 297.626 92.6706L299.244 91.0577L305.185 85.1385L312.447 85.1248Z" fill="#FFEAA5"/>
<path opacity="0.2" d="M342.134 85.07L342.136 86.1994L335.651 92.6603L332.633 95.6431C331.817 95.8084 330.982 95.9551 330.13 96.0835C328.255 96.3649 326.298 96.5619 324.31 96.6783L327.2 93.8596L336.008 85.0814L342.134 85.07Z" fill="#FFEAA5"/>
<path opacity="0.2" d="M325.767 85.1003L316.732 94.1045L314.215 96.6121C313.043 96.5293 311.886 96.4217 310.755 96.2893L313.166 93.887L321.977 85.1071L325.767 85.1003Z" fill="#FFEAA5"/>
<path d="M342.133 84.9958C342.14 88.3303 331.9 91.0526 319.261 91.076C306.623 91.0994 296.372 88.4148 296.366 85.0803C296.366 85.0055 296.37 84.9307 296.383 84.856C296.822 81.6245 306.884 79.023 319.238 79.0002C331.593 78.9773 341.665 81.5417 342.116 84.7715C342.128 84.8463 342.133 84.921 342.133 84.9958Z" fill="#FFEAA5"/>
<path d="M337.54 85.0041C337.54 85.0784 337.532 85.1523 337.522 85.2256C337.085 87.7852 329.063 89.8456 319.258 89.8636C309.454 89.8818 301.424 87.8509 300.977 85.293C300.967 85.2196 300.959 85.1454 300.959 85.0715C300.954 82.4103 309.154 80.2306 319.24 80.2118C329.326 80.1935 337.535 82.3432 337.54 85.0041Z" fill="#FF901E"/>
<path d="M337.522 85.2259C337.086 87.7855 329.063 89.8459 319.259 89.8639C319.039 89.8642 318.822 89.8633 318.605 89.8616C316.418 89.8453 314.328 89.7274 312.398 89.5242C310.469 89.321 308.702 89.0333 307.165 88.678C306.775 88.5878 306.399 88.4936 306.037 88.3946C304.398 87.9445 303.085 87.4107 302.208 86.8185C301.996 86.6769 301.809 86.5311 301.651 86.3833C301.273 86.0345 301.045 85.6694 300.978 85.293C301.414 82.7334 309.436 80.6724 319.241 80.6542C320.482 80.6519 321.694 80.6827 322.868 80.7432C323.465 80.7738 324.055 80.8123 324.632 80.8585C326.987 81.046 329.142 81.3566 330.988 81.7619C331.386 81.8492 331.772 81.9417 332.142 82.0384C333.579 82.4129 334.782 82.8504 335.684 83.3342C336.563 83.806 337.156 84.3206 337.407 84.8634C337.463 84.9827 337.502 85.104 337.522 85.2259Z" fill="#FDB748"/>
<path opacity="0.2" d="M337.407 84.8637L318.606 89.8616C316.419 89.8453 314.328 89.7274 312.399 89.5242L335.685 83.3342C336.563 83.8062 337.156 84.3208 337.407 84.8637Z" fill="#FFEAA5"/>
<path opacity="0.2" d="M324.632 80.8588L302.208 86.8188C301.996 86.6772 301.81 86.5314 301.651 86.3835L322.868 80.7435C323.465 80.774 324.055 80.8125 324.632 80.8588Z" fill="#FFEAA5"/>
<path opacity="0.2" d="M332.142 82.0386L307.165 88.6782C306.775 88.588 306.399 88.4938 306.037 88.3948L330.988 81.7621C331.386 81.8494 331.772 81.9416 332.142 82.0386Z" fill="#FFEAA5"/>
<path d="M328.602 83.0119L322.54 83.0231C323.069 83.2365 323.501 83.4934 323.732 83.7994L328.603 83.7902L328.605 84.7101L323.774 84.719C323.189 85.6112 320.794 86.0961 318.971 86.2939C318.466 86.3493 317.922 86.3752 317.378 86.3761L314.918 86.3806L324.646 88.9282L320.097 88.9365L310.369 86.3889L310.367 85.469L316.046 85.4585C317.886 85.4551 319.481 85.1528 320.121 84.7255L310.902 84.7427L310.901 83.8228L320.114 83.8057C319.526 83.3667 318.238 83.1327 317.524 83.0319L310.899 83.0442L310.897 82.124L328.6 82.0912L328.602 83.0119Z" fill="#FF5E00"/>
<path d="M328.602 82.8172L322.54 82.8284C323.069 83.0418 323.501 83.2987 323.732 83.6047L328.603 83.5958L328.605 84.5157L323.774 84.5246C323.188 85.4168 320.794 85.9017 318.97 86.0995C318.466 86.1548 317.922 86.1808 317.377 86.1817L314.918 86.1862L324.646 88.7338L320.097 88.7421L310.368 86.1945L310.367 85.2743L316.045 85.2638C317.885 85.2604 319.48 84.9581 320.121 84.5308L310.902 84.548L310.9 83.6278L320.114 83.6107C319.525 83.1714 318.237 82.9377 317.524 82.8369L310.899 82.8492L310.897 81.9293L328.6 81.8965L328.602 82.8172Z" fill="#FF8400"/>
<path d="M282.729 132.205V137C282.729 137.048 282.728 137.098 282.726 137.146C282.673 138.784 281.695 140.266 280.185 140.945C278.069 141.898 275.564 142.637 272.83 143.18C271.982 143.35 271.113 143.501 270.227 143.633C268.276 143.922 266.242 144.123 264.174 144.24C263.443 144.282 262.708 144.312 261.97 144.333C259.2 144.41 256.399 144.346 253.678 144.152C252.46 144.063 251.257 143.949 250.081 143.809C247.063 143.451 244.224 142.926 241.74 142.253C240.315 141.867 239.005 141.433 237.847 140.953C237.309 140.731 236.834 140.412 236.437 140.021C235.673 139.268 235.201 138.248 235.149 137.146C235.144 137.077 235.143 137.008 235.143 136.939V132.204H282.729V132.205Z" fill="#FDB748"/>
<path d="M282.726 137.146C282.673 138.785 281.695 140.266 280.185 140.946C277.412 142.194 273.974 143.076 270.226 143.633C267.589 144.024 264.795 144.253 261.97 144.334C259.2 144.411 256.398 144.347 253.678 144.152C252.46 144.064 251.257 143.95 250.081 143.81C247.063 143.452 244.224 142.926 241.74 142.253C240.314 141.868 239.005 141.434 237.846 140.954C237.309 140.732 236.833 140.412 236.437 140.022C235.673 139.268 235.201 138.248 235.149 137.146C236.094 137.579 237.089 137.98 238.123 138.348C239.965 139.004 241.936 139.559 243.994 140.015C246.739 140.624 249.639 141.056 252.592 141.317C253.821 141.424 255.06 141.501 256.3 141.549C259.192 141.662 262.097 141.612 264.919 141.406C267.984 141.182 270.953 140.77 273.709 140.176C277.116 139.442 280.195 138.43 282.726 137.146Z" fill="#FF901E"/>
<path opacity="0.2" d="M251.862 132.205L243.994 140.015L241.739 142.253C240.313 141.867 239.004 141.434 237.845 140.954C237.308 140.732 236.833 140.412 236.436 140.022L238.122 138.348L244.311 132.205H251.862Z" fill="#FFEAA5"/>
<path opacity="0.2" d="M282.729 132.205V133.379L275.974 140.084L272.83 143.18C271.982 143.35 271.113 143.501 270.226 143.633C268.276 143.922 266.242 144.123 264.174 144.24L267.184 141.315L276.359 132.205H282.729Z" fill="#FFEAA5"/>
<path opacity="0.2" d="M265.711 132.205L256.299 141.549L253.678 144.152C252.459 144.063 251.257 143.95 250.08 143.81L252.592 141.316L261.771 132.204H265.711V132.205Z" fill="#FFEAA5"/>
<path d="M282.729 132.127C282.729 135.594 272.078 138.405 258.936 138.405C245.795 138.405 235.142 135.594 235.142 132.127C235.142 132.049 235.147 131.972 235.16 131.894C235.623 128.535 246.09 125.849 258.936 125.849C271.782 125.849 282.249 128.535 282.711 131.894C282.724 131.972 282.729 132.049 282.729 132.127Z" fill="#FFEAA5"/>
<path d="M277.953 132.127C277.953 132.204 277.945 132.281 277.934 132.357C277.475 135.018 269.13 137.145 258.935 137.145C248.74 137.145 240.396 135.018 239.936 132.357C239.926 132.281 239.918 132.204 239.918 132.127C239.918 129.36 248.449 127.109 258.935 127.109C269.422 127.109 277.953 129.36 277.953 132.127Z" fill="#FF901E"/>
<path d="M277.935 132.358C277.475 135.018 269.13 137.145 258.936 137.145C258.707 137.145 258.482 137.144 258.256 137.142C255.982 137.12 253.809 136.994 251.803 136.779C249.797 136.564 247.961 136.261 246.364 135.889C245.958 135.794 245.567 135.696 245.191 135.592C243.487 135.121 242.123 134.564 241.213 133.946C240.993 133.799 240.799 133.646 240.635 133.493C240.242 133.129 240.006 132.749 239.937 132.358C240.396 129.697 248.741 127.57 258.936 127.57C260.225 127.57 261.486 127.604 262.707 127.669C263.328 127.702 263.941 127.743 264.54 127.792C266.989 127.992 269.229 128.319 271.147 128.744C271.561 128.836 271.962 128.932 272.347 129.034C273.84 129.426 275.09 129.883 276.027 130.388C276.94 130.88 277.555 131.416 277.815 131.981C277.873 132.105 277.913 132.231 277.935 132.358Z" fill="#FDB748"/>
<path opacity="0.2" d="M277.815 131.981L258.256 137.141C255.982 137.12 253.809 136.994 251.803 136.779L276.026 130.387C276.939 130.88 277.555 131.416 277.815 131.981Z" fill="#FFEAA5"/>
<path opacity="0.2" d="M264.54 127.792L241.213 133.946C240.993 133.798 240.799 133.646 240.634 133.493L262.706 127.669C263.327 127.702 263.94 127.743 264.54 127.792Z" fill="#FFEAA5"/>
<path opacity="0.2" d="M272.346 129.033L246.363 135.889C245.958 135.794 245.567 135.696 245.191 135.592L271.147 128.744C271.561 128.835 271.962 128.932 272.346 129.033Z" fill="#FFEAA5"/>
<path d="M268.664 130.039H262.361C262.911 130.262 263.36 130.53 263.6 130.848H268.664V131.805H263.642C263.031 132.731 260.54 133.231 258.644 133.433C258.12 133.49 257.553 133.516 256.987 133.516H254.43L264.54 136.183H259.81L249.7 133.516V132.559H255.604C257.517 132.559 259.177 132.248 259.843 131.805H250.258V130.848H259.837C259.227 130.39 257.888 130.145 257.146 130.039H250.257V129.082H268.664V130.039H268.664Z" fill="#FF5E00"/>
<path d="M268.664 129.836H262.361C262.911 130.059 263.36 130.327 263.6 130.646H268.664V131.602H263.642C263.031 132.529 260.54 133.028 258.644 133.231C258.12 133.287 257.553 133.313 256.987 133.313H254.43L264.54 135.981H259.81L249.7 133.313V132.357H255.604C257.517 132.357 259.177 132.045 259.843 131.602H250.258V130.646H259.837C259.227 130.188 257.888 129.942 257.146 129.836H250.257V128.879H268.664V129.836H268.664Z" fill="#FF8400"/>
<path d="M282.729 124.969V129.764C282.729 129.813 282.728 129.862 282.726 129.911C282.673 131.549 281.695 133.03 280.185 133.71C278.069 134.663 275.564 135.402 272.83 135.944C271.982 136.115 271.113 136.266 270.227 136.397C268.276 136.686 266.242 136.887 264.174 137.005C263.443 137.046 262.708 137.077 261.97 137.098C259.2 137.175 256.399 137.111 253.678 136.917C252.46 136.828 251.257 136.714 250.081 136.574C247.063 136.216 244.224 135.691 241.74 135.018C240.315 134.632 239.005 134.198 237.847 133.718C237.309 133.496 236.834 133.176 236.437 132.786C235.673 132.033 235.201 131.012 235.149 129.911C235.144 129.841 235.143 129.772 235.143 129.703V124.969H282.729Z" fill="#FDB748"/>
<path d="M282.726 129.91C282.673 131.549 281.695 133.03 280.185 133.71C277.412 134.958 273.974 135.84 270.226 136.397C267.589 136.788 264.795 137.018 261.97 137.098C259.2 137.175 256.398 137.111 253.678 136.916C252.46 136.828 251.257 136.714 250.081 136.574C247.063 136.216 244.224 135.691 241.74 135.018C240.314 134.632 239.005 134.198 237.846 133.718C237.309 133.496 236.833 133.176 236.437 132.786C235.673 132.032 235.201 131.012 235.149 129.91C236.094 130.342 237.089 130.744 238.123 131.112C239.965 131.767 241.936 132.323 243.994 132.779C246.739 133.388 249.639 133.82 252.592 134.08C253.821 134.188 255.06 134.265 256.3 134.313C259.192 134.426 262.097 134.376 264.919 134.17C267.984 133.946 270.953 133.534 273.709 132.94C277.116 132.206 280.195 131.194 282.726 129.91Z" fill="#FF901E"/>
<path opacity="0.2" d="M251.862 124.969L243.994 132.78L241.739 135.018C240.313 134.632 239.004 134.198 237.845 133.718C237.308 133.496 236.833 133.176 236.436 132.786L238.122 131.112L244.311 124.969H251.862Z" fill="#FFEAA5"/>
<path opacity="0.2" d="M282.729 124.969V126.143L275.974 132.849L272.83 135.944C271.982 136.115 271.113 136.266 270.226 136.397C268.276 136.686 266.242 136.887 264.174 137.005L267.184 134.079L276.359 124.969H282.729Z" fill="#FFEAA5"/>
<path opacity="0.2" d="M265.711 124.969L256.299 134.314L253.678 136.916C252.459 136.828 251.257 136.714 250.08 136.574L252.592 134.081L261.771 124.968H265.711V124.969Z" fill="#FFEAA5"/>
<path d="M282.729 124.891C282.729 128.359 272.078 131.169 258.936 131.169C245.795 131.169 235.142 128.359 235.142 124.891C235.142 124.814 235.147 124.736 235.16 124.658C235.623 121.299 246.09 118.613 258.936 118.613C271.782 118.613 282.249 121.299 282.711 124.658C282.724 124.736 282.729 124.814 282.729 124.891Z" fill="#FFEAA5"/>
<path d="M277.953 124.891C277.953 124.968 277.945 125.045 277.934 125.122C277.475 127.782 269.13 129.909 258.935 129.909C248.74 129.909 240.396 127.782 239.936 125.122C239.926 125.045 239.918 124.968 239.918 124.891C239.918 122.125 248.449 119.873 258.935 119.873C269.422 119.873 277.953 122.125 277.953 124.891Z" fill="#FF901E"/>
<path d="M277.935 125.122C277.475 127.782 269.13 129.909 258.936 129.909C258.707 129.909 258.482 129.908 258.256 129.906C255.982 129.885 253.809 129.758 251.803 129.543C249.797 129.328 247.961 129.026 246.364 128.653C245.958 128.559 245.567 128.46 245.191 128.356C243.487 127.885 242.123 127.328 241.213 126.71C240.993 126.562 240.799 126.411 240.635 126.257C240.242 125.893 240.006 125.513 239.937 125.122C240.396 122.461 248.741 120.334 258.936 120.334C260.225 120.334 261.486 120.368 262.707 120.433C263.328 120.466 263.941 120.507 264.54 120.556C266.989 120.756 269.229 121.083 271.147 121.508C271.561 121.599 271.962 121.696 272.347 121.798C273.84 122.19 275.09 122.647 276.027 123.152C276.94 123.644 277.555 124.18 277.815 124.745C277.873 124.869 277.913 124.995 277.935 125.122Z" fill="#FDB748"/>
<path opacity="0.2" d="M277.815 124.745L258.256 129.905C255.982 129.884 253.809 129.758 251.803 129.543L276.026 123.151C276.939 123.644 277.555 124.18 277.815 124.745Z" fill="#FFEAA5"/>
<path opacity="0.2" d="M264.54 120.556L241.213 126.71C240.993 126.562 240.799 126.411 240.634 126.256L262.706 120.433C263.327 120.466 263.94 120.507 264.54 120.556Z" fill="#FFEAA5"/>
<path opacity="0.2" d="M272.346 121.798L246.363 128.653C245.958 128.559 245.567 128.46 245.191 128.356L271.147 121.508C271.561 121.599 271.962 121.696 272.346 121.798Z" fill="#FFEAA5"/>
<path d="M268.664 122.803H262.361C262.911 123.025 263.36 123.293 263.6 123.612H268.664V124.569H263.642C263.031 125.495 260.54 125.995 258.644 126.197C258.12 126.254 257.553 126.28 256.987 126.28H254.43L264.54 128.947H259.81L249.7 126.28V125.323H255.604C257.517 125.323 259.177 125.012 259.843 124.569H250.258V123.612H259.837C259.227 123.154 257.888 122.908 257.146 122.803H250.257V121.846H268.664V122.803H268.664Z" fill="#FF5E00"/>
<path d="M268.664 122.6H262.361C262.911 122.823 263.36 123.091 263.6 123.409H268.664V124.366H263.642C263.031 125.293 260.54 125.792 258.644 125.995C258.12 126.051 257.553 126.077 256.987 126.077H254.43L264.54 128.745H259.81L249.7 126.077V125.12H255.604C257.517 125.12 259.177 124.809 259.843 124.366H250.258V123.409H259.837C259.227 122.952 257.888 122.706 257.146 122.6H250.257V121.643H268.664V122.6H268.664Z" fill="#FF8400"/>
<path d="M282.729 117.298V122.094C282.729 122.142 282.728 122.192 282.726 122.24C282.673 123.879 281.695 125.36 280.185 126.04C278.069 126.992 275.564 127.731 272.83 128.274C271.982 128.444 271.113 128.595 270.227 128.727C268.276 129.016 266.242 129.217 264.174 129.334C263.443 129.376 262.708 129.407 261.97 129.427C259.2 129.504 256.399 129.44 253.678 129.246C252.46 129.157 251.257 129.044 250.081 128.904C247.063 128.545 244.224 128.02 241.74 127.347C240.315 126.961 239.005 126.528 237.847 126.047C237.309 125.825 236.834 125.506 236.437 125.115C235.673 124.362 235.201 123.342 235.149 122.24C235.144 122.171 235.143 122.102 235.143 122.033V117.298L282.729 117.298Z" fill="#FDB748"/>
<path d="M282.726 122.24C282.673 123.879 281.695 125.36 280.185 126.04C277.412 127.288 273.974 128.17 270.226 128.727C267.589 129.118 264.795 129.347 261.97 129.428C259.2 129.505 256.398 129.441 253.678 129.246C252.46 129.158 251.257 129.044 250.081 128.904C247.063 128.546 244.224 128.02 241.74 127.347C240.314 126.962 239.005 126.528 237.846 126.048C237.309 125.826 236.833 125.506 236.437 125.116C235.673 124.362 235.201 123.342 235.149 122.24C236.094 122.672 237.089 123.074 238.123 123.442C239.965 124.097 241.936 124.653 243.994 125.109C246.739 125.718 249.639 126.15 252.592 126.41C253.821 126.518 255.06 126.595 256.3 126.643C259.192 126.756 262.097 126.706 264.919 126.5C267.984 126.275 270.953 125.864 273.709 125.27C277.116 124.536 280.195 123.524 282.726 122.24Z" fill="#FF901E"/>
<path opacity="0.2" d="M251.862 117.298L243.994 125.109L241.739 127.347C240.313 126.961 239.004 126.528 237.845 126.047C237.308 125.825 236.833 125.506 236.436 125.115L238.122 123.441L244.311 117.298L251.862 117.298Z" fill="#FFEAA5"/>
<path opacity="0.2" d="M282.729 117.299V118.473L275.974 125.178L272.83 128.274C271.982 128.444 271.113 128.595 270.226 128.727C268.276 129.016 266.242 129.217 264.174 129.334L267.184 126.409L276.359 117.299H282.729Z" fill="#FFEAA5"/>
<path opacity="0.2" d="M265.711 117.298L256.299 126.643L253.678 129.246C252.459 129.157 251.257 129.044 250.08 128.904L252.592 126.41L261.771 117.298L265.711 117.298Z" fill="#FFEAA5"/>
<path d="M282.729 117.221C282.729 120.688 272.078 123.499 258.936 123.499C245.795 123.499 235.142 120.688 235.142 117.221C235.142 117.143 235.147 117.066 235.16 116.988C235.623 113.629 246.09 110.943 258.936 110.943C271.782 110.943 282.249 113.629 282.711 116.988C282.724 117.066 282.729 117.143 282.729 117.221Z" fill="#FFEAA5"/>
<path d="M277.953 117.221C277.953 117.298 277.945 117.375 277.934 117.451C277.475 120.112 269.13 122.239 258.935 122.239C248.74 122.239 240.396 120.112 239.936 117.451C239.926 117.375 239.918 117.298 239.918 117.221C239.918 114.454 248.449 112.203 258.935 112.203C269.422 112.203 277.953 114.454 277.953 117.221Z" fill="#FF901E"/>
<path d="M277.935 117.451C277.475 120.112 269.13 122.239 258.936 122.239C258.707 122.239 258.482 122.238 258.256 122.236C255.982 122.214 253.809 122.088 251.803 121.873C249.797 121.658 247.961 121.355 246.364 120.983C245.958 120.888 245.567 120.79 245.191 120.686C243.487 120.215 242.123 119.658 241.213 119.04C240.993 118.892 240.799 118.74 240.635 118.586C240.242 118.223 240.006 117.843 239.937 117.451C240.396 114.791 248.741 112.663 258.936 112.663C260.225 112.663 261.486 112.698 262.707 112.763C263.328 112.796 263.941 112.837 264.54 112.886C266.989 113.086 269.229 113.413 271.147 113.838C271.561 113.929 271.962 114.026 272.347 114.128C273.84 114.52 275.09 114.977 276.027 115.482C276.94 115.974 277.555 116.51 277.815 117.075C277.873 117.199 277.913 117.325 277.935 117.451Z" fill="#FDB748"/>
<path opacity="0.2" d="M277.815 117.075L258.256 122.235C255.982 122.214 253.809 122.087 251.803 121.872L276.026 115.481C276.939 115.974 277.555 116.51 277.815 117.075Z" fill="#FFEAA5"/>
<path opacity="0.2" d="M264.54 112.886L241.213 119.04C240.993 118.892 240.799 118.74 240.634 118.586L262.706 112.763C263.327 112.796 263.94 112.837 264.54 112.886Z" fill="#FFEAA5"/>
<path opacity="0.2" d="M272.346 114.127L246.363 120.983C245.958 120.888 245.567 120.79 245.191 120.686L271.147 113.838C271.561 113.929 271.962 114.026 272.346 114.127Z" fill="#FFEAA5"/>
<path d="M268.664 115.132H262.361C262.911 115.355 263.36 115.623 263.6 115.942H268.664V116.898H263.642C263.031 117.825 260.54 118.325 258.644 118.527C258.12 118.584 257.553 118.61 256.987 118.61H254.43L264.54 121.277H259.81L249.7 118.61V117.653H255.604C257.517 117.653 259.177 117.341 259.843 116.898H250.258V115.942H259.837C259.227 115.484 257.888 115.238 257.146 115.132H250.257V114.176H268.664V115.132H268.664Z" fill="#FF5E00"/>
<path d="M268.664 114.93H262.361C262.911 115.153 263.36 115.421 263.6 115.739H268.664V116.696H263.642C263.031 117.622 260.54 118.122 258.644 118.324C258.12 118.381 257.553 118.407 256.987 118.407H254.43L264.54 121.074H259.81L249.7 118.407V117.45H255.604C257.517 117.45 259.177 117.139 259.843 116.696H250.258V115.739H259.837C259.227 115.281 257.888 115.036 257.146 114.93H250.257V113.973H268.664V114.93H268.664Z" fill="#FF8400"/>
<path d="M282.729 109.628V114.424C282.729 114.472 282.728 114.522 282.726 114.57C282.673 116.208 281.695 117.69 280.185 118.369C278.069 119.322 275.564 120.061 272.83 120.604C271.982 120.774 271.113 120.925 270.227 121.057C268.276 121.346 266.242 121.547 264.174 121.664C263.443 121.706 262.708 121.736 261.97 121.757C259.2 121.834 256.399 121.77 253.678 121.576C252.46 121.487 251.257 121.373 250.081 121.234C247.063 120.875 244.224 120.35 241.74 119.677C240.315 119.291 239.005 118.858 237.847 118.377C237.309 118.155 236.834 117.836 236.437 117.445C235.673 116.692 235.201 115.672 235.149 114.57C235.144 114.501 235.143 114.432 235.143 114.363V109.628H282.729Z" fill="#FDB748"/>
<path d="M282.726 114.569C282.673 116.208 281.695 117.689 280.185 118.369C277.412 119.617 273.974 120.499 270.226 121.057C267.589 121.447 264.795 121.677 261.97 121.757C259.2 121.834 256.398 121.77 253.678 121.575C252.46 121.487 251.257 121.373 250.081 121.233C247.063 120.875 244.224 120.35 241.74 119.677C240.314 119.291 239.005 118.857 237.846 118.377C237.309 118.155 236.833 117.835 236.437 117.445C235.673 116.691 235.201 115.671 235.149 114.569C236.094 115.002 237.089 115.403 238.123 115.771C239.965 116.426 241.936 116.982 243.994 117.438C246.739 118.047 249.639 118.479 252.592 118.74C253.821 118.847 255.06 118.924 256.3 118.973C259.192 119.085 262.097 119.035 264.919 118.83C267.984 118.605 270.953 118.193 273.709 117.599C277.116 116.865 280.195 115.853 282.726 114.569Z" fill="#FF901E"/>
<path opacity="0.2" d="M251.862 109.628L243.994 117.439L241.739 119.677C240.313 119.291 239.004 118.857 237.845 118.377C237.308 118.155 236.833 117.836 236.436 117.445L238.122 115.771L244.311 109.628H251.862Z" fill="#FFEAA5"/>
<path opacity="0.2" d="M282.729 109.628V110.803L275.974 117.508L272.83 120.604C271.982 120.774 271.113 120.925 270.226 121.057C268.276 121.346 266.242 121.547 264.174 121.664L267.184 118.738L276.359 109.628H282.729Z" fill="#FFEAA5"/>
<path opacity="0.2" d="M265.711 109.628L256.299 118.973L253.678 121.575C252.459 121.487 251.257 121.373 250.08 121.233L252.592 118.74L261.771 109.628L265.711 109.628Z" fill="#FFEAA5"/>
<path d="M282.729 109.551C282.729 113.018 272.078 115.829 258.936 115.829C245.795 115.829 235.142 113.018 235.142 109.551C235.142 109.473 235.147 109.395 235.16 109.317C235.623 105.958 246.09 103.273 258.936 103.273C271.782 103.273 282.249 105.958 282.711 109.317C282.724 109.395 282.729 109.473 282.729 109.551Z" fill="#FFEAA5"/>
<path d="M277.953 109.551C277.953 109.628 277.945 109.705 277.934 109.781C277.475 112.441 269.13 114.569 258.935 114.569C248.74 114.569 240.396 112.442 239.936 109.781C239.926 109.705 239.918 109.628 239.918 109.551C239.918 106.784 248.449 104.533 258.935 104.533C269.422 104.533 277.953 106.784 277.953 109.551Z" fill="#FF901E"/>
<path d="M277.935 109.781C277.475 112.441 269.13 114.569 258.936 114.569C258.707 114.569 258.482 114.567 258.256 114.565C255.982 114.544 253.809 114.417 251.803 114.202C249.797 113.987 247.961 113.685 246.364 113.312C245.958 113.218 245.567 113.119 245.191 113.016C243.487 112.544 242.123 111.987 241.213 111.37C240.993 111.222 240.799 111.07 240.635 110.916C240.242 110.552 240.006 110.172 239.937 109.781C240.396 107.12 248.741 104.993 258.936 104.993C260.225 104.993 261.486 105.027 262.707 105.092C263.328 105.125 263.941 105.166 264.54 105.216C266.989 105.415 269.229 105.742 271.147 106.167C271.561 106.259 271.962 106.355 272.347 106.457C273.84 106.849 275.09 107.306 276.027 107.811C276.94 108.303 277.555 108.839 277.815 109.405C277.873 109.528 277.913 109.654 277.935 109.781Z" fill="#FDB748"/>
<path opacity="0.2" d="M277.815 109.404L258.256 114.565C255.982 114.544 253.809 114.417 251.803 114.202L276.026 107.81C276.939 108.303 277.555 108.839 277.815 109.404Z" fill="#FFEAA5"/>
<path opacity="0.2" d="M264.54 105.216L241.213 111.37C240.993 111.222 240.799 111.07 240.634 110.916L262.706 105.092C263.327 105.125 263.94 105.166 264.54 105.216Z" fill="#FFEAA5"/>
<path opacity="0.2" d="M272.346 106.457L246.363 113.312C245.958 113.218 245.567 113.119 245.191 113.016L271.147 106.167C271.561 106.259 271.962 106.355 272.346 106.457Z" fill="#FFEAA5"/>
<path d="M268.664 107.462H262.361C262.911 107.685 263.36 107.953 263.6 108.271H268.664V109.228H263.642C263.031 110.154 260.54 110.654 258.644 110.857C258.12 110.913 257.553 110.939 256.987 110.939H254.43L264.54 113.607H259.81L249.7 110.939V109.982H255.604C257.517 109.982 259.177 109.671 259.843 109.228H250.258V108.271H259.837C259.227 107.814 257.888 107.568 257.146 107.462H250.257V106.505H268.664V107.462H268.664Z" fill="#FF5E00"/>
<path d="M268.664 107.259H262.361C262.911 107.482 263.36 107.75 263.6 108.069H268.664V109.025H263.642C263.031 109.952 260.54 110.452 258.644 110.654C258.12 110.711 257.553 110.736 256.987 110.736H254.43L264.54 113.404H259.81L249.7 110.736V109.78H255.604C257.517 109.78 259.177 109.468 259.843 109.025H250.258V108.069H259.837C259.227 107.611 257.888 107.365 257.146 107.259H250.257V106.303H268.664V107.259H268.664Z" fill="#FF8400"/>
<path d="M282.729 102.392V107.188C282.729 107.236 282.728 107.286 282.726 107.334C282.673 108.972 281.695 110.454 280.185 111.133C278.069 112.086 275.564 112.825 272.83 113.368C271.982 113.538 271.113 113.689 270.227 113.821C268.276 114.11 266.242 114.311 264.174 114.428C263.443 114.47 262.708 114.5 261.97 114.521C259.2 114.598 256.399 114.534 253.678 114.34C252.46 114.251 251.257 114.137 250.081 113.997C247.063 113.639 244.224 113.114 241.74 112.441C240.315 112.055 239.005 111.621 237.847 111.141C237.309 110.919 236.834 110.599 236.437 110.209C235.673 109.456 235.201 108.435 235.149 107.334C235.144 107.264 235.143 107.195 235.143 107.126V102.392H282.729Z" fill="#FDB748"/>
<path d="M282.726 107.334C282.673 108.972 281.695 110.453 280.185 111.133C277.412 112.381 273.974 113.263 270.226 113.821C267.589 114.211 264.795 114.441 261.97 114.521C259.2 114.598 256.398 114.534 253.678 114.34C252.46 114.251 251.257 114.137 250.081 113.997C247.063 113.639 244.224 113.114 241.74 112.441C240.314 112.055 239.005 111.621 237.846 111.141C237.309 110.919 236.833 110.6 236.437 110.209C235.673 109.456 235.201 108.436 235.149 107.334C236.094 107.766 237.089 108.167 238.123 108.535C239.965 109.191 241.936 109.746 243.994 110.203C246.739 110.811 249.639 111.243 252.592 111.504C253.821 111.611 255.06 111.688 256.3 111.737C259.192 111.849 262.097 111.799 264.919 111.594C267.984 111.369 270.953 110.958 273.709 110.363C277.116 109.629 280.195 108.617 282.726 107.334Z" fill="#FF901E"/>
<path opacity="0.2" d="M251.862 102.392L243.994 110.203L241.739 112.441C240.313 112.055 239.004 111.621 237.845 111.141C237.308 110.919 236.833 110.6 236.436 110.209L238.122 108.535L244.311 102.392H251.862Z" fill="#FFEAA5"/>
<path opacity="0.2" d="M282.729 102.392V103.567L275.974 110.272L272.83 113.368C271.982 113.538 271.113 113.689 270.226 113.821C268.276 114.11 266.242 114.311 264.174 114.428L267.184 111.502L276.359 102.392H282.729Z" fill="#FFEAA5"/>
<path opacity="0.2" d="M265.711 102.392L256.299 111.737L253.678 114.339C252.459 114.251 251.257 114.137 250.08 113.997L252.592 111.504L261.771 102.392H265.711V102.392Z" fill="#FFEAA5"/>
<path d="M282.729 102.315C282.729 105.782 272.078 108.593 258.936 108.593C245.795 108.593 235.142 105.782 235.142 102.315C235.142 102.237 235.147 102.159 235.16 102.081C235.623 98.7224 246.09 96.0367 258.936 96.0367C271.782 96.0367 282.249 98.7224 282.711 102.081C282.724 102.159 282.729 102.237 282.729 102.315Z" fill="#FFEAA5"/>
<path d="M277.953 102.315C277.953 102.392 277.945 102.469 277.934 102.545C277.475 105.205 269.13 107.332 258.935 107.332C248.74 107.332 240.396 105.206 239.936 102.545C239.926 102.469 239.918 102.392 239.918 102.315C239.918 99.5478 248.449 97.2968 258.935 97.2968C269.422 97.2968 277.953 99.5478 277.953 102.315Z" fill="#FF901E"/>
<path d="M277.935 102.545C277.475 105.205 269.13 107.332 258.936 107.332C258.707 107.332 258.482 107.331 258.256 107.329C255.982 107.308 253.809 107.181 251.803 106.966C249.797 106.751 247.961 106.449 246.364 106.076C245.958 105.982 245.567 105.883 245.191 105.78C243.487 105.308 242.123 104.751 241.213 104.134C240.993 103.986 240.799 103.834 240.635 103.68C240.242 103.316 240.006 102.936 239.937 102.545C240.396 99.8846 248.741 97.7569 258.936 97.7569C260.225 97.7569 261.486 97.7911 262.707 97.8562C263.328 97.889 263.941 97.9304 264.54 97.9795C266.989 98.179 269.229 98.5061 271.147 98.9311C271.561 99.0227 271.962 99.1195 272.347 99.2211C273.84 99.6132 275.09 100.07 276.027 100.575C276.94 101.067 277.555 101.603 277.815 102.169C277.873 102.292 277.913 102.418 277.935 102.545Z" fill="#FDB748"/>
<path opacity="0.2" d="M277.815 102.168L258.256 107.329C255.982 107.308 253.809 107.181 251.803 106.966L276.026 100.575C276.939 101.067 277.555 101.603 277.815 102.168Z" fill="#FFEAA5"/>
<path opacity="0.2" d="M264.54 97.9794L241.213 104.134C240.993 103.986 240.799 103.834 240.634 103.68L262.706 97.8561C263.327 97.8892 263.94 97.9306 264.54 97.9794Z" fill="#FFEAA5"/>
<path opacity="0.2" d="M272.346 99.221L246.363 106.077C245.958 105.982 245.567 105.883 245.191 105.78L271.147 98.9313C271.561 99.0227 271.962 99.1194 272.346 99.221Z" fill="#FFEAA5"/>
<path d="M268.664 100.226H262.361C262.911 100.449 263.36 100.717 263.6 101.036H268.664V101.992H263.642C263.031 102.919 260.54 103.419 258.644 103.621C258.12 103.677 257.553 103.703 256.987 103.703H254.43L264.54 106.371H259.81L249.7 103.703V102.747H255.604C257.517 102.747 259.177 102.435 259.843 101.992H250.258V101.036H259.837C259.227 100.578 257.888 100.332 257.146 100.226H250.257V99.2695H268.664V100.226H268.664Z" fill="#FF5E00"/>
<path d="M268.664 100.024H262.361C262.911 100.247 263.36 100.515 263.6 100.833H268.664V101.79H263.642C263.031 102.716 260.54 103.216 258.644 103.418C258.12 103.475 257.553 103.501 256.987 103.501H254.43L264.54 106.168H259.81L249.7 103.501V102.544H255.604C257.517 102.544 259.177 102.233 259.843 101.79H250.258V100.833H259.837C259.227 100.375 257.888 100.129 257.146 100.024H250.257V99.0669H268.664V100.024H268.664Z" fill="#FF8400"/>
<path d="M282.729 94.7218V99.517C282.729 99.5652 282.728 99.6149 282.726 99.6631C282.673 101.302 281.695 102.783 280.185 103.463C278.069 104.415 275.564 105.154 272.83 105.697C271.983 105.867 271.113 106.018 270.227 106.15C268.277 106.439 266.242 106.64 264.174 106.757C263.443 106.799 262.708 106.83 261.97 106.851C259.2 106.928 256.399 106.864 253.678 106.669C252.46 106.581 251.257 106.467 250.081 106.327C247.063 105.969 244.224 105.443 241.74 104.77C240.315 104.385 239.006 103.951 237.847 103.471C237.309 103.249 236.834 102.929 236.437 102.539C235.673 101.785 235.201 100.765 235.149 99.6631C235.144 99.5941 235.143 99.525 235.143 99.4559V94.7215H282.729V94.7218Z" fill="#FDB748"/>
<path d="M282.726 99.6635C282.673 101.302 281.696 102.783 280.186 103.463C277.412 104.711 273.974 105.593 270.226 106.151C267.589 106.541 264.795 106.771 261.97 106.851C259.2 106.928 256.398 106.864 253.678 106.669C252.46 106.581 251.257 106.467 250.081 106.327C247.063 105.969 244.224 105.444 241.74 104.771C240.314 104.385 239.005 103.951 237.846 103.471C237.309 103.249 236.834 102.929 236.437 102.539C235.673 101.785 235.201 100.765 235.149 99.6635C236.094 100.096 237.089 100.497 238.123 100.865C239.965 101.52 241.936 102.076 243.994 102.532C246.739 103.141 249.639 103.573 252.592 103.834C253.821 103.941 255.06 104.018 256.3 104.067C259.192 104.179 262.097 104.129 264.919 103.924C267.984 103.699 270.953 103.287 273.709 102.693C277.116 101.959 280.195 100.947 282.726 99.6635Z" fill="#FF901E"/>
<path opacity="0.2" d="M251.862 94.7218L243.994 102.533L241.739 104.771C240.314 104.385 239.004 103.951 237.846 103.471C237.308 103.249 236.833 102.929 236.436 102.539L238.122 100.865L244.311 94.7218H251.862Z" fill="#FFEAA5"/>
<path opacity="0.2" d="M282.729 94.7218V95.8963L275.974 102.602L272.83 105.697C271.982 105.868 271.113 106.019 270.226 106.15C268.276 106.439 266.242 106.64 264.174 106.758L267.184 103.832L276.36 94.7218H282.729Z" fill="#FFEAA5"/>
<path opacity="0.2" d="M265.711 94.7218L256.299 104.067L253.678 106.669C252.459 106.581 251.257 106.467 250.08 106.327L252.592 103.834L261.771 94.7215H265.711V94.7218Z" fill="#FFEAA5"/>
<path d="M282.73 94.6444C282.73 98.1116 272.078 100.922 258.936 100.922C245.795 100.922 235.142 98.1116 235.142 94.6444C235.142 94.5668 235.147 94.4891 235.16 94.4112C235.623 91.0522 246.09 88.3665 258.936 88.3665C271.782 88.3665 282.249 91.0522 282.712 94.4112C282.725 94.4891 282.73 94.5668 282.73 94.6444Z" fill="#FFEAA5"/>
<path d="M277.953 94.6444C277.953 94.7215 277.945 94.7985 277.934 94.8748C277.475 97.5351 269.13 99.6623 258.935 99.6623C248.741 99.6623 240.396 97.5354 239.936 94.8748C239.926 94.7985 239.918 94.7215 239.918 94.6444C239.918 91.8776 248.449 89.6266 258.935 89.6266C269.422 89.6266 277.953 91.8776 277.953 94.6444Z" fill="#FF901E"/>
<path d="M277.935 94.8748C277.475 97.5351 269.131 99.6623 258.936 99.6623C258.707 99.6623 258.482 99.6608 258.256 99.6588C255.982 99.6377 253.809 99.511 251.803 99.2961C249.797 99.0812 247.961 98.7786 246.364 98.4062C245.958 98.3117 245.567 98.2129 245.191 98.1093C243.487 97.6381 242.123 97.0807 241.213 96.4634C240.993 96.3155 240.799 96.1637 240.635 96.0096C240.242 95.6462 240.006 95.2661 239.937 94.8748C240.396 92.2144 248.741 90.0867 258.936 90.0867C260.226 90.0867 261.486 90.1209 262.707 90.186C263.328 90.2188 263.941 90.2602 264.54 90.3093C266.989 90.5088 269.229 90.8359 271.147 91.2609C271.561 91.3525 271.962 91.4492 272.347 91.5508C273.841 91.943 275.09 92.3999 276.027 92.9048C276.94 93.3972 277.555 93.9332 277.815 94.4983C277.873 94.6222 277.913 94.748 277.935 94.8748Z" fill="#FDB748"/>
<path opacity="0.2" d="M277.815 94.4982L258.256 99.6588C255.982 99.6377 253.809 99.5109 251.803 99.296L276.026 92.9048C276.939 93.3968 277.555 93.9331 277.815 94.4982Z" fill="#FFEAA5"/>
<path opacity="0.2" d="M264.54 90.3093L241.213 96.4633C240.993 96.3155 240.799 96.1637 240.634 96.0095L262.706 90.186C263.327 90.2191 263.94 90.2605 264.54 90.3093Z" fill="#FFEAA5"/>
<path opacity="0.2" d="M272.346 91.5508L246.364 98.4064C245.958 98.3119 245.567 98.2132 245.191 98.1096L271.147 91.2611C271.561 91.3524 271.962 91.4492 272.346 91.5508Z" fill="#FFEAA5"/>
<path d="M268.665 92.5559H262.362C262.911 92.7789 263.36 93.0469 263.6 93.3654H268.665V94.3221H263.642C263.031 95.2485 260.54 95.7483 258.644 95.9506C258.12 96.0072 257.554 96.0331 256.987 96.0331H254.43L264.54 98.7006H259.81L249.7 96.0331V95.0764H255.604C257.517 95.0764 259.177 94.765 259.843 94.3221H250.258V93.3654H259.838C259.227 92.9076 257.888 92.6618 257.146 92.5559H250.257V91.5992H268.664V92.5559H268.665Z" fill="#FF5E00"/>
<path d="M268.665 92.3534H262.362C262.911 92.5763 263.36 92.8443 263.6 93.1628H268.665V94.1195H263.642C263.031 95.046 260.54 95.5457 258.644 95.7481C258.12 95.8049 257.554 95.8305 256.987 95.8305H254.43L264.54 98.498H259.81L249.7 95.8305V94.8738H255.604C257.517 94.8738 259.177 94.5625 259.843 94.1195H250.258V93.1628H259.838C259.227 92.705 257.888 92.4593 257.146 92.3534H250.257V91.3967H268.664L268.665 92.3534Z" fill="#FF8400"/>
<path d="M241.338 93.3575C236.235 93.9568 235.746 94.4429 235.141 99.5084C234.538 94.4432 234.048 93.9571 228.946 93.3575C234.048 92.7581 234.538 92.272 235.141 87.2065C235.746 92.272 236.235 92.7581 241.338 93.3575Z" fill="white"/>
<path d="M314.307 127.674C314.307 140.358 303.951 150.641 291.172 150.641C278.396 150.641 268.037 140.357 268.037 127.674C268.037 127.39 268.042 127.106 268.055 126.822C268.504 114.533 278.682 104.708 291.172 104.708C303.662 104.708 313.84 114.533 314.29 126.822C314.302 127.106 314.307 127.39 314.307 127.674Z" fill="#FDB748"/>
<path d="M314.289 126.822C313.838 139.11 303.662 148.935 291.172 148.935C278.684 148.935 268.506 139.11 268.055 126.822C268.503 114.533 278.682 104.708 291.172 104.708C303.662 104.708 313.84 114.533 314.289 126.822Z" fill="#FFEAA5"/>
<path d="M309.663 127.674C309.663 127.956 309.655 128.238 309.645 128.517C309.198 138.25 301.084 146.03 291.172 146.03C281.259 146.03 273.145 138.25 272.699 128.517C272.689 128.238 272.681 127.956 272.681 127.674C272.681 117.553 280.975 109.318 291.172 109.318C301.368 109.318 309.663 117.553 309.663 127.674Z" fill="#FF901E"/>
<path d="M309.645 128.517C309.199 138.25 301.085 146.031 291.172 146.031C290.95 146.031 290.731 146.026 290.512 146.018C288.301 145.941 286.188 145.478 284.237 144.691C282.287 143.905 280.501 142.798 278.948 141.436C278.553 141.09 278.174 140.729 277.808 140.35C276.152 138.626 274.825 136.588 273.94 134.329C273.726 133.788 273.538 133.232 273.378 132.669C272.996 131.34 272.766 129.949 272.699 128.517C273.146 118.785 281.26 111.001 291.172 111.001C292.426 111.001 293.652 111.127 294.839 111.365C295.442 111.485 296.039 111.636 296.622 111.816C299.003 112.545 301.181 113.741 303.046 115.296C303.448 115.631 303.838 115.985 304.212 116.356C305.664 117.791 306.88 119.463 307.79 121.31C308.678 123.11 309.277 125.072 309.529 127.139C309.586 127.593 309.624 128.053 309.645 128.517Z" fill="#FDB748"/>
<path opacity="0.2" d="M309.529 127.139L290.512 146.018C288.301 145.941 286.188 145.478 284.237 144.691L307.79 121.31C308.678 123.11 309.276 125.072 309.529 127.139Z" fill="#FFEAA5"/>
<path opacity="0.2" d="M296.621 111.815L273.94 134.329C273.726 133.788 273.537 133.232 273.378 132.669L294.838 111.365C295.442 111.485 296.038 111.636 296.621 111.815Z" fill="#FFEAA5"/>
<path opacity="0.2" d="M304.212 116.356L278.948 141.436C278.553 141.09 278.174 140.729 277.808 140.35L303.045 115.296C303.448 115.632 303.838 115.985 304.212 116.356Z" fill="#FFEAA5"/>
<path d="M300.631 120.034H294.503C295.037 120.85 295.474 121.83 295.707 122.995H300.631V126.495H295.748C295.154 129.884 292.732 131.712 290.888 132.452C290.378 132.659 289.828 132.753 289.277 132.753H286.791L296.62 142.512H292.021L282.192 132.753V129.254H287.932C289.792 129.254 291.406 128.115 292.054 126.495H282.734V122.995H292.048C291.454 121.321 290.153 120.422 289.432 120.034H282.733V116.534H300.631V120.034H300.631Z" fill="#FF5E00"/>
<path d="M300.631 119.293H294.503C295.037 120.108 295.474 121.088 295.707 122.254H300.631V125.753H295.748C295.154 129.143 292.732 130.97 290.888 131.711C290.378 131.918 289.828 132.012 289.277 132.012H286.791L296.62 141.77H292.021L282.192 132.012V128.513H287.932C289.792 128.513 291.406 127.374 292.054 125.753H282.734V122.254H292.048C291.454 120.579 290.153 119.68 289.432 119.293H282.733V115.793H300.631L300.631 119.293Z" fill="#FF8400"/>
<path d="M282.644 143.414C277.542 144.013 277.052 144.499 276.448 149.565C275.844 144.499 275.355 144.014 270.252 143.414C275.355 142.815 275.844 142.329 276.448 137.263C277.052 142.329 277.542 142.814 282.644 143.414Z" fill="white"/>
<path d="M312.112 108.501C307.01 109.1 306.52 109.586 305.916 114.652C305.313 109.586 304.823 109.1 299.721 108.501C304.823 107.901 305.313 107.415 305.916 102.35C306.52 107.415 307.01 107.901 312.112 108.501Z" fill="white"/>
<defs>
<linearGradient id="paint0_linear_28_304" x1="171.5" y1="0" x2="171.5" y2="150" gradientUnits="userSpaceOnUse">
<stop stop-color="white"/>
<stop offset="1" stop-color="#B5C8FF"/>
</linearGradient>
</defs>
</svg>
