<svg width="24" height="24" viewBox="0 0 24 24" fill="none" xmlns="http://www.w3.org/2000/svg">
<path d="M21.158 9.96184C20.7637 9.57119 20.3793 9.17073 20.005 8.76084C19.948 8.16385 19.9186 7.56455 19.917 6.96484C19.9162 6.20073 19.6123 5.46815 19.072 4.92784C18.5317 4.38753 17.7991 4.08364 17.035 4.08284C16.236 4.08284 15.657 4.06384 15.37 4.04884C14.9075 3.66744 14.463 3.26467 14.038 2.84184C12.952 1.75584 11.048 1.75584 9.961 2.84184C9.396 3.40684 8.974 3.80384 8.76 3.99484C8.417 4.02984 7.7 4.08284 6.964 4.08284C6.2005 4.0839 5.46858 4.38767 4.9287 4.92755C4.38883 5.46742 4.08506 6.19934 4.084 6.96284C4.084 7.76284 4.065 8.34184 4.049 8.62784C3.832 8.89584 3.362 9.43984 2.842 9.96184C2.299 10.5048 2 11.2288 2 11.9998C2 12.7708 2.3 13.4948 2.841 14.0378C3.408 14.6038 3.804 15.0258 3.995 15.2398C4.03 15.5838 4.083 16.3018 4.083 17.0348C4.08353 17.7986 4.3871 18.5309 4.92706 19.0711C5.46702 19.6112 6.19925 19.915 6.963 19.9158C7.763 19.9158 8.341 19.9348 8.628 19.9498C8.896 20.1688 9.443 20.6398 9.962 21.1578C10.505 21.7008 11.229 21.9998 12 21.9998C12.771 21.9998 13.495 21.7008 14.038 21.1578C14.604 20.5918 15.028 20.1948 15.241 20.0048C15.584 19.9698 16.301 19.9158 17.037 19.9158C17.8006 19.9151 18.5327 19.6114 19.0726 19.0714C19.6125 18.5315 19.9162 17.7994 19.917 17.0358C19.917 16.2358 19.936 15.6568 19.951 15.3698C20.3324 14.9073 20.7351 14.4628 21.158 14.0378C21.701 13.4948 22 12.7708 22 11.9998C22 11.2288 21.701 10.5048 21.158 9.96184Z" fill="#4CAF50"/>
<path d="M10.5001 15.5006C10.3687 15.5007 10.2387 15.4749 10.1173 15.4246C9.99602 15.3743 9.88582 15.3006 9.79308 15.2076L7.79308 13.2076C7.69757 13.1153 7.62139 13.005 7.56898 12.883C7.51657 12.761 7.48898 12.6298 7.48783 12.497C7.48668 12.3642 7.51198 12.2325 7.56226 12.1096C7.61254 11.9867 7.68679 11.8751 7.78069 11.7812C7.87458 11.6873 7.98623 11.613 8.10913 11.5627C8.23202 11.5125 8.3637 11.4872 8.49648 11.4883C8.62926 11.4895 8.76048 11.5171 8.88249 11.5695C9.00449 11.6219 9.11483 11.6981 9.20708 11.7936L10.5001 13.0866L14.7931 8.79357C14.8853 8.69806 14.9957 8.62188 15.1177 8.56947C15.2397 8.51706 15.3709 8.48947 15.5037 8.48832C15.6365 8.48717 15.7681 8.51247 15.891 8.56275C16.0139 8.61303 16.1256 8.68728 16.2195 8.78118C16.3134 8.87507 16.3876 8.98672 16.4379 9.10962C16.4882 9.23251 16.5135 9.36419 16.5123 9.49697C16.5112 9.62975 16.4836 9.76097 16.4312 9.88297C16.3788 10.005 16.3026 10.1153 16.2071 10.2076L11.2071 15.2076C11.1143 15.3006 11.0041 15.3743 10.8828 15.4246C10.7615 15.4749 10.6314 15.5007 10.5001 15.5006Z" fill="#E0E0E0"/>
</svg>
