<svg width="29" height="29" viewBox="0 0 29 29" fill="none" xmlns="http://www.w3.org/2000/svg">
<circle cx="14.5" cy="14.5" r="13.5" stroke="#CFCFCF" stroke-width="2"/>
<path d="M14.207 10.7305C13.7448 10.7305 13.5137 10.6035 13.5137 10.3496V9.32422C13.5137 9.07031 13.7448 8.94336 14.207 8.94336H14.4121C14.8809 8.94336 15.1152 9.07031 15.1152 9.32422V10.3496C15.1152 10.6035 14.8809 10.7305 14.4121 10.7305H14.207ZM14.2754 22.0293C13.8132 22.0293 13.582 21.9023 13.582 21.6484V13.2695C13.582 13.0156 13.8132 12.8887 14.2754 12.8887H14.3438C14.8125 12.8887 15.0469 13.0156 15.0469 13.2695V21.6484C15.0469 21.9023 14.8125 22.0293 14.3438 22.0293H14.2754Z" fill="#CFCFCF"/>
</svg>
