<svg width="40" height="33" viewBox="0 0 40 33" fill="none" xmlns="http://www.w3.org/2000/svg">
<path d="M31.7161 11.7452C31.6326 5.64671 26.6456 0.710938 20.5276 0.710938C17.8061 0.710938 15.1842 1.70094 13.145 3.49859C11.325 5.10288 10.08 7.24678 9.58693 9.60061C9.55092 9.60022 9.51521 9.5999 9.47959 9.5999C4.25265 9.5999 0 13.8525 0 19.0795C0 24.3065 4.25265 28.5591 9.47967 28.5591H16.1002C16.5712 28.5591 16.9532 28.1772 16.9532 27.706C16.9532 27.2349 16.5712 26.853 16.1002 26.853H9.47967C5.19327 26.853 1.70609 23.3658 1.70609 19.0795C1.70609 14.7932 5.19327 11.306 9.47967 11.306C9.70803 11.306 9.94943 11.3183 10.2178 11.3435C10.6726 11.3861 11.081 11.0626 11.1429 10.6094C11.4501 8.35788 12.5618 6.28702 14.2732 4.77835C16.0006 3.25554 18.2218 2.41695 20.5275 2.41695C25.7568 2.41695 30.011 6.67124 30.011 11.9004C30.011 12.0887 29.997 12.2828 29.9823 12.4883L29.976 12.5756C29.9672 12.6996 29.9856 12.824 30.03 12.9401C30.0743 13.0562 30.1435 13.1612 30.2328 13.2478C30.3219 13.3344 30.4289 13.4004 30.5463 13.4413C30.6637 13.4822 30.7885 13.497 30.9122 13.4845C31.1383 13.4617 31.3653 13.4502 31.5925 13.4501C35.2876 13.4501 38.2939 16.4564 38.2939 20.1515C38.2939 23.8466 35.2877 26.8528 31.5925 26.8528H24.6307C24.1597 26.8528 23.7777 27.2347 23.7777 27.7059C23.7777 28.1771 24.1597 28.5589 24.6307 28.5589H31.5925C36.2284 28.5589 40 24.7875 40 20.1515C39.9999 15.5572 36.2952 11.8115 31.7161 11.7452Z" fill="url(#paint0_linear_664_45651)"/>
<path d="M20.5276 4.71875C16.9605 4.71875 13.9071 7.38445 13.4249 10.9193C13.3612 11.3861 13.6881 11.8162 14.1548 11.8798C14.194 11.8852 14.2328 11.8878 14.2712 11.8878C14.6911 11.8878 15.057 11.5777 15.1152 11.15C15.4827 8.45625 17.8094 6.42484 20.5275 6.42484C20.9987 6.42484 21.3805 6.04297 21.3805 5.5718C21.3806 5.1007 20.9987 4.71875 20.5276 4.71875ZM24.4069 21.5047L21.3039 18.7328C20.769 18.2547 19.9619 18.2548 19.4268 18.7327L16.3238 21.5048C15.9724 21.8186 15.9421 22.3579 16.2559 22.7093C16.5698 23.0605 17.109 23.0911 17.4605 22.7772L19.5123 20.9442V31.4388C19.5123 31.91 19.8942 32.2919 20.3654 32.2919C20.8365 32.2919 21.2184 31.91 21.2184 31.4388V20.9441L23.2704 22.7771C23.4265 22.917 23.6288 22.9942 23.8384 22.994C23.9586 22.9942 24.0774 22.9689 24.1872 22.9198C24.2969 22.8707 24.395 22.799 24.4749 22.7092C24.7886 22.3578 24.7582 21.8186 24.4069 21.5047Z" fill="url(#paint1_linear_664_45651)"/>
<defs>
<linearGradient id="paint0_linear_664_45651" x1="0" y1="0.710938" x2="8.04248" y2="35.5178" gradientUnits="userSpaceOnUse">
<stop stop-color="white"/>
<stop offset="1" stop-color="white"/>
</linearGradient>
<linearGradient id="paint1_linear_664_45651" x1="13.417" y1="4.71875" x2="31.1804" y2="26.6041" gradientUnits="userSpaceOnUse">
<stop stop-color="white"/>
<stop offset="1" stop-color="white"/>
</linearGradient>
</defs>
</svg>
