<svg width="20" height="20" viewBox="0 0 20 20" fill="none" xmlns="http://www.w3.org/2000/svg">
<path d="M9.375 12.5C9 12.5 8.75 12.75 8.75 13.125V15H7.5V13.125C7.5 12.75 7.25 12.5 6.875 12.5C6.5 12.5 6.25 12.75 6.25 13.125V15.625C6.25 16 6.5 16.25 6.875 16.25H8.75V18.125C8.75 18.5 9 18.75 9.375 18.75C9.75 18.75 10 18.5 10 18.125V13.125C10 12.75 9.75 12.5 9.375 12.5ZM3.125 16.25C4.1875 16.25 5 15.4375 5 14.375C5 13.3125 4.1875 12.5 3.125 12.5H1.875C1.5 12.5 1.25 12.75 1.25 13.125C1.25 13.5 1.5 13.75 1.875 13.75H3.125C3.5 13.75 3.75 14 3.75 14.375C3.75 14.75 3.5 15 3.125 15C2.0625 15 1.25 15.8125 1.25 16.875V18.125C1.25 18.5 1.5 18.75 1.875 18.75H4.375C4.75 18.75 5 18.5 5 18.125C5 17.75 4.75 17.5 4.375 17.5H2.5V16.875C2.5 16.5 2.75 16.25 3.125 16.25Z" fill="white"/>
<path d="M10.625 1.25C6.125 1.25 2.5 4.875 2.5 9.375C2.5 9.8125 2.5625 10.25 2.625 10.75C2.6875 11.0625 3 11.3125 3.375 11.25C3.6875 11.1875 3.9375 10.875 3.875 10.5C3.875 10.3125 3.8125 10.125 3.8125 10H5C5.375 10 5.625 9.75 5.625 9.375C5.625 9 5.375 8.75 5 8.75H3.8125C4.125 5.4375 6.75 2.8125 10 2.5625V3.75C10 4.125 10.25 4.375 10.625 4.375C11 4.375 11.25 4.125 11.25 3.75V2.5625C14.5625 2.875 17.1875 5.5 17.4375 8.75H16.25C15.875 8.75 15.625 9 15.625 9.375C15.625 9.75 15.875 10 16.25 10H17.5C17.25 13.0625 14.9375 15.625 11.8125 16.125C11.5 16.1875 11.25 16.5 11.3125 16.875C11.375 17.1875 11.625 17.375 11.9375 17.375H12.0625C15.875 16.75 18.75 13.375 18.75 9.375C18.75 4.875 15.125 1.25 10.625 1.25Z" fill="white"/>
<path d="M12.5 11.875C12.6875 11.875 12.8125 11.8125 12.9375 11.6875C13.1875 11.4375 13.1875 11.0625 12.9375 10.8125L11.25 9.125V6.25C11.25 5.875 11 5.625 10.625 5.625C10.25 5.625 10 5.875 10 6.25V9.375C10 9.5625 10.0625 9.6875 10.1875 9.8125L12.0625 11.6875C12.1875 11.8125 12.3125 11.875 12.5 11.875Z" fill="white"/>
</svg>
