<svg width="20" height="20" viewBox="0 0 20 20" fill="none" xmlns="http://www.w3.org/2000/svg">
<path d="M10.4166 16.6654H8.74996C5.61781 16.6654 4.05173 16.6654 3.00618 15.8396C2.83894 15.7075 2.68428 15.562 2.54396 15.4046C1.66663 14.4205 1.66663 12.9466 1.66663 9.9987C1.66663 7.0508 1.66663 5.57684 2.54396 4.59278C2.68428 4.43539 2.83894 4.28982 3.00618 4.15776C4.05173 3.33203 5.61781 3.33203 8.74996 3.33203H11.25C14.3821 3.33203 15.9482 3.33203 16.9937 4.15776C17.161 4.28982 17.3156 4.43539 17.456 4.59278C18.1995 5.42668 18.3129 6.61238 18.3302 8.7487" stroke="white" stroke-width="1.5" stroke-linecap="round" stroke-linejoin="round"/>
<path d="M15.4167 16.6654V10.832M12.5 13.7487H18.3333" stroke="white" stroke-width="1.5" stroke-linecap="round"/>
<path d="M1.66663 7.5H18.3333" stroke="white" stroke-width="1.5" stroke-linejoin="round"/>
</svg>
