<svg width="20" height="20" viewBox="0 0 20 20" fill="none" xmlns="http://www.w3.org/2000/svg">
<path d="M13.3333 1.66797V5.0013M6.66663 1.66797V5.0013" stroke="white" stroke-linecap="round" stroke-linejoin="round"/>
<path d="M10.8333 3.33203H9.16667C6.02397 3.33203 4.45262 3.33203 3.47631 4.30834C2.5 5.28466 2.5 6.856 2.5 9.9987V11.6654C2.5 14.808 2.5 16.3794 3.47631 17.3557C4.45262 18.332 6.02397 18.332 9.16667 18.332H10.8333C13.976 18.332 15.5474 18.332 16.5237 17.3557C17.5 16.3794 17.5 14.808 17.5 11.6654V9.9987C17.5 6.856 17.5 5.28466 16.5237 4.30834C15.5474 3.33203 13.976 3.33203 10.8333 3.33203Z" stroke="white" stroke-linecap="round" stroke-linejoin="round"/>
<path d="M2.5 8.33203H17.5" stroke="white" stroke-linecap="round" stroke-linejoin="round"/>
<path d="M10 10.832V15.832M12.5 13.332H7.5" stroke="white" stroke-linecap="round" stroke-linejoin="round"/>
</svg>
