<svg width="404" height="300" viewBox="0 0 404 300" fill="none" xmlns="http://www.w3.org/2000/svg">
<path d="M403.285 263.641H0.715576V263.842H403.285V263.641Z" fill="#EBEBEB"/>
<path d="M362.948 276.598H336.28V276.799H362.948V276.598Z" fill="#EBEBEB"/>
<path d="M243.418 276.699H236.419V276.901H243.418V276.699Z" fill="#EBEBEB"/>
<path d="M335.474 269.125H286.003V269.326H335.474V269.125Z" fill="#EBEBEB"/>
<path d="M181.99 273.871H171.77V274.072H181.99V273.871Z" fill="#EBEBEB"/>
<path d="M164.601 273.871H134.946V274.072H164.601V273.871Z" fill="#EBEBEB"/>
<path d="M63.4268 270.477H42.9521V270.678H63.4268V270.477Z" fill="#EBEBEB"/>
<path d="M128.554 270.477H68.2578V270.678H128.554V270.477Z" fill="#EBEBEB"/>
<path d="M191.545 227.732H36.0733C33.5395 227.732 31.4775 225.67 31.4775 223.136V4.59573C31.4775 2.06196 33.5395 0 36.0733 0H191.545C194.078 0 196.14 2.06196 196.14 4.59573V223.136C196.14 225.67 194.078 227.732 191.545 227.732ZM36.0733 0.202089C33.6498 0.202089 31.6788 2.17307 31.6788 4.59653V223.137C31.6788 225.56 33.6498 227.531 36.0733 227.531H191.545C193.967 227.531 195.938 225.56 195.938 223.137V4.59573C195.938 2.17307 193.967 0.201285 191.545 0.201285L36.0733 0.202089Z" fill="#EBEBEB"/>
<path d="M365.693 227.732H210.222C207.689 227.732 205.627 225.67 205.627 223.136V4.59573C205.627 2.06196 207.689 0 210.222 0H365.693C368.227 0 370.289 2.06196 370.289 4.59573V223.136C370.289 225.67 368.227 227.732 365.693 227.732ZM210.222 0.202089C207.8 0.202089 205.829 2.17307 205.829 4.59653V223.137C205.829 225.56 207.8 227.531 210.222 227.531H365.693C368.116 227.531 370.087 225.56 370.087 223.137V4.59573C370.087 2.17307 368.116 0.201285 365.693 0.201285L210.222 0.202089Z" fill="#EBEBEB"/>
<path d="M154.319 156.637L349.999 156.637V13.6982L154.319 13.6982L154.319 156.637Z" fill="#E6E6E6"/>
<path d="M145.667 156.637L347.992 156.637V13.6982L145.667 13.6982L145.667 156.637Z" fill="#F0F0F0"/>
<path d="M335.881 144.528V25.8125L157.779 25.8125L157.779 144.528L335.881 144.528Z" fill="#FAFAFA"/>
<path d="M292.588 144.528L252.043 25.8125H213.323L253.869 144.528H292.588Z" fill="white"/>
<path d="M245.552 144.528L205.007 25.8125H189.912L230.458 144.528H245.552Z" fill="white"/>
<path d="M159.317 144.529L159.317 25.8125H157.779L157.779 144.529H159.317Z" fill="#E6E6E6"/>
<path d="M52.7085 117.762L121.805 117.762L121.805 19.7998L52.7085 19.7998L52.7085 117.762Z" fill="#E0E0E0"/>
<path d="M47.8145 117.762L119.039 117.762L119.039 19.7998L47.8145 19.7998L47.8145 117.762Z" fill="#F5F5F5"/>
<path d="M112.008 110.041L112.008 27.5195L54.8451 27.5195L54.8451 110.041L112.008 110.041Z" fill="white"/>
<path d="M79.5629 186.343C84.6924 173.688 96.8911 168.976 101.105 160.986C106.627 150.517 106.595 134.812 101.894 129.145C97.8097 124.221 84.2826 157.52 82.7593 161.24C77.5187 174.036 75.9953 183.532 75.0131 192.732C75.125 184.912 75.2321 177.732 75.3198 172.192C75.6065 154.122 75.9647 148.31 76.1282 146.522C76.6926 145.648 77.3601 144.63 77.7473 144.084C81.021 139.469 88.2842 133.975 91.9137 127.266C97.2139 117.47 96.3573 105.745 92.64 101.38C88.7527 96.8156 81.8817 107.604 78.2328 118.293C74.5847 128.983 76.1435 139.215 75.1202 148.092C74.906 149.834 74.6862 156.447 74.4801 165.621C73.373 155.75 71.1685 149.137 67.0833 142.975C62.0584 135.395 57.7203 126.166 53.5795 127.359C49.4395 128.553 51.6681 140.764 54.9434 149.338C57.8604 156.973 72.2514 164.588 74.3714 170.727C74.1218 183.162 73.8988 198.916 73.7401 213.583C72.6057 206.007 73.3859 205.371 68.737 193.772C65.973 186.876 54.6423 178.372 53.2913 183.11C51.9652 187.76 53.9941 196.803 58.2718 203.074C61.7227 208.134 69.3787 208.128 71.15 211.268C71.5631 212 72.9302 214.808 73.7104 216.422C73.5252 234.329 73.4431 250.136 73.534 255.525L74.2764 255.579C74.2409 254.188 74.3303 245.079 74.476 233.024C76.3351 226.609 88.851 222.866 92.7172 216.195C96.7639 209.214 99.6712 201.068 97.9362 195.613C96.4893 191.066 85.0837 197.25 80.455 204.786C77.3721 209.805 75.4889 215.163 74.6097 222.36C74.7152 214.148 74.8351 205.326 74.9519 196.999C75.8891 194.922 78.0259 190.136 79.5629 186.343Z" fill="#E6E6E6"/>
<path d="M86.9127 263.64H60.6049C59.1677 263.64 57.9286 262.627 57.6436 261.219L55.7756 252.012H91.7428L89.8748 261.219C89.589 262.628 88.3507 263.64 86.9127 263.64Z" fill="#F0F0F0"/>
<path d="M92.4949 255.581H55.023C54.1252 255.581 53.37 254.906 53.2702 254.014L52.5037 247.207C52.3861 246.162 53.2042 245.246 54.2565 245.246H93.2606C94.3129 245.246 95.1317 246.162 95.0134 247.207L94.2469 254.014C94.147 254.906 93.3926 255.581 92.4949 255.581Z" fill="#F0F0F0"/>
<path d="M327.31 257.77H335.353V171.224H327.31V257.77Z" fill="#F0F0F0"/>
<path d="M163.403 263.535H332.264V257.767H163.403V263.535Z" fill="#F0F0F0"/>
<path d="M327.309 171.223H160.315V257.769H327.309V171.223Z" fill="#F5F5F5"/>
<path d="M329.202 171.223H337.513V165.768H329.202V171.223Z" fill="#E0E0E0"/>
<path d="M329.202 165.766H158.154V171.22H329.202V165.766Z" fill="#EBEBEB"/>
<path d="M315.324 208.603H172.299C168.734 208.603 165.834 205.703 165.834 202.137V183.603C165.834 180.037 168.735 177.137 172.299 177.137H315.324C318.89 177.137 321.79 180.037 321.79 183.603V202.137C321.79 205.703 318.89 208.603 315.324 208.603ZM172.299 178.747C169.622 178.747 167.444 180.926 167.444 183.603V202.137C167.444 204.814 169.622 206.993 172.299 206.993H315.324C318.001 206.993 320.18 204.814 320.18 202.137V183.603C320.18 180.926 318.001 178.747 315.324 178.747H172.299Z" fill="white"/>
<path d="M315.324 247.365H172.299C168.734 247.365 165.834 244.464 165.834 240.899V222.365C165.834 218.799 168.735 215.898 172.299 215.898H315.324C318.89 215.898 321.79 218.799 321.79 222.365V240.899C321.79 244.465 318.89 247.365 315.324 247.365ZM172.299 217.509C169.622 217.509 167.444 219.687 167.444 222.365V240.899C167.444 243.576 169.622 245.755 172.299 245.755H315.324C318.001 245.755 320.18 243.576 320.18 240.899V222.365C320.18 219.687 318.001 217.509 315.324 217.509H172.299Z" fill="white"/>
<path d="M282.821 195.721H204.804C203.651 195.721 202.713 194.783 202.713 193.63V192.107C202.713 190.954 203.651 190.016 204.804 190.016H282.821C283.974 190.016 284.912 190.954 284.912 192.107V193.63C284.912 194.783 283.974 195.721 282.821 195.721ZM204.804 191.627C204.544 191.627 204.323 191.847 204.323 192.107V193.631C204.323 193.891 204.543 194.111 204.804 194.111H282.821C283.082 194.111 283.302 193.892 283.302 193.631V192.107C283.302 191.847 283.082 191.627 282.821 191.627H204.804Z" fill="white"/>
<path d="M282.821 234.486H204.804C203.651 234.486 202.713 233.548 202.713 232.396V230.872C202.713 229.719 203.651 228.781 204.804 228.781H282.821C283.974 228.781 284.912 229.719 284.912 230.872V232.396C284.912 233.548 283.974 234.486 282.821 234.486ZM204.804 230.392C204.544 230.392 204.323 230.612 204.323 230.873V232.396C204.323 232.656 204.543 232.877 204.804 232.877H282.821C283.082 232.877 283.302 232.657 283.302 232.396V230.873C283.302 230.613 283.082 230.392 282.821 230.392H204.804Z" fill="white"/>
<path d="M197.974 300.003C284.19 300.003 354.082 295.921 354.082 290.886C354.082 285.851 284.19 281.77 197.974 281.77C111.758 281.77 41.8667 285.851 41.8667 290.886C41.8667 295.921 111.758 300.003 197.974 300.003Z" fill="#F5F5F5"/>
<path d="M302.459 90.8167L302.153 95.5586L302.956 95.6105L303.263 90.8686L302.459 90.8167Z" fill="#407BFF"/>
<path d="M303.705 71.5789L302.7 87.1602L303.503 87.212L304.509 71.6308L303.705 71.5789Z" fill="#407BFF"/>
<path d="M294.14 48.9375H199.493C194.535 48.9375 190.216 52.9938 189.895 57.9518L177.671 246.756C177.35 251.714 181.144 255.77 186.102 255.77H280.749C285.707 255.77 290.026 251.714 290.347 246.756L302.571 57.9518C302.892 52.9938 299.098 48.9375 294.14 48.9375Z" fill="#407BFF"/>
<path opacity="0.7" d="M291.135 48.9375H199.493C194.535 48.9375 190.216 52.9938 189.895 57.9518L177.671 246.756C177.35 251.714 181.144 255.77 186.102 255.77H277.745C282.703 255.77 287.022 251.714 287.343 246.756L299.567 57.9518C299.887 52.9938 296.093 48.9375 291.135 48.9375Z" fill="white"/>
<path d="M283.409 241.821H182.601C181.009 241.821 179.748 240.475 179.851 238.887L190.912 68.0429C191.006 66.5929 192.209 65.4648 193.662 65.4648H294.47C296.063 65.4648 297.324 66.8102 297.221 68.3988L286.16 239.243C286.065 240.693 284.863 241.821 283.409 241.821Z" fill="white"/>
<path d="M261.007 59.8742H224.367C223.56 59.8742 222.948 59.2204 223 58.4136C223.053 57.6069 223.749 56.9531 224.556 56.9531H261.196C262.003 56.9531 262.615 57.6069 262.562 58.4136C262.51 59.2204 261.814 59.8742 261.007 59.8742Z" fill="white"/>
<path d="M232.409 248.999C232.306 250.982 230.616 252.588 228.634 252.588C226.652 252.588 225.129 250.981 225.231 248.999C225.333 247.017 227.023 245.41 229.005 245.41C230.988 245.41 232.512 247.017 232.409 248.999Z" fill="white"/>
<path opacity="0.2" d="M272.427 112.781H186.345L180.877 197.246H272.427C277.385 197.246 281.441 193.19 281.441 188.232V121.795C281.441 116.838 277.385 112.781 272.427 112.781Z" fill="#407BFF"/>
<path d="M264.409 189.739H158.912C153.954 189.739 149.897 185.683 149.897 180.725V114.288C149.897 109.33 153.954 105.273 158.912 105.273H264.41C269.368 105.273 273.424 109.33 273.424 114.288V180.725C273.423 185.683 269.367 189.739 264.409 189.739Z" fill="#407BFF"/>
<path d="M147.019 104.308C146.813 104.308 146.607 104.229 146.45 104.072L145.007 102.628C144.692 102.314 144.692 101.805 145.007 101.49C145.321 101.175 145.83 101.175 146.145 101.49L147.589 102.934C147.904 103.248 147.904 103.757 147.589 104.072C147.432 104.23 147.226 104.308 147.019 104.308Z" fill="#407BFF"/>
<path d="M144.844 109.356H142.803C142.358 109.356 141.998 108.996 141.998 108.551C141.998 108.107 142.358 107.746 142.803 107.746H144.844C145.289 107.746 145.649 108.107 145.649 108.551C145.649 108.996 145.289 109.356 144.844 109.356Z" fill="#407BFF"/>
<path d="M152.144 102.128C151.725 102.128 151.372 101.804 151.342 101.38L151.196 99.3434C151.164 98.8998 151.498 98.5149 151.942 98.4827C152.394 98.4497 152.77 98.7854 152.801 99.2283L152.947 101.264C152.979 101.708 152.645 102.093 152.202 102.125C152.182 102.127 152.163 102.128 152.144 102.128Z" fill="#407BFF"/>
<path d="M220.675 181.059L253.058 213.442V181.059H220.675Z" fill="#407BFF"/>
<path d="M229.55 166.869L227.982 160.031C227.571 158.237 227.566 156.374 227.968 154.578L230.15 144.838C232.096 136.153 227.688 127.477 220.051 123.659C220.117 123.478 220.191 123.302 220.234 123.109C220.791 120.626 219.228 118.161 216.745 117.605C214.261 117.048 211.796 118.61 211.24 121.094C211.197 121.287 211.189 121.478 211.171 121.67C202.635 121.865 194.946 127.831 193.001 136.515L190.819 146.255C190.417 148.051 189.617 149.734 188.48 151.181L184.144 156.697C182.295 159.048 183.533 162.525 186.452 163.179L224.697 171.747C227.617 172.401 230.22 169.785 229.55 166.869Z" fill="white"/>
<path d="M200.668 168.978C199.409 168.697 198.279 169.788 198.496 171.06C198.932 173.626 200.872 175.8 203.57 176.405C206.268 177.01 208.95 175.871 210.441 173.736C211.179 172.679 210.623 171.209 209.364 170.927L200.668 168.978Z" fill="white"/>
<path d="M171.298 155.409C170.908 155.409 170.526 155.221 170.293 154.872C166.461 149.134 165.094 142.249 166.443 135.483C167.792 128.717 171.694 122.882 177.431 119.051C177.986 118.681 178.735 118.83 179.106 119.385C179.477 119.94 179.327 120.69 178.773 121.061C173.572 124.533 170.034 129.823 168.812 135.956C167.589 142.088 168.829 148.331 172.301 153.532C172.672 154.087 172.522 154.836 171.968 155.207C171.762 155.343 171.528 155.409 171.298 155.409Z" fill="white"/>
<path d="M176.417 151.99C176.027 151.99 175.645 151.802 175.412 151.453C172.494 147.083 171.452 141.838 172.48 136.685C173.506 131.532 176.48 127.087 180.849 124.169C181.403 123.798 182.154 123.947 182.524 124.503C182.894 125.058 182.745 125.808 182.191 126.178C178.357 128.738 175.749 132.637 174.848 137.157C173.947 141.678 174.861 146.279 177.419 150.113C177.79 150.667 177.64 151.417 177.086 151.787C176.881 151.924 176.647 151.99 176.417 151.99Z" fill="white"/>
<path d="M181.536 148.575C181.146 148.575 180.764 148.387 180.531 148.038C178.526 145.036 177.81 141.431 178.516 137.89C179.221 134.349 181.264 131.295 184.267 129.29C184.821 128.919 185.571 129.068 185.942 129.624C186.312 130.179 186.162 130.929 185.608 131.299C183.142 132.946 181.465 135.455 180.886 138.363C180.305 141.271 180.894 144.232 182.54 146.698C182.91 147.252 182.761 148.002 182.207 148.372C182 148.509 181.767 148.575 181.536 148.575Z" fill="white"/>
<path d="M240.927 172.41C240.49 172.41 240.068 172.172 239.853 171.757C239.547 171.165 239.78 170.435 240.372 170.129C245.929 167.261 250.036 162.399 251.937 156.442C253.837 150.484 253.304 144.143 250.435 138.586C250.129 137.993 250.362 137.264 250.954 136.958C251.547 136.654 252.275 136.884 252.581 137.478C255.746 143.607 256.335 150.603 254.238 157.175C252.142 163.749 247.611 169.111 241.481 172.276C241.303 172.367 241.113 172.41 240.927 172.41Z" fill="white"/>
<path d="M238.103 166.942C237.666 166.942 237.244 166.704 237.029 166.289C236.723 165.696 236.956 164.967 237.549 164.661C241.645 162.546 244.672 158.963 246.073 154.572C247.474 150.18 247.081 145.506 244.966 141.41C244.66 140.817 244.892 140.089 245.485 139.783C246.077 139.478 246.806 139.709 247.112 140.302C249.523 144.971 249.971 150.299 248.374 155.306C246.777 160.312 243.325 164.397 238.657 166.808C238.479 166.899 238.29 166.942 238.103 166.942Z" fill="white"/>
<path d="M235.28 161.477C234.842 161.477 234.421 161.238 234.206 160.824C233.9 160.231 234.132 159.502 234.725 159.197C237.36 157.837 239.308 155.531 240.209 152.706C241.11 149.88 240.858 146.873 239.496 144.238C239.19 143.645 239.423 142.916 240.015 142.611C240.609 142.306 241.337 142.537 241.643 143.13C245.062 149.753 242.456 157.923 235.833 161.343C235.656 161.433 235.466 161.477 235.28 161.477Z" fill="white"/>
<path d="M164.448 57.0742H158.296C157.974 57.0742 157.683 57.3375 157.649 57.6604L156.359 69.9307C156.325 70.2527 156.561 70.5168 156.883 70.5168H163.035C163.357 70.5168 163.648 70.2535 163.682 69.9307L164.972 57.6604C165.006 57.3383 164.77 57.0742 164.448 57.0742Z" fill="#407BFF"/>
<path opacity="0.4" d="M163.894 57.0742H158.296C157.974 57.0742 157.683 57.3375 157.649 57.6604L156.359 69.9307C156.325 70.2527 156.561 70.5168 156.883 70.5168H162.481C162.804 70.5168 163.095 70.2535 163.129 69.9307L164.419 57.6604C164.452 57.3383 164.217 57.0742 163.894 57.0742Z" fill="white"/>
<path d="M133.62 283.965C134.456 283.965 135.26 283.85 135.514 283.474C135.604 283.343 135.668 283.118 135.472 282.8C135.362 282.62 135.191 282.498 134.967 282.438C133.869 282.143 131.647 283.441 131.553 283.497C131.499 283.529 131.472 283.592 131.485 283.655C131.497 283.719 131.549 283.77 131.613 283.782C132.031 283.866 132.84 283.965 133.62 283.965ZM134.598 282.701C134.707 282.701 134.808 282.713 134.898 282.737C135.043 282.775 135.145 282.846 135.21 282.952C135.328 283.144 135.292 283.239 135.255 283.294C134.97 283.715 133.323 283.725 132.103 283.554C132.694 283.243 133.836 282.701 134.598 282.701Z" fill="#407BFF"/>
<path d="M131.642 283.784C131.664 283.784 131.685 283.779 131.705 283.77C132.477 283.417 133.974 282.007 133.823 281.27C133.787 281.097 133.655 280.881 133.229 280.838C132.911 280.806 132.628 280.896 132.384 281.103C131.585 281.784 131.485 283.54 131.481 283.615C131.478 283.67 131.506 283.723 131.552 283.755C131.579 283.773 131.61 283.784 131.642 283.784ZM133.117 281.14C133.148 281.14 133.179 281.142 133.21 281.145C133.489 281.173 133.512 281.283 133.518 281.319C133.609 281.761 132.599 282.87 131.817 283.352C131.878 282.839 132.064 281.788 132.59 281.342C132.748 281.206 132.922 281.14 133.117 281.14Z" fill="#407BFF"/>
<path d="M130.981 268.527H124.461V283.625H130.981V268.527Z" fill="#FF8B7B"/>
<path d="M77.1619 276.433L83.6738 277.138L87.9225 262.482L81.4106 261.777L77.1619 276.433Z" fill="#FF8B7B"/>
<path d="M86.7038 278.622C87.5234 278.828 88.339 278.916 88.6812 278.619C88.8011 278.515 88.9195 278.316 88.806 277.962C88.7432 277.763 88.6055 277.604 88.4002 277.491C87.397 276.937 84.8994 277.633 84.7932 277.663C84.732 277.681 84.6893 277.734 84.6869 277.798C84.6845 277.863 84.7215 277.923 84.7811 277.951C85.1716 278.135 85.9397 278.43 86.7038 278.622ZM87.9751 277.652C88.0813 277.678 88.178 277.714 88.2601 277.76C88.3921 277.832 88.4742 277.925 88.5121 278.044C88.5797 278.256 88.5218 278.339 88.4718 278.382C88.0886 278.715 86.4719 278.318 85.3189 277.853C85.9751 277.702 87.2287 277.464 87.9751 277.652Z" fill="#407BFF"/>
<path d="M84.81 277.96C84.8309 277.966 84.8527 277.967 84.8744 277.963C85.7174 277.815 87.533 276.832 87.5668 276.089C87.5749 275.915 87.4984 275.675 87.0918 275.529C86.7882 275.419 86.4887 275.435 86.1989 275.574C85.2472 276.03 84.7158 277.688 84.6941 277.758C84.678 277.81 84.6909 277.868 84.7279 277.91C84.7504 277.935 84.7794 277.952 84.81 277.96ZM86.909 275.791C86.9388 275.799 86.9694 275.808 86.9992 275.819C87.2657 275.915 87.2609 276.025 87.2584 276.061C87.2383 276.507 85.9742 277.32 85.0886 277.589C85.2754 277.113 85.7174 276.152 86.343 275.853C86.5306 275.764 86.7174 275.743 86.909 275.791Z" fill="#407BFF"/>
<path d="M84.0234 276.536L76.9004 274.491C76.6411 274.417 76.373 274.53 76.2547 274.764L73.6283 279.969C73.3562 280.51 73.6806 281.188 74.2821 281.349C76.7796 282.021 78.0227 282.224 81.1555 283.123C83.083 283.676 87.0041 285.014 89.665 285.777C92.268 286.524 93.3155 284.042 92.2842 283.494C87.6594 281.037 86.1788 279.054 84.9574 277.217C84.7376 276.884 84.4027 276.644 84.0234 276.536Z" fill="#263238"/>
<path d="M130.91 282.871H123.79C123.523 282.871 123.3 283.056 123.254 283.316L122.22 289.112C122.113 289.712 122.593 290.282 123.209 290.271C125.775 290.228 129.48 290.077 132.708 290.077C136.482 290.077 138.546 290.283 142.973 290.283C145.649 290.283 146.274 287.577 145.143 287.332C139.994 286.216 137.029 286.097 132.502 283.379C132.011 283.084 131.472 282.871 130.91 282.871Z" fill="#263238"/>
<path opacity="0.2" d="M130.977 268.527H124.455V276.31H130.977V268.527Z" fill="black"/>
<path opacity="0.2" d="M81.4083 261.777L87.9227 262.483L85.5628 270.612L79.2151 269.331L81.4083 261.777Z" fill="black"/>
<path d="M120.252 118.41C120.252 118.41 116.659 167.612 113.413 186.278C109.86 206.719 89.2037 269.308 89.2037 269.308L77.365 267.148C77.365 267.148 92.2826 208.37 93.9355 188.131C95.7294 166.166 97.888 120.888 97.888 120.888L120.252 118.41Z" fill="#407BFF"/>
<path opacity="0.3" d="M114.189 138.843C114.84 136.132 116.32 139.539 118.04 145.442C116.738 160.048 115.036 176.965 113.412 186.284C113.047 188.371 112.503 190.903 111.825 193.765C112.423 172.926 112.441 146.156 114.189 138.843Z" fill="black"/>
<path d="M132.547 117.047C132.547 117.047 137.279 166.532 137.439 186.414C137.606 207.094 133.344 274.807 133.344 274.807H122.3C122.3 274.807 118.986 208.303 117.606 187.992C116.102 165.851 109.764 119.571 109.764 119.571L132.547 117.047Z" fill="#407BFF"/>
<path d="M91.7002 265.326C91.751 265.335 89.846 269.613 89.846 269.613L76.5266 267.183L77.335 263.203L91.7002 265.326Z" fill="#263238"/>
<path d="M135.277 270.41C135.328 270.41 134.854 274.995 134.854 274.995H121.419L120.877 270.903L135.277 270.41Z" fill="#263238"/>
<path d="M98.2334 72.9485C97.3494 74.6675 96.3768 76.4678 95.4855 78.2487L92.781 83.6077C91.9051 85.3999 91.0476 87.1922 90.2175 88.9844C89.4164 90.7831 88.6298 92.5729 87.9333 94.3595L87.8729 91.5375C88.3721 92.9505 88.8665 94.3933 89.5653 95.7766C89.8801 96.4819 90.2763 97.1566 90.6257 97.8587C91.0242 98.5358 91.4067 99.2266 91.8439 99.8916C92.6844 101.242 93.612 102.563 94.6103 103.842C95.1119 104.48 95.6119 105.126 96.1433 105.743C96.6626 106.346 97.252 106.988 97.7222 107.511L97.884 107.69C98.7407 108.644 98.6626 110.112 97.7085 110.969C96.9525 111.647 95.8704 111.737 95.029 111.271C94.1079 110.759 93.3704 110.284 92.5918 109.738C91.8294 109.201 91.0766 108.649 90.3536 108.059C88.9059 106.881 87.5549 105.58 86.2812 104.183C85.0155 102.783 83.8223 101.285 82.7796 99.663C81.7007 98.0656 80.8014 96.3225 79.9914 94.5286C79.6307 93.7299 79.5921 92.8676 79.8191 92.0882L79.931 91.7066C80.5454 89.606 81.2297 87.5658 81.9866 85.5698C82.7402 83.5779 83.5469 81.6206 84.4004 79.6931C85.2482 77.7648 86.1515 75.8687 87.0895 73.992C88.0549 72.116 88.9816 70.2803 90.0742 68.4051C91.3729 66.1765 94.2319 65.4237 96.4597 66.7216C98.6135 67.9768 99.3896 70.6893 98.2665 72.8809L98.2334 72.9485Z" fill="#FF8B7B"/>
<path d="M102.858 70.0946C103.179 76.2346 96.2054 87.5178 96.2054 87.5178L81.8481 80.344C81.8481 80.344 84.2974 72.5624 89.8005 66.4739C97.401 58.0675 102.561 64.4079 102.858 70.0946Z" fill="#263238"/>
<path d="M93.1272 110.12L96.0176 114.952L102.032 111.103C102.032 111.103 100.434 108.03 97.3566 106.895C96.4419 106.558 95.4049 106.992 94.9106 107.916L93.1272 110.12Z" fill="#FF8B7B"/>
<path d="M98.4298 117.01L101.224 116.487C102.214 116.302 102.863 115.345 102.67 114.357L102.032 111.105L96.0176 114.954L96.425 115.927C96.7543 116.716 97.59 117.167 98.4298 117.01Z" fill="#FF8B7B"/>
<path d="M115.388 39.2076C115.451 39.7349 115.777 40.1399 116.117 40.1133C116.457 40.086 116.682 39.6375 116.618 39.1101C116.555 38.5828 116.228 38.1778 115.889 38.2044C115.55 38.2309 115.325 38.6802 115.388 39.2076Z" fill="#263238"/>
<path d="M115.73 40.1484C115.73 40.1484 117.275 43.0952 118.751 44.4591C117.936 45.402 116.325 45.1282 116.325 45.1282L115.73 40.1484Z" fill="#FF5652"/>
<path d="M113.135 36.4372C113.218 36.4477 113.302 36.4243 113.367 36.3663C114.365 35.4807 115.445 35.7786 115.49 35.7907C115.656 35.8374 115.821 35.744 115.862 35.5805C115.903 35.4163 115.804 35.2448 115.64 35.1957C115.583 35.178 114.201 34.7834 112.951 35.8929C112.826 36.0032 112.818 36.1997 112.933 36.3301C112.988 36.3913 113.061 36.4283 113.135 36.4372Z" fill="#263238"/>
<path d="M99.1606 45.0391C100.7 49.696 102.744 58.294 99.8249 61.7336C99.8249 61.7336 101.741 66.4276 110.573 65.6836C120.283 64.8656 114.597 60.4897 114.597 60.4897C109.135 59.6749 108.768 55.7458 109.219 51.989L99.1606 45.0391Z" fill="#FF8B7B"/>
<path d="M97.7454 63.4395C96.83 61.9822 95.8163 60.3132 97.5401 59.6924C99.437 59.0097 110.059 57.8978 113.843 58.8285C117.626 59.7593 116.859 62.8397 116.859 62.8397L97.7454 63.4395Z" fill="#407BFF"/>
<path d="M128.861 65.4006C130.247 66.6743 131.745 68.0785 133.233 69.3707C134.72 70.6903 136.231 71.9794 137.743 73.2523C139.268 74.5043 140.804 75.724 142.355 76.8907C143.918 78.0243 145.484 79.1177 147.068 80.0758L143.838 79.7747C145.032 79.4736 146.32 78.8979 147.579 78.0404C148.833 77.1846 150.088 76.1274 151.258 74.9165C152.448 73.7233 153.568 72.3859 154.649 70.9939C155.186 70.295 155.727 69.5865 156.235 68.8546C156.733 68.1356 157.252 67.3498 157.697 66.6767L157.784 66.5439C158.491 65.4714 159.934 65.1759 161.007 65.8828C161.879 66.4577 162.235 67.5213 161.959 68.4738C161.655 69.5197 161.336 70.4134 160.961 71.3538C160.592 72.2805 160.208 73.204 159.77 74.1065C158.894 75.9125 157.886 77.6765 156.689 79.3762C155.482 81.0629 154.109 82.7126 152.419 84.1836C150.74 85.6522 148.731 86.9831 146.346 87.8237C145.335 88.1795 144.276 88.0885 143.383 87.6538L143.116 87.5225C141.073 86.5185 139.147 85.4163 137.305 84.2319C135.47 83.0484 133.706 81.798 131.995 80.4985C130.286 79.2006 128.635 77.844 127.025 76.4471C125.418 75.0187 123.869 73.646 122.3 72.0462C120.496 70.204 120.526 67.2476 122.368 65.4432C124.148 63.6993 126.969 63.6687 128.786 65.3321L128.861 65.4006Z" fill="#FF8B7B"/>
<path d="M123.946 61.228C123.946 61.228 132.058 69.1047 132.997 117.812C120.025 120.954 107.533 122.114 97.8889 120.889C97.426 114.779 96.7464 93.5745 90.5444 71.2126C89.439 67.2263 91.9478 63.1499 96.0097 62.3657C97.2432 62.1274 98.5387 61.9076 99.8261 61.7361C104.239 61.1491 110.649 60.4664 114.597 60.4929C119.802 60.5268 123.946 61.228 123.946 61.228Z" fill="#263238"/>
<path d="M117.644 69.7088C118.423 75.8077 128.878 87.5177 128.878 87.5177L141.304 74.6395C141.304 74.6395 135.93 68.8586 129.366 63.9328C120.301 57.1326 116.923 64.06 117.644 69.7088Z" fill="#263238"/>
<path d="M161.199 70.6076L165.351 66.8041L160.371 61.6875C160.371 61.6875 157.682 63.8718 157.189 67.1141C157.042 68.0779 157.678 69.0062 158.682 69.3049L161.199 70.6076Z" fill="#FF8B7B"/>
<path d="M166.88 64.0254L165.805 61.3934C165.424 60.461 164.358 60.0182 163.428 60.4063L160.371 61.6848L165.352 66.8015L166.224 66.2073C166.929 65.7258 167.203 64.816 166.88 64.0254Z" fill="#FF8B7B"/>
<path d="M97.9184 39.4659C99.0842 45.9078 99.4449 49.7242 103.066 52.791C108.512 57.4044 116.037 53.8151 116.788 47.2331C117.463 41.3089 115.443 31.7688 108.887 29.6883C102.428 27.6385 96.7525 33.024 97.9184 39.4659Z" fill="#FF8B7B"/>
<path d="M110.62 41.8004C112.884 42.3214 114.668 39.7055 114.88 38.9599C113.78 39.0662 111.827 38.4986 111.437 38.001C112.644 38.1073 113.815 36.6162 113.958 36.0485C112.644 35.8714 111.189 34.7346 110.798 33.989C112.751 33.9536 115.107 30.51 112.952 27.4207C110.798 24.3322 101.816 26.9239 100.538 24.7227C98.656 25.8233 100.324 27.279 100.324 27.279C100.324 27.279 87.6144 29.6573 93.4725 34.5928C89.1771 34.9833 88.5733 40.0662 92.1586 42.6547C95.7446 45.2432 95.9218 46.9477 94.5015 46.7343C95.0691 47.8349 97.6214 47.9767 97.7655 46.9123C98.371 49.1489 100.111 52.1666 104.123 51.6698C108.135 51.1731 112.075 45.5637 110.62 41.8004Z" fill="#263238"/>
<path d="M94.6037 33.8501C91.5788 34.2664 90.1972 32.5579 90.958 31.0547C87.2077 32.9693 91.3026 37.2076 94.6037 33.8501Z" fill="#263238"/>
<path d="M107.483 40.8257C108 42.2298 109.066 43.4287 110.124 44.1364C111.715 45.2008 113.195 44.1476 112.917 42.4995C112.667 41.0165 111.538 38.6751 109.862 38.2573C108.211 37.8458 106.891 39.2202 107.483 40.8257Z" fill="#FF8B7B"/>
<path d="M312.131 267.754C306.172 253.695 303.765 237.179 310.585 237.844C317.582 238.525 316.757 263.45 317.896 266.188C315.708 268.063 312.131 267.754 312.131 267.754Z" fill="#407BFF"/>
<path d="M314.06 241.086C312.59 246.444 311.044 254.732 309.854 261.753C310.53 263.764 311.294 265.786 312.126 267.759C312.126 267.759 315.704 268.068 317.899 266.192C317.001 264.036 317.32 248.058 314.06 241.086Z" fill="#263238"/>
<path d="M314.088 265.181C312.227 235.308 317.334 207.622 330.71 208.873C342.208 209.948 325.444 260.238 325.767 266.041C320.501 268.083 314.088 265.181 314.088 265.181Z" fill="#407BFF"/>
<path d="M322.784 264.986C324.892 243.517 336.214 218.463 341.081 226.833C347.259 237.458 331.432 262.774 330.995 266.94C327.014 267.787 322.784 264.986 322.784 264.986Z" fill="#407BFF"/>
<path d="M320.651 216.845C319.295 216.623 318.538 215.775 318.624 214.577C318.721 213.227 319.831 211.883 320.865 211.863C321.357 211.867 322.198 212.119 322.405 213.986L321.605 214.076C321.507 213.193 321.24 212.668 320.888 212.668C320.885 212.668 320.883 212.668 320.881 212.668C320.331 212.679 319.496 213.672 319.426 214.634C319.37 215.418 319.826 215.894 320.781 216.052L320.651 216.845Z" fill="#407BFF"/>
<path d="M335.115 222.259C334.708 222.259 334.172 222.102 333.469 221.64L333.909 220.967C334.658 221.455 335.235 221.584 335.456 221.305C335.798 220.875 335.565 219.598 334.867 218.933C334.298 218.389 333.64 218.437 332.91 219.073L332.382 218.466C333.416 217.565 334.554 217.521 335.422 218.35C336.401 219.284 336.729 220.995 336.086 221.805C335.92 222.016 335.618 222.259 335.115 222.259Z" fill="#407BFF"/>
<path d="M315.376 234.41C314.288 234.41 313.517 233.842 313.271 232.83C312.95 231.516 313.595 229.897 314.573 229.561C315.033 229.405 315.919 229.396 316.689 231.111L315.955 231.441C315.589 230.626 315.174 230.209 314.834 230.322C314.314 230.501 313.824 231.701 314.052 232.639C314.238 233.402 314.82 233.714 315.775 233.574L315.894 234.37C315.714 234.396 315.542 234.41 315.376 234.41Z" fill="#407BFF"/>
<path d="M306.808 251.083C305.983 251.083 305.325 250.665 304.963 249.878C304.399 248.648 304.727 246.936 305.623 246.421C306.046 246.179 306.914 246.003 307.994 247.542L307.336 248.004C306.822 247.273 306.331 246.942 306.024 247.119C305.548 247.392 305.293 248.664 305.695 249.541C306.023 250.257 306.652 250.454 307.564 250.133L307.831 250.892C307.47 251.02 307.126 251.083 306.808 251.083Z" fill="#407BFF"/>
<path d="M321.071 226.779C320.989 226.779 320.908 226.755 320.836 226.704C319.73 225.914 319.332 224.82 319.774 223.781C320.239 222.684 321.502 221.955 322.588 222.154C323.084 222.245 324.249 222.688 324.33 224.832C324.338 225.053 324.165 225.241 323.943 225.25C323.726 225.256 323.534 225.084 323.525 224.862C323.483 223.747 323.099 223.067 322.442 222.946C321.731 222.816 320.83 223.353 320.514 224.097C320.223 224.784 320.503 225.477 321.304 226.05C321.485 226.179 321.526 226.431 321.398 226.612C321.32 226.721 321.196 226.779 321.071 226.779Z" fill="white"/>
<path d="M330.616 248.508C330.43 248.508 330.263 248.377 330.223 248.187C330.177 247.97 330.318 247.757 330.536 247.711C331.628 247.484 332.235 246.991 332.244 246.324C332.256 245.601 331.575 244.803 330.789 244.616C330.066 244.443 329.425 244.835 328.994 245.72C328.897 245.922 328.654 246.002 328.456 245.906C328.256 245.808 328.173 245.567 328.271 245.368C328.867 244.144 329.873 243.569 330.976 243.832C332.136 244.108 333.066 245.231 333.049 246.335C333.042 246.84 332.799 248.063 330.699 248.498C330.672 248.505 330.644 248.508 330.616 248.508Z" fill="white"/>
<path d="M341.933 241.724C341.471 241.724 340.85 241.447 340.151 240.406L340.819 239.957C341.318 240.7 341.797 241.034 342.112 240.87C342.594 240.606 342.875 239.34 342.492 238.454C342.18 237.733 341.554 237.522 340.636 237.824L340.384 237.06C341.687 236.63 342.752 237.032 343.23 238.134C343.768 239.376 343.405 241.08 342.498 241.576C342.356 241.654 342.165 241.724 341.933 241.724Z" fill="#407BFF"/>
<path d="M339.535 272.874C339.535 268.399 337.896 264.312 335.193 261.168C335.753 261.073 336.19 260.606 336.19 260.021C336.19 259.369 335.657 258.836 335.005 258.836H308.048C307.396 258.836 306.863 259.37 306.863 260.021C306.863 260.608 307.303 261.077 307.865 261.169C305.157 264.312 303.519 268.4 303.519 272.874C303.519 279.78 307.412 285.777 313.121 288.798C312.704 289.018 312.415 289.451 312.415 289.954C312.415 290.674 313.004 291.264 313.724 291.264H329.33C330.051 291.264 330.64 290.674 330.64 289.954C330.64 289.452 330.351 289.019 329.935 288.799C335.644 285.779 339.535 279.781 339.535 272.874Z" fill="#263238"/>
</svg>
