<svg width="12" height="6" viewBox="0 0 12 6" fill="none" xmlns="http://www.w3.org/2000/svg">
<path d="M6.00029 5.9174C5.80558 5.91778 5.61688 5.84997 5.46696 5.72574L0.466956 1.55907C0.112573 1.26452 0.0640709 0.738453 0.358623 0.38407C0.653175 0.0296876 1.17924 -0.0188149 1.53362 0.275737L6.00029 4.00907L10.467 0.40907C10.6391 0.269262 10.8599 0.203846 11.0804 0.227307C11.301 0.250768 11.5031 0.361171 11.642 0.53407C11.7962 0.707287 11.8713 0.936968 11.8492 1.16787C11.8271 1.39877 11.7097 1.61 11.5253 1.75074L6.52529 5.77574C6.37105 5.88033 6.18621 5.93021 6.00029 5.9174Z" fill="#919EAB"/>
</svg>
