<svg width="32" height="33" viewBox="0 0 32 33" fill="none" xmlns="http://www.w3.org/2000/svg">
<path d="M26.7176 7.81522H24.18L22.6161 5.46738C22.4298 5.18759 22.1773 4.95814 21.881 4.79943C21.5847 4.64072 21.2537 4.55766 20.9176 4.55762H11.0833C10.7474 4.55757 10.4166 4.64046 10.1203 4.79894C9.82407 4.95742 9.57153 5.18659 9.3851 5.4661L7.81838 7.8149H5.28398C2.81038 7.81842 0.803981 9.8213 0.800781 12.2984V23.9592C0.803981 26.436 2.81038 28.4392 5.28398 28.4424H26.7176C29.1912 28.4392 31.1976 26.436 31.2008 23.9592V12.2984C31.1976 9.82162 29.1912 7.81842 26.7176 7.81522ZM16.0008 26.436C11.4664 26.436 7.79278 22.7592 7.79278 18.2248C7.79278 13.6936 11.4664 10.0168 16.0008 10.0168C20.5352 10.0168 24.2088 13.6936 24.2088 18.2248C24.2056 22.756 20.532 26.4296 16.0008 26.436Z" fill="url(#paint0_linear_11_5232)"/>
<path d="M21.7552 18.2248C21.7552 21.4024 19.1792 23.9784 16.0016 23.9784C12.824 23.9784 10.248 21.4024 10.248 18.2248C10.248 15.0472 12.824 12.4712 16.0016 12.4712C17.1664 12.4744 18.248 12.82 19.1536 13.4152C18.529 13.4341 17.9364 13.6956 17.5014 14.1443C17.0665 14.593 16.8235 15.1935 16.824 15.8184C16.824 17.1464 17.8992 18.2248 19.2304 18.2248C20.2928 18.2248 21.1984 17.5336 21.512 16.5736C21.672 17.0952 21.7552 17.652 21.7552 18.2248Z" fill="url(#paint1_linear_11_5232)"/>
<defs>
<linearGradient id="paint0_linear_11_5232" x1="16.0207" y1="4.55761" x2="16.0208" y2="28.6005" gradientUnits="userSpaceOnUse">
<stop stop-color="#02227E"/>
<stop offset="1" stop-color="#0247FF"/>
</linearGradient>
<linearGradient id="paint1_linear_11_5232" x1="16.0092" y1="12.4712" x2="16.0092" y2="24.0546" gradientUnits="userSpaceOnUse">
<stop stop-color="#02227E"/>
<stop offset="1" stop-color="#0247FF"/>
</linearGradient>
</defs>
</svg>
