<svg width="300" height="300" viewBox="0 0 300 300" fill="none" xmlns="http://www.w3.org/2000/svg">
<g clip-path="url(#clip0_640_31476)">
<path d="M150 0C68.5359 0 0 66.8602 0 150C0 232.389 67.6113 300 150 300C231.908 300 300 232.318 300 150C300 67.6113 232.389 0 150 0ZM150 282.422C77.3016 282.422 17.5781 222.698 17.5781 150C17.5781 113.118 33.4277 79.7701 57.9199 55.8199L230.085 254.484C207.855 271.563 180.137 282.422 150 282.422ZM243.373 242.968L71.3361 44.4521C93.3252 28.0207 120.499 17.5781 150 17.5781C222.698 17.5781 282.422 77.3016 282.422 150C282.422 186.246 267.125 219.112 243.373 242.968Z" fill="white"/>
<path d="M220.312 88.4766H197.585L173.793 64.6846C172.977 63.868 172.008 63.2203 170.942 62.7785C169.875 62.3366 168.732 62.1092 167.578 62.1094H132.422C131.268 62.1092 130.125 62.3365 129.059 62.7784C127.992 63.2203 127.024 63.868 126.208 64.6846L118.663 72.2291L148.142 106.243C148.772 106.216 149.364 106.055 150 106.055C174.23 106.055 193.945 125.77 193.945 150.001C193.945 152.789 193.62 155.498 193.121 158.144L243.081 215.791C245.307 211.925 246.68 207.507 246.68 202.734V114.844C246.68 100.304 234.852 88.4766 220.312 88.4766ZM154.01 193.54C152.67 193.664 151.373 193.945 150 193.945C125.77 193.945 106.055 174.23 106.055 150C106.055 146.453 106.591 143.05 107.388 139.743L66.2549 92.2799C58.5463 96.8871 53.3203 105.229 53.3203 114.844V202.734C53.3203 217.274 65.148 229.102 79.6875 229.102H184.83L154.01 193.54Z" fill="white"/>
</g>
<defs>
<clipPath id="clip0_640_31476">
<rect width="300" height="300" fill="white"/>
</clipPath>
</defs>
</svg>
