<svg width="32" height="32" viewBox="0 0 32 32" fill="none" xmlns="http://www.w3.org/2000/svg">
<path d="M30.2812 4.59375H1.71875C1.26311 4.59441 0.826326 4.77571 0.504141 5.09789C0.181956 5.42008 0.000661304 5.85686 0 6.3125L0 25.6875C0.000661304 26.1431 0.181956 26.5799 0.504141 26.9021C0.826326 27.2243 1.26311 27.4056 1.71875 27.4062H30.2812C30.7369 27.4056 31.1737 27.2243 31.4959 26.9021C31.818 26.5799 31.9993 26.1431 32 25.6875V6.3125C31.9993 5.85686 31.818 5.42008 31.4959 5.09789C31.1737 4.77571 30.7369 4.59441 30.2812 4.59375ZM31.0625 25.6875C31.0622 25.8946 30.9798 26.0931 30.8333 26.2396C30.6869 26.386 30.4883 26.4684 30.2812 26.4688H1.71875C1.51165 26.4684 1.31313 26.386 1.16669 26.2396C1.02025 26.0931 0.937831 25.8946 0.9375 25.6875V6.3125C0.937831 6.1054 1.02025 5.90688 1.16669 5.76044C1.31313 5.614 1.51165 5.53158 1.71875 5.53125H30.2812C30.4883 5.53158 30.6869 5.614 30.8333 5.76044C30.9798 5.90688 31.0622 6.1054 31.0625 6.3125V25.6875Z" fill="white"/>
<path d="M28.4062 20.2188H22.1562C21.8663 20.2191 21.5883 20.3344 21.3832 20.5395C21.1782 20.7445 21.0628 21.0225 21.0625 21.3125V23.8125C21.0628 24.1025 21.1782 24.3805 21.3832 24.5855C21.5883 24.7906 21.8663 24.9059 22.1562 24.9062H28.4062C28.6962 24.9059 28.9742 24.7906 29.1793 24.5855C29.3843 24.3805 29.4997 24.1025 29.5 23.8125V21.3125C29.4997 21.0225 29.3843 20.7445 29.1793 20.5395C28.9742 20.3344 28.6962 20.2191 28.4062 20.2188ZM28.5625 23.8125C28.5625 23.8539 28.546 23.8937 28.5167 23.923C28.4874 23.9523 28.4477 23.9688 28.4062 23.9688H22.1562C22.1148 23.9688 22.0751 23.9523 22.0458 23.923C22.0165 23.8937 22 23.8539 22 23.8125V21.3125C22 21.2711 22.0165 21.2313 22.0458 21.202C22.0751 21.1727 22.1148 21.1562 22.1562 21.1562H28.4062C28.4477 21.1562 28.4874 21.1727 28.5167 21.202C28.546 21.2313 28.5625 21.2711 28.5625 21.3125V23.8125ZM12.3438 7.09375H3.59375C3.30377 7.09408 3.02576 7.20942 2.82072 7.41447C2.61567 7.61951 2.50033 7.89752 2.5 8.1875V19.4375C2.50033 19.7275 2.61567 20.0055 2.82072 20.2105C3.02576 20.4156 3.30377 20.5309 3.59375 20.5312H12.3438C12.6337 20.5309 12.9117 20.4156 13.1168 20.2105C13.3218 20.0055 13.4372 19.7275 13.4375 19.4375V8.1875C13.4372 7.89752 13.3218 7.61951 13.1168 7.41447C12.9117 7.20942 12.6337 7.09408 12.3438 7.09375ZM12.5 19.4375C12.5 19.4789 12.4835 19.5187 12.4542 19.548C12.4249 19.5773 12.3852 19.5938 12.3438 19.5938H3.59375C3.55231 19.5938 3.51257 19.5773 3.48326 19.548C3.45396 19.5187 3.4375 19.4789 3.4375 19.4375V18.8125C3.43589 17.9668 3.67176 17.1376 4.11828 16.4194C4.56479 15.7012 5.204 15.1228 5.96313 14.75C6.51 15.2529 7.22582 15.5319 7.96875 15.5319C8.71168 15.5319 9.4275 15.2529 9.97437 14.75C10.7335 15.1228 11.3727 15.7012 11.8192 16.4194C12.2657 17.1376 12.5016 17.9668 12.5 18.8125V19.4375ZM7.96875 14.5938C7.56701 14.5938 7.17429 14.4746 6.84025 14.2514C6.50621 14.0282 6.24586 13.711 6.09212 13.3398C5.93838 12.9687 5.89815 12.5602 5.97653 12.1662C6.05491 11.7722 6.24836 11.4103 6.53244 11.1262C6.81651 10.8421 7.17845 10.6487 7.57247 10.5703C7.9665 10.4919 8.37491 10.5321 8.74608 10.6859C9.11724 10.8396 9.43448 11.1 9.65767 11.434C9.88087 11.768 10 12.1608 10 12.5625C9.99934 13.101 9.78512 13.6173 9.40433 13.9981C9.02354 14.3789 8.50727 14.5931 7.96875 14.5938ZM10.5656 14C10.8166 13.5481 10.9453 13.0385 10.9388 12.5216C10.9324 12.0046 10.7911 11.4984 10.5289 11.0529C10.2667 10.6073 9.89276 10.238 9.444 9.98138C8.99524 9.72477 8.48726 9.58978 7.97031 9.58978C7.45337 9.58978 6.94538 9.72477 6.49663 9.98138C6.04787 10.238 5.6739 10.6073 5.41172 11.0529C5.14953 11.4984 5.00823 12.0046 5.00179 12.5216C4.99535 13.0385 5.124 13.5481 5.375 14C4.59753 14.4164 3.93268 15.0152 3.4375 15.745V8.1875C3.4375 8.14606 3.45396 8.10632 3.48326 8.07701C3.51257 8.04771 3.55231 8.03125 3.59375 8.03125H12.3438C12.3852 8.03125 12.4249 8.04771 12.4542 8.07701C12.4835 8.10632 12.5 8.14606 12.5 8.1875V15.745C12.0057 15.0156 11.342 14.4168 10.5656 14ZM12.9688 23.9688H5.70312C5.5788 23.9688 5.45958 24.0181 5.37167 24.106C5.28376 24.194 5.23438 24.3132 5.23438 24.4375C5.23438 24.5618 5.28376 24.681 5.37167 24.769C5.45958 24.8569 5.5788 24.9062 5.70312 24.9062H12.9688C13.0931 24.9062 13.2123 24.8569 13.3002 24.769C13.3881 24.681 13.4375 24.5618 13.4375 24.4375C13.4375 24.3132 13.3881 24.194 13.3002 24.106C13.2123 24.0181 13.0931 23.9688 12.9688 23.9688ZM3.32812 23.9688H2.96875C2.84443 23.9688 2.7252 24.0181 2.63729 24.106C2.54939 24.194 2.5 24.3132 2.5 24.4375C2.5 24.5618 2.54939 24.681 2.63729 24.769C2.7252 24.8569 2.84443 24.9062 2.96875 24.9062H3.32812C3.45245 24.9062 3.57167 24.8569 3.65958 24.769C3.74749 24.681 3.79688 24.5618 3.79688 24.4375C3.79688 24.3132 3.74749 24.194 3.65958 24.106C3.57167 24.0181 3.45245 23.9688 3.32812 23.9688ZM19.1456 10.5312H28.8125C28.9368 10.5312 29.056 10.4819 29.144 10.394C29.2319 10.306 29.2812 10.1868 29.2812 10.0625C29.2812 9.93818 29.2319 9.81895 29.144 9.73104C29.056 9.64314 28.9368 9.59375 28.8125 9.59375H19.1456C19.0213 9.59375 18.9021 9.64314 18.8142 9.73104C18.7263 9.81895 18.6769 9.93818 18.6769 10.0625C18.6769 10.1868 18.7263 10.306 18.8142 10.394C18.9021 10.4819 19.0213 10.5312 19.1456 10.5312ZM16.3125 10.5312H16.8125C16.9368 10.5312 17.056 10.4819 17.144 10.394C17.2319 10.306 17.2812 10.1868 17.2812 10.0625C17.2812 9.93818 17.2319 9.81895 17.144 9.73104C17.056 9.64314 16.9368 9.59375 16.8125 9.59375H16.3125C16.1882 9.59375 16.069 9.64314 15.981 9.73104C15.8931 9.81895 15.8438 9.93818 15.8438 10.0625C15.8438 10.1868 15.8931 10.306 15.981 10.394C16.069 10.4819 16.1882 10.5312 16.3125 10.5312ZM16.3125 13.6562H28.8125C28.9368 13.6562 29.056 13.6069 29.144 13.519C29.2319 13.431 29.2812 13.3118 29.2812 13.1875C29.2812 13.0632 29.2319 12.944 29.144 12.856C29.056 12.7681 28.9368 12.7188 28.8125 12.7188H16.3125C16.1882 12.7188 16.069 12.7681 15.981 12.856C15.8931 12.944 15.8438 13.0632 15.8438 13.1875C15.8438 13.3118 15.8931 13.431 15.981 13.519C16.069 13.6069 16.1882 13.6562 16.3125 13.6562ZM29.2812 16.3125C29.2812 16.1882 29.2319 16.069 29.144 15.981C29.056 15.8931 28.9368 15.8438 28.8125 15.8438H16.3125C16.1882 15.8438 16.069 15.8931 15.981 15.981C15.8931 16.069 15.8438 16.1882 15.8438 16.3125C15.8438 16.4368 15.8931 16.556 15.981 16.644C16.069 16.7319 16.1882 16.7812 16.3125 16.7812H28.8125C28.9368 16.7812 29.056 16.7319 29.144 16.644C29.2319 16.556 29.2812 16.4368 29.2812 16.3125Z" fill="white"/>
</svg>
