<svg width="11" height="10" viewBox="0 0 11 10" fill="none" xmlns="http://www.w3.org/2000/svg">
<g opacity="0.7">
<path d="M5.50131 0C4.00631 0.00183594 2.7948 1.21332 2.79297 2.70834V4.375C2.79297 4.49006 2.88625 4.58334 3.00131 4.58334H3.83465C3.94971 4.58334 4.04299 4.49006 4.04299 4.375V2.70834C4.04297 1.90291 4.6959 1.25 5.50131 1.25C6.30672 1.25 6.95965 1.90291 6.95965 2.70834V4.375C6.95965 4.49006 7.05293 4.58334 7.16799 4.58334H8.00131C8.11637 4.58334 8.20965 4.49006 8.20965 4.375V2.70834C8.20781 1.21332 6.99631 0.00183594 5.50131 0Z" fill="white"/>
<path d="M3.00064 4.16669H8.00064C8.57594 4.16669 9.0423 4.63305 9.0423 5.20835V8.95835C9.0423 9.53366 8.57594 10 8.00064 10H3.00064C2.42535 10 1.95898 9.53366 1.95898 8.95837V5.20837C1.95898 4.63305 2.42535 4.16669 3.00064 4.16669Z" fill="white"/>
<path d="M6.54231 6.45836C6.54474 5.88306 6.08034 5.41472 5.50505 5.4123C4.92976 5.40988 4.46142 5.87427 4.45899 6.44957C4.45817 6.64448 4.51205 6.8357 4.6145 7.00151C4.71696 7.16732 4.86388 7.30106 5.03856 7.38752L4.87772 8.51252C4.86161 8.62644 4.94091 8.73185 5.05483 8.74797C5.06448 8.74933 5.07423 8.75002 5.08397 8.75002H5.91731C6.03237 8.75119 6.12659 8.65886 6.12774 8.54381C6.12784 8.5332 6.12716 8.52259 6.12563 8.51211L5.96479 7.38711C6.13743 7.30072 6.28276 7.16821 6.3847 7.00428C6.48664 6.84035 6.54119 6.65139 6.54231 6.45836Z" fill="#060C4D"/>
</g>
</svg>
