<svg width="120" height="120" viewBox="0 0 120 120" fill="none" xmlns="http://www.w3.org/2000/svg">
<path d="M69.9935 40.2075C69.8137 40.207 69.6413 40.1353 69.5141 40.0081C69.3869 39.881 69.3153 39.7086 69.3148 39.5287V26.5125C69.3113 23.1557 67.9764 19.9374 65.603 17.5637C63.2296 15.1899 60.0115 13.8546 56.6548 13.8506H50.996C47.6389 13.8541 44.4204 15.1892 42.0466 17.563C39.6727 19.9368 38.3376 23.1554 38.3341 26.5125V39.5287C38.325 39.7023 38.2496 39.8658 38.1235 39.9855C37.9974 40.1051 37.8302 40.1718 37.6563 40.1718C37.4825 40.1718 37.3153 40.1051 37.1892 39.9855C37.063 39.8658 36.9876 39.7023 36.9785 39.5287V26.5125C36.9785 18.7819 43.2673 12.4912 50.9979 12.4912H56.6566C64.3854 12.4912 70.6741 18.7819 70.6741 26.5125V39.5287C70.6727 39.7086 70.6004 39.8807 70.473 40.0077C70.3457 40.1347 70.1734 40.2065 69.9935 40.2075Z" fill="#B7BEC0"/>
<path d="M22.752 24.2306H87.8407V92.6906H22.752V24.2306Z" fill="#CDD5D7"/>
<path d="M29.5941 27.8119L22.7109 24.2306V92.6906L29.5941 96.2738V27.8119Z" fill="#30363D"/>
<path d="M29.5952 96.2737L17.9121 101.179V32.7206L29.5952 27.8119V96.2737Z" fill="#E5E8EC"/>
<path d="M76.707 27.8119L87.8258 24.2306V92.6906L76.707 96.2738V27.8119Z" fill="#30363D"/>
<path d="M76.707 96.2737L81.3383 101.784L81.0552 32.7206L76.707 27.8119V96.2737Z" fill="#E5E8EC"/>
<path d="M17.9121 32.7206H81.574V101.179H17.9121V32.7206Z" fill="#FCB424"/>
<path d="M34.4404 41.6512C35.3082 41.6512 36.0116 40.9478 36.0116 40.08C36.0116 39.2122 35.3082 38.5087 34.4404 38.5087C33.5726 38.5087 32.8691 39.2122 32.8691 40.08C32.8691 40.9478 33.5726 41.6512 34.4404 41.6512Z" fill="#30363D"/>
<path d="M66.6416 41.6512C67.5093 41.6512 68.2128 40.9478 68.2128 40.08C68.2128 39.2122 67.5093 38.5087 66.6416 38.5087C65.7738 38.5087 65.0703 39.2122 65.0703 40.08C65.0703 40.9478 65.7738 41.6512 66.6416 41.6512Z" fill="#30363D"/>
<path d="M66.7024 40.5619C66.5227 40.5619 66.3504 40.4906 66.2231 40.3637C66.0959 40.2369 66.0242 40.0647 66.0237 39.885V26.8669C66.0197 23.5101 64.6844 20.292 62.3106 17.9186C59.9368 15.5452 56.7185 14.2104 53.3618 14.2069H47.703C44.3466 14.2108 41.1288 15.5459 38.7555 17.9193C36.3821 20.2926 35.047 23.5105 35.043 26.8669V39.885C35.043 40.065 34.9715 40.2377 34.8442 40.365C34.717 40.4922 34.5443 40.5638 34.3643 40.5638C34.1843 40.5638 34.0116 40.4922 33.8843 40.365C33.7571 40.2377 33.6855 40.065 33.6855 39.885V26.8669C33.6855 19.1381 39.9743 12.8475 47.7049 12.8475H53.3637C61.0924 12.8475 67.383 19.1381 67.383 26.8669V39.885C67.3821 40.0649 67.3099 40.237 67.1824 40.3639C67.0548 40.4907 66.8823 40.5619 66.7024 40.5619Z" fill="#30363D"/>
<path d="M73.6358 44.04L73.0977 60.1237L86.7589 68.6269L120.001 50.8912L106.872 26.295L73.6358 44.04ZM82.1427 54.9787C82.3982 55.4895 82.4441 56.0799 82.2706 56.624C82.0971 57.1681 81.7179 57.6229 81.2138 57.8915C80.7098 58.16 80.1208 58.221 79.5724 58.0615C79.024 57.902 78.5596 57.5345 78.2783 57.0375C78.1431 56.7837 78.0592 56.5059 78.0314 56.2197C78.0036 55.9336 78.0325 55.6447 78.1163 55.3697C78.2002 55.0947 78.3373 54.8389 78.52 54.6169C78.7027 54.3949 78.9274 54.2111 79.1811 54.0759C79.4348 53.9407 79.7127 53.8569 79.9989 53.8291C80.285 53.8013 80.5738 53.8301 80.8489 53.914C81.1239 53.9978 81.3797 54.135 81.6017 54.3177C81.8236 54.5004 82.0075 54.725 82.1427 54.9787Z" fill="#FF876C"/>
<path d="M97.7503 54.8681L95.8378 55.89L96.0291 39.1275L97.9341 38.1056L97.7503 54.8681ZM101.378 44.0625C99.2653 45.1912 99.0628 47.0606 100.092 48.9844C101.116 50.91 102.785 51.7819 104.898 50.6531C107.022 49.5244 107.217 47.6512 106.192 45.7312C105.17 43.8019 103.495 42.9356 101.378 44.0625ZM103.711 46.8525C104.112 47.61 104.596 48.5175 104.065 49.1569C103.967 49.2732 103.847 49.3699 103.713 49.4419C102.655 50.0137 101.984 48.7725 101.579 48.0319C101.17 47.2612 100.687 46.3481 101.215 45.7087C101.315 45.5905 101.436 45.493 101.573 45.4219C101.695 45.3523 101.83 45.3079 101.97 45.2915C102.109 45.2751 102.25 45.2869 102.385 45.3262C102.993 45.51 103.373 46.2225 103.711 46.8525ZM89.0447 43.2487C86.9334 44.3775 86.7309 46.2469 87.7547 48.1687C88.7878 50.0944 90.4509 50.9681 92.5678 49.8375C94.6809 48.7069 94.8891 46.8375 93.8597 44.9137C92.8397 42.9862 91.1653 42.12 89.0447 43.2487ZM92.0391 46.0894C92.4309 46.8244 92.9222 47.7431 92.3916 48.39C92.2957 48.5065 92.177 48.6022 92.0428 48.6712C91.7634 48.8212 91.2178 48.9806 90.6497 48.4012C90.3441 48.0881 90.1078 47.64 89.8959 47.2444C89.4984 46.4906 89.0128 45.5794 89.5434 44.9344C89.6388 44.8183 89.7576 44.7237 89.8922 44.6569C90.0153 44.5849 90.152 44.5392 90.2937 44.5227C90.4354 44.5063 90.579 44.5194 90.7153 44.5612C91.3303 44.7469 91.7222 45.4894 92.0391 46.0894Z" fill="white"/>
<path d="M70.9173 84.6056C68.0317 84.6056 64.5892 82.3481 62.5735 76.8169C62.2471 75.9293 62.0562 74.9976 62.0073 74.0531C55.861 74.7769 49.5985 77.8144 46.9904 83.3456C46.9634 83.4026 46.9255 83.4537 46.8788 83.4961C46.8321 83.5384 46.7775 83.5712 46.7181 83.5924C46.6587 83.6136 46.5957 83.623 46.5328 83.6199C46.4698 83.6168 46.408 83.6013 46.351 83.5744C46.294 83.5474 46.2429 83.5095 46.2005 83.4627C46.1582 83.416 46.1255 83.3614 46.1042 83.302C46.083 83.2427 46.0737 83.1797 46.0768 83.1167C46.0798 83.0537 46.0953 82.992 46.1223 82.935C48.8992 77.0512 55.5367 73.83 62.0129 73.0912C62.2192 69.4069 64.6398 65.6306 69.1679 61.995C73.6698 58.3781 78.7492 56.1244 78.8017 56.1037C78.8591 56.0782 78.921 56.0644 78.9839 56.0629C79.0467 56.0615 79.1092 56.0725 79.1678 56.0953C79.2264 56.1182 79.2798 56.1524 79.3251 56.196C79.3704 56.2396 79.4066 56.2917 79.4316 56.3494C79.4571 56.4068 79.471 56.4688 79.4725 56.5316C79.4739 56.5944 79.4629 56.6569 79.4401 56.7155C79.4172 56.7741 79.383 56.8275 79.3394 56.8728C79.2958 56.9181 79.2437 56.9543 79.186 56.9794C79.0117 57.0581 63.6423 63.9375 62.9767 72.9994C64.3099 72.8945 65.6496 72.9014 66.9817 73.02C71.6729 73.44 74.8904 75.2437 75.5917 77.8462C76.3979 80.8537 75.121 83.5331 72.4848 84.3675C71.9777 84.5274 71.4489 84.6077 70.9173 84.6056ZM62.9617 73.9594C62.9992 74.7862 63.1604 75.6319 63.4735 76.4887C65.656 82.4775 69.5317 84.2981 72.196 83.4544C73.9885 82.8881 75.4473 81.0112 74.6635 78.0975C74.0804 75.9319 71.1067 74.3531 66.8954 73.9762C65.5869 73.8608 64.2711 73.8551 62.9617 73.9594Z" fill="white"/>
<path d="M73.8834 61.9725C73.7909 61.9719 73.7006 61.9447 73.6232 61.894C73.5458 61.8433 73.4848 61.7714 73.4473 61.6868C73.4099 61.6022 73.3977 61.5086 73.4122 61.4173C73.4267 61.3259 73.4673 61.2407 73.529 61.1719C75.1584 59.3775 79.379 57.0225 79.559 56.9231C79.6698 56.8665 79.7981 56.8551 79.9171 56.8913C80.036 56.9274 80.1363 57.0083 80.1968 57.1169C80.2574 57.2256 80.2734 57.3534 80.2415 57.4736C80.2096 57.5938 80.1323 57.6969 80.0259 57.7612C79.9828 57.7856 75.7622 60.1387 74.2378 61.815C74.1932 61.8648 74.1386 61.9046 74.0775 61.9318C74.0164 61.9589 73.9503 61.9728 73.8834 61.9725Z" fill="white"/>
<path d="M23.0639 63.96C24.2958 63.9975 25.1452 63.9675 25.1808 63.9675L26.6189 63.9169L25.8671 62.6981C25.2127 61.6519 21.7889 56.3531 17.8214 54.2381C15.7121 53.1188 13.5183 52.4719 11.6396 52.4119C9.75706 52.3556 8.41831 52.8975 7.86144 53.9344C7.30456 54.9731 7.59706 56.3831 8.69206 57.9075C9.79081 59.4338 11.5533 60.8906 13.6552 62.01C15.8508 63.1781 19.0196 63.8381 23.0639 63.96Z" fill="#E5E8EC"/>
<path d="M23.1546 64.5356C24.2627 64.2544 25.0089 64.0069 25.0389 63.9956L26.3064 63.5756L25.3127 62.5856C24.4539 61.74 19.9989 57.4744 15.9002 56.445C13.7289 55.8994 11.6008 55.8356 9.91706 56.2631C8.22768 56.6906 7.17581 57.5625 6.95643 58.7138C6.73706 59.865 7.37456 61.1606 8.75268 62.3606C10.1346 63.5625 12.0902 64.5188 14.2614 65.0644C16.5246 65.6344 19.5208 65.4581 23.1546 64.5356Z" fill="#E5E8EC"/>
<path d="M23.2601 62.5125C24.3701 62.2313 25.1145 61.9819 25.1464 61.9744L26.4139 61.5525L25.4182 60.5625C24.5614 59.7169 20.1064 55.4494 16.0076 54.42C13.8364 53.8763 11.7101 53.8125 10.0245 54.2381C8.3351 54.6675 7.28323 55.5375 7.06385 56.6869C6.84448 57.84 7.48198 59.1356 8.8601 60.3338C10.2439 61.5338 12.1976 62.4956 14.3689 63.0394C16.632 63.6094 19.6282 63.4313 23.2601 62.5125Z" fill="#E5E8EC"/>
<path d="M21.1094 62.4844C22.1051 62.5613 22.7876 62.5687 22.8138 62.5706L23.9744 62.5837L23.4138 61.5713C22.9282 60.7069 20.3669 56.3081 17.2488 54.4556C15.5932 53.4731 13.8494 52.8694 12.3401 52.7513C10.8251 52.635 9.72445 53.0194 9.23882 53.835C8.7532 54.6506 8.93507 55.7981 9.76007 57.0694C10.5869 58.3406 11.9519 59.5781 13.6038 60.5606C15.3307 61.5844 17.8563 62.2331 21.1094 62.4844Z" fill="#CDD5D7"/>
<path d="M30.926 63.96C29.6904 63.9975 28.8466 63.9675 28.8091 63.9675L27.3691 63.9169L28.121 62.6981C28.7735 61.6519 32.1991 56.3531 36.1685 54.2381C38.2779 53.1188 40.4735 52.4719 42.3485 52.4119C44.231 52.3556 45.5735 52.8975 46.1304 53.9344C46.6835 54.9731 46.391 56.3831 45.2941 57.9075C44.1973 59.4338 42.4366 60.8906 40.3329 62.01C38.1391 63.1781 34.9685 63.8381 30.926 63.96Z" fill="#E5E8EC"/>
<path d="M30.8355 64.5356C29.7255 64.2544 28.9811 64.0069 28.9492 63.9956L27.6836 63.5756L28.6755 62.5856C29.5323 61.74 33.9892 57.4744 38.0861 56.445C40.2592 55.8994 42.3873 55.8356 44.0711 56.2631C45.7623 56.6906 46.8105 57.5625 47.0317 58.7138C47.2511 59.865 46.6136 61.1606 45.2336 62.3606C43.8517 63.5625 41.898 64.5188 39.7267 65.0644C37.4617 65.6344 34.4673 65.4581 30.8355 64.5356Z" fill="#E5E8EC"/>
<path d="M30.732 62.5125C29.6201 62.2313 28.8776 61.9819 28.8476 61.9744L27.5801 61.5525L28.5701 60.5625C29.4288 59.7169 33.8838 55.4494 37.9826 54.42C40.1538 53.8763 42.2838 53.8125 43.9676 54.2381C45.657 54.6675 46.7088 55.5375 46.9263 56.6869C47.1476 57.84 46.5101 59.1356 45.1301 60.3338C43.7482 61.5338 41.7926 62.4956 39.6213 63.0394C37.3582 63.6094 34.362 63.4313 30.732 62.5125Z" fill="#E5E8EC"/>
<path d="M32.8806 62.4844C31.8869 62.5613 31.2044 62.5687 31.1763 62.5706L30.0156 62.5837L30.5781 61.5713C31.0638 60.7069 33.6231 56.3081 36.7431 54.4556C38.3969 53.4731 40.1425 52.8694 41.6519 52.7513C43.1669 52.635 44.2656 53.0194 44.7531 53.835C45.2388 54.6506 45.055 55.7981 44.2319 57.0694C43.4031 58.3406 42.04 59.5781 40.3881 60.5606C38.6631 61.5844 36.1337 62.2331 32.8806 62.4844Z" fill="#CDD5D7"/>
<path d="M2.13281 76.395H51.9947V107.509H2.13281V76.395Z" fill="#01C6DA"/>
<path d="M2.13281 76.395H51.9947V81.9356H2.13281V76.395Z" fill="#01BACC"/>
<path d="M24.9961 76.395H29.1323V107.509H24.9961V76.395Z" fill="#E5E8EC"/>
<path d="M1.91602 84.3412H52.2073V88.4775H1.91602V84.3412Z" fill="#E5E8EC"/>
<path d="M24.9961 76.395H29.1323V81.9356H24.9961V76.395Z" fill="#CDD5D7"/>
<path d="M0 64.4625H54.1275V78.9544H0V64.4625Z" fill="#01C6DA"/>
<path d="M24.7207 64.035H29.4082V78.9525H24.7207V64.035Z" fill="#E5E8EC"/>
<path d="M24.7232 61.8188L26.7726 63.4763L28.8257 65.1375L20.4988 75.4406L19.2182 72.8269L16.3926 72.1256L24.7232 61.8188Z" fill="#CDD5D7"/>
<path d="M16.9355 72.2587L17.5674 72.4162L25.5755 62.5069L25.118 62.1375L16.9355 72.2587ZM19.9655 74.355L20.2505 74.9381L28.433 64.8169L27.9755 64.4456L19.9655 74.355Z" fill="#E5E8EC"/>
<path d="M29.0223 61.8188L26.9673 63.4763L24.916 65.1375L33.2466 75.4406L34.5254 72.8269L37.3491 72.1256L29.0223 61.8188Z" fill="#CDD5D7"/>
<path d="M36.8081 72.2587L36.1763 72.4162L28.1681 62.5069L28.6275 62.1375L36.8081 72.2587ZM33.7781 74.355L33.4913 74.9381L25.3125 64.8169L25.77 64.4456L33.7781 74.355Z" fill="#E5E8EC"/>
<path d="M31.5371 64.4419C31.5371 64.8056 31.1884 65.1037 30.7571 65.1037H22.9421C22.5127 65.1037 22.1621 64.8075 22.1621 64.4419L22.9421 59.1544C22.9421 58.7925 23.2927 58.4962 23.724 58.4962H29.9752C30.4065 58.4962 30.7571 58.7925 30.7571 59.1544L31.5371 64.4419Z" fill="#CDD5D7"/>
<path d="M30.6861 64.2525C30.6861 64.3364 30.6695 64.4194 30.6374 64.4969C30.6052 64.5744 30.5581 64.6447 30.4987 64.7039C30.4393 64.7632 30.3688 64.8101 30.2913 64.842C30.2137 64.8739 30.1306 64.8902 30.0467 64.89H23.653C23.5689 64.8905 23.4856 64.8744 23.4079 64.8426C23.3301 64.8107 23.2594 64.7639 23.1998 64.7046C23.1402 64.6454 23.0929 64.5749 23.0606 64.4973C23.0283 64.4197 23.0117 64.3365 23.0117 64.2525L23.653 59.1356C23.6527 59.0516 23.6691 58.9683 23.7011 58.8907C23.7332 58.813 23.7803 58.7424 23.8397 58.683C23.8991 58.6235 23.9697 58.5765 24.0474 58.5444C24.1251 58.5124 24.2083 58.496 24.2923 58.4962H29.4073C29.7598 58.4962 30.0486 58.7812 30.0486 59.1356L30.6861 64.2525Z" fill="#E5E8EC"/>
</svg>
