<svg width="230" height="230" viewBox="0 0 230 230" fill="none" xmlns="http://www.w3.org/2000/svg">
<path fill-rule="evenodd" clip-rule="evenodd" d="M145 105.75C131.89 105.75 121.25 116.39 121.25 129.5C121.25 142.61 131.89 153.25 145 153.25C158.11 153.25 168.75 142.61 168.75 129.5C168.75 116.39 158.11 105.75 145 105.75ZM135.275 134.65L140.275 139.65C140.649 140.024 141.097 140.315 141.591 140.503C142.086 140.691 142.614 140.773 143.142 140.743C143.67 140.713 144.185 140.571 144.654 140.328C145.124 140.084 145.536 139.744 145.865 139.33L155.44 127.26C156.007 126.476 156.249 125.504 156.117 124.546C155.984 123.588 155.487 122.718 154.729 122.117C153.971 121.516 153.011 121.231 152.048 121.321C151.085 121.411 150.194 121.869 149.56 122.6L142.605 131.375L140.58 129.35C139.873 128.667 138.926 128.288 137.943 128.296C136.959 128.304 136.019 128.698 135.323 129.393C134.628 130.088 134.233 131.029 134.224 132.012C134.215 132.995 134.592 133.942 135.275 134.65Z" fill="#049468"/>
<path fill-rule="evenodd" clip-rule="evenodd" d="M133.265 103.25H61.25V134.5C61.25 138.145 62.7 141.645 65.275 144.225C67.8561 146.801 71.3534 148.248 75 148.25H123.21C118.713 143.039 116.242 136.383 116.25 129.5C116.252 123.95 117.859 118.518 120.878 113.86C123.897 109.203 128.199 105.518 133.265 103.25ZM95.005 125.75H80C79.0054 125.75 78.0516 126.145 77.3483 126.848C76.6451 127.552 76.25 128.505 76.25 129.5C76.25 130.495 76.6451 131.448 77.3483 132.152C78.0516 132.855 79.0054 133.25 80 133.25H95.005C95.9996 133.25 96.9534 132.855 97.6567 132.152C98.3599 131.448 98.755 130.495 98.755 129.5C98.755 128.505 98.3599 127.552 97.6567 126.848C96.9534 126.145 95.9996 125.75 95.005 125.75ZM61.25 95.75H158.75V89.5C158.75 85.855 157.3 82.355 154.725 79.775C152.144 77.199 148.647 75.7515 145 75.75H75C71.355 75.75 67.855 77.2 65.275 79.775C62.699 82.3561 61.2515 85.8534 61.25 89.5V95.75Z" fill="white"/>
<path d="M196 13.8125C195.122 31.9004 194.4 32.6223 176.312 33.5C194.4 34.3777 195.122 35.0996 196 53.1875C196.878 35.0996 197.6 34.3777 215.688 33.5C197.6 32.6223 196.878 31.9004 196 13.8125Z" fill="white"/>
<path d="M37.5 155.531C36.8104 169.743 36.2432 170.31 22.0312 171C36.2432 171.69 36.8104 172.257 37.5 186.469C38.1896 172.257 38.7568 171.69 52.9688 171C38.7568 170.31 38.1896 169.743 37.5 155.531Z" fill="white"/>
<g clip-path="url(#clip0_11_5510)">
<path d="M37.5 20.5938C37.1029 28.7764 36.7764 29.1029 28.5938 29.5C36.7764 29.8971 37.1029 30.2236 37.5 38.4062C37.8971 30.2236 38.2236 29.8971 46.4062 29.5C38.2236 29.1029 37.8971 28.7764 37.5 20.5938Z" fill="white"/>
</g>
<g clip-path="url(#clip1_11_5510)">
<path d="M189 155.812C188.457 167.01 188.01 167.457 176.812 168C188.01 168.543 188.457 168.99 189 180.188C189.543 168.99 189.99 168.543 201.188 168C189.99 167.457 189.543 167.01 189 155.812Z" fill="white"/>
</g>
<defs>
<clipPath id="clip0_11_5510">
<rect width="19" height="19" fill="white" transform="translate(28 20)"/>
</clipPath>
<clipPath id="clip1_11_5510">
<rect width="26" height="26" fill="white" transform="translate(176 155)"/>
</clipPath>
</defs>
</svg>
