<svg width="212" height="65" viewBox="0 0 212 65" fill="none" xmlns="http://www.w3.org/2000/svg">
<path opacity="0.9" d="M29.1953 49.8057L43.4336 0.015625H59.3857L37.457 64H27.042L29.1953 49.8057ZM16.2314 0.015625L30.4258 49.8057L32.667 64H22.1201L0.323242 0.015625H16.2314ZM55.167 57.4961C55.167 55.5039 55.8701 53.834 57.2764 52.4863C58.7119 51.1387 60.5723 50.4648 62.8574 50.4648C65.1719 50.4648 67.0176 51.1387 68.3945 52.4863C69.8008 53.834 70.5039 55.5039 70.5039 57.4961C70.5039 59.459 69.8008 61.1143 68.3945 62.4619C67.0176 63.8096 65.1719 64.4834 62.8574 64.4834C60.5723 64.4834 58.7119 63.8096 57.2764 62.4619C55.8701 61.1143 55.167 59.459 55.167 57.4961ZM108.429 12.1885L91.9053 64H76.6123L100.299 0.015625H109.967L108.429 12.1885ZM122.14 64L105.572 12.1885L103.858 0.015625H113.658L137.433 64H122.14ZM121.437 40.1816V51.2559H88.082V40.1816H121.437ZM142.794 57.4961C142.794 55.5039 143.497 53.834 144.903 52.4863C146.339 51.1387 148.199 50.4648 150.484 50.4648C152.799 50.4648 154.645 51.1387 156.021 52.4863C157.428 53.834 158.131 55.5039 158.131 57.4961C158.131 59.459 157.428 61.1143 156.021 62.4619C154.645 63.8096 152.799 64.4834 150.484 64.4834C148.199 64.4834 146.339 63.8096 144.903 62.4619C143.497 61.1143 142.794 59.459 142.794 57.4961ZM184.718 0.015625V64H170.436V0.015625H184.718ZM196.319 57.4961C196.319 55.5039 197.022 53.834 198.429 52.4863C199.864 51.1387 201.725 50.4648 204.01 50.4648C206.324 50.4648 208.17 51.1387 209.547 52.4863C210.953 53.834 211.656 55.5039 211.656 57.4961C211.656 59.459 210.953 61.1143 209.547 62.4619C208.17 63.8096 206.324 64.4834 204.01 64.4834C201.725 64.4834 199.864 63.8096 198.429 62.4619C197.022 61.1143 196.319 59.459 196.319 57.4961Z" fill="white"/>
</svg>
