<svg width="321" height="237" viewBox="0 0 321 237" fill="none" xmlns="http://www.w3.org/2000/svg">
<g clip-path="url(#clip0_11_5546)">
<path d="M218.634 78.6875H72.5067C68.037 78.6875 64.4141 82.3104 64.4141 86.7801V173.189C64.4141 177.658 68.037 181.281 72.5067 181.281H218.634C223.104 181.281 226.727 177.658 226.727 173.189V86.7801C226.727 82.3104 223.104 78.6875 218.634 78.6875Z" fill="#EDF4FC"/>
<path d="M248.493 55.7188H102.366C97.8964 55.7188 94.2734 59.3417 94.2734 63.8114V78.6875H218.634C223.104 78.6875 226.727 82.3104 226.727 86.7801V158.312H248.493C252.963 158.312 256.586 154.689 256.586 150.22V63.8114C256.586 59.3417 252.963 55.7188 248.493 55.7188Z" fill="#DAE6F1"/>
<path d="M218.633 78.6875C223.103 78.6875 226.725 82.3104 226.725 86.7802V96.081H256.585V78.6875H218.633Z" fill="#818182"/>
<path d="M189.594 165.969C195.302 165.969 199.93 161.341 199.93 155.633C199.93 149.924 195.302 145.297 189.594 145.297C183.885 145.297 179.258 149.924 179.258 155.633C179.258 161.341 183.885 165.969 189.594 165.969Z" fill="url(#paint0_linear_11_5546)"/>
<path d="M125.022 88.6904H79.9861C78.6482 88.6904 77.365 89.2219 76.419 90.168C75.4729 91.114 74.9414 92.3972 74.9414 93.7351V143.365C74.9414 144.703 75.4729 145.986 76.419 146.932C77.365 147.878 78.6482 148.41 79.9861 148.41H125.022C126.36 148.41 127.644 147.878 128.59 146.932C129.536 145.986 130.067 144.703 130.067 143.365V93.7351C130.067 92.3971 129.535 91.114 128.589 90.1679C127.643 89.2219 126.36 88.6904 125.022 88.6904Z" fill="url(#paint1_linear_11_5546)"/>
<path d="M102.505 130.852C100.88 130.852 99.3447 130.448 97.9918 129.74V131.335C97.9912 131.968 97.8133 132.588 97.4784 133.125C97.1435 133.662 96.6649 134.095 96.0969 134.374C94.5381 135.142 93.1753 135.756 91.1104 136.276L85.8061 137.612C85.0068 137.813 84.2927 138.264 83.7681 138.9C83.2434 139.536 82.9357 140.323 82.8898 141.146L82.4688 148.409H122.543L122.122 141.146C122.076 140.323 121.769 139.536 121.244 138.9C120.719 138.264 120.005 137.813 119.206 137.612L113.901 136.276C111.09 135.569 108.879 134.356 108.908 134.371C108.341 134.091 107.864 133.659 107.53 133.122C107.197 132.586 107.02 131.967 107.02 131.335V129.74C105.627 130.471 104.078 130.852 102.505 130.852Z" fill="#4D0607"/>
<path d="M110.901 109.336C110.591 109.014 110.172 108.819 109.726 108.789C109.28 108.759 108.839 108.897 108.489 109.176C107.334 110.082 105.336 111.202 102.515 111.202C99.6857 111.202 97.6775 110.077 96.5183 109.169C96.1684 108.891 95.7277 108.754 95.2823 108.785C94.8369 108.815 94.4188 109.01 94.1097 109.332L94.1066 109.336C93.2085 110.279 92.7073 111.53 92.707 112.832V121.054C92.707 126.443 97.1155 130.851 102.504 130.851C107.892 130.851 112.301 126.443 112.301 121.054V112.832C112.301 111.531 111.8 110.279 110.901 109.336Z" fill="#F9D0B4"/>
<path d="M96.1031 134.371C95.9224 134.46 95.744 134.547 95.5664 134.632C96.5923 137.472 99.321 139.518 102.504 139.518C105.684 139.518 108.411 137.478 109.439 134.642C109.259 134.556 109.081 134.466 108.906 134.371C108.339 134.091 107.862 133.659 107.528 133.122C107.195 132.586 107.018 131.967 107.018 131.335V129.74C105.626 130.471 104.077 130.852 102.504 130.852C100.879 130.852 99.344 130.448 97.9911 129.74V131.335C97.9911 132.624 97.2592 133.8 96.1031 134.371Z" fill="#F9D0B4"/>
<path d="M90.253 112.375H92.7275C92.8303 111.236 93.3157 110.165 94.1048 109.336L94.1079 109.332C94.4171 109.01 94.8352 108.815 95.2806 108.785C95.7259 108.755 96.1666 108.891 96.5166 109.169C97.6757 110.076 99.6847 111.202 102.513 111.202C105.335 111.202 107.333 110.082 108.487 109.175C108.837 108.897 109.278 108.759 109.724 108.789C110.171 108.818 110.59 109.014 110.9 109.336C111.689 110.164 112.174 111.236 112.277 112.375H114.751C114.838 112.375 114.923 112.383 115.008 112.388V109.267C115.008 104.378 113.242 103.699 112.262 103.699C111.933 103.699 111.649 103.446 111.645 103.118C111.57 97.6581 105.335 96.633 99.1266 97.7048C96.5768 98.1446 94.2644 99.471 92.5974 101.45C90.9305 103.429 90.0161 105.933 90.0156 108.52V112.386C90.096 112.383 90.1733 112.375 90.253 112.375Z" fill="#5B5D60"/>
<path d="M114.754 112.375H112.279C112.293 112.527 112.302 112.679 112.302 112.832V120.797H114.755C115.308 120.797 115.855 120.688 116.366 120.476C116.877 120.265 117.341 119.954 117.732 119.563C118.123 119.172 118.433 118.708 118.645 118.197C118.856 117.686 118.965 117.139 118.965 116.586C118.965 116.033 118.856 115.485 118.645 114.974C118.433 114.463 118.123 113.999 117.732 113.608C117.341 113.217 116.876 112.907 116.365 112.695C115.854 112.484 115.307 112.375 114.754 112.375ZM92.707 112.832C92.707 112.679 92.7154 112.527 92.7292 112.375H90.2539C89.1371 112.375 88.066 112.819 87.2763 113.608C86.4866 114.398 86.043 115.469 86.043 116.586C86.043 117.703 86.4866 118.774 87.2763 119.564C88.066 120.353 89.1371 120.797 90.2539 120.797H92.707V112.832Z" fill="#F9D0B4"/>
<path d="M213.87 88.6406H144.646C143.876 88.6406 143.137 88.9466 142.593 89.4912C142.048 90.0358 141.742 90.7744 141.742 91.5446V97.2217C141.742 97.6031 141.817 97.9807 141.963 98.3331C142.109 98.6854 142.323 99.0055 142.593 99.2752C142.862 99.5449 143.183 99.7588 143.535 99.9047C143.887 100.051 144.265 100.126 144.646 100.126H213.87C214.252 100.126 214.629 100.051 214.982 99.9047C215.334 99.7588 215.654 99.5449 215.924 99.2752C216.193 99.0055 216.407 98.6854 216.553 98.3331C216.699 97.9807 216.774 97.6031 216.774 97.2217V91.5446C216.774 90.7744 216.468 90.0358 215.924 89.4912C215.379 88.9466 214.64 88.6406 213.87 88.6406Z" fill="#F97070"/>
<path d="M218.634 183.195H72.5067C66.9889 183.195 62.5 178.706 62.5 173.189V86.7802C62.5 81.2623 66.9889 76.7734 72.5067 76.7734H218.634C224.152 76.7734 228.641 81.2623 228.641 86.7802V173.189C228.641 178.706 224.152 183.195 218.634 183.195ZM72.5067 80.6016C69.0997 80.6016 66.3281 83.3731 66.3281 86.7802V173.189C66.3281 176.596 69.0997 179.367 72.5067 179.367H218.634C222.041 179.367 224.813 176.596 224.813 173.189V86.7802C224.813 83.3731 222.041 80.6016 218.634 80.6016H72.5067Z" fill="black"/>
<path d="M118.773 162.523H85.8516C85.3439 162.523 84.8571 162.322 84.4981 161.963C84.1392 161.604 83.9375 161.117 83.9375 160.609C83.9375 160.102 84.1392 159.615 84.4981 159.256C84.8571 158.897 85.3439 158.695 85.8516 158.695H118.773C119.281 158.695 119.768 158.897 120.127 159.256C120.486 159.615 120.687 160.102 120.687 160.609C120.687 161.117 120.486 161.604 120.127 161.963C119.768 162.322 119.281 162.523 118.773 162.523ZM162.605 114.289H146.145C145.637 114.289 145.15 114.087 144.791 113.728C144.432 113.369 144.23 112.883 144.23 112.375C144.23 111.867 144.432 111.381 144.791 111.022C145.15 110.663 145.637 110.461 146.145 110.461H162.605C163.113 110.461 163.6 110.663 163.959 111.022C164.318 111.381 164.52 111.867 164.52 112.375C164.52 112.883 164.318 113.369 163.959 113.728C163.6 114.087 163.113 114.289 162.605 114.289ZM162.605 121.945H146.145C145.637 121.945 145.15 121.744 144.791 121.385C144.432 121.026 144.23 120.539 144.23 120.031C144.23 119.524 144.432 119.037 144.791 118.678C145.15 118.319 145.637 118.117 146.145 118.117H162.605C163.113 118.117 163.6 118.319 163.959 118.678C164.318 119.037 164.52 119.524 164.52 120.031C164.52 120.539 164.318 121.026 163.959 121.385C163.6 121.744 163.113 121.945 162.605 121.945ZM211.641 114.289H170.8C170.292 114.289 169.805 114.087 169.446 113.728C169.088 113.369 168.886 112.883 168.886 112.375C168.886 111.867 169.088 111.381 169.446 111.022C169.805 110.663 170.292 110.461 170.8 110.461H211.641C212.149 110.461 212.636 110.663 212.995 111.022C213.354 111.381 213.555 111.867 213.555 112.375C213.555 112.883 213.354 113.369 212.995 113.728C212.636 114.087 212.149 114.289 211.641 114.289ZM211.641 121.945H170.8C170.292 121.945 169.805 121.744 169.446 121.385C169.088 121.026 168.886 120.539 168.886 120.031C168.886 119.524 169.088 119.037 169.446 118.678C169.805 118.319 170.292 118.117 170.8 118.117H211.641C212.149 118.117 212.636 118.319 212.995 118.678C213.354 119.037 213.555 119.524 213.555 120.031C213.555 120.539 213.354 121.026 212.995 121.385C212.636 121.744 212.149 121.945 211.641 121.945ZM162.605 129.602H146.145C145.637 129.602 145.15 129.4 144.791 129.041C144.432 128.682 144.23 128.195 144.23 127.688C144.23 127.18 144.432 126.693 144.791 126.334C145.15 125.975 145.637 125.773 146.145 125.773H162.605C163.113 125.773 163.6 125.975 163.959 126.334C164.318 126.693 164.52 127.18 164.52 127.688C164.52 128.195 164.318 128.682 163.959 129.041C163.6 129.4 163.113 129.602 162.605 129.602ZM162.605 162.523H146.145C145.637 162.523 145.15 162.322 144.791 161.963C144.432 161.604 144.23 161.117 144.23 160.609C144.23 160.102 144.432 159.615 144.791 159.256C145.15 158.897 145.637 158.695 146.145 158.695H162.605C163.113 158.695 163.6 158.897 163.959 159.256C164.318 159.615 164.52 160.102 164.52 160.609C164.52 161.117 164.318 161.604 163.959 161.963C163.6 162.322 163.113 162.523 162.605 162.523ZM211.641 129.602H170.8C170.292 129.602 169.805 129.4 169.446 129.041C169.088 128.682 168.886 128.195 168.886 127.688C168.886 127.18 169.088 126.693 169.446 126.334C169.805 125.975 170.292 125.773 170.8 125.773H211.641C212.149 125.773 212.636 125.975 212.995 126.334C213.354 126.693 213.555 127.18 213.555 127.688C213.555 128.195 213.354 128.682 212.995 129.041C212.636 129.4 212.149 129.602 211.641 129.602ZM211.641 137.258H170.8C170.292 137.258 169.805 137.056 169.446 136.697C169.088 136.338 168.886 135.851 168.886 135.344C168.886 134.836 169.088 134.349 169.446 133.99C169.805 133.631 170.292 133.43 170.8 133.43H211.641C212.149 133.43 212.636 133.631 212.995 133.99C213.354 134.349 213.555 134.836 213.555 135.344C213.555 135.851 213.354 136.338 212.995 136.697C212.636 137.056 212.149 137.258 211.641 137.258ZM183.146 163.995C182.767 163.996 182.396 163.884 182.081 163.674C181.766 163.463 181.52 163.164 181.375 162.815C181.23 162.465 181.193 162.079 181.267 161.708C181.341 161.337 181.524 160.995 181.792 160.728L194.688 147.831C194.866 147.653 195.077 147.512 195.309 147.416C195.541 147.32 195.79 147.27 196.041 147.27C196.293 147.27 196.542 147.32 196.774 147.416C197.006 147.512 197.217 147.653 197.395 147.831C197.573 148.009 197.714 148.22 197.81 148.452C197.906 148.684 197.956 148.933 197.956 149.184C197.956 149.436 197.906 149.685 197.81 149.917C197.714 150.149 197.573 150.36 197.395 150.538L184.499 163.435C184.321 163.613 184.11 163.754 183.878 163.85C183.646 163.946 183.397 163.995 183.146 163.995Z" fill="black"/>
<path d="M248.493 160.227H226.727C226.219 160.227 225.732 160.025 225.373 159.666C225.014 159.307 224.813 158.82 224.813 158.313V86.7802C224.813 83.3731 222.041 80.6016 218.634 80.6016H94.2734C93.7658 80.6016 93.2789 80.3999 92.92 80.041C92.561 79.682 92.3594 79.1952 92.3594 78.6875V63.8114C92.3594 58.2935 96.8482 53.8047 102.366 53.8047H248.493C254.011 53.8047 258.5 58.2935 258.5 63.8114V150.22C258.5 155.738 254.011 160.227 248.493 160.227ZM228.641 156.398H248.493C251.9 156.398 254.672 153.627 254.672 150.22V63.8114C254.672 60.4044 251.9 57.6328 248.493 57.6328H102.366C98.9591 57.6328 96.1875 60.4044 96.1875 63.8114V76.7734H218.634C224.152 76.7734 228.641 81.2623 228.641 86.7802V156.398Z" fill="black"/>
<path d="M256.586 97.995H226.727C226.219 97.995 225.732 97.7934 225.373 97.4344C225.014 97.0755 224.813 96.5886 224.813 96.081V86.7802C224.813 83.3731 222.041 80.6016 218.634 80.6016C218.126 80.6016 217.639 80.3999 217.281 80.0409C216.922 79.682 216.72 79.1951 216.72 78.6875C216.72 78.1799 216.922 77.693 217.281 77.3341C217.639 76.9751 218.126 76.7734 218.634 76.7734H256.586C257.094 76.7734 257.58 76.9751 257.939 77.3341C258.298 77.693 258.5 78.1799 258.5 78.6875V96.081C258.5 96.5886 258.298 97.0755 257.939 97.4344C257.58 97.7934 257.094 97.995 256.586 97.995ZM228.641 94.1669H254.672V80.6016H226.5C227.889 82.3613 228.643 84.5383 228.641 86.7802V94.1669ZM189.594 167.877C186.456 167.877 183.32 166.682 180.932 164.295C178.619 161.981 177.344 158.905 177.344 155.633C177.344 152.361 178.618 149.284 180.932 146.971C185.708 142.195 193.48 142.195 198.256 146.971C200.57 149.284 201.845 152.361 201.845 155.633C201.845 158.905 200.571 161.981 198.256 164.295C197.119 165.433 195.769 166.335 194.282 166.95C192.796 167.565 191.202 167.88 189.594 167.877ZM189.594 147.215C188.488 147.213 187.392 147.429 186.37 147.852C185.349 148.275 184.42 148.895 183.639 149.678C182.048 151.268 181.172 153.383 181.172 155.633C181.172 157.882 182.048 159.998 183.639 161.588C186.923 164.872 192.266 164.872 195.55 161.588C197.141 159.998 198.016 157.882 198.016 155.633C198.016 153.383 197.141 151.268 195.55 149.678C194.768 148.895 193.839 148.275 192.817 147.852C191.795 147.43 190.7 147.213 189.594 147.215ZM125.022 150.323H79.9861C76.1488 150.323 73.0273 147.202 73.0273 143.364V93.7343C73.0273 89.8978 76.1488 86.7763 79.9861 86.7763H125.022C128.859 86.7763 131.98 89.8978 131.98 93.7343V143.364C131.98 147.202 128.859 150.323 125.022 150.323ZM79.9861 90.6045C79.1563 90.6055 78.3607 90.9355 77.7738 91.5222C77.1869 92.109 76.8567 92.9045 76.8555 93.7343V143.364C76.8565 144.194 77.1866 144.99 77.7735 145.577C78.3604 146.164 79.1561 146.494 79.9861 146.495H125.022C125.852 146.494 126.647 146.164 127.234 145.577C127.821 144.99 128.151 144.194 128.152 143.364V93.7343C128.151 92.9044 127.821 92.1088 127.234 91.522C126.647 90.9353 125.852 90.6053 125.022 90.6045H79.9861Z" fill="black"/>
<path d="M122.542 150.323H82.4681C82.2075 150.323 81.9497 150.27 81.7105 150.166C81.4713 150.063 81.2557 149.912 81.0769 149.723C80.898 149.533 80.7598 149.309 80.6705 149.064C80.5813 148.819 80.5429 148.559 80.5578 148.299L80.9789 141.035C81.044 139.804 81.5028 138.627 82.2877 137.676C83.0725 136.726 84.142 136.053 85.3384 135.756L90.6426 134.42C92.5935 133.929 93.833 133.355 95.2509 132.657C95.4977 132.535 95.7056 132.347 95.8516 132.113C95.9976 131.88 96.0759 131.61 96.0778 131.335V129.74C96.0777 129.411 96.1625 129.087 96.3241 128.8C96.4858 128.513 96.7187 128.273 97.0003 128.102C97.282 127.932 97.6029 127.837 97.9321 127.826C98.2612 127.816 98.5875 127.891 98.8792 128.044C99.9985 128.628 101.243 128.933 102.505 128.933C103.768 128.933 105.012 128.628 106.131 128.044C106.423 127.891 106.749 127.816 107.078 127.826C107.408 127.836 107.729 127.931 108.01 128.102C108.292 128.272 108.525 128.512 108.687 128.799C108.849 129.086 108.933 129.41 108.933 129.739V131.334C108.933 131.898 109.247 132.404 109.753 132.653C109.783 132.668 109.813 132.684 109.842 132.7C109.973 132.77 111.917 133.803 114.369 134.42L119.673 135.756C120.87 136.053 121.94 136.727 122.725 137.678C123.51 138.63 123.969 139.808 124.033 141.04L124.454 148.299C124.469 148.559 124.431 148.82 124.342 149.065C124.253 149.31 124.114 149.534 123.935 149.724C123.756 149.913 123.54 150.064 123.301 150.167C123.061 150.271 122.803 150.324 122.542 150.323ZM84.497 146.495H120.514L120.211 141.257C120.19 140.84 120.036 140.441 119.77 140.119C119.505 139.797 119.143 139.569 118.738 139.468L113.434 138.133C112.122 137.798 110.839 137.358 109.598 136.818C108.891 136.512 108.36 136.282 107.967 136.04C107.271 135.683 106.663 135.174 106.187 134.552C105.712 133.93 105.382 133.21 105.221 132.444C103.445 132.871 101.569 132.871 99.7919 132.444C99.626 133.228 99.2833 133.964 98.7901 134.596C98.2968 135.228 97.6659 135.74 96.9453 136.091C95.4347 136.836 93.8874 137.552 91.579 138.133L86.2747 139.468C85.8704 139.568 85.509 139.796 85.2439 140.117C84.9788 140.439 84.824 140.837 84.8024 141.253L84.497 146.495Z" fill="black"/>
<path d="M102.504 132.766C96.0459 132.766 90.793 127.512 90.793 121.055V112.832C90.793 111.03 91.4782 109.319 92.7216 108.016C93.3572 107.346 94.2203 106.938 95.1412 106.873C96.0621 106.808 96.9742 107.089 97.6981 107.662C98.646 108.404 100.251 109.289 102.515 109.289C104.773 109.289 106.367 108.409 107.308 107.67C108.031 107.095 108.944 106.812 109.865 106.876C110.787 106.94 111.651 107.346 112.288 108.016C113.528 109.312 114.219 111.038 114.217 112.832V121.055C114.215 127.512 108.962 132.766 102.504 132.766ZM95.4173 110.738C94.9033 111.314 94.6196 112.06 94.6203 112.832V121.055C94.6203 125.401 98.1568 128.938 102.503 128.938C106.85 128.938 110.386 125.401 110.386 121.055V112.832C110.388 112.062 110.105 111.317 109.593 110.742C108.168 111.84 105.804 113.117 102.514 113.117C99.2217 113.117 96.8491 111.838 95.4173 110.738Z" fill="black"/>
<path d="M102.505 141.432C98.6068 141.432 95.0949 138.961 93.7665 135.282C93.6053 134.835 93.6157 134.345 93.7957 133.906C93.9757 133.467 94.3123 133.11 94.7404 132.905L95.2572 132.653C95.5039 132.533 95.7116 132.345 95.8565 132.112C96.0014 131.879 96.0776 131.61 96.0764 131.335V129.74C96.0763 129.411 96.1611 129.087 96.3227 128.8C96.4844 128.513 96.7172 128.273 96.9989 128.102C97.2806 127.932 97.6015 127.837 97.9307 127.826C98.2598 127.816 98.5861 127.891 98.8778 128.044C99.9971 128.628 101.241 128.933 102.504 128.933C103.767 128.933 105.011 128.628 106.13 128.044C106.422 127.891 106.748 127.816 107.077 127.826C107.406 127.836 107.727 127.931 108.009 128.102C108.291 128.272 108.524 128.512 108.685 128.799C108.847 129.086 108.932 129.41 108.932 129.739V131.334C108.932 131.898 109.246 132.404 109.752 132.653C109.924 132.746 110.097 132.834 110.273 132.918C110.7 133.125 111.034 133.482 111.212 133.921C111.391 134.36 111.4 134.849 111.238 135.294C109.907 138.965 106.396 141.432 102.505 141.432ZM98.0846 135.336C98.5905 136.036 99.2546 136.606 100.023 137C100.791 137.394 101.641 137.6 102.505 137.603C103.368 137.6 104.218 137.394 104.986 137C105.755 136.606 106.419 136.036 106.925 135.336C106.054 134.585 105.455 133.568 105.219 132.443C103.442 132.87 101.567 132.87 99.7897 132.443C99.5544 133.568 98.9552 134.585 98.0846 135.336ZM115.011 114.302C114.946 114.302 114.88 114.298 114.815 114.293L112.28 114.289C111.803 114.289 111.342 114.111 110.989 113.789C110.637 113.467 110.417 113.024 110.374 112.549C110.312 111.879 110.039 111.246 109.594 110.742C108.169 111.84 105.805 113.117 102.515 113.117C99.2224 113.117 96.8497 111.838 95.418 110.738C94.9711 111.243 94.697 111.877 94.6355 112.548C94.5923 113.024 94.3728 113.466 94.02 113.788C93.6673 114.111 93.2068 114.289 92.7291 114.289H90.2668L90.1283 114.298C89.8681 114.313 89.6076 114.275 89.3628 114.186C89.118 114.096 88.894 113.958 88.7046 113.779C88.5152 113.6 88.3643 113.384 88.2613 113.145C88.1583 112.906 88.1053 112.648 88.1055 112.387V108.521C88.1005 105.481 89.1724 102.537 91.131 100.212C93.0896 97.8874 95.8084 96.3312 98.8051 95.8199C101.914 95.2832 107.64 94.8085 111.073 97.6605C112.395 98.7576 113.212 100.231 113.473 101.968C115 102.445 116.926 104.076 116.926 109.267V112.389C116.926 112.896 116.724 113.383 116.365 113.742C116.005 114.101 115.519 114.302 115.011 114.302ZM95.3996 106.864C96.2043 106.864 97.0151 107.127 97.698 107.662C98.6458 108.404 100.251 109.289 102.515 109.289C104.772 109.289 106.367 108.409 107.308 107.67C108.031 107.095 108.943 106.812 109.865 106.876C110.787 106.94 111.651 107.346 112.288 108.016C112.59 108.333 112.86 108.677 113.096 109.042C113.063 106.441 112.444 105.613 112.266 105.613C110.889 105.613 109.754 104.505 109.734 103.144C109.719 102.026 109.368 101.218 108.627 100.604C107.006 99.2576 103.578 98.8794 99.4559 99.5906C97.3491 99.9503 95.4378 101.044 94.0609 102.679C92.6839 104.314 91.9303 106.383 91.9336 108.52V109.011C92.1656 108.656 92.4293 108.322 92.7214 108.015C93.0664 107.651 93.4818 107.362 93.9422 107.164C94.4026 106.966 94.8985 106.864 95.3996 106.864Z" fill="black"/>
<path d="M114.754 122.711H112.301C111.793 122.711 111.306 122.509 110.947 122.15C110.588 121.791 110.387 121.305 110.387 120.797V112.832C110.387 112.736 110.381 112.64 110.372 112.544C110.349 112.28 110.38 112.013 110.465 111.761C110.551 111.51 110.687 111.278 110.866 111.082C111.046 110.886 111.264 110.73 111.507 110.623C111.75 110.516 112.013 110.46 112.279 110.46H114.753C118.13 110.46 120.878 113.208 120.878 116.585C120.878 119.962 118.131 122.711 114.754 122.711ZM114.215 118.883H114.754C116.02 118.883 117.051 117.852 117.051 116.586C117.051 115.32 116.02 114.289 114.754 114.289H114.215V118.883ZM92.707 122.711H90.2539C86.8767 122.711 84.1289 119.963 84.1289 116.586C84.1289 113.209 86.8767 110.461 90.2539 110.461H92.7284C92.9945 110.461 93.2577 110.516 93.5011 110.623C93.7446 110.731 93.963 110.888 94.1424 111.084C94.3218 111.281 94.4583 111.512 94.5431 111.765C94.6278 112.017 94.6591 112.284 94.6348 112.549C94.6258 112.643 94.6209 112.737 94.6203 112.832V120.797C94.6204 121.048 94.571 121.297 94.4748 121.529C94.3787 121.762 94.2378 121.973 94.0601 122.15C93.8825 122.328 93.6715 122.469 93.4393 122.565C93.2072 122.661 92.9583 122.711 92.707 122.711ZM90.2539 114.289C88.9876 114.289 87.957 115.32 87.957 116.586C87.957 117.852 88.9876 118.883 90.2539 118.883H90.7929V114.289H90.2539ZM213.869 102.039H144.645C143.368 102.038 142.144 101.53 141.241 100.627C140.338 99.7234 139.83 98.4989 139.828 97.2217V91.5446C139.83 90.2674 140.338 89.043 141.241 88.1399C142.144 87.2367 143.368 86.7287 144.645 86.7273H213.869C215.147 86.7287 216.371 87.2367 217.275 88.1398C218.178 89.0429 218.686 90.2674 218.688 91.5446V97.2217C218.686 98.499 218.178 99.7235 217.275 100.627C216.371 101.53 215.147 102.038 213.869 102.039ZM144.645 90.5547C144.1 90.5547 143.656 90.9987 143.656 91.5439V97.221C143.656 97.7669 144.1 98.2102 144.645 98.2102H213.869C214.415 98.2102 214.859 97.7661 214.859 97.221V91.5439C214.859 90.998 214.415 90.5547 213.869 90.5547H144.645Z" fill="black"/>
</g>
<g clip-path="url(#clip1_11_5546)">
<path d="M123.577 227.423C123.577 229.83 122.28 232.139 119.972 233.841C117.664 235.544 114.533 236.5 111.269 236.5H45.6282C33.6635 236.49 22.1925 232.981 13.7321 226.741C5.27178 220.502 0.513031 212.042 0.5 203.218V154.808C0.5 152.4 1.7967 150.092 4.10484 148.389C6.41298 146.687 9.54349 145.731 12.8077 145.731C16.0719 145.731 19.2024 146.687 21.5105 148.389C23.8187 150.092 25.1154 152.4 25.1154 154.808V203.218C25.1154 211.569 34.3051 218.346 45.6282 218.346H111.269C114.533 218.346 117.664 219.303 119.972 221.005C122.28 222.707 123.577 225.016 123.577 227.423ZM123.577 9.57693C123.577 7.16957 122.28 4.86082 119.972 3.15857C117.664 1.45631 114.533 0.5 111.269 0.5H45.6282C33.6635 0.50961 22.1925 4.01919 13.7321 10.2587C5.27178 16.4982 0.513031 24.9581 0.5 33.7821V82.1923C0.5 84.5997 1.7967 86.9084 4.10484 88.6107C6.41298 90.3129 9.54349 91.2692 12.8077 91.2692C16.0719 91.2692 19.2024 90.3129 21.5105 88.6107C23.8187 86.9084 25.1154 84.5997 25.1154 82.1923V33.7821C25.1154 25.4313 34.3051 18.6539 45.6282 18.6539H111.269C114.533 18.6539 117.664 17.6975 119.972 15.9953C122.28 14.293 123.577 11.9843 123.577 9.57693ZM308.192 145.731C304.928 145.731 301.798 146.687 299.489 148.389C297.181 150.092 295.885 152.4 295.885 154.808V203.218C295.885 211.569 286.695 218.346 275.372 218.346H209.731C206.467 218.346 203.336 219.303 201.028 221.005C198.72 222.707 197.423 225.016 197.423 227.423C197.423 229.83 198.72 232.139 201.028 233.841C203.336 235.544 206.467 236.5 209.731 236.5H275.372C287.337 236.49 298.808 232.981 307.268 226.741C315.728 220.502 320.487 212.042 320.5 203.218V154.808C320.5 152.4 319.203 150.092 316.895 148.389C314.587 146.687 311.457 145.731 308.192 145.731ZM275.372 0.5H209.731C206.467 0.5 203.336 1.45631 201.028 3.15857C198.72 4.86082 197.423 7.16957 197.423 9.57693C197.423 11.9843 198.72 14.293 201.028 15.9953C203.336 17.6975 206.467 18.6539 209.731 18.6539H275.372C286.695 18.6539 295.885 25.4313 295.885 33.7821V82.1923C295.885 84.5997 297.181 86.9084 299.489 88.6107C301.798 90.3129 304.928 91.2692 308.192 91.2692C311.457 91.2692 314.587 90.3129 316.895 88.6107C319.203 86.9084 320.5 84.5997 320.5 82.1923V33.7821C320.487 24.9581 315.728 16.4982 307.268 10.2587C298.808 4.01919 287.337 0.50961 275.372 0.5Z" fill="white" fill-opacity="0.188235"/>
</g>
<defs>
<linearGradient id="paint0_linear_11_5546" x1="179.408" y1="146.589" x2="200.102" y2="146.957" gradientUnits="userSpaceOnUse">
<stop stop-color="#FF6F00"/>
<stop offset="1" stop-color="#FFA726"/>
</linearGradient>
<linearGradient id="paint1_linear_11_5546" x1="75.3432" y1="92.4229" x2="130.53" y2="93.3298" gradientUnits="userSpaceOnUse">
<stop stop-color="#FF6F00"/>
<stop offset="1" stop-color="#FFA726"/>
</linearGradient>
<clipPath id="clip0_11_5546">
<rect width="196" height="196" fill="white" transform="translate(62.5 20.5)"/>
</clipPath>
<clipPath id="clip1_11_5546">
<rect width="320" height="236" fill="white" transform="translate(0.5 0.5)"/>
</clipPath>
</defs>
</svg>
