<svg width="138" height="37" viewBox="0 0 138 37" fill="none" xmlns="http://www.w3.org/2000/svg">
<path d="M9.50195 24.8633L14.7383 8.59375H18.5254L11.3887 28.5H8.83203L9.50195 24.8633ZM4.66211 8.59375L9.85742 24.8633L10.5684 28.5H7.99805L0.888672 8.59375H4.66211ZM26.3457 28.7734C25.252 28.7734 24.263 28.5957 23.3789 28.2402C22.5039 27.8757 21.7565 27.3698 21.1367 26.7227C20.526 26.0755 20.0566 25.3145 19.7285 24.4395C19.4004 23.5645 19.2363 22.6211 19.2363 21.6094V21.0625C19.2363 19.9049 19.4049 18.8568 19.7422 17.918C20.0794 16.9792 20.5488 16.1771 21.1504 15.5117C21.752 14.8372 22.4629 14.3223 23.2832 13.9668C24.1035 13.6113 24.9922 13.4336 25.9492 13.4336C27.0065 13.4336 27.9316 13.6113 28.7246 13.9668C29.5176 14.3223 30.1738 14.8236 30.6934 15.4707C31.222 16.1087 31.6139 16.8698 31.8691 17.7539C32.1335 18.638 32.2656 19.6133 32.2656 20.6797V22.0879H20.8359V19.7227H29.0117V19.4629C28.9935 18.8704 28.875 18.3145 28.6562 17.7949C28.4466 17.2754 28.123 16.8561 27.6855 16.5371C27.248 16.2181 26.6647 16.0586 25.9355 16.0586C25.3887 16.0586 24.901 16.1771 24.4727 16.4141C24.0534 16.6419 23.7025 16.9746 23.4199 17.4121C23.1374 17.8496 22.9186 18.3783 22.7637 18.998C22.6178 19.6087 22.5449 20.2969 22.5449 21.0625V21.6094C22.5449 22.2565 22.6315 22.8581 22.8047 23.4141C22.987 23.9609 23.2513 24.4395 23.5977 24.8496C23.944 25.2598 24.3633 25.5833 24.8555 25.8203C25.3477 26.0482 25.9082 26.1621 26.5371 26.1621C27.3301 26.1621 28.0365 26.0026 28.6562 25.6836C29.276 25.3646 29.8138 24.9134 30.2695 24.3301L32.0059 26.0117C31.6868 26.4766 31.2721 26.9232 30.7617 27.3516C30.2513 27.7708 29.627 28.1126 28.8887 28.377C28.1595 28.6413 27.3118 28.7734 26.3457 28.7734ZM38.1445 16.5234V28.5H34.8496V13.707H37.9941L38.1445 16.5234ZM42.6699 13.6113L42.6426 16.6738C42.4421 16.6374 42.2233 16.61 41.9863 16.5918C41.7585 16.5736 41.5306 16.5645 41.3027 16.5645C40.7376 16.5645 40.2409 16.6465 39.8125 16.8105C39.3841 16.9655 39.0241 17.1934 38.7324 17.4941C38.4499 17.7858 38.2311 18.1413 38.0762 18.5605C37.9212 18.9798 37.8301 19.4492 37.8027 19.9688L37.0508 20.0234C37.0508 19.0938 37.1419 18.2324 37.3242 17.4395C37.5065 16.6465 37.7799 15.9492 38.1445 15.3477C38.5182 14.7461 38.9831 14.2767 39.5391 13.9395C40.1042 13.6022 40.7559 13.4336 41.4941 13.4336C41.6947 13.4336 41.9089 13.4518 42.1367 13.4883C42.3737 13.5247 42.5514 13.5658 42.6699 13.6113ZM48.2617 13.707V28.5H44.9531V13.707H48.2617ZM44.7344 9.82422C44.7344 9.32292 44.8984 8.9082 45.2266 8.58008C45.5638 8.24284 46.0286 8.07422 46.6211 8.07422C47.2044 8.07422 47.6647 8.24284 48.002 8.58008C48.3392 8.9082 48.5078 9.32292 48.5078 9.82422C48.5078 10.3164 48.3392 10.7266 48.002 11.0547C47.6647 11.3828 47.2044 11.5469 46.6211 11.5469C46.0286 11.5469 45.5638 11.3828 45.2266 11.0547C44.8984 10.7266 44.7344 10.3164 44.7344 9.82422ZM56.1094 28.5H52.8008V12.75C52.8008 11.556 53.0378 10.5488 53.5117 9.72852C53.9948 8.9082 54.6829 8.28385 55.5762 7.85547C56.4785 7.42708 57.5495 7.21289 58.7891 7.21289C59.5182 7.21289 60.2201 7.29036 60.8945 7.44531C61.5781 7.60026 62.2845 7.79622 63.0137 8.0332L62.5078 10.7129C62.043 10.5579 61.528 10.4121 60.9629 10.2754C60.3978 10.1296 59.7461 10.0566 59.0078 10.0566C58.0143 10.0566 57.2806 10.2845 56.8066 10.7402C56.3418 11.1868 56.1094 11.8568 56.1094 12.75V28.5ZM59.0762 13.707V16.1133H50.5312V13.707H59.0762ZM64.5723 13.707V28.5H61.2773V13.707H64.5723ZM74.7715 28.7734C73.6777 28.7734 72.6888 28.5957 71.8047 28.2402C70.9297 27.8757 70.1823 27.3698 69.5625 26.7227C68.9518 26.0755 68.4824 25.3145 68.1543 24.4395C67.8262 23.5645 67.6621 22.6211 67.6621 21.6094V21.0625C67.6621 19.9049 67.8307 18.8568 68.168 17.918C68.5052 16.9792 68.9746 16.1771 69.5762 15.5117C70.1777 14.8372 70.8887 14.3223 71.709 13.9668C72.5293 13.6113 73.418 13.4336 74.375 13.4336C75.4323 13.4336 76.3574 13.6113 77.1504 13.9668C77.9434 14.3223 78.5996 14.8236 79.1191 15.4707C79.6478 16.1087 80.0397 16.8698 80.2949 17.7539C80.5592 18.638 80.6914 19.6133 80.6914 20.6797V22.0879H69.2617V19.7227H77.4375V19.4629C77.4193 18.8704 77.3008 18.3145 77.082 17.7949C76.8724 17.2754 76.5488 16.8561 76.1113 16.5371C75.6738 16.2181 75.0905 16.0586 74.3613 16.0586C73.8145 16.0586 73.3268 16.1771 72.8984 16.4141C72.4792 16.6419 72.1283 16.9746 71.8457 17.4121C71.5632 17.8496 71.3444 18.3783 71.1895 18.998C71.0436 19.6087 70.9707 20.2969 70.9707 21.0625V21.6094C70.9707 22.2565 71.0573 22.8581 71.2305 23.4141C71.4128 23.9609 71.6771 24.4395 72.0234 24.8496C72.3698 25.2598 72.7891 25.5833 73.2812 25.8203C73.7734 26.0482 74.334 26.1621 74.9629 26.1621C75.7559 26.1621 76.4622 26.0026 77.082 25.6836C77.7018 25.3646 78.2396 24.9134 78.6953 24.3301L80.4316 26.0117C80.1126 26.4766 79.6979 26.9232 79.1875 27.3516C78.6771 27.7708 78.0527 28.1126 77.3145 28.377C76.5853 28.6413 75.7376 28.7734 74.7715 28.7734ZM92.2852 25.4375V7.5H95.5938V28.5H92.5996L92.2852 25.4375ZM82.6602 21.2676V20.9805C82.6602 19.8594 82.7923 18.8385 83.0566 17.918C83.321 16.9883 83.7038 16.1908 84.2051 15.5254C84.7064 14.8509 85.3171 14.3359 86.0371 13.9805C86.7572 13.6159 87.5684 13.4336 88.4707 13.4336C89.3639 13.4336 90.1478 13.6068 90.8223 13.9531C91.4967 14.2995 92.071 14.7962 92.5449 15.4434C93.0189 16.0814 93.3971 16.847 93.6797 17.7402C93.9622 18.6243 94.1628 19.6087 94.2812 20.6934V21.6094C94.1628 22.6667 93.9622 23.6328 93.6797 24.5078C93.3971 25.3828 93.0189 26.1393 92.5449 26.7773C92.071 27.4154 91.4922 27.9076 90.8086 28.2539C90.1341 28.6003 89.3457 28.7734 88.4434 28.7734C87.5501 28.7734 86.7435 28.5866 86.0234 28.2129C85.3125 27.8392 84.7064 27.3151 84.2051 26.6406C83.7038 25.9661 83.321 25.1732 83.0566 24.2617C82.7923 23.3411 82.6602 22.3431 82.6602 21.2676ZM85.9551 20.9805V21.2676C85.9551 21.9421 86.0143 22.571 86.1328 23.1543C86.2604 23.7376 86.4564 24.2526 86.7207 24.6992C86.985 25.1367 87.3268 25.4831 87.7461 25.7383C88.1745 25.9844 88.6849 26.1074 89.2773 26.1074C90.0247 26.1074 90.64 25.9434 91.123 25.6152C91.6061 25.2871 91.9844 24.8451 92.2578 24.2891C92.5404 23.724 92.7318 23.0951 92.832 22.4023V19.9277C92.7773 19.39 92.6634 18.8887 92.4902 18.4238C92.3262 17.959 92.1029 17.5534 91.8203 17.207C91.5378 16.8516 91.1868 16.5781 90.7676 16.3867C90.3574 16.1862 89.8698 16.0859 89.3047 16.0859C88.7031 16.0859 88.1927 16.2135 87.7734 16.4688C87.3542 16.724 87.0078 17.0749 86.7344 17.5215C86.4701 17.9681 86.2741 18.4876 86.1465 19.0801C86.0189 19.6725 85.9551 20.306 85.9551 20.9805Z" fill="#4CAF50"/>
<path d="M133.712 15.7827C133.186 15.2618 132.674 14.7279 132.175 14.1813C132.099 13.3854 132.059 12.5863 132.057 11.7867C132.056 10.7679 131.651 9.79108 130.931 9.07067C130.21 8.35026 129.233 7.94506 128.215 7.94401C127.149 7.94401 126.377 7.91867 125.995 7.89867C125.378 7.39013 124.785 6.85311 124.219 6.28934C122.771 4.84134 120.232 4.84134 118.783 6.28934C118.029 7.04267 117.467 7.57201 117.181 7.82667C116.724 7.87334 115.768 7.94401 114.787 7.94401C113.769 7.94542 112.793 8.35044 112.073 9.07027C111.353 9.79011 110.948 10.766 110.947 11.784C110.947 12.8507 110.921 13.6227 110.9 14.004C110.611 14.3613 109.984 15.0867 109.291 15.7827C108.567 16.5067 108.168 17.472 108.168 18.5C108.168 19.528 108.568 20.4933 109.289 21.2173C110.045 21.972 110.573 22.5347 110.828 22.82C110.875 23.2787 110.945 24.236 110.945 25.2133C110.946 26.2317 111.351 27.2081 112.071 27.9283C112.791 28.6485 113.767 29.0536 114.785 29.0547C115.852 29.0547 116.623 29.08 117.005 29.1C117.363 29.392 118.092 30.02 118.784 30.7107C119.508 31.4347 120.473 31.8333 121.501 31.8333C122.529 31.8333 123.495 31.4347 124.219 30.7107C124.973 29.956 125.539 29.4267 125.823 29.1733C126.28 29.1267 127.236 29.0547 128.217 29.0547C129.235 29.0536 130.212 28.6487 130.931 27.9288C131.651 27.2089 132.056 26.2328 132.057 25.2147C132.057 24.148 132.083 23.376 132.103 22.9933C132.611 22.3766 133.148 21.784 133.712 21.2173C134.436 20.4933 134.835 19.528 134.835 18.5C134.835 17.472 134.436 16.5067 133.712 15.7827Z" fill="#4CAF50"/>
<path d="M119.501 23.1667C119.326 23.1669 119.152 23.1324 118.99 23.0654C118.829 22.9984 118.682 22.9 118.558 22.776L115.891 20.1093C115.764 19.9863 115.663 19.8392 115.593 19.6765C115.523 19.5139 115.486 19.3389 115.484 19.1619C115.483 18.9848 115.517 18.8093 115.584 18.6454C115.651 18.4815 115.75 18.3327 115.875 18.2075C116 18.0823 116.149 17.9833 116.313 17.9162C116.477 17.8492 116.652 17.8155 116.829 17.817C117.006 17.8185 117.181 17.8553 117.344 17.9252C117.507 17.9951 117.654 18.0967 117.777 18.224L119.501 19.948L125.225 14.224C125.348 14.0967 125.495 13.9951 125.658 13.9252C125.82 13.8553 125.995 13.8185 126.172 13.817C126.349 13.8155 126.525 13.8492 126.689 13.9162C126.853 13.9833 127.001 14.0823 127.127 14.2075C127.252 14.3327 127.351 14.4815 127.418 14.6454C127.485 14.8093 127.519 14.9848 127.517 15.1619C127.516 15.3389 127.479 15.5139 127.409 15.6765C127.339 15.8392 127.237 15.9863 127.11 16.1093L120.443 22.776C120.32 22.9 120.173 22.9984 120.011 23.0654C119.849 23.1324 119.676 23.1669 119.501 23.1667Z" fill="#E0E0E0"/>
</svg>
