<svg width="146" height="112" viewBox="0 0 146 112" fill="none" xmlns="http://www.w3.org/2000/svg">
<g clip-path="url(#clip0_11_2464)">
<path d="M145.75 0.25H0.25V111.75H145.75V0.25Z" fill="white"/>
<path d="M7.28095 86.138C8.29049 85.9193 9.32757 86.0102 10.34 86.159C11.2399 86.2932 12.1364 86.4725 13.0461 86.5343C13.9278 86.5956 14.8107 86.5207 15.6664 86.2921C17.3077 85.8508 18.7989 84.8888 19.8544 83.5581C21.1854 83.3831 22.5302 83.4054 23.8435 83.6119C23.2266 83.7831 22.6328 84.0313 22.074 84.3464C20.8424 85.038 19.8036 86.0499 19.0913 87.268C18.4148 88.422 18.0329 89.7424 17.9895 91.0784C17.9886 91.1339 18.0455 91.1841 18.1003 91.1669C18.7907 90.9499 19.4391 90.6237 20.0305 90.2104C21.0974 89.4658 21.9675 88.4811 22.6813 87.4024C23.4395 86.2575 24.0282 85.0112 24.5966 83.7642C24.5992 83.7599 24.6001 83.7559 24.5992 83.7526C26.373 84.1306 28.0745 84.8484 29.5915 85.8715C29.7435 86.0069 29.8977 86.1436 30.0528 86.2763C30.8208 86.9328 31.6253 87.5434 32.4607 88.1076C31.7764 87.9347 31.0783 87.8241 30.3743 87.7795C28.7149 87.6752 27.0369 87.9249 25.4841 88.5212C23.9369 89.118 22.5237 90.0365 21.3597 91.2137C21.3083 91.267 21.3412 91.3692 21.4204 91.368C22.4407 91.3473 23.4608 91.3266 24.4831 91.3072C25.3836 91.2884 26.2877 91.2835 27.188 91.2409C28.0626 91.1992 28.9416 91.1085 29.7824 90.858C31.0758 90.4734 32.3054 89.6554 32.8719 88.4015C32.8936 88.407 32.9136 88.4133 32.9355 88.4189C34.6546 89.5263 36.5016 90.4346 38.4336 91.1212C38.6505 91.1981 38.7497 90.8551 38.5346 90.7778C36.836 90.175 35.2042 89.3958 33.6659 88.4588C33.509 88.3633 33.3534 88.2657 33.2014 88.1671C33.3223 87.2077 33.4376 86.248 33.4844 85.281C33.5278 84.3739 33.5085 83.4602 33.3758 82.5582C33.2408 81.6548 32.9706 80.7867 32.6371 79.9379C31.9727 78.2454 31.0888 76.6054 30.8477 74.7804C30.8352 74.6859 30.7022 74.7006 30.6751 74.7771C30.3281 75.7777 30.1 76.8188 29.9886 77.8754C29.7911 79.7575 29.9718 81.6802 30.4994 83.4988C30.9352 85.0014 31.617 86.4301 32.5149 87.7115C31.5882 87.0777 30.7038 86.384 29.8668 85.636C29.8567 85.6256 29.8482 85.6131 29.8346 85.6035L29.8151 85.5917C28.5817 84.4836 27.4557 83.2586 26.4567 81.936C26.0921 81.4521 25.7467 80.9559 25.4167 80.4488C25.86 79.7004 26.232 78.9108 26.5228 78.0915C27.0967 76.4676 27.3687 74.7365 27.3275 73.0167C27.2863 71.2967 26.9306 69.5903 26.2618 68.0057C26.2378 67.9472 26.1317 67.9439 26.1062 68.0037C25.7198 68.876 25.3993 69.7763 25.1486 70.6962C24.7062 72.3223 24.4822 74.0084 24.4779 75.6936C24.4748 76.9919 24.6057 78.2866 24.8654 79.5566C24.3074 78.6162 23.8095 77.6426 23.3748 76.6404C23.1758 75.8062 23.031 74.9588 22.8915 74.1116C22.5831 72.2536 22.2818 70.357 21.4464 68.6461C20.7598 67.2426 19.6775 65.9699 18.2241 65.3212C18.1549 65.2886 18.075 65.3379 18.0914 65.4184C18.2841 66.4052 18.4784 67.3913 18.7081 68.3707C19.0933 70.0182 19.586 71.6522 20.3354 73.1746C21.0253 74.5772 21.935 75.8834 23.1096 76.925C23.3021 77.3632 23.5062 77.7967 23.724 78.2251C23.9964 78.7614 24.287 79.2895 24.5968 79.8053C24.1789 79.4781 23.743 79.1755 23.2886 78.9017C21.9487 78.0924 20.4666 77.5133 18.9328 77.1937C17.3995 76.8759 15.818 76.8166 14.267 77.0349C14.183 77.0465 14.1886 77.1574 14.2428 77.1973L16.8372 79.1316C17.4928 79.6188 18.1308 80.1253 18.8699 80.489C19.5231 80.8112 20.2199 81.0418 20.9367 81.1754C22.3662 81.4399 23.8644 81.3284 25.2227 80.8041C26.1601 82.221 27.2341 83.549 28.4288 84.7605C28.0373 84.5538 27.6384 84.3618 27.2281 84.191C26.3164 83.8094 25.3708 83.53 24.4088 83.3467C22.8785 83.0557 21.3074 83.016 19.7646 83.2232C18.8927 82.8242 17.9692 82.5433 17.0223 82.3912C15.2302 82.1024 13.3736 82.2658 11.6672 82.8909C9.94225 83.5224 8.38786 84.5937 7.19678 85.9877C7.14149 86.0531 7.18984 86.1588 7.28095 86.138Z" fill="#D2D2F7"/>
<path d="M138.862 96.4156C137.852 96.1969 136.815 96.2879 135.803 96.4366C134.903 96.5709 134.006 96.7501 133.096 96.8119C132.215 96.8732 131.332 96.7983 130.476 96.5697C128.835 96.1284 127.344 95.1664 126.288 93.8358C124.957 93.6607 123.613 93.683 122.299 93.8895C122.916 94.0608 123.51 94.309 124.069 94.6241C125.3 95.3156 126.339 96.3276 127.051 97.5456C127.728 98.6996 128.11 100.02 128.153 101.356C128.154 101.412 128.097 101.462 128.042 101.445C127.352 101.228 126.704 100.901 126.112 100.488C125.045 99.7433 124.175 98.7585 123.461 97.6798C122.703 96.535 122.115 95.2886 121.546 94.0416C121.544 94.0374 121.543 94.0333 121.544 94.03C119.77 94.408 118.068 95.1258 116.551 96.1489C116.399 96.2843 116.245 96.421 116.09 96.5537C115.322 97.2102 114.517 97.8208 113.682 98.385C114.366 98.2121 115.065 98.1015 115.769 98.0569C117.428 97.9526 119.106 98.2023 120.659 98.7986C122.206 99.3954 123.619 100.314 124.783 101.491C124.835 101.544 124.802 101.647 124.722 101.645C123.702 101.625 122.682 101.604 121.66 101.585C120.759 101.566 119.855 101.561 118.955 101.518C118.08 101.477 117.201 101.386 116.36 101.135C115.067 100.751 113.837 99.9328 113.271 98.6789C113.249 98.6845 113.229 98.6907 113.207 98.6963C111.488 99.8037 109.641 100.712 107.709 101.399C107.492 101.476 107.393 101.133 107.608 101.055C109.307 100.452 110.939 99.6732 112.477 98.7362C112.634 98.6407 112.789 98.5431 112.941 98.4445C112.82 97.4852 112.705 96.5254 112.658 95.5584C112.615 94.6513 112.634 93.7376 112.767 92.8356C112.902 91.9322 113.172 91.0641 113.506 90.2154C114.17 88.5228 115.054 86.8828 115.295 85.0578C115.308 84.9633 115.441 84.978 115.468 85.0545C115.815 86.0551 116.043 87.0963 116.154 88.1528C116.352 90.035 116.171 91.9577 115.643 93.7762C115.208 95.2788 114.526 96.7076 113.628 97.9889C114.555 97.3551 115.439 96.6614 116.276 95.9135C116.286 95.903 116.295 95.8905 116.308 95.8809L116.328 95.8691C117.561 94.761 118.687 93.536 119.686 92.2134C120.051 91.7295 120.396 91.2333 120.726 90.7262C120.283 89.9779 119.911 89.1882 119.62 88.3689C119.046 86.745 118.774 85.0139 118.815 83.2941C118.856 81.5743 119.212 79.8677 119.881 78.2831C119.905 78.2246 120.011 78.2213 120.037 78.2811C120.423 79.1534 120.744 80.0537 120.994 80.9736C121.437 82.5997 121.661 84.2858 121.665 85.971C121.668 87.2693 121.537 88.564 121.277 89.834C121.835 88.8936 122.333 87.92 122.768 86.9179C122.967 86.0836 123.112 85.2362 123.251 84.389C123.56 82.531 123.861 80.6344 124.696 78.9235C125.383 77.52 126.465 76.2473 127.918 75.5986C127.988 75.566 128.068 75.6153 128.051 75.6958C127.858 76.6826 127.664 77.6687 127.434 78.6481C127.049 80.2956 126.557 81.9296 125.807 83.452C125.117 84.8547 124.208 86.1608 123.033 87.2024C122.841 87.6406 122.636 88.0741 122.419 88.5025C122.146 89.0388 121.856 89.5669 121.546 90.0827C121.964 89.7555 122.4 89.4529 122.854 89.1791C124.194 88.3698 125.676 87.7907 127.21 87.4711C128.743 87.1533 130.325 87.094 131.876 87.3123C131.96 87.3239 131.954 87.4348 131.9 87.4747L129.305 89.409C128.65 89.8962 128.012 90.4027 127.272 90.7664C126.619 91.0886 125.922 91.3192 125.206 91.4528C123.776 91.7173 122.278 91.6058 120.92 91.0815C119.982 92.4984 118.908 93.8264 117.714 95.038C118.105 94.8312 118.504 94.6392 118.914 94.4684C119.826 94.0869 120.771 93.8074 121.734 93.6241C123.264 93.3331 124.835 93.2934 126.378 93.5006C127.25 93.1016 128.173 92.8207 129.12 92.6686C130.912 92.3798 132.769 92.5433 134.475 93.1683C136.2 93.7999 137.754 94.8712 138.946 96.2651C139.001 96.3307 138.952 96.4364 138.862 96.4156Z" fill="#D2D2F7"/>
<path d="M70.0636 105.017C71.0732 104.798 72.1102 104.889 73.1227 105.037C74.0226 105.172 74.9191 105.351 75.8288 105.413C76.7105 105.474 77.5934 105.399 78.4491 105.171C80.0904 104.729 81.5816 103.767 82.6371 102.437C83.968 102.262 85.3129 102.284 86.6262 102.49C86.0093 102.662 85.4154 102.91 84.8567 103.225C83.6251 103.916 82.5862 104.928 81.874 106.146C81.1975 107.301 80.8156 108.621 80.7722 109.957C80.7713 110.012 80.8282 110.063 80.883 110.045C81.5733 109.828 82.2218 109.502 82.8132 109.089C83.8801 108.344 84.7502 107.36 85.464 106.281C86.2222 105.136 86.8109 103.89 87.3792 102.643C87.3819 102.638 87.3828 102.634 87.3819 102.631C89.1557 103.009 90.8571 103.727 92.3741 104.75C92.5261 104.885 92.6804 105.022 92.8355 105.155C93.6035 105.811 94.408 106.422 95.2434 106.986C94.5591 106.813 93.8609 106.703 93.1569 106.658C91.4976 106.554 89.8196 106.803 88.2668 107.4C86.7196 107.996 85.3064 108.915 84.1424 110.092C84.0909 110.146 84.1238 110.248 84.2031 110.247C85.2234 110.226 86.2434 110.205 87.2657 110.186C88.1663 110.167 89.0704 110.162 89.9707 110.119C90.8453 110.078 91.7243 109.987 92.5651 109.737C93.8585 109.352 95.088 108.534 95.6546 107.28C95.6763 107.286 95.6962 107.292 95.7182 107.297C97.4373 108.405 99.2843 109.313 101.216 110C101.433 110.077 101.532 109.734 101.317 109.656C99.6187 109.054 97.9869 108.274 96.4486 107.337C96.2917 107.242 96.1361 107.144 95.9841 107.046C96.105 106.086 96.2203 105.126 96.2671 104.16C96.3105 103.252 96.2912 102.339 96.1585 101.437C96.0235 100.533 95.7533 99.6652 95.4198 98.8165C94.7554 97.1239 93.8714 95.484 93.6304 93.6589C93.6178 93.5644 93.4849 93.5791 93.4578 93.6556C93.1108 94.6562 92.8827 95.6974 92.7712 96.7539C92.5738 98.6361 92.7545 100.559 93.2821 102.377C93.7179 103.88 94.3997 105.309 95.2976 106.59C94.3708 105.956 93.4864 105.263 92.6495 104.515C92.6394 104.504 92.6309 104.492 92.6172 104.482L92.5978 104.47C91.3644 103.362 90.2384 102.137 89.2394 100.815C88.8748 100.331 88.5294 99.8345 88.1994 99.3271C88.6426 98.5787 89.0147 97.7891 89.3054 96.9698C89.8794 95.3459 90.1514 93.6148 90.1102 91.895C90.069 90.175 89.7133 88.4686 89.0444 86.884C89.0205 86.8255 88.9144 86.8222 88.8889 86.882C88.5025 87.7543 88.1819 88.6546 87.9312 89.5745C87.4889 91.2006 87.2649 92.8867 87.2606 94.5719C87.2575 95.8702 87.3884 97.1649 87.6481 98.4349C87.09 97.4945 86.5922 96.5209 86.1575 95.5187C85.9585 94.6845 85.8137 93.8371 85.6742 92.9899C85.3657 91.1319 85.0644 89.2353 84.229 87.5244C83.5425 86.1209 82.4602 84.8482 81.0068 84.1995C80.9376 84.1669 80.8577 84.2162 80.874 84.2967C81.0668 85.2835 81.2611 86.2696 81.4907 87.249C81.876 88.8965 82.3687 90.5305 83.1181 92.0529C83.808 93.4558 84.7177 94.7617 85.8922 95.8033C86.0847 96.2415 86.2889 96.675 86.5067 97.1034C86.7791 97.6397 87.0697 98.1678 87.3795 98.6836C86.9615 98.3564 86.5257 98.0538 86.0713 97.78C84.7314 96.9707 83.2493 96.3916 81.7155 96.072C80.1821 95.7542 78.6007 95.6949 77.0496 95.9132C76.9657 95.9248 76.9713 96.0357 77.0255 96.0756L79.6198 98.0099C80.2755 98.4971 80.9134 99.0036 81.6526 99.3673C82.3058 99.6895 83.0026 99.9201 83.7193 100.054C85.1488 100.318 86.647 100.207 88.0053 99.6824C88.9428 101.099 90.0168 102.427 91.2115 103.639C90.82 103.432 90.4211 103.24 90.0108 103.069C89.099 102.688 88.1535 102.408 87.1914 102.225C85.6612 101.934 84.09 101.894 82.5473 102.101C81.6754 101.703 80.7518 101.422 79.805 101.269C78.0128 100.981 76.1563 101.144 74.4499 101.769C72.7249 102.401 71.1705 103.472 69.9795 104.866C69.9242 104.931 69.9727 105.037 70.0636 105.017Z" fill="#D2D2F7"/>
<path d="M99.7953 42.0409L90.5937 37.9671C88.5253 39.0883 86.0796 39.7391 83.4554 39.7391C76.0369 39.7391 70.022 34.5487 70.022 28.1473C70.022 21.7459 76.0369 16.558 83.4554 16.558C90.8739 16.558 96.8887 21.7459 96.8887 28.1473C96.8887 30.9341 95.7488 33.4913 93.8491 35.4902L99.7953 42.0409Z" fill="#D2D2F7"/>
<path d="M51.4937 38.0508L60.6953 33.977C62.7636 35.0982 65.2094 35.7489 67.8335 35.7489C75.252 35.7489 81.267 30.5586 81.267 24.1572C81.267 17.7557 75.252 12.5679 67.8335 12.5679C60.415 12.5679 54.4003 17.7557 54.4003 24.1572C54.4003 26.944 55.5401 29.5012 57.4399 31.5001L51.4937 38.0508Z" fill="#D2D2F7"/>
<path d="M56.6746 96.1625L44.1768 99.5243L39.6222 111.75H21.2827L25.4859 87.301C25.4859 87.301 31.9141 94.457 56.4299 90.724L56.6746 96.1625Z" fill="#060C4D"/>
<path d="M57.3796 111.75H39.6221L44.1767 99.5243L56.6744 96.1625L57.3796 111.75Z" fill="#060B3A"/>
<path d="M55.77 76.1066L56.4301 90.724C31.9143 94.457 25.4861 87.301 25.4861 87.301L26.3813 82.0966L28.1693 71.6994C28.1693 71.6994 21.3922 52.961 23.2302 47.371C23.2373 47.3498 23.2445 47.326 23.2539 47.3023C23.2611 47.2809 23.2682 47.2622 23.2754 47.2408C25.2676 41.8234 33.8568 38.819 33.8568 38.819C33.8568 38.819 37.5091 45.3955 41.8665 45.1968C44.9985 45.0549 44.6402 42.4786 44.6402 42.4786L44.5403 40.5316C44.5403 40.5316 51.1917 41.071 54.1124 45.6651C57.0332 50.2591 62.5282 76.1064 62.5282 76.1064H55.77V76.1066Z" fill="#7C7CF7"/>
<path d="M50.9443 53.0229L52.5912 60.3844" stroke="#060C4D" stroke-width="0.5" stroke-miterlimit="10" stroke-linecap="round" stroke-linejoin="round"/>
<path d="M74.7263 77.9544C74.4208 78.127 74.0761 78.2311 73.7226 78.2494C74.0888 78.7878 74.2278 79.4768 74.0407 80.1521C73.8712 80.7635 73.4688 81.2457 72.9557 81.5385C72.4402 81.8268 71.8183 81.9231 71.2046 81.7543L66.3858 80.4281L65.3402 86.6197C65.2579 87.0996 65.1368 87.5762 64.9431 88.0255C64.3681 89.3533 63.5237 89.9634 62.698 90.2062C61.4446 90.5771 60.2746 89.391 60.6229 88.1346L61.0793 86.4884C61.4856 85.0237 61.3338 83.4634 60.6511 82.104L60.3509 81.5115C59.8188 80.4466 58.9792 79.5611 57.9473 78.9626L55.9931 77.5677L54.7537 76.6842L50.5474 73.6862L53.6217 62.6004L56.3098 62.7619L62.4479 63.1387C64.8173 63.2846 67.163 63.6735 69.4494 64.3028L74.1499 65.5966C75.2425 65.8972 76.0228 66.9184 75.9145 68.0421C75.8397 68.835 75.3793 69.4748 74.7552 69.8274C74.751 69.8298 74.7422 69.8347 74.738 69.8372C75.831 70.2538 76.4542 71.4486 76.1366 72.5941C75.968 73.2023 75.5655 73.6844 75.0525 73.9772C74.9965 74.0089 74.9414 74.037 74.883 74.0644C75.6743 74.6005 76.0793 75.6013 75.81 76.572C75.6419 77.1795 75.2385 77.6652 74.7263 77.9544Z" fill="#D2D2F7"/>
<path d="M53.0095 77.7492L45.7461 75.7503L50.1906 59.7237L55.7733 61.2602L53.0095 77.7492Z" fill="#060C4D"/>
<path d="M51.5195 20.3193V31.464C51.5195 35.3792 48.3541 38.5942 44.4478 38.6959L44.5404 40.5316L44.6403 42.4786C44.6403 42.4786 44.9989 45.0549 41.8666 45.1968C37.5092 45.3955 33.8569 38.819 33.8569 38.819L36.5214 31.2347C35.8185 31.1779 35.1749 30.7593 34.7499 30.1987C34.3248 29.6403 34.0991 28.9472 34.0042 28.2517C33.9187 27.627 33.9377 26.9719 34.1609 26.3876C34.1918 26.3 34.2299 26.2172 34.2702 26.1345C34.5954 25.4887 35.2486 24.9776 35.9727 24.9658C36.5807 24.9539 37.1884 25.3632 37.3762 25.9215C38.0507 24.0952 38.7274 22.2713 39.4043 20.4473C42.2894 20.9346 45.2151 21.4031 48.124 21.1003C49.273 20.9819 50.4296 20.7263 51.5195 20.3193Z" fill="#FFB980"/>
<path d="M47.9909 26.5687L46.0835 32.4024L48.8601 32.3634L47.9909 26.5687Z" fill="#FFA25C"/>
<path d="M56.6271 15.8366C56.5154 16.3357 56.2376 16.7828 55.9267 17.1898C54.813 18.6471 53.2481 19.6738 51.5194 20.3196C50.4295 20.7266 49.2729 20.9819 48.1236 21.1003C45.2147 21.4031 42.2891 20.9346 39.4039 20.4474C38.7272 22.2713 38.0503 24.0952 37.3759 25.9216C37.1883 25.3632 36.5803 24.954 35.9724 24.9658C35.248 24.9776 34.595 25.4885 34.2698 26.1345C34.2295 26.2173 34.1914 26.3002 34.1605 26.3876C33.8875 25.2947 33.6144 24.2018 33.3413 23.1089C33.1371 22.288 32.9305 21.4575 32.9209 20.6108C32.909 19.7639 33.1156 18.8886 33.6522 18.2334C34.2839 17.4645 35.3619 17.0932 36.3379 17.2895C36.1313 16.2652 36.8722 15.2289 37.8126 14.7557C38.7601 14.2778 39.8619 14.2352 40.9234 14.2022C42.8968 14.1431 44.8725 14.0816 46.8457 14.0225C49.2798 13.9469 51.7114 13.8735 54.1453 13.8002C54.9243 13.7765 55.8148 13.7977 56.3229 14.3869C56.658 14.7742 56.7363 15.3351 56.6271 15.8366Z" fill="#060C4D"/>
<path d="M44.4477 38.6959L44.5404 40.5316C40.761 40.5463 38.8438 36.271 38.8438 36.271C39.5086 37.0138 40.3278 37.6217 41.247 38.043C42.1658 38.464 43.1846 38.6984 44.2579 38.6984C44.3219 38.6984 44.3837 38.6983 44.4477 38.6959Z" fill="#060C4D"/>
<path d="M47.9909 26.5687L48.8601 32.3634L46.0835 32.4024" stroke="#060C4D" stroke-width="0.5" stroke-miterlimit="10" stroke-linecap="round" stroke-linejoin="round"/>
<path d="M34.626 27.4948C34.6517 27.1822 34.7659 26.8693 34.9857 26.645C35.2057 26.4204 35.5393 26.2971 35.8457 26.3691C36.2381 26.4612 36.5 26.8352 36.639 27.2121C36.8575 27.8048 36.8606 28.4736 36.6478 29.0683C36.5578 29.3199 36.4082 29.5781 36.156 29.6684C35.8905 29.7634 35.5816 29.6325 35.4061 29.4126C35.2306 29.1925 35.1679 28.9026 35.1563 28.6219C35.1482 28.4296 35.176 28.2093 35.3338 28.0987C35.4954 27.9854 35.7347 28.0465 35.8685 28.1913C36.0024 28.336 36.0499 28.5407 36.0624 28.7372" stroke="#060C4D" stroke-width="0.5" stroke-miterlimit="10" stroke-linecap="round" stroke-linejoin="round"/>
<path d="M44.8554 26.6252C44.9851 25.9567 44.6336 25.3267 44.0703 25.2182C43.507 25.1098 42.9452 25.5638 42.8155 26.2323C42.6857 26.9009 43.0372 27.5308 43.6005 27.6393C44.1638 27.7478 44.7257 27.2938 44.8554 26.6252Z" fill="#060C4D"/>
<path d="M50.6781 26.994C50.8079 26.3254 50.4564 25.6955 49.8931 25.587C49.3298 25.4785 48.768 25.9326 48.6382 26.6011C48.5085 27.2697 48.86 27.8996 49.4233 28.0081C49.9866 28.1166 50.5484 27.6625 50.6781 26.994Z" fill="#060C4D"/>
<path d="M44.6541 23.6773C44.099 23.6353 43.5438 23.6608 42.9976 23.7694C42.2307 23.9221 42.4018 25.1272 43.1754 24.9731C43.6177 24.885 44.0546 24.8505 44.5043 24.8844C45.2851 24.9437 45.4396 23.7368 44.6541 23.6773Z" fill="#060C4D"/>
<path d="M49.5088 23.9529C50.0649 23.979 50.6129 24.0722 51.1414 24.2468C51.8836 24.4921 51.5655 25.6673 50.8168 25.4198C50.3886 25.2784 49.9594 25.1906 49.5088 25.1694C48.7265 25.1326 48.722 23.9159 49.5088 23.9529Z" fill="#060C4D"/>
<path d="M44.2297 33.7157C44.7823 33.0535 44.8467 32.199 44.3735 31.8071C43.9004 31.4153 43.0688 31.6344 42.5162 32.2966C41.9636 32.9588 41.8992 33.8133 42.3724 34.2052C42.8455 34.5971 43.6771 34.3779 44.2297 33.7157Z" fill="white"/>
<path d="M40.3734 32.6662C41.4792 32.6662 42.3757 31.7731 42.3757 30.6714C42.3757 29.5698 41.4792 28.6767 40.3734 28.6767C39.2676 28.6767 38.3711 29.5698 38.3711 30.6714C38.3711 31.7731 39.2676 32.6662 40.3734 32.6662Z" fill="#FFA25C"/>
<path d="M50.9448 77.4218L49.9545 85.51C49.9545 85.51 32.1305 86.3971 26.7828 82.4511C22.1956 79.0662 21.4313 57.1723 22.966 48.3609C23.6709 44.3144 28.2278 42.1749 31.7645 44.2851C31.786 44.2979 31.8075 44.3108 31.8288 44.3239C34.683 46.0605 36.2954 49.2634 36.1602 52.5897L35.2982 73.4761L50.9448 77.4218Z" fill="#7C7CF7"/>
<path d="M50.8716 78.0204L50.0181 84.9918C50.0181 84.9918 57.9084 85.4935 60.8128 84.6881C63.7175 83.8824 64.9717 82.2054 64.7075 81.7286C64.7075 81.7286 66.655 80.0845 66.2259 79.1639C66.2259 79.1639 66.5724 78.3564 65.9617 78.0204C65.9617 78.0204 67.1416 76.739 66.2259 76.5334C65.3099 76.3278 59.1047 78.3089 57.3636 78.0953C57.3636 78.0953 61.781 74.7387 61.4179 73.9578C61.0548 73.1768 55.7709 76.1061 55.7709 76.1061L50.8716 78.0204Z" fill="#FFB980"/>
<path d="M36.1602 52.5894L35.2982 73.4758L50.9448 77.4218L49.9545 85.51C49.9545 85.51 32.1305 86.3971 26.7829 82.4511C26.2094 82.0281 25.6959 81.3156 25.2388 80.3759" stroke="#060C4D" stroke-width="0.5" stroke-miterlimit="10" stroke-linecap="round" stroke-linejoin="round"/>
<path d="M65.9827 77.9673C64.0164 78.9398 61.9602 79.7317 59.8486 80.3293" stroke="#060C4D" stroke-width="0.5" stroke-miterlimit="10" stroke-linecap="round" stroke-linejoin="round"/>
<path d="M66.2002 79.2217C64.3477 80.5896 62.1932 81.5491 59.9346 82.0121" stroke="#060C4D" stroke-width="0.5" stroke-miterlimit="10" stroke-linecap="round" stroke-linejoin="round"/>
<path d="M64.6917 81.8401C63.1297 82.6173 61.4529 83.165 59.7324 83.46" stroke="#060C4D" stroke-width="0.5" stroke-miterlimit="10" stroke-linecap="round" stroke-linejoin="round"/>
<path d="M119.689 84.8194C120.736 86.454 121.648 88.1526 122.438 89.863C108.214 93.4399 99.2594 91.1216 96.2744 90.0664C97.3003 82.2716 98.3356 75.9433 98.3356 75.9433L89.8467 75.3267C89.8467 75.3267 95.5113 55.2873 97.2922 53.182C98.8809 51.3083 106.006 49.3722 107.098 49.1829L106.979 50.6614C106.979 50.6614 106.274 55.6481 109.898 55.6173C113.519 55.5843 117.307 48.6385 117.307 48.6385C120.225 49.7859 123.982 52.1682 123.982 52.1682L119.689 84.8194Z" fill="#7C7CF7"/>
<path d="M127.645 111.75H110.531L107.097 100.097L95.585 95.583C95.8059 93.7071 96.0385 91.8475 96.2735 90.0662C99.2585 91.1212 108.213 93.4397 122.437 89.8628C127.372 100.539 127.645 111.75 127.645 111.75Z" fill="#060C4D"/>
<path d="M110.531 111.75H94.2744C94.3481 107.312 94.9061 101.36 95.5853 95.5829L107.097 100.097L110.531 111.75Z" fill="#060B3A"/>
<path d="M102.111 57.2856L99.5508 63.83" stroke="#060C4D" stroke-width="0.5" stroke-miterlimit="10" stroke-linecap="round" stroke-linejoin="round"/>
<path d="M99.2483 67.3663L97.6701 80.2401L94.6437 80.5055L87.7358 81.1031C85.0676 81.3328 82.3859 81.2882 79.7311 80.9649L74.2737 80.3003C73.0045 80.1465 71.9637 79.1363 71.8965 77.8652C71.8473 76.9687 72.2547 76.1793 72.8904 75.682C72.8949 75.6798 72.9038 75.6731 72.9083 75.6686C71.6189 75.3854 70.7258 74.1567 70.8892 72.8254C70.9743 72.1185 71.3436 71.5141 71.8674 71.1038C71.9234 71.0592 71.9793 71.0191 72.042 70.9789C71.0683 70.5106 70.4505 69.4625 70.5892 68.3341C70.6743 67.6295 71.0436 67.0207 71.5674 66.6126C71.8786 66.3695 72.2457 66.1956 72.6374 66.1175C72.1383 65.5779 71.8674 64.8308 71.9637 64.0481C72.051 63.3367 72.4203 62.7324 72.9419 62.3221C73.4701 61.914 74.1484 61.7044 74.8602 61.7913L80.4564 62.4715L80.5884 55.3912C80.5996 54.8426 80.6556 54.2918 80.7966 53.7589C81.2174 52.1822 82.0569 51.3616 82.9366 50.9535C83.4291 50.7261 83.9417 50.735 84.3871 50.9089C85.1504 51.2077 85.71 51.9994 85.5981 52.9204L85.3631 54.8315C85.1549 56.533 85.5847 58.2479 86.5719 59.6528L87.0061 60.2638C87.7784 61.3632 88.8618 62.2106 90.1131 62.7078L92.5262 63.9388L94.055 64.7193L99.2483 67.3663Z" fill="white" stroke="#060C4D" stroke-width="0.5" stroke-miterlimit="10" stroke-linecap="round" stroke-linejoin="round"/>
<path d="M95.8234 63.2424L104.258 64.2684L101.977 82.8804L95.4941 82.0919L95.8234 63.2424Z" fill="#060C4D"/>
<path d="M80.4565 62.4715L83.4174 62.8287" stroke="#060C4D" stroke-width="0.5" stroke-miterlimit="10" stroke-linecap="round" stroke-linejoin="round"/>
<path d="M72.6372 66.1175L75.5606 66.4551" stroke="#060C4D" stroke-width="0.5" stroke-miterlimit="10" stroke-linecap="round" stroke-linejoin="round"/>
<path d="M72.042 70.9789L75.0319 71.2287" stroke="#060C4D" stroke-width="0.5" stroke-miterlimit="10" stroke-linecap="round" stroke-linejoin="round"/>
<path d="M72.8901 75.682L75.0628 75.7854" stroke="#060C4D" stroke-width="0.5" stroke-miterlimit="10" stroke-linecap="round" stroke-linejoin="round"/>
<path d="M96.5747 78.4414L96.9329 85.2502C96.9329 85.2502 116.463 86.4185 119.689 84.8194C122.914 83.2203 131.792 56.898 123.982 52.1684C115.834 47.2345 113.31 77.0822 113.31 77.0822L96.5747 78.4414Z" fill="#7C7CF7"/>
<path d="M96.662 80.1014L92.5699 78.5072C92.5699 78.5072 88.8182 76.1396 87.5309 76.6549C86.2435 77.1703 90.4794 79.9979 90.4794 79.9979C90.4794 79.9979 83.845 80.0637 81.9416 79.669C80.0383 79.2745 81.9416 81.4008 81.9416 81.4008C81.9416 81.4008 80.7441 81.8065 81.2988 82.6066C81.8534 83.4067 82.4037 83.3518 82.4037 83.3518C82.4037 83.3518 81.25 83.5271 81.2988 84.0753C81.3476 84.6234 83.0199 85.0727 84.6262 85.3247C84.6262 85.3247 83.0859 85.4124 83.152 85.9166C83.218 86.4208 85.9574 87.736 96.9487 85.0397L96.662 80.1014Z" fill="#FFB980"/>
<path d="M82.0859 81.4622C84.0036 81.8874 85.9746 82.075 87.9384 82.019" stroke="#060C4D" stroke-width="0.5" stroke-miterlimit="10" stroke-linecap="round" stroke-linejoin="round"/>
<path d="M82.373 83.4078C84.1049 83.7042 85.8686 83.8148 87.6243 83.7372" stroke="#060C4D" stroke-width="0.5" stroke-miterlimit="10" stroke-linecap="round" stroke-linejoin="round"/>
<path d="M84.4404 85.3863C85.6557 85.5251 86.8851 85.5419 88.1037 85.4364" stroke="#060C4D" stroke-width="0.5" stroke-miterlimit="10" stroke-linecap="round" stroke-linejoin="round"/>
<path d="M115.658 61.8589L113.31 77.0822L96.5747 78.4414L96.9329 85.2502C96.9329 85.2502 116.463 86.4185 119.689 84.8194C120.017 84.6566 120.417 84.2184 120.861 83.5597" stroke="#060C4D" stroke-width="0.5" stroke-miterlimit="10" stroke-linecap="round" stroke-linejoin="round"/>
<path d="M117.306 48.6388C117.306 48.6388 113.519 55.5843 109.897 55.6176C106.274 55.6483 106.979 50.6616 106.979 50.6616L107.098 49.1831L107.278 46.9286C104.174 46.6139 101.612 44.1299 101.327 40.927L100.648 33.345L100.662 33.196C100.833 33.2765 101.007 33.3497 101.187 33.409C102.545 33.8608 104.039 33.6929 105.421 33.3167C107.845 32.6566 110.092 31.3721 111.89 29.6169C112.429 31.5614 112.968 33.5038 113.507 35.4483C113.789 35.0155 114.302 34.722 114.827 34.708C115.577 34.689 116.285 35.1694 116.658 35.8174C116.757 35.99 116.833 36.1722 116.893 36.3615C117.052 36.882 117.064 37.4498 116.973 37.9892C116.762 39.2478 115.988 40.3998 114.91 41.0835C115.247 42.1457 115.582 43.2056 115.919 44.2653C116.38 45.7244 116.843 47.1817 117.306 48.6388Z" fill="#FFB980"/>
<path d="M116.893 36.3611C116.834 36.1718 116.758 35.9896 116.658 35.817C116.285 35.1687 115.578 34.6886 114.827 34.7075C114.302 34.7218 113.79 35.0151 113.507 35.4479C112.968 33.5033 112.429 31.561 111.89 29.6164C110.092 31.3717 107.846 32.6564 105.421 33.3162C104.039 33.6924 102.546 33.8604 101.187 33.4086C101.007 33.3495 100.834 33.2761 100.663 33.1956C98.934 32.3582 97.768 30.4302 97.9009 28.5115C97.9531 27.7615 98.2524 26.9454 98.934 26.6236C99.4041 26.4012 99.9502 26.4628 100.468 26.4628C103.876 26.4652 106.842 23.7257 110.247 23.7944C111.636 23.8227 112.954 24.3478 114.06 25.1854C115.148 26.0016 116.027 27.1182 116.578 28.3601C117.682 30.8492 117.598 33.7306 116.893 36.3611Z" fill="#060C4D"/>
<path d="M123.191 38.0052C124.307 39.2661 124.677 41.1373 124.128 42.7248C123.578 44.3146 122.131 45.5612 120.474 45.8711C118.814 46.1833 117.012 45.5447 115.919 44.2649C115.582 43.2049 115.247 42.1452 114.91 41.0831C115.988 40.3994 116.762 39.2474 116.974 37.9887C117.064 37.4493 117.052 36.8816 116.893 36.3611C117.598 33.7306 117.681 30.8492 116.577 28.3605C116.026 27.1186 115.148 26.0018 114.06 25.1859C114.628 24.0905 115.794 23.3169 117.033 23.2366C118.335 23.1514 119.66 23.8352 120.343 24.9446C121.16 26.2717 121.034 27.9656 121.562 29.4298C121.935 30.4612 122.616 31.346 123.236 32.2543C123.853 33.1604 124.433 34.1445 124.544 35.2351C124.658 36.3256 124.19 37.5439 123.191 38.0052Z" fill="#060C4D"/>
<path d="M107.278 46.9286C107.499 46.9522 107.725 46.9641 107.95 46.9641C108.145 46.9641 108.342 46.9547 108.539 46.938C110.515 46.7605 112.215 45.7315 113.31 44.2459C113.31 44.2459 111.81 48.5103 107.13 48.7833L107.278 46.9286Z" fill="#060C4D"/>
<path d="M108.314 34.3054C108.888 34.2903 109.458 34.3447 110.015 34.4845C110.796 34.6807 110.559 35.9128 109.77 35.715C109.319 35.602 108.871 35.544 108.407 35.5562C107.599 35.5774 107.502 34.3268 108.314 34.3054Z" fill="#060C4D"/>
<path d="M102.936 34.3614C102.362 34.3601 101.793 34.4281 101.24 34.5811C100.463 34.796 100.73 36.0221 101.514 35.8053C101.962 35.6813 102.408 35.6129 102.873 35.6138C103.681 35.6156 103.748 34.3632 102.936 34.3614Z" fill="#060C4D"/>
<path d="M111.36 42.2637C112.399 42.2637 113.242 41.4244 113.242 40.3891C113.242 39.3538 112.399 38.5146 111.36 38.5146C110.321 38.5146 109.479 39.3538 109.479 40.3891C109.479 41.4244 110.321 42.2637 111.36 42.2637Z" fill="#FFA25C"/>
<path d="M106.125 43.5983C106.544 44.4874 107.692 44.8302 108.688 44.3641C109.685 43.898 110.152 42.7993 109.733 41.9104C109.314 41.0213 108.636 41.8906 107.64 42.3566C106.644 42.8227 105.706 42.7092 106.125 43.5983Z" fill="white"/>
<path d="M106.507 41.6477L104.262 41.592L105.218 35.8252L106.507 41.6477Z" fill="#FFA25C"/>
<path d="M105.181 36.1488L104.263 41.5922L106.175 41.6482" stroke="#060C4D" stroke-width="0.5" stroke-miterlimit="10" stroke-linecap="round" stroke-linejoin="round"/>
<path d="M116.479 37.0064C116.453 36.6842 116.335 36.3618 116.108 36.1303C115.882 35.8988 115.538 35.7717 115.222 35.8457C114.817 35.9407 114.547 36.3261 114.404 36.7148C114.179 37.3258 114.176 38.0153 114.395 38.6283C114.488 38.8877 114.642 39.1539 114.902 39.2469C115.176 39.3448 115.494 39.2099 115.675 38.9831C115.856 38.7563 115.921 38.4575 115.933 38.1681C115.941 37.97 115.912 37.7428 115.75 37.6288C115.583 37.512 115.336 37.5749 115.198 37.7243C115.06 37.8735 115.011 38.0844 114.998 38.2871" stroke="#060C4D" stroke-width="0.5" stroke-miterlimit="10" stroke-linecap="round" stroke-linejoin="round"/>
<path d="M101.316 36.9603C101.648 37.2493 102.106 37.3889 102.544 37.3345C102.982 37.2801 103.391 37.0327 103.642 36.6713" stroke="#060C4D" stroke-width="0.5" stroke-miterlimit="10" stroke-linecap="round" stroke-linejoin="round"/>
<path d="M107.88 36.7491C108.212 37.0381 108.67 37.1777 109.108 37.1233C109.546 37.0689 109.955 36.8216 110.206 36.4601" stroke="#060C4D" stroke-width="0.5" stroke-miterlimit="10" stroke-linecap="round" stroke-linejoin="round"/>
<path d="M67.8687 50.6904C66.7624 51.2653 66.5742 52.8147 66.5491 53.132C66.5216 52.8147 66.3358 51.2651 65.2271 50.6904C66.3358 50.1155 66.5216 48.5637 66.5491 48.2463C66.5742 48.5637 66.7624 50.1157 67.8687 50.6904Z" fill="#060C4D"/>
<path d="M23.1143 32.9753C22.008 33.5502 21.8198 35.0996 21.7947 35.4169C21.7672 35.0996 21.5814 33.5499 20.4727 32.9753C21.5816 32.4004 21.7672 30.8485 21.7947 30.5312C21.82 30.8485 22.008 32.4004 23.1143 32.9753Z" fill="#060C4D"/>
<path d="M132.504 49.5099C131.398 50.0848 131.209 51.6342 131.184 51.9515C131.157 51.6342 130.971 50.0845 129.862 49.5099C130.971 48.935 131.157 47.3831 131.184 47.0658C131.209 47.3831 131.398 48.935 132.504 49.5099Z" fill="#060C4D"/>
<path d="M126.032 49.3225C125.548 49.3225 125.547 50.0722 126.032 50.0722C126.517 50.0725 126.517 49.3225 126.032 49.3225Z" fill="#060C4D"/>
<path d="M131.183 45.2013C130.699 45.2013 130.698 45.951 131.183 45.951C131.667 45.951 131.668 45.2013 131.183 45.2013Z" fill="#060C4D"/>
<path d="M24.4313 30.2431C23.9472 30.2431 23.9463 30.9928 24.4313 30.9928C24.9155 30.9928 24.9164 30.2431 24.4313 30.2431Z" fill="#060C4D"/>
<path d="M26.8024 36.079C26.3183 36.079 26.3174 36.8288 26.8024 36.8288C27.2866 36.8288 27.2873 36.079 26.8024 36.079Z" fill="#060C4D"/>
<path d="M29.0344 31.4937C28.5502 31.4937 28.5493 32.2434 29.0344 32.2434C29.5185 32.2434 29.5194 31.4937 29.0344 31.4937Z" fill="#060C4D"/>
<path d="M62.4338 52.1841C61.9496 52.1841 61.9487 52.9338 62.4338 52.9338C62.918 52.9338 62.9189 52.1841 62.4338 52.1841Z" fill="#060C4D"/>
<path d="M65.5021 56.0745C65.018 56.0745 65.0171 56.8242 65.5021 56.8242C65.9863 56.8242 65.9872 56.0745 65.5021 56.0745Z" fill="#060C4D"/>
<path d="M16.8731 100.158C15.7668 100.733 15.5786 102.282 15.5535 102.599C15.5259 102.282 15.3402 100.732 14.2314 100.158C15.3402 99.5827 15.5259 98.0309 15.5535 97.7136C15.5786 98.0309 15.7666 99.5827 16.8731 100.158Z" fill="#060C4D"/>
<path d="M17.8347 104.367C17.3505 104.367 17.3496 105.117 17.8347 105.117C18.3188 105.117 18.3197 104.367 17.8347 104.367Z" fill="#060C4D"/>
<path d="M14.5065 105.542C14.0224 105.542 14.0215 106.291 14.5065 106.291C14.9909 106.291 14.9916 105.542 14.5065 105.542Z" fill="#060C4D"/>
<path d="M137.833 53.5584C136.726 54.1333 136.538 55.6827 136.513 56C136.485 55.6827 136.3 54.1331 135.191 53.5584C136.3 52.9835 136.485 51.4316 136.513 51.1143C136.538 51.4316 136.726 52.9835 137.833 53.5584Z" fill="#060C4D"/>
<path d="M132.621 55.243C132.137 55.243 132.136 55.9927 132.621 55.9927C133.105 55.9927 133.106 55.243 132.621 55.243Z" fill="#060C4D"/>
<path d="M130.456 58.9484C129.972 58.9484 129.971 59.6981 130.456 59.6981C130.94 59.6981 130.941 58.9484 130.456 58.9484Z" fill="#060C4D"/>
</g>
<defs>
<clipPath id="clip0_11_2464">
<rect width="145.5" height="111.5" fill="white" transform="translate(0.25 0.25)"/>
</clipPath>
</defs>
</svg>
