<svg width="146" height="104" viewBox="0 0 146 104" fill="none" xmlns="http://www.w3.org/2000/svg">
<g clip-path="url(#clip0_11_2919)">
<path d="M145.75 0.0349731H0.25V103.964H145.75V0.0349731Z" fill="white"/>
<path opacity="0.08" d="M17.6021 96.8274C7.96618 86.3354 3.10793 75.097 6.67346 58.4017C9.03077 47.3637 16.5761 46.0459 23.4988 39.4086C26.9152 36.133 24.7664 31.3651 24.703 26.633C24.5582 14.5145 38.0824 5.11076 50.5161 5.30703C63.9838 5.51957 69.8137 19.0594 81.111 19.7856C85.5471 19.8537 89.5194 17.2501 93.4444 15.1821C105.074 9.05418 123.528 12.9619 124.461 27.7813C124.702 35.7843 118.567 44.9047 127.693 49.1139C134.966 52.4686 139.34 57.4596 140.651 69.4583C142.367 85.1631 133.297 93.7825 121.478 97.8242L17.6021 96.8274Z" fill="#060C4D"/>
<path d="M132.603 76.6685C132.603 76.6685 132.958 78.736 130.361 81.2915C127.715 83.895 127.237 86.1889 127.237 86.1889L125.401 86.8987C125.401 86.8987 126.294 83.4683 128.52 81.4773C131.309 78.9887 132.603 76.6685 132.603 76.6685Z" fill="#A9B9EB"/>
<path d="M136.457 79.0997C136.457 79.0997 136.213 80.6265 133.797 82.0274C131.331 83.4515 130.459 85.0103 130.459 85.0103L128.951 85.5406C128.951 85.5406 130.44 82.922 132.468 81.8644C135.002 80.54 136.457 79.0997 136.457 79.0997Z" fill="#A9B9EB"/>
<path d="M128.38 78.8857C128.38 78.8857 126.78 79.3289 124.693 82.6609C122.992 85.376 123.124 87.1557 122.071 88.8157L124.58 87.4895C125.14 86.2463 124.613 85.1122 126.036 82.5755C127.368 80.2 128.38 78.8857 128.38 78.8857Z" fill="#A9B9EB"/>
<path d="M113.01 85.772C113.01 85.772 111.927 87.036 112.054 90.9621C112.155 94.165 113.495 95.0565 113.551 95.8064L114.684 94.6051C114.287 93.2225 113.353 93.0439 113.12 90.1444C112.904 87.4243 113.01 85.772 113.01 85.772Z" fill="#A9B9EB"/>
<path d="M124.588 80.0924C124.588 80.0924 122.807 82.3367 122.033 83.8948C120.928 86.1076 121.407 87.6685 120.441 90.0099L118.617 91.112C118.617 91.112 118.37 88.2123 119.842 85.5365C122.313 81.0459 124.588 80.0924 124.588 80.0924Z" fill="#A9B9EB"/>
<path d="M119.742 79.7317C119.47 81.3161 118.969 82.8525 118.253 84.2917C116.052 88.6375 117.242 92.937 117.242 92.937L115.969 93.5118C115.969 93.5118 113.872 90.0693 115.822 86.4715C117.888 82.6715 119.742 79.7317 119.742 79.7317Z" fill="#A9B9EB"/>
<path d="M124.368 87.7782C124.368 87.7782 125.578 87.7779 129.842 89.9302C132.574 91.3106 132.122 89.9294 134.533 91.705C132.413 91.1574 131.181 92.4098 128.565 91.2737C126.474 90.3637 124.314 89.6188 122.106 89.0461L124.368 87.7782Z" fill="#A9B9EB"/>
<path d="M132 93.7534C132 93.7534 129.463 95.339 125.602 93.6509C123.223 92.6179 120.691 91.9832 118.106 91.772L120.009 90.2C120.009 90.2 122.073 89.5905 125.919 91.7315C128.562 93.2017 132 93.7534 132 93.7534Z" fill="#A9B9EB"/>
<path d="M128.303 96.6809C128.303 96.6809 125.766 98.2665 121.905 96.5784C119.526 95.5455 116.993 94.9107 114.409 94.6995L116.312 93.1275C116.312 93.1275 118.376 92.518 122.222 94.659C124.865 96.1291 128.303 96.6809 128.303 96.6809Z" fill="#A9B9EB"/>
<path d="M137.371 87.4936C137.371 87.4936 135.701 88.1903 133.301 87.0318C130.867 85.8557 128.812 85.7406 128.812 85.7406L129.789 85.2478C129.789 85.2478 131.094 84.8626 133.525 86.2149C135.198 87.1441 137.371 87.4936 137.371 87.4936Z" fill="#A9B9EB"/>
<path d="M127.305 86.5808C127.305 86.5808 129.325 87.0748 132.102 88.3434C133.856 89.1385 136.648 88.9026 136.648 88.9026C136.648 88.9026 133.874 90.8359 131.311 89.4777C128.373 87.9195 125.161 87.2514 125.161 87.2514L127.305 86.5808Z" fill="#A9B9EB"/>
<path d="M129.494 85.4799C129.494 85.4799 132.014 83.5132 134.913 83.9737C136.633 84.2322 138.384 84.2014 140.094 83.8828C140.094 83.8828 137.66 85.972 135.045 85.2627C132.629 84.6142 130.449 85.5866 130.449 85.5866L129.494 85.4799Z" fill="#A9B9EB"/>
<path d="M113.754 95.9304L113.406 95.6151C115.351 93.4694 122.993 86.9673 130.405 85.002L130.525 85.4562C123.216 87.3947 115.675 93.8127 113.754 95.9304Z" fill="#A9B9EB"/>
<path d="M117.494 82.9033C116.167 81.1124 115.989 78.808 116.959 75.9901C118.348 78.6286 118.526 80.933 117.494 82.9033Z" fill="#A9B9EB"/>
<path d="M119.33 79.0062C118.381 77.2092 118.539 75.1088 119.802 72.7051C120.691 75.2743 120.534 77.3747 119.33 79.0062Z" fill="#A9B9EB"/>
<path d="M121.347 75.1509C120.707 73.3299 121.148 71.3781 122.671 69.2957C123.152 71.8338 122.71 73.7856 121.347 75.1509Z" fill="#A9B9EB"/>
<path d="M125.894 67.14C125.843 69.3235 125.133 70.8614 123.764 71.7537C123.558 70.1292 124.268 68.5913 125.894 67.14Z" fill="#A9B9EB"/>
<path d="M128.76 66.3786C128.393 68.1697 127.581 69.3309 126.325 69.8622C126.393 68.4968 127.205 67.3357 128.76 66.3786Z" fill="#A9B9EB"/>
<path d="M127.75 69.9927C128.302 68.7426 129.475 67.9484 131.271 67.6102C130.287 69.1519 129.113 69.946 127.75 69.9927Z" fill="#A9B9EB"/>
<path d="M124.39 80.2991C122.434 82.5842 120.338 83.606 118.102 83.3646C119.288 81.4595 121.384 80.4377 124.39 80.2991Z" fill="#A9B9EB"/>
<path d="M121.594 76.5954C123.039 75.4583 124.937 75.2574 127.288 75.9928C125.145 77.2004 123.247 77.4013 121.594 76.5954Z" fill="#A9B9EB"/>
<path d="M128.357 73.5873C126.493 74.6401 124.842 74.8149 123.403 74.112C124.66 73.1214 126.311 72.9466 128.357 73.5873Z" fill="#A9B9EB"/>
<path d="M125.7 71.975C126.958 70.988 128.609 70.8132 130.654 71.4504C128.789 72.5031 127.138 72.678 125.7 71.975Z" fill="#A9B9EB"/>
<path d="M116.626 87.2998C118.006 82.1489 118.13 82.5726 119.474 79.5997C119.836 78.7962 120.219 78.0357 120.623 77.3181C121.47 75.8583 122.472 74.4945 123.612 73.2507C124.919 71.7659 126.043 70.7981 126.982 70.3473L127.073 70.248C127.088 70.2105 127.128 70.189 127.168 70.1972C127.204 70.1818 127.245 70.1823 127.282 70.1985C127.313 70.2263 127.336 70.2609 127.352 70.2996C127.367 70.3362 127.366 70.3776 127.35 70.4139L127.315 70.4913C127.286 70.5217 127.252 70.546 127.214 70.5628L127.213 70.5819L127.128 70.6138C126.219 71.074 125.13 72.0209 123.859 73.4542C122.739 74.6925 121.758 76.0497 120.933 77.5016C120.511 78.2268 120.127 78.9733 119.782 79.7382L119.693 79.9379C121.004 78.3966 123.009 77.7643 125.708 78.041C123.661 79.8174 121.656 80.4497 119.693 79.9379C118.391 82.8663 118.304 82.356 116.961 87.378L116.626 87.2998Z" fill="#A9B9EB"/>
<path d="M62.9998 92.3953C60.8875 93.1069 58.64 92.5677 56.2573 90.7775C59.1951 90.2677 61.4426 90.8069 62.9998 92.3953Z" fill="#A9B9EB"/>
<path d="M59.8566 89.4493C57.8551 89.799 55.905 89.0031 54.0063 87.0616C56.7245 87.0062 58.6746 87.8021 59.8566 89.4493Z" fill="#A9B9EB"/>
<path d="M56.809 86.3439C54.8793 86.3928 53.158 85.3726 51.645 83.2831C54.2078 83.6064 55.9292 84.6267 56.809 86.3439Z" fill="#A9B9EB"/>
<path d="M50.5854 79.5531C52.6472 80.2739 53.8921 81.4227 54.3202 82.9991C52.7109 82.6956 51.466 81.5469 50.5854 79.5531Z" fill="#A9B9EB"/>
<path d="M50.7427 76.5919C52.3341 77.4918 53.1893 78.6214 53.3081 79.9807C52.0302 79.4953 51.1751 78.3657 50.7427 76.5919Z" fill="#A9B9EB"/>
<path d="M53.8704 78.6653C52.8507 77.7555 52.4562 76.3943 52.6869 74.5816C53.8509 75.9927 54.2454 77.354 53.8704 78.6653Z" fill="#A9B9EB"/>
<path d="M62.6436 85.0329C64.2163 87.5964 64.5437 89.9051 63.6259 91.9591C62.178 90.2445 61.8506 87.9358 62.6436 85.0329Z" fill="#A9B9EB"/>
<path d="M58.2592 86.5538C57.6217 84.8291 58.0145 82.9614 59.4375 80.9507C59.9274 83.3608 59.5346 85.2286 58.2592 86.5538Z" fill="#A9B9EB"/>
<path d="M57.478 79.193C57.9063 81.2903 57.5647 82.9155 56.4531 84.0681C55.8971 82.5681 56.2388 80.943 57.478 79.193Z" fill="#A9B9EB"/>
<path d="M55.1261 81.2252C54.5737 79.7251 54.9153 78.1 56.151 76.3501C56.5789 78.4485 56.2373 80.0736 55.1261 81.2252Z" fill="#A9B9EB"/>
<path d="M66.9161 94.5734C62.4394 91.6766 62.8808 91.6883 60.4655 89.4952C59.8125 88.9033 59.2067 88.3047 58.6481 87.6996C57.5194 86.4451 56.5302 85.0721 55.6976 83.6043C54.6867 81.9039 54.1115 80.5374 53.9717 79.5046L53.9053 79.3872C53.8741 79.3616 53.8659 79.3172 53.8858 79.2822C53.8824 79.2426 53.8956 79.2034 53.9222 79.1739C53.9582 79.1531 53.9985 79.141 54.0399 79.1386C54.0795 79.1352 54.1187 79.1484 54.1482 79.175L54.211 79.2326C54.2311 79.2691 54.2437 79.3094 54.2479 79.3509L54.2659 79.3569L54.27 79.4478C54.4285 80.454 54.9942 81.7821 55.9671 83.4321C56.8008 84.8789 57.7902 86.2301 58.9179 87.4615C59.4782 88.086 60.0704 88.6811 60.6921 89.2445L60.8548 89.3905C59.7915 87.6688 59.8067 85.5665 60.9003 83.0836C61.9606 85.5784 61.9454 87.6807 60.8548 89.3905C63.2403 91.531 62.7282 91.456 67.0935 94.2788L66.9161 94.5734Z" fill="#A9B9EB"/>
<path d="M86.1709 75.8766C86.1709 75.8766 86.5829 77.6057 84.5265 79.9078C82.4304 82.253 82.1509 84.2188 82.1509 84.2188L80.6367 84.9187C80.6367 84.9187 81.2057 81.9694 82.9797 80.1649C85.2029 77.9089 86.1709 75.8766 86.1709 75.8766Z" fill="#A9B9EB"/>
<path d="M89.5613 77.723C89.5613 77.723 89.4381 79.0273 87.4714 80.3432C85.4638 81.6815 84.811 83.0469 84.811 83.0469L83.5645 83.5774C83.5645 83.5774 84.6818 81.2821 86.339 80.2776C88.4099 79.0198 89.5613 77.723 89.5613 77.723Z" fill="#A9B9EB"/>
<path d="M82.72 77.9811C82.72 77.9811 81.3916 78.4428 79.808 81.3738C78.5171 83.7621 78.7259 85.2598 77.9253 86.7207L79.9749 85.463C80.381 84.3813 79.8732 83.4509 80.9389 81.2285C81.9359 79.1475 82.72 77.9811 82.72 77.9811Z" fill="#A9B9EB"/>
<path d="M70.0979 84.6397C70.0979 84.6397 69.2509 85.7674 69.5715 89.0803C69.8315 91.7831 71.0129 92.4641 71.1005 93.0952L71.9932 92.0177C71.5831 90.8702 70.7834 90.77 70.4287 88.3309C70.0982 86.0425 70.0979 84.6397 70.0979 84.6397Z" fill="#A9B9EB"/>
<path d="M79.5795 79.2076C79.5795 79.2076 78.1955 81.2023 77.6255 82.5618C76.8115 84.493 77.3014 85.7868 76.6118 87.8192L75.1294 88.8503C75.1294 88.8503 74.7631 86.4118 75.8627 84.0691C77.7077 80.1375 79.5795 79.2076 79.5795 79.2076Z" fill="#A9B9EB"/>
<path d="M75.4615 79.1661C75.3182 80.5207 74.9777 81.847 74.4504 83.103C72.8257 86.8974 74.0654 90.4682 74.0654 90.4682L73.0203 91.0236C73.0203 91.0236 71.0598 88.2266 72.5139 85.0783C74.0542 81.7527 75.4615 79.1661 75.4615 79.1661Z" fill="#A9B9EB"/>
<path d="M79.8115 85.7186C79.8115 85.7186 80.8344 85.6525 84.5571 87.2408C86.9423 88.2593 86.4846 87.1161 88.62 88.4865C86.798 88.1387 85.8238 89.2647 83.5502 88.4462C81.7323 87.7904 79.8658 87.278 77.9678 86.9138L79.8115 85.7186Z" fill="#A9B9EB"/>
<path d="M86.5893 90.3562C86.5893 90.3562 84.5305 91.8349 81.1737 90.6173C79.106 89.8733 76.9301 89.4742 74.7329 89.4362L76.2567 88.0034C76.2567 88.0034 77.9686 87.3759 81.3373 88.9771C83.6521 90.0766 86.5893 90.3562 86.5893 90.3562Z" fill="#A9B9EB"/>
<path d="M83.6221 93.0326C83.6221 93.0326 81.5632 94.5113 78.2064 93.2938C76.1387 92.5496 73.9628 92.1505 71.7656 92.1125L73.2894 90.6798C73.2894 90.6798 75.0013 90.0523 78.3701 91.6535C80.6849 92.7531 83.6221 93.0326 83.6221 93.0326Z" fill="#A9B9EB"/>
<path d="M90.7908 84.771C90.7908 84.771 89.4163 85.451 87.3239 84.6018C85.2024 83.7397 83.4585 83.7541 83.4585 83.7541L84.2577 83.2842C84.2577 83.2842 85.3398 82.8875 87.4694 83.8988C88.9341 84.5937 90.7908 84.771 90.7908 84.771Z" fill="#A9B9EB"/>
<path d="M82.2293 84.5464C82.2293 84.5464 83.9645 84.8543 86.3815 85.7761C87.9082 86.353 90.2557 86.0018 90.2557 86.0018C90.2557 86.0018 88.0155 87.7873 85.7746 86.7783C83.2053 85.6203 80.4531 85.23 80.4531 85.23L82.2293 84.5464Z" fill="#A9B9EB"/>
<path d="M84.0205 83.4965C84.0205 83.4965 86.0448 81.6965 88.5208 81.9283C89.9893 82.0533 91.4685 81.9321 92.8971 81.5698C92.8971 81.5698 90.9522 83.4687 88.7026 83.0109C86.6249 82.594 84.8337 83.5348 84.8337 83.5348L84.0205 83.4965Z" fill="#A9B9EB"/>
<path d="M71.2791 93.189L70.9678 92.9413C72.4958 91.0211 78.6046 85.1076 84.7649 83.0429L84.8913 83.4204C78.8166 85.4569 72.7885 91.2938 71.2791 93.189Z" fill="#A9B9EB"/>
<path d="M11.5733 76.1871C11.5733 76.1871 11.001 77.9824 12.9929 80.5789C15.0232 83.2243 15.1631 85.3247 15.1631 85.3247L16.7085 86.1846C16.7085 86.1846 16.3404 83.0215 14.6078 80.9732C12.4359 78.4122 11.5733 76.1871 11.5733 76.1871Z" fill="#A9B9EB"/>
<path d="M7.84277 77.8705C7.84277 77.8705 7.86979 79.2592 9.84485 80.8062C11.8614 82.3798 12.4435 83.8752 12.4435 83.8752L13.7194 84.5346C13.7194 84.5346 12.7198 82.0196 11.0473 80.8265C8.95741 79.3328 7.84277 77.8705 7.84277 77.8705Z" fill="#A9B9EB"/>
<path d="M15.0552 78.6851C15.0552 78.6851 16.423 79.2783 17.8653 82.5025C19.041 85.1296 18.7018 86.6966 19.4325 88.3043L17.3652 86.8123C17.0215 85.6366 17.632 84.6932 16.6812 82.2593C15.7918 79.9802 15.0552 78.6851 15.0552 78.6851Z" fill="#A9B9EB"/>
<path d="M27.8725 86.7238C27.8725 86.7238 28.6787 87.983 28.0775 91.4601C27.5886 94.297 26.2857 94.9235 26.1432 95.5838L25.2847 94.374C25.8091 93.1932 26.6624 93.1506 27.2305 90.6C27.7611 88.2069 27.8725 86.7238 27.8725 86.7238Z" fill="#A9B9EB"/>
<path d="M18.2783 80.2302C18.2783 80.2302 19.5837 82.4486 20.0787 83.9311C20.7863 86.0372 20.166 87.3663 20.7342 89.5696L22.2199 90.777C22.2199 90.777 22.8001 88.2279 21.823 85.6641C20.1837 81.3616 18.2783 80.2302 18.2783 80.2302Z" fill="#A9B9EB"/>
<path d="M22.6353 80.5125C22.6795 81.9559 22.9346 83.385 23.3925 84.7546C24.8099 88.8948 23.2166 92.5719 23.2166 92.5719L24.2776 93.2417C24.2776 93.2417 26.5717 90.4399 25.2836 86.9962C23.9184 83.3585 22.6353 80.5125 22.6353 80.5125Z" fill="#A9B9EB"/>
<path d="M17.5176 87.0956C17.5176 87.0956 16.4413 86.9448 12.3799 88.3292C9.77752 89.2173 10.352 88.0448 7.98584 89.3246C9.93975 89.1011 10.8805 90.3687 13.349 89.6833C15.3229 89.1338 17.3368 88.7399 19.3723 88.505L17.5176 87.0956Z" fill="#A9B9EB"/>
<path d="M9.98486 91.462C9.98486 91.462 12.0445 93.1883 15.6897 92.1668C17.9346 91.5439 20.2667 91.2942 22.5925 91.4278L21.095 89.7925C21.095 89.7925 19.3347 88.9935 15.6465 90.4197C13.1123 91.3989 9.98486 91.462 9.98486 91.462Z" fill="#A9B9EB"/>
<path d="M12.9097 94.5265C12.9097 94.5265 14.9693 96.2528 18.6146 95.2313C20.8595 94.6083 23.1915 94.3587 25.5174 94.4923L24.0198 92.857C24.0198 92.857 22.2596 92.058 18.5713 93.4842C16.0371 94.4634 12.9097 94.5265 12.9097 94.5265Z" fill="#A9B9EB"/>
<path d="M5.98535 85.2246C5.98535 85.2246 7.3847 86.0524 9.66406 85.3202C11.9752 84.5766 13.8177 84.73 13.8177 84.73L13.0099 84.1699C13.0099 84.1699 11.8974 83.6649 9.56579 84.5656C7.96228 85.1841 5.98535 85.2246 5.98535 85.2246Z" fill="#A9B9EB"/>
<path d="M15.054 85.6649C15.054 85.6649 13.1951 85.853 10.5668 86.6362C8.90714 87.1253 6.45312 86.5682 6.45312 86.5682C6.45312 86.5682 8.68016 88.6332 11.1292 87.7438C13.9372 86.7231 16.8778 86.5282 16.8778 86.5282L15.054 85.6649Z" fill="#A9B9EB"/>
<path d="M13.2438 84.4131C13.2438 84.4131 11.2461 82.3498 8.61009 82.3989C7.04758 82.4148 5.49343 82.1695 4.01172 81.6733C4.01172 81.6733 5.91756 83.835 8.33213 83.5291C10.5619 83.2527 12.381 84.3892 12.381 84.3892L13.2438 84.4131Z" fill="#A9B9EB"/>
<path d="M25.9471 95.6689L26.2959 95.4316C24.8323 93.2806 18.842 86.5451 12.4926 83.8746L12.3291 84.2636C18.5904 86.8977 24.5014 93.5458 25.9471 95.6689Z" fill="#A9B9EB"/>
<path d="M46.3677 18.0059C46.8327 17.6546 47.3908 17.4788 48.042 17.4788C49.4476 17.4788 50.1918 18.2436 50.1918 19.3185C50.1918 19.9386 49.892 20.569 49.2822 21.1995C48.5071 22.016 47.949 22.4191 47.5976 22.4191C47.2566 22.4191 47.0085 22.1503 47.0085 21.8299C47.0085 21.5405 47.2772 21.2512 47.7423 20.8274C47.7733 20.7964 47.8043 20.7654 47.825 20.7551C48.352 20.2693 48.5174 20.0006 48.5174 19.6698C48.5174 19.2564 48.2384 19.0291 47.8353 19.0291C47.6493 19.0291 47.4322 19.0704 47.1738 19.1531C46.9155 19.2357 46.7294 19.2771 46.6157 19.2771C46.3264 19.2771 45.9956 19.0291 45.9956 18.6156C45.9956 18.3987 46.1196 18.192 46.3677 18.0059ZM47.7836 24.8996C47.1532 24.8996 46.7294 24.4242 46.7294 23.8454C46.7294 23.3493 47.1532 22.8738 47.7836 22.8738C48.3314 22.8738 48.7552 23.3493 48.7552 23.8454C48.7551 24.4138 48.352 24.8996 47.7836 24.8996Z" fill="white"/>
<path d="M117.006 45.4752C117.371 45.1997 117.808 45.0621 118.318 45.0621C119.42 45.0621 120.003 45.6615 120.003 46.5039C120.003 46.99 119.768 47.4842 119.29 47.9783C118.683 48.6182 118.245 48.9341 117.97 48.9341C117.703 48.9341 117.508 48.7235 117.508 48.4724C117.508 48.2456 117.719 48.0188 118.083 47.6866C118.108 47.6623 118.132 47.638 118.148 47.6299C118.561 47.2492 118.691 47.0386 118.691 46.7794C118.691 46.4554 118.472 46.2772 118.156 46.2772C118.011 46.2772 117.84 46.3096 117.638 46.3743C117.435 46.4391 117.289 46.4716 117.2 46.4716C116.974 46.4716 116.714 46.2772 116.714 45.9531C116.714 45.783 116.812 45.621 117.006 45.4752ZM118.116 50.8783C117.622 50.8783 117.29 50.5057 117.29 50.052C117.29 49.6632 117.622 49.2906 118.116 49.2906C118.545 49.2906 118.877 49.6632 118.877 50.052C118.877 50.4976 118.561 50.8783 118.116 50.8783Z" fill="white"/>
<path d="M99.3923 51.5195H82.5077C82.2092 51.5195 81.9673 51.2774 81.9673 50.9789V36.4448C81.9673 36.1463 82.2092 35.9043 82.5077 35.9043C82.8063 35.9043 83.0482 36.1463 83.0482 36.4448V50.4384H99.3923C99.6908 50.4384 99.9327 50.6804 99.9327 50.9789C99.9328 51.2774 99.6908 51.5195 99.3923 51.5195Z" fill="#CDD8FA"/>
<path d="M83.7861 47.9667C83.6508 47.9667 83.5154 47.9163 83.4105 47.8148C83.1958 47.6073 83.19 47.2651 83.3975 47.0505L88.8546 41.4056C89.0343 41.2196 89.3205 41.187 89.5374 41.3278L92.118 43.0016L94.8391 39.8398C95.0338 39.6135 95.3751 39.588 95.6014 39.7827C95.8276 39.9774 95.8532 40.3187 95.6585 40.5449L92.6295 44.0645C92.4531 44.2694 92.1525 44.3125 91.9256 44.1653L89.3224 42.4768L84.1747 47.8018C84.0687 47.9115 83.9274 47.9667 83.7861 47.9667Z" fill="#F5A3B7"/>
<path d="M95.6701 42.1574L94.9001 40.5972L93.2427 40.0683L96.9325 38.2357L95.6701 42.1574Z" fill="#F5A3B7"/>
<path d="M34.8054 25.7006C33.1627 25.7006 31.8262 24.364 31.8262 22.7213C31.8262 21.0786 33.1627 19.7421 34.8054 19.7421C36.4482 19.7421 37.7847 21.0786 37.7847 22.7213C37.7847 24.364 36.4482 25.7006 34.8054 25.7006ZM34.8054 20.5626C33.6151 20.5626 32.6467 21.531 32.6467 22.7213C32.6467 23.9116 33.6151 24.88 34.8054 24.88C35.9957 24.88 36.9641 23.9116 36.9641 22.7213C36.9641 21.531 35.9957 20.5626 34.8054 20.5626Z" fill="white"/>
<path d="M132.217 61.6808C130.796 61.6808 129.64 60.5249 129.64 59.1041C129.64 57.6833 130.796 56.5275 132.217 56.5275C133.638 56.5275 134.793 57.6833 134.793 59.1041C134.793 60.5249 133.638 61.6808 132.217 61.6808ZM132.217 57.2372C131.187 57.2372 130.35 58.0747 130.35 59.1041C130.35 60.1336 131.187 60.9711 132.217 60.9711C133.246 60.9711 134.084 60.1336 134.084 59.1041C134.084 58.0747 133.246 57.2372 132.217 57.2372Z" fill="white"/>
<path d="M11.1356 61.3755C10.0552 61.3755 9.17627 60.4965 9.17627 59.4161C9.17627 58.3356 10.0552 57.4567 11.1356 57.4567C12.216 57.4567 13.095 58.3356 13.095 59.4161C13.095 60.4965 12.2161 61.3755 11.1356 61.3755ZM11.1356 57.9963C10.3528 57.9963 9.71592 58.6332 9.71592 59.416C9.71592 60.1989 10.3528 60.8358 11.1356 60.8358C11.9185 60.8358 12.5554 60.1989 12.5554 59.416C12.5554 58.6332 11.9185 57.9963 11.1356 57.9963Z" fill="white"/>
<path d="M127.424 46.1941C126.674 46.1941 126.065 45.5846 126.065 44.8355C126.065 44.0863 126.674 43.4768 127.424 43.4768C128.173 43.4768 128.782 44.0863 128.782 44.8355C128.782 45.5846 128.173 46.1941 127.424 46.1941ZM127.424 43.851C126.881 43.851 126.439 44.2926 126.439 44.8354C126.439 45.3782 126.881 45.8198 127.424 45.8198C127.966 45.8198 128.408 45.3782 128.408 44.8354C128.408 44.2926 127.966 43.851 127.424 43.851Z" fill="#E3EAFF"/>
<path d="M21.4402 38.684C22.5098 38.241 23.0176 37.0148 22.5746 35.9453C22.1316 34.8758 20.9054 34.3679 19.8359 34.8109C18.7664 35.254 18.2585 36.4801 18.7016 37.5496C19.1446 38.6191 20.3707 39.127 21.4402 38.684Z" fill="#E3EAFF"/>
<path d="M87.797 15.3716C87.797 16.5292 86.8586 17.4677 85.701 17.4677C84.5435 17.4677 83.605 16.5292 83.605 15.3716C83.605 14.214 84.5435 13.2756 85.701 13.2756C86.8586 13.2756 87.797 14.214 87.797 15.3716Z" fill="#E3EAFF"/>
<path d="M104.94 37.2565C104.94 38.0032 104.335 38.6085 103.588 38.6085C102.842 38.6085 102.236 38.0032 102.236 37.2565C102.236 36.5098 102.842 35.9044 103.588 35.9044C104.335 35.9044 104.94 36.5098 104.94 37.2565Z" fill="white"/>
<path d="M136.581 65.1632C136.581 65.9098 135.976 66.5152 135.229 66.5152C134.482 66.5152 133.877 65.9098 133.877 65.1632C133.877 64.4164 134.482 63.8111 135.229 63.8111C135.976 63.8111 136.581 64.4164 136.581 65.1632Z" fill="white"/>
<path d="M127.835 40.6909C127.835 41.8485 126.897 42.7869 125.739 42.7869C124.582 42.7869 123.643 41.8485 123.643 40.6909C123.643 39.5333 124.582 38.5948 125.739 38.5948C126.897 38.5948 127.835 39.5333 127.835 40.6909Z" fill="#E3EAFF"/>
<path d="M41.4843 17.9801C41.4843 18.9195 40.7228 19.6811 39.7834 19.6811C38.844 19.6811 38.0825 18.9195 38.0825 17.9801C38.0825 17.0408 38.8441 16.2792 39.7834 16.2792C40.7228 16.2792 41.4843 17.0408 41.4843 17.9801Z" fill="white"/>
<path d="M56.3647 54.9697C56.3647 55.909 55.6032 56.6706 54.6638 56.6706C53.7244 56.6706 52.9629 55.9091 52.9629 54.9697C52.9629 54.0303 53.7244 53.2687 54.6638 53.2687C55.6031 53.2687 56.3647 54.0303 56.3647 54.9697Z" fill="white"/>
<path d="M73.3714 101.371C104.971 101.371 130.587 99.2671 130.587 96.672C130.587 94.0769 104.971 91.9731 73.3714 91.9731C41.7721 91.9731 16.1558 94.0769 16.1558 96.672C16.1558 99.2671 41.7721 101.371 73.3714 101.371Z" fill="#95A6DB"/>
<path d="M43.6225 97.1013L41.6343 97.0911L46.8637 73.6102L48.7652 74.0103L43.6225 97.1013Z" fill="#617AC9"/>
<path d="M91.8355 97.1013L93.8238 97.0911L88.5944 73.6102L86.6929 74.0103L91.8355 97.1013Z" fill="#617AC9"/>
<path d="M79.7213 93.2953C79.3348 93.2953 79.0215 92.982 79.0215 92.5955V80.0372H80.4211V92.5955C80.4211 92.982 80.1078 93.2953 79.7213 93.2953Z" fill="#0E6A41"/>
<path d="M62.859 93.2953C62.4725 93.2953 62.1592 92.982 62.1592 92.5955V80.0372H63.5588V92.5955C63.5588 92.982 63.2454 93.2953 62.859 93.2953Z" fill="#0E6A41"/>
<path d="M80.511 80.0624H61.7776C61.1543 80.0624 60.6489 79.5571 60.6489 78.9337V78.721C60.6489 78.0976 61.1543 77.5923 61.7776 77.5923H80.511C81.1343 77.5923 81.6397 78.0976 81.6397 78.721V78.9337C81.6397 79.5571 81.1343 80.0624 80.511 80.0624Z" fill="#3F964F"/>
<path d="M77.4734 56.9073C78.7532 57.281 83.6804 62.5655 84.8601 66.4757C84.2212 69.9919 78.6391 71.8176 78.6391 71.8176L78.5459 69.0929C78.5459 69.0929 80.3788 67.8725 81.2173 66.4757C79.882 65.513 77.2505 62.2737 77.2505 62.2737L77.4734 56.9073Z" fill="#060C4D"/>
<path d="M65.1806 56.9073C63.9008 57.281 60.7273 62.3604 59.4265 66.9527C56.0224 69.1682 53.3535 71.5997 53.3535 71.5997L56.5148 71.8082C56.5148 71.8082 60.6626 70.7859 62.8589 68.4024C63.7742 66.5369 65.4034 62.2738 65.4034 62.2738L65.1806 56.9073Z" fill="#060C4D"/>
<path d="M73.4082 55.93L69.1017 56.1212L68.6675 60.3348L69.1368 72.3588L73.6782 72.3021L74.8653 58.8419L73.4082 55.93Z" fill="#95A6DB"/>
<path d="M68.2867 49.5635C68.8864 48.8743 69.3594 49.5429 70.2144 48.6896C71.0694 47.8363 71.7558 47.2222 72.4878 48.1225C73.2198 49.0229 73.5967 49.1493 74.1293 49.0978C74.6619 49.0462 74.6589 51.2372 74.6589 51.2372C74.6589 51.2372 75.9617 50.8936 76.0654 49.4344C76.1876 47.7142 75.3908 47.9724 74.9593 46.5983C74.5277 45.2242 72.8615 44.4488 72.0989 44.7788C71.2951 45.1267 70.8732 45.5093 69.7024 45.2249C68.5316 44.9405 67.5232 45.285 67.5252 46.803C67.5271 48.3208 65.7421 47.8679 66.3135 49.7634C66.5351 50.4986 67.1564 51.1753 67.4449 51.1164C67.8313 51.0374 67.9001 50.0078 68.2867 49.5635Z" fill="#2C2858"/>
<path d="M74.3292 51.0292C74.0421 51.583 74.1239 52.2679 74.512 52.559C74.9 52.8501 75.4473 52.6371 75.7344 52.0835C76.0215 51.5297 75.9397 50.8448 75.5516 50.5538C75.1636 50.2626 74.6163 50.4755 74.3292 51.0292Z" fill="#F37A50"/>
<path d="M74.8475 52.2856C74.8578 52.2866 74.8686 52.2856 74.8793 52.2826C74.9382 52.2662 74.9765 52.1949 74.9652 52.1234C74.9078 51.7646 74.938 51.4997 75.0526 51.3574C75.2071 51.1654 75.4814 51.2228 75.4841 51.2234C75.5427 51.2361 75.6003 51.1883 75.613 51.1164C75.6256 51.0445 75.5888 50.9756 75.5305 50.9623C75.5147 50.9587 75.141 50.8778 74.9019 51.1729C74.7295 51.3858 74.6791 51.7256 74.7522 52.183C74.7616 52.2413 74.8012 52.2818 74.8475 52.2856Z" fill="#DE623C"/>
<path d="M69.8068 56.9903L71.3051 58.1756L72.8259 56.9903L73.0273 54.0944H69.6055L69.8068 56.9903Z" fill="#DE623C"/>
<path d="M65.1333 56.9072L65.2113 72.3587C66.6775 73.5622 69.5513 73.891 69.5513 73.891L69.0288 56.4021L65.1333 56.9072Z" fill="#2C2858"/>
<path d="M77.6059 56.9072L77.5279 72.3587C76.0617 73.5622 73.3198 73.9239 73.3198 73.9239L73.7104 56.4021L77.6059 56.9072Z" fill="#2C2858"/>
<path d="M66.9238 58.879L69.399 69.5583L69.0233 56.2135L66.9238 58.879Z" fill="#494C7F"/>
<path d="M75.9457 58.1394L73.4082 69.6806L73.7105 56.4021L75.9457 58.1394Z" fill="#494C7F"/>
<path d="M71.2545 46.6627C66.8384 46.5586 67.8465 52.5072 68.1688 53.4419C68.3446 53.9515 69.4649 55.9063 71.2666 55.934C73.0684 55.9063 74.1645 53.9515 74.3402 53.4419C74.6626 52.5072 75.8235 46.7322 71.2545 46.6627Z" fill="#F37A50"/>
<path d="M70.4807 50.9025C70.5253 50.8786 70.5612 50.8382 70.5783 50.7864C70.6135 50.6793 70.5553 50.564 70.4483 50.5289C70.4161 50.5182 69.6512 50.275 68.9557 50.7743C68.8641 50.84 68.8432 50.9675 68.9089 51.059C68.9746 51.1505 69.102 51.1716 69.1936 51.1058C69.7225 50.726 70.3148 50.9144 70.3208 50.9164C70.3759 50.9345 70.4333 50.9279 70.4807 50.9025Z" fill="#2C2858"/>
<path d="M72.4365 50.9025C72.3919 50.8786 72.356 50.8382 72.3389 50.7864C72.3037 50.6793 72.3619 50.564 72.4689 50.5289C72.5011 50.5182 73.2659 50.275 73.9615 50.7743C74.053 50.84 74.074 50.9675 74.0082 51.059C73.9426 51.1505 73.8151 51.1716 73.7235 51.1058C73.1945 50.726 72.6023 50.9144 72.5964 50.9164C72.5413 50.9345 72.484 50.9279 72.4365 50.9025Z" fill="#2C2858"/>
<path d="M73.2569 51.5563C73.2569 51.7552 73.0958 51.9165 72.8968 51.9165C72.6979 51.9165 72.5366 51.7552 72.5366 51.5563C72.5366 51.3574 72.6979 51.1962 72.8968 51.1962C73.0957 51.1962 73.2569 51.3574 73.2569 51.5563Z" fill="black"/>
<path d="M70.2462 51.5042C70.2462 51.7031 70.0849 51.8643 69.886 51.8643C69.6871 51.8643 69.5259 51.7031 69.5259 51.5042C69.5259 51.3052 69.6871 51.144 69.886 51.144C70.085 51.144 70.2462 51.3052 70.2462 51.5042Z" fill="black"/>
<path d="M71.4839 51.7808C71.7055 52.2771 71.9894 52.8846 71.9894 52.8846C71.9894 52.8846 71.7552 53.3427 71.1191 53.2608C71.4035 53.1872 71.6946 53.0434 71.635 52.6697C71.5753 52.296 71.4839 51.7808 71.4839 51.7808Z" fill="#DE623C"/>
<path d="M71.698 59.2833L72.4532 69.4259L71.3206 70.7629L70.188 69.4259L70.9603 59.3094L71.698 59.2833Z" fill="#060C4D"/>
<path d="M72.1119 58.1934L71.3586 57.9956L70.5884 58.2272L70.9595 59.3283L71.7002 59.3153L72.1119 58.1934Z" fill="#060C4D"/>
<path d="M71.3206 57.9976C71.3206 57.9976 70.8218 58.7281 69.9362 59.1419L68.4512 56.8881L69.1015 56.1212L71.3206 57.9976Z" fill="white"/>
<path d="M71.3208 57.9976C71.3208 57.9976 72.0429 58.8399 72.7445 59.0926L74.0893 56.6595L73.4559 55.93L71.3208 57.9976Z" fill="white"/>
<path d="M67.7615 50.635C68.2602 50.8012 68.422 48.0683 70.362 49.3618C71.7279 50.2723 74.2722 50.1281 73.7633 48.8933C74.1714 49.1956 74.7648 49.7972 74.7648 49.7972L73.8674 46.8264C73.8674 46.8264 70.1645 45.6626 68.8496 46.8415C67.5348 48.0203 67.7615 50.635 67.7615 50.635Z" fill="#2C2858"/>
<path d="M68.5312 51.137C68.8248 51.7131 68.6537 52.3885 68.149 52.6457C67.6444 52.903 66.9972 52.6447 66.7036 52.0686C66.41 51.4926 66.5811 50.8171 67.0857 50.5598C67.5904 50.3026 68.2375 50.561 68.5312 51.137Z" fill="#F37A50"/>
<path d="M67.7668 52.3452C67.754 52.3452 67.741 52.3432 67.7281 52.3394C67.6579 52.318 67.6183 52.2438 67.6397 52.1736C67.747 51.8209 67.7375 51.5544 67.6123 51.4029C67.4433 51.1986 67.1019 51.2326 67.0984 51.2329C67.0256 51.2407 66.96 51.1882 66.952 51.1154C66.9439 51.0427 66.9961 50.9772 67.0688 50.9689C67.0885 50.9667 67.5538 50.9176 67.8156 51.2319C68.0043 51.4586 68.0306 51.8014 67.8938 52.251C67.8765 52.3082 67.8238 52.3452 67.7668 52.3452Z" fill="#DE623C"/>
<path d="M71.4566 54.4347C70.8269 54.4347 70.2863 54.0921 70.2471 54.0538C70.1823 53.9902 70.1812 53.8861 70.2447 53.8212C70.3039 53.7607 70.3983 53.7558 70.4633 53.8067C70.5108 53.8372 71.6104 54.5121 72.3316 53.7185C72.3926 53.6514 72.4966 53.6464 72.5638 53.7075C72.631 53.7686 72.636 53.8725 72.5749 53.9398C72.2879 54.2555 71.9283 54.4219 71.5061 54.4341C71.4895 54.4345 71.473 54.4347 71.4566 54.4347Z" fill="#DE623C"/>
<path d="M79.7215 74.938L76.6563 72.1132H66.5306L62.8579 74.9197L67.0055 77.924H76.189L79.7215 74.938Z" fill="#060C4D"/>
<path d="M65.5013 91.3004C64.5629 93.333 61.1616 92.9927 61.7613 95.2507C62.3611 97.5088 68.5757 93.9072 68.5757 93.9072C68.4605 93.3559 68.1067 92.0633 67.8945 91.5718L65.5013 91.3004Z" fill="black"/>
<path d="M77.2217 91.1981C78.201 93.3193 81.7506 92.9641 81.1247 95.3206C80.4989 97.6772 74.0132 93.9184 74.0132 93.9184C74.1335 93.3432 74.5027 91.9942 74.7242 91.4813L77.2217 91.1981Z" fill="black"/>
<path d="M68.3601 78.9868C68.3373 75.7403 65.5967 72.1336 62.859 74.5528C59.9881 77.0899 64.626 91.5006 64.626 91.5006C66.3333 92.5203 67.1493 92.4867 68.9143 91.5006C68.9143 91.5006 68.3822 82.1201 68.3601 78.9868Z" fill="#2C2858"/>
<path d="M74.8323 78.9868C74.8552 75.7403 77.5594 73.4961 79.7218 74.938C82.0627 76.499 78.2317 91.8317 78.2317 91.8317C77.5697 92.1501 75.6391 92.3562 74.2939 91.9732C74.2939 91.9732 74.8103 82.1201 74.8323 78.9868Z" fill="#2C2858"/>
<path d="M99.2623 97.1014C98.8758 97.1014 98.5625 96.788 98.5625 96.4016V84.0027H99.9621V96.4016C99.9621 96.788 99.6488 97.1014 99.2623 97.1014Z" fill="#0E6A41"/>
<path d="M104.172 97.1014C103.786 97.1014 103.473 96.788 103.473 96.4016V84.0027H104.872V96.4016C104.872 96.788 104.559 97.1014 104.172 97.1014Z" fill="#0E6A41"/>
<path d="M110.616 97.1014C110.229 97.1014 109.916 96.788 109.916 96.4016V84.0027H111.316V96.4016C111.316 96.788 111.002 97.1014 110.616 97.1014Z" fill="#0E6A41"/>
<path d="M115.526 97.1014C115.14 97.1014 114.827 96.788 114.827 96.4016V84.0027H116.226V96.4016C116.226 96.788 115.913 97.1014 115.526 97.1014Z" fill="#0E6A41"/>
<path d="M107.783 65.6017V80.3564C107.783 80.5243 107.647 80.6604 107.479 80.6604H98.3313C97.4084 80.6604 96.6602 81.4086 96.6602 82.3316C96.6602 83.2546 97.4084 84.0027 98.3313 84.0027H107.783H109.455C110.378 84.0027 111.126 83.2545 111.126 82.3316V80.6604V65.6017C111.126 64.6787 110.378 63.9305 109.455 63.9305C108.532 63.9305 107.783 64.6787 107.783 65.6017Z" fill="#3F964F"/>
<path d="M116.687 63.9305H109.455V80.9313H116.687V63.9305Z" fill="#3F964F"/>
<path d="M115.016 65.6017V80.3564C115.016 80.5243 114.88 80.6604 114.712 80.6604H105.564C104.641 80.6604 103.893 81.4086 103.893 82.3316C103.893 83.2546 104.641 84.0027 105.564 84.0027H115.016H116.688C117.611 84.0027 118.359 83.2545 118.359 82.3316V80.6604V65.6017C118.359 64.6787 117.611 63.9305 116.688 63.9305C115.765 63.9305 115.016 64.6787 115.016 65.6017Z" fill="#0E6A41"/>
<path d="M100.515 68.9157C101.21 69.3025 101.217 71.7101 100.978 71.8516C92.9653 72.4087 90.9443 72.1163 90.9443 72.1163L91.0452 70.7526C91.0452 70.7526 95.6668 69.2959 100.515 68.9157Z" fill="#F37A50"/>
<path d="M108.06 64.5121C106.83 66.4801 101.714 71.805 100.878 71.8804L99.9331 68.9775C99.9331 68.9775 104.731 62.6293 105.582 61.6509C107.054 59.953 110.076 61.3031 108.06 64.5121Z" fill="#F37A50"/>
<path d="M89.5732 70.5592C90.0193 70.5711 90.4927 70.6077 91.1286 70.7174L91.5928 70.9597L91.5435 71.7482C90.8757 72.6645 88.8769 72.813 88.6939 72.813C88.2185 72.813 87.9952 72.8423 87.9639 72.7761C87.9325 72.7098 87.8539 72.2796 88.5456 72.2575C89.4138 72.2298 88.9038 71.4929 87.1034 71.9936C86.6527 72.1191 85.85 71.8344 86.1751 71.5417C86.5333 71.2189 87.5436 70.505 89.5732 70.5592Z" fill="#F37A50"/>
<path d="M105.117 53.9969C104.969 51.982 105.551 50.202 107.158 49.2955C108.786 48.3767 110.826 49.2778 110.826 49.2778C110.826 49.2778 112.552 48.6636 114.117 50.3872C115.682 52.1109 114.498 53.6278 115.138 54.8848C115.518 55.6293 117.445 55.7828 116.947 58.2076C116.804 58.907 115.963 59.3777 115.25 59.4245C113.999 59.5067 112.833 59.0229 112.326 59.5067C110.654 61.1012 106.949 60.5245 106.43 59.066C106.269 58.6138 102.936 59.489 103.269 56.4087C103.437 54.8479 105.249 55.7973 105.117 53.9969Z" fill="#0D0C1A"/>
<path d="M108.171 60.5101L110.817 60.0216L111.809 61.3417L109.7 65.6653L106.599 63.0326L108.171 60.5101Z" fill="#F37A50"/>
<path d="M104.741 70.9346C104.786 70.112 103.456 66.7337 104.156 65.0334C104.666 63.6656 105.517 61.3694 106.56 60.9863C107.052 60.8055 107.558 60.6796 108.171 60.5101C108.171 60.5101 107.825 62.2337 108.545 62.2915C109.932 62.4028 110.817 60.0216 110.817 60.0216C111.565 59.9501 114.995 61.0773 114.993 61.359C114.985 63.5654 113.193 66.7846 112.607 69.1701C112.376 71.7465 113.275 74.8296 113.278 75.1227C113.278 75.1227 107.759 76.6741 104.488 74.8732C104.42 74.6224 104.678 72.0705 104.741 70.9346Z" fill="#E62552"/>
<path d="M112.448 72.4756C112.448 72.4756 113.666 75.5493 113.963 77.4843C114.26 79.4191 112.584 80.6606 112.584 80.6606H98.6401C98.6401 80.6606 97.1473 78.2398 97.5773 76.5681C98.0073 74.8965 98.9962 74.6307 98.9962 74.6307L112.448 72.4756Z" fill="#E62552"/>
<path d="M98.4536 74.545C100.234 74.2939 105.4 76.3006 107.603 80.6605H101.44L98.4536 74.545Z" fill="#DE623C"/>
<path d="M100.406 76.1498C100.176 75.8979 99.9669 75.5876 99.783 75.2636C99.2635 74.3482 98.0111 74.1935 97.304 74.9732C94.7342 77.8064 89.2559 84.2653 88.0346 85.0691C87.6896 85.2961 85.6761 86.4555 83.7621 86.2262C83.7621 86.2262 82.8173 86.5859 83.4468 87.3362C83.7707 87.7223 88.6349 88.1213 88.6349 88.1213L89.0141 86.693C91.8456 84.5974 95.3704 84.7481 98.3592 80.9168C100.005 78.807 100.406 76.1498 100.406 76.1498Z" fill="#DE623C"/>
<path d="M87.6495 88.9453L85.6921 90.2158L85.423 89.895L87.0108 88.4144C86.1089 87.7028 84.0198 88.2966 84.0198 88.2966C83.3356 87.8546 82.0018 86.4212 81.8643 85.6531C82.3024 85.1071 83.7615 86.2302 83.7615 86.2302C83.7079 86.4735 84.1689 87.3161 84.5356 87.46C86.1293 87.8039 87.7177 87.3511 89.0138 86.6929C89.0138 86.6929 90.0969 88.3342 87.6495 88.9453Z" fill="#060C4D"/>
<path d="M100.434 76.5345C100.791 76.6305 101.057 76.9291 101.108 77.2946C101.247 78.2834 101.967 80.2861 100.993 82.3832C98.6021 87.5317 97.1902 90.9241 96.9395 92.2529C97.5641 93.4226 95.0734 96.6181 95.0363 96.8273L93.2437 96.2663C93.2437 96.2663 94.2723 94.7361 94.6426 94.137C95.5246 92.7102 95.6688 90.9595 95.8122 89.6024C96.4241 83.8087 95.3719 80.1506 99.564 76.752C99.8119 76.5511 100.126 76.4517 100.434 76.5345Z" fill="#F37A50"/>
<path d="M97.8324 94.7035L97.6557 97.0303L97.2375 97.0498L97.0229 94.8894C95.9102 95.1751 95.1156 97.1962 95.1156 97.1962C94.3494 97.4723 92.4007 97.6637 91.7066 97.3074C91.5381 96.6279 93.3159 96.1486 93.3159 96.1486C93.4769 96.3388 94.4264 96.4832 94.7632 96.2789C96.0031 95.2201 96.6768 93.6824 96.9394 92.2529C96.9394 92.2529 98.8306 92.3868 97.8324 94.7035Z" fill="#060C4D"/>
<path d="M108.84 58.349L110.988 58.0272L110.817 60.0216C110.817 60.0216 110.406 60.9252 109.929 60.9863L108.171 60.5101L108.84 58.349Z" fill="#F37A50"/>
<path d="M112.976 55.4654C112.421 57.7819 110.496 59.3067 108.677 58.8711C106.857 58.4354 105.832 56.2043 106.387 53.8877C106.942 51.5712 108.866 50.0464 110.686 50.4821C112.505 50.9177 113.53 53.1488 112.976 55.4654Z" fill="#F37A50"/>
<path d="M107.24 54.4963C107.16 54.6572 106.964 54.7225 106.803 54.6425C106.643 54.5624 106.577 54.367 106.657 54.2062C106.737 54.0453 106.933 53.9799 107.094 54.06C107.254 54.1401 107.32 54.3354 107.24 54.4963Z" fill="black"/>
<path d="M109.795 55.1267C109.708 55.3008 109.497 55.3716 109.323 55.2849C109.149 55.1982 109.078 54.9868 109.164 54.8126C109.251 54.6385 109.463 54.5677 109.637 54.6544C109.811 54.7412 109.882 54.9526 109.795 55.1267Z" fill="black"/>
<path d="M110.184 54.835C110.16 54.8231 110.14 54.8032 110.128 54.7769C109.951 54.3961 109.474 54.3219 109.47 54.3211C109.403 54.3114 109.356 54.2493 109.366 54.1825C109.376 54.1157 109.437 54.0692 109.504 54.0787C109.529 54.0822 110.117 54.1707 110.35 54.6739C110.378 54.7352 110.352 54.8081 110.29 54.8365C110.255 54.8528 110.216 54.851 110.184 54.835Z" fill="#0D0C1A"/>
<path d="M106.53 54.0247C106.518 54.0189 106.507 54.011 106.497 54.0011C106.45 53.953 106.45 53.8754 106.498 53.8279C106.872 53.4588 107.332 53.6119 107.352 53.6186C107.416 53.6406 107.45 53.7103 107.428 53.7743C107.406 53.8381 107.336 53.872 107.273 53.8504C107.257 53.8453 106.933 53.7426 106.67 54.0022C106.632 54.0399 106.575 54.0474 106.53 54.0247Z" fill="#0D0C1A"/>
<path d="M107.449 55.2039C107.27 55.3875 107.114 55.5767 106.943 55.6841C106.886 55.7203 106.867 55.7968 106.901 55.8559C107.039 56.1001 107.441 56.3011 107.687 56.4058C107.723 56.4211 107.753 56.374 107.723 56.3483C107.474 56.1301 107.367 55.9694 107.323 55.8812C107.3 55.8373 107.301 55.7858 107.323 55.7418C107.374 55.6411 107.476 55.4356 107.544 55.2654C107.568 55.2067 107.493 55.1584 107.449 55.2039Z" fill="#DE623C"/>
<path d="M112.1 55.4801C111.658 55.8241 111.528 56.3962 111.809 56.758C112.091 57.1198 112.677 57.1342 113.119 56.7903C113.562 56.4463 113.692 55.8742 113.41 55.5124C113.129 55.1507 112.542 55.1362 112.1 55.4801Z" fill="#F37A50"/>
<path d="M112.352 56.653C112.335 56.6448 112.32 56.6327 112.309 56.617C112.139 56.3911 112.123 56.1374 112.266 55.9382C112.412 55.7342 112.684 55.6409 112.912 55.7163C112.977 55.7376 113.012 55.8068 112.99 55.8711C112.969 55.9352 112.9 55.9701 112.836 55.9489C112.711 55.9076 112.548 55.9656 112.465 56.0811C112.385 56.192 112.399 56.33 112.504 56.4698C112.545 56.5239 112.534 56.6007 112.48 56.6413C112.442 56.6702 112.392 56.673 112.352 56.653Z" fill="#DE623C"/>
<path d="M109.46 57.0509C109.511 56.9818 109.456 56.8851 109.37 56.8953C109.153 56.9212 108.794 56.9567 108.451 56.9567C108.108 56.9567 107.749 56.9212 107.532 56.8953C107.446 56.8851 107.391 56.9818 107.442 57.0509C107.6 57.2636 107.925 57.5863 108.451 57.5863C108.977 57.5863 109.303 57.2636 109.46 57.0509Z" fill="white"/>
<path d="M113.021 55.2605C110.849 54.9697 107.81 52.7572 107.561 51.6217C107.981 50.2577 110.219 49.5722 111.483 50.2041C112.747 50.836 113.94 53.5441 113.021 55.2605Z" fill="#0D0C1A"/>
<path d="M123.872 57.3375C122.692 56.7699 122.943 55.6688 122.943 55.6688C122.43 55.736 121.269 60.4391 121.045 63.2452C118.476 62.0111 114.228 60.6212 113.274 60.7914C113.274 60.7914 111.942 60.8967 112.027 62.5218C112.104 63.9723 113.955 64.3615 113.955 64.3615C113.955 64.3615 122.092 66.6423 122.909 65.8921C124.18 64.7248 123.593 58.7771 123.872 57.3375Z" fill="#F37A50"/>
<path d="M125.192 56.7465C124.673 56.9675 123.923 56.9384 123.888 57.487L122.659 57.3486L122.371 56.7393C122.758 54.977 124.807 53.7878 125.018 53.6915C125.564 53.4413 125.806 53.29 125.877 53.3498C125.948 53.4095 126.264 53.863 125.48 54.2524C124.496 54.7411 125.471 55.3203 127.278 53.797C127.731 53.4156 128.803 53.3206 128.584 53.8285C128.341 54.3882 127.555 55.7409 125.192 56.7465Z" fill="#F37A50"/>
<path d="M40.3398 97.2608H40.3958C40.8485 97.2608 41.2156 96.8938 41.2156 96.441V82.4215H39.52V96.441C39.52 96.8937 39.8871 97.2608 40.3398 97.2608Z" fill="#0E6A41"/>
<path d="M34.3911 97.2608H34.4471C34.8999 97.2608 35.2669 96.8938 35.2669 96.441V82.4215H33.5713V96.441C33.5713 96.8937 33.9384 97.2608 34.3911 97.2608Z" fill="#0E6A41"/>
<path d="M25.7651 96.4681C25.7651 96.9059 26.1447 97.2608 26.6129 97.2608C27.0812 97.2608 27.4607 96.9059 27.4607 96.4681V82.4215H25.7651V96.4681Z" fill="#0E6A41"/>
<path d="M20.6358 97.2608H20.6917C21.1444 97.2608 21.5115 96.8938 21.5115 96.441V82.4215H19.8159V96.441C19.8159 96.8937 20.183 97.2608 20.6358 97.2608Z" fill="#0E6A41"/>
<path d="M30.0444 60.1287V78.0039C30.0444 78.2073 30.2093 78.3722 30.4127 78.3722H41.4957C42.6139 78.3722 43.5203 79.2787 43.5203 80.3968C43.5203 81.5151 42.6139 82.4215 41.4957 82.4215H30.0444H28.0198C26.9016 82.4215 25.9951 81.5151 25.9951 80.3968V78.3722V60.1287C25.9951 59.0105 26.9016 58.1041 28.0198 58.1041H28.0198C29.138 58.1041 30.0444 59.0105 30.0444 60.1287Z" fill="#3F964F"/>
<path d="M19.2569 78.7006H28.0195L28.0195 58.1041H19.2569V78.7006Z" fill="#3F964F"/>
<path d="M21.2817 60.1287V78.0039C21.2817 78.2073 21.4466 78.3722 21.65 78.3722H32.733C33.8512 78.3722 34.7576 79.2787 34.7576 80.3968C34.7576 81.5151 33.8512 82.4215 32.733 82.4215H21.2817H19.2571C18.1389 82.4215 17.2324 81.5151 17.2324 80.3968V78.3722V60.1287C17.2324 59.0105 18.1389 58.1041 19.2571 58.1041H19.2571C20.3753 58.1041 21.2817 59.0105 21.2817 60.1287Z" fill="#0E6A41"/>
<path d="M45.1784 60.2406C44.6271 59.6664 43.9901 59.4225 43.9816 58.3797C43.9788 58.0007 44.0106 57.6051 44.0316 57.1452C44.064 56.4355 44.2044 55.8392 44.3528 55.8097C44.6887 55.7425 44.7987 55.9274 44.8526 56.3468C44.8943 56.671 44.7086 57.1024 44.9385 57.2871C45.1428 57.4514 45.4338 57.5572 46.1404 56.7348C47.0427 55.6848 47.1795 55.1589 47.5554 55.4152C47.8022 55.5832 47.3948 56.1421 46.5644 57.1515C47.1874 56.8023 47.9432 55.1956 48.4025 55.6157C48.7361 55.9209 47.2694 57.4165 46.8279 57.715C47.7555 57.3513 48.4092 55.9938 48.6675 56.1323C49.1936 56.4495 48.0734 57.7547 47.263 58.1309C48.1361 57.9793 48.4277 57.1648 48.6546 57.3329C49.0778 57.6466 47.7977 58.9913 46.8348 59.4494C46.55 59.5851 45.1784 60.2406 45.1784 60.2406Z" fill="#F37A50"/>
<path d="M45.444 57.7144C45.5249 57.9736 45.6122 58.3179 45.3958 58.6691C45.1886 59.0054 44.7168 59.0599 44.7168 59.0599C45.0233 59.1367 45.3548 59.0676 45.5499 58.7789C45.7844 58.4317 45.6834 57.9407 45.444 57.7144Z" fill="#DE623C"/>
<path d="M39.0419 63.3964C40.9278 61.9625 43.6594 58.7756 43.6594 58.7756C44.7415 59.2494 45.313 60.4465 45.313 60.4465C44.008 65.15 39.9589 69.0486 38.1169 69.3302C36.4352 69.5872 32.1773 61.4743 34.2432 57.5397L35.1067 57.349C37.4561 58.5034 39.0419 63.3964 39.0419 63.3964Z" fill="#C4204A"/>
<path d="M48.1707 94.8365L50.1821 95.3462L51.0037 93.5545C50.9182 93.4913 50.7865 92.3004 50.7057 91.3939L47.459 91.8416C47.6182 92.7564 47.8864 93.9526 48.1707 94.8365Z" fill="#F37A50"/>
<path d="M51.7204 95.8928C51.7204 95.8928 52.4159 94.7234 53.2974 94.6497C53.2974 94.6497 54.9605 94.745 55.5439 95.4445C55.7272 95.6642 55.6567 96.133 55.5843 96.433C55.539 96.6205 55.3801 96.8239 54.8885 96.9785C54.1625 97.2069 53.1832 97.3469 51.3792 96.8792C49.215 96.3183 48.8695 96.5492 48.0697 96.2915C47.2407 96.0244 47.5071 95.0111 47.7333 94.0243C47.7333 94.0243 48.3365 95.232 51.7204 95.8928Z" fill="#060C4D"/>
<path d="M51.0581 93.3792C51.0581 93.3792 52.024 93.9643 53.287 94.2543C53.9936 94.4164 55.8772 94.7818 55.5739 96.0376C55.5286 96.2249 55.3698 96.4283 54.8782 96.583C54.1522 96.8114 53.1729 96.9513 51.3689 96.4837C49.2046 95.9227 48.8592 96.1537 48.0593 95.896C47.2304 95.6289 47.6129 94.4788 47.8391 93.4919C47.8595 93.7424 47.9755 94.3997 49.4791 94.9885C49.9281 95.1643 49.5613 93.1847 51.0581 93.3792Z" fill="#2C2858"/>
<path d="M50.777 94.8922C50.8491 94.8874 50.913 94.8368 50.9314 94.763C51.0842 94.1488 51.7189 94.1054 51.7458 94.1036C51.8397 94.0982 51.912 94.0178 51.9069 93.9239C51.9019 93.83 51.8223 93.7578 51.7283 93.7624C51.4129 93.7773 50.7716 93.9897 50.5998 94.6806C50.5771 94.7722 50.6328 94.8648 50.7243 94.8875C50.742 94.8919 50.7598 94.8934 50.777 94.8922Z" fill="#494C7F"/>
<path d="M51.5705 95.2101C51.6426 95.2054 51.7065 95.1547 51.7249 95.0809C51.8776 94.4667 52.5124 94.4233 52.5393 94.4215C52.6331 94.4161 52.7054 94.3357 52.7004 94.2418C52.6954 94.1478 52.6158 94.0757 52.5218 94.0803C52.2064 94.0952 51.5651 94.3076 51.3933 94.9985C51.3705 95.0901 51.4263 95.1827 51.5178 95.2055C51.5355 95.2098 51.5532 95.2112 51.5705 95.2101Z" fill="#494C7F"/>
<path d="M40.3132 95.5942L42.2838 96.244L43.2294 94.5146C43.1486 94.4456 42.8655 93.1876 42.8487 92.2776L39.814 92.5565C39.9084 93.4802 40.0918 94.6923 40.3132 95.5942Z" fill="#F37A50"/>
<path d="M37.042 73.1612C41.5349 73.9819 47.9161 76.8922 48.5455 77.5543C49.8456 78.9218 50.4823 83.6253 51.0955 92.0027L47.1634 92.2652C45.712 85.7208 44.3465 82.8675 44.1236 80.2096C44.1236 80.2096 40.6778 80.448 35.493 78.4472C32.9371 77.4609 30.2735 76.3101 31.0402 74.001C31.651 72.1613 32.758 72.3788 37.042 73.1612Z" fill="#060C4D"/>
<path d="M32.0172 73.5526C35.7501 73.9383 40.729 78.2096 41.3585 78.8717C42.6586 80.2392 42.8224 84.9094 43.4355 93.2867L39.5223 93.6475C38.8886 89.3075 37.0368 84.3348 37.0422 81.1482C37.0422 81.1482 33.5394 80.3888 28.1172 79.1694C25.1512 78.5023 24.2612 78.0428 23.6939 76.106C23.5009 75.447 23.2393 73.9203 23.5352 73.5796C24.845 72.0724 28.4838 73.1876 32.0172 73.5526Z" fill="#2C2858"/>
<path d="M43.7795 96.8976C43.7795 96.8976 44.5556 95.7799 45.44 95.7684C45.44 95.7684 47.0923 95.9806 47.6251 96.7193C47.7924 96.9514 47.6892 97.4139 47.5958 97.7083C47.5374 97.8921 47.3647 98.0838 46.8634 98.2034C46.1231 98.3802 45.1364 98.4509 43.3698 97.8575C41.2504 97.1456 40.8896 97.3517 40.1098 97.0384C39.3017 96.7136 39.6387 95.7216 39.9337 94.7531C39.9337 94.7531 40.4505 96.0003 43.7795 96.8976Z" fill="#060C4D"/>
<path d="M43.296 94.3436C43.296 94.3436 44.2184 94.9952 45.4579 95.3732C46.1513 95.5848 48.0045 96.0818 47.6136 97.3132C47.5553 97.4969 47.3825 97.6886 46.8813 97.8082C46.1409 97.985 45.1542 98.0557 43.3876 97.4624C41.2682 96.7504 40.9074 96.9565 40.1277 96.6432C39.3195 96.3184 39.7821 95.1981 40.0771 94.2296C40.0799 94.4809 40.1493 95.1447 41.6078 95.8378C42.0432 96.0447 41.8166 94.0443 43.296 94.3436Z" fill="#2C2858"/>
<path d="M42.5788 95.8986C42.6508 95.8938 42.7148 95.8432 42.7332 95.7694C42.8859 95.1552 43.5207 95.1118 43.5476 95.11C43.6414 95.1045 43.7137 95.0243 43.7087 94.9303C43.7037 94.8363 43.6241 94.7642 43.5301 94.7688C43.2147 94.7836 42.5734 94.9961 42.4016 95.6869C42.3788 95.7785 42.4346 95.8713 42.5261 95.894C42.5438 95.8983 42.5615 95.8998 42.5788 95.8986Z" fill="#494C7F"/>
<path d="M43.3718 96.2165C43.4438 96.2117 43.5077 96.1611 43.5261 96.0873C43.6789 95.4731 44.3137 95.4297 44.3405 95.4279C44.4344 95.4225 44.5067 95.3422 44.5017 95.2481C44.4966 95.1542 44.417 95.0821 44.3231 95.0867C44.0076 95.1016 43.3664 95.314 43.1946 96.0048C43.1717 96.0965 43.2276 96.1891 43.3191 96.2118C43.3368 96.2161 43.3545 96.2176 43.3718 96.2165Z" fill="#494C7F"/>
<path d="M29.5522 53.5864H29.554L31.0433 53.5918L31.3806 57.1096L29.6421 58.0276L27.7881 57.1199L28.0877 53.5918L29.5522 53.5864Z" fill="#DE623C"/>
<path d="M29.3572 53.1747C28.0732 53.627 27.006 52.097 27.006 52.097C26.1681 52.1446 26.124 51.3094 26.124 51.3094C25.7143 51.2778 25.1113 50.9807 25.1118 50.2124C25.1122 49.5618 25.7262 49.4548 25.6419 48.7119C25.5741 48.1159 24.8367 46.7829 26.6698 46.2563C26.6698 46.2563 26.4731 45.1642 27.5311 44.6557C28.8282 44.0322 29.3507 44.7787 29.9835 44.792C30.6902 44.8067 31.9925 43.8681 32.5275 45.3766C32.5275 45.3766 33.4889 45.1847 34.0843 45.7823C34.6392 46.3389 34.5846 47.2215 34.3776 47.5878C34.3776 47.5878 35.2028 47.6773 35.5417 48.3643C35.769 48.825 35.7201 49.4968 35.3034 49.911C35.0383 50.1745 34.7492 50.2581 34.7492 50.2581C34.4474 50.3794 34.6156 51.2224 34.376 51.4463C33.9913 51.8057 33.5513 52.0969 33.0947 52.3518L29.3572 53.1747Z" fill="#2C2858"/>
<path d="M26.7859 51.2614C27.0314 53.7164 29.0972 55.7118 31.0253 55.519C32.9534 55.3261 34.0137 53.018 33.7682 50.5631C33.5227 48.1082 31.7606 46.2744 29.8326 46.4672C27.9044 46.66 26.5404 48.8065 26.7859 51.2614Z" fill="#F37A50"/>
<path d="M32.7689 51.4546C32.8286 51.6308 33.02 51.7253 33.1962 51.6656C33.3725 51.6058 33.467 51.4146 33.4073 51.2382C33.3476 51.062 33.1562 50.9675 32.98 51.0273C32.8036 51.087 32.7091 51.2783 32.7689 51.4546Z" fill="black"/>
<path d="M30.1683 51.506C30.233 51.6969 30.4401 51.7991 30.6309 51.7344C30.8217 51.6698 30.924 51.4627 30.8593 51.2719C30.7946 51.0811 30.5876 50.9788 30.3968 51.0434C30.2059 51.1081 30.1037 51.3152 30.1683 51.506Z" fill="black"/>
<path d="M31.7086 51.5217C32.0468 51.9932 32.4739 52.5675 32.4739 52.5675C32.4739 52.5675 32.3272 53.0968 31.6445 53.1476C31.9261 53.0096 32.1996 52.7968 32.0572 52.4188C31.9148 52.041 31.7086 51.5217 31.7086 51.5217Z" fill="#DE623C"/>
<path d="M29.7149 51.0807C29.7025 51.0771 29.6903 51.072 29.6786 51.0654C29.5978 51.0197 29.5694 50.917 29.6151 50.8362C29.74 50.6155 30.1067 50.2352 30.6001 50.3751C30.6897 50.4019 30.7413 50.4933 30.716 50.5827C30.6907 50.6721 30.5977 50.724 30.5083 50.6986C30.143 50.5951 29.9101 50.9978 29.9077 51.0019C29.8686 51.071 29.788 51.1018 29.7149 51.0807Z" fill="#2C2858"/>
<path d="M32.7447 50.7805C32.7216 50.7738 32.6999 50.7611 32.682 50.7424C32.6288 50.6862 32.6311 50.5976 32.6872 50.5442C32.696 50.5359 32.906 50.3399 33.1876 50.3675C33.3799 50.3865 33.5515 50.5008 33.6973 50.7073C33.742 50.7705 33.7269 50.8579 33.6637 50.9026C33.6005 50.9472 33.5131 50.9322 33.4684 50.869C33.3716 50.7319 33.2679 50.657 33.1601 50.6464C33.0071 50.6314 32.8814 50.7463 32.8802 50.7474C32.8428 50.783 32.7909 50.7939 32.7447 50.7805Z" fill="#2C2858"/>
<path d="M34.2171 48.069L29.9066 45.6257L25.8237 48.9676L27.1124 52.1566C26.896 50.6008 27.9411 50.8903 28.3281 50.3374C28.7204 49.7769 28.7798 49.0221 30.0713 49.3965C30.0713 49.3965 30.8685 48.5469 31.5476 49.3519C32.0727 49.9743 32.5486 49.7294 33.0601 49.6567C33.6633 49.571 33.6475 50.1786 34.0062 50.0809L34.2171 48.069Z" fill="#2C2858"/>
<path d="M27.3174 51.0325C27.7246 51.4458 27.7806 52.0509 27.4424 52.3842C27.1042 52.7174 26.4999 52.6525 26.0927 52.2393C25.6855 51.8261 25.6295 51.2209 25.9677 50.8876C26.306 50.5544 26.9103 50.6192 27.3174 51.0325Z" fill="#F37A50"/>
<path d="M26.8998 52.2026C26.9178 52.1963 26.9347 52.186 26.949 52.1714C27.154 51.9626 27.2049 51.7042 27.0851 51.4802C26.9624 51.2509 26.6959 51.1181 26.4514 51.1645C26.3825 51.1776 26.3373 51.244 26.3504 51.3128C26.3634 51.3816 26.4298 51.4269 26.4986 51.4138C26.6326 51.3883 26.792 51.4701 26.8614 51.5999C26.928 51.7246 26.8949 51.8644 26.768 51.9937C26.7189 52.0437 26.7196 52.124 26.7696 52.1731C26.8051 52.2079 26.8557 52.2177 26.8998 52.2026Z" fill="#DE623C"/>
<path d="M32.5023 53.9234C32.5646 53.8472 32.5067 53.7339 32.4085 53.7409C32.159 53.7585 31.7469 53.7791 31.3554 53.7602C30.9639 53.7414 30.5556 53.6813 30.309 53.6398C30.2119 53.6234 30.1434 53.7307 30.1981 53.8124C30.3664 54.0639 30.7207 54.4503 31.3208 54.4792C31.9208 54.5081 32.3106 54.1576 32.5023 53.9234Z" fill="white"/>
<path d="M23.5356 73.6475C23.5356 73.6475 26.6525 73.969 29.5732 73.9884C32.4939 73.967 35.6107 73.4003 35.6107 73.4003C35.6107 73.4003 35.2182 68.0365 35.2582 65.9766C35.315 63.6114 35.1066 60.475 35.1066 57.3492C35.1066 57.3492 33.0349 57.0157 31.8662 56.8716C31.6762 56.848 31.5103 56.8299 31.3806 56.8185C31.3806 56.8185 30.7147 58.2155 27.8133 56.8185C27.6608 56.8033 27.4722 56.8042 27.2612 56.8164C26.0424 56.8893 24.0794 57.3492 24.0794 57.3492C24.0794 60.4666 23.9535 63.5217 23.9956 65.8874C23.8658 67.9972 23.5356 73.6475 23.5356 73.6475Z" fill="#E62552"/>
<path d="M31.6271 65.8843C31.3918 65.165 30.9468 64.6933 31.3697 63.7965C31.5236 63.4706 31.7141 63.145 31.9219 62.7596C32.2424 62.1651 32.6088 61.7123 32.748 61.7481C33.0635 61.8293 33.0814 62.0331 32.9545 62.4144C32.8565 62.7094 32.5194 63.0021 32.6402 63.2554C32.7474 63.4804 32.9529 63.6911 33.8975 63.2781C35.1037 62.7509 35.4378 62.357 35.6541 62.7315C35.7961 62.9772 35.2165 63.288 34.0888 63.81C34.7665 63.768 36.0768 62.7036 36.2969 63.2529C36.4568 63.6519 34.5833 64.328 34.0821 64.4014C35.0267 64.4726 36.1467 63.5796 36.3108 63.8047C36.6306 64.2935 35.1326 64.9492 34.2832 64.9372C35.0936 65.1675 35.6794 64.5902 35.8044 64.8279C36.0375 65.2712 34.3862 65.8948 33.3723 65.8899C33.0723 65.8888 31.6271 65.8843 31.6271 65.8843Z" fill="#F37A50"/>
<path d="M24.6766 65.1779C27.04 65.0128 31.0718 63.8454 31.0718 63.8454C31.7169 64.8349 31.5385 66.1494 31.5385 66.1494C27.8682 69.3672 22.3444 70.4075 20.6496 69.6329C19.1023 68.9259 20.1946 59.5068 24.0795 57.3491L24.2142 57.3617C25.5461 59.6154 24.6766 65.1779 24.6766 65.1779Z" fill="#C4204A"/>
<path d="M27.2612 56.8164V56.8168C27.463 57.1537 27.7486 57.4086 28.1512 57.6111C28.7889 57.9329 29.6555 58.0693 30.1891 58.0276C30.6115 57.9944 31.0801 57.8221 31.3804 57.5841C31.6993 57.331 31.8379 57.0084 31.8662 56.8715C31.6762 56.8479 31.4811 56.8185 31.3514 56.8072C31.3514 56.8072 30.7147 58.2155 27.8134 56.8185C27.6609 56.8033 27.4723 56.8041 27.2612 56.8164Z" fill="#C4204A"/>
<path d="M35.332 71.8382H48.8353L51.5007 63.3634C51.6238 62.972 51.3315 62.5736 50.9212 62.5736H38.6916C38.4263 62.5736 38.1917 62.7458 38.1121 62.9989L35.332 71.8382Z" fill="#7F95DB"/>
<path d="M36.356 71.8382H49.8592L52.5246 63.3634C52.6477 62.972 52.3554 62.5736 51.9451 62.5736H39.7156C39.4503 62.5736 39.2156 62.7458 39.136 62.9989L36.356 71.8382Z" fill="#95A6DB"/>
<path d="M44.306 67.3729C44.1573 67.8964 44.4221 68.4303 44.8975 68.5653C45.3729 68.7004 45.8788 68.3855 46.0276 67.862C46.1763 67.3385 45.9115 66.8046 45.4361 66.6696C44.9607 66.5346 44.4548 66.8494 44.306 67.3729Z" fill="#B4C2F0"/>
<path d="M27.6605 70.9534H36.3562V71.8171H26.7969C26.7968 71.34 27.1835 70.9534 27.6605 70.9534Z" fill="#7F95DB"/>
<path d="M99.1354 71.8382H85.9962L83.4027 63.5919C83.2828 63.211 83.5673 62.8234 83.9666 62.8234H95.8665C96.1247 62.8234 96.3529 62.991 96.4304 63.2372L99.1354 71.8382Z" fill="#7F95DB"/>
<path d="M98.1389 71.8382H84.9996L82.4061 63.5919C82.2863 63.211 82.5707 62.8234 82.97 62.8234H94.8699C95.128 62.8234 95.3563 62.991 95.4338 63.2372L98.1389 71.8382Z" fill="#95A6DB"/>
<path d="M90.4033 67.4933C90.548 68.0027 90.2904 68.5221 89.8278 68.6536C89.3653 68.785 88.873 68.4786 88.7283 67.9692C88.5835 67.4598 88.8412 66.9404 89.3037 66.8089C89.7663 66.6775 90.2586 66.9839 90.4033 67.4933Z" fill="#B4C2F0"/>
<path d="M106.6 70.9772H98.1387V71.8176H107.44C107.44 71.3535 107.064 70.9772 106.6 70.9772Z" fill="#7F95DB"/>
<path d="M111.811 74.1042H22.5593C21.6126 74.1042 20.8452 73.5878 20.8452 72.9508C20.8452 72.3138 21.6126 71.7974 22.5593 71.7974H111.811C112.758 71.7974 113.525 72.3138 113.525 72.9508C113.525 73.5878 112.758 74.1042 111.811 74.1042Z" fill="#617AC9"/>
<path d="M78.4083 71.3204H63.4207L62.861 62.6911C62.8238 62.117 63.2793 61.631 63.8546 61.631H77.9749C78.55 61.631 79.0056 62.1171 78.9684 62.6912L78.4083 71.3204Z" fill="#B4C2F0"/>
<path d="M78.4083 71.7974H63.4207L62.861 63.168C62.8238 62.5941 63.2793 62.108 63.8546 62.108H77.9749C78.55 62.108 79.0056 62.5941 78.9684 63.1681L78.4083 71.7974Z" fill="#95A6DB"/>
<path d="M71.5654 67.3689C71.5654 67.8624 71.1655 68.2622 70.6721 68.2622C70.1788 68.2622 69.7788 67.8624 69.7788 67.3689C69.7788 66.8756 70.1788 66.4757 70.6721 66.4757C71.1655 66.4757 71.5654 66.8756 71.5654 67.3689Z" fill="#B4C2F0"/>
<path d="M77.9316 71.2414C77.9579 71.2052 77.9904 71.1762 78.0253 71.1506C78.0191 71.1463 78.0128 71.1425 78.0066 71.138C77.642 70.8743 77.5 70.4485 77.6893 70.1872C77.7204 70.1443 77.7591 70.1092 77.8026 70.0805C77.6395 69.8451 77.605 69.5748 77.7402 69.3882C77.7939 69.3141 77.8689 69.262 77.9564 69.2301C77.7782 69.0056 77.743 68.7129 77.8943 68.504C78.0836 68.2426 78.4893 68.2131 78.8005 68.4382C79.1116 68.6633 79.2104 69.0578 79.0211 69.3192C78.9732 69.3853 78.9113 69.4365 78.8406 69.4726C79.1309 69.7364 79.2314 70.1068 79.0603 70.3432C79.0291 70.3861 78.9906 70.4212 78.947 70.4499C79.1101 70.6853 79.1446 70.9555 79.0093 71.1422C78.9595 71.211 78.8914 71.261 78.8118 71.2934C78.979 71.4855 79.0164 71.7462 78.8834 71.9299C78.7234 72.1506 78.3808 72.1755 78.118 71.9854C77.8553 71.7953 77.7718 71.4621 77.9316 71.2414Z" fill="#F37A50"/>
<path d="M55.4835 72.3028C55.4487 72.2748 55.4214 72.2408 55.3976 72.2047C55.393 72.2106 55.3889 72.2168 55.3841 72.2228C55.1022 72.5735 54.6698 72.6937 54.4184 72.4915C54.3771 72.4582 54.344 72.4178 54.3176 72.373C54.0742 72.5238 53.8026 72.5446 53.6231 72.4001C53.5518 72.3427 53.5035 72.2652 53.4761 72.1762C53.2428 72.3427 52.9487 72.3631 52.7477 72.2013C52.4963 71.999 52.4875 71.5923 52.7281 71.2929C52.9687 70.9936 53.3676 70.915 53.6191 71.1174C53.6828 71.1685 53.7307 71.2329 53.7631 71.3053C54.0414 71.0288 54.4164 70.9472 54.6438 71.1301C54.685 71.1634 54.7182 71.2037 54.7447 71.2487C54.988 71.0978 55.2596 71.077 55.4392 71.2214C55.5054 71.2748 55.5519 71.3454 55.5802 71.4264C55.7806 71.2692 56.0428 71.2451 56.2195 71.3873C56.4319 71.5582 56.4393 71.9016 56.236 72.1544C56.0328 72.4073 55.6959 72.4737 55.4835 72.3028Z" fill="#F37A50"/>
<path d="M24.7275 97.1013L22.7393 97.0911L27.9687 73.6102L29.8702 74.0103L24.7275 97.1013Z" fill="#617AC9"/>
<path d="M107.237 97.1013L109.226 97.0911L103.996 73.6102L102.095 74.0103L107.237 97.1013Z" fill="#617AC9"/>
<path d="M100.436 20.3891L101.611 28.0656C101.656 28.3583 101.455 28.6312 101.163 28.6759L87.8214 30.7171C87.5293 30.7618 87.2562 30.5613 87.2115 30.2687L86.037 22.5921C85.9923 22.2995 86.1927 22.0265 86.4849 21.9818L99.8264 19.9406C100.119 19.8959 100.392 20.0965 100.436 20.3891Z" fill="#F3BC3D"/>
<path d="M100.436 20.3891L100.501 20.8135L95.0905 26.1093C94.5678 26.6411 93.7602 26.7718 93.0966 26.4318L86.0741 22.8343L86.037 22.592C85.9923 22.2997 86.193 22.0264 86.4854 21.9817L99.8259 19.9407C100.118 19.896 100.392 20.0967 100.436 20.3891Z" fill="#F3CD75"/>
<path d="M33.4757 41.1308H47.2601C48.3474 41.1308 49.2289 40.2494 49.2289 39.162V33.2798C49.2289 32.1925 48.3474 31.311 47.2601 31.311H33.4757C32.3883 31.311 31.5068 32.1925 31.5068 33.2798V39.162C31.5068 40.2494 32.3883 41.1308 33.4757 41.1308Z" fill="white"/>
<path d="M34.0166 40.6909V44.3465C34.0166 44.64 34.4115 44.7346 34.5444 44.4729L36.4657 40.6909H34.0166Z" fill="white"/>
<path d="M33.8177 34.38H46.752C47.2494 34.38 47.6527 33.9768 47.6527 33.4794C47.6527 32.9819 47.2495 32.5787 46.752 32.5787H33.8177C33.3203 32.5787 32.917 32.9819 32.917 33.4794C32.917 33.9768 33.3203 34.38 33.8177 34.38Z" fill="#E3EAFF"/>
<path d="M33.8177 37.237H46.752C47.2494 37.237 47.6527 36.8338 47.6527 36.3364C47.6527 35.839 47.2495 35.4357 46.752 35.4357H33.8177C33.3203 35.4357 32.917 35.839 32.917 36.3364C32.917 36.8338 33.3203 37.237 33.8177 37.237Z" fill="#E3EAFF"/>
<path d="M33.6854 40.0941H41.9859C42.4102 40.0941 42.7542 39.7501 42.7542 39.3257V39.0612C42.7542 38.6368 42.4102 38.2928 41.9859 38.2928H33.6854C33.261 38.2928 32.917 38.6368 32.917 39.0612V39.3257C32.917 39.7501 33.261 40.0941 33.6854 40.0941Z" fill="#E3EAFF"/>
<path d="M65.1379 46.4414H50.2235C49.047 46.4414 48.0933 45.4877 48.0933 44.3112V36.0964C48.0933 34.9199 49.047 33.9662 50.2235 33.9662H65.1379C66.3143 33.9662 67.2681 34.9199 67.2681 36.0964V44.3112C67.268 45.4877 66.3143 46.4414 65.1379 46.4414Z" fill="#CDD8FA"/>
<path d="M64.5527 45.9654V49.9207C64.5527 50.2383 64.1254 50.3406 63.9817 50.0574L61.9028 45.9653H64.5527V45.9654Z" fill="#CDD8FA"/>
<path d="M115.214 36.5724L98.8032 30.1603C97.7607 29.7531 97.2459 28.5778 97.6532 27.5354L105.16 8.32408C105.567 7.28168 106.742 6.76681 107.785 7.17411L124.195 13.5863C125.238 13.9935 125.752 15.1688 125.345 16.2111L117.839 35.4225C117.431 36.4649 116.256 36.9797 115.214 36.5724Z" fill="#CDD8FA"/>
<path d="M110.805 14.6974L109.189 14.0661L103.586 28.407L105.202 29.0384L110.805 14.6974Z" fill="white"/>
<path d="M113.218 15.6408L111.602 15.0095L105.999 29.3503L107.615 29.9816L113.218 15.6408Z" fill="white"/>
<path d="M115.632 16.5922L114.016 15.9607L108.412 30.3016L110.027 30.9331L115.632 16.5922Z" fill="white"/>
<path d="M118.045 17.5275L116.429 16.8962L110.826 31.2371L112.442 31.8684L118.045 17.5275Z" fill="white"/>
<path d="M120.459 18.4695L118.843 17.8381L113.24 32.179L114.856 32.8104L120.459 18.4695Z" fill="white"/>
<path d="M111.304 13.4192L109.688 12.7879L109.392 13.5454L111.008 14.1767L111.304 13.4192Z" fill="white"/>
<path d="M108.417 13.7647L106.801 13.1334L106.505 13.8909L108.121 14.5222L108.417 13.7647Z" fill="white"/>
<path d="M107.484 16.1549L105.868 15.5236L105.572 16.281L107.188 16.9124L107.484 16.1549Z" fill="white"/>
<path d="M106.55 18.5451L104.934 17.9138L104.638 18.6712L106.254 19.3026L106.55 18.5451Z" fill="white"/>
<path d="M105.615 20.9355L104 20.3042L103.704 21.0617L105.319 21.693L105.615 20.9355Z" fill="white"/>
<path d="M105.615 20.9355L104 20.3042L103.704 21.0617L105.319 21.693L105.615 20.9355Z" fill="white"/>
<path d="M104.681 23.3267L103.065 22.6953L102.769 23.4528L104.385 24.0841L104.681 23.3267Z" fill="white"/>
<path d="M103.747 25.7168L102.131 25.0854L101.835 25.8429L103.451 26.4742L103.747 25.7168Z" fill="white"/>
<path d="M113.718 14.3611L112.102 13.7298L111.806 14.4873L113.422 15.1186L113.718 14.3611Z" fill="white"/>
<path d="M116.131 15.3131L114.516 14.6816L114.22 15.4391L115.835 16.0706L116.131 15.3131Z" fill="white"/>
<path d="M118.546 16.2552L116.93 15.6237L116.634 16.3812L118.25 17.0127L118.546 16.2552Z" fill="white"/>
<path d="M120.959 17.19L119.343 16.5587L119.047 17.3161L120.663 17.9474L120.959 17.19Z" fill="white"/>
<path d="M121.532 15.8259L108.957 10.9122C108.468 10.7214 108.227 10.1709 108.418 9.6825C108.609 9.19419 109.159 8.95297 109.648 9.14378L122.223 14.0574C122.711 14.2483 122.953 14.7988 122.762 15.2872C122.571 15.7755 122.02 16.0167 121.532 15.8259Z" fill="white"/>
<path d="M60.6945 43.3246C60.6945 43.4902 60.6662 43.6507 60.6128 43.803C60.3465 44.568 59.4569 45.1299 58.4004 45.1299C57.344 45.1299 56.4545 44.5679 56.1881 43.803C56.1348 43.6507 56.1064 43.4902 56.1064 43.3246H60.6945Z" fill="#95A6DB"/>
<path d="M60.6945 43.3246C60.6945 43.4902 60.6662 43.6507 60.6128 43.803H56.1881C56.1348 43.6507 56.1064 43.4902 56.1064 43.3246H60.6945Z" fill="#7F95DB"/>
<path d="M63.2048 35.5857C63.2048 32.9348 61.0577 30.7853 58.4076 30.7816C55.7939 30.7779 53.6443 32.8842 53.5975 35.4975C53.577 36.6405 53.9559 37.6942 54.6038 38.5287C55.4235 39.5846 55.8785 40.8779 55.8785 42.2147V42.2383H60.923V42.2147C60.923 40.876 61.3814 39.5827 62.2011 38.5244C62.8303 37.7121 63.2048 36.6927 63.2048 35.5857Z" fill="#F3BC3D"/>
<path d="M59.1273 41.6946C59.1139 41.6946 59.1003 41.6923 59.0869 41.6877C59.0229 41.6654 58.9891 41.5954 59.0113 41.5314C59.017 41.5151 59.5834 39.8829 59.9951 38.2209C60.7247 35.2751 60.3493 34.7962 60.154 34.727C59.5798 34.5238 59.1226 34.8245 58.8402 35.1126C58.7572 35.1972 58.6776 35.2927 58.6027 35.3969C58.7252 35.609 58.8359 35.8434 58.9286 36.091C59.183 36.7706 59.2506 37.4054 59.1094 37.789C59.0005 38.085 58.7691 38.2351 58.4577 38.2117C58.1639 38.1896 57.9489 38.0195 57.8361 37.7198C57.7067 37.3761 57.7235 36.8708 57.882 36.3333C57.9821 35.994 58.1319 35.6674 58.3133 35.3861C58.1439 35.1181 57.9477 34.8875 57.7348 34.7323C57.4188 34.5018 57.1218 34.4918 56.8524 34.7024C56.2961 35.1374 56.2748 36.4453 56.7908 38.485C57.1886 40.0575 57.7725 41.5113 57.7783 41.5258C57.8036 41.5887 57.7732 41.6603 57.7104 41.6856C57.6475 41.711 57.5759 41.6806 57.5505 41.6177C57.5446 41.6031 56.9553 40.1358 56.5533 38.5475C56.0032 36.3744 56.053 35.0157 56.7011 34.5089C57.0572 34.2306 57.4757 34.2394 57.8796 34.5338C58.0821 34.6814 58.2821 34.9025 58.4634 35.1731C58.5279 35.0894 58.5952 35.0115 58.6648 34.9406C59.1347 34.4612 59.6928 34.3032 60.2359 34.4955C60.5742 34.6152 60.7129 35.0704 60.6601 35.8871C60.6212 36.4895 60.4775 37.295 60.2331 38.2814C59.8187 39.9542 59.249 41.5957 59.2433 41.6122C59.2257 41.6628 59.1781 41.6946 59.1273 41.6946ZM58.4532 35.6267C58.3143 35.8625 58.1988 36.1277 58.1177 36.4027C57.976 36.8828 57.9567 37.3428 58.0661 37.6332C58.1449 37.8428 58.2791 37.9519 58.4762 37.9667C58.6795 37.982 58.8074 37.8986 58.8789 37.7042C59.0417 37.2618 58.8442 36.3582 58.4532 35.6267Z" fill="white"/>
<path d="M60.4976 43.4817H56.3041C55.8042 43.4817 55.3989 43.0765 55.3989 42.5765V42.5385C55.3989 42.0386 55.8042 41.6333 56.3041 41.6333H60.4976C60.9975 41.6333 61.4028 42.0386 61.4028 42.5385V42.5765C61.4028 43.0765 60.9975 43.4817 60.4976 43.4817Z" fill="#95A6DB"/>
<path d="M66.562 35.7832H64.9912C64.7677 35.7832 64.5864 35.6019 64.5864 35.3784C64.5864 35.1548 64.7677 34.9735 64.9912 34.9735H66.562C66.7856 34.9735 66.9668 35.1548 66.9668 35.3784C66.9668 35.6019 66.7856 35.7832 66.562 35.7832Z" fill="#F3BC3D"/>
<path d="M51.8101 35.7832H50.2393C50.0157 35.7832 49.8345 35.6019 49.8345 35.3784C49.8345 35.1548 50.0157 34.9735 50.2393 34.9735H51.8101C52.0336 34.9735 52.2149 35.1548 52.2149 35.3784C52.2149 35.6019 52.0337 35.7832 51.8101 35.7832Z" fill="#F3BC3D"/>
<path d="M52.8081 32.4598L51.5581 31.5086C51.3802 31.3732 51.3457 31.1192 51.4811 30.9413C51.6165 30.7633 51.8705 30.7289 52.0484 30.8642L53.2984 31.8154C53.4763 31.9508 53.5108 32.2048 53.3754 32.3827C53.24 32.5607 52.9861 32.5952 52.8081 32.4598Z" fill="#F3BC3D"/>
<path d="M63.9132 32.4598L65.1632 31.5086C65.3411 31.3732 65.3755 31.1192 65.2402 30.9413C65.1048 30.7633 64.8508 30.7289 64.6729 30.8642L63.4229 31.8154C63.2449 31.9508 63.2105 32.2048 63.3459 32.3827C63.4813 32.5607 63.7352 32.5952 63.9132 32.4598Z" fill="#F3BC3D"/>
<path d="M52.8081 38.7989L51.5581 39.75C51.3802 39.8855 51.3457 40.1395 51.4811 40.3173C51.6165 40.4952 51.8705 40.5297 52.0484 40.3943L53.2984 39.4431C53.4763 39.3078 53.5108 39.0537 53.3754 38.8758C53.24 38.698 52.9861 38.6635 52.8081 38.7989Z" fill="#F3BC3D"/>
<path d="M63.9132 38.7989L65.1632 39.75C65.3411 39.8855 65.3755 40.1395 65.2402 40.3173C65.1048 40.4952 64.8508 40.5297 64.6729 40.3943L63.4229 39.4431C63.2449 39.3078 63.2105 39.0537 63.3459 38.8758C63.4813 38.698 63.7352 38.6635 63.9132 38.7989Z" fill="#F3BC3D"/>
<path d="M70.5603 24.9939H54.4374C54.0306 24.9939 53.7007 24.664 53.7007 24.2572V13.5292C53.7007 13.1223 54.0306 12.7925 54.4374 12.7925H70.5603C70.9672 12.7925 71.2971 13.1223 71.2971 13.5292V24.2571C71.297 24.664 70.9672 24.9939 70.5603 24.9939Z" fill="#CDD8FA"/>
<path d="M67.8888 16.9145H55.4556C55.0182 16.9145 54.6636 16.5599 54.6636 16.1224V15.8652C54.6636 15.4278 55.0182 15.0731 55.4556 15.0731H67.8888C68.3263 15.0731 68.6808 15.4277 68.6808 15.8652V16.1224C68.6808 16.5599 68.3263 16.9145 67.8888 16.9145Z" fill="white"/>
<path d="M62.8135 19.3346H54.9712C54.8013 19.3346 54.6636 19.1968 54.6636 19.0269V18.7215C54.6636 18.5516 54.8013 18.4139 54.9712 18.4139H62.8135C62.9834 18.4139 63.1211 18.5516 63.1211 18.7215V19.0269C63.1211 19.1968 62.9834 19.3346 62.8135 19.3346Z" fill="white"/>
<path d="M60.4382 23.0427H54.9234C54.7799 23.0427 54.6636 22.9264 54.6636 22.7829V22.3819C54.6636 22.2384 54.7799 22.1221 54.9234 22.1221H60.4382C60.5817 22.1221 60.698 22.2384 60.698 22.3819V22.7829C60.698 22.9264 60.5817 23.0427 60.4382 23.0427Z" fill="white"/>
<path d="M64.5629 21.0718H55.002C54.8151 21.0718 54.6636 20.9202 54.6636 20.7333V20.4896C54.6636 20.3026 54.8151 20.1511 55.002 20.1511H64.5629C64.7498 20.1511 64.9014 20.3026 64.9014 20.4896V20.7333C64.9014 20.9202 64.7498 21.0718 64.5629 21.0718Z" fill="white"/>
<path d="M69.5382 25.4948L69.958 26.9705C69.8473 26.9788 69.7361 26.9819 69.6244 26.9799C65.6465 27.0859 64.2534 21.5631 66.1963 21.6296C66.6027 21.6717 66.8984 22.0349 66.8563 22.4413C66.6999 23.9633 67.8109 25.329 69.3329 25.4854C69.4025 25.4901 69.4706 25.4937 69.5382 25.4948Z" fill="#C4204A"/>
<path d="M73.8485 23.1605C73.8272 23.4193 73.7794 23.6723 73.7082 23.9171L72.2137 23.6505C72.7136 22.155 72.0126 20.25 69.9002 19.9652C69.351 19.9086 68.8038 20.0151 68.3184 20.2724C67.446 20.7089 66.7741 19.4445 67.6248 18.966C70.5057 17.3441 74.2762 19.8686 73.8485 23.1605Z" fill="#F5A3B7"/>
<path d="M73.7082 23.9171C73.2281 25.569 71.6821 26.85 69.958 26.9705L69.5381 25.4948C70.9546 25.5176 71.8697 24.6815 72.2137 23.6505L73.7082 23.9171Z" fill="#E62552"/>
<path d="M70.9585 22.7253C70.9585 23.4665 70.3577 24.0674 69.6165 24.0674C68.8753 24.0674 68.2744 23.4665 68.2744 22.7253C68.2744 21.9841 68.8753 21.3833 69.6165 21.3833C70.3577 21.3833 70.9585 21.9842 70.9585 22.7253Z" fill="#C4204A"/>
</g>
<defs>
<clipPath id="clip0_11_2919">
<rect width="145.5" height="103.929" fill="white" transform="translate(0.25 0.0349731)"/>
</clipPath>
</defs>
</svg>
