<svg width="146" height="112" viewBox="0 0 146 112" fill="none" xmlns="http://www.w3.org/2000/svg">
<g clip-path="url(#clip0_11_2557)">
<rect width="145.5" height="111.5" transform="translate(0.25 0.25)" fill="white"/>
<g opacity="0.5">
<path d="M109.944 57.0343C111.9 71.2035 110.58 81.8139 84.563 89.0208C62.5467 95.1196 37.5127 78.389 37.5127 55.5434C37.5127 32.6979 51.863 12.3775 70.2518 25.9334C90.3497 40.7495 108.304 45.1518 109.944 57.0343Z" fill="#E8CFAC"/>
<path d="M113.486 29.0605C113.887 36.7516 109.188 38.5927 106.443 38.6069C99.7518 38.642 97.3735 37.5191 97.3735 31.3166C97.3735 25.1141 102.915 18.0684 109.606 18.0684C116.297 18.0686 113.255 24.6293 113.486 29.0605Z" fill="#E8CFAC"/>
<path d="M38.0871 69.2151C39.2351 71.8143 36.0763 74.4651 33.2645 74.4651C30.4527 74.4651 27.7475 73.0852 29.1502 71.3958C29.8477 70.5555 30.4527 66.5125 33.2645 66.5125C36.0763 66.5125 37.2 67.2063 38.0871 69.2151Z" fill="#E8CFAC"/>
<path d="M33.5484 78.4849C33.5484 79.3325 32.8614 80.0194 32.014 80.0194C31.1666 80.0194 30.4795 79.3323 30.4795 78.4849C30.4795 77.6373 31.1666 76.9504 32.014 76.9504C32.8614 76.9504 33.5484 77.6375 33.5484 78.4849Z" fill="#E8CFAC"/>
<path d="M43.153 52.4343C42.3513 52.6644 41.6406 53.1447 40.8198 53.3742C40.3916 53.494 39.8899 53.6494 39.4394 53.5968C38.03 53.432 38.3001 52.0387 39.3781 51.8132C41.6872 51.3304 41.5891 54.6335 40.5836 55.8404C39.296 57.386 36.4447 56.7758 35.9555 54.7733C35.7592 54.175 35.9285 53.6978 36.463 53.3416C37.0591 53.4063 37.341 53.7306 37.3091 54.3144C37.3222 54.7907 37.0671 55.2282 36.8278 55.6196C36.4104 56.3031 35.7806 56.7335 35.3387 57.3655C35.0842 57.7294 35.5041 58.203 35.8979 58.0931C37.0834 57.7622 38.0769 56.2326 38.4047 55.1109C38.7327 53.9881 38.2693 52.3914 36.9835 52.1486C35.648 51.8964 34.6904 53.1198 34.6973 54.3534C34.7056 55.8107 35.8181 57.1864 37.1661 57.6467C39.482 58.4372 41.9981 57.1946 42.3772 54.6877C42.5877 53.2953 42.3805 51.5255 40.9623 50.8416C39.8488 50.3046 38.2187 50.6215 37.4906 51.66C36.6218 52.8992 37.6576 54.3741 38.9847 54.6194C40.3599 54.8737 42.7443 54.1286 43.4666 52.8423C43.5836 52.6343 43.3901 52.3662 43.153 52.4343Z" fill="#D3B470"/>
<path d="M108.415 80.8942C107.682 80.3866 106.804 80.1108 106.054 79.593C105.534 79.2342 104.89 78.7686 104.725 78.1143C104.537 77.4578 104.852 77.0836 105.67 76.9915C106.018 77.0983 106.321 77.2791 106.579 77.5343C108.217 79.1704 105.494 81.0887 103.915 81.0684C101.783 81.0409 100.428 78.4332 101.609 76.6467C101.816 76.2973 102.115 76.058 102.508 75.9287C103.342 75.8856 103.614 76.2119 103.325 76.9078C103.088 77.483 102.424 77.6908 101.877 77.7976C100.951 77.9787 100.101 77.7162 99.2044 77.7836C98.6708 77.8237 98.5047 78.4597 98.9386 78.7648C100.027 79.5297 102.115 79.2848 103.235 78.7032C104.309 78.1457 105.177 76.7381 104.491 75.5723C103.773 74.3532 102.135 74.4172 101.153 75.2505C99.9562 76.2667 99.5827 78.1248 100.147 79.5566C101.141 82.0772 104.051 83.1768 106.345 81.6C107.566 80.7602 108.696 79.475 108.235 77.8877C107.862 76.6032 106.336 75.4505 104.968 75.7668C103.417 76.1249 103.207 78.0128 103.968 79.1697C104.767 80.3846 106.851 81.6921 108.345 81.4339C108.617 81.3868 108.603 81.024 108.415 80.8942Z" fill="#D3B470"/>
<path d="M107.788 54.1047C107.035 53.9236 106.262 53.9995 105.498 53.8759C104.654 53.7394 103.775 53.5586 102.966 53.283C102.172 53.0125 101.312 52.601 100.974 51.7795C100.603 50.8786 101.069 50.1688 101.997 50.0896C103.859 49.931 105.241 51.5126 104.668 53.305C104.192 54.7933 103.175 56.0071 101.677 56.4748C100.079 56.9736 98.1654 56.7604 97.0196 55.444C95.9492 54.2144 95.3685 51.6354 96.7741 50.4036C97.3963 49.8583 98.4419 49.8302 98.6188 50.7929C98.7742 51.6388 98.1088 52.4648 97.473 52.9148C96.7424 53.4321 95.8908 53.7988 95.0472 54.0844C94.4243 54.2954 93.8042 54.338 93.2021 54.6192C92.5799 54.9097 92.7741 55.8885 93.3887 56.0475C95.2796 56.5367 97.828 55.2382 99.1914 53.9696C100.561 52.6947 101.134 50.163 99.5935 48.8024C97.9917 47.388 95.6292 48.3208 94.6991 50.0294C93.6296 51.9938 94.0149 54.5917 95.3264 56.334C96.6722 58.1221 98.8612 58.8274 101.042 58.5279C103.08 58.2483 104.574 57.2568 105.651 55.5355C106.817 53.6716 107.26 51.1827 105.5 49.5203C104.164 48.2581 101.743 47.7019 100.172 48.8455C98.2736 50.2279 99.0801 52.9422 100.774 54.0862C102.5 55.2514 105.998 56.0308 107.892 54.9059C108.208 54.7189 108.161 54.1946 107.788 54.1047Z" fill="#D3B470"/>
<path d="M55.8268 73.8137C55.2258 73.8326 54.6462 74.0048 54.039 74.024C53.6336 74.0367 53.1811 74.0585 52.7844 73.972C52.2659 73.8589 51.2573 73.1821 51.9918 72.5506C52.3286 72.2611 53.1889 72.3724 53.5319 72.5921C54.237 73.0434 54.1061 73.8554 53.9293 74.4813C53.7966 74.951 53.601 75.4173 53.2255 75.7424C51.9147 76.8777 49.7386 76.2658 49.35 74.5536C49.3294 74.3743 49.3089 74.1952 49.2884 74.0159C49.2681 73.1868 49.6929 73.0276 50.5628 73.5385C50.7511 73.8592 50.2464 74.4793 50.0821 74.6682C49.5498 75.2792 48.852 75.514 48.2309 75.9678C47.9125 76.2004 47.9861 76.7789 48.447 76.766C50.2741 76.7151 53.285 73.0791 50.6376 72.0361C49.6842 71.6606 48.7106 72.3008 48.3861 73.2145C47.9587 74.4173 48.5358 75.8361 49.461 76.636C51.0617 78.0201 53.8287 77.3121 54.6725 75.4284C55.1803 74.2949 55.3861 72.7562 54.2994 71.8858C53.4612 71.2144 51.9479 71.1238 51.1612 71.9405C50.2984 72.836 50.9058 74.1897 51.9049 74.6515C53.0312 75.1722 55.0447 75.0843 55.996 74.2233C56.1501 74.0848 56.0304 73.8072 55.8268 73.8137Z" fill="#D3B470"/>
<path d="M77.867 77.4521C77.0945 76.4435 76.0725 75.6835 75.3364 74.6131C74.8866 73.9591 74.3382 73.039 74.6538 72.2116C75.048 71.1778 76.0223 71.4262 76.6222 72.1262C78.7797 74.643 74.8643 76.4156 72.7094 75.9533C69.9719 75.366 69.3345 71.4198 71.4069 69.6944C71.9403 69.2502 73.3913 68.6987 73.7241 69.7535C74.0331 70.7327 72.5627 71.1736 71.8662 71.1638C71.0826 71.1528 70.2276 70.9035 69.5025 70.6145C69.0297 70.4261 68.6334 70.1393 68.1343 70.0131C67.6275 69.8848 67.0312 70.4927 67.3913 70.9796C68.4276 72.3802 70.8859 72.9573 72.5453 72.7308C74.1319 72.5142 75.7745 71.0525 75.2634 69.3291C74.7218 67.5025 72.4795 67.1767 71.0037 68.0355C69.2852 69.0354 68.366 71.0224 68.6568 72.9614C68.9209 74.7222 69.5227 76.3318 71.2311 77.1187C72.3051 77.6136 73.5622 77.7592 74.718 77.5052C76.4937 77.115 78.4938 76.101 78.7886 74.1172C79.0399 72.4271 77.8373 70.431 76.1441 70.0066C74.0842 69.4904 72.7748 71.7079 73.2328 73.5021C73.6679 75.2063 75.5966 77.7057 77.4495 77.9942C77.7218 78.0366 78.0871 77.7396 77.867 77.4521Z" fill="#D3B470"/>
<path d="M58.089 34.417C57.6573 34.6892 57.288 35.0338 56.8482 35.3007C56.648 35.4222 56.4428 35.5476 56.2303 35.6466C56.0283 35.7226 55.8264 35.7987 55.6246 35.8747C54.6898 35.1056 54.5901 34.6656 55.3254 34.5543C56.8304 34.1801 57.3598 36.57 56.8551 37.6962C56.8203 37.7738 56.8491 37.9339 56.7945 38.0003C56.8473 37.9363 56.0751 38.1698 55.9808 38.2028C55.2808 38.4484 54.4608 38.5565 53.8 38.1404C53.5503 37.9863 53.3518 37.786 53.2051 37.5401C52.9388 37.2986 53.0472 37.1275 53.5307 37.027C53.9401 36.5642 54.0951 36.5805 53.9954 37.076C54.0299 37.3327 53.9929 37.5791 53.8843 37.8153C53.7144 38.3895 53.3213 38.8085 53.0742 39.3319C52.9185 39.6617 53.2448 40.0568 53.5953 39.853C54.9942 39.0404 55.7881 34.999 53.3293 35.2238C52.3947 35.3092 51.8854 36.2627 52.0316 37.1277C52.2252 38.2729 53.3259 39.1673 54.4369 39.3185C55.2618 39.4309 57.0353 39.1479 57.587 38.4437C58.0179 37.8938 57.9362 36.5243 57.8439 35.8923C57.6976 34.8911 57.2351 33.7934 56.1357 33.5624C55.2058 33.3671 53.9671 33.9304 53.6709 34.8819C53.3389 35.949 54.3682 36.7919 55.3668 36.7426C56.5099 36.6862 57.975 35.7307 58.403 34.658C58.4732 34.4823 58.2373 34.3235 58.089 34.417Z" fill="#D3B470"/>
<path d="M118.303 68.3507C119.949 68.3507 121.284 67.0163 121.284 65.3703C121.284 63.7243 119.949 62.3899 118.303 62.3899C116.657 62.3899 115.323 63.7243 115.323 65.3703C115.323 67.0163 116.657 68.3507 118.303 68.3507Z" fill="#DA6867"/>
<path d="M30.4795 44.9129C31.5717 44.9129 32.4571 44.0275 32.4571 42.9353C32.4571 41.8431 31.5717 40.9578 30.4795 40.9578C29.3873 40.9578 28.502 41.8431 28.502 42.9353C28.502 44.0275 29.3873 44.9129 30.4795 44.9129Z" fill="#DA6867"/>
<path d="M71.501 86.4882C72.3583 86.4882 73.0533 85.7932 73.0533 84.9358C73.0533 84.0785 72.3583 83.3835 71.501 83.3835C70.6437 83.3835 69.9487 84.0785 69.9487 84.9358C69.9487 85.7932 70.6437 86.4882 71.501 86.4882Z" fill="#DA6867"/>
<path d="M33.5488 90.5962C35.1948 90.5962 36.5292 89.2619 36.5292 87.6158C36.5292 85.9698 35.1948 84.6354 33.5488 84.6354C31.9027 84.6354 30.5684 85.9698 30.5684 87.6158C30.5684 89.2619 31.9027 90.5962 33.5488 90.5962Z" fill="#F2C549"/>
<path d="M110.558 43.6637C111.381 43.6637 112.048 42.9964 112.048 42.1734C112.048 41.3503 111.381 40.683 110.558 40.683C109.735 40.683 109.067 41.3503 109.067 42.1734C109.067 42.9964 109.735 43.6637 110.558 43.6637Z" fill="#E8CFAC"/>
<path d="M106.731 94.5384C107.434 94.5384 108.003 93.9689 108.003 93.2664C108.003 92.5639 107.434 91.9944 106.731 91.9944C106.029 91.9944 105.459 92.5639 105.459 93.2664C105.459 93.9689 106.029 94.5384 106.731 94.5384Z" fill="#F2C549"/>
<path d="M94.7186 16.8684C95.9954 16.8684 97.0304 15.8334 97.0304 14.5566C97.0304 13.2798 95.9954 12.2448 94.7186 12.2448C93.4418 12.2448 92.4067 13.2798 92.4067 14.5566C92.4067 15.8334 93.4418 16.8684 94.7186 16.8684Z" fill="#F2C549"/>
<path d="M40.1857 20.989C40.1857 21.8719 39.4701 22.5875 38.5872 22.5875C37.7044 22.5875 36.9888 21.8719 36.9888 20.989C36.9888 20.1062 37.7044 19.3906 38.5872 19.3906C39.4701 19.3906 40.1857 20.1062 40.1857 20.989Z" fill="#F2C549"/>
<path d="M111.707 82.1804C111.707 82.8153 111.192 83.33 110.557 83.33C109.922 83.33 109.408 82.8153 109.408 82.1804C109.408 81.5456 109.922 81.0309 110.557 81.0309C111.192 81.0309 111.707 81.5456 111.707 82.1804Z" fill="#F2C549"/>
</g>
<path d="M124.237 104.933C124.237 104.118 119.141 102.653 90.6471 102.219C62.1533 101.784 21.0513 102.546 21.0513 103.36C21.0513 104.175 27.9386 106.173 56.4325 106.607C84.9265 107.041 124.237 105.747 124.237 104.933Z" fill="#D9D9D7"/>
<path d="M36.4539 99.0149C35.3043 99.6299 36.1095 102.61 36.18 103.21C36.2723 103.997 37.4297 104.087 38.2153 103.957C38.4537 103.918 38.1041 103.566 38.1266 103.06C38.1783 101.899 38.0066 100.042 37.7566 99.7983C37.2611 99.3142 36.4539 99.0149 36.4539 99.0149Z" fill="#373A52"/>
<path d="M33.5679 75.2563C33.5679 75.2563 33.3295 79.7412 33.5679 81.9898C33.8711 84.8499 35.2917 100.235 37.0696 100.235C38.2988 100.235 38.231 84.43 38.0758 81.653C37.9206 78.876 37.5645 74.8074 37.5645 74.8074L33.5679 75.2563Z" fill="#FFC18F"/>
<path d="M41.375 76.1688C41.375 76.1688 41.9526 80.6228 42.5941 82.791C43.4101 85.5488 47.5057 101.519 49.0672 101.217C49.9986 101.037 47.6219 84.3467 46.9665 81.6439C46.3111 78.9409 45.2242 75.0038 45.2242 75.0038L41.375 76.1688Z" fill="#FFC18F"/>
<path d="M52.5624 34.6005L46.7182 29.4088L47.5639 28.5275C47.5639 28.5275 57.0603 33.4672 55.4906 35.4515C53.9211 37.4357 45.2065 41.3016 45.2065 41.3016C41.7783 42.6693 40.2626 38.6459 42.3064 37.8755C42.3064 37.8755 51.2594 35.2784 52.5624 34.6005Z" fill="#FFC18F"/>
<path d="M45.888 39.8557C45.6387 40.1757 45.3756 40.4836 45.093 40.7749C44.8181 41.0583 44.5144 41.2717 44.2171 41.5228C44.1734 41.5596 44.1948 41.6464 44.2523 41.6562C44.612 41.7171 44.8986 41.3921 45.1359 41.1613C45.4848 40.8219 45.8069 40.4578 46.1079 40.0753C46.2306 39.9197 46.0105 39.6982 45.888 39.8557Z" fill="#B65E5A"/>
<path d="M28.7053 52.401C28.3715 52.3599 29.0389 53.5182 29.4379 53.6747C29.4379 53.6747 29.9095 52.5488 28.7053 52.401Z" fill="#B65E5A"/>
<path d="M33.1474 39.1898L42.3069 37.8754C42.3069 37.8754 44.3268 40.9056 45.1125 42.5888C45.8981 44.2722 43.7658 51.6789 43.7658 51.6789C43.7658 51.6789 47.4691 72.1037 48.2548 76.9294C48.2548 76.9294 37.5934 79.5106 30.4112 77.4905C30.4112 77.4905 29.4443 60.4323 34.2484 53.9234C34.2484 53.9234 32.9512 53.4745 33.0838 53.0256C33.2168 52.5767 33.8788 51.1178 33.8788 51.1178C33.8788 51.1178 33.4946 42.2293 33.1474 39.1898Z" fill="#FFAE83"/>
<path d="M36.4292 26.2968C36.4292 26.2968 38.9915 21.8027 42.1703 23.4507C45.3492 25.0989 41.9275 29.958 41.9275 29.958C41.9275 29.958 43.7916 33.3882 44.0453 37.0862C44.0453 37.0862 37.1069 36.9386 31.6606 39.1407C31.6606 39.1407 29.7245 26.7576 32.6152 25.434C34.8736 24.4 36.4292 26.2968 36.4292 26.2968Z" fill="#441B15"/>
<path d="M38.406 40.0588C37.4324 40.1808 36.7698 39.4697 36.541 38.3049C36.2953 37.0541 36.0752 35.5627 36.0752 35.5627L39.0861 35.0003C39.0861 35.0003 39.3232 36.5314 39.3814 37.6489C39.4512 38.9826 39.2844 39.9489 38.406 40.0588Z" fill="#FFC18F"/>
<path d="M36.1689 36.1806C36.1689 36.1806 37.1604 37.4448 37.9855 37.2142C38.8108 36.9834 39.2305 36.0843 39.2305 36.0843C39.2305 36.0843 37.9146 36.27 36.1689 36.1806Z" fill="#0D0000"/>
<path d="M33.2934 31.9804C33.6123 33.4971 34.5654 36.1769 37.2951 36.5067C38.7794 36.6851 39.9227 35.9733 40.338 34.2715C40.3727 34.1304 40.3922 33.9879 40.4138 33.8467C40.4136 33.845 40.4149 33.8409 40.4147 33.8391C40.4401 33.6715 40.4597 33.5026 40.4782 33.3376C40.4791 33.33 40.48 33.3242 40.4809 33.3167C40.4856 33.2694 40.4887 33.2241 40.4936 33.1786C40.5012 33.0972 40.507 33.0181 40.5128 32.9389C40.5144 32.9237 40.5146 32.9106 40.5146 32.8976C40.5714 32.0759 40.5416 31.3576 40.5037 30.9877C40.4905 30.8643 40.4762 30.7339 40.4577 30.6001C40.2969 29.3771 39.7254 27.5111 37.1045 27.2914C35.2353 27.1362 33.1179 29.0513 33.1478 31.0706C33.1478 31.0711 33.179 31.4345 33.2934 31.9804Z" fill="#FFC18F"/>
<path d="M36.3073 32.3575C36.3329 32.5707 36.2595 32.7549 36.1434 32.7688C36.0272 32.7828 35.9121 32.6213 35.8865 32.4082C35.8608 32.195 35.9342 32.011 36.0504 31.9969C36.1665 31.9829 36.2816 32.1443 36.3073 32.3575Z" fill="#0D0000"/>
<path d="M38.8546 31.9245C38.8803 32.1377 38.8069 32.3217 38.6907 32.3357C38.5745 32.3498 38.4595 32.1883 38.4338 31.9751C38.4082 31.7619 38.4815 31.5779 38.5977 31.5639C38.7139 31.5499 38.829 31.7113 38.8546 31.9245Z" fill="#0D0000"/>
<path d="M37.4158 30.5637C37.4265 30.6879 38.1267 30.7294 38.5364 30.6944C38.946 30.6594 39.0785 30.5468 39.0678 30.4225C39.0573 30.2983 38.548 30.2406 38.1383 30.2754C37.7287 30.3106 37.4051 30.4395 37.4158 30.5637Z" fill="#441B15"/>
<path d="M36.5256 30.7836C36.5635 30.9025 35.9326 31.2093 35.5408 31.3342C35.149 31.4591 34.9835 31.4058 34.9456 31.2869C34.9077 31.1683 35.3559 30.9194 35.7477 30.7945C36.1396 30.6699 36.4877 30.665 36.5256 30.7836Z" fill="#441B15"/>
<path d="M37.3265 33.7517C37.4068 33.7303 37.8209 33.6184 37.8423 33.5234C37.855 33.4676 37.7221 33.304 37.6882 33.242C37.5493 32.9864 37.4616 32.7123 37.4094 32.4271C37.388 32.3101 37.5713 32.2851 37.5925 32.4019C37.636 32.6401 37.7063 32.8693 37.8149 33.0863C37.874 33.2043 38.0624 33.3851 38.0452 33.5334C38.0178 33.7703 37.5288 33.888 37.3515 33.9351C37.2371 33.9654 37.2128 33.7821 37.3265 33.7517Z" fill="#B65E5A"/>
<path d="M36.7007 34.6642C36.7007 34.6642 38.1009 34.6517 38.8698 34.4501C38.8698 34.4501 39.0034 35.397 37.7994 35.4309C36.8037 35.4588 36.7007 34.6642 36.7007 34.6642Z" fill="white"/>
<path d="M36.1193 33.7122C36.1508 33.9105 35.8562 34.1221 35.461 34.1848C35.0659 34.2477 34.72 34.138 34.6883 33.9399C34.6569 33.7419 34.9517 33.5303 35.3469 33.4674C35.742 33.4045 36.0879 33.514 36.1193 33.7122Z" fill="#B65E5A"/>
<path d="M33.645 31.6914C33.645 31.6914 33.253 30.9852 32.5416 31.2871C31.83 31.5891 32.4736 34.6535 34.2543 34.051L33.645 31.6914Z" fill="#FFC18F"/>
<path d="M32.8494 32.8794C32.9558 32.8729 33.0559 32.8843 33.1533 32.9121C33.102 32.6938 33.0151 32.4131 32.8409 32.3392C32.7314 32.2929 32.8017 32.1218 32.9116 32.1684C33.2171 32.2978 33.3097 32.7585 33.3721 33.0484C33.3861 33.114 33.3056 33.1782 33.2452 33.1465C33.1266 33.0841 33.0095 33.0546 32.8746 33.0627C32.7564 33.0696 32.7303 32.8865 32.8494 32.8794Z" fill="#B65E5A"/>
<path d="M40.2056 31.0135C40.2056 31.0135 40.3797 30.2247 41.148 30.3113C41.916 30.3978 42.1731 33.5184 40.2945 33.4486L40.2056 31.0135Z" fill="#FFC18F"/>
<path d="M41.3068 31.9252C41.2031 31.9492 41.1103 31.9887 41.0249 32.0434C41.0118 31.8195 41.0151 31.5255 41.161 31.4051C41.2526 31.3295 41.1366 31.1855 41.0445 31.2615C40.7888 31.4727 40.8311 31.9405 40.8541 32.2362C40.8592 32.3031 40.9549 32.3417 41.0037 32.294C41.0996 32.2003 41.2035 32.1386 41.3349 32.108C41.45 32.081 41.423 31.8982 41.3068 31.9252Z" fill="#B65E5A"/>
<path d="M36.4668 26.7442C36.4668 26.7442 37.5766 28.1997 36.8755 29.3564C36.1742 30.5133 34.5751 31.4227 33.1615 31.266C31.7476 31.1094 31.0856 26.8292 36.4668 26.7442Z" fill="#441B15"/>
<path d="M32.3623 30.5849C32.3623 30.5849 32.9116 32.1682 33.4595 31.8801C34.0279 31.5811 33.3335 30.1249 33.3335 30.1249L32.3623 30.5849Z" fill="#441B15"/>
<path d="M36.1685 45.5197C36.1685 45.5197 40.6766 44.8462 44.1365 44.4254C44.1365 44.4254 41.0693 46.8664 36.1685 45.5197Z" fill="#E69D76"/>
<path d="M43.7654 51.6791L40.1523 52.0812L42.9671 52.6124L41.8492 54.4767C41.8492 54.4767 43.7221 54.135 43.7654 51.6791Z" fill="#E69D76"/>
<path d="M34.248 53.9236C34.248 53.9236 37.9833 55.6903 44.1365 54.4767C44.1365 54.4767 38.1541 58.1189 34.248 53.9236Z" fill="#E69D76"/>
<path d="M41.4022 62.1912L35.3618 72.6204C35.3618 72.6204 39.7429 68.5803 41.4022 62.1912Z" fill="#E69D76"/>
<path d="M42.0034 64.7512L39.8838 71.1118C39.8838 71.1118 42.1796 67.8134 42.0034 64.7512Z" fill="#E69D76"/>
<path d="M23.8891 45.1289L29.0705 50.9822L28.1254 51.7561C28.1254 51.7561 19.1791 45.5997 21.0833 43.9339C23.8994 41.4704 32.7719 39.2437 32.7719 39.2437C37.3199 38.1934 36.5785 45.1334 33.6164 45.8051C33.6164 45.8051 32.597 43.5418 31.8567 42.9948C31.8567 42.9948 25.2639 44.6118 23.8891 45.1289Z" fill="#FFC18F"/>
<path d="M30.0859 53.3144C30.0859 53.3144 30.3599 53.7089 30.7716 53.4129C31.051 53.2122 31.0773 52.5035 31.0655 52.0694C31.0597 51.86 30.9277 51.6758 30.7315 51.6024L29.0706 50.9822L28.1255 51.756C28.3217 52.3575 29.1636 52.611 29.1636 52.611C29.1636 52.611 29.1937 53.4315 29.4378 53.675C29.682 53.9185 30.0859 53.3144 30.0859 53.3144Z" fill="#FFC18F"/>
<path d="M40.3864 33.0236C40.4179 33.2219 40.1233 33.4333 39.7281 33.4962C39.333 33.5591 38.9871 33.4493 38.9554 33.2513C38.924 33.0533 39.2188 32.8417 39.6139 32.7788C40.0091 32.7159 40.355 32.8256 40.3864 33.0236Z" fill="#B65E5A"/>
<path d="M47.5638 28.5275C47.5638 28.5275 46.8201 26.8626 46.4542 26.7154C46.0882 26.5682 45.3666 26.5004 45.1802 26.7426C44.9938 26.9848 45.0261 27.2555 45.0261 27.2555C45.0261 27.2555 44.5502 27.0006 44.4777 27.1654C44.4053 27.33 44.535 27.891 44.535 27.891C44.535 27.891 43.9758 27.4992 43.9169 27.7053C43.858 27.9113 44.4164 28.9737 44.8584 29.1439C45.3004 29.314 46.2568 29.2999 46.718 29.409L47.5638 28.5275Z" fill="#FFC18F"/>
<path d="M46.7184 29.4088C46.7184 29.4088 44.8408 29.418 44.6597 29.4008C44.4784 29.3836 44.122 28.9568 44.1285 28.8112C44.135 28.6653 44.7714 27.85 45.0433 28.0623C45.3151 28.2744 44.973 28.7639 44.973 28.7639C44.973 28.7639 46.7369 28.5717 46.7184 29.4088Z" fill="#FFC18F"/>
<path d="M44.9888 28.8161C44.93 28.8027 44.884 28.72 44.9391 28.6593C45.023 28.567 45.0874 28.4617 45.1273 28.3433C45.1438 28.2947 45.1851 28.2048 45.1465 28.164C45.1088 28.1243 45.0399 28.1551 44.9908 28.1721C44.7926 28.2405 44.6354 28.3977 44.4886 28.5411C44.4055 28.6223 44.2824 28.4903 44.3656 28.4091C44.4405 28.336 44.5359 28.2425 44.6423 28.1594C44.5888 28.1145 44.5422 28.0641 44.5083 28.0008C44.4534 27.8982 44.6124 27.8128 44.6673 27.9154C44.6972 27.9711 44.7342 28.0128 44.787 28.0479C44.7908 28.0503 44.7924 28.0537 44.7955 28.0563C44.9295 27.9781 45.0725 27.9314 45.2109 27.9689C45.3262 28.0004 45.3617 28.0864 45.3543 28.1921C45.4694 28.2216 45.6333 28.2423 45.6429 28.1061C45.6494 28.0124 45.5673 27.9098 45.5437 27.8193C45.541 27.8092 45.5419 27.8005 45.5421 27.7918C45.3392 27.6908 45.2109 27.4533 45.0676 27.2856C44.9922 27.1976 45.124 27.074 45.1996 27.1625C45.2975 27.2769 45.372 27.4123 45.4772 27.5202C45.5539 27.599 45.6723 27.6857 45.7914 27.6558C45.9038 27.6275 45.9613 27.5151 45.9437 27.4065C45.9252 27.2923 46.1007 27.2493 46.1192 27.3641C46.1567 27.5952 46.0062 27.8362 45.7553 27.8409C45.7495 27.8411 45.7448 27.8393 45.739 27.8391C45.7914 27.9814 45.8788 28.1185 45.7709 28.2633C45.6592 28.4133 45.4768 28.4073 45.3129 28.3672C45.272 28.4767 45.2089 28.5882 45.1519 28.6731C45.5744 28.5996 46.3728 28.4296 46.5284 28.8879C46.5659 28.9981 46.3899 29.0395 46.3529 28.9303C46.2461 28.6158 45.3169 28.833 45.0854 28.8665C45.0397 28.8732 45.0062 28.8486 44.9888 28.8161Z" fill="#B65E5A"/>
<path d="M53.1342 35.1274C53.0629 35.0036 52.9572 34.8933 52.8624 34.7867C52.7696 34.6821 52.6686 34.5701 52.5397 34.5115C52.5112 34.4985 52.4728 34.4905 52.4449 34.5115C52.4349 34.5191 52.4271 34.5246 52.4195 34.5347C52.3413 34.6361 52.5072 34.8 52.5649 34.8732C52.6764 35.0146 52.7848 35.1725 52.9108 35.3002C53.0243 35.4155 53.215 35.2677 53.1342 35.1274Z" fill="#B65E5A"/>
<path d="M24.4292 45.5406C24.2715 45.3575 24.1078 45.18 23.9364 45.0099C23.795 44.8696 23.6253 44.6914 23.4293 44.635C23.3789 44.6205 23.3133 44.6731 23.3363 44.728C23.4157 44.9182 23.5916 45.0672 23.733 45.2135C23.9011 45.3874 24.0612 45.5683 24.2153 45.7545C24.3389 45.9037 24.5565 45.6882 24.4292 45.5406Z" fill="#B65E5A"/>
<path d="M33.1135 43.5678C32.9175 43.1748 32.3604 42.7971 31.9086 42.9014C31.7813 42.9309 31.8009 43.1019 31.9086 43.1403C32.0868 43.2038 32.2652 43.2248 32.4318 43.3227C32.6066 43.4255 32.7226 43.566 32.839 43.7281C32.9574 43.8933 33.206 43.7533 33.1135 43.5678Z" fill="#B65E5A"/>
<path d="M36.1904 39.5073C36.1904 39.5073 37.3418 41.0786 38.5226 40.7978C39.7031 40.5173 39.8996 39.0201 39.8996 39.0201C39.8996 39.0201 40.0153 41.2679 38.7382 41.5429C36.9861 41.9202 36.1904 39.5073 36.1904 39.5073Z" fill="#E69D76"/>
<path d="M31.0679 76.2972C31.0679 76.2972 40.6714 76.7461 47.4307 75.3994C47.4307 75.3994 37.9097 78.5977 31.0679 76.2972Z" fill="#E69D76"/>
<path d="M52.8112 102.709C52.8112 102.709 53.7955 103.083 54.2098 103.077C54.6241 103.07 54.2723 104.11 52.2664 103.986C50.2603 103.863 48.2568 103.689 48.0572 103.489C47.5802 103.012 47.4351 102.046 47.8215 101.89L52.8112 102.709Z" fill="#373A52"/>
<path d="M49.2359 98.8698C49.2359 98.8698 50.4549 102.033 52.8111 102.709C52.8111 102.709 52.05 103.528 50.8721 103.071C49.6942 102.615 47.8212 101.89 47.8212 101.89C47.8212 101.89 47.5927 100.434 48.1618 99.5954L49.2359 98.8698Z" fill="#FFC18F"/>
<path d="M37.8505 100.345C37.7158 99.2406 37.3831 98.767 36.9796 98.767C36.1405 98.767 35.9146 100.198 36.0758 101.153C36.1456 101.566 36.5878 102.796 36.5878 102.796C36.5878 102.796 37.0929 102.553 37.8083 102.796C37.8083 102.796 37.9138 100.863 37.8505 100.345Z" fill="#FFC18F"/>
<path d="M34.2056 45.925C34.2056 45.925 35.1319 50.0989 34.2056 53.2551C34.2056 53.2551 36.1417 50.5467 34.2056 45.925Z" fill="#FFB994"/>
<path d="M34.1724 55.4775C34.1724 55.4775 29.8598 63.3949 31.5793 75.8615C31.5793 75.8615 31.7978 62.6514 34.1724 55.4775Z" fill="#FFB994"/>
<path d="M50.4947 55.0353C50.4947 55.0353 49.002 56.0127 48.502 56.1729C48.0732 56.3102 48.69 56.8684 49.5164 56.2754C50.3431 55.6825 50.4947 55.0353 50.4947 55.0353Z" fill="#B65E5A"/>
<path d="M50.5357 55.6334C50.5357 55.6334 49.3556 56.9719 48.916 57.2589C48.5389 57.5051 49.2817 57.8797 49.9213 57.0887C50.5611 56.2977 50.5357 55.6334 50.5357 55.6334Z" fill="#B65E5A"/>
<path d="M66.6999 20.114C67.5446 20.0139 72.8241 22.833 73.0786 24.9653C73.2636 26.515 72.2526 27.9803 72.2349 29.5409C72.2283 30.1347 72.3913 30.7667 72.837 31.1589C73.2529 31.5249 73.8388 31.6235 74.3095 31.9154C75.5806 32.7034 75.6038 34.5196 75.41 36.0025C75.1255 38.1785 74.6962 40.3354 74.1255 42.4546C73.7774 43.7475 73.1423 45.2441 71.8215 45.4642C70.6385 45.6613 69.5951 44.7006 68.429 44.4196C67.4179 44.1759 66.3658 44.4555 65.3411 44.6335C63.9402 44.8768 62.5064 44.9285 61.0916 44.7871C59.018 44.5798 56.6881 43.6719 56.1018 41.6721C55.594 39.9402 56.6131 38.1565 57.6679 36.692C58.7227 35.2276 59.9158 33.6412 59.7967 31.8404C59.7206 30.6898 59.1103 29.6544 58.7116 28.5724C58.2798 27.4012 58.091 26.141 58.1607 24.8947C58.2417 23.4443 58.7912 21.7785 60.1533 21.2734C61.0098 20.9556 63.7346 21.103 64.6447 22.2392C64.6447 22.2392 64.9237 20.3245 66.6999 20.114Z" fill="#441B15"/>
<path d="M69.663 32.2441C71.4041 31.6527 77.3364 40.2665 78.4587 41.1286L83.3286 33.4005L85.0116 33.7009C85.0116 33.7009 81.4886 43.9304 79.4687 44.5316C77.4486 45.1328 69.8674 37.2422 69.8674 37.2422C69.8674 37.2422 68.1617 32.7541 69.663 32.2441Z" fill="#FFC18F"/>
<path d="M71.033 36.9554C70.9373 36.3546 70.7745 35.7507 70.4723 35.2202C70.4425 35.1678 70.3662 35.2042 70.3782 35.2599C70.4984 35.8208 70.663 36.3664 70.7535 36.9342C70.843 37.4948 70.7787 38.0851 70.898 38.6337C70.9186 38.7278 71.0559 38.7198 71.0807 38.6337C71.2317 38.1114 71.1173 37.485 71.033 36.9554Z" fill="#B65E5A"/>
<path d="M69.6631 32.2441C69.6631 32.2441 61.9355 33.7799 59.7173 34.2877C57.4992 34.7954 56.575 44.7829 55.9018 46.1142C55.2284 47.4455 51.1216 53.5537 51.1216 53.5537L52.3108 54.4415C52.3108 54.4415 57.2175 50.0265 57.9626 48.6798C58.7076 47.3332 58.8198 45.8808 58.8198 45.8808L61.035 39.0964L62.6353 43.3426L70.2104 42.0574C70.2104 42.0574 72.0526 39.2692 69.6631 32.2441Z" fill="#FFC18F"/>
<path d="M62.1208 39.3607C61.8233 39.1009 61.3543 38.9086 60.9728 39.079C60.9101 39.1071 60.9337 39.2001 60.9908 39.2173C61.3362 39.321 61.6654 39.3377 61.9432 39.6022C62.0721 39.7248 62.1696 39.8736 62.2336 40.039C62.2898 40.1844 62.288 40.3434 62.3756 40.4725C62.4165 40.5325 62.5177 40.547 62.5552 40.4725C62.7338 40.1164 62.3852 39.5917 62.1208 39.3607Z" fill="#B65E5A"/>
<path d="M67.7477 38.0726C67.644 37.539 67.5354 36.8595 67.1838 36.4302C67.1568 36.3974 67.0981 36.4244 67.1001 36.465C67.126 36.9922 67.3858 37.5236 67.4884 38.0459C67.6168 38.7008 67.6264 39.3364 67.6579 39.9978C67.6657 40.1623 67.9005 40.1606 67.9121 39.9978C67.9578 39.3638 67.8688 38.6957 67.7477 38.0726Z" fill="#B65E5A"/>
<path d="M58.285 95.4414C58.285 95.4414 56.9184 95.7425 56.4111 96.4413C55.904 97.1404 55.9495 100.357 56.1977 100.666C56.4459 100.976 59.3792 103.835 59.8245 104.099C60.2699 104.364 60.6218 103.502 59.815 102.64C59.0081 101.779 59.0585 101.273 59.0585 101.273C59.0585 101.273 56.7581 100.319 58.285 95.4414Z" fill="#373A52"/>
<path d="M66.1098 64.3373C66.1098 64.3373 70.6412 75.0039 72.4368 79.2583C72.4368 79.2583 61.8396 89.6762 58.2852 95.4412C58.2852 95.4412 57.0522 98.6626 57.3981 99.5589C57.744 100.455 59.0588 101.273 59.0588 101.273C59.0588 101.273 59.0378 98.9273 59.6707 96.7526C59.6707 96.7526 75.1083 82.8194 77.3254 79.258C78.3354 77.6355 73.3874 62.5134 73.3874 62.5134L66.1098 64.3373Z" fill="#FFC18F"/>
<path d="M56.5861 96.2406C56.5861 96.2406 54.8678 98.2949 54.1484 98.8158L54.5028 99.1512C54.5028 99.1512 56.0261 97.9704 56.9638 96.888L56.5861 96.2406Z" fill="#373A52"/>
<path d="M62.4515 98.767C62.4515 98.767 61.6659 99.925 61.7781 100.781C61.8902 101.638 64.1347 103.942 64.5276 103.996C64.9203 104.051 69.0166 104.11 69.5217 103.996C70.0268 103.882 69.6901 103.014 68.5118 102.943C67.3334 102.872 67.0228 102.47 67.0228 102.47C67.0228 102.47 64.696 103.359 62.4515 98.767Z" fill="#373A52"/>
<path d="M57.9624 62.1912C57.9624 62.1912 62.6012 71.7956 64.8643 76.2645C64.8643 76.2645 61.0697 92.1367 62.4514 98.767C62.4514 98.767 63.7704 101.954 64.6379 102.367C65.5052 102.78 67.0224 102.471 67.0224 102.471C67.0224 102.471 65.3943 100.781 64.3592 98.767C64.3592 98.767 68.2026 79.4523 68.9741 76.2645C69.7459 73.0767 65.0444 60.6199 65.0444 60.6199L57.9624 62.1912Z" fill="#FFC18F"/>
<path d="M61.7671 100.516C61.7671 100.516 61.9314 103.189 61.7671 104.061H62.255C62.255 104.061 62.5496 102.157 62.4865 100.726L61.7671 100.516Z" fill="#373A52"/>
<path d="M65.6652 35.1576C64.535 35.2905 63.9597 34.3706 63.7674 33.1504C63.5636 31.8572 63.4673 30.5883 63.4673 30.5883L63.4677 30.5888L66.637 31.8692L66.6908 32.6729C66.6908 32.6729 66.9381 35.0077 65.6652 35.1576Z" fill="#FFC18F"/>
<path d="M66.6375 31.8692L66.7035 32.8433C66.7035 32.8433 63.8185 33.4222 63.4829 30.7078L66.6375 31.8692Z" fill="#0D0000"/>
<path d="M68.1794 27.5981C68.1794 27.5981 68.3625 26.9471 69.0003 27.056C69.6381 27.1648 69.7048 29.785 68.1382 29.6374L68.1794 27.5981Z" fill="#B65E5A"/>
<path d="M62.0583 27.5809C62.3582 29.0572 63.2671 31.6683 65.9182 32.007C67.3596 32.1901 68.4758 31.5059 68.8905 29.8546C68.9251 29.7177 68.9452 29.5792 68.967 29.4421C68.9668 29.4403 68.9681 29.4365 68.9679 29.4347C68.9938 29.2717 69.0141 29.1078 69.033 28.9477C69.0339 28.9403 69.035 28.9347 69.0357 28.9274C69.0406 28.8814 69.044 28.8375 69.0491 28.7933C69.0569 28.7144 69.0631 28.6375 69.0694 28.5605C69.0712 28.5458 69.0712 28.5331 69.0714 28.5204C69.132 27.7221 69.1077 27.0236 69.0734 26.6639C69.0614 26.5439 69.0484 26.4171 69.0312 26.2868C68.8829 25.0971 68.3397 23.2797 65.7935 23.0486C63.9776 22.8854 61.9068 24.733 61.9225 26.696C61.9225 26.696 61.9508 27.0493 62.0583 27.5809Z" fill="#FFC18F"/>
<path d="M65.5879 27.9665C65.5888 28.1752 65.4974 28.3447 65.3836 28.3453C65.2699 28.3458 65.1769 28.1772 65.1758 27.9685C65.1749 27.7597 65.2663 27.5903 65.3801 27.5896C65.494 27.5892 65.587 27.758 65.5879 27.9665Z" fill="#0D0000"/>
<path d="M68.0962 27.8334C68.0971 28.0421 68.0057 28.2116 67.8919 28.2122C67.7782 28.2127 67.6852 28.0439 67.6841 27.8354C67.6832 27.6266 67.7746 27.4572 67.8884 27.4565C68.0023 27.456 68.0953 27.6248 68.0962 27.8334Z" fill="#0D0000"/>
<path d="M66.8589 26.3586C66.8553 26.4797 67.5268 26.5981 67.9262 26.6102C68.3256 26.6222 68.4661 26.5283 68.4699 26.4073C68.4734 26.2862 67.9882 26.1733 67.5888 26.1613C67.1892 26.149 66.8625 26.2376 66.8589 26.3586Z" fill="#441B15"/>
<path d="M65.9752 26.4715C65.9983 26.5903 65.355 26.8162 64.9627 26.8929C64.5705 26.9696 64.4166 26.8996 64.3934 26.7808C64.3702 26.6619 64.8307 26.4719 65.223 26.3952C65.615 26.3183 65.952 26.3526 65.9752 26.4715Z" fill="#441B15"/>
<path d="M66.4505 29.5589C66.5285 29.5387 66.9319 29.4325 66.9534 29.3404C66.9661 29.2864 66.8378 29.1263 66.8055 29.0659C66.6722 28.8166 66.5888 28.5496 66.5399 28.272C66.5198 28.1581 66.6982 28.1349 66.7181 28.2488C66.7587 28.4805 66.8256 28.704 66.9295 28.9154C66.9861 29.0304 67.1681 29.2075 67.1505 29.3516C67.1224 29.5817 66.6461 29.6927 66.4737 29.7373C66.3622 29.7661 66.3399 29.5877 66.4505 29.5589Z" fill="#B65E5A"/>
<path d="M65.353 30.2121C65.353 30.2121 66.7142 30.2092 67.4628 30.0181C67.4628 30.0181 67.5864 30.9393 66.4161 30.9643C65.4478 30.985 65.353 30.2121 65.353 30.2121Z" fill="white"/>
<path d="M65.1761 29.0433C65.1781 29.2385 64.8645 29.3999 64.4756 29.4039C64.0867 29.4082 63.7696 29.2534 63.7676 29.0585C63.7656 28.8636 64.0791 28.7019 64.468 28.6979C64.8572 28.6937 65.174 28.8484 65.1761 29.0433Z" fill="#B65E5A"/>
<path d="M68.0298 29.1185C68.0318 29.3141 68.3494 29.4684 68.7385 29.4646C68.8181 29.4633 68.895 29.455 68.9675 29.4418C68.9673 29.4401 68.9686 29.4363 68.9684 29.4345C68.9943 29.2715 69.0146 29.1076 69.0335 28.9475C69.0344 28.9401 69.0355 28.9345 69.0362 28.9272C69.0411 28.8812 69.0444 28.8373 69.0496 28.7931C68.9539 28.7695 68.8435 28.7566 68.7296 28.7588C68.3402 28.7626 68.0278 28.9231 68.0298 29.1185Z" fill="#B65E5A"/>
<path d="M62.4019 27.3022C62.4019 27.3022 62.0254 26.6131 61.3319 26.9019C60.6382 27.1907 61.2438 30.1737 62.9785 29.5995L62.4019 27.3022Z" fill="#FFC18F"/>
<path d="M61.6211 28.4515C61.7246 28.4459 61.8218 28.4578 61.9164 28.4854C61.868 28.2727 61.7852 27.9995 61.6164 27.9266C61.5103 27.8809 61.5796 27.715 61.6862 27.7609C61.9821 27.8887 62.0693 28.3369 62.128 28.6192C62.1411 28.683 62.0624 28.745 62.004 28.7138C61.8889 28.6524 61.7754 28.6228 61.6443 28.6299C61.5297 28.6359 61.5054 28.4578 61.6211 28.4515Z" fill="#B65E5A"/>
<path d="M63.1239 49.1731L61.1963 41.1286C61.1963 41.1286 64.0177 37.5441 65.2341 37.2424C66.4506 36.9407 67.8096 39.2512 67.8096 39.2512C67.8096 39.2512 68.7589 36.723 69.5686 36.6635C70.3783 36.6039 71.725 39.8113 71.9495 40.7328C72.1741 41.6542 70.1539 43.8017 70.1539 43.8017C70.1539 43.8017 70.3785 47.7142 70.4907 48.612C70.6028 49.5098 76.1018 66.3434 76.1018 66.3434C76.1018 66.3434 73.9695 66.7923 71.6128 69.0368C69.2562 71.2813 66.9354 68.139 65.2341 68.4758C63.5326 68.8125 62.9845 70.8324 61.1265 70.4959C59.2682 70.1592 58.9317 67.01 56.4626 67.4063C56.4626 67.4063 56.3181 58.7122 63.1239 49.1731Z" fill="#923D40"/>
<path d="M62.6354 59.9465C62.6354 59.9465 60.4313 65.6138 61.1966 68.4756C61.1966 68.4756 62.6354 62.191 62.6354 59.9465Z" fill="#85383A"/>
<path d="M65.7332 60.6199C65.7332 60.6199 65.7029 65.0746 66.2822 66.9607C66.2822 66.9607 66.8674 63.4817 65.7332 60.6199Z" fill="#85383A"/>
<path d="M69.1945 60.3698C69.1945 60.3698 68.6952 67.0729 70.2103 68.4756C70.2103 68.4756 70.0306 62.1957 69.1945 60.3698Z" fill="#85383A"/>
<path d="M71.7256 61.181C71.7256 61.181 72.1027 64.5826 73.5212 65.67C73.5212 65.67 72.455 62.3033 71.7256 61.181Z" fill="#85383A"/>
<path d="M63.124 49.1731L65.8355 48.2535L64.2223 49.5422L65.5636 50.3521C65.5636 50.3521 63.9808 50.7225 63.124 49.1731Z" fill="#85383A"/>
<path d="M65.8984 77.4776C65.5613 76.9696 65.2493 76.3439 64.7906 75.936C64.7201 75.8734 64.5894 75.9325 64.6224 76.0339C64.812 76.6162 65.2555 77.1494 65.5856 77.6605C65.7118 77.8561 66.0276 77.6723 65.8984 77.4776Z" fill="#B65E5A"/>
<path d="M67.204 84.6417C67.204 84.6417 66.682 88.5915 65.9287 90.9807C65.9287 90.9807 68.0642 87.6259 67.204 84.6417Z" fill="#B65E5A"/>
<path d="M62.4702 89.9177L62.1551 94.4856C62.1551 94.4856 61.2816 92.6668 62.4702 89.9177Z" fill="#B65E5A"/>
<path d="M72.8637 79.7201C72.7339 79.4672 72.6099 79.207 72.4547 78.9686C72.3867 78.8642 72.194 78.9282 72.2419 79.0583C72.3332 79.3049 72.4549 79.5393 72.5698 79.7754C72.6668 79.9748 72.7406 80.2558 72.9433 80.3648C72.9877 80.3887 73.0644 80.3713 73.0726 80.3122C73.1043 80.0912 72.9629 79.9135 72.8637 79.7201Z" fill="#B65E5A"/>
<path d="M70.1541 43.8015C70.1541 43.8015 67.5066 44.2912 65.8354 44.2069C65.8354 44.2069 66.3865 45.2584 70.1991 44.5642L70.1541 43.8015Z" fill="#85383A"/>
<path d="M67.2188 24.2979C66.9434 24.6554 66.5531 24.9214 66.1691 25.1803C65.8973 25.3636 65.6236 25.5474 65.3226 25.6865C64.8585 25.9006 64.3847 26.131 63.8715 26.2039C63.0275 26.3237 62.8288 27.566 62.5297 27.8106C62.1462 27.9674 61.8016 26.7935 61.7 26.4004C61.4649 25.4903 61.801 24.5022 62.4517 23.7837C63.1024 23.065 64.0361 22.5971 65.0137 22.3413C65.6274 22.1808 66.9119 21.9207 67.4366 22.4098C67.9136 22.854 67.5443 23.8756 67.2188 24.2979Z" fill="#441B15"/>
<path d="M51.0036 54.7807C51.0036 54.7807 49.9616 57.1148 49.5769 57.6072C49.2468 58.0296 50.0144 58.0914 50.6319 57.0386C52.0513 54.6188 51.0036 54.7807 51.0036 54.7807Z" fill="#B65E5A"/>
<path d="M49.6754 55.5888C49.2506 56.2522 48.0312 56.9313 48.1302 57.1411C48.2292 57.3507 48.7863 57.4642 50.9955 55.9293C50.9955 55.9293 50.7806 57.0929 51.1989 57.1313C51.6173 57.1697 51.4968 55.2331 52.3106 54.4415L51.1213 53.5537C50.5605 54.1237 50.0951 54.9334 49.6754 55.5888Z" fill="#FFC18F"/>
<path d="M83.4766 33.6459C83.2248 33.4215 83.1818 32.7064 83.2987 32.022C83.364 31.6389 83.6802 30.537 83.9567 30.3771C84.2333 30.2172 84.0475 31.1915 84.0132 31.392C83.979 31.5927 84.0294 31.7421 84.0294 31.7421C84.0294 31.7421 84.6271 29.5424 84.8606 29.4405C85.094 29.3386 84.8784 30.6262 84.8231 30.9442C84.8231 30.9442 85.3648 29.313 85.5336 29.296C85.8725 29.2617 85.3231 31.0909 85.3231 31.0909C85.3231 31.0909 85.848 29.7429 86.0654 29.839C86.2958 29.9407 85.7298 31.3831 85.7298 31.3831C85.7298 31.3831 86.1994 30.5562 86.4236 30.5528C86.6477 30.5495 86.0708 31.7463 85.8794 32.1054C85.6865 32.4673 85.59 33.407 84.4935 34.1213C84.2629 34.2711 83.963 34.0796 83.4766 33.6459Z" fill="#FFC18F"/>
<path d="M84.0688 31.7122C84.2109 31.8177 84.3043 31.9838 84.3489 32.1538C84.3839 32.2871 84.418 32.5148 84.2945 32.6103C84.2825 32.6196 84.2624 32.621 84.2546 32.6047C84.2017 32.4963 84.2397 32.3603 84.2171 32.2419C84.1843 32.0695 84.0969 31.9455 83.9912 31.8108C83.9511 31.7597 84.0059 31.6656 84.0688 31.7122Z" fill="#B65E5A"/>
<path d="M84.6983 30.9935C85.0435 30.894 85.5285 31.1046 85.743 31.3793C85.7714 31.4156 85.7337 31.4796 85.6886 31.4484C85.5339 31.3412 85.3874 31.2352 85.2067 31.1735C85.0393 31.1162 84.8678 31.1166 84.6965 31.0845C84.6481 31.0753 84.6568 31.0055 84.6983 30.9935Z" fill="#B65E5A"/>
<path d="M78.4515 40.9886C78.2987 41.1132 78.1769 41.2927 78.061 41.4517C77.9593 41.5911 77.8226 41.7521 77.8364 41.9347C77.8387 41.9633 77.8652 41.9912 77.8964 41.9805C78.0677 41.9216 78.1638 41.7499 78.2719 41.6145C78.3968 41.4582 78.546 41.313 78.6551 41.1458C78.7411 41.014 78.558 40.9016 78.4515 40.9886Z" fill="#B65E5A"/>
<path d="M56.2143 45.5703C55.841 45.9887 55.7951 46.6996 55.7654 47.2368C55.7551 47.4234 56.0477 47.4239 56.0562 47.2368C56.0702 46.9273 56.1026 46.6218 56.1592 46.3171C56.204 46.0756 56.2727 45.8352 56.2582 45.5884C56.2569 45.5679 56.2299 45.5527 56.2143 45.5703Z" fill="#B65E5A"/>
<path d="M69.55 50.1467L63.5107 56.9605C63.5107 56.9605 67.5085 54.7465 69.55 50.1467Z" fill="#85383A"/>
<path d="M69.7606 52.2538L67.3481 56.7359C67.3481 56.7359 70.199 55.191 69.7606 52.2538Z" fill="#85383A"/>
<path d="M108.47 22.5796C108.095 21.3799 106.738 20.7742 105.489 20.6311C103.687 20.4243 101.572 21.0973 100.924 22.7915C100.492 23.9176 100.808 25.2233 100.384 26.3519C99.8969 27.6482 98.5805 28.3952 97.441 29.182C95.7796 30.3291 94.3027 31.7924 93.3589 33.5771C92.859 34.5222 92.5095 35.6175 92.7629 36.6563C93.0088 37.6647 93.7797 38.4566 94.5828 39.114C97.2659 41.3107 100.686 42.5905 104.152 42.6949C105.182 42.7259 106.272 42.6378 107.126 42.0593C108.5 41.1281 108.824 39.2776 109.03 37.6306C109.216 36.1469 109.401 34.6633 109.587 33.1797C110.499 33.0856 111.194 32.4008 111.635 31.596C112.075 30.7912 112.229 29.8633 112.327 28.9512C112.45 27.8041 112.496 26.6487 112.465 25.4954C112.446 24.794 112.395 24.0809 112.144 23.4257C111.893 22.7705 111.413 22.1727 110.754 21.9311C110.095 21.6899 108.84 21.9835 108.47 22.5796Z" fill="#441B15"/>
<path d="M89.178 38.3897C89.178 38.3897 87.6027 37.9789 87.3628 37.6658C87.1228 37.3529 86.8637 36.6759 87.047 36.4313C87.2303 36.1866 87.4997 36.1452 87.4997 36.1452C87.4997 36.1452 87.1264 35.7551 87.2658 35.6412C87.4049 35.5272 87.98 35.5016 87.98 35.5016C87.98 35.5016 86.4186 33.9829 86.8318 33.6712C87.1083 33.4627 88.9911 35.0966 89.2737 35.4766C89.5562 35.8568 89.7888 36.7867 90.0176 37.2017L89.178 38.3897Z" fill="#FFC18F"/>
<path d="M90.0178 37.202C90.0178 37.202 89.5332 35.3859 89.4681 35.216C89.403 35.046 88.8961 34.8172 88.7574 34.8627C88.6187 34.9082 88.0041 35.74 88.2815 35.945C88.5587 36.1499 88.9385 35.6889 88.9385 35.6889C88.9385 35.6889 89.2163 37.4446 90.0178 37.202Z" fill="#FFC18F"/>
<path d="M88.9932 35.6903C88.9645 35.6372 88.8726 35.6151 88.8289 35.6845C88.7624 35.7902 88.6783 35.8803 88.5749 35.9505C88.5325 35.9795 88.4569 36.0433 88.4074 36.017C88.359 35.9913 88.3702 35.9168 88.3735 35.8649C88.3862 35.6555 88.4955 35.4619 88.5943 35.2822C88.6503 35.1803 88.4901 35.0971 88.4339 35.1992C88.3835 35.2911 88.3191 35.408 88.2676 35.5331C88.2101 35.4934 88.1489 35.4621 88.0789 35.4463C87.9654 35.4209 87.9257 35.5971 88.0392 35.6225C88.101 35.6363 88.151 35.6606 88.1989 35.7023C88.2023 35.7052 88.206 35.7059 88.2094 35.7083C88.1699 35.8584 88.1634 36.0087 88.2368 36.132C88.2979 36.2346 88.3905 36.2458 88.4901 36.2101C88.5492 36.3131 88.6135 36.4654 88.4848 36.5111C88.3963 36.5426 88.2754 36.4908 88.182 36.4924C88.1717 36.4926 88.1634 36.4955 88.1552 36.4984C88.0036 36.3301 87.7402 36.2703 87.5402 36.1771C87.4351 36.1282 87.3513 36.2881 87.457 36.3374C87.5937 36.401 87.7438 36.4364 87.876 36.5089C87.9723 36.5618 88.0878 36.6525 88.091 36.7752C88.0939 36.8911 88.0009 36.9765 87.8916 36.9888C87.7765 37.0017 87.7823 37.1821 87.8979 37.1692C88.1304 37.1433 88.3222 36.9335 88.2596 36.6907C88.258 36.6851 88.2551 36.6808 88.2535 36.6755C88.4045 36.6878 88.5604 36.735 88.6708 36.5923C88.7852 36.4445 88.7305 36.2703 88.6478 36.1231C88.7424 36.0544 88.8327 35.9637 88.8993 35.8858C88.9417 36.3127 88.9926 37.1273 89.4758 37.1543C89.592 37.1607 89.5846 36.9803 89.4696 36.9739C89.138 36.9554 89.0978 36.002 89.0679 35.7699C89.0617 35.7239 89.0291 35.6983 88.9932 35.6903Z" fill="#B65E5A"/>
<path d="M102.678 33.8724C102.678 33.8724 100.447 34.0508 99.7453 34.9767C99.044 35.9026 100.727 43.4215 100.727 43.4215L90.0178 37.202L89.1782 38.3895C89.1782 38.3895 99.8013 47.8821 101.032 46.9843C102.515 45.9037 102.678 44.2909 102.576 42.3832C102.47 40.3982 102.678 33.8724 102.678 33.8724Z" fill="#FFC18F"/>
<path d="M105.552 35.1575C106.682 35.2904 107.257 34.3706 107.45 33.1503C107.654 31.8571 107.75 30.5883 107.75 30.5883L107.749 30.5887L104.58 31.8692L104.526 32.6729C104.526 32.6729 104.279 35.0077 105.552 35.1575Z" fill="#FFC18F"/>
<path d="M104.58 31.8691L104.514 32.8432C104.514 32.8432 107.399 33.4221 107.735 30.7078L104.58 31.8691Z" fill="#0D0000"/>
<path d="M103.038 27.598C103.038 27.598 102.855 26.9471 102.217 27.0559C101.579 27.1647 101.513 29.785 103.079 29.6374L103.038 27.598Z" fill="#B65E5A"/>
<path d="M102.086 29.1013C101.697 29.1013 101.696 29.7069 102.086 29.7069C102.476 29.7069 102.477 29.1013 102.086 29.1013Z" fill="white"/>
<path d="M109.159 27.5809C108.859 29.0572 107.95 31.6683 105.299 32.007C103.857 32.1901 102.741 31.5059 102.327 29.8546C102.292 29.7177 102.272 29.5792 102.25 29.4421C102.25 29.4403 102.249 29.4365 102.249 29.4347C102.223 29.2717 102.203 29.1078 102.184 28.9477C102.183 28.9403 102.182 28.9347 102.181 28.9274C102.176 28.8814 102.173 28.8375 102.168 28.7933C102.16 28.7144 102.154 28.6375 102.148 28.5605C102.146 28.5458 102.146 28.5331 102.146 28.5204C102.085 27.7221 102.109 27.0236 102.143 26.6639C102.156 26.5439 102.168 26.4171 102.186 26.2868C102.334 25.0971 102.877 23.2797 105.423 23.0486C107.239 22.8854 109.31 24.733 109.294 26.696C109.294 26.696 109.266 27.0493 109.159 27.5809Z" fill="#FFC18F"/>
<path d="M105.629 27.9664C105.629 28.1751 105.72 28.3446 105.834 28.3453C105.947 28.3457 106.04 28.1771 106.042 27.9684C106.042 27.7597 105.951 27.5902 105.837 27.5895C105.723 27.5891 105.63 27.7579 105.629 27.9664Z" fill="#0D0000"/>
<path d="M103.121 27.8333C103.12 28.042 103.212 28.2115 103.325 28.2122C103.439 28.2126 103.532 28.0438 103.533 27.8353C103.534 27.6266 103.443 27.4571 103.329 27.4564C103.215 27.456 103.122 27.6248 103.121 27.8333Z" fill="#0D0000"/>
<path d="M104.359 26.3586C104.362 26.4797 103.691 26.5981 103.291 26.6101C102.892 26.6222 102.751 26.5283 102.748 26.4072C102.744 26.2861 103.229 26.1733 103.629 26.1612C104.028 26.149 104.355 26.2375 104.359 26.3586Z" fill="#441B15"/>
<path d="M105.242 26.4715C105.219 26.5903 105.862 26.8162 106.255 26.8929C106.647 26.9696 106.801 26.8996 106.824 26.7808C106.847 26.6619 106.387 26.4719 105.994 26.3952C105.602 26.3183 105.266 26.3526 105.242 26.4715Z" fill="#441B15"/>
<path d="M104.767 29.5589C104.689 29.5386 104.285 29.4324 104.264 29.3403C104.251 29.2864 104.379 29.1263 104.412 29.0658C104.545 28.8165 104.629 28.5496 104.677 28.272C104.697 28.158 104.519 28.1348 104.499 28.2488C104.459 28.4805 104.392 28.7039 104.288 28.9153C104.231 29.0304 104.049 29.2074 104.067 29.3515C104.095 29.5816 104.571 29.6927 104.743 29.7373C104.855 29.7661 104.877 29.5876 104.767 29.5589Z" fill="#B65E5A"/>
<path d="M105.864 30.212C105.864 30.212 104.503 30.2091 103.754 30.018C103.754 30.018 103.631 30.9392 104.801 30.9642C105.769 30.9849 105.864 30.212 105.864 30.212Z" fill="white"/>
<path d="M106.042 29.0433C106.04 29.2385 106.353 29.3999 106.742 29.4039C107.131 29.4082 107.448 29.2534 107.45 29.0585C107.452 28.8636 107.138 28.7019 106.75 28.6979C106.361 28.6937 106.044 28.8484 106.042 29.0433Z" fill="#B65E5A"/>
<path d="M103.188 29.1184C103.186 29.314 102.868 29.4683 102.479 29.4645C102.4 29.4632 102.323 29.4549 102.25 29.4418C102.25 29.44 102.249 29.4362 102.249 29.4344C102.223 29.2714 102.203 29.1075 102.184 28.9474C102.183 28.94 102.182 28.9345 102.181 28.9271C102.176 28.8812 102.173 28.8372 102.168 28.7931C102.263 28.7694 102.374 28.7565 102.488 28.7587C102.878 28.7625 103.19 28.9231 103.188 29.1184Z" fill="#B65E5A"/>
<path d="M108.815 27.3021C108.815 27.3021 109.192 26.613 109.885 26.9018C110.579 27.1906 109.974 30.1737 108.239 29.5995L108.815 27.3021Z" fill="#FFC18F"/>
<path d="M109.184 29.3047C108.794 29.3047 108.794 29.9104 109.184 29.9104C109.574 29.9106 109.575 29.3047 109.184 29.3047Z" fill="white"/>
<path d="M109.596 28.4515C109.493 28.4459 109.396 28.4577 109.301 28.4854C109.35 28.2726 109.432 27.9994 109.601 27.9265C109.707 27.8808 109.638 27.7149 109.531 27.7608C109.235 27.8886 109.148 28.3368 109.089 28.6192C109.076 28.6829 109.155 28.7449 109.213 28.7137C109.328 28.6524 109.442 28.6227 109.573 28.6299C109.688 28.6359 109.712 28.4577 109.596 28.4515Z" fill="#B65E5A"/>
<path d="M101.032 40.1204C101.032 40.1204 101.645 34.9941 102.168 34.1717C102.691 33.3492 109.619 33.0016 111.738 32.6704C113.857 32.3393 121.617 14.6975 122.066 13.2386L123.449 13.688C123.449 13.688 121.488 23.6726 120.254 24.976C119.02 26.2795 114.362 36.923 112.146 40.5229L101.032 40.1204Z" fill="#FFC18F"/>
<path d="M112.975 37.1277C112.304 36.7225 111.405 37.084 110.953 37.6536C110.457 38.2791 110.2 39.3894 110.39 40.1639C110.41 40.2442 110.525 40.2386 110.547 40.1639C110.756 39.477 110.613 38.7541 110.976 38.0902C111.415 37.2863 112.118 37.1766 112.95 37.2189C113 37.2216 113.015 37.1518 112.975 37.1277Z" fill="#B65E5A"/>
<path d="M104.947 35.8979C104.927 35.7801 104.739 35.7857 104.714 35.8979C104.576 36.5352 104.43 37.1848 104.349 37.8324C104.279 38.3935 104.151 39.1051 104.396 39.6322C104.442 39.7312 104.586 39.694 104.614 39.6037C104.704 39.3185 104.664 39.0511 104.668 38.7525C104.673 38.3596 104.701 37.966 104.759 37.5775C104.842 37.0229 105.044 36.4598 104.947 35.8979Z" fill="#B65E5A"/>
<path d="M103.154 100.516C103.154 100.516 103.319 103.189 103.154 104.061H103.642C103.642 104.061 103.937 102.157 103.874 100.726L103.154 100.516Z" fill="#373A52"/>
<path d="M103.198 98.7669C103.198 98.7669 103.984 99.9249 103.872 100.781C103.759 101.638 101.515 103.942 101.122 103.996C100.73 104.05 96.6333 104.11 96.1282 103.996C95.6231 103.882 95.9598 103.014 97.1381 102.943C98.3165 102.872 98.6271 102.47 98.6271 102.47C98.6271 102.47 100.954 103.359 103.198 98.7669Z" fill="#373A52"/>
<path d="M108.783 62.1911C108.783 62.1911 103.049 71.7955 100.786 76.2644C100.786 76.2644 104.58 92.1367 103.198 98.7669C103.198 98.7669 101.879 101.954 101.012 102.367C100.145 102.78 98.6274 102.471 98.6274 102.471C98.6274 102.471 100.256 100.781 101.291 98.7669C101.291 98.7669 97.4473 79.4522 96.6757 76.2644C95.9041 73.0767 101.701 60.6199 101.701 60.6199L108.783 62.1911Z" fill="#FFC18F"/>
<path d="M99.7511 77.4776C100.088 76.9696 100.4 76.3438 100.859 75.936C100.929 75.8733 101.06 75.9324 101.027 76.0339C100.838 76.6161 100.394 77.1493 100.064 77.6604C99.9376 77.856 99.622 77.6722 99.7511 77.4776Z" fill="#B65E5A"/>
<path d="M120.43 97.4592C120.43 97.4592 121.957 99.6596 122.269 100.491L122.686 100.238C122.686 100.238 121.95 98.4567 121.154 97.2661L120.43 97.4592Z" fill="#373A52"/>
<path d="M119.561 95.9415C119.561 95.9415 120.833 96.5242 121.181 97.3148C121.529 98.1051 120.806 101.24 120.498 101.49C120.19 101.74 116.719 103.915 116.228 104.079C115.737 104.243 115.575 103.327 116.545 102.655C117.516 101.983 117.573 101.479 117.573 101.479C117.573 101.479 120.023 101.032 119.561 95.9415Z" fill="#373A52"/>
<path d="M112.375 64.4227C112.375 64.4227 107.875 73.0769 109.051 78.9163C109.051 78.9163 117.304 89.5559 119.561 95.9415C119.561 95.9415 120.085 99.3507 119.558 100.154C119.031 100.957 117.573 101.479 117.573 101.479C117.573 101.479 118.089 99.1899 117.93 96.9307C117.93 96.9307 106.72 82.8255 104.784 80.3754C102.219 77.1292 104.94 65.2279 104.94 65.2279L112.375 64.4227Z" fill="#FFC18F"/>
<path d="M108.653 80.0929C108.632 79.4837 108.522 78.793 108.657 78.1945C108.678 78.1026 108.819 78.0745 108.851 78.1762C109.035 78.76 108.985 79.4518 109.014 80.0595C109.025 80.292 108.662 80.3262 108.653 80.0929Z" fill="#B65E5A"/>
<path d="M115.653 52.3573C115.428 50.6598 112.146 40.5229 112.146 40.5229C110.272 40.3652 109.311 37.6558 109.123 37.0635C109.281 36.475 109.452 35.8936 109.695 35.3218C110.074 34.433 110.556 33.5978 111.12 32.814C111.22 32.6744 110.987 32.5384 110.889 32.6788C110.017 33.9221 109.233 35.4262 108.878 36.9598C107.869 37.0202 103.414 37.3268 100.826 38.1584C100.865 37.8993 100.871 37.6308 100.925 37.3743C101.001 37.0079 101.116 36.65 101.25 36.3006C101.498 35.6503 101.867 34.5206 102.478 34.1223C102.657 34.0052 102.489 33.7153 102.309 33.8338C101.946 34.0721 101.766 34.4169 101.576 34.798C101.331 35.2891 101.099 35.7879 100.915 36.3055C100.744 36.7874 100.615 37.2845 100.565 37.7942C100.56 37.852 100.523 38.0826 100.522 38.2612C100.515 38.2634 100.509 38.2657 100.502 38.2679C100.502 38.2679 100.166 42.1334 100.376 43.8014C100.479 44.6156 101.43 45.1403 102.377 45.4648C103.314 48.4008 104.233 51.2532 104.358 51.6791C104.611 52.5401 95.9653 68.7179 95.9653 68.7179C95.9653 68.7179 104.807 73.9747 112.398 71.9545C112.398 71.9545 116.1 55.7386 115.653 52.3573Z" fill="#2C4047"/>
<path d="M123.449 13.688C123.449 13.688 124.466 12.4164 124.471 12.0222C124.476 11.6279 124.279 10.9303 123.985 10.844C123.692 10.7577 123.452 10.8855 123.452 10.8855C123.452 10.8855 123.517 10.3497 123.338 10.3416C123.158 10.3336 122.682 10.6572 122.682 10.6572C122.682 10.6572 123.025 8.50612 122.507 8.50366C122.161 8.5021 121.629 10.9377 121.63 11.4114C121.631 11.885 122.001 12.7694 122.066 13.2388L123.449 13.688Z" fill="#FFC18F"/>
<path d="M122.066 13.2386C122.066 13.2386 121.368 11.4934 121.318 11.3182C121.269 11.1429 121.538 10.6565 121.677 10.6099C121.815 10.5633 122.805 10.8624 122.705 11.1924C122.606 11.5224 122.026 11.3804 122.026 11.3804C122.026 11.3804 122.853 12.9536 122.066 13.2386Z" fill="#FFC18F"/>
<path d="M121.983 11.4143C121.974 11.3545 122.034 11.282 122.111 11.3115C122.227 11.3563 122.349 11.3784 122.473 11.3728C122.525 11.3706 122.623 11.3766 122.647 11.326C122.671 11.2765 122.617 11.2234 122.584 11.1837C122.448 11.0236 122.245 10.9337 122.058 10.8487C121.952 10.8006 122.031 10.6382 122.137 10.6864C122.232 10.7297 122.354 10.785 122.47 10.8543C122.492 10.7881 122.522 10.7265 122.569 10.6719C122.645 10.5836 122.782 10.7009 122.706 10.7892C122.665 10.8372 122.64 10.8867 122.626 10.9487C122.625 10.9531 122.623 10.9558 122.621 10.9598C122.743 11.0566 122.838 11.173 122.853 11.3157C122.865 11.4346 122.798 11.4988 122.696 11.53C122.711 11.648 122.75 11.8083 122.881 11.768C122.97 11.7403 123.036 11.6266 123.112 11.5717C123.121 11.5657 123.129 11.5632 123.137 11.5603C123.158 11.3347 123.333 11.1293 123.438 10.9348C123.493 10.8329 123.656 10.9107 123.6 11.0135C123.529 11.1462 123.43 11.2646 123.367 11.4018C123.321 11.5017 123.283 11.6435 123.354 11.7436C123.421 11.8382 123.547 11.8511 123.641 11.7956C123.741 11.7372 123.845 11.885 123.744 11.9439C123.542 12.0623 123.263 12.009 123.168 11.7769C123.166 11.7715 123.166 11.7664 123.164 11.761C123.05 11.8614 122.954 11.9923 122.78 11.9441C122.6 11.8942 122.539 11.7218 122.518 11.5543C122.401 11.5559 122.274 11.5372 122.174 11.5146C122.396 11.8821 122.842 12.5652 122.471 12.8758C122.382 12.9505 122.28 12.8016 122.368 12.7275C122.623 12.5143 122.085 11.7265 121.97 11.5224C121.948 11.4823 121.959 11.4422 121.983 11.4143Z" fill="#B65E5A"/>
<path d="M102.377 45.4648C102.377 45.4648 108.348 44.3676 109.672 44.3014C109.672 44.3014 105.654 46.6384 102.377 45.4648Z" fill="#283940"/>
<path d="M106.5 50.9406L104.358 51.6791C104.358 51.6791 104.732 53.0448 106.131 53.1509C106.131 53.1509 105.721 52.4135 105.027 51.9717C105.027 51.9717 106.297 51.4807 106.5 50.9406Z" fill="#283940"/>
<path d="M97.0938 67.9004C97.0938 67.9004 102.694 72.0246 111.738 71.0987C111.738 71.0987 102.943 70.0468 97.0938 67.9004Z" fill="#283940"/>
<path d="M108.222 57.9022L100.792 63.1638C100.792 63.1638 105.188 61.9171 108.222 57.9022Z" fill="#283940"/>
<path d="M107.948 60.002L104.58 63.8177C104.58 63.8177 107.707 62.9621 107.948 60.002Z" fill="#283940"/>
<path d="M110.956 41.4702C110.956 41.4702 113.649 51.4379 113.818 53.0305C113.986 54.6232 111.276 70.0798 111.276 70.0798C111.276 70.0798 114.806 57.1893 114.603 53.0305C114.401 48.8718 110.956 41.4702 110.956 41.4702Z" fill="#334A52"/>
<path d="M120.47 24.4437C120.209 24.6799 119.948 24.9162 119.689 25.1544C119.49 25.3368 119.217 25.5105 119.057 25.7222C119.045 25.7387 119.052 25.7627 119.064 25.7766C119.077 25.7917 119.091 25.8071 119.104 25.8223C119.14 25.8633 119.198 25.86 119.242 25.8401C119.498 25.7264 119.708 25.4804 119.915 25.298C120.164 25.0779 120.412 24.856 120.661 24.6341C120.79 24.5184 120.599 24.3275 120.47 24.4437Z" fill="#B65E5A"/>
<path d="M111.058 39.8302C111.058 39.8864 111.058 39.9424 111.06 39.9986C111.06 40.0062 111.071 40.0062 111.072 39.9986C111.074 39.9424 111.074 39.8864 111.074 39.8302C111.074 39.8195 111.057 39.8195 111.058 39.8302Z" fill="#B65E5A"/>
<path d="M101.57 26.3635C103.352 26.3365 105.113 25.5913 106.392 24.3237C106.509 24.8567 106.628 25.3968 106.875 25.8814C107.121 26.366 107.514 26.7972 108.023 26.9656C108.694 27.1882 109.446 26.9105 109.986 26.4456C109.56 25.4311 109.083 24.3717 108.389 23.5252C108.042 23.1019 107.657 22.6981 107.181 22.4376C106.23 21.9184 105.059 22.0471 104.04 22.4061C103.506 22.5944 102.982 22.8486 102.578 23.2518C101.791 24.0365 101.732 25.2523 101.57 26.3635Z" fill="#441B15"/>
<path d="M108.878 26.1602C108.878 26.1602 108.453 27.4904 108.757 27.5372C109.06 27.584 109.551 26.3858 109.551 26.3858L108.878 26.1602Z" fill="#441B15"/>
<path d="M110.02 16.5025C110.573 16.0119 111.254 15.6934 111.984 15.6321C111.899 16.3613 112.084 17.1075 112.937 17.2317C114.086 17.3989 114.199 15.9675 113.341 15.4758C113.042 15.3043 112.709 15.2224 112.366 15.2068C112.671 13.946 113.874 12.8649 114.901 12.2603C115.011 12.1957 114.935 11.997 114.812 12.0485C113.639 12.54 112.711 13.5517 112.223 14.7169C112.161 14.8652 112.105 15.0335 112.061 15.2106C111.203 15.267 110.319 15.7023 109.747 16.2299C109.564 16.3992 109.835 16.6661 110.02 16.5025ZM112.301 15.6225C112.358 15.6238 112.415 15.6218 112.473 15.6263C112.719 15.6457 113.017 15.6997 113.226 15.8477C113.56 16.0837 113.73 16.6924 113.251 16.8519C112.71 17.0323 112.341 16.4674 112.3 16.021C112.288 15.8867 112.291 15.7541 112.301 15.6225Z" fill="#FFAE83"/>
<path d="M50.5227 15.8816C51.3844 16.3651 52.1878 15.0293 52.4385 14.4161C52.5395 14.1688 52.61 13.9152 52.6579 13.6599C53.7207 13.642 54.7798 14.249 55.4017 15.1241C55.7349 15.5928 55.9681 16.1677 56.0043 16.7504C55.1457 16.6062 53.867 16.7817 53.8891 17.7611C53.9085 18.6198 55.0639 18.9459 55.6682 18.4914C56.0928 18.1721 56.2852 17.6828 56.3265 17.1648C56.5236 17.2377 56.6958 17.3256 56.8164 17.4197C57.5193 17.9678 57.5492 18.7311 57.6948 19.531C57.6959 19.5377 57.7062 19.542 57.7104 19.535C58.2873 18.5639 57.3811 17.2682 56.4795 16.8804C56.4349 16.8613 56.3856 16.8432 56.333 16.8267C56.3176 16.4311 56.2259 16.0362 56.0914 15.7028C55.5527 14.3675 54.1268 13.3356 52.7047 13.3218C52.8938 11.4377 51.7338 9.52702 49.7937 9.04958C49.628 9.00877 49.5611 9.27949 49.717 9.33502C51.4167 9.94069 52.6113 11.4783 52.3767 13.337C51.8964 13.3872 51.4243 13.5595 50.9952 13.8849C50.5222 14.2441 49.7313 15.4374 50.5227 15.8816ZM56.0027 17.0646C55.9985 17.1289 55.9951 17.1931 55.9853 17.2569C55.9162 17.7093 55.6856 18.22 55.2157 18.3652C54.761 18.5059 54.1942 18.1663 54.266 17.6808C54.3741 16.95 55.2659 16.884 56.0027 17.0646ZM50.5512 15.1752C50.5236 15.0206 50.6801 14.7374 50.758 14.6128C50.9395 14.3226 51.2216 14.0956 51.5233 13.9402C51.7806 13.8077 52.048 13.7246 52.3183 13.6846C52.176 14.349 51.8529 15.0933 51.3023 15.4588C51.2158 15.5161 51.0942 15.5973 50.985 15.6007C50.8454 15.6051 50.5813 15.3433 50.5512 15.1752Z" fill="#2C4047"/>
<path d="M90.3333 43.3361C90.9339 42.573 92.1693 42.7654 92.7424 43.4801C93.0684 43.8869 93.2045 44.4042 93.1179 44.918C93.0082 45.571 92.4844 46.2328 92.6592 46.9145C92.8758 47.7586 94.0137 48.0708 94.6981 48.4115C95.2737 48.6981 96.0693 49.1767 96.0343 49.9233C96.0247 50.1269 95.7594 50.1527 95.6905 49.9699C95.4115 49.2293 94.8854 48.9369 94.1903 48.6098C93.609 48.3362 92.9418 48.0741 92.5464 47.5401C91.9998 46.8019 92.3856 46.027 92.6525 45.2608C92.8887 44.5833 92.7966 43.836 92.1657 43.3983C91.6087 43.0118 90.9493 43.1635 90.3666 43.3927C90.3309 43.4068 90.315 43.359 90.3333 43.3361Z" fill="#D76957"/>
<path d="M22.2947 40.63C22.7235 40.1492 23.2059 39.7103 23.671 39.2648C23.9893 38.9599 24.3262 38.6493 24.7655 38.5393C25.1912 38.4327 25.6149 38.548 26.025 38.6642C26.3713 38.7623 26.713 38.8888 27.0794 38.8377C27.5296 38.7751 27.7145 38.5215 27.9056 38.1471C27.9477 38.0646 28.0697 38.0514 28.1101 38.1451C28.2671 38.5106 27.9892 38.8355 27.671 39.009C27.2415 39.2429 26.7705 39.2251 26.3116 39.1009C25.5088 38.8837 24.8674 38.6442 24.1527 39.2351C23.5615 39.7239 23.0455 40.3001 22.4468 40.7807C22.3535 40.8556 22.2115 40.723 22.2947 40.63Z" fill="#2C4047"/>
<path d="M25.2519 11.7501C24.5565 12.5815 24.71 13.6728 25.2073 14.5582C25.5458 15.1605 26.0118 15.6743 26.4108 16.2347C26.8748 16.8863 27.109 17.5332 27.2669 18.311C27.2896 18.4232 27.4654 18.4198 27.4903 18.311C27.8565 16.709 26.0326 15.431 25.4151 14.1345C25.0955 13.4634 25.0282 12.501 25.5727 11.9375C25.829 12.563 26.1042 13.1802 26.397 13.7899C26.4331 13.8651 26.533 13.8943 26.6081 13.8758C27.5708 13.6401 28.0697 12.5057 27.4083 11.6995C26.9609 11.1543 26.277 11.0744 25.7242 11.3664C25.6492 11.1806 25.5745 10.9946 25.5032 10.8073C25.3317 10.3573 25.1711 9.90281 25.0141 9.44744C24.8962 9.10514 24.8246 8.74722 24.5989 8.46022C24.5617 8.41294 24.4963 8.45754 24.4919 8.5046C24.4495 8.9477 24.6598 9.4102 24.7945 9.82877C24.9419 10.2868 25.1053 10.7397 25.2762 11.1895C25.325 11.318 25.3763 11.4451 25.4269 11.5729C25.3658 11.627 25.3063 11.685 25.2519 11.7501ZM25.866 11.7102C25.8803 11.702 25.8928 11.6924 25.9075 11.6846C27.1114 11.047 27.925 12.9956 26.6574 13.4684C26.3776 12.8894 26.1133 12.3034 25.866 11.7102Z" fill="#80BE95"/>
<path d="M88.0267 17.1387C87.2007 15.4664 86.3765 13.4554 87.2653 11.9125C87.3398 11.7833 87.4373 11.6567 87.5499 11.5365C88.2321 12.8827 89.4389 14.1746 90.7696 13.4251C91.5075 13.0094 91.478 11.949 90.9444 11.212C90.221 10.2123 88.8257 10.0633 87.8996 10.4594C87.8353 10.4868 87.7753 10.5169 87.7156 10.547C87.5113 9.73353 87.5445 8.88145 87.7622 8.21178C88.2816 6.61287 89.851 5.73893 91.6618 5.75476C92.065 5.75833 91.9127 5.1598 91.5124 5.15623C88.7251 5.1317 86.6896 7.11038 86.9783 9.81537C87.0087 10.0988 87.1017 10.4587 87.2455 10.8432C85.4718 12.2443 86.471 15.3101 87.4692 17.3309C87.6523 17.7018 88.2086 17.5073 88.0267 17.1387ZM87.939 11.2009C88.557 10.7752 89.4117 10.6079 90.1583 11.1984C90.6958 11.6235 91.0113 12.7139 90.2419 12.959C89.8082 13.097 89.319 12.8254 88.9561 12.5415C88.4945 12.1801 88.1627 11.7115 87.939 11.2009Z" fill="#A9E0E5"/>
<path d="M24.1644 64.2617C24.2117 63.989 24.2799 63.7212 24.327 63.4493C24.3985 63.0352 24.9708 63.1175 25.0863 63.4493C25.3004 64.0648 25.3731 64.8281 25.0562 65.4267C24.793 65.9235 23.9811 65.6958 23.9978 65.1401C24.007 64.8373 24.1131 64.5579 24.1644 64.2617Z" fill="#80BE95"/>
<path d="M20.4615 61.4992C20.5449 61.3698 20.6517 61.3016 20.7931 61.244C20.8749 61.2108 20.9525 61.1838 21.0386 61.1642C21.2543 61.1147 21.5123 61.195 21.6213 61.4013C21.7223 61.5924 21.719 61.876 21.5406 62.0263C21.438 62.1129 21.335 62.1893 21.2206 62.2585C21.0252 62.3762 20.703 62.3559 20.548 62.1717C20.4807 62.0917 20.4312 62.0312 20.4053 61.9269C20.3719 61.7913 20.3837 61.62 20.4615 61.4992Z" fill="#80BE95"/>
<path d="M40.1025 18.061C40.165 17.5345 40.7588 17.361 41.079 17.7965C41.2666 18.0516 41.3785 18.4493 41.3912 18.7623C41.4142 19.3274 40.5728 19.5651 40.3108 19.0549C40.1672 18.7757 40.0651 18.3763 40.1025 18.061Z" fill="#80BE95"/>
<path d="M46.3902 14.8938C46.592 15.1215 46.7024 15.427 46.7642 15.7231C46.846 16.1152 46.8454 16.4675 46.4816 16.7077C46.3545 16.7915 46.188 16.775 46.0595 16.7077C45.7736 16.5578 45.7328 16.3109 45.6581 16.028C45.6026 15.8179 45.4933 15.6622 45.4351 15.4497C45.2906 14.9208 46.0013 14.4551 46.3902 14.8938Z" fill="#A9E0E5"/>
<path d="M69.2369 15.383C69.4518 14.9252 70.2598 13.9195 70.813 14.4544C70.8199 14.4611 70.8266 14.4676 70.8335 14.4743C70.9814 14.6172 71.036 14.8405 70.9823 15.0371C70.8672 15.4588 70.6342 15.9086 70.3269 16.224C70.0849 16.4722 69.6835 16.4851 69.4157 16.2781C69.1274 16.0554 69.0877 15.701 69.2369 15.383Z" fill="#80BE95"/>
<path d="M76.6346 19.4804C76.7463 20.0312 76.5467 20.7553 75.9582 20.9542C75.7471 21.0256 75.5328 21.0158 75.3626 20.8525C75.2083 20.7043 75.1412 20.4775 75.2179 20.2703C75.3535 19.9035 75.6507 19.6383 75.8372 19.2994C76.0334 18.9428 76.5653 19.139 76.6346 19.4804Z" fill="#80BE95"/>
<path d="M91.5009 23.7711C91.5569 23.7676 91.6124 23.7691 91.6684 23.768C91.6744 23.768 91.7076 23.766 91.733 23.7649C91.7643 23.7582 91.8359 23.7457 91.8466 23.7435C91.9007 23.7314 91.9554 23.719 92.0091 23.7049C92.1365 23.6715 92.2589 23.6175 92.3936 23.6175C92.588 23.6175 92.8269 23.7265 92.9201 23.9065C92.9232 23.9125 92.9263 23.9188 92.9294 23.9248C93.0635 24.1837 93.0242 24.4615 92.8324 24.6767C92.5283 25.0184 91.956 25.2331 91.5011 25.1928C91.1318 25.16 90.7721 24.8893 90.7902 24.4818C90.8083 24.0769 91.1026 23.7961 91.5009 23.7711Z" fill="#A9E0E5"/>
<path d="M118.047 36.3374C118.28 36.2759 118.529 36.2699 118.768 36.2857C118.95 36.2977 119.187 36.353 119.341 36.4837C119.614 36.6603 119.641 37.0894 119.32 37.2598C119.366 37.2426 119.365 37.2511 119.31 37.289C119.257 37.3356 119.201 37.3766 119.141 37.4121C119.044 37.4645 118.938 37.4924 118.833 37.5213C118.636 37.5764 118.426 37.6217 118.22 37.617C117.895 37.6097 117.624 37.3746 117.58 37.0519C117.538 36.7379 117.732 36.4208 118.047 36.3374Z" fill="#A9E0E5"/>
<path d="M120.906 62.6013C121.204 62.678 121.497 62.7542 121.787 62.8571C122.019 62.9393 122.174 63.1686 122.106 63.4186C122.034 63.681 121.789 63.7725 121.544 63.7375C121.239 63.6937 120.943 63.6253 120.643 63.555C120.025 63.4101 120.287 62.4416 120.906 62.6013Z" fill="#80BE95"/>
<path d="M124.863 62.7442C124.917 62.6204 125.01 62.5546 125.127 62.5221C125.421 62.4074 125.716 62.5713 125.932 62.7785C126.021 62.8637 126.097 62.9627 126.15 63.074C126.251 63.2861 126.276 63.4399 126.171 63.6598C126.095 63.8175 125.898 63.8659 125.742 63.8344C125.553 63.7961 125.377 63.6081 125.249 63.4616C125.246 63.4584 125.246 63.4571 125.244 63.4553C125.241 63.4531 125.238 63.4518 125.233 63.4486C125.174 63.4109 125.12 63.3768 125.065 63.3289C124.993 63.266 124.93 63.1848 124.89 63.0956C124.828 62.989 124.81 62.8655 124.863 62.7442Z" fill="#A9E0E5"/>
<path d="M118.624 50.2872C119.438 51.2173 120.16 52.3199 120.629 53.4808C119.771 53.9163 119.091 54.7454 118.887 55.7953C118.481 57.8895 121.186 58.3464 121.682 56.3584C121.894 55.511 121.759 54.5933 121.425 53.7085C123.659 53.0192 125.593 56.6231 125.008 58.7599C124.96 58.9347 125.219 59.002 125.277 58.8339C125.94 56.8998 125.311 54.7044 123.535 53.5896C122.8 53.1284 121.98 53.0466 121.231 53.2489C120.65 51.9856 119.698 50.8293 118.816 50.0952C118.682 49.9835 118.507 50.1541 118.624 50.2872ZM120.261 54.4667C120.447 54.2753 120.634 54.123 120.821 53.9997C121.03 54.6241 121.357 55.5739 121.127 56.2054C120.946 56.4741 120.765 56.7428 120.584 57.0118C119.524 56.8414 119.176 56.4161 119.54 55.7362C119.687 55.2389 119.896 54.8411 120.261 54.4667Z" fill="#A9E0E5"/>
<path d="M88.7843 66.3577C87.4122 66.0401 85.7513 66.8097 85.1806 68.1513C84.8412 68.9489 85.2941 69.6556 86.1317 69.7582C87.1049 69.8773 88.0306 69.2507 88.5798 68.4918C88.9313 68.0063 89.1328 67.4261 89.1603 66.8389C89.499 67.0055 89.7989 67.2628 90.0277 67.617C91.3345 69.6407 89.6025 71.837 87.841 72.812C87.7643 72.8543 87.8319 72.9638 87.9088 72.9277C89.0456 72.3956 90.0458 71.6147 90.5364 70.4207C90.9637 69.3807 90.8495 68.1143 90.147 67.2174C89.8725 66.8668 89.5302 66.624 89.154 66.4739C89.1255 66.1139 89.0305 65.758 88.8594 65.4267C88.2848 64.3126 87.0572 63.9524 85.9934 63.4748C85.3853 63.2016 84.7426 62.849 84.3767 62.2692C83.9044 61.5206 84.0979 60.5795 84.6441 59.9255C85.6652 58.7025 87.4485 58.4626 88.9232 58.7306C89.1181 58.7661 89.198 58.4931 89.0057 58.4316C87.0997 57.8204 84.0612 58.7922 83.7657 61.0398C83.4758 63.2455 86.0557 63.7033 87.4824 64.5373C88.1884 64.9497 88.6605 65.6118 88.7843 66.3577ZM88.8182 66.7058C88.8233 67.0028 88.7736 67.3088 88.6616 67.6141C88.3022 68.5948 87.1807 69.6449 86.0537 69.3992C85.1184 69.1954 85.4005 68.2608 85.8764 67.714C86.2238 67.3148 86.6725 66.9937 87.166 66.8006C87.7154 66.5849 88.297 66.5515 88.8182 66.7058Z" fill="#A9E0E5"/>
<path d="M94.0743 55.3255C94.1464 55.1107 94.3448 54.9631 94.5761 54.9979C94.7835 55.0291 94.9933 55.2173 94.9726 55.447C94.9429 55.7755 95.0605 56.0181 95.1376 56.333C95.2525 56.8011 94.717 57.0584 94.3747 56.777C93.9678 56.442 93.9167 55.7962 94.0743 55.3255Z" fill="#80BE95"/>
<path d="M81.317 57.1293C81.4653 57.0062 81.6611 56.9598 81.8364 57.0624C81.9913 57.1529 82.0966 57.3697 82.0333 57.5463C81.9347 57.8208 81.8604 58.025 81.8604 58.3029C81.8604 58.5707 81.6327 58.7984 81.3649 58.7984C81.079 58.7984 80.8908 58.5707 80.8694 58.3029C80.8366 57.8964 80.9972 57.3946 81.317 57.1293Z" fill="#80BE95"/>
<path d="M54.7054 65.5567C54.8731 65.7108 54.8787 65.9182 54.7773 66.1117C54.6646 66.3269 54.5554 66.5455 54.4209 66.748C54.2597 66.9908 54.1214 67.2477 53.8103 67.3034C53.5742 67.3458 53.3371 67.1808 53.295 66.944C53.2379 66.6242 53.4408 66.3967 53.6212 66.1561C53.7811 65.9427 53.9671 65.748 54.1455 65.5504C54.2858 65.3955 54.5656 65.4282 54.7054 65.5567Z" fill="#A9E0E5"/>
<path d="M49.7411 64.5741C50.031 64.5275 50.2415 64.7991 50.1619 65.0701C50.1003 65.2797 49.9835 65.4153 49.8352 65.5803C49.6927 65.7391 49.5196 65.9074 49.2948 65.9199C49.029 65.9346 48.6979 65.7531 48.7563 65.4291C48.8036 65.1671 48.9436 64.9998 49.1588 64.8506C49.3497 64.7186 49.5109 64.6111 49.7411 64.5741Z" fill="#A9E0E5"/>
<path d="M24.9052 24.7349C25.0191 24.5403 25.3316 24.4225 25.5305 24.571C25.791 24.7655 26.5099 25.2887 26.0146 25.6267C25.9665 25.6568 25.9176 25.6751 25.8614 25.6827C25.762 25.6961 25.6547 25.6729 25.5608 25.639C25.3851 25.5757 25.2232 25.4637 25.0693 25.36C24.8644 25.2226 24.775 24.9575 24.9052 24.7349Z" fill="#80BE95"/>
<path d="M23.7409 29.038C23.9833 28.9717 24.2538 28.9543 24.5013 29.0059C24.7535 29.0583 24.9112 29.2077 25.0958 29.3729C25.4002 29.6452 25.0698 30.0714 24.7272 30.0062C24.7649 29.9902 24.7649 29.9884 24.727 30.0011C24.6762 30.0174 24.6235 30.0261 24.5693 30.0268C24.5024 30.0294 24.4313 30.0214 24.3642 30.0205C24.2375 30.0189 24.1514 30.0317 24.0246 30.0662C23.3616 30.2473 23.0788 29.219 23.7409 29.038Z" fill="#A9E0E5"/>
<path d="M26.5564 59.009C26.4554 58.9249 26.3102 59.0638 26.4099 59.1555C27.2656 59.9451 27.9034 60.9433 28.1703 62.0841C28.3222 62.7337 28.3808 63.4451 28.1504 64.0838C27.9373 64.6752 27.5167 65.1783 27.1028 65.6403C25.79 67.1056 23.9893 68.3089 23.0685 70.0918C22.6678 70.1313 22.2751 70.2089 21.9247 70.303C21.0129 70.5476 20.1713 71.0387 19.7215 71.8941C19.6372 72.0545 19.8649 72.1867 19.9637 72.0357C20.5678 71.1134 21.7394 70.5481 22.9128 70.4127C22.604 71.129 22.4584 72.017 22.9028 72.7061C23.2696 73.2749 23.9774 73.5274 24.6319 73.3998C26.1867 73.097 26.3138 70.8917 24.8971 70.293C24.4518 70.1048 23.9302 70.0477 23.4066 70.0677C23.9819 69.07 24.9743 68.1834 25.6745 67.5148C26.7518 66.4859 28.311 65.2695 28.5538 63.7016C28.823 61.9635 27.8654 60.0988 26.5564 59.009ZM24.5403 70.5229C25.5041 70.7963 25.9675 72.0605 25.1634 72.7868C24.3902 73.4848 23.1537 72.9672 22.9793 71.9871C22.8814 71.4372 22.9982 70.8993 23.2393 70.3864C23.6916 70.3652 24.1362 70.4083 24.5403 70.5229Z" fill="#FFAE83"/>
<path d="M123.163 76.6246C122.992 76.3075 122.664 76.1405 122.377 75.9304C121.98 75.6387 121.572 75.3569 121.187 75.0487C120.379 74.4015 119.897 73.5787 120.27 72.5326C120.6 71.6087 121.372 70.9553 121.97 70.2094C122.342 69.7457 122.725 69.1648 122.538 68.5438C122.197 67.4156 120.696 67.4196 119.815 67.7713C119.11 68.053 117.793 68.8343 117.266 67.858C116.7 66.8106 117.815 66.0549 118.389 65.3825C118.484 65.2719 118.367 65.1078 118.232 65.1787C117.56 65.5322 116.912 66.2504 116.796 67.0209C116.7 67.656 116.95 68.3377 117.576 68.5926C118.206 68.8497 118.886 68.5487 119.468 68.3032C120.237 67.9791 121.316 67.5644 122.006 68.313C122.832 69.2083 121.258 70.4734 120.735 71.1223C120.26 71.7104 119.843 72.3968 119.805 73.1724C119.764 74.0021 120.224 74.6468 120.835 75.1591C121.174 75.4432 121.543 75.6934 121.901 75.9525C122.263 76.2148 122.655 76.6224 123.101 76.7051C123.148 76.7138 123.187 76.6688 123.163 76.6246Z" fill="#FFAE83"/>
<path d="M95.9624 12.9465C95.6283 13.3085 95.4345 13.8058 95.2405 14.2531C95.1281 14.5122 95.098 14.8768 95.3475 15.082C95.509 15.2147 95.6294 15.2555 95.8312 15.2822C96.0435 15.3106 96.3345 15.136 96.4217 14.9435C96.6476 14.4451 96.9179 13.913 96.9676 13.3631C97.0138 12.8524 96.2931 12.5884 95.9624 12.9465Z" fill="#80BE95"/>
<path d="M101.469 15.0063C101.444 14.9241 101.404 14.8607 101.357 14.799C101.284 14.6429 101.147 14.5113 100.96 14.5195C100.777 14.5278 100.651 14.6297 100.574 14.7831C100.522 14.8485 100.478 14.9129 100.451 15.0061C100.422 15.1025 100.41 15.2012 100.399 15.3009C100.384 15.4345 100.472 15.6067 100.563 15.6976C100.661 15.7949 100.82 15.8682 100.96 15.862C101.236 15.8497 101.556 15.6133 101.521 15.3009C101.51 15.2017 101.499 15.1022 101.469 15.0063Z" fill="#80BE95"/>
<path d="M109.416 12.1252C109.422 11.8554 109.174 11.5972 108.9 11.6094C108.626 11.6217 108.378 11.8362 108.384 12.1252C108.391 12.4046 108.382 12.7507 108.602 12.9483C108.634 12.9929 108.674 13.0319 108.73 13.0678C108.828 13.1301 108.972 13.1301 109.07 13.0678C109.128 13.0311 109.168 12.9918 109.2 12.9472C109.418 12.7494 109.409 12.4035 109.416 12.1252Z" fill="#80BE95"/>
<path d="M120 14.985C119.755 14.8813 119.497 14.9796 119.352 15.1973C119.207 15.4154 119.089 15.6259 118.992 15.8703C118.887 16.1323 119.085 16.4409 119.32 16.5402C119.57 16.6457 119.895 16.5585 120.029 16.3078C120.15 16.0815 120.229 15.8424 120.301 15.5973C120.374 15.3482 120.233 15.0831 120 14.985Z" fill="#80BE95"/>
<path d="M124.603 26.8869C124.527 26.8869 124.527 27.0053 124.603 27.0053C124.679 27.0053 124.679 26.8869 124.603 26.8869Z" fill="#80BE95"/>
<path d="M123.954 36.7948C124.837 35.9071 125.21 34.6317 125.385 33.4251C125.56 32.2195 125.764 30.7816 125.473 29.5808C125.312 28.9178 124.857 28.2495 124.233 27.95C125.211 26.653 125.973 25.2008 126.46 23.6305C126.504 23.4891 126.261 23.4106 126.21 23.5506C125.648 25.0933 124.87 26.5382 123.883 27.8273C123.71 27.7879 123.529 27.7751 123.339 27.7981C122.197 27.9368 121.837 29.2106 121.705 30.169C121.686 30.3078 121.858 30.4514 121.981 30.3452C122.724 29.7081 123.401 29.005 124.004 28.2461C124.508 28.4571 124.916 28.9773 125.078 29.4887C125.352 30.3535 125.222 31.3262 125.153 32.2133C125.083 33.1129 124.979 34.0301 124.678 34.8859C124.405 35.6633 123.962 36.4088 123.281 36.8907C122.991 36.4072 122.5 36.0864 121.874 36.2282C121.382 36.3395 120.409 37.2687 121.214 37.6112C121.827 37.8721 122.523 37.7281 123.117 37.4123C123.212 37.7125 123.247 38.0401 123.225 38.3117C123.159 39.1232 122.792 39.9188 122.282 40.5455C121.676 41.2896 120.844 41.815 119.904 42.0197C118.873 42.2445 117.927 42.0318 116.953 41.6872C116.83 41.6437 116.685 41.8137 116.816 41.8991C118.746 43.1608 121.488 42.3027 122.748 40.5038C123.325 39.6816 123.719 38.5953 123.537 37.5813C123.515 37.458 123.48 37.3369 123.437 37.2201C123.628 37.0901 123.804 36.9458 123.954 36.7948ZM123.031 28.2653C123.232 28.1692 123.432 28.1386 123.624 28.1542C123.17 28.7149 122.675 29.2445 122.137 29.7364C122.257 29.147 122.485 28.5262 123.031 28.2653ZM121.978 37.3711C121.849 37.3755 121.363 37.3878 121.296 37.2404C121.185 36.9962 121.626 36.6907 121.8 36.6213C122.368 36.3957 122.752 36.6621 122.978 37.0809C122.67 37.2466 122.327 37.359 121.978 37.3711Z" fill="#80BE95"/>
</g>
<defs>
<clipPath id="clip0_11_2557">
<rect width="145.5" height="111.5" fill="white" transform="translate(0.25 0.25)"/>
</clipPath>
</defs>
</svg>
