<svg width="258" height="247" viewBox="0 0 258 247" fill="none" xmlns="http://www.w3.org/2000/svg">
<path d="M256.366 244.493H11.2976C10.8716 244.493 10.5264 244.839 10.5264 245.265V245.359C10.5264 245.785 10.8716 246.13 11.2976 246.13H256.366C256.792 246.13 257.138 245.785 257.138 245.359V245.265C257.138 244.839 256.792 244.493 256.366 244.493Z" fill="#50BFA5"/>
<path d="M69.8189 37.9415L68.8093 35.5927L66.3037 35.0919C66.2396 35.0785 66.1805 35.0476 66.133 35.0025C66.0856 34.9574 66.0516 34.8999 66.035 34.8366C66.0183 34.7733 66.0197 34.7066 66.0389 34.644C66.0581 34.5814 66.0944 34.5254 66.1437 34.4823L68.0637 32.7975L67.7645 30.2583C67.7567 30.1932 67.7673 30.1272 67.7951 30.0678C67.8229 30.0085 67.8668 29.9581 67.9218 29.9224C67.9768 29.8868 68.0407 29.8672 68.1062 29.8661C68.1718 29.8649 68.2363 29.8822 68.2925 29.9159L70.4893 31.2215L72.8125 30.1543C72.8719 30.1266 72.9379 30.1162 73.003 30.1241C73.068 30.1321 73.1295 30.1581 73.1805 30.1993C73.2315 30.2404 73.2699 30.2951 73.2914 30.357C73.3129 30.4189 73.3166 30.4856 73.3021 30.5495L72.7373 33.0439L74.4701 34.9223C74.5145 34.9705 74.5446 35.0301 74.5569 35.0945C74.5692 35.1589 74.5633 35.2254 74.5398 35.2866C74.5164 35.3478 74.4763 35.4012 74.4242 35.4409C74.372 35.4805 74.3098 35.5048 74.2445 35.5111L71.6989 35.7431L70.4477 37.9735C70.4156 38.0304 70.3682 38.0772 70.3109 38.1086C70.2536 38.1401 70.1887 38.155 70.1234 38.1517C70.0582 38.1484 69.9951 38.127 69.9413 38.0898C69.8875 38.0527 69.8452 38.0013 69.8189 37.9415Z" fill="#F47458"/>
<path d="M187.774 4.43103L188.558 3.42943L191.003 5.34463L193.072 1.71103L194.176 2.33983L191.379 7.25343L187.774 4.43103Z" fill="#50BFA5"/>
<path d="M92.3597 7.31904C92.236 8.54715 91.7508 9.71098 90.9656 10.6633C90.1804 11.6157 89.1303 12.3137 87.9483 12.6692C86.7663 13.0247 85.5054 13.0217 84.3251 12.6604C83.1448 12.2992 82.0981 11.5961 81.3175 10.64C80.5369 9.68383 80.0574 8.51767 79.9396 7.28897C79.8218 6.06028 80.0711 4.82426 80.6559 3.73726C81.2407 2.65025 82.1347 1.7611 83.2249 1.18227C84.3151 0.603446 85.5525 0.360943 86.7805 0.485439C88.4263 0.652291 89.9386 1.46585 90.9848 2.74727C92.031 4.02869 92.5255 5.67311 92.3597 7.31904Z" fill="#F7CC7F"/>
<path d="M82.7425 7.33984C82.6985 7.77552 82.7407 8.2156 82.8667 8.63495C82.9928 9.05431 83.2002 9.44473 83.4772 9.78392C84.0365 10.469 84.845 10.9037 85.7249 10.9926C86.6048 11.0815 87.4839 10.8173 88.169 10.258C88.5081 9.98102 88.7895 9.63999 88.9969 9.25432C89.2043 8.86866 89.3337 8.44592 89.3777 8.01024L82.7425 7.33984Z" fill="#EFEFEF"/>
<path d="M202.639 27.1654L204.52 25.1414L203.472 24.4486C203.362 24.3756 203.286 24.262 203.26 24.1326C203.234 24.0033 203.26 23.8689 203.333 23.759C203.369 23.7045 203.415 23.6576 203.47 23.621C203.524 23.5844 203.585 23.5589 203.649 23.5458C203.713 23.5327 203.779 23.5324 203.843 23.5448C203.907 23.5572 203.968 23.5822 204.023 23.6182L205.229 24.4182L206.92 22.6054L205.8 21.8646C205.746 21.8286 205.699 21.7822 205.662 21.728C205.626 21.6739 205.6 21.613 205.587 21.549C205.574 21.485 205.574 21.419 205.586 21.3548C205.598 21.2906 205.623 21.2296 205.659 21.175C205.732 21.0652 205.846 20.9888 205.975 20.9627C206.105 20.9366 206.239 20.9629 206.349 21.0358L207.629 21.8822L209.583 19.8022C209.663 19.7164 209.772 19.6619 209.889 19.6484C210.006 19.6349 210.124 19.6633 210.223 19.7286L210.418 19.8582C210.478 19.8981 210.529 19.9506 210.567 20.0121C210.605 20.0736 210.629 20.1426 210.637 20.2143C210.646 20.286 210.638 20.3587 210.616 20.4273C210.594 20.496 210.557 20.5589 210.507 20.6118L208.68 22.5814L210.535 23.8086L212.49 21.7286C212.57 21.6419 212.679 21.5868 212.796 21.5733C212.914 21.5598 213.032 21.5888 213.13 21.655L213.343 21.7958C213.403 21.8357 213.454 21.8882 213.491 21.9497C213.529 22.0112 213.553 22.0802 213.562 22.1519C213.57 22.2236 213.563 22.2963 213.541 22.3649C213.518 22.4336 213.481 22.4965 213.432 22.5494L211.608 24.511L212.655 25.2038C212.709 25.2397 212.756 25.2861 212.793 25.3402C212.83 25.3944 212.855 25.4552 212.869 25.5193C212.882 25.5834 212.882 25.6495 212.869 25.7137C212.857 25.7779 212.832 25.839 212.795 25.8934C212.759 25.948 212.713 25.9949 212.659 26.0315C212.605 26.068 212.544 26.0936 212.48 26.1067C212.416 26.1198 212.35 26.1201 212.286 26.1077C212.221 26.0952 212.16 26.0703 212.106 26.0342L210.898 25.2342L209.229 27.0614L210.349 27.8022C210.404 27.8383 210.45 27.8847 210.487 27.9388C210.524 27.993 210.549 28.0538 210.562 28.1179C210.575 28.1819 210.576 28.2479 210.563 28.3121C210.551 28.3762 210.526 28.4373 210.49 28.4918C210.417 28.6017 210.303 28.6781 210.174 28.7042C210.045 28.7303 209.91 28.704 209.8 28.631L208.52 27.7846L206.52 29.927C206.44 30.0137 206.332 30.069 206.214 30.0831C206.097 30.0971 205.979 30.0691 205.88 30.0038L205.651 29.8438C205.591 29.804 205.54 29.7514 205.502 29.6898C205.464 29.6281 205.44 29.559 205.431 29.487C205.423 29.4151 205.43 29.3422 205.453 29.2734C205.475 29.2046 205.512 29.1415 205.562 29.0886L207.45 27.0694L205.595 25.8422L203.594 27.9846C203.513 28.071 203.405 28.126 203.288 28.1398C203.17 28.1536 203.052 28.1252 202.954 28.0598L202.725 27.9078C202.667 27.8678 202.618 27.8156 202.581 27.755C202.544 27.6944 202.521 27.6266 202.513 27.5563C202.505 27.4859 202.512 27.4147 202.534 27.3473C202.555 27.2798 202.591 27.2178 202.639 27.1654ZM208.159 26.3654L209.848 24.5494L207.994 23.3222L206.304 25.1366L208.159 26.3654Z" fill="#F48C7F"/>
<path d="M137.96 11.7942C138.398 11.1357 138.977 10.5826 139.654 10.175C140.332 9.7674 141.092 9.51548 141.879 9.43743C144.325 9.16223 146.229 10.9174 146.484 13.1814C146.778 15.8022 144.828 19.1606 139.165 22.5254C132.898 20.4998 130.252 17.6582 129.957 15.0374C129.703 12.7734 131.17 10.6406 133.616 10.3654C134.401 10.2664 135.198 10.3433 135.949 10.5904C136.701 10.8375 137.388 11.2487 137.96 11.7942Z" fill="#F48C7F"/>
<path d="M117.851 15.0998C119.945 15.2112 122.044 15.2026 124.137 15.0742C124.769 15.0358 125.877 15.1558 126.28 14.5862C126.39 14.457 126.446 14.2906 126.438 14.121C126.429 13.9515 126.356 13.7917 126.233 13.6742C125.736 13.1782 124.793 13.4438 124.153 13.4822C122.213 13.6006 120.013 13.6422 117.785 13.5542C117.368 13.5366 117.027 13.9622 117.041 14.3542C117.059 14.8022 117.427 15.0758 117.841 15.0966L117.851 15.0998Z" fill="#F48C7F"/>
<path d="M150.547 18.1254C151.477 18.0838 152.405 18.0262 153.333 17.9654C154.223 17.9126 155.282 18.007 156.104 17.6534C156.712 17.3926 156.72 16.5654 156.053 16.3734C155.189 16.1222 154.163 16.3366 153.272 16.3926C152.344 16.4502 151.416 16.5062 150.488 16.5782C149.498 16.6566 149.549 18.1686 150.547 18.1254Z" fill="#F48C7F"/>
<path d="M127.131 26.7526C128.182 24.7302 129.566 24.0438 130.606 23.2326C130.729 23.1492 130.817 23.025 130.857 22.8823C130.896 22.7396 130.884 22.5875 130.822 22.4531C130.759 22.3187 130.652 22.2107 130.517 22.1484C130.383 22.0861 130.231 22.0734 130.088 22.1126C128.168 22.5318 126.61 24.3718 125.768 26.0502C125.32 26.935 126.68 27.6374 127.139 26.7542L127.131 26.7526Z" fill="#F48C7F"/>
<path d="M138.12 31.0359C138.023 30.0858 138.126 29.126 138.423 28.2183C138.607 27.6583 139.624 26.0663 138.517 25.8439C137.476 25.6327 137.02 27.3527 136.815 28.0839C136.544 29.0648 136.46 30.088 136.568 31.0998C136.672 32.0886 138.216 32.0374 138.12 31.039V31.0359Z" fill="#F48C7F"/>
<path d="M145.657 24.7398L147.27 25.775C147.806 26.119 148.331 26.6358 149.003 26.4582C149.38 26.3574 149.508 25.9654 149.444 25.623C149.329 25.0006 148.484 24.6774 147.993 24.3654L146.375 23.3398C146.015 23.1126 145.497 23.327 145.316 23.6806C145.107 24.0886 145.299 24.5094 145.657 24.7398Z" fill="#F48C7F"/>
<path d="M131.24 6.46786C129 1.82786 129.034 1.81026 128.615 1.44226C128.195 1.07426 127.451 1.37986 127.483 1.97186C127.515 2.56386 127.52 2.45986 129.898 7.32386C130.087 7.71106 130.663 7.77986 130.997 7.56706C131.394 7.31266 131.427 6.85666 131.24 6.46786Z" fill="#F48C7F"/>
<path d="M139.72 5.94144C139.984 5.13766 140.16 4.30781 140.246 3.46624C140.326 2.68224 140.557 1.49184 139.803 0.992642C139.71 0.942099 139.604 0.917923 139.498 0.922715C139.392 0.927507 139.29 0.961084 139.201 1.01984C138.561 1.49984 138.765 2.55424 138.686 3.27744C138.596 4.06647 138.439 4.84637 138.216 5.60864C138.174 5.80788 138.212 6.01552 138.321 6.18715C138.431 6.35879 138.603 6.48078 138.801 6.52704C139.241 6.62304 139.59 6.33664 139.72 5.94144Z" fill="#F48C7F"/>
<path d="M151.72 6.02943C151.836 5.65983 151.528 5.33503 151.209 5.22943C150.555 5.01183 149.75 5.68063 149.232 6.02943C148.63 6.43836 148.062 6.89475 147.534 7.39423C147.227 7.68063 147.299 8.22623 147.59 8.49183C147.932 8.80063 148.371 8.71103 148.688 8.43423C150.76 6.62943 151.422 6.94143 151.72 6.02943Z" fill="#F48C7F"/>
<path d="M237.507 37.8918L236.136 39.4662L233.754 38.607L231.507 40.7814L229.485 40.463L228.885 41.5238L231.59 41.9478L233.72 39.8886L236.197 40.7814L238.262 38.4134L237.507 37.8918Z" fill="#466EB6"/>
<path d="M31.5474 31.6566C29.5858 34.4054 31.397 38.4006 34.229 39.6886C37.3602 41.1094 41.2578 40.0086 43.2978 37.2806C45.5058 34.3254 44.9586 30.7206 42.0978 28.8726C39.3138 27.0774 36.0594 28.6646 35.4946 31.7286C35.0882 33.9254 36.421 35.543 37.5602 35.4902C38.4482 35.4486 38.9538 34.4118 38.2386 33.7942C38.0933 33.6831 37.9193 33.6157 37.7371 33.6001C37.5548 33.5846 37.3719 33.6214 37.2098 33.7062C36.6514 33.0406 36.6722 31.3814 37.8834 30.2294C39.4322 28.7606 41.7442 29.8742 42.6978 31.4614C43.9122 33.4822 42.9634 35.9158 41.3298 37.3814C39.6146 38.9206 36.9282 39.415 34.8082 38.4614C33.6527 37.9302 32.7513 36.9673 32.2976 35.7792C31.8438 34.5911 31.8738 33.2725 32.381 32.1062C32.4179 31.9987 32.4155 31.8815 32.3741 31.7756C32.3326 31.6697 32.255 31.5819 32.1549 31.5279C32.0548 31.474 31.9388 31.4573 31.8275 31.4808C31.7163 31.5044 31.617 31.5667 31.5474 31.6566Z" fill="#96D9C9"/>
<path d="M53.5501 231.701C53.5501 231.701 53.2029 238.135 53.2013 238.148C53.0685 238.965 52.5453 240.986 52.5469 241.729C52.5549 244.517 65.0269 239.306 62.2189 238.082C61.9645 237.972 60.2413 236.501 60.1549 235.553C60.0221 234.09 60.0829 231.764 60.0829 231.764L53.5501 231.701Z" fill="#F7A491"/>
<path d="M62.1877 238.06C62.1877 238.06 59.2613 238.925 57.7605 239.145C56.2597 239.364 54.2773 237.578 53.2181 238.068C52.0517 238.607 51.9893 244.756 51.9893 244.756C51.9893 244.756 67.3493 245.858 71.2805 244.709C73.0453 244.194 68.1829 240.021 62.1877 238.06Z" fill="#184655"/>
<path d="M77.6097 231.601C77.6097 231.601 77.2625 238.034 77.2609 238.047C77.1281 238.865 76.6048 240.885 76.6064 241.628C76.6144 244.417 89.0865 239.205 86.2785 237.981C86.0241 237.871 84.3009 236.401 84.2145 235.452C84.0817 233.991 84.1425 231.663 84.1425 231.663L77.6097 231.601Z" fill="#F7A491"/>
<path d="M86.2463 237.956C86.2463 237.956 83.3199 238.822 81.8191 239.042C80.3183 239.263 78.3359 237.474 77.2767 237.964C76.1103 238.503 76.0479 244.652 76.0479 244.652C76.0479 244.652 91.4079 245.754 95.3391 244.606C97.1039 244.09 92.2414 239.918 86.2463 237.956Z" fill="#184655"/>
<path d="M87.6668 62.831C88.078 65.9702 88.5756 65.7702 88.6172 66.1734C88.6668 66.6534 85.7964 72.4278 85.7964 72.4278C85.7964 72.4278 77.4428 89.5094 76.9612 90.4214L62.0508 103.021L65.9596 112.257C65.9596 112.257 81.83 98.1142 82.5356 97.2294C83.2412 96.3446 91.9212 71.9494 92.7516 69.8294C92.7516 69.8294 94.6524 67.655 95.8028 66.2518C96.9532 64.8486 97.4412 63.0022 97.7052 62.5574C98.2989 61.366 98.747 60.1073 99.0396 58.8086C99.4668 56.9574 98.2396 58.527 98.2396 58.527C98.2396 58.527 96.8476 61.8214 96.614 61.6694C96.4348 61.551 97.2972 59.7958 97.7916 57.7526C97.918 57.2262 98.0412 56.7078 98.1516 56.2294C98.4396 54.975 97.7708 54.4487 97.2652 55.7159C97.0306 56.2882 96.8365 56.8763 96.6844 57.4759C96.5484 58.0823 96.2332 58.5958 96.0444 59.0934C95.6668 60.0742 95.4044 60.7943 95.374 60.7559C95.3436 60.7175 95.126 60.8502 95.2428 60.2886C95.3852 59.6134 95.9948 58.2422 96.1292 57.2326C96.2044 56.6614 96.4332 55.4726 96.4332 55.4726C96.4332 55.4726 96.4524 53.6182 96.3468 53.583C95.774 53.3878 95.4108 54.6567 95.4076 55.4455C95.1532 55.9511 94.9468 57.2055 94.9468 57.2055C94.9468 57.2055 93.974 59.6567 93.6348 59.5255C93.4908 59.4711 93.9116 57.8982 94.0892 56.2934C94.2492 54.8022 94.1836 53.2726 93.9004 53.199C93.4204 53.0742 93.0652 54.7126 93.0652 54.7126C93.0652 54.7126 92.8748 55.8726 92.7836 56.2534C92.6764 56.6998 92.2556 58.0134 92.2556 58.0134C92.2556 58.0134 90.582 62.5175 90.2716 62.3654C89.9612 62.2135 89.3212 61.4998 89.3308 61.1846C89.3404 60.8694 89.6508 60.2998 89.6636 59.9846C89.6764 59.6694 89.422 59.2566 89.0444 59.2214C88.6668 59.1862 88.0524 60.695 88.0524 60.695C88.0524 60.695 87.5484 61.9254 87.6668 62.831Z" fill="#F8A492"/>
<path d="M12.4592 69.2183C12.6448 72.3799 12.1184 72.2759 12.1536 72.6807C12.1952 73.1607 16.1008 78.2903 16.1008 78.2903C16.1008 78.2903 27.5184 93.4903 28.1616 94.2903L45.176 103.849L43.08 113.661C43.08 113.661 24.84 102.767 23.976 102.031C23.112 101.295 10.0048 78.9767 8.78877 77.0487C8.78877 77.0487 6.51357 75.2727 5.11997 74.1111C3.72637 72.9495 2.89917 71.2311 2.55997 70.8423C1.75441 69.7836 1.07816 68.6325 0.545569 67.4135C-0.222431 65.6759 1.28157 66.9847 1.28157 66.9847C1.28157 66.9847 3.27037 69.9575 3.47037 69.7639C3.63037 69.6135 2.44637 68.0535 1.57757 66.1383C1.35357 65.6455 1.13437 65.1591 0.937568 64.7111C0.419168 63.5335 0.975968 62.8903 1.71037 64.0391C2.04865 64.557 2.35019 65.0981 2.61277 65.6583C2.85917 66.2295 3.26717 66.6759 3.54557 67.1255C4.10077 68.0183 4.49277 68.6759 4.51677 68.6327C4.54077 68.5895 4.77917 68.6791 4.55677 68.1527C4.29117 67.5127 3.43677 66.2839 3.11677 65.3175C2.93597 64.7703 2.48797 63.6487 2.48797 63.6487C2.48797 63.6487 2.11997 61.8311 2.21757 61.7751C2.74237 61.4775 3.33757 62.6535 3.48957 63.4279C3.83357 63.8759 4.27357 65.0695 4.27357 65.0695C4.27357 65.0695 5.68957 67.2935 5.99837 67.1015C6.12957 67.0199 5.41917 65.5543 4.94397 64.0119C4.50077 62.5719 4.28317 61.0631 4.54717 60.9383C4.99517 60.7255 5.65277 62.2663 5.65277 62.2663C5.65277 62.2663 6.05597 63.3703 6.21757 63.7255C6.40797 64.1447 7.06717 65.3543 7.06717 65.3543C7.06717 65.3543 9.55837 69.4615 9.83517 69.2551C10.112 69.0487 10.6048 68.2231 10.536 67.9159C10.4672 67.6087 10.056 67.1079 9.98557 66.7959C9.91517 66.4839 10.0848 66.0343 10.448 65.9287C10.8112 65.8231 11.7008 67.1879 11.7008 67.1879C11.7008 67.1879 12.4048 68.3063 12.4592 69.2183Z" fill="#F8A492"/>
<path d="M56.918 149.836C56.918 149.836 75.958 194.487 76.6684 198.514C77.1884 201.453 76.6252 234.919 76.6252 234.919L85.5644 234.738L88.5884 196.498L76.6796 148.341L56.918 149.836Z" fill="#B75742"/>
<path d="M48.6172 151.977L57.3788 201.621L51.8476 234.884L62.0284 234.841L69.918 199.063L70.9004 159.89L66.7388 147.303L48.6172 151.977Z" fill="#F47458"/>
<path d="M73.1295 92.895C73.1295 92.895 75.3919 102.892 76.9695 104.445C76.9695 104.445 68.9967 109.788 69.3727 111.89C69.7487 113.993 78.3471 153.282 78.3471 153.282C78.3471 153.282 60.9167 162.402 50.0559 160.991C50.0559 160.991 41.7471 116.233 39.6271 114.14C37.5071 112.047 30.9199 108.741 30.9199 108.741C30.9199 108.741 35.8015 99.3462 35.7967 97.6854C35.7967 97.6854 47.4655 103.025 49.4399 104.973C51.4143 106.922 55.2207 104.426 56.1375 104.034C56.1439 104.034 71.7311 93.7526 73.1295 92.895Z" fill="#466EB6"/>
<path d="M50.9587 95.8614L49.5059 105.06C49.5059 105.06 53.4035 111.46 56.5043 110.5C59.1075 109.685 58.8675 104.615 58.8675 104.615C58.8675 104.615 57.4275 99.3766 57.8499 96.7494C58.2723 94.1222 50.9587 95.8614 50.9587 95.8614Z" fill="#F7A491"/>
<path d="M57.8498 96.7366C58.2674 94.1094 50.9586 95.855 50.9586 95.855L50.8418 96.623C51.0287 97.0975 51.2997 97.5344 51.6418 97.9126C53.2802 99.6422 55.837 100.674 58.0418 100.745C57.8194 99.3302 57.6786 97.8134 57.8498 96.7366Z" fill="#F47458"/>
<path d="M49.7184 82.7415C49.512 82.6679 48.0928 93.3015 50.8544 96.2215C53.616 99.1415 58.9808 100.071 60.8976 97.7575C63.0192 95.1975 62.8768 83.7703 58.5888 80.7799C54.3008 77.7895 49.7184 82.7415 49.7184 82.7415Z" fill="#F7A491"/>
<path d="M49.949 76.8886C48.4482 77.071 45.829 79.1478 43.7314 82.6054C41.1522 86.855 44.4258 92.0454 47.4498 94.3398C50.4738 96.6342 50.4194 99.2998 50.4194 99.2998L50.9138 97.9159C51.2699 96.8736 51.3955 95.7665 51.2818 94.671C51.223 93.9991 51.0561 93.341 50.7874 92.7222C50.0578 91.1878 52.3394 90.1622 52.9762 88.871C53.4658 87.8838 53.4834 85.6278 54.2562 83.9942L55.181 82.7463C55.181 82.7463 57.8034 82.9606 59.413 81.5462C64.0402 77.4838 56.9426 72.1654 49.949 76.8886Z" fill="#F7CC7F"/>
<path d="M52.8401 90.7623C52.8657 92.0599 52.2722 93.1255 51.5138 93.1415C50.7554 93.1575 50.1201 92.1191 50.0945 90.8215C50.0689 89.5239 50.6625 88.4583 51.4209 88.4423C52.1793 88.4263 52.8145 89.4615 52.8401 90.7623Z" fill="#F7A491"/>
<path d="M212.104 74.5159C207.522 72.0343 201.989 73.0263 198.847 77.1015C197.463 76.6824 196.01 76.5473 194.573 76.7043C193.137 76.8613 191.747 77.3071 190.487 78.0151C185.608 80.8311 182.613 88.7191 186.568 93.0039C187.528 97.4119 189.288 100.893 193.679 100.949C196.267 105.708 204.33 107.098 208.994 102.636C213.063 103.916 217.415 101.594 220.24 98.3607C220.907 97.5975 221.472 96.3975 221.727 96.2375C221.727 96.2375 232.223 94.3063 231.269 84.1415C230.28 73.5031 219.216 66.1639 212.104 74.5159Z" fill="#13375B"/>
<path d="M172.016 201.738C172.186 204.843 172.599 207.93 173.251 210.97C173.314 211.205 174.066 212.138 174.135 212.38C172.999 217.801 169.253 220.609 165.829 222.509C166.852 219.837 168.759 216.868 168.639 216.226C168.009 212.293 167.093 208.411 165.898 204.61C168.547 204.661 169.683 203.119 172.016 201.738Z" fill="#F8A492"/>
<path d="M184.82 135.626L201.132 148.834C201.132 148.834 192.913 156.938 189.83 159.949C186.747 162.961 171.235 173.815 170.963 174.509C170.907 174.649 171.724 176.303 171.976 178.365C172.657 183.94 173.425 194.78 173.654 204.074C171.894 205.914 168.097 206.351 165.825 206.929C160.238 195.508 158.217 173.583 158.244 170.951C158.28 166.661 184.82 135.626 184.82 135.626Z" fill="#355389"/>
<path d="M232.401 164.361C231.761 164.772 226.737 171.031 224.588 174.511C222.928 172.775 222.086 170.978 220.108 169.605C222.38 167.426 227.065 161.997 227.662 160.583C229.076 157.223 229.952 156.889 229.952 156.889C229.952 156.889 240.352 163.54 240.854 164.833C241.356 166.125 234.974 162.714 232.401 164.361Z" fill="#F8A492"/>
<path d="M227.36 161.33C226.486 161.127 228.334 157.225 228.741 156.321C229.2 155.305 229.861 155.124 230.021 155.121C230.443 155.121 241.995 162.505 243.763 164.594C243.896 164.789 244.004 165.001 244.083 165.223C244.75 167.757 234.339 165.741 233.069 164.402C231.941 163.212 231.293 162.252 227.36 161.33Z" fill="#184655"/>
<path d="M181.271 139.444L196.791 132.868C196.734 132.893 196.863 133.481 196.883 133.524C199.191 138.788 204.612 138.628 207.134 147.165C209.127 153.916 208.015 176.519 208.015 176.519C208.015 176.519 214.736 171.62 221.788 166.393C222.428 165.913 227.479 171.532 227.479 171.532C217.879 187.62 203.03 193.818 201.15 193.076C194.731 190.54 185.195 147.383 185.211 147.386C183.975 144.804 181.271 139.444 181.271 139.444Z" fill="#466EB6"/>
<path d="M204.616 103.138C204.616 103.138 222.28 99.6054 226.207 99.0614C230.133 98.5174 243.848 94.1206 244.375 93.9318C244.901 93.743 247.043 86.5878 247.794 87.1334C248.544 87.679 246.514 90.7302 247.461 91.1878C248.408 91.6454 256.685 88.2598 256.72 88.9478C256.791 90.2406 251.735 91.223 251.877 91.8278C252.019 92.4326 257.053 90.2966 257.637 91.2134C258.221 92.1302 252.677 92.767 252.567 93.2598C252.456 93.7526 257.864 93.3798 257.541 94.4294C257.365 94.999 252.717 94.6406 252.901 95.3222C253.085 96.0038 256.6 96.8454 256.336 97.4806C256.072 98.1158 253.469 96.3606 251.624 96.7574C249.779 97.1542 248.237 96.4374 245.495 97.9526C242.752 99.4678 233.709 105.953 227.379 107.058C221.05 108.164 207.071 110.669 207.071 110.669L204.616 103.138Z" fill="#F8A492"/>
<path d="M184.262 101.237C184.262 101.237 177.576 84.5142 175.886 80.9174C174.197 77.3207 170.392 63.4487 170.262 62.9015C170.133 62.3543 174.955 56.6615 174.089 56.3239C173.224 55.9863 171.774 59.3639 170.875 58.8167C169.976 58.2695 168.291 49.4903 167.693 49.8375C166.573 50.4775 168.51 55.2551 167.931 55.4647C167.352 55.6743 166.387 50.2919 165.301 50.3047C164.214 50.3175 166.707 55.3047 166.355 55.6711C166.003 56.0375 163.361 51.2983 162.661 52.1415C162.28 52.6007 165.117 56.3015 164.449 56.5223C163.782 56.7431 161.153 54.2551 160.769 54.8231C160.385 55.3911 163.267 56.6167 163.947 58.3751C164.627 60.1335 166.059 61.0423 166.294 64.1623C166.529 67.2823 166.033 78.4023 168.558 84.3111C171.083 90.2199 176.625 103.293 176.625 103.293L184.262 101.237Z" fill="#F8A492"/>
<path d="M178.933 121.317C178.718 118.212 178.384 109.834 178.528 108.807C177.661 105.575 174.43 100.764 173.757 99.4054C173.757 99.4054 178.253 94.1862 181.55 94.263C181.55 94.263 185.011 98.9238 187.6 100.369C187.638 100.359 188.517 100.789 188.906 100.789C191.419 100.789 200.203 100.602 201.837 101.13L200.771 115.301C200.291 116.101 199.558 132.409 198.574 133.741C197.59 135.074 183.395 141.045 181.067 139.447C180.974 139.381 179.368 127.596 178.933 121.317Z" fill="#F47458"/>
<path d="M197.356 101.301C197.752 101.108 198.68 100.9 200.028 100.889C204.012 100.858 210.721 100.757 210.721 100.757C210.721 100.757 212.276 109.303 210.932 111.341C210.932 111.341 200.436 112.869 200.726 113.77L197.356 101.301Z" fill="#F47458"/>
<path d="M194.685 95.623C194.685 95.623 193.725 100.533 193.885 102.476C194.045 104.418 193.112 110.663 189.181 110.645C185.25 110.628 188.512 102.687 188.901 100.789C189.29 98.8918 189.435 93.007 189.435 93.007L194.685 95.623Z" fill="#F8A492"/>
<path d="M189.33 95.959C189.407 94.3494 189.44 93.007 189.44 93.007L194.685 95.623C194.685 95.623 194.49 96.6278 194.29 97.9078C191.978 98.3686 190.316 97.4614 189.33 95.959Z" fill="#F47458"/>
<path d="M196.744 82.0646C198.072 82.9538 199.041 84.2849 199.48 85.8214C200.198 88.3814 199.289 94.9574 194.027 96.4966C188.765 98.0358 186.544 92.7974 187.664 88.7318C188.784 84.6662 191.184 79.5254 196.744 82.0646Z" fill="#F8A492"/>
<path d="M187.022 87.1447C187.115 88.2407 187.685 89.0839 188.302 89.0263C188.92 88.9687 189.334 88.0359 189.242 86.9463C189.149 85.8567 188.579 85.0071 187.962 85.0647C187.344 85.1223 186.931 86.0487 187.022 87.1447Z" fill="#F8A492"/>
<path d="M173.276 211.109C173.711 210.29 176.688 213.485 177.404 214.149C178.204 214.895 178.184 215.61 178.143 215.767C178.034 216.181 168.247 225.917 165.592 227.089C165.304 227.177 164.994 227.167 164.712 227.06C163.408 226.324 166.741 217.73 168.759 216.215C170.063 215.234 171.317 214.793 173.276 211.109Z" fill="#184655"/>
<path d="M196.131 81.7271C196.131 81.7271 197.011 89.0871 199.272 90.4295C201.532 91.7719 200.552 95.0263 200.552 95.0263C200.552 95.0263 202.688 87.4807 200.915 85.0327C199.142 82.5847 196.131 81.7271 196.131 81.7271Z" fill="#13375B"/>
<path d="M197.916 91.471C197.29 92.4214 197.276 93.551 197.896 93.9926C198.517 94.4342 199.517 94.0198 200.136 93.0694C200.756 92.119 200.776 90.9894 200.157 90.5478C199.538 90.1062 198.541 90.5206 197.916 91.471Z" fill="#F8A492"/>
</svg>
