<svg width="14" height="14" viewBox="0 0 14 14" fill="none" xmlns="http://www.w3.org/2000/svg">
<path d="M12.8333 6.16666H3.52498L7.59164 2.09999C7.91665 1.77499 7.91665 1.24166 7.59164 0.916662C7.51455 0.839409 7.42298 0.778119 7.32217 0.736301C7.22135 0.694483 7.11329 0.672958 7.00415 0.672958C6.895 0.672958 6.78694 0.694483 6.68612 0.736301C6.58531 0.778119 6.49374 0.839409 6.41665 0.916662L0.924978 6.40833C0.847725 6.48542 0.786435 6.577 0.744617 6.67781C0.7028 6.77862 0.681274 6.88669 0.681274 6.99583C0.681274 7.10497 0.7028 7.21304 0.744617 7.31385C0.786435 7.41466 0.847725 7.50623 0.924978 7.58333L6.41665 13.075C6.4938 13.1521 6.58539 13.2133 6.68619 13.2551C6.787 13.2969 6.89504 13.3183 7.00415 13.3183C7.11325 13.3183 7.22129 13.2969 7.3221 13.2551C7.4229 13.2133 7.51449 13.1521 7.59164 13.075C7.6688 12.9978 7.73 12.9062 7.77175 12.8054C7.8135 12.7046 7.835 12.5966 7.835 12.4875C7.835 12.3784 7.8135 12.2703 7.77175 12.1695C7.73 12.0687 7.6688 11.9771 7.59164 11.9L3.52498 7.83333H12.8333C13.2916 7.83333 13.6666 7.45833 13.6666 6.99999C13.6666 6.54166 13.2916 6.16666 12.8333 6.16666Z" fill="white"/>
</svg>
