<svg width="320" height="321" viewBox="0 0 320 321" fill="none" xmlns="http://www.w3.org/2000/svg">
<path d="M276.27 75.8863C279.22 74.6485 281.318 71.6059 281.335 68.0213C281.355 63.325 277.801 59.501 273.397 59.4811C268.995 59.4607 265.409 63.2514 265.389 67.9477C265.374 71.5656 267.487 74.6447 270.47 75.8863C258.2 77.7346 258.757 91.0703 258.757 91.0703L287.771 91.204C287.771 91.204 288.432 77.7231 276.27 75.8863Z" fill="#F5F5F5"/>
<path d="M104.844 26.0488L85.8836 19.3435L67.1073 25.9585C64.7105 27.0734 62.6074 27.7409 62.6074 29.94V40.8885C62.6074 48.4917 64.6305 56.0264 68.7924 62.6779C72.2951 68.2754 77.7185 74.0392 86.0673 77.7026C93.7422 75.2475 99.4715 68.7029 102.974 63.1054C107.136 56.4539 109.159 48.9192 109.159 41.316V31.4696C109.159 28.3342 107.472 26.8027 104.844 26.0488Z" fill="#F5F5F5"/>
<path d="M92.1815 43.7237C92.1815 40.8245 89.8308 38.4738 86.9316 38.4738C84.0324 38.4738 81.6816 40.8245 81.6816 43.7237C81.6816 46.123 83.3008 48.1243 85.4992 48.7509V56.5998H88.3632V48.7509C90.5623 48.1243 92.1815 46.123 92.1815 43.7237Z" fill="#405FC4"/>
<path d="M266.073 127.536L269.307 129.286L267.853 131.719L264.59 129.79L264.649 133.38H261.861L261.89 129.76L258.627 131.719L257.202 129.286L260.436 127.536L257.202 125.756L258.627 123.323L261.89 125.282L261.861 121.662H264.649L264.59 125.282L267.853 123.323L269.307 125.756L266.073 127.536Z" fill="#E0E0E0"/>
<path d="M279.54 127.535L282.774 129.286L281.32 131.719L278.056 129.79L278.116 133.38H275.328L275.357 129.76L272.094 131.719L270.669 129.286L273.903 127.535L270.669 125.756L272.094 123.323L275.357 125.281L275.328 121.662H278.116L278.056 125.281L281.32 123.323L282.774 125.756L279.54 127.535Z" fill="#E0E0E0"/>
<path d="M293.008 127.535L296.242 129.286L294.788 131.719L291.524 129.79L291.584 133.38H288.795L288.825 129.76L285.561 131.719L284.137 129.286L287.371 127.535L284.137 125.756L285.561 123.323L288.825 125.281L288.795 121.662H291.584L291.524 125.281L294.788 123.323L296.242 125.756L293.008 127.535Z" fill="#E0E0E0"/>
<path d="M155.991 280.727V300.608H185.063H217.128V280.727H155.991Z" fill="#F5F5F5"/>
<path d="M153.426 275.169V280.727H219.266V275.169H185.063H153.426Z" fill="#EBEBEB"/>
<path d="M186.345 300.608H217.127V280.727H219.265V275.169H185.062V280.213L186.345 300.608Z" fill="#EBEBEB"/>
<path d="M176.939 283.933H164.541V286.926H176.939V283.933Z" fill="#E0E0E0"/>
<path d="M178.865 290.667H162.945V296.986H178.865V290.667Z" fill="white"/>
<path d="M165.396 255.315V275.196H194.468H226.533V255.315H165.396Z" fill="#F5F5F5"/>
<path d="M162.831 249.758V255.315H228.67V249.758H194.468H162.831Z" fill="#EBEBEB"/>
<path d="M195.751 275.196H226.533V255.315H228.671V249.758H194.468V254.801L195.751 275.196Z" fill="#EBEBEB"/>
<path d="M186.344 258.522H173.946V261.514H186.344V258.522Z" fill="#E0E0E0"/>
<path d="M188.271 265.255H172.351V271.575H188.271V265.255Z" fill="white"/>
<path d="M297.004 300.76C297.004 300.852 235.66 300.926 160.007 300.926C84.3267 300.926 22.9961 300.851 22.9961 300.76C22.9961 300.668 84.3267 300.594 160.007 300.594C235.66 300.594 297.004 300.668 297.004 300.76Z" fill="#263238"/>
<path d="M240.453 144.985H126.127C123.808 144.985 121.928 143.105 121.928 140.786V35.6027C121.928 33.284 123.807 31.4037 126.127 31.4037H240.453C242.772 31.4037 244.652 33.2834 244.652 35.6027V140.785C244.652 143.104 242.772 144.985 240.453 144.985Z" fill="white"/>
<path d="M240.453 144.985C240.453 144.985 240.555 144.974 240.755 144.961C240.955 144.947 241.254 144.906 241.634 144.796C242.01 144.678 242.47 144.485 242.939 144.133C243.403 143.783 243.886 143.275 244.211 142.575C244.573 141.883 244.647 141.009 244.611 140.053C244.608 139.097 244.605 138.05 244.603 136.917C244.598 134.65 244.593 132.035 244.587 129.092C244.575 117.312 244.557 100.275 244.534 79.2226C244.528 68.6946 244.522 57.1637 244.514 44.7848C244.508 41.693 244.502 38.548 244.497 35.3531C244.422 33.803 243.353 32.3438 241.869 31.8088C241.135 31.5029 240.331 31.5522 239.507 31.5502C238.689 31.5509 237.867 31.5509 237.044 31.5515C230.45 31.5534 223.663 31.556 216.704 31.5586C188.866 31.5624 158.262 31.5669 126.138 31.572C125.171 31.5733 124.216 31.9266 123.489 32.5595C122.757 33.1848 122.267 34.0821 122.14 35.0325C122.074 35.4997 122.1 36.004 122.095 36.5026V37.9963C122.095 38.9915 122.095 39.9848 122.095 40.9762C122.095 44.9429 122.094 48.8834 122.094 52.7957C122.093 60.6197 122.092 68.3285 122.091 75.9036C122.088 91.0536 122.085 105.667 122.082 119.587C122.079 126.548 122.077 133.335 122.075 139.93C122.078 140.339 122.064 140.761 122.093 141.151C122.136 141.544 122.216 141.935 122.369 142.3C122.664 143.034 123.178 143.671 123.821 144.119C124.467 144.565 125.238 144.819 126.017 144.836C126.822 144.838 127.624 144.841 128.422 144.842C131.62 144.844 134.769 144.846 137.864 144.847C150.243 144.854 161.775 144.861 172.303 144.867C193.355 144.89 210.391 144.908 222.17 144.921C228.054 144.934 232.623 144.945 235.727 144.952C237.274 144.959 238.454 144.965 239.253 144.969C240.046 144.973 240.453 144.985 240.453 144.985C240.453 144.985 240.046 144.996 239.252 145.002C238.453 145.006 237.273 145.011 235.726 145.018C232.623 145.026 228.052 145.036 222.168 145.05C210.39 145.063 193.354 145.081 172.301 145.103C161.773 145.109 150.242 145.116 137.862 145.123C134.767 145.125 131.619 145.127 128.42 145.128C127.62 145.127 126.815 145.125 126.008 145.123C125.174 145.106 124.347 144.834 123.655 144.357C122.965 143.877 122.414 143.196 122.097 142.41C121.934 142.018 121.846 141.599 121.8 141.177C121.769 140.746 121.784 140.345 121.78 139.93C121.778 133.336 121.776 126.549 121.773 119.588C121.77 105.667 121.767 91.0536 121.764 75.9042C121.763 68.3291 121.762 60.6197 121.761 52.7963C121.761 48.8847 121.761 44.9435 121.761 40.9768C121.761 39.9848 121.761 38.9915 121.761 37.997V36.5032C121.767 36.0072 121.737 35.5086 121.809 34.9864C121.947 33.9573 122.478 32.9851 123.27 32.3086C124.055 31.6238 125.093 31.2398 126.137 31.2398C158.26 31.2443 188.865 31.2488 216.703 31.2526C223.662 31.2552 230.449 31.2571 237.042 31.2597C237.867 31.2597 238.688 31.2603 239.506 31.2603C240.306 31.2629 241.18 31.2104 241.969 31.5394C243.558 32.1147 244.701 33.677 244.78 35.3371C244.783 38.5384 244.786 41.6885 244.789 44.7861C244.781 57.165 244.775 68.6959 244.769 79.2239C244.746 100.276 244.728 117.314 244.715 129.093C244.71 132.037 244.705 134.652 244.7 136.919C244.697 138.051 244.694 139.098 244.692 140.055C244.724 141.002 244.643 141.91 244.269 142.606C243.935 143.315 243.441 143.826 242.968 144.175C242.49 144.527 242.022 144.716 241.642 144.83C241.257 144.936 240.955 144.972 240.755 144.979C240.555 144.985 240.453 144.985 240.453 144.985Z" fill="#263238"/>
<path d="M131.189 39.2757C131.189 40.4475 130.239 41.3973 129.067 41.3973C127.895 41.3973 126.945 40.4475 126.945 39.2757C126.945 38.1038 127.895 37.1541 129.067 37.1541C130.239 37.1541 131.189 38.1038 131.189 39.2757Z" fill="#263238"/>
<path d="M135.264 41.3973C136.436 41.3973 137.386 40.4474 137.386 39.2757C137.386 38.104 136.436 37.1541 135.264 37.1541C134.092 37.1541 133.143 38.104 133.143 39.2757C133.143 40.4474 134.092 41.3973 135.264 41.3973Z" fill="#263238"/>
<path d="M141.46 41.3973C142.632 41.3973 143.582 40.4474 143.582 39.2757C143.582 38.104 142.632 37.1541 141.46 37.1541C140.289 37.1541 139.339 38.104 139.339 39.2757C139.339 40.4474 140.289 41.3973 141.46 41.3973Z" fill="#263238"/>
<path d="M244.652 45.2943C244.652 45.3864 217.177 45.4607 183.293 45.4607C149.397 45.4607 121.928 45.3858 121.928 45.2943C121.928 45.2027 149.397 45.1279 183.293 45.1279C217.177 45.1279 244.652 45.2027 244.652 45.2943Z" fill="#263238"/>
<path d="M200.625 88.0808C200.625 88.0808 200.673 88.013 200.771 87.8837C200.796 87.8511 200.824 87.8152 200.854 87.7749C200.882 87.7333 200.907 87.6834 200.937 87.6315C200.996 87.5272 201.071 87.4082 201.124 87.2584C201.153 87.1848 201.188 87.1087 201.217 87.0248C201.241 86.9397 201.265 86.8501 201.292 86.7554C201.322 86.6619 201.338 86.5615 201.354 86.4559C201.367 86.3503 201.396 86.2415 201.4 86.1256C201.45 85.6648 201.419 85.1272 201.327 84.5333C201.143 83.3423 200.638 81.94 199.865 80.4162C199.093 78.8885 198.031 77.2456 196.725 75.533C195.419 73.8197 193.848 72.0507 192.044 70.2741C190.236 68.4994 188.19 66.717 185.897 65.0274C184.749 64.1839 183.539 63.3659 182.264 62.596C180.989 61.8235 179.645 61.1035 178.228 60.4795C176.81 59.8632 175.315 59.3263 173.737 59.0715C172.951 58.9506 172.14 58.8917 171.342 59.0127C170.944 59.0741 170.554 59.1823 170.185 59.3474C169.823 59.524 169.489 59.7595 169.214 60.0571C168.95 60.3643 168.752 60.7221 168.617 61.1016C168.495 61.4863 168.43 61.8869 168.415 62.2895C168.385 63.0959 168.535 63.8952 168.745 64.6626C169.177 66.2011 169.881 67.6264 170.654 68.9653C171.436 70.3029 172.304 71.5567 173.216 72.7349C174.127 73.9151 175.077 75.0248 176.046 76.0687C177.986 78.1551 179.99 79.9855 181.958 81.5791C183.929 83.1707 185.866 84.5295 187.716 85.6322C189.567 86.7343 191.32 87.6027 192.925 88.196C194.527 88.7906 195.978 89.1323 197.181 89.1797C197.782 89.2034 198.319 89.1727 198.771 89.0709C198.886 89.0543 198.991 89.0133 199.094 88.9877C199.197 88.9602 199.295 88.9327 199.384 88.8917C199.475 88.8552 199.561 88.8207 199.643 88.7874C199.722 88.7483 199.795 88.7055 199.864 88.6683C200.007 88.5986 200.116 88.5115 200.214 88.4405C200.262 88.4047 200.308 88.3739 200.347 88.3413C200.383 88.3067 200.416 88.2747 200.445 88.2466C200.563 88.1371 200.625 88.0808 200.625 88.0808C200.625 88.0808 200.568 88.141 200.452 88.2562C200.423 88.285 200.39 88.317 200.355 88.3528C200.317 88.3861 200.27 88.4175 200.223 88.4539C200.126 88.5263 200.017 88.6152 199.874 88.6869C199.804 88.7253 199.732 88.7688 199.652 88.8085C199.57 88.8424 199.484 88.8783 199.393 88.9154C199.303 88.957 199.204 88.9851 199.101 89.0139C198.997 89.0402 198.892 89.0824 198.776 89.0997C198.322 89.2053 197.782 89.2392 197.179 89.2181C195.969 89.1765 194.513 88.8386 192.906 88.2472C191.295 87.6578 189.537 86.7919 187.681 85.6917C185.825 84.5909 183.884 83.2335 181.908 81.6424C179.935 80.0495 177.926 78.2191 175.981 76.1307C175.011 75.0856 174.058 73.9746 173.144 72.7925C172.228 71.6117 171.357 70.3554 170.573 69.0139C169.796 67.6712 169.089 66.2408 168.653 64.6895C168.442 63.9157 168.289 63.108 168.319 62.2875C168.335 61.8779 168.401 61.4683 168.526 61.0735C168.664 60.6824 168.868 60.3138 169.142 59.9957C169.427 59.6879 169.771 59.4447 170.143 59.2629C170.522 59.0927 170.921 58.9826 171.326 58.9199C172.138 58.797 172.957 58.8571 173.75 58.9794C175.34 59.236 176.841 59.7762 178.263 60.3951C179.684 61.0216 181.032 61.7442 182.308 62.5186C183.587 63.2917 184.799 64.1115 185.947 64.9576C188.243 66.6517 190.289 68.4392 192.097 70.2184C193.902 72.0002 195.472 73.7743 196.777 75.4927C198.081 77.2104 199.142 78.8591 199.911 80.3919C200.682 81.9221 201.183 83.3301 201.362 84.5275C201.452 85.124 201.48 85.6648 201.427 86.1282C201.423 86.2447 201.393 86.3541 201.379 86.4603C201.362 86.5666 201.345 86.6677 201.314 86.7618C201.287 86.8565 201.261 86.9461 201.237 87.0319C201.207 87.1151 201.171 87.1919 201.141 87.2655C201.086 87.4159 201.011 87.5343 200.949 87.6386C200.918 87.6904 200.892 87.7397 200.863 87.7813C200.832 87.821 200.804 87.8568 200.778 87.8888C200.678 88.0168 200.625 88.0808 200.625 88.0808Z" fill="#FF5733"/>
<path d="M206.435 74.0565C206.435 74.0565 206.426 73.9733 206.413 73.8113C206.41 73.771 206.406 73.7256 206.402 73.675C206.395 73.6251 206.381 73.5713 206.369 73.5125C206.343 73.3947 206.32 73.2571 206.259 73.1099C206.232 73.0357 206.207 72.9557 206.173 72.8737C206.134 72.7944 206.093 72.7112 206.05 72.6235C206.01 72.5339 205.955 72.4481 205.897 72.3585C205.837 72.2709 205.786 72.1704 205.711 72.0814C205.442 71.7045 205.061 71.3237 204.597 70.9422C203.667 70.1761 202.357 69.4657 200.765 68.843C199.173 68.2171 197.286 67.6981 195.172 67.2891C193.057 66.8801 190.707 66.6049 188.177 66.4808C185.647 66.3598 182.934 66.3912 180.098 66.6574C178.68 66.7918 177.233 66.987 175.768 67.2616C174.303 67.5336 172.821 67.8913 171.347 68.3688C169.879 68.8526 168.406 69.4472 167.059 70.3073C166.392 70.74 165.748 71.2366 165.233 71.8574C164.977 72.1678 164.758 72.5089 164.593 72.8776C164.44 73.2507 164.348 73.6481 164.341 74.0539C164.348 74.4597 164.439 74.8577 164.591 75.2309C164.757 75.5995 164.975 75.9413 165.231 76.2517C165.745 76.8737 166.39 77.3697 167.057 77.803C168.404 78.6638 169.878 79.259 171.346 79.7429C172.819 80.2209 174.302 80.5781 175.767 80.8507C177.232 81.1253 178.68 81.3205 180.098 81.4549C182.934 81.7205 185.648 81.7525 188.178 81.6309C190.708 81.5067 193.058 81.2315 195.173 80.8225C197.287 80.4136 199.174 79.8945 200.766 79.2686C202.357 78.6459 203.668 77.9355 204.597 77.1694C205.061 76.788 205.441 76.4065 205.711 76.0302C205.786 75.9413 205.836 75.8414 205.896 75.7531C205.955 75.6635 206.01 75.5777 206.049 75.4881C206.093 75.4005 206.134 75.3173 206.173 75.2379C206.206 75.156 206.231 75.076 206.259 75.0017C206.319 74.8545 206.342 74.7169 206.368 74.5992C206.38 74.5403 206.394 74.4865 206.401 74.4366C206.405 74.3867 206.409 74.3413 206.412 74.3003C206.426 74.1397 206.435 74.0565 206.435 74.0565C206.435 74.0565 206.432 74.1397 206.422 74.3022C206.42 74.3432 206.417 74.3886 206.414 74.4392C206.408 74.4891 206.394 74.5435 206.383 74.603C206.36 74.7214 206.337 74.8603 206.278 75.0088C206.252 75.0837 206.227 75.1643 206.195 75.2469C206.156 75.3269 206.115 75.4113 206.072 75.4997C206.033 75.5899 205.978 75.6769 205.92 75.7672C205.86 75.8561 205.809 75.9573 205.735 76.0469C205.466 76.4277 205.085 76.8129 204.621 77.1982C203.691 77.972 202.38 78.6894 200.786 79.3185C199.192 79.9509 197.302 80.475 195.186 80.8885C193.068 81.3025 190.716 81.5816 188.182 81.7096C185.649 81.8344 182.932 81.8056 180.09 81.5419C178.67 81.4081 177.219 81.2136 175.751 80.9397C174.282 80.6677 172.796 80.3099 171.318 79.8312C169.845 79.3461 168.364 78.7496 167.007 77.8824C166.334 77.4453 165.683 76.9448 165.159 76.3125C164.898 75.9963 164.675 75.6468 164.505 75.2686C164.348 74.8846 164.254 74.4737 164.247 74.0545C164.254 73.6353 164.349 73.2244 164.506 72.8411C164.675 72.4628 164.9 72.1141 165.161 71.7979C165.685 71.1662 166.336 70.6651 167.009 70.2293C168.367 69.3627 169.846 68.7662 171.32 68.2817C172.798 67.803 174.284 67.4453 175.752 67.1739C177.221 66.9 178.671 66.7054 180.091 66.5716C182.932 66.308 185.649 66.2792 188.182 66.404C190.716 66.532 193.068 66.811 195.186 67.2245C197.302 67.6379 199.192 68.162 200.786 68.7944C202.38 69.4235 203.691 70.1403 204.621 70.9147C205.085 71.3 205.466 71.6852 205.735 72.0661C205.809 72.1557 205.86 72.2568 205.92 72.3457C205.978 72.436 206.033 72.523 206.072 72.6139C206.115 72.7022 206.156 72.7867 206.195 72.8667C206.227 72.9492 206.252 73.0299 206.278 73.1048C206.337 73.2533 206.36 73.3921 206.383 73.5105C206.394 73.5701 206.408 73.6238 206.414 73.6744C206.417 73.7249 206.42 73.7704 206.422 73.8113C206.432 73.9733 206.435 74.0565 206.435 74.0565Z" fill="#FF5733"/>
<path d="M198.736 56.5998C198.736 56.5998 198.665 56.5557 198.53 56.4667C198.496 56.4443 198.457 56.4194 198.416 56.3918C198.372 56.3669 198.321 56.3451 198.267 56.3189C198.159 56.267 198.036 56.2011 197.882 56.1582C197.807 56.1346 197.728 56.1051 197.643 56.0814C197.556 56.0642 197.465 56.0456 197.369 56.0258C197.274 56.0021 197.172 55.9931 197.065 55.9848C196.959 55.9784 196.848 55.9573 196.733 55.9618C196.269 55.9438 195.735 56.011 195.149 56.1442C193.974 56.4098 192.61 57.0101 191.142 57.8862C189.672 58.7611 188.105 59.9349 186.488 61.355C184.868 62.7758 183.211 64.4648 181.563 66.388C179.917 68.3131 178.28 70.477 176.752 72.8814C175.99 74.084 175.257 75.348 174.577 76.6741C173.894 77.9989 173.269 79.389 172.744 80.8462C172.227 82.3029 171.794 83.8318 171.649 85.4229C171.583 86.2158 171.58 87.0286 171.755 87.8158C171.844 88.2082 171.979 88.5909 172.169 88.9467C172.37 89.2962 172.629 89.6123 172.944 89.8664C173.27 90.109 173.64 90.2811 174.028 90.3899C174.42 90.4853 174.824 90.5224 175.227 90.5096C176.033 90.484 176.82 90.2792 177.572 90.0168C179.077 89.4798 180.45 88.6792 181.732 87.8158C183.013 86.9442 184.203 85.9918 185.316 85.0005C186.431 84.0104 187.472 82.9858 188.447 81.9477C190.395 79.869 192.083 77.7435 193.537 75.6693C194.989 73.5938 196.211 71.5682 197.184 69.6456C198.156 67.7243 198.902 65.915 199.383 64.2728C199.865 62.6338 200.107 61.163 200.071 59.9586C200.054 59.3582 199.986 58.8238 199.853 58.3803C199.828 58.267 199.78 58.1653 199.748 58.0642C199.713 57.963 199.679 57.867 199.632 57.7806C199.59 57.693 199.549 57.6091 199.51 57.5298C199.466 57.4536 199.418 57.3845 199.376 57.3173C199.297 57.1797 199.202 57.0766 199.125 56.9845C199.086 56.939 199.052 56.8949 199.017 56.859C198.98 56.8251 198.946 56.7944 198.916 56.7675C198.797 56.6574 198.736 56.5998 198.736 56.5998C198.736 56.5998 198.8 56.653 198.923 56.7598C198.954 56.7867 198.989 56.8168 199.026 56.8501C199.062 56.8859 199.097 56.9294 199.136 56.9749C199.215 57.0664 199.312 57.1688 199.393 57.3064C199.436 57.3736 199.485 57.4421 199.53 57.5189C199.57 57.5989 199.611 57.6827 199.655 57.7704C199.702 57.8568 199.737 57.9534 199.773 58.0546C199.807 58.1563 199.856 58.2581 199.881 58.372C200.018 58.8181 200.089 59.3544 200.109 59.9573C200.151 61.1669 199.914 62.6427 199.435 64.2875C198.959 65.9349 198.216 67.7486 197.245 69.6757C196.275 71.6027 195.055 73.6334 193.603 75.7141C192.15 77.7928 190.462 79.9227 188.512 82.0066C187.536 83.0472 186.495 84.0744 185.378 85.067C184.263 86.0616 183.07 87.0171 181.785 87.892C180.499 88.7592 179.121 89.5637 177.604 90.1051C176.846 90.3694 176.051 90.5774 175.231 90.6037C174.821 90.6165 174.408 90.5787 174.005 90.4808C173.606 90.3694 173.224 90.1922 172.888 89.9406C172.56 89.6782 172.294 89.3512 172.088 88.9922C171.892 88.6267 171.754 88.2357 171.664 87.8357C171.485 87.0344 171.489 86.2133 171.556 85.4139C171.703 83.8101 172.138 82.2754 172.658 80.8142C173.185 79.3525 173.813 77.9592 174.498 76.6318C175.181 75.3032 175.916 74.0379 176.68 72.8341C178.212 70.427 179.855 68.2619 181.505 66.3362C183.158 64.4123 184.82 62.724 186.445 61.3038C188.068 59.8843 189.64 58.7125 191.117 57.8402C192.59 56.9659 193.961 56.3688 195.142 56.1077C195.731 55.9771 196.269 55.9118 196.735 55.933C196.851 55.9291 196.962 55.9509 197.069 55.9579C197.176 55.9675 197.279 55.9771 197.374 56.0014C197.47 56.0219 197.561 56.0411 197.648 56.0597C197.734 56.084 197.813 56.1147 197.888 56.139C198.042 56.1832 198.166 56.251 198.274 56.3048C198.328 56.3323 198.379 56.3547 198.422 56.3803C198.464 56.4091 198.502 56.4347 198.536 56.4578C198.669 56.5506 198.736 56.5998 198.736 56.5998Z" fill="#FF5733"/>
<path d="M164.064 82.7528C164.37 83.0587 164.37 83.5541 164.064 83.8593C163.759 84.1646 163.263 84.1646 162.957 83.8593C162.652 83.5541 162.652 83.0581 162.957 82.7528C163.263 82.4475 163.759 82.4475 164.064 82.7528Z" fill="#FF5733"/>
<path d="M208.216 58.5045C208.216 58.9365 207.866 59.2872 207.433 59.2872C207.001 59.2872 206.65 58.9371 206.65 58.5045C206.65 58.0725 207 57.7218 207.433 57.7218C207.865 57.7218 208.216 58.0725 208.216 58.5045Z" fill="#FF5733"/>
<path d="M169.006 85.3262C169.006 85.4363 168.918 85.5253 168.807 85.5253C168.697 85.5253 168.608 85.4363 168.608 85.3262C168.608 85.2162 168.697 85.1272 168.807 85.1272C168.918 85.1272 169.006 85.2162 169.006 85.3262Z" fill="#FF5733"/>
<path d="M173.251 63.3986C173.251 63.5086 173.162 63.5976 173.052 63.5976C172.942 63.5976 172.853 63.5086 172.853 63.3986C172.853 63.2885 172.942 63.1995 173.052 63.1995C173.162 63.1995 173.251 63.2885 173.251 63.3986Z" fill="#FF5733"/>
<path d="M204.285 74.0565C204.285 74.1666 204.196 74.2555 204.086 74.2555C203.976 74.2555 203.887 74.1666 203.887 74.0565C203.887 73.9464 203.976 73.8575 204.086 73.8575C204.196 73.8581 204.285 73.9471 204.285 74.0565Z" fill="#FF5733"/>
<path d="M207.048 64.7854C207.048 64.8955 206.96 64.9845 206.849 64.9845C206.739 64.9845 206.65 64.8955 206.65 64.7854C206.65 64.6754 206.739 64.5864 206.849 64.5864C206.96 64.5864 207.048 64.6754 207.048 64.7854Z" fill="#FF5733"/>
<path d="M193.646 78.4296H191.186V65.044C191.186 61.8933 188.623 59.3301 185.472 59.3301C182.322 59.3301 179.758 61.8933 179.758 65.044V78.4296H177.299V65.044C177.299 60.5371 180.965 56.8705 185.472 56.8705C189.978 56.8705 193.645 60.5371 193.645 65.044V78.4296H193.646Z" fill="#FF5733"/>
<g opacity="0.3">
<path d="M193.646 78.4296H191.186V65.044C191.186 61.8933 188.623 59.3301 185.472 59.3301C182.322 59.3301 179.758 61.8933 179.758 65.044V78.4296H177.299V65.044C177.299 60.5371 180.965 56.8705 185.472 56.8705C189.978 56.8705 193.645 60.5371 193.645 65.044V78.4296H193.646Z" fill="black"/>
</g>
<path d="M195.046 86.6082H175.899C175.103 86.6082 174.458 85.963 174.458 85.1669V73.9163C174.458 73.1202 175.103 72.475 175.899 72.475H195.046C195.842 72.475 196.487 73.1202 196.487 73.9163V85.1669C196.487 85.9624 195.842 86.6082 195.046 86.6082Z" fill="#FF5733"/>
<g opacity="0.3">
<path d="M187.313 77.7C187.313 76.683 186.489 75.8587 185.472 75.8587C184.455 75.8587 183.631 76.683 183.631 77.7C183.631 78.5416 184.199 79.2437 184.97 79.4632V82.2158H185.975V79.4632C186.746 79.2437 187.313 78.5416 187.313 77.7Z" fill="black"/>
</g>
<path d="M175.634 85.268C175.583 85.268 175.542 82.9109 175.542 80.004C175.542 77.0965 175.583 74.74 175.634 74.74C175.684 74.74 175.725 77.0965 175.725 80.004C175.724 82.9109 175.683 85.268 175.634 85.268Z" fill="#FAFAFA"/>
<path d="M184.03 80.0603C184.024 80.0693 183.944 80.0315 183.814 79.9381C183.684 79.8453 183.512 79.6859 183.339 79.4542C182.996 79.0037 182.682 78.1857 182.886 77.3025C183.099 76.4213 183.747 75.8312 184.256 75.5822C184.513 75.4523 184.739 75.3877 184.897 75.3627C185.055 75.3371 185.144 75.3397 185.145 75.3499C185.153 75.3845 184.795 75.4177 184.318 75.6955C183.848 75.9611 183.261 76.5301 183.064 77.3442C182.875 78.1595 183.144 78.932 183.446 79.38C183.748 79.8433 184.052 80.0328 184.03 80.0603Z" fill="#FAFAFA"/>
<path d="M218.179 111.38H150.352C147.058 111.38 144.389 108.711 144.389 105.417V104.683C144.389 101.39 147.058 98.7202 150.352 98.7202H218.179C221.472 98.7202 224.142 101.39 224.142 104.683V105.417C224.142 108.71 221.472 111.38 218.179 111.38Z" fill="#F5F5F5"/>
<path d="M218.766 128.739H150.938C147.645 128.739 144.976 126.07 144.976 122.776V122.042C144.976 118.749 147.645 116.079 150.938 116.079H218.766C222.059 116.079 224.729 118.749 224.729 122.042V122.776C224.729 126.07 222.059 128.739 218.766 128.739Z" fill="#F5F5F5"/>
<path d="M156.993 104.95V103.116H157.752V104.922C157.752 105.544 158.023 105.801 158.481 105.801C158.945 105.801 159.211 105.544 159.211 104.922V103.116H159.96V104.95C159.96 105.913 159.408 106.447 158.477 106.447C157.545 106.447 156.993 105.914 156.993 104.95Z" fill="#263238"/>
<path d="M160.413 106.157L160.656 105.633C160.881 105.778 161.222 105.876 161.531 105.876C161.867 105.876 161.994 105.787 161.994 105.647C161.994 105.235 160.474 105.656 160.474 104.65C160.474 104.173 160.905 103.836 161.639 103.836C161.984 103.836 162.368 103.916 162.607 104.056L162.364 104.576C162.115 104.435 161.868 104.389 161.639 104.389C161.311 104.389 161.171 104.492 161.171 104.623C161.171 105.053 162.691 104.637 162.691 105.628C162.691 106.096 162.256 106.428 161.504 106.428C161.077 106.428 160.647 106.311 160.413 106.157Z" fill="#263238"/>
<path d="M165.592 105.338H163.688C163.757 105.652 164.023 105.843 164.407 105.843C164.674 105.843 164.866 105.764 165.039 105.6L165.427 106.021C165.193 106.288 164.842 106.428 164.388 106.428C163.519 106.428 162.952 105.881 162.952 105.132C162.952 104.379 163.528 103.837 164.296 103.837C165.034 103.837 165.605 104.333 165.605 105.142C165.606 105.198 165.596 105.278 165.592 105.338ZM163.679 104.913H164.918C164.867 104.595 164.628 104.389 164.301 104.389C163.968 104.389 163.73 104.59 163.679 104.913Z" fill="#263238"/>
<path d="M167.655 103.837V104.511C167.593 104.506 167.547 104.501 167.491 104.501C167.088 104.501 166.821 104.721 166.821 105.203V106.391H166.092V103.874H166.789V104.206C166.966 103.963 167.266 103.837 167.655 103.837Z" fill="#263238"/>
<path d="M170.663 104.95V106.391H169.933V105.062C169.933 104.655 169.746 104.468 169.423 104.468C169.072 104.468 168.819 104.683 168.819 105.146V106.391H168.09V103.874H168.787V104.168C168.983 103.953 169.278 103.836 169.619 103.836C170.214 103.837 170.663 104.183 170.663 104.95Z" fill="#263238"/>
<path d="M173.549 104.955V106.391H172.867V106.078C172.731 106.307 172.469 106.428 172.099 106.428C171.51 106.428 171.159 106.101 171.159 105.666C171.159 105.222 171.472 104.913 172.239 104.913H172.819C172.819 104.599 172.632 104.417 172.239 104.417C171.973 104.417 171.697 104.506 171.514 104.651L171.253 104.141C171.528 103.944 171.935 103.837 172.337 103.837C173.104 103.837 173.549 104.192 173.549 104.955ZM172.819 105.596V105.338H172.319C171.978 105.338 171.87 105.464 171.87 105.633C171.87 105.815 172.024 105.937 172.282 105.937C172.524 105.937 172.735 105.825 172.819 105.596Z" fill="#263238"/>
<path d="M178.46 104.95V106.391H177.731V105.062C177.731 104.655 177.548 104.468 177.253 104.468C176.925 104.468 176.697 104.679 176.697 105.127V106.391H175.967V105.062C175.967 104.655 175.793 104.468 175.49 104.468C175.167 104.468 174.938 104.679 174.938 105.127V106.391H174.208V103.874H174.905V104.164C175.092 103.949 175.372 103.836 175.695 103.836C176.046 103.836 176.346 103.972 176.524 104.248C176.724 103.991 177.052 103.836 177.431 103.836C178.03 103.837 178.46 104.183 178.46 104.95Z" fill="#263238"/>
<path d="M181.595 105.338H179.691C179.761 105.652 180.027 105.843 180.411 105.843C180.678 105.843 180.87 105.764 181.042 105.6L181.43 106.021C181.197 106.288 180.845 106.428 180.392 106.428C179.522 106.428 178.956 105.881 178.956 105.132C178.956 104.379 179.531 103.837 180.299 103.837C181.037 103.837 181.608 104.333 181.608 105.142C181.608 105.198 181.599 105.278 181.595 105.338ZM179.682 104.913H180.921C180.87 104.595 180.631 104.389 180.303 104.389C179.972 104.389 179.733 104.59 179.682 104.913Z" fill="#263238"/>
<path d="M186.417 105.109C186.417 105.946 186.034 106.424 185.459 106.424C185.14 106.424 184.916 106.284 184.818 106.017C184.654 106.279 184.387 106.424 184.018 106.424C183.414 106.424 182.937 105.946 182.937 105.24C182.937 104.538 183.409 104.062 184.018 104.062C184.326 104.062 184.57 104.169 184.739 104.37V104.094H185.374V105.609C185.374 105.834 185.473 105.909 185.599 105.909C185.814 105.909 185.946 105.661 185.946 105.118C185.946 104.169 185.243 103.514 184.205 103.514C183.162 103.514 182.465 104.225 182.465 105.203C182.465 106.199 183.147 106.906 184.186 106.906C184.481 106.906 184.813 106.845 185.108 106.7L185.257 107.13C184.972 107.275 184.555 107.354 184.186 107.354C182.834 107.354 181.94 106.437 181.94 105.203C181.94 103.982 182.843 103.07 184.204 103.07C185.519 103.07 186.417 103.935 186.417 105.109ZM184.748 105.24C184.748 104.833 184.5 104.604 184.163 104.604C183.822 104.604 183.583 104.843 183.583 105.24C183.583 105.642 183.822 105.886 184.163 105.886C184.5 105.886 184.748 105.652 184.748 105.24Z" fill="#263238"/>
<path d="M191.189 104.95V106.391H190.459V105.062C190.459 104.655 190.277 104.468 189.982 104.468C189.654 104.468 189.425 104.679 189.425 105.127V106.391H188.695V105.062C188.695 104.655 188.522 104.468 188.218 104.468C187.895 104.468 187.666 104.679 187.666 105.127V106.391H186.937V103.874H187.633V104.164C187.82 103.949 188.101 103.836 188.424 103.836C188.775 103.836 189.074 103.972 189.252 104.248C189.453 103.991 189.78 103.836 190.16 103.836C190.759 103.837 191.189 104.183 191.189 104.95Z" fill="#263238"/>
<path d="M194.07 104.955V106.391H193.388V106.078C193.253 106.307 192.991 106.428 192.621 106.428C192.031 106.428 191.681 106.101 191.681 105.666C191.681 105.222 191.994 104.913 192.761 104.913H193.341C193.341 104.599 193.154 104.417 192.761 104.417C192.494 104.417 192.218 104.506 192.036 104.651L191.774 104.141C192.05 103.944 192.456 103.837 192.859 103.837C193.626 103.837 194.07 104.192 194.07 104.955ZM193.341 105.596V105.338H192.84C192.499 105.338 192.392 105.464 192.392 105.633C192.392 105.815 192.546 105.937 192.803 105.937C193.046 105.937 193.256 105.825 193.341 105.596Z" fill="#263238"/>
<path d="M194.642 103.116C194.642 102.887 194.824 102.709 195.095 102.709C195.367 102.709 195.549 102.878 195.549 103.102C195.549 103.345 195.367 103.523 195.095 103.523C194.824 103.523 194.642 103.345 194.642 103.116ZM194.73 103.874H195.46V106.391H194.73V103.874Z" fill="#263238"/>
<path d="M196.138 102.92H196.867V106.391H196.138V102.92Z" fill="#263238"/>
<path d="M197.368 105.97C197.368 105.699 197.569 105.521 197.822 105.521C198.075 105.521 198.276 105.699 198.276 105.97C198.276 106.236 198.075 106.428 197.822 106.428C197.57 106.428 197.368 106.236 197.368 105.97Z" fill="#263238"/>
<path d="M198.552 105.132C198.552 104.375 199.137 103.837 199.955 103.837C200.484 103.837 200.901 104.066 201.083 104.478L200.517 104.782C200.381 104.543 200.18 104.435 199.95 104.435C199.581 104.435 199.291 104.693 199.291 105.132C199.291 105.572 199.581 105.829 199.95 105.829C200.179 105.829 200.381 105.726 200.517 105.483L201.083 105.792C200.901 106.193 200.484 106.428 199.955 106.428C199.137 106.428 198.552 105.89 198.552 105.132Z" fill="#263238"/>
<path d="M201.284 105.132C201.284 104.375 201.868 103.837 202.668 103.837C203.468 103.837 204.048 104.375 204.048 105.132C204.048 105.89 203.468 106.428 202.668 106.428C201.868 106.428 201.284 105.89 201.284 105.132ZM203.31 105.132C203.31 104.697 203.034 104.435 202.669 104.435C202.304 104.435 202.023 104.697 202.023 105.132C202.023 105.568 202.304 105.829 202.669 105.829C203.034 105.829 203.31 105.568 203.31 105.132Z" fill="#263238"/>
<path d="M208.787 104.95V106.391H208.058V105.062C208.058 104.655 207.875 104.468 207.58 104.468C207.253 104.468 207.024 104.679 207.024 105.127V106.391H206.294V105.062C206.294 104.655 206.12 104.468 205.817 104.468C205.494 104.468 205.265 104.679 205.265 105.127V106.391H204.535V103.874H205.232V104.164C205.419 103.949 205.699 103.836 206.023 103.836C206.373 103.836 206.673 103.972 206.851 104.248C207.051 103.991 207.379 103.836 207.758 103.836C208.357 103.837 208.787 104.183 208.787 104.95Z" fill="#263238"/>
<path d="M166.767 122.478L167.952 123.119L167.419 124.01L166.223 123.304L166.245 124.619H165.223L165.235 123.293L164.039 124.01L163.518 123.119L164.702 122.478L163.518 121.825L164.039 120.934L165.235 121.651L165.223 120.325H166.245L166.223 121.651L167.419 120.934L167.952 121.825L166.767 122.478Z" fill="#263238"/>
<path d="M171.699 122.478L172.884 123.119L172.352 124.01L171.156 123.304L171.178 124.619H170.156L170.167 123.293L168.972 124.01L168.45 123.119L169.635 122.478L168.45 121.825L168.972 120.934L170.167 121.651L170.156 120.325H171.178L171.156 121.651L172.352 120.934L172.884 121.825L171.699 122.478Z" fill="#263238"/>
<path d="M176.631 122.478L177.816 123.119L177.283 124.01L176.088 123.304L176.11 124.619H175.087L175.099 123.293L173.903 124.01L173.382 123.119L174.567 122.478L173.382 121.825L173.903 120.934L175.099 121.651L175.087 120.325H176.11L176.088 121.651L177.283 120.934L177.816 121.825L176.631 122.478Z" fill="#263238"/>
<path d="M181.564 122.478L182.748 123.119L182.216 124.01L181.02 123.304L181.042 124.619H180.02L180.032 123.293L178.836 124.01L178.314 123.119L179.5 122.478L178.314 121.825L178.836 120.934L180.032 121.651L180.02 120.325H181.042L181.02 121.651L182.216 120.934L182.748 121.825L181.564 122.478Z" fill="#263238"/>
<path d="M186.496 122.478L187.681 123.119L187.149 124.01L185.953 123.304L185.975 124.619H184.953L184.964 123.293L183.769 124.01L183.247 123.119L184.432 122.478L183.247 121.825L183.769 120.934L184.964 121.651L184.953 120.325H185.975L185.953 121.651L187.149 120.934L187.681 121.825L186.496 122.478Z" fill="#263238"/>
<path d="M191.429 122.478L192.613 123.119L192.081 124.01L190.885 123.304L190.907 124.619H189.885L189.896 123.293L188.7 124.01L188.179 123.119L189.364 122.478L188.179 121.825L188.7 120.934L189.896 121.651L189.885 120.325H190.907L190.885 121.651L192.081 120.934L192.613 121.825L191.429 122.478Z" fill="#263238"/>
<path d="M196.361 122.478L197.545 123.119L197.013 124.01L195.817 123.304L195.839 124.619H194.817L194.828 123.293L193.633 124.01L193.111 123.119L194.297 122.478L193.111 121.825L193.633 120.934L194.828 121.651L194.817 120.325H195.839L195.817 121.651L197.013 120.934L197.545 121.825L196.361 122.478Z" fill="#263238"/>
<path d="M201.293 122.478L202.477 123.119L201.944 124.01L200.749 123.304L200.771 124.619H199.749L199.76 123.293L198.565 124.01L198.043 123.119L199.228 122.478L198.043 121.825L198.565 120.934L199.76 121.651L199.749 120.325H200.771L200.749 121.651L201.944 120.934L202.477 121.825L201.293 122.478Z" fill="#263238"/>
<path d="M255.229 215.297H159.852C157.598 215.297 155.771 213.469 155.771 211.215V161.845C155.771 159.591 157.598 157.763 159.852 157.763H255.229C257.483 157.763 259.311 159.591 259.311 161.845V211.215C259.311 213.47 257.483 215.297 255.229 215.297Z" fill="white"/>
<path d="M255.229 215.297C255.228 215.279 255.508 215.302 256.035 215.2C256.549 215.086 257.343 214.819 258.09 214.08C258.456 213.712 258.794 213.221 259.014 212.618C259.134 212.32 259.196 211.988 259.243 211.642C259.269 211.294 259.264 210.925 259.262 210.541C259.258 209.005 259.253 207.235 259.247 205.242C259.234 197.263 259.216 185.727 259.194 171.474C259.192 169.692 259.19 167.868 259.188 166.002C259.187 165.07 259.186 164.126 259.185 163.173C259.162 162.219 259.286 161.243 258.895 160.371C258.543 159.497 257.862 158.75 257.003 158.319C256.575 158.103 256.104 157.965 255.622 157.916C255.146 157.88 254.627 157.904 254.127 157.897C252.104 157.898 250.045 157.9 247.95 157.902C239.567 157.906 230.611 157.912 221.186 157.917C202.336 157.921 181.613 157.925 159.861 157.93C159.207 157.933 158.559 158.098 157.985 158.403C157.42 158.722 156.922 159.168 156.572 159.714C156.226 160.26 155.995 160.886 155.954 161.533C155.922 162.179 155.945 162.872 155.938 163.537C155.938 166.224 155.937 168.892 155.937 171.541C155.937 176.839 155.935 182.058 155.935 187.188C155.934 192.317 155.932 197.356 155.93 202.29C155.93 204.757 155.928 207.198 155.928 209.612C155.932 210.211 155.918 210.824 155.937 211.409C155.964 211.985 156.119 212.552 156.387 213.059C156.926 214.076 157.924 214.821 159.034 215.056C159.583 215.185 160.168 215.131 160.759 215.143C161.344 215.143 161.928 215.144 162.51 215.144C163.673 215.144 164.829 215.145 165.977 215.146C168.273 215.147 170.539 215.148 172.771 215.15C177.237 215.153 181.572 215.155 185.763 215.158C194.146 215.166 201.954 215.172 209.083 215.178C223.336 215.201 234.87 215.219 242.849 215.232C246.831 215.245 249.925 215.256 252.03 215.263C253.075 215.27 253.873 215.276 254.417 215.28C254.954 215.286 255.229 215.297 255.229 215.297C255.229 215.297 254.954 215.308 254.416 215.314C253.872 215.318 253.073 215.323 252.029 215.331C249.924 215.338 246.831 215.349 242.849 215.362C234.87 215.375 223.335 215.393 209.082 215.415C201.953 215.422 194.145 215.428 185.763 215.436C181.571 215.438 177.236 215.441 172.771 215.444C170.538 215.445 168.273 215.447 165.976 215.448C164.828 215.448 163.672 215.449 162.509 215.45C161.927 215.45 161.343 215.45 160.758 215.45C160.181 215.438 159.578 215.496 158.97 215.358C157.772 215.105 156.696 214.303 156.113 213.207C155.823 212.659 155.655 212.046 155.626 211.425C155.605 210.81 155.619 210.219 155.615 209.612C155.614 207.199 155.613 204.757 155.612 202.291C155.611 197.356 155.61 192.318 155.608 187.189C155.608 182.06 155.607 176.839 155.606 171.541C155.606 168.892 155.605 166.224 155.605 163.538C155.613 162.861 155.588 162.207 155.622 161.507C155.667 160.807 155.916 160.125 156.292 159.533C156.673 158.94 157.212 158.456 157.826 158.111C158.449 157.779 159.154 157.6 159.861 157.597C181.612 157.601 202.335 157.606 221.186 157.61C230.611 157.615 239.567 157.62 247.95 157.625C250.045 157.626 252.105 157.628 254.127 157.63C254.637 157.637 255.125 157.613 255.649 157.652C256.163 157.705 256.665 157.853 257.121 158.085C258.037 158.545 258.76 159.343 259.134 160.274C259.325 160.739 259.425 161.237 259.433 161.733C259.434 162.215 259.436 162.695 259.437 163.173C259.437 164.126 259.436 165.068 259.435 166.001C259.433 167.867 259.431 169.692 259.429 171.473C259.407 185.726 259.389 197.262 259.376 205.242C259.37 207.234 259.365 209.005 259.361 210.54C259.36 210.924 259.363 211.292 259.333 211.651C259.283 212.005 259.216 212.343 259.092 212.647C258.862 213.26 258.513 213.756 258.136 214.127C257.37 214.87 256.561 215.128 256.041 215.232C255.773 215.274 255.571 215.297 255.434 215.294C255.299 215.299 255.229 215.297 255.229 215.297Z" fill="#263238"/>
<path d="M191.845 178.087V178.806H188.85V174.937H191.773V175.655H189.739V176.496H191.536V177.193H189.739V178.087H191.845Z" fill="#263238"/>
<path d="M196.108 174.942V178.812H195.374L193.444 176.462V178.812H192.56V174.942H193.3L195.224 177.292V174.942H196.108Z" fill="#263238"/>
<path d="M197.828 175.672H196.59V174.942H199.962V175.672H198.724V178.811H197.828V175.672Z" fill="#263238"/>
<path d="M203.439 178.093V178.812H200.443V174.942H203.367V175.661H201.333V176.501H203.129V177.198H201.333V178.093H203.439Z" fill="#263238"/>
<path d="M206.618 178.812L205.872 177.733H205.828H205.049V178.812H204.153V174.942H205.828C206.861 174.942 207.508 175.479 207.508 176.346C207.508 176.926 207.215 177.352 206.713 177.568L207.58 178.811H206.618V178.812ZM205.778 175.672H205.049V177.02H205.778C206.325 177.02 206.602 176.766 206.602 176.346C206.602 175.921 206.325 175.672 205.778 175.672Z" fill="#263238"/>
<path d="M209.538 176.877C209.538 175.711 210.433 174.876 211.639 174.876C212.307 174.876 212.865 175.119 213.23 175.561L212.656 176.092C212.396 175.793 212.069 175.639 211.682 175.639C210.958 175.639 210.444 176.147 210.444 176.877C210.444 177.607 210.958 178.115 211.682 178.115C212.069 178.115 212.395 177.96 212.656 177.656L213.23 178.187C212.865 178.634 212.307 178.878 211.633 178.878C210.433 178.878 209.538 178.043 209.538 176.877Z" fill="#263238"/>
<path d="M213.508 176.877C213.508 175.727 214.403 174.876 215.625 174.876C216.841 174.876 217.742 175.721 217.742 176.877C217.742 178.032 216.842 178.878 215.625 178.878C214.403 178.878 213.508 178.026 213.508 176.877ZM216.835 176.877C216.835 176.142 216.316 175.639 215.624 175.639C214.934 175.639 214.413 176.141 214.413 176.877C214.413 177.612 214.934 178.115 215.624 178.115C216.316 178.115 216.835 177.612 216.835 176.877Z" fill="#263238"/>
<path d="M218.418 174.942H220.175C221.441 174.942 222.309 175.705 222.309 176.877C222.309 178.049 221.442 178.811 220.175 178.811H218.418V174.942ZM220.132 178.076C220.9 178.076 221.403 177.617 221.403 176.877C221.403 176.136 220.9 175.678 220.132 175.678H219.314V178.076H220.132Z" fill="#263238"/>
<path d="M225.98 178.093V178.812H222.984V174.942H225.908V175.661H223.874V176.501H225.67V177.198H223.874V178.093H225.98Z" fill="#263238"/>
<path d="M177.164 204.684H167.767C166.369 204.684 165.237 203.552 165.237 202.154V187.518C165.237 186.121 166.369 184.989 167.767 184.989H177.164C178.561 184.989 179.694 186.122 179.694 187.518V202.154C179.694 203.551 178.561 204.684 177.164 204.684Z" fill="#EBEBEB"/>
<path d="M195.217 204.684H185.819C184.422 204.684 183.29 203.552 183.29 202.154V187.518C183.29 186.121 184.422 184.989 185.819 184.989H195.217C196.614 184.989 197.746 186.122 197.746 187.518V202.154C197.746 203.551 196.614 204.684 195.217 204.684Z" fill="#EBEBEB"/>
<path d="M213.269 204.684H203.872C202.475 204.684 201.343 203.552 201.343 202.154V187.518C201.343 186.121 202.476 184.989 203.872 184.989H213.269C214.666 184.989 215.798 186.122 215.798 187.518V202.154C215.799 203.551 214.666 204.684 213.269 204.684Z" fill="#EBEBEB"/>
<path d="M231.323 204.684H221.925C220.528 204.684 219.396 203.552 219.396 202.154V187.518C219.396 186.121 220.528 184.989 221.925 184.989H231.323C232.72 184.989 233.852 186.122 233.852 187.518V202.154C233.852 203.551 232.72 204.684 231.323 204.684Z" fill="#EBEBEB"/>
<path d="M249.374 204.684H239.977C238.579 204.684 237.447 203.552 237.447 202.154V187.518C237.447 186.121 238.579 184.989 239.977 184.989H249.374C250.771 184.989 251.904 186.122 251.904 187.518V202.154C251.904 203.551 250.771 204.684 249.374 204.684Z" fill="#EBEBEB"/>
<path d="M175.614 196.358C175.614 197.764 174.527 198.676 173.054 198.676C171.033 198.676 169.968 197.226 169.968 194.82C169.968 192.217 171.352 190.876 173.385 190.876C174.043 190.876 174.659 190.986 175.131 191.271L174.9 191.722C174.505 191.469 173.966 191.37 173.385 191.37C171.66 191.37 170.528 192.502 170.528 194.732C170.528 194.962 170.539 195.303 170.594 195.655C170.913 194.644 171.879 194.073 173.044 194.073C174.582 194.073 175.614 194.974 175.614 196.358ZM175.054 196.368C175.054 195.27 174.263 194.556 172.967 194.556C171.703 194.556 170.835 195.358 170.835 196.391C170.835 197.291 171.593 198.192 173.033 198.192C174.23 198.192 175.054 197.479 175.054 196.368Z" fill="#FF5733"/>
<path d="M193.474 196.49H191.859V198.621H191.31V196.49H186.926V196.083L191.1 190.93H191.726L187.629 195.995H191.321V194.116H191.859V195.995H193.474V196.49Z" fill="#FF5733"/>
<path d="M212.093 199.712C212.093 199.804 210.593 199.879 208.743 199.879C206.892 199.879 205.393 199.804 205.393 199.712C205.393 199.62 206.892 199.546 208.743 199.546C210.593 199.546 212.093 199.621 212.093 199.712Z" fill="#FF5733"/>
<path d="M162.345 165.073C163.21 165.073 163.912 164.371 163.912 163.505C163.912 162.64 163.21 161.938 162.345 161.938C161.479 161.938 160.777 162.64 160.777 163.505C160.777 164.371 161.479 165.073 162.345 165.073Z" fill="#263238"/>
<path d="M168.431 163.505C168.431 164.371 167.729 165.073 166.863 165.073C165.997 165.073 165.296 164.371 165.296 163.505C165.296 162.64 165.997 161.938 166.863 161.938C167.729 161.938 168.431 162.639 168.431 163.505Z" fill="#263238"/>
<path d="M171.299 165.073C172.164 165.073 172.866 164.371 172.866 163.505C172.866 162.64 172.164 161.938 171.299 161.938C170.433 161.938 169.731 162.64 169.731 163.505C169.731 164.371 170.433 165.073 171.299 165.073Z" fill="#263238"/>
<path d="M259.467 167.923C259.467 168.015 236.285 168.089 207.695 168.089C179.096 168.089 155.918 168.014 155.918 167.923C155.918 167.831 179.095 167.756 207.695 167.756C236.285 167.756 259.467 167.831 259.467 167.923Z" fill="#263238"/>
<path d="M143.166 87.1266H93.313C91.8807 87.1266 90.7197 88.2875 90.7197 89.7199V112.432C90.7197 113.864 91.8807 115.025 93.313 115.025H114.228L118.67 120.721L122.372 115.025H143.167C144.599 115.025 145.76 113.864 145.76 112.432V89.7199C145.76 88.2875 144.599 87.1266 143.166 87.1266Z" fill="white"/>
<path d="M143.166 87.1266C143.166 87.1266 143.249 87.1221 143.413 87.126C143.574 87.1426 143.821 87.1657 144.124 87.2841C144.423 87.398 144.787 87.5964 145.11 87.9509C145.437 88.2953 145.716 88.8073 145.793 89.4325C145.841 91.9068 145.832 95.5023 145.853 100.059C145.859 102.337 145.865 104.852 145.871 107.58C145.874 108.945 145.877 110.363 145.88 111.832C145.873 112.194 145.907 112.572 145.829 112.964C145.755 113.349 145.59 113.718 145.355 114.038C144.89 114.685 144.113 115.118 143.288 115.147C137.016 115.156 129.982 115.167 122.371 115.178L122.5 115.108C121.338 116.899 120.082 118.834 118.802 120.807L118.68 120.994L118.543 120.818C117.141 119.021 115.633 117.089 114.099 115.124L114.227 115.187C108.466 115.188 102.438 115.189 96.2529 115.191C95.531 115.191 94.811 115.191 94.0935 115.191C93.7287 115.184 93.3908 115.207 93.001 115.172C92.6228 115.13 92.2542 115.007 91.9271 114.815C91.2699 114.435 90.7854 113.776 90.6222 113.038C90.5326 112.665 90.5569 112.29 90.553 111.946V110.89C90.5537 108.078 90.555 105.306 90.5556 102.583C90.5569 99.8601 90.5582 97.1855 90.5594 94.566C90.5601 93.2565 90.5614 91.9605 90.562 90.6793L90.5626 89.7212C90.5646 89.3839 90.6267 89.0473 90.7483 88.7349C90.9889 88.1077 91.4651 87.5823 92.0545 87.2796C92.3489 87.1279 92.6695 87.0274 92.9972 86.9935C93.3332 86.9628 93.6321 86.9788 93.9431 86.9749C94.5607 86.9756 95.1745 86.9762 95.7838 86.9769C97.003 86.9781 98.2055 86.9794 99.3908 86.9807C101.761 86.9839 104.063 86.9865 106.287 86.989C110.737 86.9967 114.882 87.0031 118.667 87.0095C126.227 87.0319 132.349 87.0498 136.592 87.0626C138.7 87.0761 140.34 87.0869 141.466 87.094C142.015 87.101 142.437 87.1068 142.733 87.1106C143.02 87.1151 143.166 87.1266 143.166 87.1266C143.166 87.1266 143.02 87.1381 142.734 87.1439C142.437 87.1477 142.016 87.1535 141.467 87.1605C140.341 87.1676 138.701 87.1785 136.593 87.1919C132.35 87.2047 126.229 87.2226 118.668 87.245C114.883 87.2514 110.738 87.2578 106.289 87.2655C104.063 87.2681 101.762 87.2706 99.3921 87.2738C98.2068 87.2751 97.0042 87.2764 95.785 87.2777C95.1758 87.2783 94.562 87.2789 93.9444 87.2796C93.6385 87.2834 93.3166 87.27 93.033 87.2975C92.7418 87.3282 92.4577 87.4178 92.1966 87.5529C91.6737 87.8229 91.2513 88.2901 91.0394 88.8469C90.9326 89.1247 90.8775 89.4223 90.8763 89.7225L90.8769 90.6805C90.8775 91.9618 90.8788 93.2578 90.8794 94.5673C90.8807 97.1868 90.882 99.8613 90.8833 102.585C90.8839 105.308 90.8852 108.079 90.8859 110.891V111.948C90.8891 112.307 90.8686 112.648 90.9473 112.967C91.0906 113.614 91.5175 114.194 92.0955 114.528C92.3834 114.697 92.7066 114.805 93.0394 114.842C93.362 114.872 93.7422 114.853 94.0948 114.858C94.8122 114.858 95.5322 114.858 96.2542 114.858C102.439 114.86 108.467 114.861 114.228 114.862H114.307L114.356 114.925C115.888 116.892 117.394 118.825 118.795 120.624L118.536 120.634C119.82 118.663 121.078 116.73 122.243 114.941L122.288 114.871H122.371C129.977 114.878 137.007 114.884 143.276 114.89C144.024 114.865 144.729 114.476 145.153 113.89C145.368 113.6 145.519 113.265 145.588 112.916C145.66 112.572 145.631 112.202 145.638 111.832C145.642 110.363 145.644 108.945 145.647 107.58C145.654 104.852 145.66 102.337 145.665 100.059C145.677 95.5157 145.687 91.9177 145.693 89.4434C145.627 88.8412 145.366 88.3413 145.053 88.0015C144.746 87.6521 144.396 87.4505 144.104 87.3308C143.511 87.0972 143.161 87.1529 143.166 87.1266Z" fill="#263238"/>
<path d="M108.905 93.532V94.373H108.356V93.5262L107.438 92.0011H108.021L108.654 93.0546L109.288 92.0011H109.827L108.905 93.532Z" fill="#263238"/>
<path d="M109.809 93.1899C109.809 92.4859 110.358 91.9637 111.107 91.9637C111.852 91.9637 112.404 92.4821 112.404 93.1899C112.404 93.8984 111.852 94.4168 111.107 94.4168C110.358 94.4168 109.809 93.8952 109.809 93.1899ZM111.848 93.1899C111.848 92.7394 111.53 92.4309 111.106 92.4309C110.682 92.4309 110.363 92.7387 110.363 93.1899C110.363 93.6405 110.682 93.9496 111.106 93.9496C111.53 93.949 111.848 93.6405 111.848 93.1899Z" fill="#263238"/>
<path d="M112.8 93.3326V92.0046H113.349V93.3128C113.349 93.7634 113.545 93.9496 113.878 93.9496C114.213 93.9496 114.406 93.7634 114.406 93.3128V92.0046H114.948V93.3326C114.948 94.0309 114.548 94.4168 113.874 94.4168C113.2 94.4168 112.8 94.0302 112.8 93.3326Z" fill="#263238"/>
<path d="M117.005 94.3765L116.547 93.716H116.52H116.042V94.3765H115.493V92.0046H116.52C117.154 92.0046 117.55 92.3336 117.55 92.8654C117.55 93.2213 117.37 93.4824 117.062 93.6142L117.594 94.3765H117.005ZM116.49 92.4514H116.042V93.2782H116.49C116.825 93.2782 116.995 93.1227 116.995 92.8648C116.995 92.6037 116.826 92.4514 116.49 92.4514Z" fill="#263238"/>
<path d="M118.798 93.1899C118.798 92.475 119.347 91.9637 120.086 91.9637C120.496 91.9637 120.838 92.1122 121.062 92.3835L120.709 92.7086C120.55 92.5262 120.349 92.4309 120.112 92.4309C119.669 92.4309 119.353 92.7426 119.353 93.1899C119.353 93.6373 119.669 93.9496 120.112 93.9496C120.35 93.9496 120.55 93.8549 120.709 93.6686L121.062 93.9938C120.838 94.269 120.496 94.4174 120.082 94.4174C119.347 94.4168 118.798 93.9048 118.798 93.1899Z" fill="#263238"/>
<path d="M121.232 93.1899C121.232 92.4859 121.782 91.9637 122.53 91.9637C123.276 91.9637 123.828 92.4821 123.828 93.1899C123.828 93.8984 123.276 94.4168 122.53 94.4168C121.782 94.4168 121.232 93.8952 121.232 93.1899ZM123.273 93.1899C123.273 92.7394 122.954 92.4309 122.53 92.4309C122.107 92.4309 121.788 92.7387 121.788 93.1899C121.788 93.6405 122.107 93.9496 122.53 93.9496C122.954 93.949 123.273 93.6405 123.273 93.1899Z" fill="#263238"/>
<path d="M124.244 92.004H125.322C126.098 92.004 126.63 92.4712 126.63 93.1893C126.63 93.908 126.098 94.3758 125.322 94.3758H124.244V92.004ZM125.295 93.9253C125.766 93.9253 126.075 93.6443 126.075 93.1893C126.075 92.7355 125.766 92.4546 125.295 92.4546H124.793V93.9253H125.295Z" fill="#263238"/>
<path d="M128.884 93.9355V94.3765H127.047V92.0046H128.84V92.445H127.593V92.9602H128.694V93.387H127.593V93.9355H128.884Z" fill="#263238"/>
<path d="M138.302 109.882H98.176C96.9229 109.882 95.9072 108.867 95.9072 107.614V99.1368C95.9072 97.8837 96.9229 96.868 98.176 96.868H138.302C139.555 96.868 140.571 97.8837 140.571 99.1368V107.614C140.571 108.866 139.555 109.882 138.302 109.882Z" fill="#F5F5F5"/>
<path d="M268.417 267.71C276.796 264.154 286.496 257.158 290.823 248.579C281.786 252.209 273.816 259.015 268.417 267.71Z" fill="#263238"/>
<path d="M270.199 254.397C278.578 250.841 288.279 243.844 292.606 235.266C283.568 238.897 275.598 245.701 270.199 254.397Z" fill="#263238"/>
<path d="M272.623 241.448C281.002 237.891 290.702 230.896 295.029 222.316C285.992 225.948 278.022 232.752 272.623 241.448Z" fill="#263238"/>
<path d="M275.663 227.892C283.568 223.201 292.379 214.922 295.662 205.827C287.111 210.684 279.997 218.532 275.663 227.892Z" fill="#263238"/>
<path d="M278.91 217.519C284.671 209.985 290.04 198.775 289.969 189.059C283.663 197.01 279.729 207.132 278.91 217.519Z" fill="#263238"/>
<path d="M277.3 222.45C276.136 212.264 272.174 199.455 265.446 191.816C266.515 202.732 270.731 213.628 277.3 222.45Z" fill="#263238"/>
<path d="M274.591 233.593C272.541 223.09 267.357 210.1 259.719 202.733C261.73 214.003 267.021 224.98 274.591 233.593Z" fill="#263238"/>
<path d="M271.481 247.182C269.43 236.679 264.247 223.689 256.608 216.321C258.62 227.592 263.91 238.568 271.481 247.182Z" fill="#263238"/>
<path d="M268.984 263.865C266.933 253.362 261.75 240.371 254.111 233.004C256.123 244.275 261.413 255.251 268.984 263.865Z" fill="#263238"/>
<path d="M279.3 215.523C279.295 215.522 279.273 215.575 279.236 215.68C279.194 215.804 279.142 215.958 279.077 216.149C278.936 216.588 278.742 217.196 278.496 217.966C277.992 219.545 277.311 221.843 276.514 224.697C275.711 227.548 274.829 230.965 273.918 234.775C273.024 238.588 272.112 242.799 271.272 247.241C270.442 251.687 269.764 255.942 269.212 259.82C268.676 263.701 268.26 267.205 267.97 270.154C267.677 273.102 267.476 275.491 267.372 277.144C267.321 277.951 267.281 278.587 267.252 279.048C267.243 279.25 267.236 279.413 267.229 279.543C267.226 279.655 267.227 279.713 267.232 279.713C267.238 279.714 267.248 279.657 267.263 279.546C267.277 279.416 267.295 279.254 267.318 279.052C267.361 278.594 267.422 277.959 267.498 277.154C267.641 275.505 267.877 273.12 268.2 270.178C268.518 267.235 268.958 263.738 269.51 259.863C270.078 255.99 270.765 251.742 271.593 247.301C272.433 242.864 273.334 238.657 274.211 234.843C275.105 231.033 275.963 227.614 276.737 224.757C277.505 221.898 278.152 219.591 278.618 218.003C278.84 217.225 279.014 216.612 279.14 216.169C279.192 215.973 279.234 215.815 279.268 215.689C279.295 215.581 279.306 215.524 279.3 215.523Z" fill="#263238"/>
<path d="M264.334 273.258C267.887 265.817 270.472 255.355 268.727 247.189C264.786 255.083 263.223 264.356 264.334 273.258Z" fill="#455A64"/>
<path d="M258.424 263.623C261.977 256.181 264.562 245.72 262.817 237.553C258.876 245.448 257.313 254.721 258.424 263.623Z" fill="#455A64"/>
<path d="M253.124 253.825C256.677 246.384 259.262 235.922 257.517 227.756C253.576 235.651 252.014 244.923 253.124 253.825Z" fill="#455A64"/>
<path d="M247.901 243.26C250.544 235.383 251.87 224.647 249.173 216.792C246.199 225.173 245.747 234.588 247.901 243.26Z" fill="#455A64"/>
<path d="M244.503 234.608C244.243 226.228 241.778 215.733 236.575 209.545C236.701 218.528 239.52 227.442 244.503 234.608Z" fill="#455A64"/>
<path d="M246.075 238.762C239.912 232.946 230.539 227.172 222.115 226.416C228.604 232.758 237.126 237.149 246.075 238.762Z" fill="#455A64"/>
<path d="M250.232 247.576C243.324 242.103 233.062 236.965 224.191 236.945C231.481 242.934 240.743 246.715 250.232 247.576Z" fill="#455A64"/>
<path d="M255.425 258.206C248.518 252.734 238.256 247.596 229.385 247.575C236.674 253.564 245.936 257.345 255.425 258.206Z" fill="#455A64"/>
<path d="M262.661 270.442C255.754 264.97 245.492 259.832 236.621 259.812C243.911 265.8 253.173 269.582 262.661 270.442Z" fill="#455A64"/>
<path d="M243.696 233.087C243.691 233.089 243.705 233.136 243.735 233.225C243.774 233.331 243.821 233.461 243.878 233.619C244.02 233.988 244.213 234.491 244.456 235.126C244.959 236.433 245.728 238.31 246.715 240.613C248.686 245.219 251.607 251.505 255.236 258.238C257.056 261.603 258.876 264.76 260.583 267.6C262.305 270.432 263.9 272.954 265.291 275.038C266.676 277.127 267.826 278.797 268.645 279.934C269.043 280.485 269.358 280.921 269.589 281.242C269.691 281.376 269.774 281.487 269.842 281.577C269.9 281.652 269.932 281.689 269.936 281.685C269.941 281.682 269.918 281.639 269.868 281.559C269.807 281.463 269.732 281.347 269.641 281.205C269.422 280.877 269.123 280.43 268.745 279.865C267.957 278.707 266.836 277.019 265.476 274.918C264.11 272.82 262.536 270.289 260.83 267.452C259.138 264.608 257.328 261.45 255.511 258.09C251.887 251.366 248.939 245.105 246.917 240.526C245.906 238.236 245.106 236.374 244.569 235.081C244.302 234.455 244.091 233.96 243.936 233.597C243.867 233.443 243.811 233.317 243.765 233.214C243.725 233.128 243.701 233.085 243.696 233.087Z" fill="#263238"/>
<path d="M247.411 274.156H282.714V280.96H279.087L276.031 300.365H254.21L251.067 280.96H247.411V274.156Z" fill="#FF5733"/>
<path d="M247.411 280.818C247.411 280.727 255.258 280.654 264.934 280.654C274.614 280.654 282.459 280.728 282.459 280.818C282.459 280.908 274.614 280.982 264.934 280.982C255.258 280.982 247.411 280.908 247.411 280.818Z" fill="#263238"/>
<path d="M45.1936 300.376H39.4637L37.3389 274.583H44.0864L45.1936 300.376Z" fill="#263238"/>
<path d="M94.8516 300.376H100.582L102.706 274.583H95.9588L94.8516 300.376Z" fill="#263238"/>
<path d="M106.643 277.849L32.8924 279.58L30.6479 231.944C30.4284 227.28 34.1506 223.378 38.8201 223.378H101.657C106.398 223.378 110.146 227.395 109.818 232.125L106.643 277.849Z" fill="#FF5733"/>
<path d="M110.424 231.781C110.424 231.786 110.355 231.792 110.218 231.799C110.064 231.803 109.865 231.809 109.614 231.816C109.06 231.825 108.281 231.836 107.289 231.852C105.248 231.859 102.332 231.87 98.7393 231.882C91.5207 231.895 81.547 231.813 70.5396 232.069C59.5258 232.435 49.5444 232.372 42.3271 232.263C38.7175 232.206 35.7972 232.135 33.7793 232.074C32.7879 232.04 32.0097 232.014 31.4561 231.995C31.2052 231.983 31.0062 231.973 30.8519 231.966C30.7156 231.957 30.6465 231.95 30.6465 231.944C30.6465 231.938 30.7162 231.934 30.8526 231.931C31.0068 231.93 31.2065 231.929 31.4574 231.927C32.011 231.931 32.7898 231.937 33.7818 231.944C35.8228 231.964 38.7374 231.991 42.3297 232.026C49.5482 232.075 59.5194 232.1 70.5313 231.735C81.5476 231.479 91.522 231.598 98.7399 231.646C102.333 231.677 105.247 231.703 107.289 231.72C108.281 231.732 109.06 231.742 109.614 231.748C109.864 231.754 110.064 231.759 110.218 231.763C110.355 231.769 110.424 231.775 110.424 231.781Z" fill="#263238"/>
<path d="M57.5494 224.122C57.5698 224.234 55.2383 224.273 52.7609 225.559C50.2649 226.811 48.8652 228.675 48.7871 228.593C48.7577 228.572 49.0598 228.081 49.7004 227.409C50.3372 226.737 51.3433 225.911 52.6098 225.262C53.8783 224.618 55.1366 224.288 56.0543 224.167C56.974 224.042 57.5494 224.086 57.5494 224.122Z" fill="#263238"/>
<path d="M87.8831 137.512L96.8994 153.981L110.106 146.594L116.529 148.714C116.529 148.714 100.325 166.282 97.6962 167.177C95.0677 168.072 90.0892 168.235 87.2425 164.673C84.6505 161.431 77.1074 144.401 77.1074 144.401L87.8831 137.512Z" fill="#FFBE9D"/>
<path d="M125 126.761C124.765 126.471 124.396 126.324 124.026 126.375L117.745 127.239C117.194 127.324 116.706 127.64 116.402 128.107L103.359 148.153L104.362 148.714L111.307 148.496L125.197 127.007L125 126.761Z" fill="#263238"/>
<path d="M120.554 129.365C120.688 129.482 120.924 129.433 121.081 129.254C121.237 129.075 121.255 128.835 121.121 128.718C120.988 128.601 120.752 128.65 120.595 128.829C120.439 129.008 120.421 129.248 120.554 129.365Z" fill="#405FC4"/>
<path d="M125.198 127.006C125.201 127.032 124.768 127.116 123.984 127.246C123.135 127.377 122.013 127.551 120.655 127.761C119.945 127.865 119.176 127.978 118.354 128.099C117.959 128.135 117.608 128.339 117.383 128.67C117.142 129.045 116.894 129.429 116.64 129.822C115.613 131.406 114.489 133.138 113.31 134.956C110.937 138.594 108.772 141.875 107.189 144.24C106.418 145.377 105.78 146.318 105.298 147.029C104.844 147.683 104.583 148.039 104.561 148.024C104.539 148.01 104.759 147.628 105.174 146.949C105.631 146.22 106.235 145.258 106.965 144.094C108.491 141.692 110.621 138.387 112.993 134.75C114.182 132.937 115.314 131.21 116.349 129.632C116.608 129.239 116.862 128.856 117.109 128.482C117.384 128.071 117.866 127.818 118.304 127.788C119.129 127.684 119.902 127.586 120.614 127.496C121.98 127.334 123.109 127.2 123.963 127.099C124.755 127.015 125.194 126.98 125.198 127.006Z" fill="#455A64"/>
<path d="M118.231 134.172C118.231 134.172 117.671 134.072 117.365 135.603C117.058 137.135 116.071 141.527 116.071 141.527L113.138 139.969L109.469 140.447C109.469 140.447 108.668 141.187 109.255 141.589C109.843 141.99 112.162 142.405 112.162 142.405L113.873 144.864L108.963 142.497C108.963 142.497 107.325 142.924 107.805 143.924C108.285 144.924 111.595 148.051 111.595 148.051L109.135 147.865L106.211 146.089C106.211 146.089 105.313 146.13 105.648 146.894C105.983 147.658 109.024 150.42 109.024 150.42L112.712 152.209C112.712 152.209 114.726 152.051 114.919 151.46C115.112 150.869 115.162 150.025 115.162 150.025C115.162 150.025 116.23 149.737 116.43 149.219C116.63 148.7 116.501 147.88 116.501 147.88C116.501 147.88 118.179 148.175 118.387 147.24C118.596 146.305 118.421 144.462 118.252 143.743C118.083 143.024 118.967 136.337 118.898 136.135C118.829 135.932 119.283 133.73 118.231 134.172Z" fill="#FFBE9D"/>
<path d="M115.048 151.468C115.06 151.511 114.704 151.668 114.086 151.767C113.47 151.867 112.59 151.877 111.655 151.656C110.721 151.432 109.939 151.026 109.435 150.659C108.928 150.293 108.68 149.992 108.711 149.959C108.78 149.864 109.948 150.876 111.743 151.288C113.528 151.729 115.028 151.351 115.048 151.468Z" fill="#EB996E"/>
<path d="M114.175 150.145C114.117 150.23 113.464 149.887 112.766 149.315C112.067 148.743 111.603 148.169 111.675 148.096C111.75 148.021 112.321 148.463 113.005 149.023C113.689 149.583 114.234 150.057 114.175 150.145Z" fill="#EB996E"/>
<path d="M116.114 146.963C116.058 147.048 115.409 146.714 114.755 146.108C114.099 145.504 113.714 144.883 113.795 144.821C113.878 144.755 114.379 145.249 115.011 145.831C115.641 146.414 116.174 146.874 116.114 146.963Z" fill="#EB996E"/>
<path d="M118.155 144.399C118.054 144.442 117.683 143.749 117.099 142.995C116.52 142.236 115.947 141.701 116.013 141.614C116.07 141.532 116.784 141.961 117.398 142.765C118.018 143.566 118.249 144.365 118.155 144.399Z" fill="#EB996E"/>
<path d="M120.649 263.093C120.671 263.092 120.692 262.875 120.631 262.487C120.568 262.102 120.41 261.539 120.018 260.944C119.918 260.798 119.818 260.641 119.653 260.498C119.497 260.355 119.227 260.247 118.966 260.343C118.837 260.384 118.708 260.503 118.663 260.648C118.614 260.795 118.639 260.941 118.677 261.059C118.762 261.304 118.889 261.478 118.996 261.679C119.234 262.08 119.431 262.478 119.735 262.93C119.888 263.161 120.234 263.351 120.55 263.296C120.86 263.257 121.111 263.107 121.337 262.947C121.775 262.629 122.161 262.267 122.493 261.882C122.659 261.689 122.811 261.49 122.949 261.289C123.079 261.089 123.233 260.885 123.291 260.607C123.35 260.339 123.248 259.986 122.944 259.864C122.635 259.753 122.383 259.907 122.211 260.03C121.862 260.32 121.652 260.617 121.439 260.905C121.032 261.479 120.808 262.006 120.681 262.374C120.557 262.745 120.528 262.959 120.55 262.965C120.612 262.991 120.82 262.137 121.645 261.058C121.849 260.802 122.103 260.49 122.387 260.274C122.532 260.17 122.713 260.103 122.822 260.159C122.938 260.201 123.002 260.374 122.964 260.541C122.928 260.714 122.799 260.899 122.664 261.091C122.53 261.281 122.384 261.468 122.225 261.65C121.907 262.012 121.538 262.354 121.125 262.654C120.926 262.796 120.71 262.914 120.509 262.938C120.306 262.963 120.148 262.883 120.015 262.711C119.762 262.343 119.519 261.889 119.286 261.511C119.174 261.314 119.039 261.123 118.98 260.958C118.918 260.785 118.952 260.673 119.073 260.625C119.351 260.51 119.621 260.824 119.808 261.09C120.589 262.197 120.578 263.116 120.649 263.093Z" fill="#405FC4"/>
<path d="M104.921 263.632L97.112 280.556L84.5098 274.735L92.5872 253.788L104.921 263.632Z" fill="#FFBE9D"/>
<path d="M98.5875 279.427L94.025 288.128C94.025 288.128 105.704 300.204 104.607 302.904L77.1514 289.74L84.6944 272.288L98.5875 279.427Z" fill="#455A64"/>
<path d="M86.105 282.867C85.5041 282.758 84.8506 283.179 84.7162 283.775C84.5825 284.371 85.0049 285.04 85.6039 285.159C86.203 285.28 87.003 284.798 87.0695 284.19C87.1361 283.583 86.5966 282.825 85.9866 282.853" fill="#E0E0E0"/>
<g opacity="0.6">
<path d="M77.1514 289.74L78.2938 287.552L104.191 300.992C104.191 300.992 105.159 302.11 104.608 302.904L77.1514 289.74Z" fill="#405FC4"/>
</g>
<path d="M94.5366 288.202C94.4681 288.334 93.7686 288.073 92.902 288.188C92.0329 288.281 91.414 288.698 91.3161 288.586C91.2054 288.501 91.7891 287.795 92.8406 287.674C93.8908 287.544 94.6249 288.092 94.5366 288.202Z" fill="#405FC4"/>
<path d="M96.845 290.773C96.8136 290.918 96.1237 290.867 95.396 291.216C94.6588 291.544 94.2498 292.101 94.1192 292.032C93.9829 291.993 94.2671 291.162 95.1791 290.746C96.0879 290.322 96.9032 290.644 96.845 290.773Z" fill="#405FC4"/>
<path d="M96.8284 295.004C96.6927 294.974 96.8278 294.215 97.5241 293.646C98.2166 293.072 98.9878 293.086 98.991 293.225C99.014 293.371 98.4182 293.57 97.8537 294.046C97.2777 294.508 96.9679 295.055 96.8284 295.004Z" fill="#405FC4"/>
<path d="M95.8465 284.85C95.732 284.945 95.2053 284.465 94.4225 284.154C93.6462 283.826 92.9345 283.797 92.9198 283.649C92.8885 283.514 93.7025 283.294 94.619 283.675C95.5381 284.048 95.963 284.776 95.8465 284.85Z" fill="#405FC4"/>
<path d="M101.16 277.168L121.745 225.651C121.745 225.651 121.282 216.862 119.663 214.086C118.044 211.31 69.0062 195.118 69.0062 195.118C69.0062 195.118 56.5153 192.111 48.1883 195.118C39.8612 198.125 33.6155 208.534 34.7719 214.317C35.9284 220.1 40.8091 224.348 40.8091 224.348L76.8705 225.42L96.5256 232.59L83.2891 270.525L101.16 277.168Z" fill="#405FC4"/>
<path d="M119.469 241.965L119.934 260.599L106.056 260.938L104.057 238.577L119.469 241.965Z" fill="#FFBE9D"/>
<path d="M120.759 258.934L120.506 268.755C120.506 268.755 136.316 274.435 136.524 277.342L106.077 277.65L105.141 258.661L120.759 258.934Z" fill="#455A64"/>
<path d="M111.078 267.532C110.49 267.699 110.089 268.366 110.232 268.96C110.375 269.553 111.049 269.967 111.64 269.81C112.23 269.653 112.736 268.868 112.528 268.293C112.319 267.719 111.501 267.278 110.966 267.571" fill="#E0E0E0"/>
<g opacity="0.6">
<path d="M106.077 277.65L106.136 275.182L135.307 275.809C135.307 275.809 136.668 276.386 136.524 277.342L106.077 277.65Z" fill="#405FC4"/>
</g>
<path d="M120.998 268.595C120.994 268.744 120.251 268.819 119.525 269.304C118.786 269.771 118.415 270.419 118.278 270.361C118.14 270.334 118.353 269.443 119.243 268.871C120.128 268.29 121.028 268.458 120.998 268.595Z" fill="#405FC4"/>
<path d="M124.205 269.884C124.24 270.027 123.598 270.287 123.1 270.921C122.583 271.54 122.462 272.221 122.314 272.216C122.174 272.241 122.063 271.371 122.698 270.595C123.326 269.813 124.2 269.742 124.205 269.884Z" fill="#405FC4"/>
<path d="M126.057 273.687C125.922 273.721 125.707 272.979 126.081 272.161C126.449 271.34 127.147 271.012 127.211 271.136C127.296 271.257 126.849 271.698 126.553 272.375C126.241 273.044 126.205 273.671 126.057 273.687Z" fill="#405FC4"/>
<path d="M120.693 265.009C120.632 265.146 119.948 264.947 119.108 265.013C118.268 265.062 117.617 265.351 117.537 265.224C117.45 265.117 118.083 264.561 119.073 264.497C120.063 264.426 120.765 264.892 120.693 265.009Z" fill="#405FC4"/>
<path d="M111.366 190.231C111.366 190.231 119.68 189.566 120.605 198.587C121.531 207.609 122.439 249.708 122.439 249.708L103.008 251.327L100.002 208.303L69.0059 195.118C69.0059 195.118 105.814 189.074 111.366 190.231Z" fill="#405FC4"/>
<path d="M77.0944 178.057C77.0944 178.057 82.1408 192.205 81.1795 193.782C80.2183 195.359 67.2423 201.847 67.2423 201.847L34.7725 214.317C34.7725 214.317 31.4375 209.012 31.4375 200.863C31.4375 192.715 42.7316 178.057 42.7316 178.057H77.0944Z" fill="#405FC4"/>
<path d="M67.4698 194.396C67.4679 194.401 67.5191 194.429 67.6221 194.478C67.7411 194.533 67.8928 194.604 68.0829 194.691C68.5111 194.882 69.112 195.149 69.8813 195.491C71.4755 196.186 73.7648 197.183 76.6307 198.432C82.4221 200.924 90.5392 204.419 99.9325 208.462L99.8275 208.314C100.122 212.564 100.441 217.154 100.77 221.903C101.56 233.004 102.288 243.239 102.864 251.336L102.875 251.482L103.02 251.47C108.93 250.951 113.78 250.526 117.175 250.227C118.845 250.071 120.156 249.949 121.073 249.863C121.504 249.818 121.842 249.783 122.091 249.758C122.321 249.731 122.439 249.714 122.438 249.707C122.437 249.699 122.318 249.703 122.087 249.714C121.837 249.73 121.498 249.751 121.065 249.778C120.148 249.845 118.834 249.942 117.161 250.064C113.763 250.332 108.91 250.715 102.996 251.182L103.152 251.316C102.596 243.217 101.893 232.98 101.131 221.878C100.797 217.13 100.474 212.54 100.174 208.291L100.167 208.184L100.069 208.143C90.6551 204.147 82.52 200.694 76.7165 198.231C73.8333 197.022 71.5306 196.056 69.9274 195.384C69.1485 195.065 68.5405 194.815 68.1066 194.636C67.9114 194.56 67.7552 194.498 67.6336 194.451C67.5274 194.41 67.4717 194.392 67.4698 194.396Z" fill="#455A64"/>
<path d="M41.6466 195.812C41.655 195.836 41.9795 195.745 42.558 195.563C43.2031 195.355 44.023 195.091 45.0028 194.775C47.0655 194.121 49.9276 193.208 53.1846 192.707C56.4415 192.205 59.4553 192.36 61.5603 192.815C63.6748 193.252 64.8902 193.856 64.9171 193.787C64.926 193.768 64.6323 193.602 64.0723 193.36C63.5135 193.115 62.6783 192.819 61.6153 192.564C59.495 192.037 56.4275 191.839 53.1302 192.348C49.8342 192.856 46.9663 193.814 44.9203 194.531C43.8963 194.895 43.0751 195.207 42.51 195.429C41.9462 195.653 41.6383 195.788 41.6466 195.812Z" fill="#455A64"/>
<path d="M46.2364 188.354C46.2453 188.412 47.3237 188.201 49.0754 188.338C49.9497 188.399 50.9903 188.533 52.1487 188.667C53.3052 188.805 54.5749 188.96 55.8895 189.209C58.5276 189.679 60.7977 190.599 62.2517 191.569C63.7199 192.525 64.4079 193.396 64.4578 193.347C64.4719 193.335 64.3234 193.102 63.9861 192.736C63.6495 192.372 63.1279 191.866 62.3951 191.357C60.9487 190.31 58.6281 189.328 55.9573 188.853C54.6261 188.601 53.3461 188.455 52.1852 188.335C51.0249 188.219 49.9772 188.111 49.0882 188.081C48.2005 188.049 47.4786 188.101 46.9871 188.175C46.4949 188.25 46.2319 188.333 46.2364 188.354Z" fill="#455A64"/>
<path d="M60.5784 74.66C56.8421 74.0251 53.5583 75.4638 50.4069 77.5694C47.2562 79.6757 44.8831 82.8539 43.5135 86.3874C42.0703 90.109 41.7196 94.2965 42.828 98.1314C43.9372 101.966 46.5631 105.398 50.1221 107.206C54.9823 109.674 61.1973 108.814 65.5455 105.526C69.8936 102.238 72.3794 96.8027 72.588 91.3557C72.7314 87.6034 71.8347 83.764 69.7381 80.6485C67.6408 77.5336 64.2943 75.2059 60.5784 74.66Z" fill="#263238"/>
<path d="M49.9539 87.3646C50.5004 85.9355 50.2886 84.3394 50.5049 82.8245C50.9811 79.4888 53.6691 76.8136 56.7776 75.5131C59.6691 74.3035 63.2012 74.5672 66.6848 75.6936C69.0726 76.4654 71.3203 77.8114 72.912 79.7512C75.0246 82.3259 75.7696 85.963 74.8377 89.1605L57.7702 86.6747C56.1721 87.997 54.5363 89.341 52.5984 90.0782C52.0294 90.2946 51.4176 90.4571 50.8166 90.3624C50.2156 90.267 49.6313 89.8587 49.4892 89.2667C49.3337 88.621 49.7164 87.9861 49.9539 87.3646Z" fill="#263238"/>
<path d="M67.049 80.4059L52.1479 83.563C50.7066 83.659 49.5783 84.8424 49.5508 86.2869L49.73 118.534C49.7421 120.737 50.4807 122.874 51.8305 124.615L53.2513 126.448C56.4916 130.626 63.0548 130.205 65.5297 125.533C65.7025 125.207 65.8221 124.92 65.8727 124.689C65.9226 124.399 65.9994 124.208 66.0129 123.961L66.297 120.817C66.4423 117.946 66.4621 115.029 66.4628 115.056C66.4628 115.056 72.5607 114.285 74.1229 106.428C74.8999 102.521 74.953 96.0674 74.825 90.7854C74.7105 86.0302 71.794 80.0891 67.049 80.4059Z" fill="#FFBE9D"/>
<path d="M72.5581 96.836C72.5562 97.3723 72.1005 97.8127 71.5412 97.821C70.9825 97.8293 70.5293 97.4024 70.5313 96.8661C70.5332 96.3298 70.9889 95.8888 71.5476 95.8805C72.1076 95.8728 72.5601 96.3003 72.5581 96.836Z" fill="#263238"/>
<path d="M73.2971 94.0834C73.1665 94.2107 72.4203 93.6123 71.3291 93.5726C70.2398 93.5176 69.4174 94.0482 69.3041 93.9099C69.2478 93.8485 69.3861 93.6149 69.7438 93.3742C70.0971 93.1349 70.6917 92.9122 71.3713 92.941C72.051 92.971 72.6129 93.2437 72.9317 93.5125C73.2568 93.7832 73.3611 94.0264 73.2971 94.0834Z" fill="#263238"/>
<path d="M62.7802 96.5916C62.7782 97.1279 62.3225 97.5682 61.7632 97.5765C61.2045 97.5848 60.752 97.158 60.7539 96.6223C60.7558 96.0859 61.2115 95.645 61.7702 95.6367C62.3296 95.6277 62.7821 96.0552 62.7802 96.5916Z" fill="#263238"/>
<path d="M62.9373 93.8178C62.8061 93.9452 62.0592 93.3467 60.9686 93.3077C59.8793 93.2527 59.0569 93.7826 58.9437 93.6444C58.888 93.5829 59.0243 93.3493 59.384 93.1093C59.7373 92.87 60.3318 92.6466 61.0115 92.6754C61.6905 92.7055 62.2525 92.9781 62.5718 93.2469C62.8963 93.5176 63.0013 93.7608 62.9373 93.8178Z" fill="#263238"/>
<path d="M66.2104 102.115C66.2079 102.053 66.8901 101.962 67.9947 101.864C68.2744 101.847 68.5407 101.802 68.5944 101.613C68.668 101.414 68.5631 101.109 68.4408 100.78C68.2053 100.096 67.9583 99.3787 67.6991 98.6267C66.6725 95.5624 65.9403 93.0466 66.0645 93.0063C66.188 92.9659 67.1211 95.4171 68.1477 98.4821C68.3941 99.2373 68.6296 99.9579 68.8543 100.647C68.9477 100.967 69.1147 101.333 68.9567 101.745C68.8735 101.951 68.6629 102.094 68.4824 102.135C68.3019 102.183 68.1451 102.179 68.0069 102.183C66.8984 102.199 66.2123 102.177 66.2104 102.115Z" fill="#263238"/>
<path d="M66.4628 115.055C66.4628 115.055 61.1309 115.191 55.9854 111.82C55.9854 111.82 58.4346 117.395 66.3757 116.963L66.4628 115.055Z" fill="#EB996E"/>
<path d="M65.6469 104.727C65.2745 104.193 64.5986 103.882 63.9132 103.928C63.4377 103.961 62.9506 104.17 62.6479 104.545C62.3452 104.92 62.2639 105.465 62.5109 105.843C62.7893 106.268 63.4005 106.387 63.9273 106.26C64.454 106.132 64.9148 105.807 65.3538 105.482C65.4754 105.392 65.5996 105.298 65.6777 105.171C65.7564 105.045 65.7788 104.876 65.6917 104.766" fill="#EB996E"/>
<path d="M62.9705 102.746C63.1484 102.742 63.1042 103.927 64.086 104.807C65.0645 105.689 66.3324 105.605 66.3349 105.771C66.3484 105.846 66.045 105.991 65.5119 105.984C64.9884 105.982 64.2319 105.785 63.6316 105.246C63.0332 104.707 62.7938 104.009 62.7727 103.521C62.7465 103.024 62.8898 102.736 62.9705 102.746Z" fill="#263238"/>
<path d="M62.8761 90.5794C62.757 90.8718 61.6729 90.6888 60.3871 90.7938C59.0988 90.8725 58.0524 91.2072 57.8924 90.9346C57.8214 90.804 58.0127 90.5327 58.4409 90.2613C58.8659 89.9906 59.5366 89.7435 60.3078 89.6879C61.0796 89.6335 61.7785 89.7826 62.2374 89.9906C62.7001 90.1979 62.9273 90.4405 62.8761 90.5794Z" fill="#263238"/>
<path d="M73.165 89.3007C72.9634 89.5407 72.2223 89.2546 71.3186 89.2072C70.4169 89.1285 69.6431 89.309 69.4773 89.0427C69.405 88.9141 69.5349 88.6703 69.8786 88.4488C70.2172 88.228 70.7759 88.0584 71.3961 88.1013C72.0162 88.1455 72.5455 88.3906 72.8501 88.6568C73.1599 88.9231 73.2546 89.1829 73.165 89.3007Z" fill="#263238"/>
<path d="M47.222 85.0638C48.767 80.5262 55.512 74.3438 60.2857 74.7726L67.8288 79.5035C67.3149 82.0955 65.2611 84.3208 62.7184 85.0401C61.3603 85.4241 59.7328 85.5048 58.9072 86.6497C58.0636 87.8184 58.5085 89.5541 57.7213 90.7611C56.63 92.4341 53.7417 92.2965 52.9123 94.1134C52.55 94.9077 52.712 95.8677 52.335 96.6549C51.8332 97.7038 49.1273 98.9921 48.0259 98.619C46.9251 98.2459 46.959 96.3585 46.6166 95.3627C46.031 93.6609 46.3036 92.7905 46.5264 91.851C47.0531 89.6251 46.4854 87.2283 47.222 85.0638Z" fill="#263238"/>
<path d="M51.2773 99.6181C51.2984 99.0293 50.6719 97.6149 50.094 97.5016C48.5509 97.1995 45.7477 97.2155 45.5685 101.157C45.324 106.546 50.7845 105.68 50.8012 105.526C50.8133 105.406 51.2031 101.651 51.2773 99.6181Z" fill="#FFBE9D"/>
<path d="M49.2471 103.409C49.2241 103.391 49.1505 103.471 48.9885 103.536C48.8305 103.6 48.5623 103.637 48.2858 103.519C47.7258 103.284 47.2874 102.359 47.3053 101.386C47.3137 100.895 47.4378 100.433 47.6292 100.054C47.8116 99.6674 48.0791 99.4031 48.3677 99.3659C48.6557 99.3128 48.8509 99.4933 48.9098 99.6482C48.9751 99.8024 48.9361 99.9087 48.9642 99.9189C48.9783 99.9336 49.0839 99.8338 49.0506 99.6098C49.0327 99.5016 48.9757 99.3717 48.8541 99.2623C48.7293 99.1515 48.5418 99.0888 48.3409 99.1016C47.9242 99.1119 47.5325 99.4767 47.3226 99.8927C47.0897 100.309 46.9386 100.828 46.929 101.38C46.9143 102.467 47.4237 103.509 48.193 103.769C48.5674 103.885 48.8893 103.785 49.0583 103.665C49.2317 103.539 49.265 103.42 49.2471 103.409Z" fill="#EB996E"/>
<path d="M46.068 83.6661C46.0859 81.9803 43.9803 80.8776 42.338 80.4955C40.6958 80.1141 38.9595 80.6133 37.4811 81.4235C36.6158 81.8971 35.7447 82.5717 35.5515 83.5387C35.3575 84.5058 36.2887 85.6584 37.2123 85.3122C35.4427 85.9176 34.5454 88.2811 35.467 89.9086C36.3886 91.5362 38.8769 91.9822 40.306 90.7765C39.8446 92.3208 38.8372 93.6962 37.5041 94.6018C40.2759 94.9966 43.2193 93.8133 44.9454 91.6085C46.6721 89.4037 47.1156 86.2626 46.068 83.6661Z" fill="#263238"/>
<path d="M42.3267 92.2369C42.2883 92.2427 42.1443 91.6315 42.1251 90.6197C42.1033 89.611 42.2531 88.2005 42.7459 86.731C43.2432 85.2622 43.9779 84.0488 44.6051 83.259C45.2323 82.4648 45.7168 82.0654 45.7443 82.0929C45.8435 82.1627 44.0355 83.9534 43.0844 86.8449C42.0924 89.7211 42.4483 92.2414 42.3267 92.2369Z" fill="#FF5733"/>
<path d="M66.2627 77.8741C66.7587 80.068 70.0931 82.8814 71.5568 84.5896C74.3497 87.8485 74.9001 88.9307 74.8726 96.2165C76.191 93.7 77.2009 91.2347 77.0998 88.3957C76.9987 85.5566 75.9529 82.7125 73.9792 80.6696C72.0061 78.6261 69.0742 77.4664 66.2627 77.8741Z" fill="#263238"/>
<path d="M89.1178 137.832C89.1178 137.832 83.3098 128.148 81.6983 126.189C80.1872 124.352 78.2404 123.269 76.9405 122.7C76.2173 122.384 75.457 122.167 74.6794 122.032L66.3268 120.182C66.3268 120.182 66.312 125.883 60.3383 126.236C54.3645 126.588 49.3348 118.267 49.3348 118.267C49.3348 118.267 39.6848 119.76 37.3757 120.947C35.0666 122.135 31.4378 123.644 29.4416 133.642L28.04 143.424L44.6794 144.962L46.2717 169.688L54.5239 175.434C54.5239 175.434 77.4013 181.382 78.8631 181.776C80.3248 182.169 80.8093 144.962 80.8093 144.962C80.8093 144.962 86.6858 141.163 89.1178 137.832Z" fill="#405FC4"/>
<path d="M78.1659 133.674C78.1877 133.665 78.301 133.92 78.4872 134.387C78.6773 134.853 78.9198 135.54 79.1899 136.399C79.732 138.115 80.3266 140.541 80.6632 143.271C80.9947 146.003 81.003 148.501 80.891 150.297C80.836 151.195 80.7662 151.92 80.6939 152.418C80.6254 152.917 80.5768 153.191 80.5544 153.188C80.5314 153.185 80.5365 152.907 80.5653 152.407C80.5979 151.907 80.6312 151.182 80.6555 150.288C80.7067 148.499 80.6613 146.023 80.3323 143.312C79.9982 140.604 79.4453 138.19 78.9634 136.466C78.724 135.604 78.5166 134.909 78.3643 134.431C78.2165 133.951 78.1442 133.681 78.1659 133.674Z" fill="#455A64"/>
<path d="M77.4561 174.176L46.1269 167.356L44.6792 144.963L30.7471 143.676C30.7471 143.676 31.2623 158.984 31.7986 163.536C32.5691 170.081 36.4386 179.013 38.7016 180.798C40.9653 182.582 78.8629 181.777 78.8629 181.777L77.4561 174.176Z" fill="#FFBE9D"/>
<path d="M95.2401 178.234C95.0199 178.671 94.5617 178.956 94.074 178.914C93.9767 178.906 93.875 178.887 93.7706 178.853C93.0775 178.631 93.1428 177.219 93.1428 177.219L89.8225 176.677C89.8225 176.677 85.505 179.461 83.969 181.307C82.433 183.152 78.5143 181.658 78.5143 181.658L77.1562 174.581L83.2676 169.055C83.2676 169.055 82.8926 169.384 83.3137 168.35C83.7354 167.317 85.6554 167.708 85.6554 167.708C85.9543 167.196 87.2087 167.013 87.2087 167.013L92.5694 167.631C93.674 167.758 94.6615 168.379 95.2554 169.319L97.5223 172.907C97.5223 172.907 98.7197 175.49 98.5271 176.091C98.2365 176.997 97.2778 176.796 97.2778 176.796C97.2778 176.796 97.0141 178.494 96.5681 178.553C96.122 178.612 95.2401 178.234 95.2401 178.234Z" fill="#FFBE9D"/>
<path d="M83.8311 173.152C83.8368 173.208 84.5498 173.142 85.6948 173.191C86.8372 173.247 88.4173 173.447 90.0692 174.01C90.8948 174.288 91.6564 174.623 92.3245 174.974C92.9722 175.339 93.648 175.639 93.8554 176.11C93.9597 176.341 93.913 176.576 93.7972 176.749C93.6839 176.922 93.5296 177.035 93.3927 177.091C93.1111 177.207 92.9287 177.127 92.9229 177.16C92.9095 177.168 93.0893 177.307 93.4362 177.216C93.6039 177.171 93.7978 177.059 93.9533 176.859C94.1127 176.67 94.2042 176.331 94.08 176.02C93.9642 175.708 93.698 175.466 93.4132 175.267C93.1213 175.075 92.8154 174.88 92.4749 174.696C91.8004 174.322 91.0241 173.97 90.1786 173.685C88.4877 173.109 86.8615 172.943 85.6999 172.949C84.5332 172.962 83.8253 173.114 83.8311 173.152Z" fill="#EB996E"/>
<path d="M83.4551 176.57C83.4615 176.671 85.6426 176.58 88.3229 176.737C91.0045 176.885 93.1613 177.222 93.1786 177.122C93.1863 177.078 92.6557 176.936 91.7828 176.783C90.9104 176.629 89.6938 176.473 88.3421 176.396C86.9911 176.319 85.7648 176.337 84.8804 176.391C83.9959 176.445 83.4525 176.525 83.4551 176.57Z" fill="#EB996E"/>
<path d="M95.2088 178.099C95.2267 178.096 95.2504 177.898 95.276 177.528C95.2984 177.159 95.3208 176.623 95.2792 175.958C95.2568 175.626 95.221 175.26 95.1295 174.871C95.0443 174.479 94.8574 174.067 94.6027 173.703C94.1195 172.972 93.4482 172.214 92.5938 171.646C91.7426 171.084 90.8914 170.61 90.0299 170.35C89.1749 170.091 88.3755 170.027 87.7144 169.997C87.0514 169.974 86.5176 169.988 86.149 170.002C85.7803 170.017 85.5768 170.037 85.5762 170.06C85.5736 170.115 86.3935 170.143 87.6991 170.238C88.3487 170.298 89.125 170.387 89.9359 170.65C90.7403 170.908 91.5768 171.384 92.3998 171.927C93.2242 172.478 93.8514 173.171 94.3429 173.881C94.8613 174.556 94.9579 175.332 95.0379 175.978C95.1679 177.277 95.1352 178.101 95.2088 178.099Z" fill="#EB996E"/>
<path d="M87.4658 168.375C87.4652 168.426 88.2677 168.447 89.549 168.594C90.7823 168.783 92.7561 168.874 93.8806 170.574C95.0978 172.12 96.1333 173.58 96.5858 174.778C97.0658 175.968 97.0236 176.791 97.0933 176.785C97.1119 176.786 97.1433 176.584 97.1247 176.217C97.1094 175.851 97.0306 175.317 96.8124 174.695C96.4009 173.431 95.3717 171.915 94.1474 170.36C93.8351 169.969 93.4972 169.599 93.1055 169.306C92.7151 169.008 92.2613 168.835 91.8441 168.714C90.9986 168.475 90.221 168.405 89.5721 168.353C88.2703 168.266 87.4652 168.332 87.4658 168.375Z" fill="#EB996E"/>
<path d="M85.1405 180.165C85.1476 180.172 85.257 180.089 85.4586 179.921C85.6884 179.737 85.986 179.498 86.3559 179.201C87.1476 178.588 88.3245 177.717 89.8791 176.774L89.8029 176.789C90.793 176.957 91.9098 177.148 93.1194 177.353L93.0055 177.213C92.9984 177.484 93.0138 177.749 93.0676 178.024C93.1232 178.294 93.2096 178.585 93.4439 178.822C93.5655 178.937 93.7402 179.006 93.8842 179.024C94.032 179.062 94.192 179.077 94.3508 179.052C94.6676 179.006 94.9652 178.84 95.1764 178.595C95.2308 178.535 95.2775 178.467 95.321 178.398L95.3511 178.345L95.3658 178.318L95.3735 178.305L95.3741 178.303C95.417 178.286 95.0036 178.438 95.1796 178.374L95.1834 178.375L95.1904 178.378L95.2954 178.421C95.4356 178.476 95.5776 178.527 95.7242 178.572C95.8708 178.618 96.0205 178.658 96.1786 178.686C96.258 178.699 96.3386 178.711 96.425 178.713C96.5056 178.716 96.6029 178.718 96.7322 178.653C96.9191 178.52 96.9863 178.362 97.0573 178.214C97.1239 178.064 97.1776 177.911 97.2224 177.758C97.314 177.45 97.3805 177.14 97.4356 176.818L97.2416 176.953C97.6724 177.028 98.1799 176.924 98.4781 176.531C98.6125 176.348 98.7226 176.122 98.706 175.863C98.6951 175.63 98.6432 175.427 98.5882 175.221C98.3559 174.407 98.0276 173.625 97.673 172.833L97.6685 172.825L97.6621 172.814C97.2768 172.204 96.8672 171.555 96.4538 170.9C96.1965 170.492 95.9405 170.089 95.6871 169.687C95.4324 169.299 95.2039 168.862 94.8461 168.512C94.5018 168.164 94.0884 167.892 93.6429 167.713C93.2007 167.522 92.7092 167.475 92.2759 167.429C90.4999 167.229 88.8064 167.038 87.2231 166.86L87.2013 166.858L87.1834 166.861C86.873 166.913 86.5824 166.986 86.297 167.095C86.0192 167.207 85.7248 167.333 85.5271 167.633L85.7127 167.575C85.145 167.342 84.4877 167.339 83.9911 167.671C83.4919 167.999 83.2615 168.529 83.1392 169.028L83.1796 168.958C81.4247 170.537 79.9924 171.824 78.9677 172.746C78.4954 173.181 78.1178 173.529 77.833 173.791C77.5764 174.033 77.4452 174.165 77.4535 174.174C77.4618 174.184 77.609 174.07 77.8817 173.846C78.178 173.596 78.5703 173.265 79.0612 172.851C80.1037 171.951 81.561 170.691 83.3472 169.148L83.376 169.123L83.3876 169.078C83.5002 168.638 83.7268 168.154 84.1389 167.9C84.5396 167.63 85.1149 167.638 85.5904 167.837L85.7076 167.886L85.7767 167.779C85.8912 167.6 86.146 167.466 86.4013 167.372C86.6599 167.276 86.9453 167.207 87.2269 167.162L87.1879 167.162C88.77 167.349 90.4628 167.549 92.2375 167.758C92.69 167.808 93.113 167.85 93.5168 168.025C93.9194 168.188 94.2932 168.435 94.6042 168.75C94.9204 169.056 95.1354 169.466 95.3984 169.869C95.6519 170.27 95.9072 170.675 96.1645 171.082C96.5792 171.738 96.9888 172.386 97.3741 172.996L97.3639 172.977C97.7127 173.751 98.0416 174.534 98.265 175.309C98.3175 175.501 98.3655 175.699 98.3731 175.875C98.3911 176.028 98.3136 176.192 98.2151 176.33C98.0224 176.602 97.634 176.688 97.3069 176.635L97.1399 176.608L97.113 176.769C97.0624 177.072 96.9984 177.379 96.9139 177.667C96.834 177.941 96.7143 178.273 96.5671 178.385C96.5594 178.389 96.5024 178.407 96.432 178.4C96.3674 178.399 96.2976 178.39 96.2292 178.378C96.0909 178.355 95.9508 178.319 95.8132 178.277C95.6756 178.236 95.5386 178.188 95.4055 178.137L95.3069 178.097L95.3012 178.094L95.2986 178.093C95.4733 178.029 95.0586 178.179 95.1015 178.165L95.1008 178.166L95.0951 178.177L95.0836 178.198L95.0605 178.24C95.0266 178.295 94.9901 178.348 94.9479 178.396C94.7828 178.591 94.5498 178.721 94.3079 178.759C94.1869 178.779 94.0653 178.768 93.9431 178.737C93.8106 178.719 93.7223 178.682 93.6397 178.611C93.3236 178.281 93.2781 177.693 93.2762 177.225L93.2756 177.102L93.1623 177.084C91.9501 176.894 90.8308 176.72 89.8381 176.565L89.7952 176.558L89.7613 176.579C88.2068 177.558 87.0496 178.458 86.2772 179.104C85.8925 179.429 85.6039 179.69 85.4151 179.873C85.2282 180.058 85.1328 180.157 85.1405 180.165Z" fill="#EB996E"/>
<path d="M135.889 157.648L94.6222 157.984C93.2833 157.984 92.0046 158.627 91.8036 159.95L87.2936 190.027H66.0379C65.3537 190.027 64.7988 190.582 64.7988 191.266C64.7988 191.95 65.3537 192.505 66.0379 192.505H86.9217H90.8859H133.925L138.565 160.762C138.814 159.123 137.546 157.648 135.889 157.648Z" fill="#E0E0E0"/>
<path d="M135.888 157.648C135.888 157.648 136.113 157.619 136.539 157.709C136.951 157.805 137.602 158.06 138.115 158.754C138.37 159.094 138.565 159.548 138.625 160.071C138.692 160.602 138.54 161.163 138.473 161.769C138.301 162.984 138.102 164.384 137.878 165.957C136.97 172.263 135.661 181.351 134.052 192.523L134.036 192.632H133.925C116.358 192.642 93.2727 192.656 68.0637 192.671C67.4717 192.671 66.881 192.671 66.2909 192.671C66.0176 192.682 65.6368 192.666 65.3533 192.492C65.0602 192.331 64.8324 192.06 64.7184 191.747C64.4714 191.118 64.7664 190.346 65.3591 190.033C65.642 189.863 66.0189 189.848 66.289 189.859H67.162C69.4871 189.859 71.7885 189.859 74.0599 189.86C78.6032 189.861 83.0282 189.863 87.2925 189.865L87.1338 190.001C88.7568 179.23 90.2711 169.182 91.6298 160.168C91.6765 159.597 91.9351 158.979 92.3933 158.597C92.8413 158.199 93.4084 157.988 93.9709 157.9C94.545 157.813 95.0916 157.86 95.6349 157.841C96.1796 157.838 96.7197 157.834 97.2554 157.831C99.3981 157.816 101.47 157.802 103.468 157.789C107.461 157.763 111.155 157.74 114.509 157.719C121.209 157.685 126.55 157.658 130.228 157.639C132.055 157.635 133.467 157.633 134.433 157.631C134.905 157.633 135.266 157.635 135.519 157.636C135.764 157.64 135.888 157.648 135.888 157.648C135.888 157.648 135.764 157.658 135.52 157.665C135.266 157.671 134.906 157.678 134.434 157.688C133.469 157.702 132.057 157.722 130.229 157.749C126.552 157.79 121.211 157.849 114.512 157.923C111.158 157.957 107.465 157.993 103.471 158.033C101.474 158.052 99.4013 158.072 97.2586 158.092C96.7229 158.097 96.1828 158.102 95.6381 158.107C95.0954 158.126 94.5367 158.083 94.0151 158.167C93.4903 158.249 92.9706 158.448 92.5757 158.801C92.17 159.155 91.9556 159.647 91.9044 160.21C90.5591 169.226 89.0602 179.276 87.4525 190.05L87.432 190.187H87.2938C83.0295 190.188 78.6039 190.19 74.0612 190.192C71.7898 190.192 69.4884 190.192 67.1632 190.193H66.2903C65.9824 190.185 65.7527 190.197 65.5216 190.326C65.0692 190.565 64.8439 191.153 65.0327 191.633C65.1191 191.872 65.2932 192.08 65.5172 192.202C65.7495 192.334 65.9812 192.346 66.2928 192.337C66.8823 192.337 67.473 192.337 68.0656 192.337C93.2746 192.352 116.36 192.366 133.927 192.377L133.801 192.485C135.456 181.32 136.804 172.238 137.738 165.936C137.974 164.364 138.184 162.966 138.366 161.752C138.439 161.144 138.596 160.586 138.535 160.08C138.482 159.573 138.3 159.131 138.056 158.797C137.566 158.114 136.935 157.852 136.531 157.745C136.113 157.646 135.887 157.665 135.888 157.648Z" fill="#263238"/>
<path d="M113.505 177.278C114.932 177.278 116.088 176.121 116.088 174.694C116.088 173.267 114.932 172.11 113.505 172.11C112.078 172.11 110.921 173.267 110.921 174.694C110.921 176.121 112.078 177.278 113.505 177.278Z" fill="white"/>
<path d="M88.9659 192.227C89.0241 192.237 90.338 184.578 91.899 175.123C93.4612 165.665 94.6798 157.993 94.6215 157.983C94.5633 157.973 93.25 165.63 91.6878 175.088C90.1268 184.544 88.9076 192.218 88.9659 192.227Z" fill="#263238"/>
</svg>
