<svg width="320" height="337" viewBox="0 0 320 337" fill="none" xmlns="http://www.w3.org/2000/svg">
<path d="M302.88 147.629C302.88 147.629 302.88 147.56 302.88 147.445V146.94C302.88 146.48 302.88 145.829 302.88 145.002C302.88 143.302 302.88 140.852 302.818 137.773L302.933 137.888L265.656 137.957C265.74 137.873 265.464 138.148 265.847 137.773V142.766C265.847 144.405 265.847 146.028 265.847 147.613L265.663 147.422L292.229 147.506L300.067 147.56H302.19H302.742C302.808 147.553 302.875 147.553 302.941 147.56H302.772H302.236H300.159L292.282 147.736L265.587 147.82H265.403V147.636C265.403 146.051 265.403 144.428 265.403 142.789V137.781L265.594 137.589L302.872 137.658H303.01V137.781C303.01 140.89 302.964 143.363 302.948 145.079C302.948 145.898 302.948 146.534 302.948 146.993C302.948 147.192 302.948 147.353 302.948 147.476C302.932 147.529 302.909 147.581 302.88 147.629Z" fill="#E0E0E0"/>
<path d="M165.508 302.9L157.079 306.522L157.646 256.554C157.907 250.574 155.156 248.023 153.662 246.323C140.092 230.9 119.856 242.089 119.679 257.718L119.174 302.371L110.967 302.279L111.779 255.566C111.841 250.305 115.932 241.177 120.062 237.907C142.896 219.827 166.259 238.505 166.037 258.262L165.508 302.9Z" fill="#F5F5F5"/>
<path d="M165.508 302.9V302.004C165.508 301.414 165.508 300.549 165.508 299.415C165.508 297.118 165.554 293.787 165.584 289.46C165.615 285.133 165.669 279.888 165.722 273.769C165.753 270.706 165.784 267.446 165.814 263.99C165.814 260.529 166.128 256.845 165.416 253.062C164.702 249.101 163.096 245.353 160.719 242.104C160.405 241.683 160.106 241.254 159.776 240.84C159.447 240.427 159.071 240.074 158.719 239.653C157.999 238.855 157.231 238.1 156.42 237.394C156.029 237.019 155.57 236.72 155.141 236.376C154.711 236.031 154.29 235.679 153.807 235.403C152.879 234.785 151.911 234.227 150.911 233.734C148.863 232.705 146.696 231.933 144.459 231.436L142.727 231.153L141.862 231.008L140.98 230.954L139.203 230.839C138.605 230.839 138.007 230.877 137.41 230.9C132.456 231.125 127.661 232.715 123.556 235.495C119.236 238.418 115.85 242.523 113.802 247.319C112.773 249.793 112.098 252.399 111.794 255.061C111.565 257.741 111.626 260.506 111.572 263.27C111.45 274.351 111.319 285.823 111.189 297.577C111.189 299.145 111.171 300.707 111.135 302.264L110.944 302.065L119.15 302.157L118.959 302.348C119.056 293.465 119.155 284.786 119.258 276.311C119.304 272.095 119.352 267.936 119.403 263.837C119.403 261.795 119.426 259.765 119.472 257.749C119.516 255.735 119.852 253.739 120.468 251.822C121.726 248.091 124.095 244.834 127.257 242.487C127.632 242.191 128.023 241.918 128.429 241.667L129.655 240.902C130.487 240.461 131.35 240.082 132.238 239.768C133.115 239.449 134.013 239.193 134.927 239.002C135.379 238.903 135.839 238.865 136.291 238.788L136.973 238.696H137.663C139.463 238.596 141.268 238.748 143.026 239.148C144.74 239.559 146.393 240.19 147.946 241.024C152.362 243.474 155.658 247.539 157.14 252.365C157.573 253.862 157.831 255.404 157.907 256.96C157.907 257.343 157.907 257.726 157.945 258.101C157.983 258.476 157.945 258.867 157.945 259.227C157.945 259.993 157.945 260.712 157.945 261.448C157.945 262.91 157.945 264.35 157.891 265.759C157.815 271.395 157.753 276.572 157.692 281.243C157.562 290.578 157.462 297.884 157.393 302.739L157.34 302.685L163.531 302.785H165.063H165.561H163.554L157.332 302.746H157.278V302.693C157.278 297.838 157.386 290.532 157.47 281.197C157.516 276.526 157.569 271.342 157.623 265.705C157.623 264.296 157.623 262.857 157.669 261.394C157.669 260.628 157.669 259.924 157.669 259.173C157.669 258.806 157.669 258.407 157.669 258.055L157.623 256.929C157.509 253.791 156.577 250.737 154.918 248.069C153.189 245.213 150.74 242.86 147.815 241.246C146.289 240.429 144.664 239.811 142.98 239.408C141.244 239.019 139.462 238.875 137.686 238.979H137.011L136.345 239.079C135.893 239.148 135.441 239.186 134.996 239.286C133.196 239.67 131.456 240.296 129.824 241.147L128.621 241.866C128.223 242.099 127.84 242.355 127.472 242.632C124.363 244.942 122.039 248.15 120.813 251.822C120.21 253.704 119.884 255.665 119.848 257.642C119.848 259.653 119.825 261.682 119.779 263.73C119.733 267.814 119.687 271.972 119.641 276.204C119.549 284.628 119.449 293.335 119.35 302.241V302.432H119.158L110.944 302.341H110.752V302.149C110.752 300.618 110.77 299.055 110.806 297.462C110.944 285.715 111.074 274.244 111.204 263.155C111.258 260.383 111.204 257.649 111.427 254.908C111.739 252.211 112.428 249.572 113.472 247.066C114.541 244.671 115.922 242.428 117.58 240.396C119.259 238.416 121.194 236.667 123.334 235.196C127.493 232.378 132.352 230.766 137.371 230.54C137.977 230.54 138.582 230.472 139.187 230.487L141.249 230.609L142.383 230.74L144.099 231.023L144.865 231.191C146.993 231.689 149.051 232.445 150.995 233.443C152.01 233.94 152.991 234.506 153.93 235.135C154.413 235.419 154.826 235.801 155.271 236.123C155.715 236.445 156.167 236.774 156.573 237.149C157.385 237.869 158.152 238.636 158.872 239.447L159.945 240.649C160.274 241.07 160.573 241.507 160.887 241.935C163.286 245.221 164.903 249.011 165.615 253.016C166.328 256.845 165.967 260.552 165.99 264.013C166.013 267.474 165.898 270.767 165.86 273.83C165.776 279.957 165.699 285.225 165.638 289.537C165.577 293.848 165.531 297.194 165.492 299.446C165.492 300.564 165.492 301.429 165.446 302.011C165.4 302.593 165.508 302.9 165.508 302.9Z" fill="#E0E0E0"/>
<path d="M101.594 273.112L175.914 273.954C176.674 273.963 177.4 274.273 177.931 274.816C178.462 275.359 178.756 276.091 178.747 276.851L178.096 334.258C178.088 334.948 177.806 335.607 177.312 336.09C176.818 336.573 176.152 336.84 175.461 336.832L100.911 335.987L101.625 273.112L101.594 273.112Z" fill="#E0E0E0"/>
<path d="M101.595 272.951L166.955 273.604C167.78 273.612 168.568 273.948 169.145 274.537C169.723 275.126 170.043 275.92 170.035 276.744L169.475 332.647C169.465 333.662 169.052 334.632 168.326 335.343C167.6 336.054 166.622 336.447 165.606 336.437L101.073 335.792C100.22 335.784 99.4045 335.437 98.807 334.827C98.2095 334.218 97.8786 333.397 97.8872 332.544L98.4527 276.029C98.4609 275.204 98.7966 274.417 99.3858 273.839C99.9751 273.262 100.77 272.943 101.595 272.951Z" fill="#EBEBEB"/>
<path d="M143.517 299.477C143.531 298.302 143.308 297.136 142.862 296.049C142.416 294.962 141.756 293.976 140.921 293.148C140.087 292.321 139.094 291.67 138.003 291.234C136.911 290.798 135.743 290.585 134.568 290.609C132.307 290.676 130.157 291.604 128.558 293.202C126.958 294.801 126.03 296.949 125.963 299.208C125.927 301.124 126.523 302.999 127.659 304.543C128.794 306.087 130.406 307.216 132.246 307.755L126.384 319.793L141.517 320.245L137.043 307.785C138.878 307.291 140.503 306.213 141.672 304.714C142.84 303.215 143.488 301.376 143.517 299.477Z" fill="#405FC4"/>
<path d="M169.056 330.828C168.948 330.828 169.056 319.885 169.247 306.392C169.439 292.898 169.714 281.948 169.822 281.948C169.929 281.948 169.822 292.891 169.63 306.392C169.439 319.892 169.163 330.836 169.056 330.828Z" fill="#FAFAFA"/>
<path d="M153.088 275.622C153.088 275.73 143.456 275.837 131.572 275.86C119.687 275.883 110.048 275.814 110.048 275.707C110.048 275.599 119.68 275.5 131.572 275.477C143.464 275.454 153.088 275.5 153.088 275.622Z" fill="white"/>
<path d="M125.625 304.002C125.475 303.84 125.353 303.654 125.265 303.451C124.99 302.918 124.769 302.359 124.606 301.781C124.058 299.858 124.108 297.814 124.752 295.921C125.395 294.027 126.6 292.375 128.207 291.183C128.685 290.822 129.198 290.512 129.74 290.256C129.93 290.151 130.138 290.078 130.353 290.042C130.353 290.103 129.517 290.463 128.368 291.397C126.858 292.602 125.726 294.214 125.105 296.042C124.485 297.871 124.402 299.839 124.866 301.713C125.242 303.191 125.686 303.956 125.625 304.002Z" fill="white"/>
<path d="M129.072 308.199C129.018 308.291 128.505 308.069 127.923 307.709C127.341 307.349 126.92 306.981 126.974 306.889C127.027 306.797 127.548 307.02 128.13 307.38C128.712 307.74 129.072 308.107 129.072 308.199Z" fill="white"/>
<path d="M136.368 232.868C135.879 232.962 135.385 233.026 134.889 233.06C133.551 233.239 132.229 233.523 130.935 233.91C126.637 235.156 122.783 237.6 119.824 240.955C116.864 244.31 114.922 248.438 114.223 252.855C113.993 254.186 113.877 255.533 113.879 256.884C113.879 257.833 113.879 258.369 113.879 258.369C113.837 258.246 113.817 258.116 113.817 257.986C113.817 257.734 113.741 257.366 113.733 256.884C113.679 255.521 113.756 254.157 113.963 252.81C114.602 248.318 116.543 244.111 119.547 240.709C122.551 237.307 126.486 234.858 130.866 233.665C132.176 233.28 133.521 233.024 134.881 232.899C135.356 232.845 135.732 232.853 135.985 232.846C136.113 232.84 136.241 232.848 136.368 232.868Z" fill="white"/>
<path d="M113.472 265.146C113.298 264.394 113.251 263.617 113.334 262.849C113.282 262.075 113.362 261.298 113.572 260.552C113.803 262.078 113.769 263.632 113.472 265.146Z" fill="white"/>
<path d="M160.696 51.8367H123.418V61.6923H160.696V51.8367Z" fill="#F5F5F5"/>
<path d="M144.935 72.0765C144.935 72.0765 144.935 72.0152 144.935 71.9004V71.395C144.935 70.9278 144.935 70.2769 144.935 69.4499C144.935 67.7498 144.935 65.307 144.873 62.2208L144.988 62.3357L107.711 62.4123C107.795 62.3281 107.519 62.5961 107.902 62.2208V67.2138C107.902 68.8577 107.902 70.4735 107.902 72.0612L107.718 71.8774L134.284 71.9616L142.123 72.0152H144.245H144.797C144.863 72.0087 144.93 72.0087 144.996 72.0152H144.827H144.291H142.215L134.414 72.0689L107.718 72.1531H107.535V71.9693C107.535 70.3816 107.535 68.7658 107.535 67.1219V62.1289L107.726 61.9375L145.004 62.0141H145.119V62.1289C145.119 65.238 145.073 67.7115 145.057 69.4269C145.057 70.2463 145.057 70.8819 145.057 71.3414C145.057 71.5405 145.057 71.7013 145.057 71.8238C145.057 71.9463 144.942 72.0765 144.935 72.0765Z" fill="#E0E0E0"/>
<path d="M294.742 222.04H257.464V231.896H294.742V222.04Z" fill="#F5F5F5"/>
<path d="M278.98 242.28C278.975 242.219 278.975 242.157 278.98 242.096V241.591C278.98 241.131 278.98 240.481 278.98 239.653C278.98 237.953 278.942 235.511 278.919 232.424L279.034 232.539L241.757 232.616C241.841 232.532 241.565 232.8 241.94 232.424V242.265L241.757 242.081L268.322 242.165L276.161 242.219H278.283H278.835H279.034H278.858H278.329H276.253L268.452 242.272L241.711 242.464H241.519V232.44L241.711 232.248L278.988 232.325H279.103V232.44C279.103 235.549 279.057 238.022 279.042 239.738C279.042 240.557 279.042 241.193 279.042 241.652C279.042 241.851 279.042 242.012 279.042 242.135C279.024 242.184 279.004 242.233 278.98 242.28Z" fill="#E0E0E0"/>
<path d="M50.3493 36.3984C50.3425 36.3399 50.3425 36.2808 50.3493 36.2222C50.3493 36.0921 50.3493 35.9236 50.3493 35.7168C50.3493 35.2497 50.3493 34.6064 50.3493 33.7717C50.3493 32.0717 50.3493 29.6288 50.288 26.5427L50.403 26.6576L13.0718 26.7418C13.1561 26.6576 12.8802 26.9333 13.2557 26.5504V36.3984L13.0718 36.2146L39.6373 36.2988L47.4759 36.3524H49.5984H50.1501H50.3493C50.2908 36.3596 50.2316 36.3596 50.1731 36.3524H49.6444H47.5602L39.7676 36.406L13.0718 36.4903H12.8802V26.558L13.0718 26.3666L50.3493 26.4432H50.4643V26.558C50.4643 29.6748 50.4183 32.1406 50.403 33.856C50.403 34.6754 50.403 35.3186 50.403 35.7704C50.403 35.9695 50.403 36.1304 50.403 36.2605C50.3887 36.3078 50.3708 36.3539 50.3493 36.3984Z" fill="#E0E0E0"/>
<path d="M272.635 22.2468C272.635 22.2468 272.635 22.1778 272.635 22.063V21.5576C272.635 21.0981 272.635 20.4472 272.635 19.6201C272.635 17.9201 272.635 15.4696 272.574 12.3911L272.689 12.506L235.411 12.5749L235.603 12.3911V17.3993C235.603 19.0483 235.603 20.6641 235.603 22.2468L235.419 22.063L261.984 22.1472L269.823 22.1932H271.945H272.505C272.568 22.1869 272.633 22.1869 272.696 22.1932H272.528H271.991H269.915L262.115 22.2468L235.419 22.331H235.235V22.1472C235.235 20.562 235.235 18.9462 235.235 17.2998V12.4064L235.426 12.215L272.704 12.2915H272.819V12.4064C272.819 15.5155 272.773 17.989 272.758 19.7044C272.758 20.5237 272.758 21.1593 272.758 21.6188V22.1013C272.724 22.1555 272.683 22.2045 272.635 22.2468Z" fill="#E0E0E0"/>
<path d="M277.724 12.391C277.718 12.3273 277.718 12.2633 277.724 12.1996C277.724 12.0617 277.724 11.8856 277.724 11.6788C277.724 11.1964 277.724 10.5378 277.724 9.70312C277.724 7.97244 277.678 5.53724 277.647 2.53536L277.785 2.66554L255.388 2.71915L255.572 2.53536V7.5972C255.572 9.24364 255.572 10.8441 255.572 12.3757L255.396 12.1919L271.418 12.2762L276.084 12.3298H277.341H277.793C277.658 12.3407 277.522 12.3407 277.387 12.3298H276.161L271.563 12.3757L255.419 12.4599H255.235V12.2838C255.235 10.7522 255.235 9.15175 255.235 7.50531V2.55068C255.189 2.55068 255.595 2.19076 255.426 2.35923L277.823 2.41283H277.961V2.55068C277.961 5.61382 277.9 8.04902 277.885 9.80267C277.885 10.6221 277.885 11.2653 277.885 11.7478C277.885 12.2302 277.724 12.3987 277.724 12.391Z" fill="#E0E0E0"/>
<path d="M37.4005 257.243C37.3972 257.185 37.3972 257.126 37.4005 257.067C37.4005 256.937 37.4005 256.768 37.4005 256.562C37.4005 256.095 37.4005 255.451 37.4005 254.624C37.4005 252.924 37.4005 250.474 37.3392 247.388L37.4541 247.502L0.176601 247.579L0.36816 247.388V252.388C0.36816 254.032 0.36816 255.648 0.36816 257.236L0.184265 257.052L26.7498 257.136L34.5884 257.19H36.7109H37.2702H37.4618C37.4618 257.19 37.4081 257.19 37.2932 257.19H36.7568H34.6803L26.88 257.243L0.184265 257.328H0.000366211V257.243C0.000366211 255.658 0.000366211 254.042 0.000366211 252.396V247.395C0.383486 247.02 0.10764 247.296 0.191926 247.211L37.4694 247.28H37.5844V247.395C37.5844 250.512 37.5384 252.978 37.5231 254.701C37.5231 255.52 37.5231 256.156 37.5231 256.615V257.098C37.4081 257.243 37.4081 257.243 37.4005 257.243Z" fill="#E0E0E0"/>
<path d="M42.4885 247.403C42.4824 247.342 42.4824 247.28 42.4885 247.219C42.4885 247.074 42.4885 246.905 42.4885 246.699C42.4885 246.208 42.4885 245.55 42.4885 244.723C42.4885 242.992 42.4425 240.549 42.4119 237.547L42.5498 237.685L20.1526 237.739C19.9841 237.907 20.3825 237.509 20.3365 237.547V242.617C20.3365 244.271 20.3365 245.864 20.3365 247.395L20.1603 247.219L36.1823 247.304L40.8487 247.357H42.1054H42.5574C42.4223 247.368 42.2865 247.368 42.1513 247.357H40.9254L36.3279 247.411L20.1833 247.495H19.9994V247.311C19.9994 245.78 19.9994 244.187 19.9994 242.533V237.463L20.1909 237.272L42.4885 237.41H42.6264V237.547C42.6264 240.611 42.5651 243.053 42.5498 244.799C42.5498 245.619 42.5498 246.27 42.5498 246.752C42.5498 247.235 42.4885 247.418 42.4885 247.403Z" fill="#E0E0E0"/>
<path d="M154.788 176.216C154.781 176.157 154.781 176.098 154.788 176.04V175.534C154.788 175.067 154.788 174.424 154.788 173.597C154.788 171.889 154.75 169.446 154.727 166.36L154.842 166.475L117.564 166.552C117.648 166.467 117.372 166.743 117.748 166.36V176.2L117.564 176.017L144.129 176.101L151.968 176.154H154.091H154.642H154.842H154.665H154.137H152.052L144.26 176.2L117.564 176.285H117.372V166.253L117.564 166.061L154.842 166.138H154.956V166.253C154.956 169.37 154.91 171.835 154.895 173.558C154.895 174.37 154.895 175.013 154.895 175.465V175.955C154.873 176.047 154.836 176.135 154.788 176.216Z" fill="#E0E0E0"/>
<path d="M159.846 166.36C159.835 166.299 159.835 166.237 159.846 166.176C159.846 166.031 159.846 165.862 159.846 165.648L159.807 163.672C159.807 161.949 159.807 159.506 159.738 156.504L159.876 156.642L137.471 156.696L137.663 156.504V161.574C137.663 163.22 137.663 164.821 137.663 166.352L137.479 166.176L153.501 166.26L158.175 166.306H159.432H159.884C159.746 166.316 159.608 166.316 159.47 166.306H158.252L153.654 166.36L137.51 166.444H137.333V166.26C137.333 164.729 137.333 163.128 137.333 161.482V156.412C137.333 156.451 137.701 156.052 137.525 156.221L159.93 156.275H160.068V156.412C160.068 159.476 160.014 161.918 159.999 163.664C159.999 164.484 159.999 165.135 159.961 165.609C159.922 166.084 159.853 166.368 159.846 166.36Z" fill="#E0E0E0"/>
<path d="M303.01 336.801C303.01 336.908 238.447 337 158.828 337C79.2098 337 14.6283 336.885 14.6283 336.801C14.6283 336.717 79.1781 336.602 158.828 336.602C238.478 336.602 303.01 336.694 303.01 336.801Z" fill="#263238"/>
<path d="M16.7581 294.46L2.98877 313.146L26.1751 330.391C27.7076 328.094 18.9955 314.708 18.9955 314.708L28.3129 303.099L16.7581 294.46Z" fill="#455A64"/>
<path d="M12.605 308.382C12.3325 308.283 12.0329 308.289 11.7641 308.398C11.4953 308.507 11.2765 308.711 11.1499 308.972C11.0423 309.242 11.0418 309.544 11.1485 309.814C11.2553 310.085 11.4612 310.304 11.7243 310.428C12.013 310.53 12.3292 310.521 12.6119 310.404C12.8946 310.286 13.124 310.068 13.2559 309.792C13.3405 309.498 13.308 309.184 13.1651 308.913C13.0223 308.643 12.7803 308.439 12.4901 308.344" fill="white"/>
<path d="M2.9585 313.192L4.42201 311.185L26.0836 328.615C26.0836 328.615 26.7732 329.84 26.0836 330.475L2.9585 313.192Z" fill="#263238"/>
<path d="M19.5004 314.877C19.4162 314.992 18.8112 314.624 17.9688 314.57C17.1264 314.517 16.4908 314.777 16.4372 314.655C16.3836 314.532 17.0269 314.003 18.0224 314.08C19.018 314.157 19.5617 314.793 19.5004 314.877Z" fill="#263238"/>
<path d="M21.1469 317.695C21.0857 317.825 20.4577 317.649 19.7149 317.84C18.972 318.032 18.4896 318.461 18.3747 318.369C18.2598 318.277 18.6734 317.603 19.6 317.365C20.5266 317.128 21.2235 317.587 21.1469 317.695Z" fill="#263238"/>
<path d="M20.36 321.631C20.2375 321.577 20.5055 320.865 21.256 320.49C22.0065 320.114 22.7187 320.237 22.6957 320.367C22.6728 320.497 22.0984 320.582 21.4934 320.926C20.8884 321.271 20.4826 321.7 20.36 321.631Z" fill="#263238"/>
<path d="M21.2936 311.998C21.1635 312.067 20.7652 311.523 20.0913 311.094C19.4174 310.665 18.7741 310.489 18.7818 310.328C18.7895 310.167 19.5476 310.136 20.3594 310.657C21.1711 311.178 21.4162 311.952 21.2936 311.998Z" fill="#263238"/>
<path d="M72.8169 216.243C73.2307 218.586 73.8897 238.52 74.3111 249.034C74.7325 259.548 73.6828 264.717 72.4798 267.076C71.2768 269.435 25.9078 302.846 22.4521 310.848L10.9585 301.59C10.9585 301.59 27.8157 271.349 35.0031 265.851C42.1904 260.352 56.021 255.306 56.021 255.306L52.0902 197.726L70.932 196.7L72.8169 216.243Z" fill="#263238"/>
<path d="M30.6499 312.939L30.4507 336.12L59.3455 336.518C59.2153 333.761 44.3426 328.01 44.3426 328.01L45.1088 313.146L30.6499 312.939Z" fill="#455A64"/>
<path d="M35.4235 326.669C35.1449 326.75 34.9057 326.931 34.7517 327.176C34.5977 327.422 34.5397 327.716 34.5888 328.002C34.6598 328.284 34.8357 328.528 35.0804 328.685C35.3252 328.841 35.6204 328.899 35.906 328.845C36.2002 328.758 36.4519 328.565 36.613 328.303C36.7741 328.042 36.8331 327.73 36.779 327.428C36.6764 327.141 36.4663 326.906 36.1934 326.772C35.9204 326.637 35.6059 326.614 35.3163 326.708" fill="white"/>
<path d="M30.4438 336.204V333.715L58.22 335.155C58.22 335.155 59.492 335.744 59.331 336.648L30.4438 336.204Z" fill="#263238"/>
<path d="M44.7868 327.903C44.7868 328.048 44.0746 328.102 43.3777 328.546C42.6809 328.99 42.298 329.573 42.1678 329.519C42.0376 329.465 42.2597 328.646 43.1174 328.125C43.9751 327.604 44.8481 327.772 44.7868 327.903Z" fill="#263238"/>
<path d="M47.8522 329.227C47.8522 329.365 47.2626 329.595 46.7801 330.185C46.2977 330.775 46.1445 331.411 46.0143 331.395C45.8841 331.38 45.7922 330.591 46.4125 329.863C47.0328 329.135 47.8522 329.067 47.8522 329.227Z" fill="#263238"/>
<path d="M49.5003 332.85C49.3701 332.85 49.1863 332.168 49.5539 331.402C49.9215 330.636 50.5954 330.338 50.649 330.453C50.7026 330.567 50.2967 330.981 49.9981 331.617C49.6994 332.253 49.6381 332.835 49.5003 332.85Z" fill="#263238"/>
<path d="M44.6018 324.495C44.5406 324.625 43.8973 324.418 43.0702 324.495C42.2432 324.571 41.6458 324.778 41.5386 324.656C41.4314 324.533 42.067 324.043 43.009 324.004C43.9509 323.966 44.6708 324.387 44.6018 324.495Z" fill="#263238"/>
<path d="M74.9009 194.319C74.9009 195.674 77.1 229.989 65.8746 254.816C65.8746 254.816 61.9897 262.581 61.2771 265.973C60.5645 269.366 46.0443 325.636 46.0443 325.636L29.2637 325.023C29.2637 325.023 26.5819 296.835 29.2637 280.516C31.9455 264.197 36.9261 266.111 36.9261 255.574C36.9261 245.037 34.4205 223.189 34.4205 223.189C34.4205 223.189 30.7579 217.223 29.5089 205.652C28.4898 196.256 32.9187 186.186 32.9187 186.186L37.2939 178.444L74.3108 176.507L74.9009 194.319Z" fill="#263238"/>
<path d="M74.8998 194.319C74.8998 194.319 74.8998 193.921 74.8998 193.147C74.8998 192.374 74.8539 191.225 74.8232 189.717C74.7542 186.692 74.6393 182.235 74.5014 176.476V176.392H74.4094L37.3925 178.276H37.3158L37.2699 178.345C35.9136 180.749 34.4195 183.376 32.887 186.087C31.7472 188.835 30.8574 191.679 30.2281 194.587C29.533 197.648 29.2216 200.784 29.301 203.922C29.5342 207.199 30.0469 210.45 30.8335 213.64C31.5923 216.989 32.7849 220.225 34.3812 223.266V223.189C35.0171 228.902 35.6071 234.821 36.1052 240.917C36.3504 243.98 36.5649 247.043 36.7182 250.191C36.7948 251.722 36.8561 253.33 36.8638 254.916C36.8638 255.681 36.8638 256.501 36.8178 257.289C36.7632 258.08 36.6661 258.868 36.5266 259.648C36.213 261.22 35.6572 262.734 34.8792 264.136C34.113 265.568 33.3467 266.984 32.5805 268.478C31.1928 271.508 30.1815 274.697 29.5692 277.973C28.2359 284.559 27.9677 291.405 27.8911 298.305C27.8911 307.41 28.3202 316.355 29.0711 325V325.184H29.2474L46.028 325.797H46.1889L46.2272 325.636C51.0928 306.79 55.6289 289.177 59.6287 273.34L61.0769 267.482C61.3298 266.51 61.4907 265.545 61.7895 264.626C62.0883 263.707 62.4255 262.795 62.7779 261.907C63.4982 260.131 64.3104 258.408 65.0767 256.73L65.6743 255.482C65.8866 255.074 66.0759 254.655 66.2413 254.226C66.5861 253.376 66.931 252.542 67.2758 251.707C69.6587 245.531 71.432 239.137 72.5705 232.616C74.2115 223.326 75.0574 213.914 75.0991 204.481C75.145 197.88 74.8769 194.296 74.8769 194.296C74.8769 194.296 74.8769 194.518 74.8769 194.954C74.8769 195.391 74.8768 196.057 74.9228 196.915C74.9688 198.638 74.9994 201.18 74.9228 204.481C74.8519 213.906 73.9985 223.309 72.3712 232.593C71.2065 239.093 69.4101 245.464 67.0076 251.615L65.9808 254.119C65.8123 254.548 65.6207 254.954 65.4138 255.367C65.2069 255.781 65.0077 256.202 64.8085 256.623C64.0422 258.3 63.23 260.023 62.5098 261.808C62.1496 262.704 61.8048 263.615 61.506 264.549C61.2072 265.483 61.0309 266.471 60.7857 267.421C60.303 269.351 59.8203 271.296 59.3222 273.279C55.2535 289.1 50.725 306.713 45.8747 325.559L46.0739 325.414L29.2933 324.793L29.4926 324.977C28.7263 316.347 28.2819 307.41 28.3125 298.32C28.3892 291.428 28.6574 284.613 29.9829 278.073C30.5934 274.827 31.5942 271.667 32.9636 268.661C33.6532 267.183 34.4961 265.782 35.2623 264.327C36.0352 262.887 36.583 261.338 36.8868 259.732C37.032 258.935 37.1318 258.129 37.1856 257.32C37.1856 256.554 37.2622 255.712 37.2316 254.923C37.2316 253.33 37.1626 251.745 37.086 250.175C36.9327 247.036 36.7105 243.942 36.4577 240.894C35.9468 234.768 35.367 228.853 34.7183 223.151V223.105C33.1215 220.103 31.9237 216.906 31.1553 213.594C30.3732 210.426 29.8605 207.199 29.6228 203.945C29.5403 200.836 29.844 197.728 30.527 194.694C31.1444 191.816 32.0136 188.997 33.1245 186.27L37.4921 178.521L37.3695 178.597L74.3865 176.599L74.2868 176.514C74.4707 182.265 74.6087 186.722 74.7006 189.747C74.7542 191.279 74.7926 192.397 74.8232 193.178C74.8539 193.959 74.8998 194.319 74.8998 194.319Z" fill="#455A64"/>
<path d="M62.8639 124.05C62.8639 124.05 52.9028 122.289 53.83 135.101C54.4123 142.759 56.6651 155.899 57.914 164.285C58.3431 167.187 59.2933 172.379 63.1321 175.427L90.6401 194.449L99.3216 184.073L74.756 160.693L70.9248 137.567L62.8639 124.05Z" fill="#455A64"/>
<path d="M64.0349 77.8733C65.6138 79.1439 66.863 80.7762 67.6766 82.6317C68.4903 84.4873 68.8444 86.5116 68.709 88.533C68.5557 90.4934 68.0117 92.7219 69.2913 94.2152C70.5709 95.7084 73.0229 95.6548 74.2335 97.1711C75.6511 98.963 74.4634 101.628 74.9998 103.856C75.2732 104.897 75.9081 105.807 76.7911 106.423C77.6741 107.039 78.7475 107.321 79.8194 107.218C77.3047 109.275 74.2719 110.599 71.0537 111.047L68.5404 107.915C69.4752 109.018 69.2223 110.771 68.3258 111.897C67.352 112.945 66.0961 113.689 64.7092 114.041C61.4082 115.056 57.9174 115.296 54.5084 114.742C51.0995 114.188 47.8645 112.856 45.0552 110.848" fill="#263238"/>
<path d="M27.2332 95.1572C27.7236 93.6256 28.5512 92.2702 28.8807 90.7309C29.5856 87.4151 27.9688 83.678 29.5779 80.6915C30.7273 78.5703 33.1639 77.5288 35.478 76.8166C37.792 76.1044 40.2593 75.5071 41.9833 73.8147C43.24 72.5741 43.9602 70.8588 45.2168 69.6182C47.0098 67.8416 49.661 67.2366 52.1743 67.0835C54.7695 66.8328 57.3854 67.2575 59.7677 68.3164C60.9507 68.8558 61.9901 69.6657 62.8021 70.6807C63.614 71.6957 64.1757 72.8873 64.4418 74.1593C64.641 75.3999 64.4877 76.7094 64.8862 77.9117C65.3153 79.2288 66.3497 80.255 66.9933 81.4879C67.638 82.812 67.8245 84.3125 67.5235 85.7539C67.2226 87.1954 66.4513 88.4961 65.3306 89.4521L47.5692 112.38C43.8376 113.789 34.796 112.089 31.915 109.317C29.0339 106.544 25.9996 98.9478 27.2332 95.1572Z" fill="#263238"/>
<path d="M64.8635 86.5421C64.0973 81.3347 60.1665 75.1855 54.9944 76.135L39.026 81.4956C37.4935 81.7865 38.5815 84.3519 38.7348 85.9371L42.2058 121.929C42.2058 121.929 40.0451 123.461 39.2788 123.17C39.2352 123.154 39.1879 123.153 39.1435 123.166C39.0991 123.179 39.0599 123.205 39.0312 123.242C39.0025 123.278 38.9859 123.322 38.9836 123.368C38.9813 123.414 38.9934 123.46 39.0183 123.499C40.9569 126.294 49.9908 138.447 59.3466 134.718C61.4308 133.883 59.1244 127.32 59.3466 124.893L59.0708 118.682C58.8639 115.512 58.7643 114.21 58.7643 114.241C58.7643 114.271 65.3692 112.617 66.0818 103.788C66.442 99.4149 65.6757 92.3238 64.8635 86.5421Z" fill="#FFBF9D"/>
<path d="M63.7513 94.5525C63.775 94.844 63.6844 95.1334 63.4985 95.3593C63.3127 95.5852 63.0463 95.73 62.7557 95.7628C62.6141 95.7856 62.4695 95.7797 62.3302 95.7455C62.191 95.7113 62.06 95.6495 61.9451 95.5638C61.8301 95.4781 61.7335 95.3702 61.661 95.2465C61.5884 95.1228 61.5414 94.9857 61.5228 94.8435C61.499 94.552 61.5897 94.2626 61.7755 94.0367C61.9613 93.8108 62.2277 93.6661 62.5183 93.6332C62.6599 93.6105 62.8045 93.6164 62.9438 93.6505C63.083 93.6847 63.214 93.7465 63.329 93.8322C63.4439 93.9179 63.5405 94.0258 63.6131 94.1495C63.6856 94.2732 63.7326 94.4103 63.7513 94.5525Z" fill="#263238"/>
<path d="M52.8705 95.234C52.8964 95.5249 52.8075 95.8143 52.6229 96.0404C52.4383 96.2666 52.1727 96.4116 51.8827 96.4444C51.7412 96.4661 51.5969 96.4594 51.4581 96.4248C51.3192 96.3902 51.1887 96.3283 51.074 96.2428C50.9592 96.1572 50.8627 96.0497 50.7898 95.9265C50.717 95.8034 50.6694 95.6669 50.6497 95.5252C50.626 95.2336 50.7166 94.9442 50.9024 94.7183C51.0882 94.4924 51.3546 94.3476 51.6453 94.3148C51.7864 94.2921 51.9306 94.298 52.0694 94.3323C52.2082 94.3666 52.3386 94.4284 52.453 94.5142C52.5673 94.6 52.6632 94.708 52.735 94.8316C52.8067 94.9553 52.8528 95.0922 52.8705 95.234Z" fill="#263238"/>
<path d="M64.1488 90.8615C64.0262 91.0684 62.9844 90.4095 61.6821 90.6011C60.3798 90.7926 59.5448 91.6812 59.3839 91.5203C59.223 91.3595 59.3839 91.0913 59.7593 90.6853C60.2306 90.1562 60.8751 89.8124 61.577 89.7155C62.279 89.6186 62.9925 89.7751 63.5895 90.1567C64.0185 90.4555 64.21 90.7696 64.1488 90.8615Z" fill="#263238"/>
<path d="M52.4491 91.8341C52.2959 92.0256 51.2771 91.2825 49.8752 91.3438C48.4733 91.4051 47.4774 92.1942 47.3166 92.018C47.1557 91.8418 47.3855 91.6043 47.8221 91.2519C48.3953 90.7788 49.1093 90.5093 49.8522 90.4858C50.5915 90.4568 51.3193 90.6751 51.9206 91.1063C52.3572 91.4204 52.5181 91.7422 52.4491 91.8341Z" fill="#263238"/>
<path d="M56.841 100.081C57.4595 99.8288 58.1086 99.6588 58.7715 99.5757C59.0702 99.5221 59.3613 99.4379 59.392 99.2235C59.396 98.9033 59.2996 98.59 59.1162 98.3275C58.7715 97.6077 58.4114 96.8495 58.0284 96.0301C56.4963 92.7909 55.3855 90.1259 55.5157 90.0647C55.646 90.0034 56.9866 92.5764 58.5034 95.8081C58.8711 96.6121 59.2235 97.3396 59.5529 98.1054C59.7769 98.4608 59.8666 98.8844 59.8057 99.3C59.7706 99.4121 59.7102 99.5146 59.6291 99.5995C59.5481 99.6845 59.4486 99.7497 59.3384 99.7902C59.1724 99.847 59 99.883 58.8251 99.8974C58.1733 100.037 57.5073 100.099 56.841 100.081Z" fill="#263238"/>
<path d="M58.763 114.256C54.6597 114.632 50.5324 113.864 46.8403 112.035C46.8403 112.035 50.2501 117.932 58.9162 116.446L58.763 114.256Z" fill="#FF9A6C"/>
<path d="M53.1696 103.589C53.3062 103.286 53.517 103.022 53.7824 102.823C54.1073 102.668 54.4761 102.633 54.8243 102.723C55.3416 102.799 55.8203 103.041 56.1878 103.412C56.3682 103.6 56.4953 103.832 56.5559 104.085C56.6165 104.338 56.6084 104.603 56.5326 104.852C56.3947 105.357 55.6439 105.618 55.1307 105.725C54.599 105.803 54.0569 105.692 53.5986 105.411C53.3992 105.32 53.2252 105.182 53.0917 105.009C52.9581 104.835 52.8691 104.631 52.8325 104.416C52.8665 104.114 52.9832 103.828 53.1696 103.589Z" fill="#FF9A6C"/>
<path d="M53.4148 101.896C53.6063 101.896 53.7136 103.175 54.901 104.017C56.0884 104.86 57.4673 104.607 57.4902 104.783C57.5132 104.959 57.2068 105.059 56.6169 105.12C55.8516 105.19 55.0861 104.987 54.4567 104.546C53.8493 104.127 53.4311 103.486 53.2923 102.761C53.2156 102.233 53.3229 101.896 53.4148 101.896Z" fill="#263238"/>
<path d="M52.3409 87.1244C52.2413 87.4538 51.0309 87.3925 49.6291 87.6759C48.2272 87.9594 47.1164 88.442 46.9095 88.1432C46.8176 88.013 46.9862 87.6912 47.4228 87.3389C48.0077 86.9031 48.6848 86.6074 49.402 86.4746C50.1192 86.3417 50.8574 86.3754 51.5595 86.5728C52.0958 86.726 52.3792 86.9635 52.3409 87.1244Z" fill="#263238"/>
<path d="M63.4054 86.4736C63.1832 86.7647 62.218 86.5579 61.1072 86.6345C59.9964 86.7111 59.0159 86.9792 58.7707 86.7111C58.6635 86.5808 58.7707 86.2898 59.1921 85.9986C59.746 85.6336 60.3904 85.4294 61.0536 85.4088C61.7125 85.3613 62.3714 85.5021 62.9534 85.8148C63.3517 86.0446 63.5049 86.3204 63.4054 86.4736Z" fill="#263238"/>
<path d="M35.4935 82.7514C36.2598 81.5108 37.7463 80.8752 39.1255 80.3468C45.0821 78.0482 51.2915 76.4672 57.6225 75.6372C58.3887 76.9314 57.6838 78.7004 56.4961 79.6423C55.3084 80.5842 53.7759 80.9594 52.3584 81.4878C50.9409 82.0162 49.4774 82.8432 48.8873 84.2446C48.2973 85.646 48.7954 87.4916 48.2437 89.0078C47.3012 91.6268 43.6463 92.4692 42.7345 95.0805C42.0295 97.0639 43.1789 99.1698 43.5007 101.253C43.6479 102.31 43.5677 103.386 43.2656 104.41C42.9635 105.434 42.4463 106.381 41.7487 107.189C41.0511 107.997 40.189 108.647 39.22 109.096C38.251 109.545 37.1974 109.782 36.1295 109.791C35.7004 102.292 35.2687 94.7972 34.8345 87.3078C34.7043 85.7456 34.643 84.0609 35.4935 82.7514Z" fill="#263238"/>
<path d="M20.3838 101.689C21.5715 100.625 23.058 99.7059 23.5254 98.1896C24.215 95.9765 22.4374 93.3805 23.5867 91.3665C24.6288 89.5286 27.7014 89.6281 28.6745 87.7519C29.4408 86.2816 28.5596 84.9875 28.8431 83.7009C29.1266 82.4144 30.9656 81.2887 32.2682 81.4419L42.4898 96.2751C43.4399 101.253 44.3977 103.933 43.3327 106.812C42.6282 108.363 42.0963 109.986 41.7466 111.652C41.5167 113.337 41.9534 115.244 43.325 116.247C37.1951 116.729 31.4636 113.528 26.1613 110.427L20.5754 107.149C19.9639 106.857 19.4367 106.414 19.0429 105.863C18.2077 104.5 19.2038 102.746 20.3838 101.689Z" fill="#263238"/>
<path d="M26.0308 108.918C26.2446 108.987 26.4658 109.031 26.6897 109.048C27.3289 109.109 27.9739 109.063 28.5977 108.911C29.5934 108.672 30.5098 108.179 31.2565 107.479C32.2429 106.53 32.8617 105.263 33.0035 103.902C33.0956 103.113 33.0279 102.314 32.8043 101.551C32.5296 100.739 32.1482 99.9664 31.6703 99.254C31.1635 98.5309 30.7683 97.7358 30.4979 96.8954C30.3543 96.4657 30.3094 96.0092 30.3664 95.5598C30.4235 95.1104 30.581 94.6796 30.8274 94.2994C31.3791 93.5336 32.4135 93.3728 33.379 92.9899C33.9004 92.8026 34.354 92.464 34.6816 92.0174C34.9832 91.5398 35.1304 90.9809 35.103 90.4169C34.9705 89.3356 34.7371 88.269 34.4057 87.2312C34.2881 86.7274 34.2881 86.2034 34.4057 85.6996C34.5407 85.1916 34.8533 84.7488 35.2869 84.4514C36.2193 83.9142 37.2757 83.6291 38.3519 83.6243C39.4657 83.5875 40.5519 83.2687 41.5088 82.6977C42.4398 82.1305 43.1957 81.3168 43.6926 80.3468C44.1004 79.4154 44.359 78.4256 44.4588 77.4138C44.5651 76.4772 44.7653 75.5536 45.0565 74.657C45.3792 73.8416 45.87 73.1032 46.497 72.4898C47.6535 71.3931 49.1465 70.7185 50.7343 70.5753C52.0582 70.4622 53.387 70.7278 54.5655 71.3411C55.4519 71.7944 56.2509 72.4011 56.9255 73.1331C57.4892 73.7719 57.9777 74.4734 58.3813 75.2237C58.3813 75.2237 58.3813 75.1701 58.3277 75.0628C58.2648 74.9108 58.1932 74.7625 58.1132 74.6187C57.8206 74.0628 57.4631 73.5435 57.0481 73.0718C56.374 72.3104 55.5697 71.6751 54.6728 71.1956C53.4819 70.5414 52.1286 70.2412 50.7726 70.3303C49.1086 70.4521 47.5369 71.1415 46.3208 72.283C45.6507 72.9299 45.128 73.7135 44.7883 74.5804C44.4845 75.4936 44.274 76.4352 44.16 77.3908C44.0536 78.3694 43.7951 79.3254 43.3937 80.2242C42.9265 81.1281 42.2219 81.8879 41.3555 82.4221C40.4426 82.9573 39.4098 83.2548 38.3519 83.2874C37.1989 83.2849 36.0663 83.5917 35.0724 84.1757C34.5751 84.5138 34.2161 85.0193 34.0609 85.6001C33.9267 86.1666 33.9267 86.7566 34.0609 87.3231C34.3854 88.3414 34.6163 89.3872 34.7506 90.4475C34.7821 90.9399 34.6589 91.4299 34.3981 91.8489C34.1021 92.2374 33.7004 92.5325 33.2411 92.6989C32.789 92.8903 32.2986 93.0205 31.8235 93.2196C31.3288 93.4063 30.8926 93.7207 30.5592 94.1309C30.2886 94.5538 30.1152 95.0314 30.0516 95.5293C29.988 96.0272 30.0358 96.533 30.1914 97.0103C30.4784 97.8777 30.8914 98.6982 31.4174 99.4455C31.8841 100.123 32.2578 100.859 32.5285 101.636C32.7456 102.36 32.8185 103.119 32.743 103.872C32.6174 105.181 32.0373 106.406 31.1033 107.333C30.3883 108.025 29.5068 108.521 28.544 108.773C27.7241 108.987 26.8699 109.036 26.0308 108.918Z" fill="#455A64"/>
<path d="M17.8612 98.3735C17.7609 98.5238 17.6931 98.6933 17.6619 98.8713C17.56 99.3965 17.6526 99.9408 17.9225 100.403C18.1094 100.733 18.372 101.014 18.6887 101.222C19.0834 101.461 19.5377 101.583 19.999 101.574C20.5595 101.562 21.106 101.397 21.5788 101.095C22.0517 100.794 22.4328 100.369 22.6808 99.8668C22.9723 99.29 23.122 98.6521 23.1176 98.0059C23.099 97.3115 22.9536 96.6264 22.6885 95.9843C22.2057 94.6594 21.3169 93.3653 21.3016 91.8184C21.2726 91.4375 21.3208 91.0547 21.4432 90.6929C21.5657 90.331 21.7598 89.9976 22.0142 89.7125C22.6354 89.1998 23.4337 88.9522 24.2363 89.0233C25.1293 89.0885 26.0269 88.9951 26.8874 88.7476C27.3383 88.5641 27.7193 88.2424 27.9755 87.8286C28.2221 87.4174 28.3764 86.9575 28.4276 86.4808C28.4717 85.5663 28.397 84.65 28.2054 83.7547C28.0682 82.9143 28.1179 82.0542 28.351 81.2352C28.7853 79.6719 29.8026 78.3345 31.1937 77.4982C32.5142 76.826 33.98 76.4893 35.4617 76.518C36.7784 76.521 38.0872 76.3142 39.3388 75.9053C40.3564 75.5321 41.2891 74.9593 42.0819 74.2206C42.6891 73.66 43.206 73.0091 43.6144 72.2908C43.9738 71.6951 44.2206 71.0383 44.3423 70.3534C44.1142 71 43.8296 71.6252 43.4918 72.2219C42.5265 73.832 41.0395 75.0641 39.2775 75.7139C38.0364 76.0934 36.7442 76.2793 35.4463 76.2653C33.9216 76.2223 32.4101 76.5592 31.0481 77.2455C29.5853 78.1028 28.5054 79.4861 28.0291 81.1127C27.7839 81.9764 27.7291 82.883 27.8682 83.77C28.0476 84.636 28.1222 85.5205 28.0904 86.4043C28.0723 86.8245 27.9391 87.2316 27.7054 87.5814C27.4716 87.9311 27.1463 88.21 26.7649 88.3877C25.9461 88.6199 25.0926 88.7055 24.2439 88.6404C23.3552 88.5627 22.4716 88.8378 21.7843 89.4062C21.5036 89.7255 21.291 90.0987 21.1592 90.5029C21.0275 90.907 20.9795 91.3338 21.0181 91.7571C21.0519 92.5522 21.242 93.3328 21.5774 94.0545C21.8763 94.7437 22.2057 95.3869 22.4586 96.0302C22.7157 96.64 22.8611 97.2911 22.8877 97.9523C22.8982 98.5562 22.7669 99.1542 22.5046 99.6983C22.2822 100.168 21.9354 100.567 21.5017 100.854C21.0681 101.14 20.5642 101.302 20.0449 101.322C19.619 101.337 19.1972 101.234 18.8266 101.023C18.5094 100.838 18.2455 100.574 18.0604 100.257C17.7918 99.8312 17.6807 99.3247 17.7462 98.8253C17.7845 98.5496 17.8842 98.3812 17.8612 98.3735Z" fill="#263238"/>
<path d="M82.4015 102.026C82.5837 102.544 82.5837 103.109 82.4015 103.627C82.3003 103.924 82.1335 104.195 81.9133 104.419C81.6931 104.643 81.4252 104.815 81.1295 104.921C80.7353 105.037 80.3165 105.041 79.92 104.933C79.5235 104.825 79.1649 104.609 78.8844 104.308C78.5626 103.955 78.3755 103.499 78.3557 103.022C78.341 102.501 78.4215 101.982 78.5933 101.49C78.9151 100.456 79.5817 99.3307 79.4821 97.9753C79.4337 97.288 79.2424 96.6185 78.9205 96.0093C78.5986 95.4001 78.1531 94.8647 77.6125 94.4373C77.0463 93.9844 76.3987 93.6439 75.7046 93.4341C74.9954 93.2377 74.2642 93.1322 73.5284 93.1202C72.8154 93.1143 72.1047 93.0399 71.406 92.8981C70.7537 92.7637 70.1701 92.4029 69.7585 91.8796C69.3941 91.3426 69.1895 90.7133 69.1685 90.0647C69.1344 89.4327 69.186 88.799 69.3218 88.1809C69.6581 87.0147 69.8435 85.8103 69.8735 84.597C69.8118 83.5198 69.4303 82.4853 68.7778 81.6257C68.226 80.9436 67.55 80.372 66.7855 79.941C66.227 79.6106 65.6919 79.2422 65.1841 78.8383C64.7677 78.4819 64.4287 78.0441 64.188 77.5518C64.188 77.5518 64.188 77.5518 64.188 77.659C64.2182 77.7626 64.2593 77.8627 64.3106 77.9576C64.5017 78.3298 64.7617 78.6625 65.0768 78.9378C65.5735 79.3699 66.1039 79.7617 66.6629 80.1095C67.394 80.5441 68.0382 81.1101 68.5632 81.7789C69.1706 82.6029 69.5175 83.5897 69.5593 84.6123C69.5138 85.7982 69.3208 86.9737 68.9846 88.1119C68.8364 88.7595 68.7771 89.4241 68.8084 90.0877C68.837 90.8023 69.0652 91.4947 69.4674 92.0864C69.9242 92.6771 70.5758 93.0868 71.3063 93.2427C72.0252 93.3902 72.7564 93.4697 73.4901 93.4801C74.1993 93.4894 74.9046 93.5871 75.5896 93.7711C76.2398 93.9731 76.8475 94.2923 77.3826 94.713C77.8862 95.1098 78.3022 95.6066 78.6041 96.172C78.9061 96.7374 79.0877 97.3592 79.1373 97.9982C79.2446 99.2311 78.6316 100.296 78.2944 101.406C78.1174 101.939 78.0394 102.499 78.0646 103.06C78.0979 103.595 78.3175 104.102 78.6852 104.492C79 104.822 79.4011 105.056 79.8429 105.168C80.2846 105.281 80.7491 105.267 81.1832 105.128C81.5003 105.005 81.7851 104.811 82.0162 104.562C82.2472 104.312 82.4183 104.013 82.5164 103.688C82.6553 103.289 82.6766 102.858 82.5777 102.447C82.5444 102.298 82.4847 102.155 82.4015 102.026Z" fill="#263238"/>
<path d="M75.0777 162.01V153.541C76.0278 148.785 75.5757 143.149 73.3613 138.807C71.7548 136.008 69.9789 133.31 68.0436 130.728L59.615 119.785C54.9716 123.162 47.7 120.719 41.4628 118.452C41.4628 118.452 35.3329 121.86 32.4365 125.061C29.4252 128.431 39.7234 170.587 39.7234 170.587C35.057 179.914 29.0344 188.2 28.1226 196.7L76.8553 198.577L74.7865 176.246L75.0777 162.01Z" fill="#455A64"/>
<path d="M74.4024 176.484C74.354 176.167 74.3411 175.846 74.3641 175.526C74.3641 174.829 74.3641 173.995 74.3641 172.93C74.4024 170.633 74.4483 167.669 74.5019 164.369C74.5555 161.068 74.6551 157.997 74.7623 155.807C74.8159 154.712 74.8695 153.824 74.9155 153.211C74.9208 152.894 74.9619 152.578 75.038 152.269C75.069 152.585 75.069 152.903 75.038 153.219C75.038 153.916 75.038 154.751 75.038 155.815C74.9997 158.112 74.9461 161.076 74.8925 164.376C74.8389 167.677 74.747 170.748 74.6398 172.938C74.5862 174.033 74.5326 174.921 74.4789 175.534C74.4909 175.852 74.4652 176.171 74.4024 176.484Z" fill="#263238"/>
<path d="M96.6624 184.188C96.6624 184.188 101.413 184.448 104.325 186.286C107.236 188.124 111.987 190.988 113.941 194.533C114.838 196.164 112.286 196.509 111.022 195.567C109.757 194.625 107.834 192.833 106.876 192.619L105.919 192.397C106.793 194.375 107.767 196.307 108.838 198.186C109.826 199.718 110.685 202.26 107.712 202.375C107.712 202.375 105.712 204.979 103.689 203.049C103.689 203.049 102.11 205.415 99.5664 202.138C99.5664 202.138 98.0799 204.014 97.4669 203.294C96.8539 202.574 94.8234 201.441 94.2334 199.097C93.3481 196.37 92.3252 193.689 91.1685 191.064L96.6624 184.188Z" fill="#FFBF9D"/>
<path d="M203.023 118.376C203.552 118.376 225.306 116.079 225.306 116.079C225.306 116.079 227.152 107.241 227.053 104.944C226.953 102.647 225.405 87.4459 225.405 87.4459L233.55 83.6169C233.55 83.6169 244.439 120.313 242.063 123.361C239.688 126.409 235.221 129.143 234.838 129.158C234.455 129.174 213.758 138.348 199.361 133.577C184.963 128.806 203.023 118.376 203.023 118.376Z" fill="#FFBF9D"/>
<path d="M183.96 138.187C187.163 141.365 192.68 144.007 201.89 141.709C220.096 137.161 233.743 133.286 239.168 130.376C244.593 127.466 242.478 114.463 242.938 113.873C244.309 112.096 242.8 108.283 240.846 107.685C235.275 106.001 225.583 106.667 225.092 107.172C222.234 110.174 224.839 113.819 224.839 113.819L200.833 116.967C197.882 116.828 194.924 117.016 192.014 117.526" fill="#455A64"/>
<path d="M192.013 117.526L192.587 117.403C192.97 117.334 193.537 117.235 194.288 117.143C196.461 116.87 198.652 116.777 200.84 116.867L224.838 113.651L224.723 113.919C223.935 112.76 223.547 111.375 223.62 109.975C223.685 109.251 223.922 108.553 224.309 107.938C224.504 107.629 224.725 107.337 224.968 107.065C225.064 106.994 225.17 106.937 225.283 106.897L225.558 106.828C225.742 106.782 225.919 106.766 226.095 106.728C229.068 106.386 232.067 106.324 235.052 106.544C236.619 106.64 238.177 106.855 239.711 107.188C240.094 107.272 240.477 107.387 240.876 107.486C241.284 107.617 241.658 107.836 241.971 108.13C242.58 108.708 243.045 109.422 243.327 110.213C243.631 111.005 243.739 111.859 243.642 112.701C243.572 113.14 243.407 113.558 243.159 113.927C243.09 114.003 243.098 114.21 243.09 114.409V115.022C243.144 116.668 243.22 118.345 243.174 120.03C243.186 122.422 242.795 124.798 242.017 127.06C241.618 128.193 240.931 129.203 240.025 129.993C239.556 130.359 239.041 130.663 238.493 130.896C237.987 131.164 237.45 131.371 236.96 131.616C234.861 132.512 232.753 133.247 230.677 133.914C228.6 134.58 226.562 135.223 224.547 135.813C216.532 138.11 209.222 139.971 203.138 141.495C201.685 141.879 200.211 142.183 198.725 142.406C197.392 142.592 196.047 142.663 194.702 142.621C192.542 142.574 190.411 142.112 188.426 141.257C187.182 140.709 186.021 139.987 184.978 139.113C184.611 138.817 184.268 138.491 183.952 138.141C183.952 138.141 184.304 138.478 185.032 139.052C186.088 139.894 187.253 140.589 188.495 141.12C190.468 141.933 192.576 142.367 194.71 142.398C196.04 142.43 197.37 142.348 198.686 142.153C200.163 141.921 201.626 141.609 203.069 141.219C209.199 139.688 216.448 137.804 224.44 135.46C226.44 134.871 228.478 134.243 230.57 133.554C232.661 132.864 234.738 132.137 236.814 131.256C237.32 131.019 237.849 130.812 238.347 130.544C238.858 130.319 239.34 130.031 239.78 129.686C240.635 128.944 241.282 127.991 241.657 126.922C242.412 124.69 242.788 122.348 242.768 119.992C242.814 118.315 242.768 116.653 242.684 114.999V114.371C242.684 114.264 242.684 114.156 242.684 114.041C242.678 113.98 242.678 113.919 242.684 113.858C242.701 113.81 242.722 113.764 242.745 113.72L242.783 113.659C242.999 113.345 243.14 112.986 243.197 112.609C243.287 111.831 243.184 111.042 242.898 110.312C242.641 109.581 242.216 108.92 241.657 108.382C241.386 108.128 241.061 107.937 240.707 107.823C240.324 107.724 239.941 107.617 239.565 107.525C238.051 107.197 236.514 106.984 234.968 106.889C232.014 106.663 229.046 106.72 226.102 107.057C225.926 107.057 225.75 107.103 225.581 107.149L225.336 107.203C225.283 107.224 225.232 107.249 225.183 107.28C224.952 107.531 224.744 107.803 224.562 108.091C224.198 108.655 223.977 109.299 223.919 109.967C223.852 111.284 224.212 112.586 224.945 113.682L225.099 113.919H224.831L200.817 116.982C198.642 116.872 196.461 116.933 194.296 117.166C193.53 117.242 192.97 117.327 192.587 117.38C192.204 117.434 192.013 117.526 192.013 117.526Z" fill="#263238"/>
<path d="M127.014 142.466L117.236 124.908L302.184 22.0283C304.314 20.843 306.829 20.5523 309.174 21.2199C311.52 21.8876 313.504 23.4591 314.69 25.5887L315.528 27.0942C316.714 29.2237 317.005 31.7369 316.337 34.0809C315.669 36.4248 314.096 38.4075 311.966 39.5928L127.018 142.473L127.014 142.466Z" fill="#FF5733"/>
<path d="M282.102 49.61L259.456 8.9474C259.347 8.75057 259.277 8.53409 259.251 8.31032C259.225 8.08655 259.243 7.85986 259.305 7.64322C259.367 7.42657 259.471 7.22421 259.611 7.04767C259.751 6.87113 259.924 6.72389 260.121 6.61433L270.512 0.834236C270.709 0.724682 270.926 0.654962 271.15 0.62907C271.373 0.603178 271.6 0.621611 271.817 0.683326C272.034 0.74504 272.236 0.848825 272.413 0.98875C272.59 1.12867 272.737 1.30199 272.847 1.49882L295.492 42.1614L282.102 49.61Z" fill="#FF5733"/>
<path d="M237.552 30.6754L254.057 60.3108C254.724 61.5081 256.235 61.9385 257.433 61.2721L266.485 56.2369C267.683 55.5704 268.114 54.0595 267.447 52.8622L250.943 23.2268C250.276 22.0295 248.764 21.5991 247.566 22.2655L238.514 27.3007C237.316 27.9672 236.885 29.478 237.552 30.6754Z" fill="#FF5733"/>
<path d="M252.124 28.9447L262.342 47.292L283.138 35.7244L272.919 17.377L252.124 28.9447Z" fill="#FF5733"/>
<path d="M299.478 23.5715C299.531 23.6634 263.234 43.9568 218.425 68.8908C173.615 93.8247 137.204 113.965 137.204 113.865C137.204 113.766 173.439 93.4801 218.264 68.5385C263.089 43.5968 299.424 23.472 299.478 23.5715Z" fill="#263238"/>
<path d="M52.1121 176.384C65.7512 200.889 94.5081 210.845 116.346 198.707C138.184 186.569 144.85 156.857 131.211 132.382C117.572 107.908 88.8226 97.9218 66.9771 110.059C45.1317 122.197 38.4808 151.91 52.1121 176.384ZM119.38 138.968C128.935 156.122 124.269 176.928 108.959 185.436C93.6499 193.944 73.5055 186.967 63.9505 169.798C54.3955 152.63 59.0619 131.838 74.3637 123.323C89.6655 114.807 109.825 121.814 119.38 138.968Z" fill="#FF5733"/>
<path d="M148.37 107.378L158.461 125.498C159.803 127.908 162.846 128.774 165.256 127.433L166.073 126.978C168.484 125.637 169.351 122.597 168.009 120.187L157.917 102.068C156.576 99.6582 153.533 98.7921 151.123 100.133L150.306 100.588C147.895 101.929 147.028 104.969 148.37 107.378Z" fill="#FF5733"/>
<path d="M167.75 96.5968L177.841 114.717C179.183 117.126 182.225 117.992 184.636 116.651L185.453 116.197C187.864 114.856 188.731 111.815 187.389 109.406L177.297 91.286C175.955 88.8766 172.913 88.0105 170.502 89.3515L169.686 89.8059C167.275 91.147 166.408 94.1874 167.75 96.5968Z" fill="#FF5733"/>
<path d="M157.7 101.789C157.8 101.735 160.137 105.848 162.933 110.978C165.73 116.109 167.914 120.29 167.814 120.344C167.715 120.397 165.378 116.293 162.581 111.154C159.784 106.016 157.6 101.789 157.7 101.789Z" fill="#263238"/>
<path d="M148.804 108.107C148.904 108.053 151.187 111.982 153.915 116.867C156.643 121.753 158.765 125.773 158.673 125.827C158.581 125.881 156.29 121.952 153.593 117.105C150.896 112.257 148.712 108.16 148.804 108.107Z" fill="#263238"/>
<path d="M177.201 91.1214C177.3 91.0678 179.683 95.1571 182.526 100.257C185.369 105.357 187.591 109.546 187.491 109.6C187.391 109.653 185.016 105.556 182.173 100.456C179.331 95.3562 177.109 91.175 177.201 91.1214Z" fill="#263238"/>
<path d="M167.845 96.7653C167.937 96.7117 170.274 100.778 173.047 105.848C175.821 110.917 178.005 115.037 177.905 115.121C177.806 115.205 175.484 111.108 172.703 106.039C169.921 100.969 167.745 96.8189 167.845 96.7653Z" fill="#263238"/>
<path d="M223.421 69.1436C224.313 69.2486 225.212 69.018 225.944 68.4966C226.675 67.9753 227.186 67.2006 227.377 66.3233C227.568 65.4461 227.426 64.5291 226.978 63.7509C226.53 62.9728 225.808 62.3891 224.953 62.1137C225.506 61.5481 225.866 60.8231 225.984 60.0414C226.102 59.2596 225.97 58.4607 225.608 57.7577C225.246 57.0547 224.672 56.4833 223.968 56.1244C223.263 55.7654 222.463 55.6371 221.681 55.7577C221.649 54.9801 221.416 54.2241 221.005 53.5632C220.594 52.9022 220.019 52.3588 219.336 51.9857C218.652 51.6126 217.884 51.4226 217.105 51.4341C216.327 51.4456 215.564 51.6582 214.892 52.0513C214.016 51.3352 212.925 50.9327 211.794 50.9077C210.662 50.8828 209.555 51.2368 208.648 51.9134C207.885 51.768 207.097 51.872 206.398 52.2098C205.7 52.5477 205.129 53.1015 204.77 53.7891C204.412 54.4767 204.285 55.2616 204.407 56.0272C204.53 56.7929 204.897 57.4986 205.452 58.0397" fill="#263238"/>
<path d="M207.874 55.4818H208.64C212.503 55.4851 216.224 56.9422 219.061 59.5633C221.898 62.1843 223.643 65.7769 223.949 69.6259C224.524 77.0464 225.06 85.2479 224.999 89.23C224.854 97.5005 216.624 98.7258 216.624 98.7258L217.291 108.635L197.269 107.984L195.606 72.0688C194.901 63.4996 199.292 55.9566 207.874 55.4818Z" fill="#FFBF9D"/>
<path d="M216.694 98.7257C212.864 98.7152 209.117 97.607 205.898 95.5323C205.898 95.5323 208.549 101.774 216.779 101.054L216.694 98.7257Z" fill="#FF9A6C"/>
<path d="M219.42 77.399C219.422 77.706 219.304 78.0015 219.09 78.2221C218.877 78.4427 218.586 78.5707 218.279 78.5788C218.129 78.5891 217.979 78.5698 217.837 78.5217C217.695 78.4737 217.564 78.398 217.452 78.299C217.339 78.1999 217.247 78.0795 217.182 77.9448C217.116 77.81 217.078 77.6636 217.069 77.5139C217.069 77.2068 217.187 76.9116 217.4 76.6902C217.613 76.4688 217.903 76.3384 218.21 76.3265C218.36 76.3162 218.511 76.3358 218.653 76.3843C218.796 76.4328 218.927 76.5092 219.04 76.609C219.152 76.7089 219.244 76.8301 219.309 76.9658C219.374 77.1014 219.412 77.2487 219.42 77.399Z" fill="#263238"/>
<path d="M222.163 73.6772C222.018 73.8304 221.122 73.1716 219.865 73.1716C218.609 73.1716 217.667 73.7998 217.529 73.6466C217.391 73.4934 217.613 73.3018 218.019 73.0031C218.568 72.6255 219.222 72.4274 219.888 72.4362C220.547 72.4334 221.189 72.6429 221.719 73.0337C222.102 73.3325 222.232 73.6159 222.163 73.6772Z" fill="#263238"/>
<path d="M207.996 76.8475C208.002 77.1591 207.885 77.4605 207.67 77.6859C207.454 77.9112 207.159 78.0422 206.847 78.0502C206.698 78.0606 206.548 78.0412 206.406 77.9932C206.264 77.9452 206.133 77.8695 206.02 77.7704C205.908 77.6714 205.816 77.551 205.75 77.4163C205.684 77.2815 205.646 77.1351 205.637 76.9854C205.635 76.6777 205.753 76.3814 205.966 76.1596C206.179 75.9378 206.471 75.808 206.778 75.798C206.927 75.7865 207.077 75.8046 207.219 75.8512C207.361 75.8978 207.492 75.972 207.605 76.0695C207.718 76.1671 207.811 76.286 207.878 76.4195C207.945 76.553 207.985 76.6985 207.996 76.8475Z" fill="#263238"/>
<path d="M209.704 73.8764C209.559 74.0296 208.663 73.3708 207.406 73.3708C206.15 73.3708 205.208 73.999 205.07 73.8458C204.932 73.6926 205.154 73.5011 205.56 73.2023C206.11 72.8247 206.763 72.6266 207.429 72.6354C208.088 72.6326 208.73 72.8422 209.26 73.2329C209.643 73.5317 209.773 73.8075 209.704 73.8764Z" fill="#263238"/>
<path d="M214.271 83.2875C214.94 83.0774 215.632 82.9539 216.332 82.9199C216.654 82.9199 216.96 82.828 217.021 82.6059C217.048 82.2725 216.974 81.9387 216.807 81.6487L215.857 79.1829C214.539 75.6679 213.559 72.7809 213.727 72.7349C213.896 72.689 215.053 75.4841 216.37 78.9914C216.684 79.8567 216.991 80.6838 217.282 81.4726C217.481 81.8651 217.537 82.3142 217.443 82.7438C217.395 82.8572 217.321 82.9582 217.229 83.0391C217.136 83.1201 217.025 83.1788 216.906 83.2109C216.73 83.2633 216.547 83.2891 216.363 83.2875C215.668 83.3743 214.966 83.3743 214.271 83.2875Z" fill="#263238"/>
<path d="M210.816 69.0061C210.647 69.3279 209.567 69.0061 208.226 68.9295C206.886 68.8529 205.767 69.1057 205.645 68.7686C205.591 68.6078 205.829 68.3243 206.311 68.0639C206.934 67.7563 207.625 67.6139 208.318 67.6502C209.006 67.6746 209.674 67.8808 210.256 68.2477C210.693 68.5465 210.892 68.8606 210.816 69.0061Z" fill="#263238"/>
<path d="M222.239 68.4623C221.971 68.7458 220.922 68.4623 219.665 68.4623C218.409 68.4623 217.367 68.6538 217.099 68.3474C216.992 68.2019 217.16 67.9108 217.628 67.6426C218.271 67.3052 218.993 67.144 219.719 67.1753C220.441 67.1851 221.148 67.3888 221.764 67.7652C222.209 68.0257 222.354 68.3168 222.239 68.4623Z" fill="#263238"/>
<path d="M223.168 65.8735C223.168 65.8735 221.007 60.7044 218.517 59.4945C215.505 58.0242 214.203 61.3247 211.329 60.513C208.456 59.7013 205.583 58.2999 202.64 60.513C199.422 62.9329 200.924 64.6406 200.709 68.301C199.867 83.1267 197.139 87.3079 196.395 80.3239C196.311 79.5581 194.189 78.9455 193.882 75.7292C193.484 71.5403 193.338 66.4478 194.288 63.4766C195.055 60.9725 196.518 59.2418 199.085 57.3503C203.146 54.3484 208.709 54.2872 212.486 54.693C216.264 55.0989 223.528 59.4103 223.168 65.8735Z" fill="#263238"/>
<path d="M196.916 80.0941C196.908 79.7916 196.838 79.4939 196.711 79.2192C196.584 78.9444 196.403 78.6982 196.178 78.4956C195.953 78.293 195.689 78.1381 195.402 78.0404C195.116 77.9426 194.812 77.904 194.51 77.927C192.978 78.0725 191.254 78.9378 191.346 82.1158C191.507 87.752 197.139 86.4272 197.146 86.2587C197.154 86.0902 197.008 82.4528 196.916 80.0941Z" fill="#FFBF9D"/>
<path d="M195.851 84.1759C195.851 84.1759 195.759 84.2525 195.59 84.3291C195.361 84.4341 195.101 84.4478 194.863 84.3674C194.491 84.1474 194.184 83.8318 193.976 83.4533C193.767 83.0749 193.663 82.6475 193.676 82.2155C193.646 81.7346 193.725 81.2532 193.905 80.8065C193.954 80.6299 194.045 80.4679 194.171 80.3344C194.296 80.201 194.452 80.1002 194.625 80.0407C194.738 80.0065 194.858 80.0131 194.966 80.0594C195.074 80.1056 195.162 80.1885 195.215 80.2934C195.292 80.4466 195.261 80.5614 195.292 80.5691C195.322 80.5767 195.406 80.4695 195.353 80.2398C195.323 80.1001 195.24 79.977 195.123 79.8952C195.046 79.8383 194.958 79.7975 194.864 79.7752C194.771 79.7528 194.674 79.7494 194.579 79.765C194.349 79.8169 194.135 79.9273 193.96 80.0856C193.784 80.2438 193.652 80.4446 193.576 80.6686C193.349 81.162 193.246 81.7038 193.278 82.2462C193.346 83.3795 193.959 84.4286 194.809 84.6431C194.961 84.683 195.12 84.688 195.274 84.6574C195.428 84.6269 195.572 84.5618 195.697 84.4669C195.851 84.3138 195.874 84.1759 195.851 84.1759Z" fill="#FF9A6C"/>
<path d="M197.062 69.1741C197.752 69.7361 198.571 70.1177 199.445 70.2845C199.884 70.3532 200.333 70.2608 200.709 70.0243C201.085 69.7878 201.363 69.4232 201.491 68.998C201.56 68.6074 201.491 68.1479 201.721 67.8493C201.951 67.5506 202.602 67.6042 203.069 67.6578C204.709 67.834 206.632 66.0267 207.054 64.4339C207.267 64.7393 207.588 64.9522 207.953 65.029C208.317 65.1058 208.697 65.0409 209.015 64.8474C209.537 64.5291 209.998 64.1223 210.379 63.6451C210.601 63.3413 210.894 63.0956 211.231 62.929C211.569 62.7623 211.941 62.6796 212.318 62.6879C212.715 62.8249 213.126 62.9148 213.544 62.9559C214.31 62.8947 214.647 62.0293 214.762 61.2942C214.877 60.559 214.969 59.709 215.597 59.3108C216.242 59.0583 216.955 59.0393 217.613 59.2572C218.294 59.3644 219.145 59.2036 219.352 58.5373C219.38 58.3593 219.372 58.1774 219.329 58.0025C219.285 57.8275 219.207 57.6631 219.099 57.5188C218.643 56.8358 217.97 56.3265 217.188 56.0736C216.407 55.8206 215.563 55.8388 214.793 56.1251C214.522 55.1826 213.976 54.3422 213.225 53.7108C212.474 53.0794 211.552 52.6856 210.577 52.5797C209.601 52.4737 208.617 52.6604 207.748 53.1159C206.879 53.5713 206.165 54.275 205.698 55.1372C205.101 54.591 204.381 54.1971 203.599 53.9891C202.817 53.7811 201.996 53.7652 201.206 53.9427C200.417 54.1202 199.682 54.4859 199.064 55.0086C198.447 55.5313 197.965 56.1955 197.66 56.9445C196.97 56.7606 196.241 56.7835 195.564 57.0104C194.887 57.2373 194.292 57.6581 193.853 58.2204C193.414 58.7828 193.149 59.4619 193.093 60.1732C193.037 60.8844 193.192 61.5965 193.537 62.2208C193.012 62.4799 192.562 62.8681 192.228 63.349C191.894 63.8299 191.688 64.3877 191.629 64.9699C191.629 66.1339 192.74 67.2673 193.867 66.9916C193.633 67.4503 193.584 67.9809 193.73 68.4746C193.875 68.9683 194.205 69.3875 194.65 69.6462C195.095 69.9049 195.622 69.9835 196.124 69.8658C196.625 69.7481 197.062 69.443 197.346 69.0133" fill="#263238"/>
<path d="M215.206 57.7792C215.206 57.7792 215.206 57.7792 215.206 57.8864C215.206 57.9936 215.206 58.0549 215.168 58.185C215.088 58.5672 214.949 58.9343 214.754 59.2725C214.443 59.8024 214.016 60.2553 213.505 60.5973C212.829 61.0576 212.023 61.286 211.206 61.2482L211.298 61.1257C211.464 61.6313 211.422 62.1819 211.183 62.6572C210.93 63.1611 210.605 63.6254 210.218 64.0356C210.03 64.2748 209.816 64.4931 209.582 64.6866C209.165 64.9606 208.664 65.0779 208.169 65.0176C207.674 64.9573 207.216 64.7233 206.877 64.3573L207.084 64.296C207.005 64.8812 206.803 65.4432 206.493 65.9458C206.183 66.4484 205.771 66.8803 205.283 67.2137C204.747 67.6117 204.096 67.8242 203.429 67.8186C202.803 67.7845 202.187 67.6474 201.605 67.4128L201.758 67.3438C201.463 68.0258 201.002 68.6233 200.417 69.0822C200.151 69.3107 199.836 69.4767 199.496 69.5681C199.157 69.6595 198.802 69.674 198.456 69.6106C197.863 69.4817 197.321 69.1826 196.897 68.7499C196.472 68.3173 196.183 67.77 196.065 67.1754L196.195 67.2366C195.599 67.5452 194.916 67.6424 194.257 67.5123C193.766 67.4188 193.304 67.2116 192.908 66.9073C192.662 66.7142 192.45 66.4812 192.28 66.2181C192.218 66.1268 192.171 66.0259 192.142 65.9195C192.356 66.2716 192.634 66.5807 192.962 66.8308C193.352 67.113 193.804 67.2993 194.28 67.3745C194.906 67.4929 195.553 67.39 196.111 67.0835L196.218 67.0222V67.1447C196.335 67.6982 196.609 68.2058 197.009 68.6057C197.409 69.0055 197.917 69.2802 198.471 69.3961C198.787 69.4513 199.111 69.4352 199.42 69.3491C199.729 69.263 200.015 69.109 200.257 68.8984C200.806 68.4622 201.237 67.8964 201.513 67.2519L201.559 67.1524H201.666C202.221 67.3753 202.809 67.5047 203.406 67.5353C204.024 67.5403 204.626 67.344 205.122 66.9763C205.581 66.6613 205.97 66.2541 206.263 65.7808C206.555 65.3075 206.746 64.7783 206.823 64.2271V63.9591L206.999 64.1658C207.199 64.3858 207.449 64.5538 207.728 64.6553C208.007 64.7567 208.307 64.7885 208.601 64.7478C208.875 64.7113 209.138 64.6117 209.367 64.4568C209.589 64.2786 209.789 64.0756 209.965 63.8519C210.344 63.4611 210.664 63.0175 210.915 62.5347C211.028 62.3197 211.097 62.0844 211.118 61.8425C211.139 61.6006 211.112 61.3569 211.038 61.1257L210.992 60.9878H211.137C211.92 61.0364 212.697 60.8294 213.352 60.3982C213.854 60.0746 214.278 59.6429 214.593 59.1346C214.876 58.7226 215.083 58.2636 215.206 57.7792Z" fill="#455A64"/>
<path d="M214.256 87.4919C214.21 87.2851 212.838 87.6221 211.567 86.6878C210.295 85.7535 210.088 84.2526 209.897 84.2909C209.705 84.3292 209.705 84.6891 209.843 85.3094C210.032 86.1187 210.501 86.835 211.168 87.3311C211.805 87.8056 212.602 88.0143 213.39 87.9131C213.98 87.8212 214.286 87.5838 214.256 87.4919Z" fill="#263238"/>
<path d="M256.752 301.751L262.192 320.275C262.192 320.275 282.881 320.965 284.206 324.296L248.607 336.119L238.937 307.594L256.752 301.751Z" fill="#455A64"/>
<path d="M250.684 322.397C250.377 322.615 250.161 322.939 250.078 323.306C249.994 323.673 250.049 324.058 250.232 324.388C250.438 324.703 250.757 324.927 251.123 325.014C251.489 325.1 251.874 325.044 252.2 324.855C252.525 324.623 252.753 324.278 252.84 323.888C252.926 323.498 252.864 323.089 252.667 322.741C252.418 322.434 252.059 322.236 251.666 322.187C251.274 322.139 250.878 322.244 250.561 322.481" fill="#E0E0E0"/>
<path d="M282.2 322.955C282.2 322.955 284.016 323.116 284.207 324.296L248.608 336.119L247.75 333.202L282.169 322.94" fill="#263238"/>
<path d="M262.704 319.9C262.757 320.076 261.938 320.444 261.249 321.286C260.56 322.128 260.368 323.009 260.184 322.994C260 322.978 259.932 321.891 260.759 320.888C261.586 319.885 262.688 319.731 262.704 319.9Z" fill="white"/>
<path d="M266.949 320.199C267.049 320.359 266.398 320.903 266.046 321.83C265.693 322.756 265.793 323.599 265.617 323.645C265.441 323.691 265.004 322.749 265.456 321.6C265.908 320.451 266.896 320.038 266.949 320.199Z" fill="white"/>
<path d="M270.56 323.959C270.414 324.051 269.886 323.262 270.016 322.167C270.146 321.072 270.828 320.413 270.95 320.536C271.073 320.658 270.736 321.301 270.644 322.236C270.552 323.17 270.728 323.867 270.56 323.959Z" fill="white"/>
<path d="M260.995 315.818C260.995 316.002 260.099 316.025 259.142 316.416C258.184 316.807 257.518 317.374 257.38 317.259C257.242 317.144 257.771 316.278 258.912 315.826C260.053 315.374 261.041 315.65 260.995 315.818Z" fill="white"/>
<path d="M173.738 301.912L165.992 319.601C165.992 319.601 181.386 333.385 180.274 336.816L145.411 323.032L156.345 294.974L173.738 301.912Z" fill="#455A64"/>
<path d="M155.807 313.835C155.433 313.805 155.06 313.915 154.761 314.142C154.461 314.369 154.256 314.699 154.184 315.068C154.141 315.442 154.242 315.818 154.467 316.119C154.692 316.421 155.023 316.625 155.394 316.691C155.792 316.721 156.186 316.603 156.503 316.36C156.819 316.117 157.035 315.766 157.109 315.374C157.109 314.608 156.412 313.735 155.662 313.842" fill="#E0E0E0"/>
<path d="M179.593 334.503C179.593 334.503 180.88 335.798 180.274 336.801L145.411 323.017L146.629 320.237L179.577 334.48" fill="#263238"/>
<path d="M166.619 319.648C166.55 319.816 165.669 319.556 164.612 319.77C163.555 319.985 162.827 320.536 162.697 320.398C162.566 320.26 163.21 319.387 164.489 319.15C165.769 318.912 166.726 319.502 166.619 319.648Z" fill="white"/>
<path d="M169.683 322.604C169.683 322.78 168.81 322.78 167.944 323.27C167.079 323.76 166.62 324.457 166.413 324.388C166.206 324.319 166.52 323.308 167.6 322.718C168.68 322.129 169.744 322.443 169.683 322.604Z" fill="white"/>
<path d="M170.037 327.796C169.869 327.796 169.968 326.831 170.803 326.073C171.638 325.314 172.549 325.253 172.564 325.422C172.58 325.59 171.89 325.896 171.239 326.532C170.589 327.168 170.213 327.85 170.037 327.796Z" fill="white"/>
<path d="M167.943 315.444C167.813 315.566 167.124 315.03 166.136 314.678C165.148 314.325 164.283 314.371 164.252 314.195C164.222 314.019 165.179 313.689 166.335 314.072C167.492 314.455 168.081 315.321 167.943 315.444Z" fill="white"/>
<path d="M186.787 204.734L174.573 254.249C174.573 254.249 152.544 291.313 148.812 309.861L168.964 317.779C168.964 317.779 183.622 282.055 187.921 275.5C189.855 272.562 192.078 269.825 194.556 267.329C196.168 265.731 197.324 263.733 197.905 261.54L207.153 226.214L186.787 204.734Z" fill="#263238"/>
<path d="M181.584 196.815C181.584 196.815 183.286 210.079 196.059 215.96L222.969 259.763C222.969 259.763 225.076 274.007 229.099 286.007C233.122 298.006 241.251 321.133 241.251 321.133L263.388 312.863L249.282 264.664L246.983 247.947L225.023 192.045L206.158 180.742L181.584 196.815Z" fill="#263238"/>
<path d="M181.584 196.815L181.991 196.54L183.209 195.728L187.99 192.573L206.119 180.665L206.181 180.627L206.242 180.665L225.122 191.945V191.991L247.129 247.84V247.878C247.856 253.162 248.661 258.821 249.427 264.595C253.258 277.613 257.32 291.543 261.519 305.894C262.198 308.207 262.872 310.504 263.541 312.786L263.595 312.962L263.419 313.023L241.282 321.294L241.091 321.363L241.029 321.171C237.198 310.06 233.49 299.362 229.988 289.215C229.107 286.68 228.241 284.169 227.521 281.657C226.8 279.145 226.149 276.649 225.559 274.183C224.394 269.251 223.459 264.434 222.724 259.763V259.824L195.967 216.006L196.013 216.044C192.776 214.532 189.902 212.344 187.584 209.627C185.885 207.633 184.491 205.398 183.446 202.995C182.8 201.512 182.287 199.974 181.914 198.4C181.784 197.88 181.707 197.474 181.661 197.198C181.615 196.923 181.607 196.785 181.607 196.785C181.607 196.785 181.607 196.922 181.692 197.191C181.776 197.459 181.822 197.864 181.968 198.393C182.363 199.946 182.891 201.463 183.546 202.926C184.603 205.304 186.002 207.515 187.699 209.489C190.026 212.177 192.899 214.339 196.128 215.83L223.092 259.602V259.64C223.858 264.296 224.777 269.106 225.942 274.03C226.532 276.488 227.176 278.977 227.904 281.481C228.632 283.985 229.49 286.481 230.371 289.016C233.888 299.163 237.589 309.861 241.435 320.965L241.183 320.85L263.319 312.579L263.197 312.817C262.533 310.535 261.858 308.237 261.174 305.925L249.098 264.618C248.332 258.844 247.519 253.185 246.799 247.901V247.947L224.877 192.044L224.938 192.113L206.089 180.787H206.204L188.075 192.642L183.247 195.751L182.006 196.555L181.584 196.815Z" fill="#455A64"/>
<path d="M193.438 102.187C193.438 102.187 186.986 107.15 183.852 112.694C180.098 119.333 179.691 129.174 179.577 144.459C179.462 158.595 181.576 162.523 180.764 167.853C179.163 178.26 177.975 213.188 177.975 213.188C177.975 213.188 198.664 205.247 202.679 201.701L206.717 198.194L232.608 206.748L227.382 174.952L223.796 135.323L219.199 114.302L218.432 106.054L196.196 97.1254L193.438 102.187Z" fill="#455A64"/>
<path d="M217.597 105.618C217.866 105.671 216.961 107.486 215.368 110.151L215.299 110.259L215.176 110.213C212.931 109.34 209.958 108.245 206.709 107.058C203.047 105.725 199.736 104.484 197.369 103.52C196.181 103.037 195.231 102.631 194.58 102.333C194.234 102.199 193.9 102.035 193.583 101.843C193.947 101.924 194.301 102.042 194.641 102.195L197.468 103.259L206.847 106.682C210.096 107.869 213.061 108.98 215.276 109.929L215.092 109.99C216.762 107.379 217.751 105.656 217.597 105.618Z" fill="#263238"/>
<path d="M244.354 89.1074C244.354 89.1074 242.715 86.5573 241.167 84.2064C239.619 81.8554 237.274 80.6991 236.899 79.4738C236.523 78.2486 234.462 72.7885 234.133 71.4331C233.846 70.1204 233.713 68.779 233.734 67.4357C233.734 67.4357 235.428 66.7158 236.24 69.1357C236.73 70.5907 238.293 75.53 238.63 75.7751C238.968 76.0201 239.397 75.6602 239.397 75.6602C238.701 73.8108 238.1 71.9271 237.596 70.0164C237.519 69.1204 237.834 63.1779 237.834 63.1779C238.254 63.0933 238.69 63.1618 239.064 63.3711C239.438 63.5804 239.725 63.9167 239.872 64.3189C240.676 65.8505 240.707 69.6794 240.707 69.6794L241.925 73.9525L241.496 69.7254L242.109 61.9526C242.705 62.0375 243.259 62.3035 243.698 62.7145C244.137 63.1256 244.438 63.6617 244.561 64.25C245.075 66.3482 244.393 69.2735 244.737 69.8938C245.082 70.5141 245.458 74.2665 245.458 74.2665C245.458 74.2665 245.879 65.1536 246.852 64.8933C247.825 64.6329 248.622 65.5978 248.484 67.4357C248.346 69.2735 248.308 73.1637 248.814 74.8791C249.319 76.5945 254.507 83.3027 254.085 86.2434C253.827 88.0201 253.666 89.8096 253.603 91.6039H244.714L244.354 89.1074Z" fill="#FFBF9D"/>
<path d="M213.176 112.058C213.674 112.25 234.906 117.503 234.906 117.503C234.906 117.503 239.649 109.845 240.347 107.624C241.044 105.403 244.775 90.6085 244.775 90.6085L253.748 89.7661C253.748 89.7661 251.449 127.971 248.2 130.031C244.952 132.091 239.772 133.133 239.435 133.018C239.098 132.903 216.486 134.473 204.571 125.092C192.656 115.711 213.176 112.058 213.176 112.058Z" fill="#FFBF9D"/>
<g opacity="0.3">
<path d="M197.96 132.282C200.239 134.86 203.279 136.647 206.641 137.383C212.273 138.623 224.265 140.821 224.265 140.821L223.682 134.94L197.63 132.152" fill="black"/>
</g>
<path d="M188.503 124.196C190.434 128.27 194.725 132.62 204.158 133.607C222.831 135.537 236.968 136.563 243.075 135.644C249.182 134.725 251.611 121.807 252.27 121.408C254.17 120.214 254.047 116.109 252.408 114.884C247.749 111.4 238.409 108.758 237.78 109.041C234.064 110.887 235.275 115.206 235.275 115.206L211.598 109.983C208.871 108.849 206.026 108.022 203.116 107.517" fill="#455A64"/>
<path d="M203.116 107.517C203.116 107.517 203.315 107.517 203.698 107.594C204.081 107.67 204.656 107.762 205.391 107.923C207.527 108.407 209.618 109.068 211.644 109.899L235.305 115.045L235.106 115.259C234.756 113.902 234.863 112.467 235.413 111.177C235.715 110.517 236.173 109.939 236.746 109.493C237.036 109.266 237.347 109.066 237.673 108.895C237.785 108.862 237.901 108.844 238.018 108.842H238.301C238.493 108.842 238.661 108.903 238.845 108.934C241.757 109.622 244.597 110.583 247.328 111.805C248.767 112.432 250.157 113.164 251.488 113.995C251.818 114.21 252.147 114.447 252.477 114.677C252.817 114.936 253.095 115.268 253.289 115.65C253.663 116.402 253.857 117.23 253.856 118.069C253.876 118.919 253.686 119.761 253.304 120.52C253.093 120.912 252.794 121.25 252.431 121.508C252.339 121.554 252.278 121.753 252.201 121.937L252.002 122.511C251.496 124.043 250.99 125.681 250.377 127.259C249.574 129.521 248.399 131.633 246.899 133.508C246.355 134.22 245.661 134.805 244.867 135.22C244.073 135.636 243.197 135.872 242.301 135.912C241.726 135.997 241.152 136.012 240.585 136.058C238.286 136.196 236.079 136.165 233.895 136.104C231.712 136.042 229.574 135.928 227.497 135.797C219.168 135.261 211.698 134.503 205.43 133.852C203.932 133.721 202.443 133.507 200.97 133.209C199.663 132.93 198.381 132.54 197.139 132.045C195.126 131.264 193.282 130.104 191.706 128.63C190.723 127.689 189.876 126.614 189.193 125.436C188.948 125.032 188.736 124.61 188.557 124.173C188.557 124.173 188.772 124.609 189.262 125.398C189.97 126.546 190.828 127.594 191.814 128.515C193.388 129.958 195.224 131.086 197.223 131.838C198.467 132.318 199.749 132.694 201.054 132.964C202.524 133.246 204.007 133.447 205.499 133.569C211.766 134.189 219.237 134.917 227.551 135.438C229.635 135.56 231.765 135.667 233.941 135.721C236.118 135.774 238.347 135.805 240.6 135.675C241.159 135.621 241.734 135.606 242.293 135.522C242.852 135.492 243.403 135.387 243.933 135.208C244.992 134.8 245.926 134.124 246.646 133.247C248.113 131.409 249.263 129.338 250.048 127.121C250.661 125.589 251.159 123.974 251.665 122.396L251.879 121.799C251.879 121.707 251.956 121.607 252.002 121.5C252.03 121.441 252.063 121.385 252.101 121.332C252.131 121.295 252.164 121.261 252.201 121.232L252.255 121.186C252.573 120.966 252.835 120.675 253.021 120.336C253.379 119.625 253.553 118.835 253.527 118.039C253.529 117.264 253.353 116.499 253.013 115.803C252.846 115.474 252.608 115.186 252.316 114.96C251.986 114.738 251.672 114.501 251.343 114.294C250.031 113.469 248.658 112.744 247.236 112.127C244.535 110.91 241.726 109.951 238.845 109.263C238.669 109.263 238.493 109.186 238.324 109.171H238.071H237.903C237.601 109.332 237.314 109.519 237.045 109.73C236.511 110.132 236.082 110.658 235.796 111.262C235.288 112.473 235.183 113.815 235.497 115.091L235.566 115.359L235.298 115.297L211.675 110.013C209.667 109.169 207.597 108.483 205.483 107.961C204.717 107.785 204.188 107.662 203.805 107.586C203.422 107.509 203.116 107.517 203.116 107.517Z" fill="#263238"/>
<path d="M243.074 122.595C242.53 122.46 242.012 122.235 241.542 121.929C240.367 121.274 239.285 120.465 238.324 119.525C237.358 118.587 236.513 117.532 235.81 116.385C235.491 115.915 235.245 115.398 235.083 114.853C236.133 116.4 237.309 117.857 238.6 119.211C239.987 120.47 241.485 121.603 243.074 122.595Z" fill="#263238"/>
<path d="M76.3723 185.665C76.3723 185.665 81.123 185.918 84.0347 187.764C86.9464 189.609 91.6971 192.458 93.651 196.011C94.5475 197.642 91.996 197.987 90.7393 197.037C89.4827 196.088 87.5441 194.311 86.5863 194.089L85.6285 193.875C86.5018 195.851 87.4762 197.78 88.5479 199.656C89.5363 201.188 90.3945 203.73 87.4292 203.853C87.4292 203.853 85.4216 206.457 83.3988 204.527C83.3988 204.527 81.8203 206.885 79.2764 203.615C79.2764 203.615 77.7976 205.484 77.1769 204.772C76.5562 204.06 74.5334 202.919 73.9434 200.575C73.063 197.846 72.0399 195.164 70.8784 192.542L76.3723 185.665Z" fill="#FFBF9D"/>
<path d="M35.9461 123.231C33.511 124.015 31.4092 125.592 29.9771 127.711C28.1535 130.513 27.5941 135.369 28.1152 138.983C29.2185 146.603 32.7126 159.46 34.6818 167.715C35.3561 170.564 36.743 175.664 40.8117 178.367L69.8445 195.766L77.6065 184.279L51.1406 162.722L45.9072 133.178L35.9461 123.231Z" fill="#455A64"/>
<path d="M30.9263 152.27C30.9661 152.366 30.9968 152.466 31.0182 152.568L31.2634 153.464C31.4703 154.276 31.7615 155.44 32.1446 156.933C32.9108 159.996 33.9989 164.346 35.3551 169.76C36.1425 172.709 37.8104 175.348 40.1364 177.326C41.4652 178.389 42.8858 179.332 44.3814 180.144L49.0478 182.962L69.9584 195.582L69.6903 195.644L72.487 191.501L77.4522 184.126L77.4905 184.394L51.2622 162.807H51.2162V162.753C49.4846 155.471 48.2279 149.505 47.431 145.355C47.0403 143.279 46.7644 141.663 46.5882 140.561C46.5115 140.025 46.4502 139.603 46.4043 139.305C46.3583 139.006 46.3506 138.876 46.3506 138.876C46.3922 139.014 46.4255 139.155 46.4502 139.297C46.5039 139.596 46.5805 140.009 46.6725 140.545C46.8793 141.64 47.1782 143.256 47.6073 145.324C48.4425 149.459 49.7451 155.409 51.5151 162.684L51.4614 162.6L77.7357 184.088L77.8737 184.203L77.7741 184.348L72.8088 191.723L70.0121 195.866L69.9125 196.019L69.7439 195.927L48.8639 183.269L44.2052 180.443C42.6996 179.623 41.2689 178.672 39.9296 177.602C37.5633 175.576 35.8757 172.874 35.0946 169.86C33.7843 164.43 32.7346 160.042 32.0296 157.002C31.6848 155.471 31.409 154.33 31.2174 153.518L30.9952 152.576C30.9651 152.476 30.942 152.373 30.9263 152.27Z" fill="#263238"/>
<path d="M31.4009 127.313C31.5811 127.194 31.7809 127.109 31.9909 127.06C32.5471 126.888 33.1158 126.76 33.6919 126.677C35.6138 126.381 37.5804 126.647 39.3544 127.443C41.069 128.336 42.5254 129.655 43.5841 131.272C43.9051 131.76 44.1626 132.288 44.3503 132.842C44.4326 133.039 44.4793 133.249 44.4882 133.462C44.1571 132.759 43.7755 132.081 43.3465 131.432C42.2559 129.923 40.8288 128.688 39.1782 127.826C37.4663 127.067 35.5837 126.777 33.7226 126.983C32.2897 127.098 31.4239 127.381 31.4009 127.313Z" fill="#263238"/>
</svg>
