<svg width="307" height="137" viewBox="0 0 307 137" fill="none" xmlns="http://www.w3.org/2000/svg">
<path opacity="0.9" d="M73.6953 68.8057L87.9336 19.0156H103.886L81.957 83H71.542L73.6953 68.8057ZM60.7314 19.0156L74.9258 68.8057L77.167 83H66.6201L44.8232 19.0156H60.7314ZM99.667 76.4961C99.667 74.5039 100.37 72.834 101.776 71.4863C103.212 70.1387 105.072 69.4648 107.357 69.4648C109.672 69.4648 111.518 70.1387 112.895 71.4863C114.301 72.834 115.004 74.5039 115.004 76.4961C115.004 78.459 114.301 80.1143 112.895 81.4619C111.518 82.8096 109.672 83.4834 107.357 83.4834C105.072 83.4834 103.212 82.8096 101.776 81.4619C100.37 80.1143 99.667 78.459 99.667 76.4961ZM152.929 31.1885L136.405 83H121.112L144.799 19.0156H154.467L152.929 31.1885ZM166.64 83L150.072 31.1885L148.358 19.0156H158.158L181.933 83H166.64ZM165.937 59.1816V70.2559H132.582V59.1816H165.937ZM187.294 76.4961C187.294 74.5039 187.997 72.834 189.403 71.4863C190.839 70.1387 192.699 69.4648 194.984 69.4648C197.299 69.4648 199.145 70.1387 200.521 71.4863C201.928 72.834 202.631 74.5039 202.631 76.4961C202.631 78.459 201.928 80.1143 200.521 81.4619C199.145 82.8096 197.299 83.4834 194.984 83.4834C192.699 83.4834 190.839 82.8096 189.403 81.4619C187.997 80.1143 187.294 78.459 187.294 76.4961ZM229.218 19.0156V83H214.936V19.0156H229.218ZM240.819 76.4961C240.819 74.5039 241.522 72.834 242.929 71.4863C244.364 70.1387 246.225 69.4648 248.51 69.4648C250.824 69.4648 252.67 70.1387 254.047 71.4863C255.453 72.834 256.156 74.5039 256.156 76.4961C256.156 78.459 255.453 80.1143 254.047 81.4619C252.67 82.8096 250.824 83.4834 248.51 83.4834C246.225 83.4834 244.364 82.8096 242.929 81.4619C241.522 80.1143 240.819 78.459 240.819 76.4961Z" fill="white"/>
<path d="M8.66797 125.66L12.9219 111.938H16.4961L10.4727 129H8.09375L8.66797 125.66ZM4.74219 111.938L8.97266 125.66L9.58203 129H7.17969L1.17969 111.938H4.74219ZM23.1992 129.234C22.2383 129.234 21.375 129.078 20.6094 128.766C19.8438 128.453 19.1914 128.02 18.6523 127.465C18.1211 126.902 17.7109 126.25 17.4219 125.508C17.1406 124.758 17 123.953 17 123.094V122.625C17 121.648 17.1406 120.762 17.4219 119.965C17.7031 119.16 18.1016 118.469 18.6172 117.891C19.1328 117.312 19.75 116.867 20.4688 116.555C21.1875 116.242 21.9805 116.086 22.8477 116.086C23.7461 116.086 24.5391 116.238 25.2266 116.543C25.9141 116.84 26.4883 117.262 26.9492 117.809C27.4102 118.355 27.7578 119.012 27.9922 119.777C28.2266 120.535 28.3438 121.375 28.3438 122.297V123.598H18.4062V121.465H25.2969V121.23C25.2812 120.738 25.1875 120.289 25.0156 119.883C24.8438 119.469 24.5781 119.141 24.2188 118.898C23.8594 118.648 23.3945 118.523 22.8242 118.523C22.3633 118.523 21.9609 118.625 21.6172 118.828C21.2812 119.023 21 119.305 20.7734 119.672C20.5547 120.031 20.3906 120.461 20.2812 120.961C20.1719 121.461 20.1172 122.016 20.1172 122.625V123.094C20.1172 123.625 20.1875 124.117 20.3281 124.57C20.4766 125.023 20.6914 125.418 20.9727 125.754C21.2617 126.082 21.6055 126.34 22.0039 126.527C22.4102 126.707 22.8711 126.797 23.3867 126.797C24.0352 126.797 24.6211 126.672 25.1445 126.422C25.6758 126.164 26.1367 125.785 26.5273 125.285L28.0859 126.902C27.8203 127.293 27.4609 127.668 27.0078 128.027C26.5625 128.387 26.0234 128.68 25.3906 128.906C24.7578 129.125 24.0273 129.234 23.1992 129.234ZM33.5117 118.91V129H30.418V116.32H33.3477L33.5117 118.91ZM37.3672 116.238L37.3203 119.121C37.1484 119.09 36.9531 119.066 36.7344 119.051C36.5234 119.035 36.3242 119.027 36.1367 119.027C35.6602 119.027 35.2422 119.094 34.8828 119.227C34.5234 119.352 34.2227 119.535 33.9805 119.777C33.7461 120.02 33.5664 120.316 33.4414 120.668C33.3164 121.012 33.2461 121.402 33.2305 121.84L32.5625 121.758C32.5625 120.953 32.6445 120.207 32.8086 119.52C32.9727 118.832 33.2109 118.23 33.5234 117.715C33.8359 117.199 34.2266 116.801 34.6953 116.52C35.1719 116.23 35.7188 116.086 36.3359 116.086C36.5078 116.086 36.6914 116.102 36.8867 116.133C37.0898 116.156 37.25 116.191 37.3672 116.238ZM42.3477 116.32V129H39.2422V116.32H42.3477ZM39.0312 113.004C39.0312 112.543 39.1875 112.16 39.5 111.855C39.8203 111.551 40.25 111.398 40.7891 111.398C41.3281 111.398 41.7539 111.551 42.0664 111.855C42.3867 112.16 42.5469 112.543 42.5469 113.004C42.5469 113.457 42.3867 113.836 42.0664 114.141C41.7539 114.445 41.3281 114.598 40.7891 114.598C40.25 114.598 39.8203 114.445 39.5 114.141C39.1875 113.836 39.0312 113.457 39.0312 113.004ZM49.2148 129H46.0977V115.617C46.0977 114.57 46.3086 113.688 46.7305 112.969C47.1602 112.242 47.7734 111.691 48.5703 111.316C49.375 110.941 50.332 110.754 51.4414 110.754C52.0898 110.754 52.7148 110.82 53.3164 110.953C53.9258 111.078 54.5508 111.242 55.1914 111.445L54.7344 113.953C54.3203 113.82 53.8672 113.695 53.375 113.578C52.8906 113.461 52.3164 113.402 51.6523 113.402C50.832 113.402 50.2188 113.59 49.8125 113.965C49.4141 114.34 49.2148 114.891 49.2148 115.617V129ZM51.7461 116.32V118.547H44.1875V116.32H51.7461ZM56.6445 116.32V129H53.5391V116.32H56.6445ZM65.3398 129.234C64.3789 129.234 63.5156 129.078 62.75 128.766C61.9844 128.453 61.332 128.02 60.793 127.465C60.2617 126.902 59.8516 126.25 59.5625 125.508C59.2812 124.758 59.1406 123.953 59.1406 123.094V122.625C59.1406 121.648 59.2812 120.762 59.5625 119.965C59.8438 119.16 60.2422 118.469 60.7578 117.891C61.2734 117.312 61.8906 116.867 62.6094 116.555C63.3281 116.242 64.1211 116.086 64.9883 116.086C65.8867 116.086 66.6797 116.238 67.3672 116.543C68.0547 116.84 68.6289 117.262 69.0898 117.809C69.5508 118.355 69.8984 119.012 70.1328 119.777C70.3672 120.535 70.4844 121.375 70.4844 122.297V123.598H60.5469V121.465H67.4375V121.23C67.4219 120.738 67.3281 120.289 67.1562 119.883C66.9844 119.469 66.7188 119.141 66.3594 118.898C66 118.648 65.5352 118.523 64.9648 118.523C64.5039 118.523 64.1016 118.625 63.7578 118.828C63.4219 119.023 63.1406 119.305 62.9141 119.672C62.6953 120.031 62.5312 120.461 62.4219 120.961C62.3125 121.461 62.2578 122.016 62.2578 122.625V123.094C62.2578 123.625 62.3281 124.117 62.4688 124.57C62.6172 125.023 62.832 125.418 63.1133 125.754C63.4023 126.082 63.7461 126.34 64.1445 126.527C64.5508 126.707 65.0117 126.797 65.5273 126.797C66.1758 126.797 66.7617 126.672 67.2852 126.422C67.8164 126.164 68.2773 125.785 68.668 125.285L70.2266 126.902C69.9609 127.293 69.6016 127.668 69.1484 128.027C68.7031 128.387 68.1641 128.68 67.5312 128.906C66.8984 129.125 66.168 129.234 65.3398 129.234ZM80.1641 126.305V111H83.2812V129H80.4688L80.1641 126.305ZM72.0195 122.812V122.566C72.0195 121.598 72.1289 120.719 72.3477 119.93C72.5742 119.133 72.9023 118.449 73.332 117.879C73.7617 117.309 74.2812 116.867 74.8906 116.555C75.5078 116.242 76.207 116.086 76.9883 116.086C77.7461 116.086 78.4062 116.238 78.9688 116.543C79.5391 116.848 80.0234 117.281 80.4219 117.844C80.8281 118.406 81.1523 119.074 81.3945 119.848C81.6367 120.613 81.8125 121.457 81.9219 122.379V123.047C81.8125 123.945 81.6367 124.77 81.3945 125.52C81.1523 126.27 80.8281 126.926 80.4219 127.488C80.0234 128.043 79.5391 128.473 78.9688 128.777C78.3984 129.082 77.7305 129.234 76.9648 129.234C76.1914 129.234 75.4961 129.074 74.8789 128.754C74.2695 128.434 73.75 127.984 73.3203 127.406C72.8984 126.828 72.5742 126.148 72.3477 125.367C72.1289 124.586 72.0195 123.734 72.0195 122.812ZM75.125 122.566V122.812C75.125 123.359 75.1719 123.871 75.2656 124.348C75.3594 124.824 75.5117 125.246 75.7227 125.613C75.9336 125.973 76.2031 126.254 76.5312 126.457C76.8672 126.66 77.2734 126.762 77.75 126.762C78.3594 126.762 78.8594 126.629 79.25 126.363C79.6484 126.09 79.957 125.719 80.1758 125.25C80.3945 124.773 80.5352 124.238 80.5977 123.645V121.805C80.5664 121.336 80.4844 120.902 80.3516 120.504C80.2266 120.105 80.0469 119.762 79.8125 119.473C79.5859 119.184 79.3047 118.957 78.9688 118.793C78.6328 118.629 78.2344 118.547 77.7734 118.547C77.2969 118.547 76.8906 118.652 76.5547 118.863C76.2188 119.066 75.9453 119.352 75.7344 119.719C75.5234 120.086 75.3672 120.512 75.2656 120.996C75.1719 121.48 75.125 122.004 75.125 122.566ZM99.0781 114.527L94.2148 129H90.8047L97.1797 111.938H99.3594L99.0781 114.527ZM103.145 129L98.2578 114.527L97.9648 111.938H100.156L106.566 129H103.145ZM102.922 122.66V125.203H93.7695V122.66H102.922ZM110.82 119.027V129H107.727V116.32H110.633L110.82 119.027ZM110.328 122.203H109.414C109.422 121.281 109.547 120.445 109.789 119.695C110.031 118.945 110.371 118.301 110.809 117.762C111.254 117.223 111.781 116.809 112.391 116.52C113 116.23 113.68 116.086 114.43 116.086C115.039 116.086 115.59 116.172 116.082 116.344C116.574 116.516 116.996 116.789 117.348 117.164C117.707 117.539 117.98 118.031 118.168 118.641C118.363 119.242 118.461 119.984 118.461 120.867V129H115.344V120.844C115.344 120.266 115.258 119.809 115.086 119.473C114.922 119.137 114.68 118.898 114.359 118.758C114.047 118.617 113.66 118.547 113.199 118.547C112.723 118.547 112.305 118.645 111.945 118.84C111.594 119.027 111.297 119.289 111.055 119.625C110.82 119.961 110.641 120.348 110.516 120.785C110.391 121.223 110.328 121.695 110.328 122.203ZM120.641 122.789V122.543C120.641 121.613 120.773 120.758 121.039 119.977C121.305 119.188 121.691 118.504 122.199 117.926C122.707 117.348 123.328 116.898 124.062 116.578C124.797 116.25 125.633 116.086 126.57 116.086C127.523 116.086 128.367 116.25 129.102 116.578C129.844 116.898 130.469 117.348 130.977 117.926C131.484 118.504 131.871 119.188 132.137 119.977C132.402 120.758 132.535 121.613 132.535 122.543V122.789C132.535 123.711 132.402 124.566 132.137 125.355C131.871 126.137 131.484 126.82 130.977 127.406C130.469 127.984 129.848 128.434 129.113 128.754C128.379 129.074 127.539 129.234 126.594 129.234C125.656 129.234 124.816 129.074 124.074 128.754C123.332 128.434 122.707 127.984 122.199 127.406C121.691 126.82 121.305 126.137 121.039 125.355C120.773 124.566 120.641 123.711 120.641 122.789ZM123.734 122.543V122.789C123.734 123.344 123.789 123.863 123.898 124.348C124.008 124.832 124.176 125.258 124.402 125.625C124.629 125.992 124.922 126.281 125.281 126.492C125.648 126.695 126.086 126.797 126.594 126.797C127.094 126.797 127.523 126.695 127.883 126.492C128.242 126.281 128.535 125.992 128.762 125.625C128.996 125.258 129.168 124.832 129.277 124.348C129.387 123.863 129.441 123.344 129.441 122.789V122.543C129.441 121.996 129.387 121.484 129.277 121.008C129.168 120.523 128.996 120.098 128.762 119.73C128.535 119.355 128.238 119.062 127.871 118.852C127.512 118.633 127.078 118.523 126.57 118.523C126.07 118.523 125.641 118.633 125.281 118.852C124.922 119.062 124.629 119.355 124.402 119.73C124.176 120.098 124.008 120.523 123.898 121.008C123.789 121.484 123.734 121.996 123.734 122.543ZM137.82 119.027V129H134.727V116.32H137.633L137.82 119.027ZM137.328 122.203H136.414C136.422 121.281 136.547 120.445 136.789 119.695C137.031 118.945 137.371 118.301 137.809 117.762C138.254 117.223 138.781 116.809 139.391 116.52C140 116.23 140.68 116.086 141.43 116.086C142.039 116.086 142.59 116.172 143.082 116.344C143.574 116.516 143.996 116.789 144.348 117.164C144.707 117.539 144.98 118.031 145.168 118.641C145.363 119.242 145.461 119.984 145.461 120.867V129H142.344V120.844C142.344 120.266 142.258 119.809 142.086 119.473C141.922 119.137 141.68 118.898 141.359 118.758C141.047 118.617 140.66 118.547 140.199 118.547C139.723 118.547 139.305 118.645 138.945 118.84C138.594 119.027 138.297 119.289 138.055 119.625C137.82 119.961 137.641 120.348 137.516 120.785C137.391 121.223 137.328 121.695 137.328 122.203ZM151.906 127.594L155.305 116.32H158.621L153.535 130.922C153.418 131.234 153.266 131.574 153.078 131.941C152.898 132.309 152.656 132.656 152.352 132.984C152.047 133.32 151.664 133.594 151.203 133.805C150.75 134.016 150.199 134.121 149.551 134.121C149.27 134.121 149.02 134.102 148.801 134.062C148.582 134.023 148.352 133.973 148.109 133.91V131.59C148.188 131.598 148.277 131.602 148.379 131.602C148.488 131.609 148.582 131.613 148.66 131.613C149.113 131.613 149.488 131.559 149.785 131.449C150.082 131.348 150.32 131.18 150.5 130.945C150.688 130.719 150.844 130.422 150.969 130.055L151.906 127.594ZM150.23 116.32L153.102 125.66L153.605 128.93L151.473 129.316L146.891 116.32H150.23ZM163.203 118.922V129H160.109V116.32H163.027L163.203 118.922ZM162.746 122.203H161.797C161.797 121.32 161.902 120.508 162.113 119.766C162.332 119.023 162.652 118.379 163.074 117.832C163.496 117.277 164.016 116.848 164.633 116.543C165.258 116.238 165.98 116.086 166.801 116.086C167.371 116.086 167.895 116.172 168.371 116.344C168.848 116.508 169.258 116.77 169.602 117.129C169.953 117.48 170.223 117.941 170.41 118.512C170.598 119.074 170.691 119.75 170.691 120.539V129H167.598V120.855C167.598 120.262 167.512 119.797 167.34 119.461C167.176 119.125 166.938 118.891 166.625 118.758C166.312 118.617 165.938 118.547 165.5 118.547C165.016 118.547 164.598 118.645 164.246 118.84C163.902 119.027 163.617 119.289 163.391 119.625C163.172 119.961 163.008 120.348 162.898 120.785C162.797 121.223 162.746 121.695 162.746 122.203ZM170.457 121.629L169.18 121.863C169.188 121.066 169.297 120.32 169.508 119.625C169.719 118.922 170.027 118.309 170.434 117.785C170.848 117.254 171.359 116.84 171.969 116.543C172.586 116.238 173.297 116.086 174.102 116.086C174.727 116.086 175.289 116.176 175.789 116.355C176.297 116.527 176.73 116.805 177.09 117.188C177.449 117.562 177.723 118.051 177.91 118.652C178.105 119.254 178.203 119.988 178.203 120.855V129H175.086V120.844C175.086 120.227 175 119.754 174.828 119.426C174.664 119.098 174.426 118.871 174.113 118.746C173.801 118.613 173.434 118.547 173.012 118.547C172.582 118.547 172.207 118.629 171.887 118.793C171.574 118.949 171.309 119.168 171.09 119.449C170.879 119.73 170.719 120.059 170.609 120.434C170.508 120.801 170.457 121.199 170.457 121.629ZM180.43 122.789V122.543C180.43 121.613 180.562 120.758 180.828 119.977C181.094 119.188 181.48 118.504 181.988 117.926C182.496 117.348 183.117 116.898 183.852 116.578C184.586 116.25 185.422 116.086 186.359 116.086C187.312 116.086 188.156 116.25 188.891 116.578C189.633 116.898 190.258 117.348 190.766 117.926C191.273 118.504 191.66 119.188 191.926 119.977C192.191 120.758 192.324 121.613 192.324 122.543V122.789C192.324 123.711 192.191 124.566 191.926 125.355C191.66 126.137 191.273 126.82 190.766 127.406C190.258 127.984 189.637 128.434 188.902 128.754C188.168 129.074 187.328 129.234 186.383 129.234C185.445 129.234 184.605 129.074 183.863 128.754C183.121 128.434 182.496 127.984 181.988 127.406C181.48 126.82 181.094 126.137 180.828 125.355C180.562 124.566 180.43 123.711 180.43 122.789ZM183.523 122.543V122.789C183.523 123.344 183.578 123.863 183.688 124.348C183.797 124.832 183.965 125.258 184.191 125.625C184.418 125.992 184.711 126.281 185.07 126.492C185.438 126.695 185.875 126.797 186.383 126.797C186.883 126.797 187.312 126.695 187.672 126.492C188.031 126.281 188.324 125.992 188.551 125.625C188.785 125.258 188.957 124.832 189.066 124.348C189.176 123.863 189.23 123.344 189.23 122.789V122.543C189.23 121.996 189.176 121.484 189.066 121.008C188.957 120.523 188.785 120.098 188.551 119.73C188.324 119.355 188.027 119.062 187.66 118.852C187.301 118.633 186.867 118.523 186.359 118.523C185.859 118.523 185.43 118.633 185.07 118.852C184.711 119.062 184.418 119.355 184.191 119.73C183.965 120.098 183.797 120.523 183.688 121.008C183.578 121.484 183.523 121.996 183.523 122.543ZM202.121 125.988V116.32H205.238V129H202.309L202.121 125.988ZM202.52 123.363L203.48 123.34C203.48 124.191 203.387 124.977 203.199 125.695C203.012 126.414 202.719 127.039 202.32 127.57C201.93 128.094 201.434 128.504 200.832 128.801C200.23 129.09 199.52 129.234 198.699 129.234C198.074 129.234 197.504 129.148 196.988 128.977C196.473 128.797 196.027 128.52 195.652 128.145C195.285 127.762 195 127.273 194.797 126.68C194.594 126.078 194.492 125.355 194.492 124.512V116.32H197.586V124.535C197.586 124.957 197.633 125.309 197.727 125.59C197.828 125.871 197.965 126.102 198.137 126.281C198.316 126.453 198.523 126.578 198.758 126.656C199 126.727 199.258 126.762 199.531 126.762C200.281 126.762 200.871 126.613 201.301 126.316C201.738 126.012 202.051 125.605 202.238 125.098C202.426 124.582 202.52 124.004 202.52 123.363ZM214.953 125.531C214.953 125.266 214.883 125.027 214.742 124.816C214.602 124.605 214.336 124.414 213.945 124.242C213.562 124.062 213 123.895 212.258 123.738C211.602 123.598 210.996 123.422 210.441 123.211C209.887 123 209.41 122.746 209.012 122.449C208.613 122.145 208.301 121.789 208.074 121.383C207.855 120.969 207.746 120.492 207.746 119.953C207.746 119.43 207.859 118.938 208.086 118.477C208.312 118.008 208.641 117.598 209.07 117.246C209.5 116.887 210.023 116.605 210.641 116.402C211.258 116.191 211.953 116.086 212.727 116.086C213.805 116.086 214.73 116.262 215.504 116.613C216.285 116.965 216.883 117.449 217.297 118.066C217.711 118.676 217.918 119.363 217.918 120.129H214.824C214.824 119.793 214.746 119.488 214.59 119.215C214.441 118.941 214.211 118.723 213.898 118.559C213.586 118.387 213.191 118.301 212.715 118.301C212.285 118.301 211.922 118.371 211.625 118.512C211.336 118.652 211.117 118.836 210.969 119.062C210.82 119.289 210.746 119.539 210.746 119.812C210.746 120.016 210.785 120.199 210.863 120.363C210.949 120.52 211.086 120.664 211.273 120.797C211.461 120.93 211.715 121.051 212.035 121.16C212.363 121.27 212.766 121.375 213.242 121.477C214.188 121.664 215.012 121.914 215.715 122.227C216.426 122.531 216.98 122.938 217.379 123.445C217.777 123.953 217.977 124.602 217.977 125.391C217.977 125.953 217.855 126.469 217.613 126.938C217.371 127.398 217.02 127.801 216.559 128.145C216.098 128.488 215.547 128.758 214.906 128.953C214.266 129.141 213.543 129.234 212.738 129.234C211.574 129.234 210.59 129.027 209.785 128.613C208.98 128.191 208.371 127.66 207.957 127.02C207.543 126.371 207.336 125.699 207.336 125.004H210.301C210.324 125.496 210.457 125.891 210.699 126.188C210.941 126.484 211.246 126.699 211.613 126.832C211.988 126.957 212.383 127.02 212.797 127.02C213.266 127.02 213.66 126.957 213.98 126.832C214.301 126.699 214.543 126.523 214.707 126.305C214.871 126.078 214.953 125.82 214.953 125.531ZM229.977 111.938V129H226.754V111.938H229.977ZM240.828 126.305V111H243.945V129H241.133L240.828 126.305ZM232.684 122.812V122.566C232.684 121.598 232.793 120.719 233.012 119.93C233.238 119.133 233.566 118.449 233.996 117.879C234.426 117.309 234.945 116.867 235.555 116.555C236.172 116.242 236.871 116.086 237.652 116.086C238.41 116.086 239.07 116.238 239.633 116.543C240.203 116.848 240.688 117.281 241.086 117.844C241.492 118.406 241.816 119.074 242.059 119.848C242.301 120.613 242.477 121.457 242.586 122.379V123.047C242.477 123.945 242.301 124.77 242.059 125.52C241.816 126.27 241.492 126.926 241.086 127.488C240.688 128.043 240.203 128.473 239.633 128.777C239.062 129.082 238.395 129.234 237.629 129.234C236.855 129.234 236.16 129.074 235.543 128.754C234.934 128.434 234.414 127.984 233.984 127.406C233.562 126.828 233.238 126.148 233.012 125.367C232.793 124.586 232.684 123.734 232.684 122.812ZM235.789 122.566V122.812C235.789 123.359 235.836 123.871 235.93 124.348C236.023 124.824 236.176 125.246 236.387 125.613C236.598 125.973 236.867 126.254 237.195 126.457C237.531 126.66 237.938 126.762 238.414 126.762C239.023 126.762 239.523 126.629 239.914 126.363C240.312 126.09 240.621 125.719 240.84 125.25C241.059 124.773 241.199 124.238 241.262 123.645V121.805C241.23 121.336 241.148 120.902 241.016 120.504C240.891 120.105 240.711 119.762 240.477 119.473C240.25 119.184 239.969 118.957 239.633 118.793C239.297 118.629 238.898 118.547 238.438 118.547C237.961 118.547 237.555 118.652 237.219 118.863C236.883 119.066 236.609 119.352 236.398 119.719C236.188 120.086 236.031 120.512 235.93 120.996C235.836 121.48 235.789 122.004 235.789 122.566ZM252.441 129.234C251.48 129.234 250.617 129.078 249.852 128.766C249.086 128.453 248.434 128.02 247.895 127.465C247.363 126.902 246.953 126.25 246.664 125.508C246.383 124.758 246.242 123.953 246.242 123.094V122.625C246.242 121.648 246.383 120.762 246.664 119.965C246.945 119.16 247.344 118.469 247.859 117.891C248.375 117.312 248.992 116.867 249.711 116.555C250.43 116.242 251.223 116.086 252.09 116.086C252.988 116.086 253.781 116.238 254.469 116.543C255.156 116.84 255.73 117.262 256.191 117.809C256.652 118.355 257 119.012 257.234 119.777C257.469 120.535 257.586 121.375 257.586 122.297V123.598H247.648V121.465H254.539V121.23C254.523 120.738 254.43 120.289 254.258 119.883C254.086 119.469 253.82 119.141 253.461 118.898C253.102 118.648 252.637 118.523 252.066 118.523C251.605 118.523 251.203 118.625 250.859 118.828C250.523 119.023 250.242 119.305 250.016 119.672C249.797 120.031 249.633 120.461 249.523 120.961C249.414 121.461 249.359 122.016 249.359 122.625V123.094C249.359 123.625 249.43 124.117 249.57 124.57C249.719 125.023 249.934 125.418 250.215 125.754C250.504 126.082 250.848 126.34 251.246 126.527C251.652 126.707 252.113 126.797 252.629 126.797C253.277 126.797 253.863 126.672 254.387 126.422C254.918 126.164 255.379 125.785 255.77 125.285L257.328 126.902C257.062 127.293 256.703 127.668 256.25 128.027C255.805 128.387 255.266 128.68 254.633 128.906C254 129.125 253.27 129.234 252.441 129.234ZM262.695 119.027V129H259.602V116.32H262.508L262.695 119.027ZM262.203 122.203H261.289C261.297 121.281 261.422 120.445 261.664 119.695C261.906 118.945 262.246 118.301 262.684 117.762C263.129 117.223 263.656 116.809 264.266 116.52C264.875 116.23 265.555 116.086 266.305 116.086C266.914 116.086 267.465 116.172 267.957 116.344C268.449 116.516 268.871 116.789 269.223 117.164C269.582 117.539 269.855 118.031 270.043 118.641C270.238 119.242 270.336 119.984 270.336 120.867V129H267.219V120.844C267.219 120.266 267.133 119.809 266.961 119.473C266.797 119.137 266.555 118.898 266.234 118.758C265.922 118.617 265.535 118.547 265.074 118.547C264.598 118.547 264.18 118.645 263.82 118.84C263.469 119.027 263.172 119.289 262.93 119.625C262.695 119.961 262.516 120.348 262.391 120.785C262.266 121.223 262.203 121.695 262.203 122.203ZM279.066 116.32V118.547H271.801V116.32H279.066ZM273.746 113.203H276.852V125.344C276.852 125.719 276.902 126.008 277.004 126.211C277.105 126.414 277.258 126.551 277.461 126.621C277.664 126.691 277.906 126.727 278.188 126.727C278.391 126.727 278.578 126.715 278.75 126.691C278.922 126.668 279.066 126.645 279.184 126.621L279.195 128.941C278.938 129.027 278.645 129.098 278.316 129.152C277.996 129.207 277.633 129.234 277.227 129.234C276.531 129.234 275.922 129.117 275.398 128.883C274.875 128.641 274.469 128.254 274.18 127.723C273.891 127.184 273.746 126.473 273.746 125.59V113.203ZM284.41 116.32V129H281.305V116.32H284.41ZM281.094 113.004C281.094 112.543 281.25 112.16 281.562 111.855C281.883 111.551 282.312 111.398 282.852 111.398C283.391 111.398 283.816 111.551 284.129 111.855C284.449 112.16 284.609 112.543 284.609 113.004C284.609 113.457 284.449 113.836 284.129 114.141C283.816 114.445 283.391 114.598 282.852 114.598C282.312 114.598 281.883 114.445 281.562 114.141C281.25 113.836 281.094 113.457 281.094 113.004ZM293.363 116.32V118.547H286.098V116.32H293.363ZM288.043 113.203H291.148V125.344C291.148 125.719 291.199 126.008 291.301 126.211C291.402 126.414 291.555 126.551 291.758 126.621C291.961 126.691 292.203 126.727 292.484 126.727C292.688 126.727 292.875 126.715 293.047 126.691C293.219 126.668 293.363 126.645 293.48 126.621L293.492 128.941C293.234 129.027 292.941 129.098 292.613 129.152C292.293 129.207 291.93 129.234 291.523 129.234C290.828 129.234 290.219 129.117 289.695 128.883C289.172 128.641 288.766 128.254 288.477 127.723C288.188 127.184 288.043 126.473 288.043 125.59V113.203ZM299.141 127.594L302.539 116.32H305.855L300.77 130.922C300.652 131.234 300.5 131.574 300.312 131.941C300.133 132.309 299.891 132.656 299.586 132.984C299.281 133.32 298.898 133.594 298.438 133.805C297.984 134.016 297.434 134.121 296.785 134.121C296.504 134.121 296.254 134.102 296.035 134.062C295.816 134.023 295.586 133.973 295.344 133.91V131.59C295.422 131.598 295.512 131.602 295.613 131.602C295.723 131.609 295.816 131.613 295.895 131.613C296.348 131.613 296.723 131.559 297.02 131.449C297.316 131.348 297.555 131.18 297.734 130.945C297.922 130.719 298.078 130.422 298.203 130.055L299.141 127.594ZM297.465 116.32L300.336 125.66L300.84 128.93L298.707 129.316L294.125 116.32H297.465Z" fill="white"/>
</svg>
