<svg width="14" height="14" viewBox="0 0 14 14" fill="none" xmlns="http://www.w3.org/2000/svg">
<path fill-rule="evenodd" clip-rule="evenodd" d="M7.00355 0.0078125C8.83816 0.0409656 10.5864 0.793038 11.8721 2.10218C13.1578 3.41133 13.8782 5.1729 13.8782 7.00781C13.8782 8.84272 13.1578 10.6043 11.8721 11.9134C10.5864 13.2226 8.83816 13.9747 7.00355 14.0078C5.16894 13.9747 3.42067 13.2226 2.13497 11.9134C0.849268 10.6043 0.128906 8.84272 0.128906 7.00781C0.128906 5.1729 0.849268 3.41133 2.13497 2.10218C3.42067 0.793038 5.16894 0.0409656 7.00355 0.0078125ZM5.54984 9.28172L3.83555 7.56591C3.69523 7.4251 3.61644 7.23441 3.61644 7.03562C3.61644 6.83683 3.69523 6.64615 3.83555 6.50534C3.97659 6.36515 4.16737 6.28647 4.36622 6.28647C4.56507 6.28647 4.75585 6.36515 4.89689 6.50534L6.10451 7.71448L9.11022 4.70877C9.25103 4.56844 9.44172 4.48965 9.6405 4.48965C9.8393 4.48965 10.03 4.56844 10.1708 4.70877C10.3109 4.84967 10.3896 5.04032 10.3896 5.23905C10.3896 5.43778 10.3109 5.62843 10.1708 5.76934L6.63403 9.3061C6.56223 9.37753 6.47675 9.43372 6.3827 9.4713C6.28866 9.50888 6.18799 9.52708 6.08674 9.5248C5.98549 9.52253 5.88574 9.49982 5.79348 9.45805C5.70122 9.41628 5.61835 9.3563 5.54984 9.28172Z" fill="#008F34"/>
</svg>
