<svg width="16" height="16" viewBox="0 0 16 16" fill="none" xmlns="http://www.w3.org/2000/svg">
<path fill-rule="evenodd" clip-rule="evenodd" d="M0.833984 8.0026C0.833984 11.9607 4.04261 15.1693 8.00065 15.1693C11.9587 15.1693 15.1673 11.9607 15.1673 8.0026C15.1673 4.04456 11.9587 0.835938 8.00065 0.835938C4.04261 0.835938 0.833984 4.04456 0.833984 8.0026ZM5.52927 5.53118C5.78964 5.27084 6.21174 5.27086 6.47208 5.53122L8.00065 7.05994L9.52925 5.53122C9.78958 5.27086 10.2117 5.27084 10.4721 5.53118C10.7324 5.79151 10.7324 6.21362 10.4721 6.47398L8.94338 8.0028L10.4717 9.5312C10.732 9.7916 10.732 10.2137 10.4716 10.474C10.2113 10.7343 9.78912 10.7343 9.52878 10.474L8.00065 8.94567L6.47251 10.474C6.21217 10.7343 5.79006 10.7343 5.5297 10.474C5.26934 10.2137 5.26931 9.7916 5.52965 9.5312L7.05792 8.0028L5.52922 6.47398C5.26888 6.21362 5.26891 5.79151 5.52927 5.53118Z" fill="#E43530"/>
</svg>
