<svg width="37" height="36" viewBox="0 0 37 36" fill="none" xmlns="http://www.w3.org/2000/svg">
<path d="M0.5 8C0.5 3.58172 4.08172 0 8.5 0H28.5C32.9183 0 36.5 3.58172 36.5 8V28C36.5 32.4183 32.9183 36 28.5 36H8.5C4.08172 36 0.5 32.4183 0.5 28V8Z" fill="#E43530"/>
<path d="M24.75 12.582L24.0116 24.7662C23.9582 25.6459 23.2293 26.332 22.3479 26.332H14.6521C13.7707 26.332 13.0417 25.6459 12.9884 24.7662L12.25 12.582" stroke="white" stroke-width="1.5" stroke-linecap="round" stroke-linejoin="round"/>
<path d="M11 12.5846H15.1667M15.1667 12.5846L16.2002 10.173C16.3315 9.86664 16.6328 9.66797 16.9662 9.66797H20.0338C20.3672 9.66797 20.6685 9.86664 20.7997 10.173L21.8333 12.5846M15.1667 12.5846H21.8333M26 12.5846H21.8333" stroke="white" stroke-width="1.5" stroke-linecap="round" stroke-linejoin="round"/>
<path d="M16.4166 21.75V16.75" stroke="white" stroke-width="1.5" stroke-linecap="round" stroke-linejoin="round"/>
<path d="M20.5834 21.75V16.75" stroke="white" stroke-width="1.5" stroke-linecap="round" stroke-linejoin="round"/>
</svg>
