<svg width="24" height="24" viewBox="0 0 24 24" fill="none" xmlns="http://www.w3.org/2000/svg">
<rect x="6" y="6" width="12" height="12" fill="#212B36"/>
<circle cx="12" cy="12" r="9.5" stroke="#919EAB"/>
<path d="M12 3C10.22 3 8.47991 3.52784 6.99987 4.51677C5.51983 5.50571 4.36628 6.91131 3.68509 8.55585C3.0039 10.2004 2.82567 12.01 3.17294 13.7558C3.5202 15.5016 4.37737 17.1053 5.63604 18.364C6.89472 19.6226 8.49836 20.4798 10.2442 20.8271C11.99 21.1743 13.7996 20.9961 15.4442 20.3149C17.0887 19.6337 18.4943 18.4802 19.4832 17.0001C20.4722 15.5201 21 13.78 21 12C20.9972 9.61391 20.0481 7.32636 18.3609 5.63915C16.6736 3.95193 14.3861 3.00281 12 3ZM15.4707 14.3146C15.5489 14.3901 15.6112 14.4804 15.6541 14.5802C15.697 14.68 15.7195 14.7874 15.7205 14.896C15.7214 15.0047 15.7007 15.1124 15.6596 15.213C15.6184 15.3135 15.5577 15.4049 15.4809 15.4817C15.404 15.5585 15.3127 15.6193 15.2121 15.6604C15.1116 15.7015 15.0039 15.7222 14.8952 15.7213C14.7866 15.7203 14.6792 15.6978 14.5794 15.6549C14.4796 15.612 14.3893 15.5497 14.3138 15.4715L12 13.1569L9.68618 15.4715C9.53187 15.6206 9.3252 15.703 9.11067 15.7012C8.89615 15.6993 8.69094 15.6133 8.53924 15.4616C8.38754 15.3099 8.3015 15.1047 8.29963 14.8901C8.29777 14.6756 8.38024 14.4689 8.52928 14.3146L10.8431 12L8.52928 9.68536C8.45113 9.60989 8.3888 9.51961 8.34592 9.41978C8.30304 9.31996 8.28047 9.2126 8.27953 9.10396C8.27858 8.99533 8.29928 8.88759 8.34042 8.78704C8.38156 8.68648 8.44231 8.59513 8.51913 8.51831C8.59596 8.44149 8.68731 8.38074 8.78786 8.3396C8.88841 8.29846 8.99615 8.27776 9.10478 8.2787C9.21342 8.27965 9.32078 8.30222 9.42061 8.3451C9.52043 8.38798 9.61071 8.45031 9.68618 8.52845L12 10.8431L14.3138 8.52845C14.3893 8.45031 14.4796 8.38798 14.5794 8.3451C14.6792 8.30222 14.7866 8.27965 14.8952 8.2787C15.0039 8.27776 15.1116 8.29846 15.2121 8.3396C15.3127 8.38074 15.404 8.44149 15.4809 8.51831C15.5577 8.59513 15.6184 8.68648 15.6596 8.78704C15.7007 8.88759 15.7214 8.99533 15.7205 9.10396C15.7195 9.2126 15.697 9.31996 15.6541 9.41978C15.6112 9.51961 15.5489 9.60989 15.4707 9.68536L13.1569 12L15.4707 14.3146Z" fill="white"/>
</svg>
