<svg width="16" height="16" viewBox="0 0 16 16" fill="none" xmlns="http://www.w3.org/2000/svg">
<path d="M7.99991 15.655H2.58342C2.24084 15.655 1.95522 15.4948 1.81932 15.2266C1.68346 14.9583 1.72338 14.6332 1.92612 14.357L2.60686 13.4323C1.16346 11.9988 0.345337 10.0481 0.345337 8.00035C0.345337 3.77957 3.77917 0.345703 7.99991 0.345703C12.2208 0.345703 15.6546 3.77957 15.6546 8.00035C15.6546 12.2212 12.2208 15.655 7.99991 15.655ZM7.99991 14.4831C11.5746 14.4831 14.4828 11.575 14.4828 8.00035C14.4828 4.42574 11.5746 1.51758 7.99991 1.51758C4.42534 1.51758 1.51721 4.42574 1.51721 8.00035C1.51721 9.88887 2.33885 11.6799 3.77147 12.9143L4.18256 13.2684L3.28842 14.4831H7.99991Z" fill="white"/>
<path d="M5.9593 8.00121C5.9593 8.4516 5.59422 8.81676 5.14379 8.81676C4.69328 8.81676 4.32812 8.4516 4.32812 8.00121C4.32812 7.5507 4.69328 7.18555 5.14379 7.18555C5.59422 7.18555 5.9593 7.55074 5.9593 8.00121Z" fill="white"/>
<path d="M8.0003 8.81664C8.45071 8.81664 8.81585 8.45151 8.81585 8.00109C8.81585 7.55068 8.45071 7.18555 8.0003 7.18555C7.54989 7.18555 7.18475 7.55068 7.18475 8.00109C7.18475 8.45151 7.54989 8.81664 8.0003 8.81664Z" fill="white"/>
<path d="M10.857 8.81672C11.3074 8.81672 11.6726 8.45157 11.6726 8.00113C11.6726 7.5507 11.3074 7.18555 10.857 7.18555C10.4065 7.18555 10.0414 7.5507 10.0414 8.00113C10.0414 8.45157 10.4065 8.81672 10.857 8.81672Z" fill="white"/>
</svg>
