<svg width="21" height="20" viewBox="0 0 21 20" fill="none" xmlns="http://www.w3.org/2000/svg">
<path d="M12.1667 15.0013C15.8486 15.0013 18.8333 12.0166 18.8333 8.33464C18.8333 4.65274 15.8486 1.66797 12.1667 1.66797C8.48477 1.66797 5.5 4.65274 5.5 8.33464C5.5 12.0166 8.48477 15.0013 12.1667 15.0013Z" stroke="#008F34" stroke-width="1.5" stroke-linecap="round" stroke-linejoin="round"/>
<path d="M3.1308 9.16797C2.52135 10.0993 2.16699 11.2126 2.16699 12.4086C2.16699 15.6815 4.82014 18.3346 8.09296 18.3346C9.28908 18.3346 10.4023 17.9803 11.3337 17.3708" stroke="#008F34" stroke-width="1.5" stroke-linecap="round" stroke-linejoin="round"/>
<path d="M12.1667 5.83333C11.2462 5.83333 10.5 6.39297 10.5 7.08333C10.5 7.77369 11.2462 8.33333 12.1667 8.33333C13.0872 8.33333 13.8333 8.893 13.8333 9.58333C13.8333 10.2737 13.0872 10.8333 12.1667 10.8333M12.1667 5.83333C12.8923 5.83333 13.5097 6.18117 13.7385 6.66667M12.1667 5.83333V5M12.1667 10.8333C11.441 10.8333 10.8237 10.4855 10.5948 10M12.1667 10.8333V11.6667" stroke="#008F34" stroke-width="1.5" stroke-linecap="round" stroke-linejoin="round"/>
</svg>
