<svg width="20" height="20" viewBox="0 0 20 20" fill="none" xmlns="http://www.w3.org/2000/svg">
<path d="M4.5835 15C3.7968 15.3293 3.3335 15.8905 3.3335 16.3271C3.3335 17.4351 6.31826 18.3333 10.0002 18.3333C13.6821 18.3333 16.6668 17.4351 16.6668 16.3271C16.6668 15.8905 16.2035 15.3293 15.4168 15" stroke="white" stroke-linecap="round" stroke-linejoin="round"/>
<path d="M12.0832 7.5013C12.0832 8.65189 11.1504 9.58464 9.99984 9.58464C8.84925 9.58464 7.9165 8.65189 7.9165 7.5013C7.9165 6.35071 8.84925 5.41797 9.99984 5.41797C11.1504 5.41797 12.0832 6.35071 12.0832 7.5013Z" stroke="white" stroke-linecap="round" stroke-linejoin="round"/>
<path d="M9.99984 1.66797C6.77818 1.66797 4.1665 4.23062 4.1665 7.3918C4.1665 10.7478 7.24384 12.4666 9.23617 14.806C9.62717 15.2651 10.3898 15.2772 10.7882 14.8245C12.8115 12.5247 15.8332 10.6825 15.8332 7.3918C15.8332 4.23062 13.2215 1.66797 9.99984 1.66797Z" stroke="white" stroke-linejoin="round"/>
</svg>
