<svg width="20" height="20" viewBox="0 0 20 20" fill="none" xmlns="http://www.w3.org/2000/svg">
<path d="M13.2281 18.7441C12.9186 18.7694 12.6073 18.7272 12.3157 18.6204C12.0241 18.5135 11.7592 18.3446 11.5393 18.1253C11.1512 17.9691 8.97869 12.5909 8.72869 12.1591L12.8831 8.00469C12.9413 7.94678 12.9875 7.87793 13.0191 7.8021C13.0506 7.72627 13.0668 7.64495 13.0668 7.56282C13.0668 7.48069 13.0506 7.39937 13.0191 7.32353C12.9875 7.2477 12.9413 7.17885 12.8831 7.12094C12.8255 7.06217 12.7567 7.01548 12.6808 6.98361C12.605 6.95174 12.5235 6.93532 12.4412 6.93532C12.3589 6.93532 12.2774 6.95174 12.2016 6.98361C12.1257 7.01548 12.0569 7.06217 11.9993 7.12094L7.84494 11.2753L2.53244 8.91532C2.12215 8.73641 1.77828 8.43336 1.54923 8.0488C1.32018 7.66424 1.21747 7.21755 1.25557 6.77157C1.28855 6.32603 1.46015 5.90198 1.74631 5.55889C2.03246 5.2158 2.41881 4.97087 2.85119 4.85844L16.0299 1.32282C16.3968 1.2235 16.7835 1.22312 17.1506 1.3217C17.5177 1.42028 17.8522 1.61431 18.1199 1.88407C18.3885 2.15181 18.5815 2.48582 18.6793 2.85221C18.7771 3.21861 18.7762 3.60436 18.6768 3.97032L15.1412 17.1484C15.0288 17.5808 14.7838 17.9672 14.4407 18.2533C14.0977 18.5395 13.6736 18.7111 13.2281 18.7441Z" fill="white"/>
</svg>
