<svg width="21" height="20" viewBox="0 0 21 20" fill="none" xmlns="http://www.w3.org/2000/svg">
<rect x="6" y="5" width="10" height="10" fill="#212B36"/>
<circle cx="11" cy="10" r="9.5" stroke="#919EAB" stroke-opacity="0.48"/>
<path d="M11 1C9.21997 1 7.47991 1.52784 5.99987 2.51677C4.51983 3.50571 3.36628 4.91131 2.68509 6.55585C2.0039 8.20038 1.82567 10.01 2.17294 11.7558C2.5202 13.5016 3.37737 15.1053 4.63604 16.364C5.89472 17.6226 7.49836 18.4798 9.24419 18.8271C10.99 19.1743 12.7996 18.9961 14.4442 18.3149C16.0887 17.6337 17.4943 16.4802 18.4832 15.0001C19.4722 13.5201 20 11.78 20 10C19.9972 7.61391 19.0481 5.32636 17.3609 3.63915C15.6736 1.95193 13.3861 1.00281 11 1ZM14.4707 12.3146C14.5489 12.3901 14.6112 12.4804 14.6541 12.5802C14.697 12.68 14.7195 12.7874 14.7205 12.896C14.7214 13.0047 14.7007 13.1124 14.6596 13.213C14.6184 13.3135 14.5577 13.4049 14.4809 13.4817C14.404 13.5585 14.3127 13.6193 14.2121 13.6604C14.1116 13.7015 14.0039 13.7222 13.8952 13.7213C13.7866 13.7203 13.6792 13.6978 13.5794 13.6549C13.4796 13.612 13.3893 13.5497 13.3138 13.4715L11 11.1569L8.68618 13.4715C8.53187 13.6206 8.3252 13.703 8.11067 13.7012C7.89615 13.6993 7.69094 13.6133 7.53924 13.4616C7.38754 13.3099 7.3015 13.1047 7.29963 12.8901C7.29777 12.6756 7.38024 12.4689 7.52928 12.3146L9.84309 10L7.52928 7.68536C7.45113 7.60989 7.3888 7.51961 7.34592 7.41978C7.30304 7.31996 7.28047 7.2126 7.27953 7.10396C7.27858 6.99533 7.29928 6.88759 7.34042 6.78704C7.38156 6.68648 7.44231 6.59513 7.51913 6.51831C7.59596 6.44149 7.68731 6.38074 7.78786 6.3396C7.88841 6.29846 7.99615 6.27776 8.10478 6.2787C8.21342 6.27965 8.32078 6.30222 8.42061 6.3451C8.52043 6.38798 8.61071 6.45031 8.68618 6.52845L11 8.84309L13.3138 6.52845C13.3893 6.45031 13.4796 6.38798 13.5794 6.3451C13.6792 6.30222 13.7866 6.27965 13.8952 6.2787C14.0039 6.27776 14.1116 6.29846 14.2121 6.3396C14.3127 6.38074 14.404 6.44149 14.4809 6.51831C14.5577 6.59513 14.6184 6.68648 14.6596 6.78704C14.7007 6.88759 14.7214 6.99533 14.7205 7.10396C14.7195 7.2126 14.697 7.31996 14.6541 7.41978C14.6112 7.51961 14.5489 7.60989 14.4707 7.68536L12.1569 10L14.4707 12.3146Z" fill="white"/>
</svg>
