<svg width="251" height="250" viewBox="0 0 251 250" fill="none" xmlns="http://www.w3.org/2000/svg">
<g clip-path="url(#clip0_830_77330)">
<path d="M250.5 191.203H0.5V191.328H250.5V191.203Z" fill="#EBEBEB"/>
<path d="M69.33 194.602H52.77V194.727H69.33V194.602Z" fill="#EBEBEB"/>
<path d="M106.445 199.188H86.07V199.312H106.445V199.188Z" fill="#EBEBEB"/>
<path d="M52.27 197.617H26.73V197.742H52.27V197.617Z" fill="#EBEBEB"/>
<path d="M225.45 195.445H178.88V195.57H225.45V195.445Z" fill="#EBEBEB"/>
<path d="M174.43 195.445H171.265V195.57H174.43V195.445Z" fill="#EBEBEB"/>
<path d="M160.22 197.555H139.105V197.68H160.22V197.555Z" fill="#EBEBEB"/>
<path d="M119 168.9H22.455C21.6987 168.899 20.9738 168.597 20.4394 168.062C19.9051 167.527 19.605 166.801 19.605 166.045V30.33C19.6116 29.578 19.9146 28.859 20.4482 28.3291C20.9818 27.7992 21.703 27.5013 22.455 27.5H119C119.757 27.5 120.483 27.8008 121.019 28.3362C121.554 28.8716 121.855 29.5978 121.855 30.355V166.045C121.855 166.802 121.554 167.528 121.019 168.064C120.483 168.599 119.757 168.9 119 168.9ZM22.455 27.6C21.7318 27.6013 21.0387 27.8895 20.5278 28.4014C20.0169 28.9132 19.73 29.6068 19.73 30.33V166.045C19.73 166.768 20.0169 167.462 20.5278 167.974C21.0387 168.485 21.7318 168.774 22.455 168.775H119C119.724 168.774 120.417 168.486 120.929 167.974C121.441 167.462 121.729 166.769 121.73 166.045V30.33C121.729 29.6064 121.441 28.9127 120.929 28.4011C120.417 27.8894 119.724 27.6013 119 27.6H22.455Z" fill="#EBEBEB"/>
<path d="M227.155 168.9H130.605C129.848 168.899 129.123 168.597 128.588 168.062C128.053 167.527 127.751 166.802 127.75 166.045V30.33C127.758 29.5776 128.062 28.8585 128.596 28.3288C129.131 27.7991 129.853 27.5013 130.605 27.5H227.155C227.906 27.5026 228.626 27.8011 229.159 28.3309C229.691 28.8606 229.993 29.5789 230 30.33V166.045C230 166.8 229.701 167.525 229.167 168.06C228.634 168.595 227.91 168.897 227.155 168.9ZM130.605 27.6C129.881 27.6013 129.188 27.8894 128.676 28.4011C128.164 28.9127 127.876 29.6064 127.875 30.33V166.045C127.876 166.769 128.164 167.462 128.676 167.974C129.188 168.486 129.881 168.774 130.605 168.775H227.155C227.879 168.774 228.572 168.486 229.084 167.974C229.596 167.462 229.884 166.769 229.885 166.045V30.33C229.884 29.6064 229.596 28.9127 229.084 28.4011C228.572 27.8894 227.879 27.6013 227.155 27.6H130.605Z" fill="#EBEBEB"/>
<path d="M115.695 191.199V90.6094H75.32V191.199H115.695Z" fill="#F0F0F0"/>
<path d="M113.475 122.743V93.1328H77.535V122.743H113.475Z" fill="#E6E6E6"/>
<path d="M113.48 155.016V125.406H77.54V155.016H113.48Z" fill="#E6E6E6"/>
<path d="M113.48 187.282V157.672H77.54V187.282H113.48Z" fill="#E6E6E6"/>
<path d="M113.48 122.743V93.1328H99.345V122.743H113.48Z" fill="#E0E0E0"/>
<path d="M113.475 155.008V125.398H99.34V155.008H113.475Z" fill="#E0E0E0"/>
<path d="M93.015 143.188H83.22V155.018H93.015V143.188Z" fill="#FAFAFA"/>
<path d="M79.085 155.008H83.22V143.178H79.085V155.008Z" fill="#F0F0F0"/>
<path d="M108.835 143.188H99.04V155.018H108.835V143.188Z" fill="#FAFAFA"/>
<path d="M94.91 155.008H99.045V143.178H94.91V155.008Z" fill="#F0F0F0"/>
<path d="M101.1 131.352H91.305V143.182H101.1V131.352Z" fill="#FAFAFA"/>
<path d="M87.17 143.188H91.305V131.357H87.17V143.188Z" fill="#F0F0F0"/>
<path d="M113.48 187.282V157.672H99.345V187.282H113.48Z" fill="#E0E0E0"/>
<path d="M75.32 191.199V90.6094H64.355V191.199H75.32Z" fill="#F5F5F5"/>
<path d="M111.04 161.938H81.855V187.277H111.04V161.938Z" fill="#F0F0F0"/>
<path d="M77.54 187.273H81.86V161.933H77.54V187.273Z" fill="#E0E0E0"/>
<path d="M111.04 97.4062H81.855V122.746H111.04V97.4062Z" fill="#F0F0F0"/>
<path d="M77.54 122.742H81.86V97.4022H77.54V122.742Z" fill="#E0E0E0"/>
<path d="M213.5 191.201V43.8359L143.94 43.8359V191.201H213.5Z" fill="#FAFAFA"/>
<path d="M143.94 191.201V43.8359H143.68V191.201H143.94Z" fill="#F0F0F0"/>
<path d="M205.75 48.6719H148.97V191.202H205.75V48.6719Z" fill="#E6E6E6"/>
<path d="M208.79 48.6719H150.39V191.202H208.79V48.6719Z" fill="#F0F0F0"/>
<path d="M204.535 121.117V122.912L206.33 121.117H204.535Z" fill="#E0E0E0"/>
<path d="M204.535 186.945V52.9297H154.645V186.945H204.535Z" fill="#FAFAFA"/>
<path d="M195.26 120.391C194.894 120.391 194.543 120.536 194.284 120.795C194.025 121.054 193.88 121.405 193.88 121.771C193.88 122.137 194.025 122.488 194.284 122.746C194.543 123.005 194.894 123.151 195.26 123.151H204V120.391H195.26Z" fill="#F5F5F5"/>
<path d="M165.59 186.945L180.815 52.9297H191.07L175.845 186.945H165.59Z" fill="white"/>
<path d="M178.05 186.945L193.275 52.9297H197.275L182.05 186.945H178.05Z" fill="white"/>
<path d="M204.535 186.937V52.9219H203.995V186.937H204.535Z" fill="#E6E6E6"/>
<path d="M205.855 121.315H197.12C196.754 121.313 196.404 121.168 196.146 120.909C195.887 120.651 195.741 120.3 195.74 119.935C195.741 119.569 195.887 119.219 196.146 118.96C196.404 118.702 196.754 118.556 197.12 118.555H205.855C206.221 118.555 206.572 118.7 206.831 118.959C207.09 119.218 207.235 119.569 207.235 119.935C207.235 120.301 207.09 120.652 206.831 120.91C206.572 121.169 206.221 121.315 205.855 121.315Z" fill="#EBEBEB"/>
<path d="M57.03 60.9219H32.485V99.9669H57.03V60.9219Z" fill="#E0E0E0"/>
<path d="M58.505 60.9219H33.13V99.9669H58.505V60.9219Z" fill="#F5F5F5"/>
<path d="M35.26 63.7672V97.1172H56.385V63.7672H35.26Z" fill="white"/>
<path d="M91.685 42.0859H67.14V81.1309H91.685V42.0859Z" fill="#E0E0E0"/>
<path d="M93.165 42.0859H67.79V81.1309H93.165V42.0859Z" fill="#F5F5F5"/>
<path d="M69.915 44.9312V78.2812H91.04V44.9312H69.915Z" fill="white"/>
<path d="M125.5 213.781C179.041 213.781 222.445 211.247 222.445 208.121C222.445 204.995 179.041 202.461 125.5 202.461C71.9587 202.461 28.555 204.995 28.555 208.121C28.555 211.247 71.9587 213.781 125.5 213.781Z" fill="#F5F5F5"/>
<path d="M82.315 62.6172C83.39 64.0422 83.52 65.7922 82.365 68.6172C81.865 69.7772 81.215 70.9122 79.765 68.9672C78.315 67.0222 77.07 63.4672 79.265 63.1522C81.46 62.8372 82.315 62.6172 82.315 62.6172Z" fill="#263238"/>
<path d="M81.85 203.449H85.565L85.725 194.844H82.01L81.85 203.449Z" fill="#FFC3BD"/>
<path d="M54.27 196.847L57.87 197.762L61.595 189.837L57.995 188.922L54.27 196.847Z" fill="#FFC3BD"/>
<path d="M58.35 197.383L54.395 196.048C54.326 196.025 54.2508 196.026 54.1824 196.051C54.114 196.077 54.0566 196.125 54.02 196.188L52.345 199.103C52.3048 199.176 52.281 199.256 52.2754 199.338C52.2698 199.421 52.2825 199.503 52.3126 199.58C52.3427 199.657 52.3895 199.726 52.4495 199.783C52.5096 199.84 52.5815 199.883 52.66 199.908C54.05 200.353 54.745 200.498 56.485 201.088C57.555 201.448 60.6 202.728 62.08 203.228C63.56 203.728 64.205 202.323 63.645 201.983C61.12 200.483 59.475 198.878 58.85 197.798C58.7387 197.604 58.5612 197.457 58.35 197.383Z" fill="#263238"/>
<path d="M85.53 203H81.5C81.4275 203 81.357 203.024 81.3005 203.07C81.244 203.115 81.205 203.179 81.19 203.25L80.5 206.57C80.4853 206.651 80.4887 206.734 80.5098 206.814C80.531 206.893 80.5694 206.967 80.6224 207.03C80.6754 207.093 80.7417 207.144 80.8164 207.179C80.8912 207.213 80.9727 207.231 81.055 207.23C82.515 207.23 84.63 207.12 86.465 207.12C88.62 207.12 89.07 207.235 91.59 207.235C93.115 207.235 93.5 205.695 92.86 205.555C89.935 204.92 88.975 204.85 86.425 203.305C86.1601 203.124 85.8506 203.018 85.53 203Z" fill="#263238"/>
<path d="M84.565 85.9531L89.635 84.3281C89.635 84.3281 94.875 96.4581 96.635 97.2131C99.025 98.2131 100.895 99.9181 103.96 100.213C104.375 100.688 105.055 102.213 104.99 102.783C100.875 104.333 94.535 102.688 92.79 101.073C88.795 97.4031 84.565 85.9531 84.565 85.9531Z" fill="#FFC3BD"/>
<path d="M83.38 83.1677C81.955 86.4177 87.68 96.7377 87.68 96.7377L95.255 93.2377C94.3249 90.0878 93.0663 87.0444 91.5 84.1577C89.12 80.0027 84.945 79.5977 83.38 83.1677Z" fill="#407BFF"/>
<path opacity="0.5" d="M83.38 83.1677C81.955 86.4177 87.68 96.7377 87.68 96.7377L95.255 93.2377C94.3249 90.0878 93.0663 87.0444 91.5 84.1577C89.12 80.0027 84.945 79.5977 83.38 83.1677Z" fill="black"/>
<path d="M103.33 100.219L106.19 98.7188L107.645 102.924C107.645 102.924 106.71 103.339 104.04 103.009L103.33 100.219Z" fill="#FFC3BD"/>
<path d="M109.04 97.6641L109.955 101.259L107.645 102.939L106.19 98.7341L109.04 97.6641Z" fill="#FFC3BD"/>
<path opacity="0.2" d="M85.725 194.844L85.645 199.279H81.925L82.01 194.844H85.725Z" fill="black"/>
<path opacity="0.2" d="M57.99 188.922L61.595 189.837L59.67 193.922L56.07 193.007L57.99 188.922Z" fill="black"/>
<path d="M88.235 81.0582C88.235 81.0582 92.895 93.8232 89.235 114.713H69.375C69.16 111.663 70.715 95.2382 67.42 80.8682C69.6093 80.4437 71.8241 80.1631 74.05 80.0282C76.8627 79.8656 79.6824 79.8656 82.495 80.0282C84.4319 80.2243 86.3509 80.5686 88.235 81.0582Z" fill="#407BFF"/>
<path opacity="0.5" d="M88.235 81.0582C88.235 81.0582 92.895 93.8232 89.235 114.713H69.375C69.16 111.663 70.715 95.2382 67.42 80.8682C69.6093 80.4437 71.8241 80.1631 74.05 80.0282C76.8627 79.8656 79.6824 79.8656 82.495 80.0282C84.4319 80.2243 86.3509 80.5686 88.235 81.0582Z" fill="black"/>
<path opacity="0.2" d="M71.825 84.4168C72.21 86.7818 71.605 92.4168 69.51 98.9768C69.4087 93.3753 68.813 87.7936 67.73 82.2968V82.2668C69.035 82.1368 71.45 82.1968 71.825 84.4168Z" fill="black"/>
<path d="M74.96 72.125C75.56 74.845 75.905 78.21 74.05 80.025C74.05 80.025 75.21 82.78 80.26 82.78C84.875 82.78 82.495 80.025 82.495 80.025C79.45 79.3 79.495 75.555 79.995 73.445L74.96 72.125Z" fill="#FFC3BD"/>
<path d="M80.26 82.7819C79.7329 83.5566 79.4207 84.4572 79.355 85.3919C79.355 85.3919 72.975 83.1619 73.19 79.8919C73.19 79.8919 74.075 79.3569 74.635 78.9219C74.635 78.9269 74.905 81.5019 80.26 82.7819Z" fill="white"/>
<path d="M80.26 82.7784C80.8022 83.5199 81.2396 84.3326 81.56 85.1934C81.56 85.1934 84.38 83.2534 83.44 80.0234C82.9089 79.8143 82.3622 79.6472 81.805 79.5234C81.805 79.5234 82.235 82.0834 80.26 82.7784Z" fill="white"/>
<path opacity="0.2" d="M80 73.445C79.6258 74.9143 79.669 76.4589 80.125 77.905C79.6537 77.8347 79.1954 77.6948 78.765 77.49C77.035 76.685 76.16 75.42 75.24 73.535C75.16 73.035 75.07 72.585 74.965 72.125L80 73.445Z" fill="black"/>
<path d="M84.635 71.1438C84.4444 71.5562 84.1726 71.9259 83.8358 72.2309C83.499 72.5359 83.1042 72.7699 82.675 72.9188C81.52 73.3088 80.86 72.2738 81.11 71.1338C81.335 70.1338 82.205 68.6738 83.395 68.7788C83.6566 68.8089 83.9068 68.9025 84.1239 69.0514C84.341 69.2004 84.5184 69.4001 84.6407 69.6333C84.7629 69.8664 84.8263 70.126 84.8253 70.3892C84.8243 70.6525 84.759 70.9115 84.635 71.1438Z" fill="#FFC3BD"/>
<path opacity="0.2" d="M84.635 71.1438C84.4444 71.5562 84.1726 71.9259 83.8358 72.2309C83.499 72.5359 83.1042 72.7699 82.675 72.9188C81.52 73.3088 80.86 72.2738 81.11 71.1338C81.335 70.1338 82.205 68.6738 83.395 68.7788C83.6566 68.8089 83.9068 68.9025 84.1239 69.0514C84.341 69.2004 84.5184 69.4001 84.6407 69.6333C84.7629 69.8664 84.8263 70.126 84.8253 70.3892C84.8243 70.6525 84.759 70.9115 84.635 71.1438Z" fill="black"/>
<path d="M73.27 68.2271C73.95 71.8821 74.165 74.0571 76.23 75.7521C79.34 78.3071 83.615 76.1521 84.025 72.3821C84.395 68.9921 83.225 63.5821 79.49 62.4871C78.6718 62.2427 77.8041 62.2154 76.9721 62.408C76.1402 62.6006 75.3728 63.0065 74.7452 63.5856C74.1177 64.1647 73.6517 64.8972 73.393 65.711C73.1343 66.5248 73.092 67.3919 73.27 68.2271Z" fill="#FFC3BD"/>
<path d="M75.8 64.0456C76.64 65.6156 76.2 66.6406 75.04 69.4356C74.54 70.5956 73.75 71.8306 72.44 69.7856C71.205 67.8556 69.32 64.2856 70.94 63.8956C73.105 63.4056 75.8 64.0456 75.8 64.0456Z" fill="#263238"/>
<path d="M74.745 65.0718C76.245 65.5718 77.435 64.8168 77.72 64.0968C78.92 64.6268 80.495 64.6968 81.005 64.0168C82.005 64.0168 83.075 64.1968 83.555 62.7668C84.035 61.3368 83.44 60.0518 81.87 59.3268C81.835 59.6468 81.02 60.0618 80.255 59.5318C79.826 59.2902 79.3363 59.1778 78.8449 59.2079C78.3535 59.2381 77.8813 59.4096 77.485 59.7018C75.85 59.2768 74.695 59.0418 73.755 60.1168C72.2 59.7918 70.305 61.2018 70.565 62.4268C69.345 63.9268 70.525 65.1718 71.775 65.3868C72.025 66.0018 74.415 65.7068 74.745 65.0718Z" fill="#263238"/>
<path d="M72.135 72.4531C72.7135 73.1834 73.5556 73.6574 74.48 73.7731C75.695 73.9131 76.085 72.7731 75.565 71.7131C75.095 70.7581 73.895 69.5431 72.765 69.8881C71.635 70.2331 71.425 71.5431 72.135 72.4531Z" fill="#FFC3BD"/>
<path d="M76.185 114.711C76.185 114.711 76.58 119.381 77.08 125.711C77.655 132.886 78.36 142.211 78.78 149.296C78.78 149.336 78.78 149.366 78.78 149.396C78.86 150.741 78.93 152.006 78.985 153.161C79.55 164.736 80.71 198.421 80.71 198.421H87C87 198.421 90.165 164.046 90.3 152.266C90.425 140.936 89.235 114.711 89.235 114.711H76.185Z" fill="#263238"/>
<path d="M80.25 196.505C80.225 196.505 80.3 198.56 80.3 198.56H87.555L87.805 196.25L80.25 196.505Z" fill="#407BFF"/>
<path opacity="0.2" d="M77.08 125.711C77.655 132.886 78.36 142.211 78.78 149.296C78.78 149.336 78.78 149.366 78.78 149.396C80.32 142.666 80.945 134.296 80.725 120.516L77.08 125.711Z" fill="black"/>
<path d="M82.195 114.711C82.195 114.711 78.695 141.551 76.62 152.211C74.37 163.856 61.54 193.536 61.54 193.536L54.945 191.861C54.945 191.861 64.34 164.796 65.505 153.266C66.765 140.766 69.375 114.736 69.375 114.736L82.195 114.711Z" fill="#263238"/>
<path d="M55.34 190.109C55.315 190.109 54.59 191.879 54.59 191.879L61.835 193.724L62.965 191.759L55.34 190.109Z" fill="#407BFF"/>
<path d="M78.905 68.6738C78.945 68.9738 79.13 69.1988 79.325 69.1738C79.52 69.1488 79.645 68.8938 79.605 68.5938C79.565 68.2937 79.38 68.0938 79.19 68.0938C79 68.0938 78.87 68.3738 78.905 68.6738Z" fill="#263238"/>
<path d="M82.25 68.3241C82.285 68.6241 82.47 68.8241 82.665 68.8241C82.86 68.8241 82.985 68.5441 82.945 68.2441C82.905 67.9441 82.725 67.7191 82.53 67.7441C82.335 67.7691 82.21 68.0241 82.25 68.3241Z" fill="#263238"/>
<path d="M81.205 68.5859C81.6698 69.4655 82.2518 70.2779 82.935 71.0009C82.7504 71.1685 82.5307 71.2926 82.2919 71.3644C82.0532 71.4362 81.8014 71.4538 81.555 71.4159L81.205 68.5859Z" fill="#ED847E"/>
<path d="M80.81 72.2513C80.8325 72.2465 80.8525 72.2337 80.8663 72.2153C80.8801 72.197 80.8867 72.1742 80.885 72.1513C80.8813 72.1282 80.8688 72.1076 80.8502 72.0936C80.8315 72.0796 80.8082 72.0734 80.785 72.0763C80.4155 72.1331 80.0378 72.102 79.6825 71.9856C79.3272 71.8692 79.0043 71.6707 78.74 71.4063C78.7227 71.3911 78.7005 71.3828 78.6775 71.3828C78.6545 71.3828 78.6323 71.3911 78.615 71.4063C78.5988 71.423 78.5898 71.4454 78.5898 71.4688C78.5898 71.4921 78.5988 71.5145 78.615 71.5313C78.8972 71.8173 79.2436 72.0318 79.6254 72.157C80.0071 72.2822 80.4133 72.3145 80.81 72.2513Z" fill="#263238"/>
<path d="M77.765 67.687C77.7911 67.6836 77.8163 67.6748 77.8387 67.661C77.8611 67.6472 77.8803 67.6288 77.895 67.607C77.9982 67.4139 78.1468 67.2489 78.328 67.1261C78.5092 67.0033 78.7175 66.9264 78.935 66.902C78.958 66.9007 78.9805 66.8949 79.0013 66.8849C79.022 66.8749 79.0406 66.8609 79.0559 66.8437C79.0713 66.8265 79.0831 66.8065 79.0906 66.7847C79.0982 66.763 79.1014 66.7399 79.1 66.717C79.0974 66.6701 79.0767 66.6261 79.0421 66.5943C79.0075 66.5626 78.9619 66.5456 78.915 66.547C78.6392 66.5722 78.3738 66.6654 78.1426 66.818C77.9115 66.9707 77.7216 67.1782 77.59 67.422C77.5679 67.4626 77.5623 67.5103 77.5744 67.555C77.5865 67.5997 77.6154 67.638 77.655 67.662C77.6871 67.6843 77.7265 67.6932 77.765 67.687Z" fill="#263238"/>
<path d="M83.6 66.9641C83.6252 66.9593 83.6491 66.9491 83.67 66.9341C83.6889 66.9207 83.705 66.9036 83.7171 66.8839C83.7292 66.8641 83.7371 66.8421 83.7404 66.8191C83.7437 66.7962 83.7422 66.7728 83.7361 66.7504C83.73 66.7281 83.7195 66.7072 83.705 66.6891C83.5474 66.457 83.337 66.2657 83.0909 66.131C82.8449 65.9962 82.5704 65.9219 82.29 65.9141C82.2668 65.9147 82.2439 65.92 82.2228 65.9298C82.2018 65.9395 82.1829 65.9535 82.1675 65.9708C82.152 65.9882 82.1402 66.0085 82.1329 66.0306C82.1256 66.0526 82.1229 66.0759 82.125 66.0991C82.1276 66.1459 82.1484 66.1899 82.1829 66.2217C82.2175 66.2534 82.2631 66.2704 82.31 66.2691C82.532 66.2776 82.7489 66.3388 82.9427 66.4474C83.1365 66.5561 83.3018 66.7091 83.425 66.8941C83.4452 66.9203 83.4721 66.9407 83.5029 66.953C83.5337 66.9653 83.5672 66.9691 83.6 66.9641Z" fill="#263238"/>
<path d="M65.5 86.4141L70.285 88.9791C70.285 88.9791 64.835 100.784 65.545 102.539C66.51 104.929 68.045 110.209 69.695 112.809C69.565 113.409 68.755 114.809 68.255 115.114C64.44 112.764 60.05 104.749 59.97 102.414C59.79 97.0941 65.5 86.4141 65.5 86.4141Z" fill="#FFC3BD"/>
<path d="M67.42 80.8653C63.92 81.3653 60.19 93.5553 60.19 93.5553L67.69 97.7253C67.69 97.7253 70.8 91.9303 72.295 87.6303C73.85 83.1253 71.175 80.3153 67.42 80.8653Z" fill="#407BFF"/>
<path opacity="0.5" d="M67.42 80.8653C63.92 81.3653 60.19 93.5553 60.19 93.5553L67.69 97.7253C67.69 97.7253 70.8 91.9303 72.295 87.6303C73.85 83.1253 71.175 80.3153 67.42 80.8653Z" fill="black"/>
<path d="M59.32 198.397C59.5506 198.496 59.8081 198.513 60.05 198.447C60.1306 198.413 60.2016 198.359 60.2565 198.291C60.3115 198.223 60.3488 198.143 60.365 198.057C60.3798 198.007 60.381 197.955 60.3687 197.905C60.3564 197.855 60.331 197.809 60.295 197.772C59.97 197.442 58.615 197.772 58.46 197.772C58.4434 197.775 58.4283 197.784 58.4168 197.797C58.4052 197.809 58.3976 197.825 58.395 197.842C58.3933 197.859 58.3967 197.877 58.4046 197.893C58.4126 197.909 58.4248 197.922 58.44 197.932C58.7141 198.121 59.0095 198.277 59.32 198.397ZM60.07 197.842C60.1086 197.848 60.1438 197.868 60.17 197.897C60.1806 197.914 60.1862 197.934 60.1862 197.954C60.1862 197.974 60.1806 197.994 60.17 198.012C60.1597 198.07 60.1352 198.126 60.0986 198.173C60.062 198.22 60.0144 198.257 59.96 198.282C59.5063 198.328 59.052 198.199 58.69 197.922C59.1395 197.799 59.6095 197.772 60.07 197.842Z" fill="#407BFF"/>
<path d="M58.455 197.968H58.5C58.925 197.888 59.87 197.353 59.92 196.928C59.9272 196.862 59.9118 196.795 59.8764 196.739C59.841 196.683 59.7877 196.64 59.725 196.618C59.6633 196.592 59.597 196.578 59.53 196.578C59.463 196.578 59.3967 196.592 59.335 196.618C58.835 196.818 58.42 197.813 58.4 197.853C58.3926 197.867 58.3887 197.882 58.3887 197.898C58.3887 197.913 58.3926 197.929 58.4 197.943C58.4144 197.958 58.4341 197.967 58.455 197.968ZM59.615 196.768H59.65C59.755 196.818 59.75 196.873 59.745 196.898C59.745 197.143 59.085 197.583 58.64 197.733C58.775 197.448 59.07 196.893 59.4 196.763C59.4701 196.74 59.5461 196.741 59.615 196.768Z" fill="#407BFF"/>
<path d="M87.095 203.659C87.4103 203.688 87.7259 203.609 87.99 203.434C88.0482 203.38 88.0926 203.313 88.1196 203.238C88.1465 203.163 88.1552 203.083 88.145 203.004C88.1413 202.956 88.1257 202.909 88.0995 202.868C88.0734 202.827 88.0375 202.793 87.995 202.769C87.535 202.519 86.06 203.269 85.895 203.364C85.8789 203.373 85.8659 203.386 85.8578 203.402C85.8497 203.418 85.847 203.437 85.85 203.454C85.8527 203.473 85.8608 203.49 85.8733 203.503C85.8858 203.516 85.9021 203.526 85.92 203.529C86.3071 203.607 86.7003 203.651 87.095 203.659ZM87.745 202.894C87.8016 202.892 87.858 202.902 87.91 202.924C87.9273 202.934 87.9419 202.948 87.9524 202.964C87.9629 202.981 87.969 203 87.97 203.019C87.9777 203.072 87.9726 203.125 87.9552 203.174C87.9377 203.224 87.9085 203.269 87.87 203.304C87.645 203.504 87.035 203.539 86.21 203.404C86.6889 203.148 87.2081 202.976 87.745 202.894Z" fill="#407BFF"/>
<path d="M85.94 203.529H86C86.445 203.324 87.31 202.529 87.235 202.104C87.235 202.004 87.14 201.879 86.9 201.859C86.8107 201.845 86.7195 201.851 86.633 201.877C86.5465 201.903 86.4669 201.948 86.4 202.009C85.935 202.394 85.86 203.394 85.86 203.439C85.8581 203.454 85.8603 203.47 85.8664 203.484C85.8726 203.498 85.8825 203.51 85.895 203.519C85.9092 203.525 85.9245 203.529 85.94 203.529ZM86.81 202.029H86.86C87.02 202.029 87.03 202.104 87.035 202.124C87.08 202.379 86.495 203.009 86.035 203.284C86.0638 202.863 86.2248 202.462 86.495 202.139C86.582 202.063 86.6943 202.022 86.81 202.024V202.029Z" fill="#407BFF"/>
<path d="M69 112.328L72.5 112.688L70.065 116.218C70.065 116.218 66.995 115.803 66.85 113.373L69 112.328Z" fill="#FFC3BD"/>
<path d="M74.52 114.06L72.16 117.145L70.1 116.225L72.535 112.695L74.52 114.06Z" fill="#FFC3BD"/>
<path d="M200.595 112.132L204.095 152.672C204.375 155.972 202.36 158.867 199.595 159.102L122.665 165.702C119.915 165.942 117.43 163.432 117.165 160.137L113.665 119.592C113.596 118.831 113.655 118.064 113.84 117.322C114.39 115.057 116.06 113.322 118.15 113.167L195.08 106.562C197.165 106.382 199.08 107.787 200.035 109.917C200.343 110.62 200.532 111.368 200.595 112.132Z" fill="#407BFF"/>
<path opacity="0.1" d="M200.595 112.132L204.095 152.672C204.375 155.972 202.36 158.867 199.595 159.102L122.665 165.702C119.915 165.942 117.43 163.432 117.165 160.137L113.665 119.592C113.596 118.831 113.655 118.064 113.84 117.322C114.39 115.057 116.06 113.322 118.15 113.167L195.08 106.562C197.165 106.382 199.08 107.787 200.035 109.917C200.343 110.62 200.532 111.368 200.595 112.132Z" fill="black"/>
<path d="M209.728 136.028L209.182 136.094L209.403 137.92L209.949 137.854L209.728 136.028Z" fill="#407BFF"/>
<path d="M208.664 127.207L208.118 127.273L208.94 134.079L209.486 134.013L208.664 127.207Z" fill="#407BFF"/>
<path d="M204.04 104.882L209.07 146.462C209.475 149.842 207.505 152.892 204.685 153.232L125.79 162.777C122.97 163.117 120.325 160.627 119.915 157.242L114.885 115.667C114.789 114.885 114.823 114.093 114.985 113.322C115.485 110.977 117.125 109.152 119.27 108.892L198.165 99.3518C200.31 99.0918 202.35 100.467 203.385 102.627C203.726 103.337 203.947 104.099 204.04 104.882Z" fill="#407BFF"/>
<path opacity="0.1" d="M203.385 102.627L167.6 126.722C165.849 127.919 163.835 128.677 161.729 128.932C159.623 129.187 157.486 128.931 155.5 128.187L115 113.322C115.5 110.977 117.14 109.152 119.285 108.892L198.18 99.3518C200.31 99.0918 202.35 100.467 203.385 102.627Z" fill="black"/>
<path d="M190.035 111.611L179.755 118.531L176.39 120.801L167.6 126.721C165.894 127.892 163.936 128.644 161.885 128.917C159.834 129.19 157.748 128.975 155.795 128.291L155.48 128.186L150.55 126.376L139.45 122.301L134.26 120.396L128.38 118.236L127.955 107.841L127 84.7412L172.165 82.9062L189.38 95.9512L189.56 100.386L190.035 111.611Z" fill="#407BFF"/>
<path opacity="0.7" d="M190.035 111.611L179.755 118.531L176.39 120.801L167.6 126.721C165.894 127.892 163.936 128.644 161.885 128.917C159.834 129.19 157.748 128.975 155.795 128.291L155.48 128.186L150.55 126.376L139.45 122.301L134.26 120.396L128.38 118.236L127.955 107.841L127 84.7412L172.165 82.9062L189.38 95.9512L189.56 100.386L190.035 111.611Z" fill="#FAFAFA"/>
<g opacity="0.9">
<path d="M183.67 100.543L133.67 102.573C133.391 102.584 133.119 102.486 132.912 102.299C132.704 102.112 132.578 101.852 132.56 101.573C132.55 101.295 132.649 101.024 132.836 100.818C133.023 100.612 133.282 100.486 133.56 100.468L183.56 98.4383C183.839 98.4273 184.111 98.5257 184.318 98.7125C184.526 98.8994 184.652 99.1598 184.67 99.4383C184.681 99.7167 184.582 99.9883 184.395 100.195C184.209 100.401 183.948 100.527 183.67 100.543Z" fill="white"/>
<path d="M183.935 107.189L133.935 109.219C133.656 109.23 133.384 109.131 133.177 108.945C132.969 108.758 132.843 108.497 132.825 108.219C132.815 107.94 132.914 107.669 133.101 107.462C133.287 107.255 133.547 107.128 133.825 107.109L183.825 105.079C184.104 105.069 184.375 105.168 184.582 105.354C184.789 105.541 184.916 105.801 184.935 106.079C184.943 106.357 184.844 106.628 184.658 106.835C184.472 107.041 184.213 107.168 183.935 107.189Z" fill="white"/>
<path d="M184.205 113.825L134.205 115.855C133.926 115.866 133.654 115.767 133.447 115.58C133.239 115.394 133.113 115.133 133.095 114.855C133.084 114.576 133.183 114.305 133.37 114.098C133.556 113.891 133.817 113.766 134.095 113.75L184.095 111.72C184.373 111.709 184.645 111.807 184.852 111.994C185.058 112.181 185.183 112.441 185.2 112.72C185.211 112.997 185.113 113.268 184.927 113.474C184.741 113.681 184.482 113.807 184.205 113.825Z" fill="white"/>
<path d="M179.755 118.531L176.39 120.801L139.45 122.301L134.26 120.396C134.303 120.391 134.347 120.391 134.39 120.396L179.755 118.531Z" fill="white"/>
<path d="M166.07 126.801V126.841C166.071 127.113 165.968 127.375 165.782 127.574C165.596 127.773 165.341 127.894 165.07 127.911L155.815 128.286L155.5 128.181L150.57 126.371L164.985 125.781C165.263 125.777 165.532 125.881 165.734 126.072C165.937 126.262 166.057 126.524 166.07 126.801Z" fill="white"/>
</g>
<path opacity="0.1" d="M189.4 95.9512L177.44 95.4362L172.185 82.9062L189.4 95.9512Z" fill="#263238"/>
<path d="M189.4 95.9512L177.795 93.9662L172.185 82.9062L189.4 95.9512Z" fill="#407BFF"/>
<path d="M212.405 47.4622C212.405 57.6322 201.26 67.6272 199.59 67.6272C197.92 67.6272 186.775 57.6272 186.775 47.4622C186.775 40.6472 192.51 35.1172 199.59 35.1172C206.67 35.1172 212.405 40.6472 212.405 47.4622Z" fill="#407BFF"/>
<path opacity="0.1" d="M197.21 44.9249C194.89 47.4699 191.74 48.3799 190.175 46.9249C188.61 45.4699 189.22 42.2799 191.535 39.7349C193.85 37.1899 197.005 36.2799 198.575 37.7049C200.145 39.1299 199.53 42.3799 197.21 44.9249Z" fill="white"/>
<path opacity="0.1" d="M190.375 55.1725C190.07 54.4125 190.15 53.6725 190.555 53.5025C190.96 53.3325 191.555 53.8225 191.84 54.5825C192.125 55.3425 192.065 56.0825 191.66 56.2475C191.255 56.4125 190.68 55.9275 190.375 55.1725Z" fill="white"/>
<path d="M199.04 99.6239C198.986 99.6227 198.935 99.6007 198.896 99.5625C198.858 99.5243 198.836 99.4729 198.835 99.4189C198.82 98.7445 199.024 98.0834 199.415 97.5339C199.751 97.0417 199.93 96.4597 199.93 95.8639C199.93 95.2682 199.751 94.6862 199.415 94.1939C199.037 93.6379 198.835 92.9812 198.835 92.3089C198.835 91.6367 199.037 90.98 199.415 90.4239C199.751 89.9327 199.93 89.3515 199.93 88.7564C199.93 88.1614 199.751 87.5802 199.415 87.0889C199.037 86.5339 198.835 85.8779 198.835 85.2064C198.835 84.535 199.037 83.879 199.415 83.3239C199.751 82.8327 199.93 82.2515 199.93 81.6564C199.93 81.0614 199.751 80.4802 199.415 79.9889C199.037 79.4339 198.835 78.7779 198.835 78.1064C198.835 77.435 199.037 76.779 199.415 76.2239C199.751 75.7327 199.93 75.1515 199.93 74.5564C199.93 73.9614 199.751 73.3802 199.415 72.8889C199.037 72.3339 198.835 71.6779 198.835 71.0064C198.835 70.3349 199.037 69.679 199.415 69.1239C199.757 68.6376 199.933 68.0534 199.915 67.4589C199.923 67.4094 199.948 67.3643 199.986 67.3317C200.024 67.2992 200.072 67.2812 200.122 67.2812C200.173 67.2812 200.221 67.2992 200.259 67.3317C200.297 67.3643 200.322 67.4094 200.33 67.4589C200.344 68.1317 200.141 68.7911 199.75 69.3389C199.409 69.8276 199.233 70.4131 199.25 71.0089C199.232 71.6034 199.408 72.1876 199.75 72.6739C200.128 73.229 200.33 73.885 200.33 74.5564C200.33 75.2279 200.128 75.8839 199.75 76.4389C199.412 76.9292 199.23 77.5108 199.23 78.1064C199.23 78.7021 199.412 79.2837 199.75 79.7739C200.128 80.329 200.33 80.9849 200.33 81.6564C200.33 82.3279 200.128 82.9839 199.75 83.5389C199.412 84.0292 199.23 84.6108 199.23 85.2064C199.23 85.8021 199.412 86.3837 199.75 86.8739C200.128 87.429 200.33 88.0849 200.33 88.7564C200.33 89.4279 200.128 90.0839 199.75 90.6389C199.411 91.1299 199.23 91.7124 199.23 92.3089C199.23 92.9055 199.411 93.488 199.75 93.9789C200.128 94.535 200.33 95.1917 200.33 95.8639C200.33 96.5362 200.128 97.1929 199.75 97.7489C199.407 98.2368 199.231 98.8228 199.25 99.4189C199.25 99.4463 199.245 99.4734 199.234 99.4986C199.223 99.5238 199.208 99.5466 199.188 99.5657C199.169 99.5848 199.145 99.5998 199.12 99.6098C199.095 99.6198 199.067 99.6246 199.04 99.6239Z" fill="#263238"/>
<path d="M199.59 67.1484C199.195 67.1484 196.59 69.4984 196.59 71.8884H202.6C202.6 69.4984 200 67.1484 199.59 67.1484Z" fill="#407BFF"/>
<path d="M200.18 67.2266H199C198.903 67.2266 198.825 67.3049 198.825 67.4016V67.5266C198.825 67.6232 198.903 67.7016 199 67.7016H200.18C200.277 67.7016 200.355 67.6232 200.355 67.5266V67.4016C200.355 67.3049 200.277 67.2266 200.18 67.2266Z" fill="#263238"/>
<path d="M132 56.9672C132 67.1322 120.855 77.1272 119.185 77.1272C117.515 77.1272 106.37 67.1272 106.37 56.9672C106.37 50.1472 112.105 44.6172 119.185 44.6172C126.265 44.6172 132 50.1472 132 56.9672Z" fill="#263238"/>
<path opacity="0.1" d="M117.107 54.8446C119.426 52.2989 120.037 49.079 118.471 47.6528C116.905 46.2265 113.756 47.134 111.437 49.6797C109.118 52.2254 108.508 55.4453 110.074 56.8715C111.64 58.2978 114.789 57.3903 117.107 54.8446Z" fill="white"/>
<path opacity="0.1" d="M110.27 65.0865C109.965 64.3265 110.045 63.5865 110.45 63.4165C110.855 63.2465 111.45 63.7365 111.735 64.4965C112.02 65.2565 111.96 65.9965 111.555 66.1665C111.15 66.3365 110.575 65.8465 110.27 65.0865Z" fill="white"/>
<path d="M118.615 109.128C118.561 109.128 118.508 109.106 118.47 109.068C118.432 109.029 118.41 108.977 118.41 108.923C118.395 108.248 118.599 107.587 118.99 107.038C119.326 106.546 119.505 105.964 119.505 105.368C119.505 104.772 119.326 104.19 118.99 103.698C118.612 103.142 118.41 102.485 118.41 101.813C118.41 101.141 118.612 100.484 118.99 99.9278C119.332 99.4415 119.508 98.8573 119.49 98.2628C119.507 97.6669 119.331 97.0815 118.99 96.5928C118.612 96.0378 118.41 95.3818 118.41 94.7103C118.41 94.0388 118.612 93.3829 118.99 92.8278C119.332 92.3415 119.508 91.7573 119.49 91.1628C119.507 90.5669 119.331 89.9815 118.99 89.4928C118.612 88.9378 118.41 88.2818 118.41 87.6103C118.41 86.9388 118.612 86.2829 118.99 85.7278C119.325 85.2373 119.505 84.657 119.505 84.0628C119.505 83.4686 119.325 82.8883 118.99 82.3978C118.612 81.8428 118.41 81.1868 118.41 80.5153C118.41 79.8438 118.612 79.1879 118.99 78.6328C119.331 78.1442 119.507 77.5587 119.49 76.9628C119.491 76.9088 119.513 76.8574 119.551 76.8193C119.59 76.7811 119.641 76.7591 119.695 76.7578C119.749 76.7578 119.802 76.7794 119.84 76.8179C119.878 76.8563 119.9 76.9084 119.9 76.9628C119.916 77.6366 119.714 78.2975 119.325 78.8478C118.986 79.337 118.805 79.9178 118.805 80.5128C118.805 81.1078 118.986 81.6886 119.325 82.1778C119.7 82.7341 119.9 83.3896 119.9 84.0603C119.9 84.731 119.7 85.3865 119.325 85.9428C118.984 86.4315 118.808 87.0169 118.825 87.6128C118.807 88.2073 118.983 88.7915 119.325 89.2778C119.7 89.8341 119.9 90.4896 119.9 91.1603C119.9 91.831 119.7 92.4865 119.325 93.0428C118.984 93.5315 118.808 94.1169 118.825 94.7128C118.807 95.3073 118.983 95.8915 119.325 96.3778C119.7 96.9341 119.9 97.5896 119.9 98.2603C119.9 98.931 119.7 99.5865 119.325 100.143C118.986 100.634 118.805 101.216 118.805 101.813C118.805 102.409 118.986 102.992 119.325 103.483C119.7 104.04 119.9 104.696 119.9 105.368C119.9 106.039 119.7 106.696 119.325 107.253C118.983 107.741 118.808 108.327 118.825 108.923C118.825 108.95 118.82 108.977 118.809 109.002C118.798 109.028 118.783 109.05 118.763 109.07C118.744 109.089 118.72 109.104 118.695 109.114C118.67 109.124 118.642 109.128 118.615 109.128Z" fill="#407BFF"/>
<path d="M119.165 76.6484C118.77 76.6484 116.165 78.9934 116.165 81.3834H122.165C122.175 78.9934 119.555 76.6484 119.165 76.6484Z" fill="#263238"/>
<path d="M119.755 76.7266H118.575C118.478 76.7266 118.4 76.8049 118.4 76.9016V77.0266C118.4 77.1232 118.478 77.2016 118.575 77.2016H119.755C119.852 77.2016 119.93 77.1232 119.93 77.0266V76.9016C119.93 76.8049 119.852 76.7266 119.755 76.7266Z" fill="#407BFF"/>
<path d="M206.528 108.909C209.557 106.128 209.757 101.418 206.976 98.3893C204.195 95.3607 199.486 95.16 196.457 97.941C193.428 100.722 193.228 105.432 196.009 108.46C198.79 111.489 203.499 111.69 206.528 108.909Z" fill="#DE5753"/>
<path d="M202.97 99.8359V107.336H200.9V102.426C200.594 102.662 200.268 102.869 199.925 103.046C199.544 103.227 199.15 103.377 198.745 103.496V101.821C199.332 101.653 199.883 101.379 200.37 101.011C200.754 100.695 201.064 100.297 201.275 99.8459L202.97 99.8359Z" fill="white"/>
</g>
<defs>
<clipPath id="clip0_830_77330">
<rect width="250" height="250" fill="white" transform="translate(0.5)"/>
</clipPath>
</defs>
</svg>
