<svg width="350" height="350" viewBox="0 0 350 350" fill="none" xmlns="http://www.w3.org/2000/svg">
<path d="M350 267.68H0V267.855H350V267.68Z" fill="#E0E0E0"/>
<path d="M296.877 277.502H289.45V277.677H296.877V277.502Z" fill="#E0E0E0"/>
<path d="M284.312 277.586H254.107V277.761H284.312V277.586Z" fill="#E0E0E0"/>
<path d="M216.769 275.92H165.795V276.095H216.769V275.92Z" fill="#E0E0E0"/>
<path d="M136.472 278.957H120.295V279.132H136.472V278.957Z" fill="#E0E0E0"/>
<path d="M82.565 276.004H60.291V276.179H82.565V276.004Z" fill="#E0E0E0"/>
<path d="M107.268 276.004H86.4502V276.179H107.268V276.004Z" fill="#E0E0E0"/>
<path d="M66.9621 272.943H45.7031V273.118H66.9621V272.943Z" fill="#E0E0E0"/>
<path d="M165.9 236.46H30.7371C29.6782 236.458 28.6634 236.036 27.9153 235.287C27.1672 234.537 26.7471 233.522 26.7471 232.463V42.462C26.7563 41.4092 27.1805 40.4026 27.9276 39.6608C28.6747 38.9189 29.6842 38.5018 30.7371 38.5H165.9C166.96 38.5 167.977 38.9211 168.726 39.6707C169.476 40.4203 169.897 41.4369 169.897 42.497V232.463C169.897 233.523 169.476 234.54 168.726 235.289C167.977 236.039 166.96 236.46 165.9 236.46ZM30.7371 38.64C29.7246 38.6419 28.7543 39.0453 28.039 39.7619C27.3238 40.4785 26.9221 41.4496 26.9221 42.462V232.463C26.9221 233.475 27.3238 234.447 28.039 235.163C28.7543 235.88 29.7246 236.283 30.7371 236.285H165.9C166.913 236.283 167.884 235.88 168.601 235.164C169.317 234.447 169.72 233.476 169.722 232.463V42.462C169.72 41.4489 169.317 40.4778 168.601 39.7615C167.884 39.0451 166.913 38.6419 165.9 38.64H30.7371Z" fill="#E0E0E0"/>
<path d="M317.317 236.46H182.147C181.087 236.458 180.072 236.036 179.323 235.287C178.573 234.538 178.152 233.522 178.15 232.463V42.462C178.161 41.4086 178.587 40.402 179.335 39.6603C180.083 38.9187 181.093 38.5018 182.147 38.5H317.317C318.368 38.5036 319.376 38.9216 320.122 39.6632C320.867 40.4048 321.291 41.4104 321.3 42.462V232.463C321.3 233.521 320.881 234.535 320.134 235.284C319.388 236.034 318.375 236.456 317.317 236.46ZM182.147 38.64C181.134 38.6419 180.163 39.0451 179.446 39.7615C178.73 40.4778 178.327 41.4489 178.325 42.462V232.463C178.327 233.476 178.73 234.447 179.446 235.164C180.163 235.88 181.134 236.283 182.147 236.285H317.317C318.33 236.283 319.301 235.88 320.017 235.164C320.734 234.447 321.137 233.476 321.139 232.463V42.462C321.137 41.4489 320.734 40.4778 320.017 39.7615C319.301 39.0451 318.33 38.6419 317.317 38.64H182.147Z" fill="#E0E0E0"/>
<path d="M124.831 199.227C125.216 199.227 125.601 199.227 125.993 199.262C128.432 199.434 130.803 200.143 132.935 201.34C135.068 202.536 136.909 204.189 138.328 206.181C139.746 208.173 140.706 210.454 141.139 212.86C141.572 215.267 141.468 217.739 140.833 220.101C139.025 227.152 138.151 234.41 138.236 241.689V262.885C138.236 263.627 137.941 264.339 137.416 264.864C136.891 265.39 136.178 265.685 135.436 265.685H68.1729V199.227H124.831Z" fill="#E6E6E6"/>
<path d="M51.6041 215.797C51.6062 213.438 52.1117 211.108 53.0868 208.96C54.0618 206.813 55.4841 204.899 57.2584 203.345C59.0327 201.792 61.1182 200.635 63.3755 199.952C65.6327 199.269 68.0098 199.076 70.3477 199.386C72.6856 199.695 74.9304 200.5 76.9323 201.747C78.9341 202.993 80.6467 204.653 81.9556 206.615C83.2646 208.576 84.1397 210.795 84.5224 213.122C84.9052 215.449 84.7868 217.831 84.1751 220.109C82.3668 227.16 81.4936 234.418 81.5781 241.697V262.893C81.5781 263.635 81.2831 264.347 80.758 264.872C80.2329 265.398 79.5207 265.693 78.7781 265.693H57.5541C56.8115 265.693 56.0993 265.398 55.5742 264.872C55.0491 264.347 54.7541 263.635 54.7541 262.893V240.451C54.8154 233.625 53.9536 226.822 52.1921 220.228C51.7967 218.784 51.5989 217.293 51.6041 215.797Z" fill="#F0F0F0"/>
<path d="M91.0071 265.672H176.078V225.331H91.0071V265.672Z" fill="#E6E6E6"/>
<path d="M225.988 234.451H120.477V189.553C120.477 186.226 121.798 183.036 124.151 180.683C126.503 178.331 129.694 177.009 133.021 177.009H213.465C216.788 177.015 219.973 178.339 222.321 180.691C224.669 183.042 225.988 186.23 225.988 189.553V234.451Z" fill="#E0E0E0"/>
<path d="M210.196 234.451H104.692V188.951C104.692 185.786 105.949 182.75 108.187 180.512C110.426 178.274 113.461 177.016 116.627 177.016H198.261C201.426 177.016 204.462 178.274 206.7 180.512C208.938 182.75 210.196 185.786 210.196 188.951V234.451Z" fill="#F0F0F0"/>
<path d="M172.123 238.07H91.784C90.8186 238.07 89.8928 237.687 89.2101 237.004C88.5275 236.322 88.144 235.396 88.144 234.43V225.281C88.144 224.316 88.5275 223.39 89.2101 222.707C89.8928 222.025 90.8186 221.641 91.784 221.641H172.123C172.411 221.641 172.687 221.756 172.89 221.959C173.094 222.163 173.208 222.439 173.208 222.726V236.985C173.208 237.273 173.094 237.549 172.89 237.753C172.687 237.956 172.411 238.07 172.123 238.07Z" fill="#E0E0E0"/>
<path d="M231.938 199.227C232.323 199.227 232.715 199.227 233.107 199.262C235.546 199.434 237.917 200.143 240.05 201.34C242.182 202.536 244.024 204.189 245.442 206.181C246.86 208.173 247.82 210.454 248.254 212.86C248.687 215.267 248.582 217.739 247.947 220.101C246.133 227.151 245.257 234.409 245.343 241.689V262.885C245.343 263.627 245.048 264.339 244.523 264.864C243.998 265.39 243.286 265.685 242.543 265.685H175.287V199.227H231.938Z" fill="#E6E6E6"/>
<path d="M158.711 215.795C158.736 211.509 160.421 207.4 163.411 204.329C166.401 201.258 170.464 199.465 174.747 199.325C179.031 199.186 183.202 200.711 186.386 203.581C189.569 206.451 191.517 210.442 191.821 214.717C191.938 216.531 191.758 218.351 191.289 220.107C189.481 227.158 188.608 234.416 188.692 241.695V262.891C188.692 263.634 188.397 264.346 187.872 264.871C187.347 265.396 186.635 265.691 185.892 265.691H164.661C163.919 265.691 163.206 265.396 162.681 264.871C162.156 264.346 161.861 263.634 161.861 262.891V240.449C161.923 233.623 161.059 226.82 159.292 220.226C158.899 218.782 158.704 217.292 158.711 215.795Z" fill="#F0F0F0"/>
<path d="M69.3558 267.688H230.755C231.02 267.689 231.283 267.637 231.528 267.536C231.774 267.436 231.997 267.287 232.185 267.1C232.373 266.913 232.522 266.69 232.624 266.445C232.725 266.2 232.778 265.937 232.778 265.672H67.3398C67.3398 266.207 67.5522 266.719 67.9303 267.097C68.3084 267.475 68.8212 267.688 69.3558 267.688Z" fill="#E0E0E0"/>
<path d="M288.813 264.824H303.331V188.937H288.813V264.824Z" fill="#E6E6E6"/>
<path d="M237.265 267.68H300.545V264.831H237.265V267.68Z" fill="#E6E6E6"/>
<path d="M288.813 188.938H234.479V264.825H288.813V188.938Z" fill="#F0F0F0"/>
<path d="M286.755 191.436H236.537V239.722H286.755V191.436Z" fill="#E6E6E6"/>
<path d="M286.755 241.773H236.537V259.175H286.755V241.773Z" fill="#E6E6E6"/>
<path d="M247.128 191.436H236.537V239.722H247.128V191.436Z" fill="#E0E0E0"/>
<path d="M247.128 241.773H236.537V259.175H247.128V241.773Z" fill="#E0E0E0"/>
<path d="M119.945 153.461L245.833 153.461V62.1389L119.945 62.1389L119.945 153.461Z" fill="#E0E0E0"/>
<path d="M110.929 153.461L243.53 153.461V62.1389L110.929 62.1389V153.461Z" fill="#F0F0F0"/>
<path d="M240.723 150.647V64.9531L113.75 64.9531V150.647H240.723Z" fill="#FAFAFA"/>
<path d="M182.739 108.448C184.715 96.1494 176.348 84.5773 164.049 82.6008C151.751 80.6243 140.179 88.9919 138.202 101.29C136.226 113.589 144.593 125.161 156.892 127.137C169.19 129.114 180.762 120.746 182.739 108.448Z" fill="#E0E0E0"/>
<path d="M123.347 130.9C125.398 128.31 129.514 126.315 132.559 126.441C133.008 126.424 133.456 126.498 133.877 126.656C134.298 126.815 134.682 127.056 135.009 127.365C140.567 124.145 146.965 122.171 152.25 122.388C154.938 122.493 157.024 123.158 158.466 124.243C164.437 119.385 172.046 115.934 177.569 115.934C180.705 115.934 182.651 117.054 183.344 118.909C189.469 115.647 195.762 113.645 200.844 113.645C208.936 113.645 211.561 118.734 208.25 125.888C209.58 127.239 215.95 129.122 215.698 131.376H122.997C123.109 131.201 123.2 131.04 123.347 130.9Z" fill="#F0F0F0"/>
<path d="M155.26 98.0421C155.636 98.0268 156.011 98.1044 156.35 98.268C156.69 98.4315 156.983 98.6761 157.206 98.9801C161.924 95.7111 167.244 93.7021 171.528 93.9261C173.358 93.919 175.126 94.5898 176.491 95.8091C181.615 90.9091 188.013 87.4091 192.507 87.4091C195.069 87.4091 196.595 88.5431 197.05 90.4261C202.223 87.1151 207.459 85.0781 211.603 85.0781C216.727 85.0781 218.995 88.2071 218.288 93.0091C220.759 91.6091 223.188 90.7901 225.162 90.7901C227.899 90.7901 229.187 92.3651 228.963 94.8431C229.201 94.8431 229.439 94.8431 229.663 94.8781C233.863 95.2911 235.445 98.4901 233.436 102.151H147.812C149.688 99.7221 152.915 97.9231 155.26 98.0421Z" fill="#F0F0F0"/>
<path d="M86.0157 98.8587C87.8998 86.5458 79.4456 75.0368 67.1327 73.1526C54.8198 71.2685 43.3108 79.7227 41.4267 92.0356C39.5425 104.348 47.9967 115.857 60.3096 117.742C72.6225 119.626 84.1315 111.172 86.0157 98.8587Z" fill="#E0E0E0"/>
<path d="M84.6954 99.0338C86.6719 86.7354 78.3043 75.1633 66.0059 73.1868C53.7074 71.2103 42.1353 79.5779 40.1588 91.8763C38.1823 104.175 46.5499 115.747 58.8483 117.723C71.1468 119.7 82.7189 111.332 84.6954 99.0338Z" fill="#F0F0F0"/>
<path d="M82.1449 95.4378C82.1519 100.105 80.5057 104.624 77.4981 108.193C74.4906 111.762 70.3162 114.15 65.7154 114.934C61.1146 115.718 56.3847 114.847 52.3648 112.476C48.345 110.105 45.2949 106.386 43.7557 101.98C42.2165 97.5742 42.2876 92.7654 43.9564 88.4068C45.6253 84.0482 48.784 80.4216 52.8722 78.1702C56.9604 75.9188 61.714 75.1882 66.2896 76.108C70.8652 77.0278 74.9672 79.5386 77.8679 83.1948L77.9239 83.2579C80.6639 86.7258 82.1514 91.0181 82.1449 95.4378Z" fill="#E0E0E0"/>
<path d="M82.1449 95.4389C82.1392 99.4151 80.9319 103.297 78.6815 106.575C76.4311 109.853 73.2426 112.374 69.5341 113.809C65.8255 115.243 61.7701 115.523 57.8997 114.612C54.0292 113.701 50.5244 111.642 47.8449 108.704C44.6841 104.694 43.2017 99.6149 43.7097 94.5345C44.2177 89.4542 46.6763 84.7689 50.5684 81.4644C54.4605 78.16 59.4826 76.4939 64.5781 76.8169C69.6735 77.1398 74.4451 79.4265 77.8889 83.1959L77.9449 83.2589C80.6774 86.7296 82.1574 91.0216 82.1449 95.4389Z" fill="#FAFAFA"/>
<path d="M62.8528 97.3485C62.5894 97.3458 62.332 97.2688 62.1104 97.1264C61.8887 96.984 61.7118 96.782 61.5998 96.5435L56.5738 85.8195C56.4916 85.6526 56.4435 85.471 56.4322 85.2853C56.421 85.0995 56.4469 84.9135 56.5084 84.7379C56.57 84.5623 56.6659 84.4007 56.7905 84.2626C56.9152 84.1245 57.0662 84.0126 57.2346 83.9336C57.403 83.8545 57.5855 83.8097 57.7714 83.802C57.9573 83.7942 58.1428 83.8236 58.3172 83.8884C58.4917 83.9532 58.6514 84.0521 58.7871 84.1794C58.9229 84.3066 59.0319 84.4596 59.1078 84.6295L63.5598 94.1495L69.9928 91.5455C70.3372 91.4063 70.7228 91.4095 71.0648 91.5546C71.4067 91.6996 71.6771 91.9746 71.8163 92.319C71.9556 92.6634 71.9523 93.049 71.8072 93.3909C71.6622 93.7329 71.3872 94.0033 71.0428 94.1425L63.3778 97.2435C63.2112 97.3119 63.0329 97.3476 62.8528 97.3485Z" fill="#E0E0E0"/>
<path d="M260.722 221.516C265.944 222.216 269.178 210.876 257.642 201.258C258.3 212.395 251.608 220.256 260.722 221.516Z" fill="#F0F0F0"/>
<path d="M264.012 228.689C271.593 223.376 266.406 204.819 242.956 206.163C253.099 219.799 250.803 237.95 264.012 228.689Z" fill="#F0F0F0"/>
<path d="M261.338 228.563C256.305 223.138 263.473 209.488 281.589 214.472C271.362 223.46 270.123 237.999 261.338 228.563Z" fill="#F0F0F0"/>
<path d="M253.54 239.722H269.115L270.291 229.369H252.364L253.54 239.722Z" fill="#E0E0E0"/>
<path d="M251.209 231.217H271.453V228.935H251.209V231.217Z" fill="#E0E0E0"/>
<path d="M175 299.291C249.958 299.291 310.723 295.744 310.723 291.367C310.723 286.991 249.958 283.443 175 283.443C100.042 283.443 39.2769 286.991 39.2769 291.367C39.2769 295.744 100.042 299.291 175 299.291Z" fill="#F5F5F5"/>
<path d="M271.335 271.5L266.335 273.436L270.642 284.561L275.642 282.626L271.335 271.5Z" fill="#E4897B"/>
<path d="M293.685 285.986H288.414L286.475 273.785H291.746L293.685 285.986Z" fill="#E4897B"/>
<path d="M288.071 285.377H294C294.102 285.376 294.201 285.411 294.28 285.476C294.358 285.542 294.41 285.633 294.427 285.734L295.197 290.424C295.213 290.541 295.204 290.66 295.169 290.774C295.135 290.887 295.077 290.991 294.998 291.08C294.92 291.168 294.823 291.239 294.715 291.286C294.606 291.334 294.489 291.357 294.371 291.355C292.306 291.32 291.305 291.201 288.701 291.201C287.098 291.201 282.261 291.369 280.049 291.369C277.837 291.369 277.676 289.178 278.593 288.982C282.702 288.093 285.838 286.882 287.203 285.699C287.447 285.496 287.753 285.383 288.071 285.377Z" fill="#263238"/>
<path d="M270.529 283.5L276.129 281.869C276.227 281.837 276.333 281.841 276.429 281.881C276.524 281.921 276.601 281.994 276.647 282.086L278.747 286.286C278.797 286.393 278.823 286.509 278.823 286.627C278.823 286.744 278.797 286.86 278.747 286.967C278.696 287.073 278.623 287.167 278.533 287.242C278.442 287.317 278.336 287.37 278.222 287.399C276.192 287.952 274.82 288.302 272.279 289.044C270.515 289.555 268.73 290.388 266.987 290.941C265.79 291.326 262.962 291.34 261.499 291.34C259.336 291.34 258.853 289.058 259.777 288.953C262.122 288.687 262.444 288.813 263.739 288.162C265.854 287.233 267.772 285.908 269.388 284.256C269.696 283.91 270.09 283.649 270.529 283.5Z" fill="#263238"/>
<path d="M262.71 115.339C262.276 116.438 261.863 117.397 261.394 118.405C260.925 119.413 260.456 120.379 259.959 121.352C258.953 123.326 257.838 125.243 256.62 127.092C255.348 129.062 253.875 130.895 252.224 132.559C251.285 133.509 250.237 134.343 249.102 135.044C247.677 135.931 246.046 136.432 244.37 136.5C243.901 136.513 243.432 136.48 242.97 136.402C242.565 136.336 242.166 136.245 241.773 136.129C241.105 135.926 240.454 135.671 239.827 135.366C238.751 134.826 237.715 134.211 236.726 133.525C234.911 132.263 233.18 130.884 231.546 129.395C228.371 126.522 225.41 123.422 222.684 120.12L225.4 117.39C228.613 119.924 231.91 122.458 235.2 124.768C236.802 125.905 238.461 126.961 240.17 127.932C240.941 128.371 241.743 128.753 242.571 129.073C243.024 129.301 243.526 129.414 244.034 129.402C244.434 129.284 244.809 129.091 245.14 128.835C245.745 128.387 246.304 127.878 246.806 127.316C248.01 125.937 249.088 124.451 250.026 122.878C251.034 121.24 251.979 119.511 252.875 117.747C253.323 116.865 253.757 115.969 254.177 115.073C254.597 114.177 255.024 113.232 255.381 112.406L262.71 115.339Z" fill="#E4897B"/>
<path d="M226.149 119.077L225.4 114.926L220.059 118.202C220.059 118.202 221.746 120.82 223.524 120.862L226.149 119.077Z" fill="#E4897B"/>
<path d="M222.908 112.428L218.736 115.263L220.052 118.203L225.393 114.927L222.908 112.428Z" fill="#E4897B"/>
<path d="M265.16 109.977C266.448 114.765 259.434 124.383 259.434 124.383L250.222 119.217C250.222 119.217 251.937 115.262 254.044 111.237C257.439 104.734 263.683 104.517 265.16 109.977Z" fill="#407BFF"/>
<path opacity="0.6" d="M265.16 109.977C266.448 114.765 259.434 124.383 259.434 124.383L250.222 119.217C250.222 119.217 251.937 115.262 254.044 111.237C257.439 104.734 263.683 104.517 265.16 109.977Z" fill="#4450E4"/>
<path d="M253.897 121.269L257.516 123.299L258.146 112.197C256.046 113.814 254.555 118.686 253.897 121.269Z" fill="#407BFF"/>
<path opacity="0.3" d="M253.897 121.269L257.516 123.299L258.146 112.197C256.046 113.814 254.555 118.686 253.897 121.269Z" fill="#FAFAFA"/>
<path d="M272.081 272.447L267.066 274.383L269.287 280.136L274.302 278.2L272.081 272.447Z" fill="#CE6F64"/>
<path d="M291.753 273.785H286.475L287.476 280.078H292.747L291.753 273.785Z" fill="#CE6F64"/>
<path d="M288.652 106.1C283.283 126.491 284.767 147.603 284.319 151.929H256.13C251.93 122.291 259.112 106.373 259.112 106.373C259.112 106.373 261.352 105.771 264.236 105.302L265.041 105.183C265.776 105.078 266.532 104.98 267.302 104.91C271.293 104.679 275.295 104.679 279.286 104.91C279.909 104.91 280.539 104.987 281.155 105.036L281.89 105.106C285.523 105.463 288.652 106.1 288.652 106.1Z" fill="#407BFF"/>
<path opacity="0.6" d="M288.652 106.1C283.283 126.491 284.767 147.603 284.319 151.929H256.13C251.93 122.291 259.112 106.373 259.112 106.373C259.112 106.373 261.352 105.771 264.236 105.302L265.041 105.183C265.776 105.078 266.532 104.98 267.302 104.91C271.293 104.679 275.295 104.679 279.286 104.91C279.909 104.91 280.539 104.987 281.155 105.036L281.89 105.106C285.523 105.463 288.652 106.1 288.652 106.1Z" fill="#4450E4"/>
<path d="M255.234 143.906C255.332 145.171 255.456 146.468 255.605 147.798L276.605 140.994C279.879 140.018 282.723 137.956 284.669 135.149C284.746 133.28 284.851 131.313 285.012 129.262C285.082 128.261 285.173 127.239 285.264 126.203C285.355 125.167 285.481 124.026 285.607 122.92L255.234 143.906Z" fill="#407BFF"/>
<path opacity="0.3" d="M255.234 143.906C255.332 145.171 255.456 146.468 255.605 147.798L276.605 140.994C279.879 140.018 282.723 137.956 284.669 135.149C284.746 133.28 284.851 131.313 285.012 129.262C285.082 128.261 285.173 127.239 285.264 126.203C285.355 125.167 285.481 124.026 285.607 122.92L255.234 143.906Z" fill="#FAFAFA"/>
<path d="M281.155 105.035L280.875 105.637C280.784 105.84 278.551 110.572 270.34 110.572C269.248 110.572 265.923 110.572 264.88 108.248C264.68 107.757 264.591 107.227 264.619 106.697C264.647 106.167 264.791 105.65 265.041 105.182L264.236 105.301C264.019 105.813 263.907 106.363 263.907 106.918C263.907 107.474 264.019 108.024 264.236 108.535C265.461 111.272 269.136 111.272 270.333 111.272C278.985 111.272 281.407 106.141 281.533 105.924L281.904 105.105L281.155 105.035Z" fill="#FAFAFA"/>
<path d="M278.887 91.4141C277.907 95.2711 276.738 102.334 279.286 104.91C279.286 104.91 277.508 108.823 270.34 108.823C263.795 108.823 267.302 104.91 267.302 104.91C271.663 103.881 271.74 100.71 271.166 97.7001L278.887 91.4141Z" fill="#E4897B"/>
<path d="M275.737 93.9766L271.166 97.6936C271.311 98.3847 271.393 99.0876 271.411 99.7936C272.748 101.124 275.429 97.7566 275.709 96.0346C275.841 95.3557 275.851 94.6587 275.737 93.9766Z" fill="#CE6F64"/>
<path d="M262.927 89.5445C263.038 90.1696 263.278 90.7648 263.631 91.2925C263.984 91.8203 264.443 92.269 264.978 92.6105C266.434 93.5345 267.778 92.3655 267.841 90.7415C267.925 89.2855 267.267 87.0455 265.566 86.7795C265.195 86.7242 264.817 86.7588 264.463 86.8802C264.108 87.0017 263.788 87.2066 263.53 87.4777C263.271 87.7487 263.081 88.0779 262.976 88.4376C262.871 88.7973 262.855 89.177 262.927 89.5445Z" fill="#CE6F64"/>
<path d="M266.798 79.366C264.103 80.381 262.465 90.699 265.643 92.456C268.821 94.213 271.901 77.448 266.798 79.366Z" fill="#263238"/>
<path d="M262.248 82.9443C264.236 85.0443 274.372 82.5243 274.757 78.9123C275.142 75.3003 258.489 78.9963 262.248 82.9443Z" fill="#263238"/>
<path d="M278.74 85.1553C278.551 90.4123 278.705 93.4853 276.143 96.3553C275.356 97.313 274.321 98.0348 273.15 98.4413C271.98 98.8477 270.72 98.923 269.509 98.6587C268.298 98.3944 267.184 97.8009 266.29 96.9436C265.395 96.0863 264.754 94.9985 264.439 93.8003C263.207 89.1943 263.739 81.3753 268.765 78.8693C269.819 78.2903 271.01 78.004 272.212 78.0402C273.415 78.0763 274.585 78.4337 275.603 79.0751C276.621 79.7164 277.449 80.6185 278 81.6877C278.552 82.7569 278.807 83.9542 278.74 85.1553Z" fill="#E4897B"/>
<path d="M275.569 74.2426C279.286 73.3256 280.098 74.3756 280.266 76.9166C280.434 79.4576 283.822 78.7506 282.681 82.5866C282.149 84.3996 280.784 84.2456 281.617 86.3806C282.569 88.8376 276.92 91.8126 275.59 91.8056C273.399 91.8056 273.882 87.2416 275.667 83.0906C277.004 79.9826 273.672 80.8436 269.85 82.0056C261.24 84.6166 255.535 77.1056 260.876 73.5076C263.704 71.5966 271.481 75.5586 275.569 74.2426Z" fill="#263238"/>
<path d="M281.232 90.7285C280.563 91.8956 279.482 92.7697 278.201 93.1785C276.514 93.6965 275.723 92.2125 276.234 90.6095C276.696 89.1605 278.138 87.1515 279.804 87.3405C281.47 87.5295 282.044 89.2795 281.232 90.7285Z" fill="#E4897B"/>
<path d="M256.13 151.9C256.13 151.9 251.398 194.243 251.027 210.315C250.642 227.038 267.064 279.195 267.064 279.195L275.464 275.66C275.464 275.66 265.664 228.011 267.064 211.596C268.52 193.725 274.659 151.9 274.659 151.9H256.13Z" fill="#263238"/>
<path d="M267.883 163.556C264.117 171.382 266.658 186.852 268.702 196.022C269.479 189.554 270.396 182.526 271.271 176.023C271.187 166.02 270.41 158.306 267.883 163.556Z" fill="#182137"/>
<path d="M275.1 272.945C275.135 272.945 276.094 275.626 276.094 275.626L266.406 279.693L264.873 276.858L275.1 272.945Z" fill="#407BFF"/>
<path opacity="0.6" d="M275.1 272.945C275.135 272.945 276.094 275.626 276.094 275.626L266.406 279.693L264.873 276.858L275.1 272.945Z" fill="#FAFAFA"/>
<path d="M266.126 151.9C266.126 151.9 269.745 192.171 272.146 207.263C274.771 223.79 285.089 278.831 285.089 278.831H294.749C294.749 278.831 288.96 225.12 287.868 208.761C286.685 191.002 284.319 151.9 284.319 151.9H266.126Z" fill="#263238"/>
<path d="M294.896 275.94C294.931 275.94 295.218 279.041 295.218 279.041H284.606L283.85 275.541L294.896 275.94Z" fill="#407BFF"/>
<path opacity="0.6" d="M294.896 275.94C294.931 275.94 295.218 279.041 295.218 279.041H284.606L283.85 275.541L294.896 275.94Z" fill="#FAFAFA"/>
<path d="M291.2 273.154C291.178 273.154 291.156 273.145 291.141 273.129C291.125 273.113 291.116 273.092 291.116 273.07C291.06 272.587 285.845 224.07 284.865 209.37C283.801 193.417 281.659 158.053 281.638 157.696C281.637 157.684 281.638 157.672 281.642 157.66C281.646 157.649 281.652 157.638 281.66 157.629C281.667 157.62 281.677 157.613 281.688 157.607C281.698 157.602 281.71 157.599 281.722 157.598C281.745 157.598 281.767 157.606 281.784 157.622C281.801 157.637 281.811 157.659 281.813 157.682C281.813 158.039 283.976 193.382 285.04 209.356C286.02 224.056 291.235 272.538 291.291 273.056C291.293 273.067 291.293 273.079 291.29 273.09C291.287 273.102 291.281 273.113 291.274 273.122C291.267 273.131 291.258 273.139 291.247 273.144C291.237 273.15 291.226 273.153 291.214 273.154H291.2Z" fill="#407BFF"/>
<path opacity="0.5" d="M291.2 273.154C291.178 273.154 291.156 273.145 291.141 273.129C291.125 273.113 291.116 273.092 291.116 273.07C291.06 272.587 285.845 224.07 284.865 209.37C283.801 193.417 281.659 158.053 281.638 157.696C281.637 157.684 281.638 157.672 281.642 157.66C281.646 157.649 281.652 157.638 281.66 157.629C281.667 157.62 281.677 157.613 281.688 157.607C281.698 157.602 281.71 157.599 281.722 157.598C281.745 157.598 281.767 157.606 281.784 157.622C281.801 157.637 281.811 157.659 281.813 157.682C281.813 158.039 283.976 193.382 285.04 209.356C286.02 224.056 291.235 272.538 291.291 273.056C291.293 273.067 291.293 273.079 291.29 273.09C291.287 273.102 291.281 273.113 291.274 273.122C291.267 273.131 291.258 273.139 291.247 273.144C291.237 273.15 291.226 273.153 291.214 273.154H291.2Z" fill="black"/>
<path d="M270.9 87.2772C270.9 87.7042 270.697 88.0682 270.417 88.0892C270.137 88.1102 269.906 87.7882 269.899 87.3892C269.892 86.9902 270.102 86.5982 270.382 86.5772C270.662 86.5562 270.9 86.8502 270.9 87.2772Z" fill="#263238"/>
<path d="M266.098 87.6757C266.098 88.1027 265.895 88.4667 265.615 88.4877C265.335 88.5087 265.104 88.1867 265.097 87.7877C265.09 87.3887 265.3 86.9967 265.58 86.9757C265.86 86.9547 266.084 87.2487 266.098 87.6757Z" fill="#263238"/>
<path d="M267.624 87.7598C267.148 89.11 266.499 90.3925 265.692 91.5748C266.455 92.2118 267.722 91.7848 267.722 91.7848L267.624 87.7598Z" fill="#DE5753"/>
<path d="M268.226 93.534C268.193 93.5341 268.162 93.5218 268.139 93.4996C268.115 93.4775 268.101 93.4472 268.1 93.415C268.1 93.3809 268.113 93.3481 268.136 93.3234C268.16 93.2986 268.192 93.2838 268.226 93.282C268.763 93.243 269.285 93.0837 269.753 92.8159C270.22 92.5482 270.622 92.1788 270.928 91.735C270.943 91.7072 270.97 91.6867 271 91.6782C271.031 91.6697 271.064 91.6737 271.092 91.6895C271.12 91.7053 271.14 91.7315 271.149 91.7623C271.157 91.7932 271.153 91.8262 271.138 91.854C270.813 92.3379 270.381 92.7409 269.877 93.0321C269.372 93.3233 268.807 93.495 268.226 93.534Z" fill="#263238"/>
<path d="M272.398 84.5614C272.359 84.5628 272.321 84.5553 272.286 84.5395C272.251 84.5237 272.219 84.5001 272.195 84.4704C272.003 84.2244 271.756 84.0271 271.474 83.8945C271.192 83.7619 270.882 83.6978 270.571 83.7074C270.539 83.7113 270.507 83.7087 270.476 83.6998C270.445 83.6909 270.416 83.6758 270.392 83.6556C270.367 83.6353 270.346 83.6102 270.331 83.5818C270.316 83.5535 270.307 83.5224 270.305 83.4904C270.303 83.4233 270.326 83.3578 270.37 83.3071C270.414 83.2565 270.476 83.2244 270.543 83.2174C270.936 83.1995 271.328 83.2759 271.686 83.4403C272.044 83.6047 272.358 83.8523 272.601 84.1624C272.621 84.1878 272.636 84.217 272.644 84.2483C272.653 84.2796 272.655 84.3124 272.65 84.3445C272.646 84.3766 272.635 84.4075 272.618 84.4351C272.601 84.4628 272.578 84.4867 272.552 84.5054C272.508 84.5403 272.454 84.5599 272.398 84.5614Z" fill="#263238"/>
<path d="M264.019 85.282C263.983 85.2729 263.949 85.2562 263.921 85.233C263.897 85.2102 263.879 85.183 263.866 85.1529C263.854 85.1229 263.847 85.0906 263.847 85.058C263.847 85.0254 263.854 84.9932 263.866 84.9631C263.879 84.9331 263.897 84.9058 263.921 84.883C264.163 84.5554 264.48 84.29 264.845 84.1087C265.21 83.9274 265.613 83.8353 266.021 83.84C266.053 83.8416 266.085 83.85 266.114 83.8645C266.142 83.8791 266.168 83.8996 266.188 83.9247C266.209 83.9498 266.224 83.9789 266.232 84.0101C266.241 84.0414 266.243 84.074 266.238 84.106C266.227 84.1721 266.193 84.2322 266.142 84.2748C266.09 84.3174 266.025 84.3395 265.958 84.337C265.638 84.3443 265.325 84.4243 265.041 84.5711C264.757 84.7179 264.51 84.9275 264.32 85.184C264.286 85.2296 264.239 85.2635 264.185 85.2811C264.131 85.2987 264.073 85.299 264.019 85.282Z" fill="#263238"/>
<path d="M291.361 112.988L284.074 111.049C284.074 111.049 276.934 128.626 274.414 129.774C270.984 131.335 262.29 136.774 258.601 139.343C258.391 140.211 258.552 142.535 259.021 143.165C265.321 142.024 277.382 137.383 279.902 135.017C285.642 129.641 291.361 112.988 291.361 112.988Z" fill="#E4897B"/>
<path d="M293.258 110.98C295.183 117.182 287.658 125.68 287.658 125.68L277.263 121.438C278.489 117.845 279.908 114.322 281.512 110.882C284.711 104.001 291.312 104.715 293.258 110.98Z" fill="#407BFF"/>
<path opacity="0.6" d="M293.258 110.98C295.183 117.182 287.658 125.68 287.658 125.68L277.263 121.438C278.489 117.845 279.908 114.322 281.512 110.882C284.711 104.001 291.312 104.715 293.258 110.98Z" fill="#4450E4"/>
<path d="M286.3 286.3C285.945 286.332 285.59 286.238 285.299 286.034C285.209 285.952 285.141 285.849 285.103 285.734C285.065 285.618 285.058 285.495 285.082 285.376C285.086 285.301 285.109 285.229 285.15 285.167C285.19 285.104 285.246 285.053 285.313 285.019C285.908 284.725 287.553 285.768 287.735 285.887C287.755 285.9 287.772 285.919 287.781 285.941C287.791 285.964 287.795 285.989 287.791 286.013C287.784 286.037 287.771 286.06 287.753 286.077C287.734 286.095 287.711 286.106 287.686 286.111C287.232 286.226 286.767 286.289 286.3 286.3ZM285.6 285.215C285.547 285.203 285.492 285.203 285.439 285.215C285.412 285.229 285.39 285.25 285.374 285.276C285.358 285.302 285.349 285.332 285.348 285.362C285.331 285.443 285.335 285.528 285.36 285.607C285.384 285.687 285.428 285.759 285.488 285.817C286.076 286.084 286.745 286.116 287.357 285.908C286.812 285.553 286.199 285.315 285.558 285.208L285.6 285.215Z" fill="#407BFF"/>
<path d="M287.637 286.112H287.581C287.049 285.811 286.062 284.656 286.181 284.068C286.207 283.976 286.261 283.895 286.337 283.837C286.413 283.779 286.505 283.747 286.601 283.746C286.694 283.731 286.789 283.738 286.878 283.766C286.968 283.794 287.05 283.842 287.119 283.907C287.707 284.404 287.742 285.923 287.742 286.007C287.742 286.042 287.728 286.076 287.703 286.101C287.678 286.126 287.644 286.14 287.609 286.14L287.637 286.112ZM286.699 283.977H286.643C286.482 283.977 286.461 284.075 286.454 284.103C286.363 284.453 286.986 285.321 287.504 285.734C287.503 285.142 287.319 284.565 286.979 284.082C286.901 284.013 286.802 283.976 286.699 283.977Z" fill="#407BFF"/>
<path d="M267.687 285.425C267.261 285.574 266.797 285.574 266.371 285.425C266.269 285.377 266.181 285.303 266.116 285.211C266.051 285.119 266.011 285.012 266 284.9C265.992 284.831 266.001 284.762 266.025 284.697C266.049 284.633 266.089 284.575 266.14 284.529C266.707 284.032 268.989 284.571 269.248 284.634C269.272 284.641 269.293 284.654 269.309 284.673C269.325 284.691 269.336 284.714 269.339 284.739C269.34 284.765 269.333 284.791 269.319 284.814C269.306 284.836 269.286 284.854 269.262 284.865C268.754 285.098 268.227 285.285 267.687 285.425ZM266.553 284.592C266.471 284.606 266.395 284.64 266.329 284.69C266.308 284.709 266.293 284.734 266.285 284.761C266.276 284.788 266.274 284.816 266.28 284.844C266.282 284.916 266.303 284.987 266.341 285.048C266.379 285.11 266.433 285.16 266.497 285.194C266.868 285.397 267.736 285.236 268.842 284.774C268.095 284.581 267.321 284.52 266.553 284.592Z" fill="#407BFF"/>
<path d="M269.262 284.852H269.213C268.513 284.726 267.113 283.921 267.071 283.319C267.071 283.179 267.134 282.983 267.463 282.864C267.693 282.786 267.944 282.801 268.163 282.906C268.926 283.284 269.325 284.628 269.339 284.684C269.349 284.704 269.354 284.725 269.354 284.747C269.354 284.769 269.349 284.791 269.339 284.81C269.33 284.823 269.319 284.833 269.305 284.84C269.292 284.847 269.277 284.852 269.262 284.852ZM267.61 283.088H267.533C267.316 283.165 267.323 283.256 267.323 283.284C267.323 283.641 268.338 284.306 269.045 284.53C268.879 283.969 268.535 283.478 268.065 283.13C267.924 283.058 267.761 283.043 267.61 283.088Z" fill="#407BFF"/>
<path d="M203 148.008C203.6 146.298 204.706 144.811 206.172 143.744C207.637 142.678 209.392 142.082 211.204 142.037H282.1C283.078 142.014 284.049 142.205 284.945 142.597C285.841 142.989 286.641 143.572 287.288 144.306C287.935 145.04 288.413 145.906 288.69 146.844C288.967 147.782 289.035 148.77 288.89 149.737L273.133 283.668C272.847 285.764 271.825 287.69 270.248 289.101C268.672 290.512 266.645 291.316 264.53 291.368H86.7298C85.7515 291.392 84.7798 291.202 83.883 290.811C82.9861 290.419 82.186 289.836 81.5388 289.102C80.8915 288.368 80.413 287.501 80.1367 286.562C79.8605 285.623 79.7933 284.636 79.9398 283.668L93.3658 169.659C93.6512 167.563 94.6737 165.637 96.2501 164.226C97.8265 162.815 99.8538 162.011 101.969 161.959H183.869C192.213 161.959 200.158 156.177 203 148.008Z" fill="#407BFF"/>
<path opacity="0.1" d="M203 148.008C203.6 146.298 204.706 144.811 206.172 143.744C207.637 142.678 209.392 142.082 211.204 142.037H282.1C283.078 142.014 284.049 142.205 284.945 142.597C285.841 142.989 286.641 143.572 287.288 144.306C287.935 145.04 288.413 145.906 288.69 146.844C288.967 147.782 289.035 148.77 288.89 149.737L273.133 283.668C272.847 285.764 271.825 287.69 270.248 289.101C268.672 290.512 266.645 291.316 264.53 291.368H86.7298C85.7515 291.392 84.7798 291.202 83.883 290.811C82.9861 290.419 82.186 289.836 81.5388 289.102C80.8915 288.368 80.413 287.501 80.1367 286.562C79.8605 285.623 79.7933 284.636 79.9398 283.668L93.3658 169.659C93.6512 167.563 94.6737 165.637 96.2501 164.226C97.8265 162.815 99.8538 162.011 101.969 161.959H183.869C192.213 161.959 200.158 156.177 203 148.008Z" fill="#FAFAFA"/>
<path d="M139.623 88.7134L43.873 155.484L107.072 246.112L202.822 179.341L139.623 88.7134Z" fill="#407BFF"/>
<path opacity="0.8" d="M139.623 88.7134L43.873 155.484L107.072 246.112L202.822 179.341L139.623 88.7134Z" fill="#FAFAFA"/>
<path d="M139.371 90.1235L43.6211 156.895L106.821 247.523L202.57 180.751L139.371 90.1235Z" fill="#FAFAFA"/>
<path d="M137.42 102.058L55.4849 159.195L99.0166 221.62L180.952 164.482L137.42 102.058Z" fill="#407BFF"/>
<path opacity="0.8" d="M137.42 102.058L55.4849 159.195L99.0166 221.62L180.952 164.482L137.42 102.058Z" fill="#FAFAFA"/>
<path d="M106.05 155.793C107.634 158.065 108.509 160.757 108.562 163.527C108.616 166.297 107.847 169.021 106.352 171.353C104.857 173.686 102.703 175.523 100.164 176.631C97.6245 177.739 94.8135 178.068 92.0867 177.578C89.3599 177.087 86.84 175.799 84.8458 173.876C82.8517 171.952 81.4731 169.48 80.8845 166.773C80.2959 164.066 80.5239 161.245 81.5395 158.667C82.555 156.089 84.3126 153.871 86.5897 152.293C89.636 150.181 93.3952 149.364 97.0432 150.02C100.691 150.676 103.93 152.752 106.05 155.793Z" fill="#407BFF"/>
<path opacity="0.1" d="M106.05 155.793C107.634 158.065 108.509 160.757 108.562 163.527C108.616 166.297 107.847 169.021 106.352 171.353C104.857 173.686 102.703 175.523 100.164 176.631C97.6245 177.739 94.8135 178.068 92.0867 177.578C89.3599 177.087 86.84 175.799 84.8458 173.876C82.8517 171.952 81.4731 169.48 80.8845 166.773C80.2959 164.066 80.5239 161.245 81.5395 158.667C82.555 156.089 84.3126 153.871 86.5897 152.293C89.636 150.181 93.3952 149.364 97.0432 150.02C100.691 150.676 103.93 152.752 106.05 155.793Z" fill="#FAFAFA"/>
<path d="M158.312 149.626C156.203 147.524 153.657 145.913 150.855 144.905C148.054 143.897 145.065 143.518 142.1 143.795C142.009 143.669 141.939 143.529 141.848 143.396C139.137 139.459 135.123 136.606 130.514 135.338C125.905 134.071 120.997 134.47 116.654 136.466C112.31 138.462 108.811 141.926 106.771 146.249C104.731 150.572 104.283 155.476 105.504 160.098C104.892 160.386 104.305 160.723 103.747 161.106C101.751 162.494 100.217 164.448 99.3437 166.717C98.4702 168.985 98.2972 171.464 98.847 173.832C96.1753 174.879 93.8987 176.737 92.337 179.145C90.7324 181.538 89.8623 184.349 89.8337 187.23C89.8051 190.112 90.6193 192.939 92.176 195.364C93.2484 196.975 94.6317 198.355 96.2448 199.424C97.8578 200.493 99.6681 201.229 101.569 201.589C103.471 201.949 105.425 201.925 107.317 201.52C109.209 201.114 111.001 200.335 112.588 199.228L136.143 182.799L157.724 167.749C160.124 166.11 161.781 163.592 162.338 160.74C162.895 157.888 162.306 154.931 160.699 152.51L160.636 152.412C159.947 151.415 159.169 150.482 158.312 149.626Z" fill="#407BFF"/>
<path opacity="0.3" d="M158.312 149.626C156.203 147.524 153.657 145.913 150.855 144.905C148.054 143.897 145.065 143.518 142.1 143.795C142.009 143.669 141.939 143.529 141.848 143.396C139.137 139.459 135.123 136.606 130.514 135.338C125.905 134.071 120.997 134.47 116.654 136.466C112.31 138.462 108.811 141.926 106.771 146.249C104.731 150.572 104.283 155.476 105.504 160.098C104.892 160.386 104.305 160.723 103.747 161.106C101.751 162.494 100.217 164.448 99.3437 166.717C98.4702 168.985 98.2972 171.464 98.847 173.832C96.1753 174.879 93.8987 176.737 92.337 179.145C90.7324 181.538 89.8623 184.349 89.8337 187.23C89.8051 190.112 90.6193 192.939 92.176 195.364C93.2484 196.975 94.6317 198.355 96.2448 199.424C97.8578 200.493 99.6681 201.229 101.569 201.589C103.471 201.949 105.425 201.925 107.317 201.52C109.209 201.114 111.001 200.335 112.588 199.228L136.143 182.799L157.724 167.749C160.124 166.11 161.781 163.592 162.338 160.74C162.895 157.888 162.306 154.931 160.699 152.51L160.636 152.412C159.947 151.415 159.169 150.482 158.312 149.626Z" fill="black"/>
<g style="mix-blend-mode:multiply">
<path d="M142.648 104.682L44.5376 167.934L104.406 260.796L202.516 197.544L142.648 104.682Z" fill="#407BFF"/>
</g>
<path opacity="0.8" d="M142.648 104.682L44.5376 167.934L104.406 260.796L202.516 197.544L142.648 104.682Z" fill="#FAFAFA"/>
<path d="M142.352 106.09L44.2422 169.342L104.111 262.204L202.221 198.952L142.352 106.09Z" fill="#FAFAFA"/>
<path d="M139.972 117.95L56.0176 172.076L97.2549 236.039L181.21 181.914L139.972 117.95Z" fill="#407BFF"/>
<path opacity="0.8" d="M139.972 117.95L56.0176 172.076L97.2549 236.039L181.21 181.914L139.972 117.95Z" fill="#FAFAFA"/>
<path d="M108.573 181.007C110.185 173.461 105.375 166.036 97.8283 164.424C90.2821 162.812 82.8577 167.622 81.2454 175.168C79.6332 182.715 84.4436 190.139 91.9898 191.751C99.536 193.364 106.96 188.553 108.573 181.007Z" fill="#407BFF"/>
<path opacity="0.1" d="M108.573 181.007C110.185 173.461 105.375 166.036 97.8283 164.424C90.2821 162.812 82.8577 167.622 81.2454 175.168C79.6332 182.715 84.4436 190.139 91.9898 191.751C99.536 193.364 106.96 188.553 108.573 181.007Z" fill="#FAFAFA"/>
<path d="M159.11 166.265C157.077 164.086 154.59 162.382 151.824 161.273C149.059 160.163 146.083 159.676 143.108 159.846C143.024 159.706 142.961 159.566 142.87 159.433C140.301 155.4 136.391 152.404 131.829 150.971C127.267 149.539 122.346 149.763 117.933 151.604C113.52 153.445 109.898 156.784 107.706 161.034C105.515 165.283 104.893 170.17 105.952 174.833C105.327 175.094 104.725 175.408 104.153 175.771C102.112 177.087 100.512 178.984 99.5591 181.217C98.606 183.45 98.3433 185.917 98.8048 188.301C96.0951 189.245 93.7513 191.018 92.1058 193.369C90.4147 195.702 89.4428 198.478 89.3097 201.356C89.1766 204.234 89.8882 207.089 91.3568 209.567C92.3675 211.218 93.6978 212.651 95.2698 213.781C96.8418 214.911 98.6236 215.715 100.511 216.147C102.398 216.578 104.352 216.629 106.259 216.295C108.166 215.961 109.987 215.249 111.615 214.201L135.8 198.605L157.92 184.346C160.371 182.79 162.112 180.332 162.767 177.503C163.422 174.674 162.938 171.701 161.42 169.226L161.35 169.128C160.693 168.107 159.944 167.148 159.11 166.265Z" fill="#407BFF"/>
<path opacity="0.3" d="M159.11 166.265C157.077 164.086 154.59 162.382 151.824 161.273C149.059 160.163 146.083 159.676 143.108 159.846C143.024 159.706 142.961 159.566 142.87 159.433C140.301 155.4 136.391 152.404 131.829 150.971C127.267 149.539 122.346 149.763 117.933 151.604C113.52 153.445 109.898 156.784 107.706 161.034C105.515 165.283 104.893 170.17 105.952 174.833C105.327 175.094 104.725 175.408 104.153 175.771C102.112 177.087 100.512 178.984 99.5591 181.217C98.606 183.45 98.3433 185.917 98.8048 188.301C96.0951 189.245 93.7513 191.018 92.1058 193.369C90.4147 195.702 89.4428 198.478 89.3097 201.356C89.1766 204.234 89.8882 207.089 91.3568 209.567C92.3675 211.218 93.6978 212.651 95.2698 213.781C96.8418 214.911 98.6236 215.715 100.511 216.147C102.398 216.578 104.352 216.629 106.259 216.295C108.166 215.961 109.987 215.249 111.615 214.201L135.8 198.605L157.92 184.346C160.371 182.79 162.112 180.332 162.767 177.503C163.422 174.674 162.938 171.701 161.42 169.226L161.35 169.128C160.693 168.107 159.944 167.148 159.11 166.265Z" fill="black"/>
<g style="mix-blend-mode:multiply">
<path d="M230.372 116.264L114.336 128.992L126.384 238.821L242.42 226.093L230.372 116.264Z" fill="#407BFF"/>
</g>
<path opacity="0.8" d="M230.372 116.264L114.336 128.992L126.384 238.821L242.42 226.093L230.372 116.264Z" fill="#FAFAFA"/>
<path d="M229.47 117.383L113.434 130.111L125.482 239.941L241.518 227.212L229.47 117.383Z" fill="#FAFAFA"/>
<path d="M222.043 126.926L122.749 137.818L131.047 213.469L230.341 202.577L222.043 126.926Z" fill="#407BFF"/>
<path opacity="0.8" d="M222.043 126.926L122.749 137.818L131.047 213.469L230.341 202.577L222.043 126.926Z" fill="#FAFAFA"/>
<path d="M230.048 199.808L230.349 202.573L178.773 208.236L191.086 193.634L203.693 178.668L230.048 199.808Z" fill="#407BFF"/>
<path opacity="0.3" d="M230.048 199.808L230.349 202.573L178.773 208.236L191.086 193.634L203.693 178.668L230.048 199.808Z" fill="black"/>
<path d="M208.019 205.023L131.061 213.465L130.389 207.382L160.594 173.131L191.086 193.634L208.019 205.023Z" fill="#407BFF"/>
<path opacity="0.3" d="M208.019 205.023L131.061 213.465L130.389 207.382L160.594 173.131L191.086 193.634L208.019 205.023Z" fill="black"/>
<path d="M198.56 155.031C198.832 148.507 193.764 142.997 187.24 142.725C180.716 142.453 175.207 147.521 174.934 154.045C174.662 160.569 179.73 166.078 186.254 166.35C192.778 166.623 198.288 161.555 198.56 155.031Z" fill="#407BFF"/>
<path opacity="0.1" d="M198.56 155.031C198.832 148.507 193.764 142.997 187.24 142.725C180.716 142.453 175.207 147.521 174.934 154.045C174.662 160.569 179.73 166.078 186.254 166.35C192.778 166.623 198.288 161.555 198.56 155.031Z" fill="#FAFAFA"/>
<g style="mix-blend-mode:multiply" opacity="0.7">
<path d="M172.795 175.966C173.271 172.956 176.148 170.814 179.739 170.814H250.656C254.905 170.814 258.671 173.789 259.056 177.457L268.562 284.725C268.961 288.393 265.832 291.368 261.562 291.368H83.7618C79.5058 291.368 75.7398 288.393 75.3618 284.725L67.7248 194.642C67.3258 190.974 70.4478 188.006 74.7248 188.006H156.625C164.955 188.006 171.682 183.015 172.795 175.966Z" fill="#407BFF"/>
</g>
<path d="M259.189 138.93L253.589 140.848L250.033 143.354L256.417 145.832C256.417 145.832 262.381 145.202 263.816 141.968L259.189 138.93Z" fill="#E4897B"/>
</svg>
