<svg width="356" height="300" viewBox="0 0 356 300" fill="none" xmlns="http://www.w3.org/2000/svg">
<path opacity="0.5" d="M181.701 300C277.429 300 355.031 289.237 355.031 275.962C355.031 262.686 277.429 251.924 181.701 251.924C85.9736 251.924 8.37109 262.686 8.37109 275.962C8.37109 289.237 85.9736 300 181.701 300Z" fill="#F5F5F5"/>
<path d="M150.514 232.802C150.547 230.333 150.45 226.912 149.861 222.894C149.364 219.51 147.779 208.7 142.079 200.531C133.464 188.184 123.698 193.689 113.687 180.924C107.959 173.619 109.57 169.791 103.018 163.943C97.2299 158.777 91.017 156.875 84.3968 155.786C67.6448 153.031 40.3145 155.615 40.3145 155.615C42.6217 182.105 51.5263 193.058 59.2108 198.169C69.9951 205.341 78.2904 200.948 87.9023 209.533C100.415 220.709 92.2011 233.372 103.871 244.999C103.871 244.999 108.98 250.09 148.626 257.625L150.514 232.802Z" fill="#0D3FAD"/>
<path d="M148.626 257.625C148.626 257.625 117.999 205.499 106.332 195.283C94.665 185.067 40.3145 155.615 40.3145 155.615" stroke="#D6D6D6" stroke-width="0.4657" stroke-miterlimit="10" stroke-linecap="round" stroke-linejoin="round"/>
<path d="M79.6439 177.846L45.4326 179.761" stroke="#D6D6D6" stroke-width="0.4657" stroke-miterlimit="10" stroke-linecap="round" stroke-linejoin="round"/>
<path d="M86.7119 182.079L88.9823 156.707" stroke="#D6D6D6" stroke-width="0.4657" stroke-miterlimit="10" stroke-linecap="round" stroke-linejoin="round"/>
<path d="M102.267 192.131L72.6572 203.071" stroke="#D6D6D6" stroke-width="0.4657" stroke-miterlimit="10" stroke-linecap="round" stroke-linejoin="round"/>
<path d="M114.795 205.134L118.605 185.898" stroke="#D6D6D6" stroke-width="0.4657" stroke-miterlimit="10" stroke-linecap="round" stroke-linejoin="round"/>
<path d="M124.35 218.762L95.666 224.001" stroke="#D6D6D6" stroke-width="0.4657" stroke-miterlimit="10" stroke-linecap="round" stroke-linejoin="round"/>
<path d="M131.832 230.251L142.627 201.346" stroke="#D6D6D6" stroke-width="0.4657" stroke-miterlimit="10" stroke-linecap="round" stroke-linejoin="round"/>
<path d="M138.641 241.113L105.463 246.004" stroke="#D6D6D6" stroke-width="0.4657" stroke-miterlimit="10" stroke-linecap="round" stroke-linejoin="round"/>
<path d="M132.304 236.883C131.391 234.59 129.993 231.465 127.913 227.978C126.161 225.04 120.565 215.657 112.175 210.287C99.4943 202.17 92.5742 210.99 78.445 203.02C70.3587 198.459 70.3846 194.306 62.0947 191.405C54.772 188.844 48.303 189.461 41.7706 190.985C25.2371 194.841 0.969727 207.675 0.969727 207.675C13.2264 231.272 25.6412 237.99 34.6954 239.776C47.4024 242.281 53.389 235.052 65.5524 239.311C81.3866 244.856 78.6361 259.697 93.8641 265.982C93.8641 265.982 100.53 268.733 140.047 260.543L132.304 236.883Z" fill="#0D3FAD"/>
<path d="M140.047 260.544C140.047 260.544 91.8215 224.081 77.1363 219.1C62.4503 214.118 0.969727 207.676 0.969727 207.676" fill="#0D3FAD"/>
<path d="M140.047 260.544C140.047 260.544 91.8215 224.081 77.1363 219.1C62.4503 214.118 0.969727 207.676 0.969727 207.676" stroke="#D6D6D6" stroke-width="0.4657" stroke-miterlimit="10" stroke-linecap="round" stroke-linejoin="round"/>
<path d="M45.8105 213.186L14.9277 228.031" stroke="#D6D6D6" stroke-width="0.4657" stroke-miterlimit="10" stroke-linecap="round" stroke-linejoin="round"/>
<path d="M53.9595 214.398L46.3604 190.084" stroke="#D6D6D6" stroke-width="0.4657" stroke-miterlimit="10" stroke-linecap="round" stroke-linejoin="round"/>
<path d="M72.1762 217.74L48.9951 239.167" stroke="#D6D6D6" stroke-width="0.4657" stroke-miterlimit="10" stroke-linecap="round" stroke-linejoin="round"/>
<path d="M88.7219 224.968L84.8906 205.736" stroke="#D6D6D6" stroke-width="0.4657" stroke-miterlimit="10" stroke-linecap="round" stroke-linejoin="round"/>
<path d="M102.761 233.91L78.2559 249.715" stroke="#D6D6D6" stroke-width="0.4657" stroke-miterlimit="10" stroke-linecap="round" stroke-linejoin="round"/>
<path d="M114.066 241.667L112.994 210.83" stroke="#D6D6D6" stroke-width="0.4657" stroke-miterlimit="10" stroke-linecap="round" stroke-linejoin="round"/>
<path d="M124.51 249.102L95.7197 266.302" stroke="#D6D6D6" stroke-width="0.4657" stroke-miterlimit="10" stroke-linecap="round" stroke-linejoin="round"/>
<path d="M243.89 260.942H139.464L149.521 191.889H233.833L243.89 260.942Z" fill="#FF5733"/>
<path d="M321.514 204.062H61.8402C55.2428 204.062 49.8945 198.714 49.8945 192.116V28.5258C49.8945 21.9284 55.2428 16.5801 61.8402 16.5801H321.514C328.112 16.5801 333.46 21.9284 333.46 28.5258V192.116C333.46 198.714 328.112 204.062 321.514 204.062Z" fill="#FF5733"/>
<path d="M314.633 184.393H68.7211C62.1237 184.393 56.7754 179.044 56.7754 172.447V34.1703C56.7754 27.5729 62.1237 22.2246 68.7211 22.2246H314.634C321.231 22.2246 326.58 27.5729 326.58 34.1703V172.447C326.58 179.044 321.231 184.393 314.633 184.393Z" fill="#F9AE9E"/>
<path d="M266.023 265.968H117.33V258.785C117.33 253.231 121.833 248.729 127.387 248.729H255.966C261.521 248.729 266.023 253.231 266.023 258.785V265.968Z" fill="#FF5733"/>
<path d="M65.5723 184.393H312.795" stroke="#262626" stroke-miterlimit="10" stroke-linecap="round" stroke-linejoin="round"/>
<path d="M123.876 262.378V258.607C123.876 256.326 125.725 254.477 128.006 254.477H239.526" stroke="#262626" stroke-miterlimit="10" stroke-linecap="round" stroke-linejoin="round"/>
<path d="M227.674 209.58L231.624 239.75" stroke="#262626" stroke-miterlimit="10" stroke-linecap="round" stroke-linejoin="round"/>
<path d="M189.183 200.623C192.378 200.623 194.968 198.033 194.968 194.838C194.968 191.643 192.378 189.053 189.183 189.053C185.988 189.053 183.397 191.643 183.397 194.838C183.397 198.033 185.988 200.623 189.183 200.623Z" fill="white"/>
<path d="M271.491 33.2324H302.199C308.051 33.2324 312.795 37.9761 312.795 43.8279V107.634" stroke="white" stroke-miterlimit="10" stroke-linecap="round" stroke-linejoin="round"/>
<path d="M294.926 53.4444C296.7 49.1777 298.454 45.8766 300.187 43.5435C301.921 41.2105 304.178 39.3497 306.961 37.9619C308.588 37.1114 310.282 36.5013 312.049 36.1324C313.812 35.7643 315.491 35.2952 317.086 34.7274C318.677 34.1604 320.143 33.3897 321.48 32.4186C322.817 31.4475 323.921 29.914 324.794 27.8159C326.266 24.2728 326.32 21.3884 324.954 19.1666C323.587 16.9447 321.565 15.2765 318.89 14.1644C315.054 12.5707 311.971 12.5409 309.639 14.0728C307.304 15.6055 305.204 18.1046 303.341 21.5709L289.345 15.7535C290.818 12.2104 292.734 9.23125 295.095 6.81908C297.453 4.40769 300.122 2.63224 303.098 1.49351C306.072 0.356346 309.286 -0.13235 312.74 0.0305499C316.191 0.192666 319.726 1.02596 323.344 2.52965C331.155 5.77668 336.658 9.9314 339.857 14.993C343.054 20.0555 343.166 26.1658 340.189 33.3263C339.226 35.6421 338.149 37.568 336.958 39.1092C335.765 40.6489 334.406 41.9286 332.88 42.9491C331.353 43.968 329.646 44.8076 327.762 45.4662C325.876 46.1249 323.795 46.7436 321.519 47.3239C319.415 47.8925 317.658 48.4987 316.246 49.1401C314.834 49.7839 313.632 50.5788 312.647 51.5248C311.659 52.4717 310.829 53.5493 310.16 54.7531C309.488 55.9592 308.822 57.3587 308.162 58.9485L294.926 53.4444ZM285.788 74.2039L291.696 59.9909L306.342 66.0793L300.434 80.2923L285.788 74.2039Z" fill="#3897E9"/>
<path d="M209.583 74.7755V63.1689C209.583 59.3619 206.496 56.2754 202.689 56.2754H135.314C131.507 56.2754 128.421 59.3619 128.421 63.1689V74.7755V152.1C128.421 155.907 131.507 158.993 135.314 158.993H243.053C246.86 158.993 249.946 155.907 249.946 152.1V81.6689C249.946 77.8619 246.86 74.7755 243.053 74.7755H209.583Z" fill="#F5F5F5"/>
<path d="M202.757 90.9863L189.183 104.56L175.61 90.9871L167.419 99.1775L180.992 112.751L167.419 126.325L175.61 134.516L189.183 120.943L202.757 134.516L210.948 126.325L197.374 112.751L210.948 99.1775L202.757 90.9863Z" fill="#D6D6D6"/>
<path d="M42.1109 265.3V256.363H25.6533V280.938L62.8132 281.534V277.066L42.1109 265.3Z" fill="#F7A99C"/>
<path d="M64.1294 281.535V279.417C64.1294 277.25 62.9414 275.26 61.0351 274.23L45.3631 265.772C40.6648 267.056 37.0341 266.876 34.553 266.455C30.4327 265.756 26.4949 263.884 25.1698 265.45C24.7907 265.898 24.7453 266.485 24.7602 266.889V279.884C24.7602 280.796 25.4995 281.535 26.4111 281.535H64.1294Z" fill="#FFC001"/>
<path d="M64.1298 280.119H24.7598" stroke="#3897E9" stroke-width="0.733" stroke-miterlimit="10" stroke-linecap="round" stroke-linejoin="round"/>
<path d="M55.4554 271.396L53.25 274.311" stroke="#3897E9" stroke-width="0.733" stroke-miterlimit="10" stroke-linecap="round" stroke-linejoin="round"/>
<path d="M53.8392 270.484L51.6338 273.399" stroke="#3897E9" stroke-width="0.733" stroke-miterlimit="10" stroke-linecap="round" stroke-linejoin="round"/>
<path d="M52.1515 269.639L49.9453 272.553" stroke="#3897E9" stroke-width="0.733" stroke-miterlimit="10" stroke-linecap="round" stroke-linejoin="round"/>
<path d="M49.6654 268.094C46.9948 269.113 42.5871 270.419 37.0227 270.389C31.654 270.36 27.3928 269.099 24.7598 268.094" stroke="#3897E9" stroke-width="0.733" stroke-miterlimit="10" stroke-linecap="round" stroke-linejoin="round"/>
<path d="M89.0269 265.3V256.363H72.5693V280.938L109.729 281.534V277.066L89.0269 265.3Z" fill="#F7A99C"/>
<path d="M111.045 281.535V279.417C111.045 277.25 109.857 275.26 107.951 274.23L92.2791 265.772C87.5809 267.056 83.9501 266.876 81.469 266.455C77.3487 265.756 73.4109 263.884 72.0858 265.45C71.7068 265.898 71.6613 266.485 71.6762 266.889V279.884C71.6762 280.796 72.4155 281.535 73.3271 281.535H111.045Z" fill="#FFC001"/>
<path d="M111.045 280.119H71.6758" stroke="#3897E9" stroke-width="0.733" stroke-miterlimit="10" stroke-linecap="round" stroke-linejoin="round"/>
<path d="M102.371 271.396L100.166 274.311" stroke="#3897E9" stroke-width="0.733" stroke-miterlimit="10" stroke-linecap="round" stroke-linejoin="round"/>
<path d="M100.755 270.484L98.5498 273.399" stroke="#3897E9" stroke-width="0.733" stroke-miterlimit="10" stroke-linecap="round" stroke-linejoin="round"/>
<path d="M99.0677 269.639L96.8623 272.553" stroke="#3897E9" stroke-width="0.733" stroke-miterlimit="10" stroke-linecap="round" stroke-linejoin="round"/>
<path d="M96.5814 268.094C93.9108 269.113 89.5031 270.419 83.9387 270.389C78.5708 270.36 74.3088 269.099 71.6758 268.094" stroke="#3897E9" stroke-width="0.733" stroke-miterlimit="10" stroke-linecap="round" stroke-linejoin="round"/>
<path d="M79.57 138.031C79.57 138.031 93.1236 181.075 95.2084 187.033C97.2932 192.99 99.23 201.331 98.7828 208.629C98.3356 215.927 91.3356 260.906 91.3356 260.906H70.9309C70.9309 260.906 69.4898 213.394 68.7951 209.671C68.1005 205.948 62.1429 184.886 62.1429 184.886C62.1429 184.886 60.2069 209.522 58.5685 216.075C56.9301 222.629 43.8237 261.651 43.8237 261.651H24.7598L32.8029 138.031H79.57Z" fill="#3897E9"/>
<path d="M110.677 111.791C110.677 111.791 117.148 106.301 118.786 102.709C120.188 99.6352 122.147 94.2344 122.683 92.7417C122.763 92.5162 123 92.3916 123.233 92.4465L123.62 92.5381C124.821 92.8224 125.562 94.0285 125.274 95.2283L124.628 97.9208L131.466 93.4301C132.053 93.0448 132.843 93.2343 133.191 93.8444C133.498 94.3825 133.351 95.0654 132.851 95.4296L128.34 98.7189L135.833 95.2009C136.413 94.9283 137.105 95.1476 137.423 95.7045L137.432 95.7209C137.768 96.3106 137.563 97.0609 136.973 97.3969L137.057 97.3726C137.708 97.1854 138.398 97.501 138.681 98.1151C139.01 98.8262 138.677 99.6673 137.951 99.961L137.474 100.154C138.096 99.9594 138.749 100.347 138.876 100.986C139.061 101.919 138.612 102.861 137.768 103.3C135.752 104.35 134.443 104.626 132.526 106.061C131.009 107.196 131.54 107.919 129.922 109.989C127.952 112.51 126.274 112.581 122.879 115.076C121.59 116.024 119.81 117.501 117.929 119.699L110.677 111.791Z" fill="#F7A99C"/>
<path d="M133.299 94.1152C133.299 94.1152 133.643 94.8123 132.99 95.3088C132.338 95.8053 127.242 99.5771 127.242 99.5771" stroke="#262626" stroke-width="0.4147" stroke-miterlimit="10" stroke-linecap="round" stroke-linejoin="round"/>
<path d="M136.973 97.3965L129.957 100.653" stroke="#262626" stroke-width="0.4147" stroke-miterlimit="10" stroke-linecap="round" stroke-linejoin="round"/>
<path d="M137.695 100.111L130.642 103.358" stroke="#262626" stroke-width="0.4147" stroke-miterlimit="10" stroke-linecap="round" stroke-linejoin="round"/>
<path d="M124.11 92.7207C124.11 92.7207 125.343 93.5007 125.308 94.3654C125.274 95.23 124.03 100.784 124.03 100.784" stroke="#262626" stroke-width="0.4147" stroke-miterlimit="10" stroke-linecap="round" stroke-linejoin="round"/>
<path d="M70.9313 260.907C70.9313 260.907 69.0845 212.191 68.9404 210.931C68.7963 209.672 61.8535 183.887 61.8535 183.887L63.0831 172.49C63.0831 172.49 77.0901 206.97 77.0901 209.244C77.0901 211.52 78.6463 260.907 78.6463 260.907H70.9313Z" fill="#1775AF"/>
<path d="M59.3633 213.093L64.3411 159.256" stroke="#262626" stroke-width="0.4147" stroke-miterlimit="10" stroke-linecap="round" stroke-linejoin="round"/>
<path d="M92.1196 256.773H70.7734L70.9309 260.907H91.3356L92.1196 256.773Z" fill="#262626"/>
<path d="M45.0611 257.959H25.0002L24.7598 261.652H43.8245L45.0611 257.959Z" fill="#262626"/>
<path d="M93.3623 191.289C96.0635 199.792 96.4919 209.005 94.5903 217.722" stroke="white" stroke-width="0.4147" stroke-miterlimit="10" stroke-linecap="round" stroke-linejoin="round"/>
<path d="M116.056 106.002C116.056 106.002 112.601 108.663 108.664 109.353C104.052 110.163 100.053 107.431 98.9789 106.698C96.0546 104.701 94.9746 102.335 93.0409 99.5668C87.3128 91.367 83.7549 86.2732 78.7739 83.3888C76.1996 81.8976 71.8945 80.2146 65.1075 80.7354C63.585 80.1895 61.158 80.6218 59.5321 80.6218C58.1804 80.6218 56.8294 80.6218 55.4777 80.6218C52.8133 80.9414 33.1902 83.2212 29.8539 80.1574C28.5389 78.9498 28.5178 77.7601 28.5178 77.7601C28.5005 76.7765 29.1216 75.7529 30.7475 74.5147C34.7205 71.4893 42.0087 69.2306 44.4498 68.5109L42.9602 57.3867C42.9602 57.3867 42.9602 57.3867 39.6834 57.3867C36.4067 57.3867 24.7891 59.3227 18.5339 61.5085C9.76315 64.5731 5.06413 66.8098 2.74594 71.8903C-0.158059 78.2567 2.93547 85.0992 3.739 86.877C7.76607 95.784 16.6958 99.389 22.0895 101.566C26.8465 103.487 31.0803 104.258 34.0235 104.601L31.4915 145.113L78.0557 147.645H85.0487C85.5843 141.455 82.9059 122.222 83.2528 115.939C89.1979 124.212 99.0455 128.391 108.394 126.594C118.744 124.606 123.949 116.166 124.796 114.741C121.184 107.615 116.056 106.002 116.056 106.002Z" fill="#4450E4"/>
<path d="M58.2027 103.067H57.7539V83.7324H60.6869V100.583C60.6869 101.955 59.5748 103.067 58.2027 103.067Z" fill="white"/>
<path d="M85.1199 145.508C83.5159 145.806 61.4751 149.502 45.901 133.057C32.7594 119.182 34.3132 101.622 34.5873 99.0254C33.7696 111.205 32.9512 123.385 32.1336 135.565H32.089L31.4922 145.112L38.7913 145.509L38.7866 145.457C49.6727 146.319 60.9073 146.962 72.474 147.341C76.7109 147.479 80.9033 147.58 85.0502 147.645C85.0729 146.932 85.0964 146.22 85.1199 145.508Z" fill="#3748C4"/>
<path d="M72.7722 65.9858C73.5703 61.8898 73.4458 58.6882 73.2139 56.6418C73.0377 55.0848 72.7668 53.9061 71.9397 52.7854C71.7651 52.5489 70.3914 50.7429 68.034 50.2714C65.2146 49.7068 64.5027 51.7548 60.4921 52.2513C57.0336 52.6789 56.3523 51.306 54.0262 52.292C51.4856 53.3689 50.2318 55.8836 49.8512 56.6472C49.6851 56.9809 48.8573 58.6866 48.7735 61.0769C48.7069 62.9698 49.1392 64.3936 49.3108 64.9763C50.0313 67.4284 50.8795 71.1578 51.9164 77.1201C52.4575 77.0998 52.9995 77.0802 53.5407 77.0598C59.9517 73.3672 66.362 69.6761 72.7722 65.9858Z" fill="#262626"/>
<path d="M59.0603 86.1315C56.031 86.1433 53.5663 83.6966 53.5554 80.6681L53.5107 68.8657L64.4798 68.8242L64.5245 80.6266C64.5355 83.6551 62.0896 86.1198 59.0603 86.1315Z" fill="#F7A99C"/>
<path d="M64.5105 77.3223L57.3672 73.6523C57.4392 74.271 57.8457 77.168 60.3934 79.169C62.02 80.4464 63.7305 80.7385 64.5199 80.8215L64.5105 77.3223Z" fill="#FF7769"/>
<path d="M53.244 65.209C53.2096 65.0305 52.7397 64.7611 52.5956 64.6694C52.352 64.5136 52.0881 64.389 51.8124 64.3006C51.2775 64.1283 50.6893 64.0883 50.1396 64.2144C49.0462 64.465 48.0767 65.3837 47.8942 66.5091C47.7885 67.163 47.9396 67.8389 48.2192 68.4388C48.6406 69.341 49.3548 70.0991 50.2179 70.5957C50.9329 71.0076 51.7466 71.241 52.569 71.2896C52.7334 71.299 54.4196 71.2606 54.4071 71.1956C54.0186 69.2001 53.6309 67.2045 53.244 65.209Z" fill="#F7A99C"/>
<path d="M51.7405 65.3233C51.8705 66.2036 52.6442 70.8486 56.8311 74.1301C57.6025 74.7347 62.7291 78.7532 67.4203 76.7921C73.4484 74.2718 72.7905 64.371 72.7483 63.8345C72.6049 62.0215 72.1812 56.6826 67.7602 53.8342C64.1522 51.5098 60.2418 52.3642 59.6873 52.495C59.1031 52.632 55.3806 53.5718 53.1024 57.2214C51.034 60.5335 51.5282 63.8823 51.7405 65.3233Z" fill="#F7A99C"/>
<path d="M69.3269 63.841C69.4241 64.614 70.0201 65.1756 70.6583 65.0957C71.2966 65.0158 71.7352 64.3243 71.6381 63.5513C71.541 62.7783 70.945 62.2167 70.3067 62.2966C69.6684 62.3765 69.2298 63.0681 69.3269 63.841Z" fill="#262626"/>
<path d="M62.3611 64.716C62.4582 65.489 63.0542 66.0506 63.6925 65.9707C64.3308 65.8908 64.7694 65.1993 64.6722 64.4263C64.5751 63.6533 63.9791 63.0917 63.3409 63.1716C62.7033 63.2515 62.264 63.9431 62.3611 64.716Z" fill="#262626"/>
<path d="M67.2234 64.998L68.2909 66.4407C68.4875 66.7054 68.4138 67.0821 68.1319 67.2536L67.1514 67.8504" stroke="#262626" stroke-width="0.733" stroke-miterlimit="10" stroke-linecap="round" stroke-linejoin="round"/>
<path d="M60.0252 68.3564C60.134 69.2234 60.9258 69.839 61.7928 69.7293C62.6598 69.6205 63.2753 68.8287 63.1657 67.9617C63.0568 67.0948 62.2651 66.4792 61.3981 66.5888C60.5311 66.6977 59.9163 67.4895 60.0252 68.3564Z" fill="#FF7769"/>
<path d="M52.5076 69.1747C52.513 69.0009 52.5271 67.823 51.5826 66.9732C50.8425 66.3075 49.981 66.2637 49.7461 66.2598" stroke="#262626" stroke-width="0.733" stroke-miterlimit="10" stroke-linecap="round" stroke-linejoin="round"/>
<path d="M51.6748 67.2051C51.6223 67.1964 50.9887 67.1087 50.5462 67.588C50.1821 67.982 50.2157 68.4691 50.2228 68.5498" stroke="#262626" stroke-width="0.733" stroke-miterlimit="10" stroke-linecap="round" stroke-linejoin="round"/>
<path d="M51.6017 64.2416C51.6017 64.2416 52.3809 64.3105 52.9683 64.894C53.5557 65.4767 53.764 66.4752 53.764 66.4752C55.2653 66.2927 58.7043 65.6592 61.8236 62.9517C63.5145 61.4841 64.5467 59.8974 65.1552 58.7531C65.7238 59.2646 66.6942 60.0328 68.0671 60.6249C69.8582 61.3971 72.0957 61.7668 72.3925 61.1653C72.4473 61.0541 72.387 60.7314 72.2649 60.0869C72.221 59.8535 72.1748 59.5081 72.0612 59.1776C71.8396 58.5307 71.5514 57.9065 71.2076 57.3152C70.5184 56.1327 69.6013 55.0824 68.5221 54.2405C67.8204 53.6939 67.0505 53.2349 66.2313 52.8864C63.6312 51.7806 60.0208 51.7798 56.9131 53.437C56.9131 53.437 53.4437 55.2876 51.9142 58.909C51.3887 60.1535 51.2563 61.3979 51.2234 61.8294C51.1576 62.6839 51.2539 63.2423 51.3839 63.6715C51.4576 63.9142 51.5398 64.1092 51.6017 64.2416Z" fill="#262626"/>
<path d="M71.9264 65.8537C72.2264 65.8161 72.5154 65.8694 72.7722 65.9861C72.7417 66.8358 72.6603 67.8665 72.4731 68.9598C72.4222 68.9715 72.3736 68.988 72.3211 68.995C71.4542 69.1039 70.6624 68.4891 70.5535 67.6221C70.4447 66.7551 71.0587 65.9626 71.9264 65.8537Z" fill="#FF7769"/>
<path d="M60.3126 52.6963C59.7973 52.4958 59.0423 52.2225 58.1127 51.9554C56.0749 51.3712 55.0559 51.0791 54.1287 51.1981C51.4142 51.5466 49.8549 55.1241 49.201 56.6247C48.706 57.7603 47.8962 59.6877 48.3254 62.1022C48.5165 63.1767 48.8947 64.0171 49.1955 64.5723" stroke="#262626" stroke-width="0.25" stroke-miterlimit="10" stroke-linecap="round" stroke-linejoin="round"/>
<path d="M60.3125 52.3727C61.2304 51.9718 62.2117 51.6467 63.0959 51.187C64.0239 50.7046 64.8345 50.0773 65.8284 49.7068C66.8723 49.3176 68.0377 49.1617 69.1036 49.4852C70.0223 49.764 70.8078 50.378 71.4562 51.086C72.3295 52.0399 72.9944 53.1912 73.3406 54.4372C74.0078 56.8384 73.4118 59.3406 73.0187 61.734" stroke="#262626" stroke-width="0.25" stroke-miterlimit="10" stroke-linecap="round" stroke-linejoin="round"/>
<path d="M68.4023 71.1543C68.4023 71.9343 67.6426 72.5663 66.7059 72.5663C65.7685 72.5663 65.0088 71.9343 65.0088 71.1543C65.0088 70.3742 65.7685 69.7422 66.7059 69.7422C67.6426 69.743 68.4023 70.375 68.4023 71.1543Z" fill="white"/>
<path d="M43.2158 59.2961L46.3493 57.3875C46.3493 57.3875 46.9891 54.6268 47.8592 54.0433C48.7293 53.4599 53.3532 51.6641 53.3532 51.6641L54.0267 52.293C54.0267 52.293 50.4085 55.5979 49.659 57.0656C48.9087 58.5333 48.7677 62.6191 48.7677 62.6191L45.2278 67.1959L44.3616 67.8514L43.2158 59.2961Z" fill="#F7A99C"/>
<path d="M34.5872 100.783L32.9395 121.955" stroke="#262626" stroke-width="0.4147" stroke-miterlimit="10" stroke-linecap="round" stroke-linejoin="round"/>
<path d="M82.4453 102.514L83.7086 125.873" stroke="#262626" stroke-width="0.4147" stroke-miterlimit="10" stroke-linecap="round" stroke-linejoin="round"/>
<path d="M10.1048 69.1738C9.45005 69.6946 6.06362 72.496 5.5154 77.4449C4.91863 82.8362 8.16095 86.5265 8.66767 87.0842" stroke="white" stroke-width="0.4147" stroke-miterlimit="10" stroke-linecap="round" stroke-linejoin="round"/>
<path d="M90.5566 117.494C91.4275 118.461 94.814 121.991 100.504 122.76C105.901 123.49 109.928 121.272 111.088 120.577" stroke="white" stroke-width="0.4147" stroke-miterlimit="10" stroke-linecap="round" stroke-linejoin="round"/>
<path d="M238.517 136.043L245.781 132.16L256.556 134.136L261.943 128.389L274.693 131.801L281.787 122.104L294.454 129.868L290.145 102.486L273.43 90.7832L235.014 96.8293C233.575 97.0556 232.593 98.405 232.82 99.8437L238.517 136.043Z" fill="#F5F5F5"/>
<path d="M277.335 104.5L290.145 102.484L273.431 90.7812L275.364 103.065C275.512 104.006 276.394 104.648 277.335 104.5Z" fill="#D6D6D6"/>
<path d="M273.431 90.7812L275.364 103.065C275.512 104.006 276.395 104.648 277.336 104.5L290.146 102.484" stroke="#262626" stroke-width="0.274" stroke-miterlimit="10" stroke-linecap="round" stroke-linejoin="round"/>
<path d="M243.695 171.996C243.921 173.435 245.271 174.417 246.709 174.191L297.034 166.27C298.472 166.044 299.454 164.695 299.228 163.256L294.454 132.921L281.787 125.156L274.693 134.853L261.943 131.441L256.555 137.188L245.781 135.213L238.517 139.096L243.695 171.996Z" fill="#F5F5F5"/>
<path d="M238.528 136.041L245.792 132.159L256.567 134.134L261.954 128.387L274.704 131.799L281.798 122.102L294.465 129.866L290.155 102.484L273.441 90.7812L235.025 96.8273C233.586 97.0537 232.604 98.4031 232.83 99.8418L238.528 136.041Z" stroke="#262626" stroke-width="0.274" stroke-miterlimit="10" stroke-linecap="round" stroke-linejoin="round"/>
<path d="M243.706 171.996C243.932 173.435 245.281 174.417 246.72 174.191L297.044 166.27C298.483 166.044 299.465 164.695 299.239 163.256L294.465 132.921L281.798 125.156L274.704 134.853L261.954 131.441L256.566 137.188L245.791 135.213L238.527 139.096L243.706 171.996Z" stroke="#262626" stroke-width="0.274" stroke-miterlimit="10" stroke-linecap="round" stroke-linejoin="round"/>
<path d="M43.8373 50.874L42.567 52.0864L31.3301 41.9404L34.5646 38.8555L43.8373 50.874Z" fill="#FF7129"/>
<path d="M46.6141 48.7934L44.8872 49.1129L41.0332 34.4723L45.4284 33.6602L46.6141 48.7934Z" fill="#FF7129"/>
<path d="M40.6254 53.635L40.4813 55.3854L25.3418 55.2711L25.7091 50.8164L40.6254 53.635Z" fill="#FF7129"/>
<path d="M221.498 275.613C217.7 271.88 217.647 265.774 221.38 261.976L265.78 216.797L279.536 230.316L235.136 275.494C231.402 279.293 225.297 279.346 221.498 275.613Z" fill="#FF7129"/>
<path opacity="0.2" d="M300.722 234.086C322.258 234.036 339.676 216.538 339.627 195.002C339.577 173.466 322.079 156.048 300.543 156.098C279.007 156.147 261.589 173.646 261.639 195.182C261.688 216.717 279.186 234.136 300.722 234.086Z" fill="#DCF0FF"/>
<path opacity="0.5" d="M264.132 208.846C265.447 212.344 267.279 215.69 269.633 218.764L339.609 194.56C339.557 190.776 338.954 187.002 337.809 183.361L264.132 208.846Z" fill="white"/>
<path opacity="0.5" d="M261.722 197.68C261.867 199.893 262.202 202.093 262.723 204.259L336.085 178.884C335.171 176.883 334.081 174.945 332.811 173.092L261.722 197.68Z" fill="white"/>
<path d="M332.167 163.006C314.441 145.584 285.948 145.831 268.526 163.559C251.104 181.285 251.352 209.778 269.079 227.2C286.805 244.621 315.299 244.374 332.72 226.647C350.142 208.92 349.895 180.426 332.167 163.006ZM274.646 221.535C260.048 207.188 259.844 183.724 274.191 169.125C288.538 154.526 312.002 154.323 326.601 168.67C341.199 183.016 341.403 206.481 327.056 221.08C312.71 235.678 289.244 235.882 274.646 221.535Z" fill="#FF7129"/>
<path d="M268.897 234.473L233.789 270.195" stroke="white" stroke-miterlimit="10" stroke-linecap="round" stroke-linejoin="round"/>
<path d="M303.85 153.334C292.789 152.218 281.321 156.036 273.135 163.559C264.949 171.083 260.181 182.189 260.362 193.305" stroke="white" stroke-miterlimit="10" stroke-linecap="round" stroke-linejoin="round"/>
</svg>
