<svg width="15" height="16" viewBox="0 0 15 16" fill="none" xmlns="http://www.w3.org/2000/svg">
<path d="M7.39844 7.70727C8.45725 7.70727 9.374 7.32749 10.1233 6.57821C10.8723 5.82908 11.2522 4.91246 11.2522 3.85352C11.2522 2.7949 10.8724 1.87818 10.1232 1.12878C9.37387 0.379749 8.45712 0 7.39844 0C6.33947 0 5.42282 0.379749 4.67369 1.1289C3.92457 1.87806 3.54466 2.79481 3.54466 3.85352C3.54466 4.91246 3.92454 5.82921 4.67372 6.57836C5.4231 7.32739 6.33985 7.70727 7.39841 7.70727H7.39844ZM5.33679 1.79187C5.9116 1.21703 6.58594 0.937623 7.39844 0.937623C8.21081 0.937623 8.88525 1.21703 9.46018 1.79187C10.035 2.36681 10.3146 3.04124 10.3146 3.85349C10.3146 4.66599 10.035 5.34033 9.46018 5.91527C8.88525 6.49024 8.21081 6.76964 7.39844 6.76964C6.58616 6.76964 5.91188 6.49011 5.33679 5.91527C4.76182 5.34046 4.48229 4.66602 4.48229 3.85352C4.48229 3.04124 4.76182 2.36681 5.33679 1.79187ZM14.1415 12.3032C14.1198 11.9914 14.0761 11.6513 14.0118 11.2922C13.9469 10.9304 13.8633 10.5884 13.7631 10.2757C13.6596 9.95261 13.5191 9.63354 13.3452 9.32773C13.1649 9.01036 12.953 8.73398 12.7152 8.50658C12.4665 8.26867 12.1621 8.07739 11.81 7.93783C11.4592 7.79908 11.0704 7.72877 10.6545 7.72877C10.4912 7.72877 10.3332 7.79577 10.0282 7.99439C9.81134 8.13559 9.59385 8.2758 9.37572 8.41502C9.16612 8.54858 8.88218 8.6737 8.53147 8.78698C8.18931 8.8977 7.84191 8.95386 7.49888 8.95386C7.15613 8.95386 6.80869 8.8977 6.46628 8.78698C6.11597 8.67379 5.83191 8.5487 5.62266 8.41514C5.37985 8.25998 5.16016 8.11839 4.9696 7.99423C4.66479 7.79564 4.50682 7.72861 4.34351 7.72861C3.92748 7.72861 3.53882 7.79905 3.1881 7.93798C2.83629 8.07727 2.53173 8.26855 2.28282 8.5067C2.04504 8.73423 1.83314 9.01045 1.65295 9.32773C1.47926 9.63351 1.33864 9.95248 1.23511 10.2759C1.13511 10.5885 1.05151 10.9304 0.986576 11.2922C0.922107 11.6509 0.878545 11.9911 0.85692 12.3036C0.83567 12.6091 0.824951 12.9271 0.824951 13.2484C0.824951 14.0836 1.09045 14.7597 1.61401 15.2584C2.1311 15.7505 2.8152 16 3.64732 16H11.3514C12.1833 16 12.8674 15.7505 13.3846 15.2584C13.9083 14.7601 14.1738 14.0837 14.1738 13.2483C14.1737 12.9259 14.1628 12.6079 14.1415 12.3032ZM12.7381 14.5791C12.3965 14.9043 11.9428 15.0623 11.3513 15.0623H3.64735C3.0557 15.0623 2.60207 14.9043 2.26051 14.5792C1.92545 14.2602 1.76261 13.8248 1.76261 13.2484C1.76261 12.9486 1.77248 12.6526 1.79229 12.3684C1.81154 12.0896 1.85098 11.7833 1.90948 11.4579C1.9672 11.1364 2.04067 10.8348 2.12807 10.5618C2.21195 10.2999 2.32632 10.0406 2.46817 9.79089C2.60354 9.55282 2.75929 9.34861 2.93117 9.18408C3.09195 9.03014 3.2946 8.90417 3.53335 8.8097C3.75416 8.72226 4.00235 8.67442 4.27176 8.6672C4.30457 8.6847 4.36307 8.71801 4.45779 8.77976C4.65054 8.90539 4.87269 9.0487 5.11832 9.20554C5.39519 9.38208 5.75185 9.54148 6.178 9.67904C6.61366 9.81992 7.058 9.89145 7.49903 9.89145C7.94009 9.89145 8.38453 9.81992 8.81997 9.67917C9.24647 9.54136 9.60303 9.38208 9.88028 9.20529C10.1316 9.04467 10.3476 8.90551 10.5403 8.77976C10.635 8.71811 10.6935 8.68467 10.7263 8.66723C10.9959 8.67442 11.244 8.72226 11.465 8.80967C11.7036 8.90417 11.9063 9.03026 12.067 9.18404C12.2389 9.34848 12.3946 9.55273 12.53 9.79101C12.672 10.0406 12.7865 10.3 12.8702 10.5616C12.9578 10.8351 13.0314 11.1366 13.089 11.4577C13.1473 11.7838 13.1869 12.0902 13.2062 12.3685V12.3688C13.2261 12.6518 13.2361 12.9477 13.2362 13.2484C13.2361 13.8249 13.0732 14.2603 12.7382 14.5791H12.7381Z" fill="#060C4D"/>
</svg>
