<svg width="25" height="24" viewBox="0 0 25 24" fill="none" xmlns="http://www.w3.org/2000/svg">
<rect x="0.5" width="24" height="24" rx="12" fill="white"/>
<path d="M6.5 8C6.5 7.05719 6.5 6.58579 6.79289 6.29289C7.08579 6 7.55719 6 8.5 6C9.44281 6 9.91421 6 10.2071 6.29289C10.5 6.58579 10.5 7.05719 10.5 8C10.5 8.94281 10.5 9.41421 10.2071 9.70711C9.91421 10 9.44281 10 8.5 10C7.55719 10 7.08579 10 6.79289 9.70711C6.5 9.41421 6.5 8.94281 6.5 8Z" stroke="#060C4D"/>
<path d="M6.5 16C6.5 15.0572 6.5 14.5858 6.79289 14.2929C7.08579 14 7.55719 14 8.5 14C9.44281 14 9.91421 14 10.2071 14.2929C10.5 14.5858 10.5 15.0572 10.5 16C10.5 16.9428 10.5 17.4142 10.2071 17.7071C9.91421 18 9.44281 18 8.5 18C7.55719 18 7.08579 18 6.79289 17.7071C6.5 17.4142 6.5 16.9428 6.5 16Z" stroke="#060C4D"/>
<path d="M6.5 12H10.5" stroke="#060C4D" stroke-linecap="round" stroke-linejoin="round"/>
<path d="M12.5 6V9.33333" stroke="#060C4D" stroke-linecap="round" stroke-linejoin="round"/>
<path d="M14.5 8C14.5 7.05719 14.5 6.58579 14.7929 6.29289C15.0858 6 15.5572 6 16.5 6C17.4428 6 17.9142 6 18.2071 6.29289C18.5 6.58579 18.5 7.05719 18.5 8C18.5 8.94281 18.5 9.41421 18.2071 9.70711C17.9142 10 17.4428 10 16.5 10C15.5572 10 15.0858 10 14.7929 9.70711C14.5 9.41421 14.5 8.94281 14.5 8Z" stroke="#060C4D"/>
<path d="M18.5 12H14.5C13.5572 12 13.0858 12 12.7929 12.2929C12.5 12.5858 12.5 13.0572 12.5 14M12.5 15.8461V17.6923M14.5 14V15C14.5 15.9643 15.0225 16 15.8333 16C16.2015 16 16.5 16.2985 16.5 16.6667M15.1667 18H14.5M16.5 14C17.4428 14 17.9142 14 18.2071 14.2933C18.5 14.5866 18.5 15.0587 18.5 16.0029C18.5 16.9471 18.5 17.4191 18.2071 17.7125C17.9933 17.9265 17.6845 17.9844 17.1667 18" stroke="#060C4D" stroke-linecap="round"/>
</svg>
