<svg width="16" height="16" viewBox="0 0 16 16" fill="none" xmlns="http://www.w3.org/2000/svg">
<g clip-path="url(#clip0_640_31178)">
<path d="M13.1617 10.1187V7.07871C13.1617 4.82065 11.7165 2.85163 9.72682 2.11615C9.75005 2.00001 9.76294 1.88132 9.76294 1.76259C9.76298 0.789693 8.97329 0 8.00039 0C7.0275 0 6.2378 0.789693 6.2378 1.76259C6.2378 1.87873 6.25069 1.99483 6.27133 2.10581C5.58748 2.34839 4.95522 2.7329 4.41587 3.25419C3.3991 4.23484 2.83911 5.55354 2.83911 6.96774V10.1187C2.83911 10.2297 2.74878 10.3226 2.63523 10.3226C1.68297 10.3226 0.87005 11.04 0.782307 11.9536C0.733263 12.462 0.901037 12.9678 1.24425 13.3445C1.58489 13.7187 2.07265 13.9355 2.58101 13.9355H5.69328C5.82231 15.0942 6.80814 16 8.00039 16C9.19265 16 10.1785 15.0942 10.3075 13.9355H13.4198C13.9282 13.9355 14.4159 13.7187 14.7565 13.3445C15.0972 12.9678 15.2649 12.462 15.2185 11.9536C15.1307 11.04 14.3153 10.3226 13.3656 10.3226C13.3387 10.3228 13.3122 10.3176 13.2874 10.3074C13.2625 10.2972 13.24 10.2822 13.221 10.2632C13.2021 10.2443 13.1871 10.2217 13.1769 10.1969C13.1667 10.1721 13.1615 10.1455 13.1617 10.1187ZM8.00039 1.03224C8.40295 1.03224 8.7307 1.35998 8.7307 1.76255C8.7307 1.79607 8.72553 1.82706 8.72036 1.86059C8.54487 1.83477 8.36679 1.81672 8.18872 1.81155C7.88162 1.8012 7.57969 1.82189 7.28034 1.86318C7.27517 1.82965 7.27 1.79866 7.27 1.76513C7.27008 1.35998 7.59783 1.03224 8.00039 1.03224ZM8.00039 14.9677C7.37847 14.9677 6.85718 14.5238 6.73587 13.9355H9.26488C9.14365 14.5239 8.62235 14.9677 8.00039 14.9677ZM14.1914 12.0516C14.212 12.2736 14.1423 12.4877 13.9952 12.6503C13.843 12.8129 13.6417 12.9032 13.4198 12.9032H2.58105C2.35911 12.9032 2.15785 12.8129 2.00813 12.6503C1.85846 12.4877 1.78877 12.2735 1.80942 12.0516C1.84553 11.6619 2.20944 11.3548 2.63523 11.3548C3.31653 11.3548 3.87135 10.8 3.87135 10.1187V6.96774C3.87135 5.83741 4.32037 4.78195 5.13329 3.99742C5.91006 3.24647 6.9217 2.8387 8.00039 2.8387C8.05202 2.8387 8.10102 2.8387 8.15265 2.84128C10.3436 2.91869 12.1294 4.82065 12.1294 7.07871V10.1187C12.1294 10.8 12.6843 11.3548 13.3656 11.3548C13.7913 11.3548 14.1527 11.6619 14.1914 12.0516Z" fill="white"/>
</g>
<defs>
<clipPath id="clip0_640_31178">
<rect width="16" height="16" fill="white"/>
</clipPath>
</defs>
</svg>
