<svg width="16" height="16" viewBox="0 0 16 16" fill="none" xmlns="http://www.w3.org/2000/svg">
<path d="M7.67628 1.39616C7.88442 1.31326 8.11575 1.31326 8.32388 1.39616C8.99482 1.66336 9.12588 2.69228 9.91755 2.74956C10.475 2.78989 11.0221 2.32516 11.5815 2.46448C11.8071 2.52067 12.0019 2.66451 12.1241 2.86503C12.4982 3.47948 12.0153 4.3826 12.6256 4.89244C13.0496 5.2465 13.7501 5.20068 14.1187 5.63472C14.2739 5.81754 14.3502 6.056 14.3303 6.29645C14.2713 7.01172 13.3593 7.45905 13.5597 8.22992C13.6984 8.76352 14.2836 9.13865 14.3303 9.70485C14.3502 9.94532 14.2739 10.1838 14.1187 10.3666C13.6555 10.9119 12.6539 10.7323 12.3651 11.4715C12.1623 11.9903 12.4227 12.6458 12.1241 13.1363C12.0019 13.3368 11.8071 13.4807 11.5815 13.5369C10.8869 13.7098 10.1819 12.9637 9.51348 13.3845C9.03628 13.6849 8.86528 14.3897 8.32388 14.6051C8.11575 14.6881 7.88442 14.6881 7.67628 14.6051C7.13488 14.3897 6.96388 13.6849 6.48668 13.3845C5.82656 12.9689 5.1015 13.7069 4.41869 13.5369C4.19306 13.4807 3.99822 13.3368 3.87612 13.1363C3.50199 12.5219 3.98478 11.6187 3.37455 11.1089C2.95063 10.7548 2.25004 10.8007 1.88144 10.3666C1.72622 10.1838 1.64998 9.94532 1.66985 9.70485C1.71665 9.13865 2.30168 8.76352 2.44042 8.22992C2.6388 7.46712 1.72811 7.00125 1.66985 6.29645C1.64998 6.056 1.72622 5.81754 1.88144 5.63472C2.34459 5.08921 3.34608 5.269 3.635 4.52987C3.83783 4.01105 3.57747 3.3555 3.87612 2.86503C3.99822 2.66451 4.19306 2.52067 4.41869 2.46448C4.97812 2.32516 5.52513 2.7899 6.0826 2.74956C6.87428 2.69229 7.00535 1.66336 7.67628 1.39616Z" stroke="white" stroke-linejoin="round"/>
<path d="M6 8.88822C6 8.88822 6.58333 8.88822 7.16667 9.99935C7.16667 9.99935 9.0196 7.22155 10.6667 6.66602" stroke="white" stroke-linecap="round" stroke-linejoin="round"/>
</svg>
