<svg width="16" height="16" viewBox="0 0 16 16" fill="none" xmlns="http://www.w3.org/2000/svg">
<path d="M8.33325 13.3327H6.99992C4.4942 13.3327 3.24134 13.3327 2.40489 12.6721C2.27111 12.5664 2.14738 12.45 2.03512 12.3241C1.33325 11.5368 1.33325 10.3577 1.33325 7.99935C1.33325 5.64103 1.33325 4.46186 2.03512 3.67462C2.14738 3.5487 2.27111 3.43225 2.40489 3.3266C3.24134 2.66602 4.4942 2.66602 6.99992 2.66602H8.99992C11.5057 2.66602 12.7585 2.66602 13.5949 3.3266C13.7287 3.43225 13.8525 3.5487 13.9647 3.67462C14.5595 4.34174 14.6503 5.2903 14.6641 6.99935" stroke="white" stroke-linecap="round" stroke-linejoin="round"/>
<path d="M12.3333 13.3327V8.66602M10 10.9993H14.6667" stroke="white" stroke-linecap="round"/>
<path d="M1.33325 6H14.6666" stroke="white" stroke-linejoin="round"/>
</svg>
