<svg width="16" height="16" viewBox="0 0 16 16" fill="none" xmlns="http://www.w3.org/2000/svg">
<path d="M6.66675 8.33333C6.66675 8.33333 7.00008 8.33333 7.33341 9C7.33341 9 8.39221 7.33333 9.33341 7" stroke="white" stroke-linecap="round" stroke-linejoin="round"/>
<path d="M11.3334 7.99935C11.3334 9.84028 9.84101 11.3327 8.00008 11.3327C6.15913 11.3327 4.66675 9.84028 4.66675 7.99935C4.66675 6.1584 6.15913 4.66602 8.00008 4.66602C9.84101 4.66602 11.3334 6.1584 11.3334 7.99935Z" stroke="white" stroke-linecap="round"/>
<path d="M14 7.45618V5.52084C14 4.42751 14 3.88084 13.7306 3.52418C13.4612 3.16751 12.8521 2.99436 11.6338 2.64805C10.8015 2.41145 10.0677 2.1264 9.48153 1.86618C8.68227 1.51138 8.28267 1.33398 8 1.33398C7.71733 1.33398 7.31773 1.51138 6.51847 1.86618C5.93226 2.1264 5.19856 2.41144 4.36622 2.64805C3.14795 2.99436 2.53881 3.16751 2.26941 3.52418C2 3.88084 2 4.42751 2 5.52084V7.45618C2 11.2063 5.37518 13.4563 7.06267 14.3469C7.4674 14.5605 7.66973 14.6673 8 14.6673C8.33027 14.6673 8.5326 14.5605 8.93733 14.3469C10.6248 13.4563 14 11.2063 14 7.45618Z" stroke="white" stroke-linecap="round"/>
</svg>
