<svg width="16" height="16" viewBox="0 0 16 16" fill="none" xmlns="http://www.w3.org/2000/svg">
<path d="M2 10.6673L4.97978 7.68752C5.20615 7.46118 5.51319 7.33398 5.83333 7.33398C6.15348 7.33398 6.46051 7.46118 6.68687 7.68752L9.33333 10.334M9.33333 10.334L10.3333 11.334M9.33333 10.334L10.6465 9.02085C10.8728 8.79452 11.1799 8.66732 11.5 8.66732C11.8201 8.66732 12.1272 8.79452 12.3535 9.02085L14 10.6673" stroke="white" stroke-linecap="round" stroke-linejoin="round"/>
<path d="M8.00008 1.66602C5.18026 1.66602 3.77035 1.66602 2.83525 2.46466C2.70247 2.57807 2.5788 2.70174 2.46539 2.83452C1.66675 3.76962 1.66675 5.17953 1.66675 7.99935C1.66675 10.8191 1.66675 12.2291 2.46539 13.1641C2.5788 13.2969 2.70247 13.4206 2.83525 13.534C3.77035 14.3327 5.18026 14.3327 8.00008 14.3327C10.8199 14.3327 12.2298 14.3327 13.1649 13.534C13.2977 13.4206 13.4213 13.2969 13.5347 13.1641C14.3334 12.2291 14.3334 10.8191 14.3334 7.99935" stroke="white" stroke-linecap="round" stroke-linejoin="round"/>
<path d="M10.3333 3.66602C10.7265 3.26146 11.7731 1.66602 12.3333 1.66602C12.8935 1.66602 13.9401 3.26146 14.3333 3.66602M12.3333 1.99935V6.33268" stroke="white" stroke-linecap="round" stroke-linejoin="round"/>
</svg>
