<svg width="21" height="20" viewBox="0 0 21 20" fill="none" xmlns="http://www.w3.org/2000/svg">
<path d="M15.3001 17.5008C15.1669 17.5014 15.0354 17.4699 14.9168 17.4092L10.6668 15.1842L6.41679 17.4092C6.27879 17.4817 6.12319 17.5141 5.96769 17.5027C5.81219 17.4912 5.66303 17.4363 5.53715 17.3443C5.41128 17.2523 5.31374 17.1268 5.25564 16.9821C5.19753 16.8374 5.18119 16.6793 5.20846 16.5258L6.04179 11.8342L2.60846 8.50082C2.50134 8.39393 2.42535 8.25988 2.38865 8.11307C2.35195 7.96625 2.35592 7.81222 2.40013 7.66749C2.44843 7.51938 2.53727 7.38778 2.65659 7.28762C2.7759 7.18746 2.9209 7.12274 3.07513 7.10082L7.82513 6.40915L9.91679 2.13415C9.98503 1.99326 10.0916 1.87444 10.2242 1.7913C10.3569 1.70816 10.5102 1.66406 10.6668 1.66406C10.8233 1.66406 10.9767 1.70816 11.1094 1.7913C11.242 1.87444 11.3486 1.99326 11.4168 2.13415L13.5335 6.40082L18.2835 7.09249C18.4377 7.11441 18.5827 7.17912 18.702 7.27929C18.8213 7.37945 18.9102 7.51105 18.9585 7.65915C19.0027 7.80388 19.0066 7.95792 18.9699 8.10473C18.9332 8.25154 18.8572 8.38559 18.7501 8.49249L15.3168 11.8258L16.1501 16.5175C16.1799 16.6737 16.1643 16.8352 16.1052 16.9829C16.0462 17.1305 15.9461 17.2582 15.8168 17.3508C15.6659 17.4566 15.4842 17.5093 15.3001 17.5008Z" fill="#FFAB00"/>
</svg>
