<svg width="21" height="20" viewBox="0 0 21 20" fill="none" xmlns="http://www.w3.org/2000/svg">
<path d="M13.8799 12.6887V14.5298L16.331 12.9802V12.3047" stroke="#008F34" stroke-miterlimit="10" stroke-linecap="round" stroke-linejoin="round"/>
<path d="M10.4599 4.4273C11.4556 2.14874 17.1599 0.395218 19.3966 4.7107C21.9293 9.59748 17.9231 12.556 15.6096 12.2891C15.4612 12.272 15.3495 12.1457 15.3495 11.9962V10.1702M11.0864 7.28177C11.0864 7.28177 10.2099 6.93837 10.1777 5.78559" stroke="#008F34" stroke-miterlimit="10" stroke-linecap="round" stroke-linejoin="round"/>
<path d="M12.1565 12.7151C12.2541 12.7371 12.3557 12.7487 12.46 12.7487H13.2045C14.3895 12.7487 15.35 11.7881 15.35 10.6032V10.1706H15.9491C16.3715 10.1706 16.7139 9.8281 16.7139 9.40568V8.60603C16.7139 8.18361 16.3715 7.84115 15.9491 7.84115H15.8795C15.5023 7.84115 15.1889 8.11415 15.1261 8.47333C15.1127 8.5497 15.0473 8.60626 14.9699 8.60244C13.2543 8.51704 11.8069 6.94064 11.2899 6.30411C11.222 6.22052 11.0869 6.26888 11.0869 6.37654V10.1177" stroke="#008F34" stroke-miterlimit="10" stroke-linecap="round" stroke-linejoin="round"/>
<path d="M13.22 9.09375C13.22 9.09375 12.7056 9.53008 12.2134 9.1682M18.5382 18.6027C18.5382 13.9437 16.3307 12.9784 16.3307 12.9784L13.8796 14.5279C13.8796 14.5279 13.6145 14.8286 13.2766 15.297M12.508 16.5161C12.1514 17.1824 11.8652 17.9275 11.8652 18.6027" stroke="#008F34" stroke-miterlimit="10" stroke-linecap="round" stroke-linejoin="round"/>
<path d="M16.0493 16.3587C16.0493 16.3587 14.3352 17.218 14.3352 18.6046M5.6895 12.3706V14.2799L3.11328 12.6936V9.66016" stroke="#008F34" stroke-miterlimit="10" stroke-linecap="round" stroke-linejoin="round"/>
<path d="M7.78539 12.2431C7.54193 12.3768 7.26861 12.4468 6.99086 12.4465H6.39945C5.15406 12.4465 4.14445 11.4369 4.14445 10.1915V9.73676H3.51488C3.0709 9.73676 2.71094 9.37684 2.71094 8.93281V8.09234C2.71094 7.64836 3.07086 7.2884 3.51488 7.2884H3.58797C4.03195 7.2884 4.39188 7.64832 4.39188 8.0923C4.39188 8.0923 5.55746 8.20332 5.85707 7.21426C5.94992 6.90781 6.23625 6.70094 6.55645 6.70094H7.21156M9.17969 6.84301L8.7477 10.1143M7.17879 5.40164C7.26055 5.92383 7.26777 6.41164 7.25523 6.76418C7.24426 7.07313 7.51484 7.31773 7.82082 7.27359C10.2296 6.92629 11.3268 4.53184 9.66199 2.69922" stroke="#008F34" stroke-miterlimit="10" stroke-linecap="round" stroke-linejoin="round"/>
<path d="M8.53866 1.81093C6.3149 0.54686 5.0833 2.56398 5.0833 2.56398L5.05392 2.55534C4.81873 2.50732 4.57928 2.48319 4.33923 2.48331C2.38067 2.48331 0.792969 4.07105 0.792969 6.02958C0.792969 7.41974 1.59285 8.62306 2.75751 9.20443M6.71397 8.35427C6.71397 8.35427 7.25463 8.81287 7.77194 8.43255M0.792969 18.6044C0.792969 13.7077 3.11309 12.6931 3.11309 12.6931L5.68932 14.2795C5.68932 14.2795 7.28772 16.6089 7.28772 18.6043M10.4245 10.5172L10.1771 10.7646L9.92964 10.5172C9.3948 9.98237 8.52765 9.98237 7.9928 10.5172C7.45796 11.0521 7.45796 11.9192 7.9928 12.4541L9.55085 14.0121C9.70907 14.1703 9.85371 14.3416 9.98324 14.524C10.078 14.6575 10.2762 14.6575 10.3709 14.524C10.5005 14.3416 10.6451 14.1703 10.8033 14.0121L12.3614 12.4541C12.8962 11.9192 12.8962 11.0521 12.3614 10.5172C11.8265 9.98237 10.9593 9.98237 10.4245 10.5172Z" stroke="#008F34" stroke-miterlimit="10" stroke-linecap="round" stroke-linejoin="round"/>
<path d="M3.87109 16.3594C3.87109 16.3594 5.5852 17.2188 5.5852 18.6053" stroke="#008F34" stroke-miterlimit="10" stroke-linecap="round" stroke-linejoin="round"/>
</svg>
