<svg width="21" height="20" viewBox="0 0 21 20" fill="none" xmlns="http://www.w3.org/2000/svg">
<g clip-path="url(#clip0_854_7911)">
<path d="M6.12258 14.9536C6.8507 14.3866 7.32039 13.5025 7.32039 12.5104C7.32039 10.8031 5.93121 9.41406 4.22391 9.41406C2.5166 9.41406 1.12758 10.8031 1.12758 12.5104C1.12758 13.5025 1.59727 14.3866 2.32523 14.9536C1.29777 15.5649 0.5 16.7194 0.5 18.1589V19.4141C0.5 19.7377 0.762305 20 1.08594 20H7.36203C7.68551 20 7.94797 19.7377 7.94797 19.4141V18.1589C7.94797 16.7196 7.15039 15.5651 6.12258 14.9536ZM2.29945 12.5104C2.29945 11.4493 3.16281 10.5859 4.22406 10.5859C5.28516 10.5859 6.14852 11.4493 6.14852 12.5104C6.14852 13.5716 5.28516 14.435 4.22406 14.435C3.16281 14.435 2.29945 13.5716 2.29945 12.5104ZM6.77609 18.8281H1.67188V18.1589C1.67188 16.7493 2.8123 15.6068 4.22391 15.6068C5.63352 15.6068 6.77594 16.7473 6.77594 18.1589V18.8281H6.77609ZM18.0312 0H10.5C9.13648 0 8.03125 1.1032 8.03125 2.46875V13.7655C8.03125 14.2448 8.5809 14.5252 8.96875 14.2343L11.3229 12.4687H18.0313C19.3948 12.4688 20.5 11.3655 20.5 10V2.46875C20.5 1.10516 19.3968 0 18.0312 0ZM19.3281 10C19.3281 10.7169 18.7484 11.2969 18.0312 11.2969H11.1276C11.0008 11.2969 10.8775 11.338 10.7761 11.4141L9.2032 12.5937V2.46875C9.20312 1.75188 9.78281 1.17188 10.5 1.17188H18.0312C18.7481 1.17188 19.3281 1.75156 19.3281 2.46875V10Z" fill="#008F34"/>
<path d="M17.404 3.13672H11.1279C10.8043 3.13672 10.542 3.39918 10.542 3.72266C10.542 4.04629 10.8043 4.30859 11.1279 4.30859H17.404C17.7275 4.30859 17.99 4.04629 17.99 3.72266C17.99 3.39918 17.7277 3.13672 17.404 3.13672ZM17.404 5.64727H11.1279C10.8043 5.64727 10.542 5.90953 10.542 6.2332C10.542 6.55664 10.8043 6.81914 11.1279 6.81914H17.404C17.7275 6.81914 17.99 6.55664 17.99 6.2332C17.99 5.90953 17.7277 5.64727 17.404 5.64727ZM14.2659 8.15762H11.1279C10.8043 8.15762 10.542 8.41992 10.542 8.74356C10.542 9.06719 10.8043 9.32949 11.1279 9.32949H14.2659C14.5896 9.32949 14.8518 9.06719 14.8518 8.74356C14.8518 8.41992 14.5896 8.15762 14.2659 8.15762Z" fill="#008F34"/>
</g>
<defs>
<clipPath id="clip0_854_7911">
<rect width="20" height="20" fill="white" transform="translate(0.5)"/>
</clipPath>
</defs>
</svg>
