<svg width="450" height="450" viewBox="0 0 450 450" fill="none" xmlns="http://www.w3.org/2000/svg">
<path d="M450 344.16H0V344.385H450V344.16Z" fill="#EBEBEB"/>
<path d="M404.91 358.643H375.102V358.868H404.91V358.643Z" fill="#EBEBEB"/>
<path d="M298.098 361.09H290.277V361.315H298.098V361.09Z" fill="#EBEBEB"/>
<path d="M374.203 350.289H356.932V350.514H374.203V350.289Z" fill="#EBEBEB"/>
<path d="M86.0858 351.801H47.2148V352.026H86.0858V351.801Z" fill="#EBEBEB"/>
<path d="M99.8005 351.801H94.1035V352.026H99.8005V351.801Z" fill="#EBEBEB"/>
<path d="M202.634 355.6H118.322V355.825H202.634V355.6Z" fill="#EBEBEB"/>
<path d="M197.189 344.16H213.947V229.077H197.189V344.16Z" fill="#E6E6E6"/>
<path d="M203.093 344.161H197.189V322.291H209.276L203.093 344.161Z" fill="#F0F0F0"/>
<path d="M374.428 344.16H391.186V229.077H374.428V344.16Z" fill="#E6E6E6"/>
<path d="M197.198 338.186H379.574V229.07L197.198 229.07V338.186Z" fill="#F0F0F0"/>
<path d="M373.671 344.161H379.575V322.291H367.488L373.671 344.161Z" fill="#F0F0F0"/>
<path d="M319.445 238.104V328.365H373.508V238.104H319.445Z" fill="#E6E6E6"/>
<path d="M341.1 241.282H351.792C356.324 241.347 360.717 239.713 364.104 236.701H328.842C332.216 239.699 336.586 241.332 341.1 241.282Z" fill="#F0F0F0"/>
<path d="M261.352 238.104V328.365H315.415V238.104H261.352Z" fill="#E6E6E6"/>
<path d="M282.483 241.282H293.184C297.707 241.339 302.088 239.705 305.469 236.701H270.207C273.585 239.706 277.963 241.339 282.483 241.282Z" fill="#F0F0F0"/>
<path d="M203.256 238.114V328.375H257.319V238.114H203.256Z" fill="#E6E6E6"/>
<path d="M224.396 241.282H235.088C239.611 241.339 243.992 239.705 247.373 236.701H212.111C215.492 239.707 219.873 241.341 224.396 241.282Z" fill="#F0F0F0"/>
<path d="M67.1402 344.16H181.494L181.494 87.1022H67.1402L67.1402 344.16Z" fill="#F0F0F0"/>
<path d="M67.14 344.16H179.082L179.082 87.1022H67.14L67.14 344.16Z" fill="#F5F5F5"/>
<path d="M172.26 338.33L172.26 92.9355H73.9618L73.9618 338.33H172.26Z" fill="#F0F0F0"/>
<path d="M162.604 138.601C162.605 135.082 161.913 131.597 160.567 128.345C159.221 125.093 157.248 122.138 154.76 119.649C152.272 117.161 149.317 115.186 146.066 113.839C142.815 112.492 139.33 111.799 135.811 111.799H110.431C103.323 111.799 96.5054 114.623 91.479 119.649C86.4527 124.675 83.6289 131.492 83.6289 138.601H162.604Z" fill="#FAFAFA"/>
<path d="M162.611 323.073V264.447H83.6363V323.073H162.611Z" fill="#F5F5F5"/>
<path d="M162.612 155.098H127.773V256.879H162.612V155.098Z" fill="#F5F5F5"/>
<path d="M118.468 155.098H83.6289V256.879H118.468V155.098Z" fill="#F5F5F5"/>
<path d="M96.2994 205.533H81.9894C81.4022 205.533 80.8391 205.3 80.4239 204.885C80.0087 204.47 79.7754 203.907 79.7754 203.319C79.7778 202.733 80.0118 202.171 80.4265 201.757C80.8412 201.342 81.4029 201.108 81.9894 201.105H96.2994C96.8859 201.108 97.4476 201.342 97.8623 201.757C98.277 202.171 98.511 202.733 98.5134 203.319C98.5134 203.907 98.2801 204.47 97.8649 204.885C97.4497 205.3 96.8866 205.533 96.2994 205.533Z" fill="#E0E0E0"/>
<path d="M75.7344 338.33L75.7344 92.9355H73.9614L73.9614 338.33H75.7344Z" fill="#F0F0F0"/>
<path d="M253.836 200.863L375.102 200.863V74.0983L253.836 74.0983V200.863Z" fill="#E6E6E6"/>
<path d="M250.777 200.863L372.043 200.863V74.0983L250.777 74.0983V200.863Z" fill="#F5F5F5"/>
<path d="M243.693 207.451L375.102 207.451V200.863L243.693 200.863V207.451Z" fill="#E6E6E6"/>
<path d="M240.246 207.451L364.887 207.451V200.863L240.246 200.863V207.451Z" fill="#F5F5F5"/>
<path d="M366.561 194.95V80.0195H256.266V194.95H366.561Z" fill="white"/>
<path d="M314.469 194.95V80.0195H308.358V194.95H314.469Z" fill="#F5F5F5"/>
<path d="M258.57 194.95V80.0195H256.257V194.95H258.57Z" fill="#E6E6E6"/>
<path d="M316.781 194.95V80.0195H314.468V194.95H316.781Z" fill="#E6E6E6"/>
<path d="M270.136 203.877C267.904 180.765 266.347 143.271 267.553 130.725C267.577 130.511 267.646 130.305 267.754 130.119C267.863 129.933 268.009 129.772 268.183 129.645C268.415 129.475 268.691 129.373 268.978 129.352C269.266 129.331 269.553 129.39 269.808 129.524C270.064 129.659 270.276 129.862 270.421 130.111C270.567 130.359 270.639 130.644 270.631 130.932C270.424 137.151 270.181 152.685 271.531 179.478C272.188 192.816 273.133 201.978 272.485 203.877H270.136Z" fill="#E6E6E6"/>
<path d="M261.819 150.616C255.465 143.56 242.496 138.547 229.284 138.574C224.091 138.574 245.07 146.773 253.791 155.818C260.568 162.838 268.191 174.655 270.81 181.216C269.1 167.401 268.2 157.663 261.819 150.616Z" fill="#E6E6E6"/>
<path d="M274.41 152.767C279.684 145.423 291.852 139.771 305.01 139.132C310.176 138.88 290.502 148.132 283.158 157.546C277.461 164.881 271.611 177.04 270 183.7C269.631 169.867 269.1 160.111 274.41 152.767Z" fill="#E6E6E6"/>
<path d="M261.54 124.867C256.14 118.891 245.178 114.643 233.982 114.67C229.59 114.67 247.347 121.618 254.736 129.268C260.478 135.217 266.949 145.225 269.136 150.778C267.723 139.096 266.913 130.834 261.54 124.867Z" fill="#E6E6E6"/>
<path d="M272.196 133.696C276.696 127.477 286.965 122.689 298.125 122.149C302.499 121.942 285.84 129.745 279.621 137.746C274.797 143.956 269.838 154.252 268.479 159.895C268.2 148.177 267.732 139.915 272.196 133.696Z" fill="#E6E6E6"/>
<path d="M271.027 229.078C267.675 229.079 264.451 227.798 262.014 225.496C259.577 223.195 258.113 220.049 257.923 216.703L256.762 196.615H285.301L284.14 216.703C283.949 220.051 282.484 223.198 280.045 225.5C277.607 227.801 274.38 229.081 271.027 229.078Z" fill="#E6E6E6"/>
<path d="M287.144 201.177H254.915L253.988 192.816H288.062L287.144 201.177Z" fill="#E6E6E6"/>
<path d="M224.999 384.804C321.373 384.804 399.5 380.242 399.5 374.616C399.5 368.989 321.373 364.428 224.999 364.428C128.625 364.428 50.498 368.989 50.498 374.616C50.498 380.242 128.625 384.804 224.999 384.804Z" fill="#F5F5F5"/>
<path d="M47.0703 102.177C47.0751 100.68 47.6721 99.245 48.731 98.1861C49.7899 97.1271 51.2248 96.5301 52.7223 96.5254H304.92C306.418 96.5301 307.853 97.1271 308.912 98.1861C309.971 99.245 310.568 100.68 310.572 102.177V120.366H47.0703V102.177Z" fill="#263238"/>
<path d="M92.7641 113.212C91.8207 113.212 90.8985 112.932 90.1141 112.408C89.3297 111.884 88.7183 111.139 88.3572 110.267C87.9962 109.396 87.9017 108.437 88.0858 107.511C88.2698 106.586 88.7241 105.736 89.3912 105.069C90.0583 104.402 90.9083 103.948 91.8336 103.764C92.7588 103.579 93.7179 103.674 94.5895 104.035C95.4611 104.396 96.2061 105.007 96.7303 105.792C97.2544 106.576 97.5341 107.498 97.5341 108.442C97.5341 109.707 97.0316 110.92 96.137 111.815C95.2425 112.709 94.0292 113.212 92.7641 113.212ZM92.7641 104.671C92.0183 104.671 91.2892 104.892 90.6691 105.306C90.0489 105.721 89.5656 106.31 89.2802 106.999C88.9948 107.688 88.9201 108.446 89.0656 109.178C89.2111 109.909 89.5703 110.581 90.0976 111.108C90.625 111.636 91.297 111.995 92.0285 112.14C92.76 112.286 93.5182 112.211 94.2072 111.926C94.8963 111.64 95.4852 111.157 95.8996 110.537C96.314 109.917 96.5351 109.188 96.5351 108.442C96.5328 107.442 96.1347 106.485 95.428 105.778C94.7213 105.071 93.7635 104.673 92.7641 104.671Z" fill="#F0F0F0"/>
<path d="M77.6165 113.212C76.6734 113.21 75.7521 112.929 74.9689 112.404C74.1856 111.878 73.5756 111.133 73.216 110.261C72.8563 109.389 72.7632 108.43 72.9482 107.506C73.1333 106.581 73.5883 105.732 74.2558 105.066C74.9232 104.4 75.7732 103.946 76.6982 103.763C77.6232 103.58 78.5819 103.675 79.4529 104.036C80.324 104.397 81.0685 105.009 81.5922 105.793C82.1159 106.577 82.3955 107.499 82.3955 108.442C82.3955 109.069 82.2718 109.69 82.0315 110.269C81.7912 110.849 81.4391 111.375 80.9952 111.818C80.5513 112.261 80.0244 112.612 79.4446 112.851C78.8649 113.091 78.2436 113.213 77.6165 113.212ZM77.6165 104.671C76.871 104.673 76.1428 104.895 75.5239 105.311C74.9049 105.726 74.423 106.316 74.1389 107.005C73.8549 107.694 73.7815 108.452 73.928 109.183C74.0745 109.914 74.4344 110.585 74.9622 111.112C75.4899 111.638 76.1618 111.996 76.8931 112.141C77.6243 112.286 78.3821 112.211 79.0706 111.925C79.7592 111.639 80.3476 111.156 80.7616 110.536C81.1755 109.916 81.3965 109.187 81.3965 108.442C81.3941 107.441 80.9948 106.482 80.2862 105.775C79.5775 105.068 78.6174 104.671 77.6165 104.671Z" fill="#F0F0F0"/>
<path d="M62.4778 113.212C61.5348 113.21 60.6134 112.929 59.8302 112.404C59.0469 111.878 58.437 111.133 58.0773 110.261C57.7177 109.389 57.6245 108.43 57.8096 107.506C57.9946 106.581 58.4496 105.732 59.1171 105.066C59.7845 104.4 60.6345 103.946 61.5595 103.763C62.4846 103.58 63.4432 103.675 64.3143 104.036C65.1853 104.397 65.9298 105.009 66.4535 105.793C66.9773 106.577 67.2568 107.499 67.2568 108.442C67.2568 109.069 67.1331 109.69 66.8928 110.269C66.6526 110.849 66.3004 111.375 65.8565 111.818C65.4126 112.261 64.8857 112.612 64.306 112.851C63.7262 113.091 63.105 113.213 62.4778 113.212ZM62.4778 104.671C61.732 104.671 61.0029 104.892 60.3827 105.306C59.7626 105.721 59.2793 106.31 58.9938 106.999C58.7084 107.688 58.6338 108.446 58.7793 109.178C58.9248 109.909 59.2839 110.581 59.8113 111.108C60.3387 111.636 61.0106 111.995 61.7421 112.14C62.4736 112.286 63.2318 112.211 63.9209 111.926C64.61 111.64 65.1989 111.157 65.6133 110.537C66.0276 109.917 66.2488 109.188 66.2488 108.442C66.2464 107.442 65.8484 106.485 65.1417 105.778C64.435 105.071 63.4772 104.673 62.4778 104.671Z" fill="#F0F0F0"/>
<path d="M304.92 293.914H52.7223C51.2248 293.909 49.7899 293.312 48.731 292.253C47.6721 291.195 47.0751 289.76 47.0703 288.262V120.367H310.572V288.262C310.568 289.76 309.971 291.195 308.912 292.253C307.853 293.312 306.418 293.909 304.92 293.914Z" fill="#FF5733"/>
<path d="M308.97 125.199H48.6719V273.996H308.97V125.199Z" fill="white"/>
<path d="M164.008 137.953H64.8548C62.961 137.953 61.4258 139.488 61.4258 141.382V154.621C61.4258 156.515 62.961 158.05 64.8548 158.05H164.008C165.902 158.05 167.437 156.515 167.437 154.621V141.382C167.437 139.488 165.902 137.953 164.008 137.953Z" fill="#FF5733"/>
<path d="M292.789 138.853C293.46 138.853 294.103 139.12 294.577 139.594C295.052 140.068 295.318 140.711 295.318 141.382V154.621C295.318 155.292 295.052 155.935 294.577 156.409C294.103 156.884 293.46 157.15 292.789 157.15H193.636C192.965 157.15 192.322 156.884 191.848 156.409C191.373 155.935 191.107 155.292 191.107 154.621V141.382C191.107 140.711 191.373 140.068 191.848 139.594C192.322 139.12 192.965 138.853 193.636 138.853H292.789ZM292.789 137.953H193.636C192.727 137.956 191.857 138.318 191.214 138.96C190.571 139.603 190.209 140.473 190.207 141.382V154.621C190.207 155.531 190.568 156.403 191.211 157.046C191.854 157.689 192.727 158.05 193.636 158.05H292.789C293.698 158.05 294.571 157.689 295.214 157.046C295.857 156.403 296.218 155.531 296.218 154.621V141.382C296.216 140.473 295.854 139.603 295.211 138.96C294.569 138.318 293.698 137.956 292.789 137.953Z" fill="#FF5733"/>
<path d="M79.0478 167.048C82.3551 167.048 85.5881 168.029 88.338 169.867C91.088 171.704 93.2313 174.316 94.4969 177.371C95.7626 180.427 96.0937 183.789 95.4485 187.033C94.8033 190.276 93.2106 193.256 90.872 195.595C88.5334 197.933 85.5538 199.526 82.3101 200.171C79.0663 200.816 75.7041 200.485 72.6486 199.22C69.593 197.954 66.9814 195.811 65.144 193.061C63.3065 190.311 62.3258 187.078 62.3258 183.77C62.3306 179.337 64.0939 175.086 67.2288 171.951C70.3638 168.817 74.6143 167.053 79.0478 167.048ZM79.0478 166.148C75.5625 166.148 72.1555 167.182 69.2575 169.118C66.3596 171.055 64.101 173.807 62.7672 177.027C61.4334 180.247 61.0844 183.79 61.7644 187.208C62.4443 190.627 64.1227 193.767 66.5872 196.231C69.0516 198.696 72.1916 200.374 75.6099 201.054C79.0282 201.734 82.5714 201.385 85.7914 200.051C89.0114 198.717 91.7636 196.459 93.7 193.561C95.6363 190.663 96.6698 187.256 96.6698 183.77C96.6698 179.097 94.8132 174.615 91.5084 171.31C88.2037 168.005 83.7214 166.148 79.0478 166.148Z" fill="#FF5733"/>
<path opacity="0.4" d="M91.7995 190.702C90.5509 193.004 88.7041 194.926 86.4539 196.265C84.2037 197.605 81.6336 198.312 79.015 198.312C76.3963 198.312 73.8262 197.605 71.576 196.265C69.3258 194.926 67.479 193.004 66.2305 190.702C70.0143 188.172 74.4635 186.822 79.015 186.822C83.5664 186.822 88.0156 188.172 91.7995 190.702Z" fill="#FF5733"/>
<path opacity="0.4" d="M79.0464 185.274C82.6252 185.274 85.5264 182.373 85.5264 178.794C85.5264 175.216 82.6252 172.314 79.0464 172.314C75.4676 172.314 72.5664 175.216 72.5664 178.794C72.5664 182.373 75.4676 185.274 79.0464 185.274Z" fill="#FF5733"/>
<path opacity="0.4" d="M287.153 192.834H115.631C113.228 192.834 110.922 191.879 109.223 190.179C107.523 188.48 106.568 186.174 106.568 183.771C106.568 182.581 106.803 181.403 107.258 180.304C107.714 179.205 108.382 178.206 109.223 177.365C110.065 176.525 111.064 175.858 112.164 175.403C113.263 174.949 114.442 174.716 115.631 174.717H287.153C288.343 174.716 289.521 174.949 290.621 175.403C291.72 175.858 292.72 176.525 293.561 177.365C294.403 178.206 295.071 179.205 295.526 180.304C295.982 181.403 296.216 182.581 296.216 183.771C296.216 186.174 295.262 188.48 293.562 190.179C291.862 191.879 289.557 192.834 287.153 192.834Z" fill="#FF5733"/>
<path d="M79.0478 215.101C82.3551 215.101 85.5881 216.082 88.338 217.919C91.088 219.757 93.2313 222.368 94.4969 225.424C95.7626 228.479 96.0937 231.842 95.4485 235.085C94.8033 238.329 93.2106 241.309 90.872 243.647C88.5334 245.986 85.5538 247.579 82.3101 248.224C79.0663 248.869 75.7041 248.538 72.6486 247.272C69.593 246.007 66.9814 243.863 65.144 241.113C63.3065 238.364 62.3258 235.13 62.3258 231.823C62.3282 227.389 64.0907 223.137 67.2262 220.002C70.3617 216.866 74.6136 215.104 79.0478 215.101ZM79.0478 214.201C75.5625 214.201 72.1555 215.235 69.2575 217.171C66.3596 219.107 64.101 221.86 62.7672 225.08C61.4334 228.3 61.0844 231.843 61.7644 235.261C62.4443 238.679 64.1227 241.819 66.5872 244.284C69.0516 246.748 72.1916 248.427 75.6099 249.107C79.0282 249.787 82.5714 249.438 85.7914 248.104C89.0114 246.77 91.7636 244.511 93.7 241.613C95.6363 238.716 96.6698 235.308 96.6698 231.823C96.6698 227.15 94.8132 222.667 91.5084 219.363C88.2037 216.058 83.7214 214.201 79.0478 214.201Z" fill="#FF5733"/>
<path opacity="0.4" d="M91.7995 238.699C90.5509 241.001 88.7041 242.923 86.4539 244.262C84.2037 245.601 81.6336 246.308 79.015 246.308C76.3963 246.308 73.8262 245.601 71.576 244.262C69.3258 242.923 67.479 241.001 66.2305 238.699C70.0165 236.175 74.4648 234.828 79.015 234.828C83.5651 234.828 88.0134 236.175 91.7995 238.699Z" fill="#FF5733"/>
<path opacity="0.4" d="M79.0464 233.28C82.6252 233.28 85.5264 230.379 85.5264 226.8C85.5264 223.222 82.6252 220.32 79.0464 220.32C75.4676 220.32 72.5664 223.222 72.5664 226.8C72.5664 230.379 75.4676 233.28 79.0464 233.28Z" fill="#FF5733"/>
<path opacity="0.4" d="M115.631 222.715H287.153C289.557 222.715 291.862 223.67 293.562 225.369C295.262 227.069 296.216 229.374 296.216 231.778C296.216 234.181 295.262 236.487 293.562 238.186C291.862 239.886 289.557 240.841 287.153 240.841H115.631C113.228 240.841 110.922 239.886 109.223 238.186C107.523 236.487 106.568 234.181 106.568 231.778C106.568 229.377 107.522 227.074 109.22 225.376C110.918 223.678 113.221 222.724 115.622 222.724L115.631 222.715Z" fill="#FF5733"/>
<path opacity="0.1" d="M244.908 240.571C244.907 246.077 245.446 251.569 246.519 256.969C241.485 259.958 237.314 264.203 234.413 269.287C231.512 274.372 229.98 280.122 229.968 285.976C229.949 288.649 230.252 291.314 230.868 293.914H304.92C306.417 293.909 307.852 293.312 308.911 292.253C309.97 291.195 310.567 289.76 310.572 288.262V158.662C291.951 162.827 275.302 173.207 263.367 188.095C251.432 202.982 244.922 221.49 244.908 240.571Z" fill="black"/>
<path d="M381.72 297.051C410.959 267.812 410.959 220.407 381.72 191.168C352.481 161.929 305.075 161.929 275.836 191.168C246.597 220.407 246.597 267.812 275.836 297.051C305.075 326.29 352.481 326.29 381.72 297.051Z" fill="#FF5733"/>
<path d="M377.392 292.282C404.048 265.626 404.048 222.409 377.392 195.753C350.737 169.098 307.52 169.098 280.864 195.753C254.208 222.409 254.208 265.626 280.864 292.282C307.52 318.937 350.737 318.937 377.392 292.282Z" fill="white"/>
<path d="M306.099 198.227L301.743 203.807C301.743 203.807 297.918 206.705 296.469 209.207C294.777 210.881 293.229 212.6 291.699 214.409C289.946 216.477 288.311 218.644 286.803 220.898C285.152 223.308 283.787 225.902 282.735 228.629C282.069 230.354 281.701 232.18 281.646 234.029C281.622 235.336 281.855 236.635 282.33 237.854C282.927 239.346 283.912 240.651 285.183 241.634L286.137 242.354L287.568 242.624C290.393 243.16 293.261 243.444 296.136 243.47L297.27 243.371L296.1 231.959C295.137 231.959 293.067 232.148 292.122 232.13C292.122 231.95 292.194 231.77 292.239 231.59C292.809 229.418 293.593 227.307 294.579 225.29C295.587 223.103 296.748 220.916 297.954 218.738C299.016 216.812 300.159 214.877 301.266 212.987L306.666 209.585L309.825 203.978L306.099 198.227ZM292.05 233.777C292.043 233.69 292.043 233.602 292.05 233.516C292.088 233.58 292.116 233.65 292.131 233.723C292.158 233.939 292.095 233.948 292.05 233.777Z" fill="#FFBF9D"/>
<path d="M336.772 210.285C336.907 209.592 332.173 207.216 328.915 209.151C326.098 210.825 325.738 213.111 326.764 215.838C326.764 216.027 326.836 216.216 326.863 216.405C326.926 216.846 326.98 217.305 327.007 217.719C327.214 220.59 326.458 223.263 323.227 224.784C323.227 224.964 322.786 225.153 322.642 225.279C321.446 226.332 320.682 227.791 320.5 229.374C320.5 230.544 321.607 231.471 322.894 232.587L324.694 233.802L327.16 233.568C334.729 231.345 338.266 224.433 338.104 223.92C336.16 220.716 336.187 215.1 336.772 210.285Z" fill="#FFBF9D"/>
<path d="M353.132 226.684L351.764 226.45C349.964 226.162 341.936 224.344 338.057 224.002C337.157 225.919 334.205 230.599 326.636 232.822L324.764 233.263L322.964 232.363C322.408 231.962 321.945 231.445 321.606 230.849C321.268 230.253 321.062 229.59 321.002 228.907C321.064 228.204 321.27 227.522 321.607 226.902C321.945 226.283 322.407 225.739 322.964 225.307C323.03 225.25 323.082 225.179 323.117 225.1C323.117 224.884 323.117 224.74 323.117 224.722C322.55 224.794 315.368 225.883 314.765 225.982C307.995 227.233 301.348 229.079 294.902 231.499L294.974 232.147L296.279 243.478L296.765 247.771C296.765 247.771 300.365 247.366 305.09 246.538C303.803 258.004 303.551 274.618 307.484 295.975L322.847 295.687L349.541 295.192C349.649 293.392 349.451 289.666 349.262 284.572L349.019 276.706C348.875 269.758 348.902 261.406 349.523 252.478C349.622 251.065 349.739 249.643 349.865 248.203C355.319 254.098 360.782 259.732 360.782 259.732L363.365 257.248C366.668 255.655 369.269 252.802 371.537 249.373L374.57 246.448C374.57 246.448 360.512 227.926 353.132 226.684Z" fill="#FF5733"/>
<path opacity="0.3" d="M345.744 243.576C345.95 245.45 346.548 247.259 347.499 248.886L349.569 252.432C349.668 251.019 349.785 249.597 349.911 248.157C348.489 246.6 347.067 245.061 345.744 243.576Z" fill="black"/>
<path opacity="0.3" d="M349.92 248.166C349.794 249.606 349.677 251.028 349.578 252.441C349.668 251.028 349.794 249.597 349.92 248.166Z" fill="black"/>
<path d="M326.764 215.84C326.764 216.029 326.827 216.218 326.863 216.407C326.863 216.218 326.8 216.029 326.764 215.84Z" fill="#FFBF9D"/>
<path opacity="0.2" d="M327.005 217.72C327.005 217.288 326.924 216.82 326.861 216.406C326.924 216.847 326.978 217.288 327.005 217.72Z" fill="black"/>
<path d="M332.605 213.705C332.425 213.831 332.254 213.966 332.065 214.092C330.49 215.147 328.657 215.751 326.764 215.838C326.764 216.027 326.827 216.216 326.863 216.405C326.926 216.846 326.98 217.305 327.007 217.719C327.007 217.719 327.007 217.773 327.007 217.8C329.341 217.23 331.355 215.758 332.605 213.705Z" fill="#FFBF9D"/>
<path d="M342.712 225.369C342.632 224.999 342.45 224.659 342.185 224.389C341.921 224.118 341.586 223.927 341.218 223.839L339.346 223.389C339.112 223.334 338.866 223.356 338.646 223.452C338.425 223.547 338.241 223.712 338.122 223.92L338.059 224.001C337.159 225.918 334.207 230.598 326.638 232.821L326.053 232.956L324.766 233.262L322.966 232.362C322.409 231.961 321.946 231.445 321.608 230.848C321.269 230.252 321.063 229.589 321.004 228.906C321.065 228.203 321.271 227.521 321.609 226.901C321.946 226.282 322.408 225.739 322.966 225.306C323.064 225.205 323.152 225.093 323.227 224.973C323.308 224.766 323.29 224.667 323.146 224.577C321.157 223.146 316.711 225.351 316.531 225.729C316.342 225.918 316.153 226.116 315.964 226.341C315.409 226.995 314.994 227.755 314.747 228.576C314.499 229.397 314.423 230.26 314.524 231.111C314.711 232.543 315.219 233.914 316.009 235.123C316.799 236.332 317.851 237.348 319.087 238.095C319.128 238.108 319.172 238.108 319.213 238.095C319.26 238.109 319.31 238.109 319.357 238.095C319.396 238.068 319.427 238.031 319.449 237.989C319.471 237.947 319.483 237.9 319.483 237.852C319.486 236.788 319.805 235.749 320.397 234.865C320.989 233.981 321.83 233.292 322.813 232.884L324.388 233.73C317.62 261.504 322.21 294.795 322.336 295.695H322.858C322.858 295.353 318.088 261.774 324.91 233.847L326.557 233.451C328.474 235.791 327.565 239.265 327.556 239.301C327.543 239.349 327.544 239.4 327.558 239.448C327.572 239.495 327.6 239.538 327.637 239.571C327.687 239.613 327.751 239.635 327.817 239.634C327.849 239.643 327.883 239.643 327.916 239.634C328.276 239.472 336.79 235.746 339.769 232.191C341.175 230.492 342.167 228.489 342.667 226.341C342.765 226.026 342.781 225.692 342.712 225.369Z" fill="white"/>
<path opacity="0.2" d="M332.605 213.705C332.425 213.831 332.254 213.966 332.065 214.092C330.49 215.147 328.657 215.751 326.764 215.838C326.764 216.027 326.827 216.216 326.863 216.405C326.926 216.846 326.98 217.305 327.007 217.719C327.007 217.719 327.007 217.773 327.007 217.8C329.341 217.23 331.355 215.758 332.605 213.705Z" fill="black"/>
<path d="M321.489 193.833C325.008 189.333 322.776 186.633 321.282 186.885C319.869 187.551 318.528 189.432 317.835 193.644C317.669 194.638 317.645 195.65 317.763 196.65C319.212 196.578 321.489 193.833 321.489 193.833Z" fill="#263238"/>
<path d="M336.24 203.761C345.987 186.616 326.736 184.618 322.812 188.461C321.488 189.689 320.373 191.124 319.509 192.709L318.69 194.32C318.351 195.081 318.05 195.859 317.79 196.651C316.8 199.496 316.283 202.485 316.26 205.498C316.254 206.874 316.523 208.237 317.052 209.507C317.582 210.777 318.36 211.928 319.342 212.892C320.323 213.855 321.488 214.613 322.767 215.119C324.047 215.625 325.414 215.87 326.79 215.839C328.683 215.751 330.516 215.148 332.091 214.093C332.28 213.967 332.451 213.832 332.631 213.706C333.916 212.79 335.013 211.635 335.862 210.304C337.86 207.073 337.338 205.444 336.24 203.761Z" fill="#FFBF9D"/>
<path d="M318.196 193.789C318.137 193.867 318.11 193.965 318.122 194.062C318.134 194.16 318.183 194.249 318.259 194.311C318.326 194.363 318.408 194.391 318.493 194.392C318.565 194.39 318.635 194.364 318.691 194.32C318.727 194.304 318.758 194.279 318.781 194.248C319.069 193.868 319.44 193.559 319.866 193.345C320.292 193.132 320.761 193.018 321.238 193.015C321.337 193.02 321.434 192.986 321.508 192.92C321.582 192.854 321.627 192.762 321.634 192.664C321.638 192.615 321.632 192.566 321.617 192.52C321.601 192.474 321.577 192.431 321.545 192.395C321.514 192.358 321.475 192.328 321.431 192.306C321.388 192.284 321.34 192.271 321.292 192.268C320.665 192.264 320.046 192.415 319.492 192.709C318.99 192.975 318.549 193.343 318.196 193.789Z" fill="#263238"/>
<path d="M327.933 204.572C327.898 204.538 327.851 204.52 327.803 204.52C327.754 204.52 327.707 204.538 327.672 204.572C327.056 205.088 326.331 205.456 325.551 205.65C324.771 205.843 323.958 205.856 323.172 205.688C323.124 205.68 323.076 205.69 323.035 205.717C322.995 205.744 322.967 205.785 322.956 205.832C322.948 205.881 322.958 205.931 322.984 205.972C323.011 206.014 323.052 206.044 323.1 206.057C323.53 206.142 323.967 206.181 324.405 206.174C325.694 206.162 326.935 205.689 327.906 204.842C327.926 204.826 327.942 204.807 327.954 204.784C327.967 204.762 327.974 204.738 327.977 204.713C327.979 204.687 327.977 204.662 327.969 204.638C327.962 204.614 327.949 204.591 327.933 204.572Z" fill="#263238"/>
<path d="M323.1 198.145C321.908 199.889 320.489 201.466 318.879 202.834C319.779 204.076 321.723 203.986 321.723 203.986L323.1 198.145Z" fill="#D03A1A"/>
<path d="M319.915 198.361C320.32 198.442 320.815 198.01 320.914 197.389C321.013 196.768 320.851 196.21 320.446 196.129C320.041 196.048 319.591 196.48 319.447 197.101C319.303 197.722 319.501 198.28 319.915 198.361Z" fill="#263238"/>
<path d="M326.952 199.8C327.357 199.881 327.798 199.449 327.951 198.828C328.104 198.207 327.879 197.649 327.474 197.568C327.069 197.487 326.619 197.919 326.475 198.54C326.331 199.161 326.538 199.683 326.952 199.8Z" fill="#263238"/>
<path d="M342.404 189.992C346.211 186.734 337.535 180.092 337.535 180.092C337.535 180.092 338.507 182.468 336.491 183.125C334.475 183.782 320.291 178.49 320.498 184.493C320.537 185.339 320.808 186.158 321.281 186.86C321.703 187.464 322.22 187.996 322.811 188.435C326.105 190.937 332.099 191.702 335.339 191.702C334.825 192.955 334.465 194.267 334.268 195.608C334.02 197.021 334.067 198.47 334.406 199.864C334.746 201.258 335.37 202.567 336.239 203.708C338.039 206.84 340.442 206.75 342.494 204.365C345.788 201.251 348.965 194.942 342.404 189.992Z" fill="#263238"/>
<path d="M340.75 202.564C339.256 201.952 337.573 202.672 336.25 203.761C335.524 204.339 334.895 205.028 334.387 205.804C333.118 207.793 333.568 210.106 335.845 210.304H336.241H336.781C338.573 210.122 340.248 209.327 341.524 208.054C341.996 207.598 342.337 207.023 342.51 206.389C342.682 205.756 342.681 205.087 342.505 204.454C342.376 204.026 342.151 203.633 341.847 203.305C341.543 202.978 341.167 202.724 340.75 202.564Z" fill="#FFBF9D"/>
<path d="M307.529 295.931C307.529 295.931 307.286 298.037 306.908 301.574C320.691 306.234 335.602 306.373 349.469 301.97C349.559 297.695 349.622 295.139 349.622 295.139L322.892 295.643H322.37L307.529 295.931Z" fill="#263238"/>
<path d="M377.1 259.686C377.024 258.92 376.848 258.167 376.578 257.445C376.449 257.087 376.296 256.738 376.119 256.401L375.858 255.915L375.714 255.663C374.427 253.449 373.014 251.352 371.574 249.363L363.402 257.238C364.482 258.588 365.535 259.938 366.507 261.324C366.327 261.784 366.094 262.222 365.814 262.629C364.506 264.447 362.996 266.11 361.314 267.588C357.79 270.763 354.097 273.746 350.253 276.525L349.002 276.687L343.98 277.371L339.039 280.71L342.288 287.316L346.374 285.228C347.35 285.094 348.311 284.868 349.245 284.553C350.689 284.177 351.946 283.287 352.782 282.051C355.173 281.104 357.513 280.035 359.793 278.847C362.245 277.582 364.619 276.173 366.903 274.626C368.061 273.834 369.207 272.967 370.341 272.025C371.545 271.037 372.66 269.944 373.671 268.758C374.966 267.294 375.963 265.591 376.605 263.745C377.058 262.443 377.227 261.059 377.1 259.686ZM366.579 261.108C366.579 261.063 366.579 261.009 366.579 260.973C366.579 260.757 366.66 260.676 366.66 260.802C366.656 260.907 366.635 261.01 366.597 261.108H366.579Z" fill="#FFBF9D"/>
<path d="M288.076 286.295C290.262 272.827 281.116 260.137 267.648 257.95C254.18 255.764 241.49 264.91 239.304 278.378C237.118 291.846 246.264 304.536 259.732 306.722C273.199 308.908 285.89 299.763 288.076 286.295Z" fill="#263238"/>
<path d="M277.254 280.009H265.986V268.741C265.986 268.127 265.743 267.539 265.309 267.105C264.875 266.671 264.287 266.428 263.673 266.428C263.06 266.428 262.472 266.671 262.038 267.105C261.604 267.539 261.36 268.127 261.36 268.741V280.009H250.092C249.479 280.009 248.891 280.252 248.457 280.686C248.023 281.12 247.779 281.708 247.779 282.322C247.779 282.935 248.023 283.523 248.457 283.957C248.891 284.391 249.479 284.635 250.092 284.635H261.36V295.903C261.36 296.206 261.42 296.507 261.536 296.788C261.653 297.068 261.823 297.323 262.038 297.538C262.253 297.753 262.508 297.923 262.788 298.04C263.069 298.156 263.37 298.216 263.673 298.216C263.977 298.216 264.278 298.156 264.558 298.04C264.839 297.923 265.094 297.753 265.309 297.538C265.524 297.323 265.694 297.068 265.81 296.788C265.926 296.507 265.986 296.206 265.986 295.903V284.635H277.254C277.868 284.635 278.456 284.391 278.89 283.957C279.324 283.523 279.567 282.935 279.567 282.322C279.567 281.708 279.324 281.12 278.89 280.686C278.456 280.252 277.868 280.009 277.254 280.009Z" fill="white"/>
<path d="M328.293 195.084C328.746 195.176 329.169 195.376 329.526 195.668C329.884 195.959 330.165 196.334 330.345 196.758C330.376 196.823 330.425 196.878 330.485 196.916C330.546 196.954 330.616 196.974 330.687 196.974C330.738 196.987 330.79 196.987 330.841 196.974C330.885 196.954 330.925 196.925 330.959 196.889C330.992 196.853 331.018 196.811 331.034 196.764C331.051 196.718 331.059 196.669 331.056 196.62C331.054 196.571 331.042 196.523 331.02 196.479C330.786 195.942 330.424 195.471 329.966 195.105C329.508 194.74 328.968 194.492 328.393 194.382C328.295 194.369 328.196 194.395 328.117 194.455C328.039 194.515 327.987 194.604 327.974 194.702C327.961 194.8 327.987 194.899 328.047 194.977C328.107 195.056 328.196 195.107 328.293 195.12V195.084Z" fill="#263238"/>
</svg>
