<svg width="20" height="20" viewBox="0 0 20 20" fill="none" xmlns="http://www.w3.org/2000/svg">
<path d="M12.9184 9.99971C12.9188 10.1944 12.8509 10.3831 12.7267 10.533L8.56005 15.533C8.2655 15.8874 7.73943 15.9359 7.38505 15.6414C7.03066 15.3468 6.98216 14.8208 7.27671 14.4664L11.01 9.99971L7.41005 5.53304C7.27024 5.36088 7.20482 5.14009 7.22828 4.91956C7.25175 4.69902 7.36215 4.49694 7.53505 4.35804C7.70826 4.20376 7.93794 4.12866 8.16885 4.15081C8.39975 4.17295 8.61097 4.29033 8.75171 4.47471L12.7767 9.47471C12.8813 9.62895 12.9312 9.81379 12.9184 9.99971Z" fill="white"/>
</svg>
