<svg width="28" height="28" viewBox="0 0 28 28" fill="none" xmlns="http://www.w3.org/2000/svg">
<path d="M23.3764 6.40118H21.156L19.7877 4.34682C19.6246 4.102 19.4037 3.90124 19.1444 3.76237C18.8851 3.6235 18.5955 3.55082 18.3014 3.55078H9.69646C9.40248 3.55074 9.11304 3.62327 8.85382 3.76194C8.5946 3.90061 8.37362 4.10113 8.2105 4.3457L6.83962 6.4009H4.62202C2.45762 6.40398 0.702019 8.1565 0.699219 10.324V20.5272C0.702019 22.6944 2.45762 24.4472 4.62202 24.45H23.3764C25.5408 24.4472 27.2964 22.6944 27.2992 20.5272V10.324C27.2964 8.15678 25.5408 6.40398 23.3764 6.40118ZM13.9992 22.6944C10.0316 22.6944 6.81722 19.4772 6.81722 15.5096C6.81722 11.5448 10.0316 8.32758 13.9992 8.32758C17.9668 8.32758 21.1812 11.5448 21.1812 15.5096C21.1784 19.4744 17.964 22.6888 13.9992 22.6944Z" fill="#060C4D"/>
<path d="M19.0336 15.509C19.0336 18.2894 16.7796 20.5434 13.9992 20.5434C11.2188 20.5434 8.96484 18.2894 8.96484 15.509C8.96484 12.7286 11.2188 10.4746 13.9992 10.4746C15.0184 10.4774 15.9648 10.7798 16.7572 11.3006C16.2107 11.3171 15.6921 11.546 15.3116 11.9386C14.931 12.3312 14.7184 12.8566 14.7188 13.4034C14.7188 14.5654 15.6596 15.509 16.8244 15.509C17.754 15.509 18.5464 14.9042 18.8208 14.0642C18.9608 14.5206 19.0336 15.0078 19.0336 15.509Z" fill="#060C4D"/>
</svg>
