<svg width="24" height="25" viewBox="0 0 24 25" fill="none" xmlns="http://www.w3.org/2000/svg">
<path d="M22.6845 10.1222C22.2245 9.66639 21.776 9.19919 21.3393 8.72098C21.2728 8.0245 21.2386 7.32531 21.2367 6.62565C21.2357 5.73419 20.8812 4.8795 20.2508 4.24915C19.6205 3.61879 18.7658 3.26424 17.8743 3.26332C16.9422 3.26332 16.2667 3.24115 15.9318 3.22365C15.3922 2.77868 14.8737 2.30878 14.3778 1.81548C13.1108 0.548484 10.8895 0.548484 9.62133 1.81548C8.96216 2.47465 8.46983 2.93782 8.22016 3.16065C7.82 3.20148 6.9835 3.26332 6.12483 3.26332C5.23408 3.26455 4.38017 3.61895 3.75031 4.2488C3.12046 4.87866 2.76606 5.73257 2.76483 6.62332C2.76483 7.55665 2.74266 8.23215 2.724 8.56582C2.47083 8.87848 1.9225 9.51315 1.31583 10.1222C0.682329 10.7557 0.333496 11.6003 0.333496 12.4998C0.333496 13.3993 0.683496 14.244 1.31466 14.8775C1.97616 15.5378 2.43816 16.0302 2.661 16.2798C2.70183 16.6812 2.76366 17.5188 2.76366 18.374C2.76428 19.265 3.11844 20.1194 3.7484 20.7496C4.37835 21.3798 5.23262 21.7342 6.12366 21.7352C7.057 21.7352 7.73133 21.7573 8.06616 21.7748C8.37883 22.0303 9.017 22.5798 9.6225 23.1842C10.256 23.8177 11.1007 24.1665 12.0002 24.1665C12.8997 24.1665 13.7443 23.8177 14.3778 23.1842C15.0382 22.5238 15.5328 22.0607 15.7813 21.839C16.1815 21.7982 17.018 21.7352 17.8767 21.7352C18.7675 21.7342 19.6216 21.3799 20.2515 20.75C20.8814 20.1201 21.2357 19.266 21.2367 18.3752C21.2367 17.4418 21.2588 16.7663 21.2763 16.4315C21.7213 15.8918 22.1912 15.3733 22.6845 14.8775C23.318 14.244 23.6668 13.3993 23.6668 12.4998C23.6668 11.6003 23.318 10.7557 22.6845 10.1222Z" fill="#008F34"/>
<path d="M10.2502 16.5833C10.097 16.5835 9.9452 16.5534 9.80365 16.4947C9.6621 16.4361 9.53354 16.35 9.42534 16.2415L7.09201 13.9082C6.98058 13.8006 6.8917 13.6718 6.83056 13.5295C6.76941 13.3871 6.73723 13.2341 6.73588 13.0791C6.73454 12.9242 6.76406 12.7706 6.82272 12.6272C6.88138 12.4839 6.96801 12.3536 7.07755 12.2441C7.18709 12.1345 7.31735 12.0479 7.46073 11.9892C7.60411 11.9306 7.75773 11.901 7.91264 11.9024C8.06755 11.9037 8.22064 11.9359 8.36298 11.9971C8.50532 12.0582 8.63405 12.1471 8.74168 12.2585L10.2502 13.767L15.2587 8.75851C15.3663 8.64709 15.495 8.55821 15.6374 8.49706C15.7797 8.43592 15.9328 8.40373 16.0877 8.40239C16.2426 8.40104 16.3962 8.43056 16.5396 8.48922C16.683 8.54788 16.8133 8.63451 16.9228 8.74405C17.0323 8.85359 17.119 8.98386 17.1776 9.12723C17.2363 9.27061 17.2658 9.42424 17.2645 9.57915C17.2631 9.73406 17.2309 9.88715 17.1698 10.0295C17.1087 10.1718 17.0198 10.3006 16.9083 10.4082L11.075 16.2415C10.9668 16.35 10.8382 16.4361 10.6967 16.4947C10.5551 16.5534 10.4034 16.5835 10.2502 16.5833Z" fill="#E0E0E0"/>
</svg>
