<svg width="28" height="28" viewBox="0 0 28 28" fill="none" xmlns="http://www.w3.org/2000/svg">
<path d="M24.6845 11.6222C24.2245 11.1664 23.776 10.6992 23.3393 10.221C23.2728 9.5245 23.2386 8.82531 23.2367 8.12565C23.2357 7.23419 22.8812 6.3795 22.2508 5.74915C21.6205 5.11879 20.7658 4.76424 19.8743 4.76332C18.9422 4.76332 18.2667 4.74115 17.9318 4.72365C17.3922 4.27868 16.8737 3.80878 16.3778 3.31548C15.1108 2.04848 12.8895 2.04848 11.6213 3.31548C10.9622 3.97465 10.4698 4.43782 10.2202 4.66065C9.82 4.70148 8.9835 4.76332 8.12483 4.76332C7.23408 4.76455 6.38017 5.11895 5.75031 5.7488C5.12046 6.37866 4.76606 7.23257 4.76483 8.12332C4.76483 9.05665 4.74266 9.73215 4.724 10.0658C4.47083 10.3785 3.9225 11.0132 3.31583 11.6222C2.68233 12.2557 2.3335 13.1003 2.3335 13.9998C2.3335 14.8993 2.6835 15.744 3.31466 16.3775C3.97616 17.0378 4.43816 17.5302 4.661 17.7798C4.70183 18.1812 4.76366 19.0188 4.76366 19.874C4.76428 20.765 5.11844 21.6194 5.7484 22.2496C6.37835 22.8798 7.23262 23.2342 8.12366 23.2352C9.057 23.2352 9.73133 23.2573 10.0662 23.2748C10.3788 23.5303 11.017 24.0798 11.6225 24.6842C12.256 25.3177 13.1007 25.6665 14.0002 25.6665C14.8997 25.6665 15.7443 25.3177 16.3778 24.6842C17.0382 24.0238 17.5328 23.5607 17.7813 23.339C18.1815 23.2982 19.018 23.2352 19.8767 23.2352C20.7675 23.2342 21.6216 22.8799 22.2515 22.25C22.8814 21.6201 23.2357 20.766 23.2367 19.8752C23.2367 18.9418 23.2588 18.2663 23.2763 17.9315C23.7213 17.3918 24.1912 16.8733 24.6845 16.3775C25.318 15.744 25.6668 14.8993 25.6668 13.9998C25.6668 13.1003 25.318 12.2557 24.6845 11.6222Z" fill="#008F34"/>
<path d="M12.2502 18.0833C12.097 18.0835 11.9452 18.0534 11.8037 17.9947C11.6621 17.9361 11.5335 17.85 11.4253 17.7415L9.09201 15.4082C8.98058 15.3006 8.8917 15.1718 8.83056 15.0295C8.76941 14.8871 8.73723 14.7341 8.73588 14.5791C8.73454 14.4242 8.76406 14.2706 8.82272 14.1272C8.88138 13.9839 8.96801 13.8536 9.07755 13.7441C9.18709 13.6345 9.31735 13.5479 9.46073 13.4892C9.60411 13.4306 9.75773 13.401 9.91264 13.4024C10.0676 13.4037 10.2206 13.4359 10.363 13.4971C10.5053 13.5582 10.6341 13.6471 10.7417 13.7585L12.2502 15.267L17.2587 10.2585C17.3663 10.1471 17.495 10.0582 17.6374 9.99706C17.7797 9.93592 17.9328 9.90373 18.0877 9.90239C18.2426 9.90104 18.3962 9.93056 18.5396 9.98922C18.683 10.0479 18.8133 10.1345 18.9228 10.2441C19.0323 10.3536 19.119 10.4839 19.1776 10.6272C19.2363 10.7706 19.2658 10.9242 19.2645 11.0791C19.2631 11.2341 19.2309 11.3871 19.1698 11.5295C19.1087 11.6718 19.0198 11.8006 18.9083 11.9082L13.075 17.7415C12.9668 17.85 12.8382 17.9361 12.6967 17.9947C12.5551 18.0534 12.4034 18.0835 12.2502 18.0833Z" fill="#E0E0E0"/>
</svg>
