<svg width="32" height="32" viewBox="0 0 32 32" fill="none" xmlns="http://www.w3.org/2000/svg">
<path d="M24 7.9974C23.9374 5.92613 23.7062 4.6907 22.8502 3.83564C21.6774 2.66406 19.7897 2.66406 16.0144 2.66406H10.6753C6.89997 2.66406 5.01231 2.66406 3.83947 3.83564C2.66663 5.00721 2.66663 6.89282 2.66663 10.6641V21.3307C2.66663 25.1019 2.66663 26.9875 3.83947 28.1591C5.01231 29.3307 6.89997 29.3307 10.6753 29.3307H16.0144C19.7897 29.3307 21.6774 29.3307 22.8502 28.1591C23.7062 27.3041 23.9374 26.0687 24 23.9974" stroke="white" stroke-width="1.5" stroke-linecap="round" stroke-linejoin="round"/>
<path d="M26.9892 15.6533L28.5587 14.0838C28.9192 13.7233 29.0995 13.543 29.1959 13.3486C29.3792 12.9785 29.3792 12.5441 29.1959 12.1741C29.0995 11.9796 28.9192 11.7993 28.5587 11.4388C28.198 11.0782 28.0177 10.898 27.8233 10.8016C27.4533 10.6182 27.0189 10.6182 26.6488 10.8016C26.4544 10.898 26.2741 11.0782 25.9136 11.4388L24.3441 13.0082M26.9892 15.6533L19.9676 22.6749L16 23.9974L17.3225 20.0298L24.3441 13.0082M26.9892 15.6533L24.3441 13.0082" stroke="white" stroke-width="1.5" stroke-linecap="round" stroke-linejoin="round"/>
<path d="M6.66663 25.3333H7.99996L9.66663 22L11.3333 25.3333H12.6666" stroke="white" stroke-width="1.5" stroke-linecap="round" stroke-linejoin="round"/>
<path d="M8 8H18.6667" stroke="white" stroke-width="1.5" stroke-linecap="round" stroke-linejoin="round"/>
<path d="M8 13.3359H16" stroke="white" stroke-width="1.5" stroke-linecap="round" stroke-linejoin="round"/>
</svg>
