<svg width="32" height="32" viewBox="0 0 32 32" fill="none" xmlns="http://www.w3.org/2000/svg">
<path d="M25.3333 13.9974V13.3307C25.3333 8.30241 25.3332 5.78821 23.7712 4.22612C22.209 2.66406 19.6949 2.66406 14.6666 2.66406C9.6385 2.66406 7.12433 2.66414 5.56223 4.22618C4.00018 5.78826 4.00015 8.30236 4.00011 13.3306L4.00006 19.3307C4.00002 23.7139 4.00001 25.9057 5.21057 27.3807C5.43222 27.6509 5.67987 27.8985 5.94997 28.1202C7.42509 29.3307 9.61671 29.3307 14 29.3307" stroke="white" stroke-width="1.5" stroke-linecap="round" stroke-linejoin="round"/>
<path d="M9.33331 9.33594H20M9.33331 14.6693H14.6666" stroke="white" stroke-width="1.5" stroke-linecap="round" stroke-linejoin="round"/>
<path d="M24 24.6693L22 23.9359V20.6693M16 23.3359C16 26.6497 18.6863 29.3359 22 29.3359C25.3137 29.3359 28 26.6497 28 23.3359C28 20.0222 25.3137 17.3359 22 17.3359C18.6863 17.3359 16 20.0222 16 23.3359Z" stroke="white" stroke-width="1.5" stroke-linecap="round" stroke-linejoin="round"/>
</svg>
