<svg width="20" height="20" viewBox="0 0 20 20" fill="none" xmlns="http://www.w3.org/2000/svg">
<path d="M5.8335 13.3327H8.69066M5.8335 9.16602H12.5002" stroke="white" stroke-width="1.5" stroke-linecap="round" stroke-linejoin="round"/>
<path d="M8.75016 18.3327H7.91683M16.2502 9.58268V3.33268C16.2502 2.41221 15.504 1.66602 14.5835 1.66602H3.75016C2.82969 1.66602 2.0835 2.41221 2.0835 3.33268V16.666C2.0835 17.5865 2.82969 18.3327 3.75016 18.3327H5.41683" stroke="white" stroke-width="1.5" stroke-linecap="round" stroke-linejoin="round"/>
<path d="M12.5002 1.66602H5.8335L6.1341 3.46968C6.20108 3.87151 6.54874 4.16602 6.9561 4.16602H11.3776C11.7849 4.16602 12.1326 3.87151 12.1996 3.46968L12.5002 1.66602Z" stroke="white" stroke-width="1.5" stroke-linejoin="round"/>
<path d="M11.25 16.2493V18.3327H13.3333L17.9167 13.7493L15.8333 11.666L11.25 16.2493Z" stroke="white" stroke-width="1.5" stroke-linejoin="round"/>
</svg>
