<svg width="22" height="22" viewBox="0 0 22 22" fill="none" xmlns="http://www.w3.org/2000/svg">
<path fill-rule="evenodd" clip-rule="evenodd" d="M5.66671 9.47284C4.77043 9.47284 4.58337 9.64875 4.58337 10.4914V12.0192C4.58337 12.8619 4.77043 13.0377 5.66671 13.0377H7.83337V19.1488C7.83337 19.9914 8.02042 20.1673 8.9167 20.1673H11.0834C11.9797 20.1673 12.1667 19.9914 12.1667 19.1488V13.0377H14.5995C15.2793 13.0377 15.4545 12.9135 15.6412 12.299L16.1055 10.7712C16.4253 9.7186 16.2282 9.47284 15.0638 9.47284H12.1667V6.92658C12.1667 6.36407 12.6517 5.90805 13.25 5.90805H16.3334C17.2296 5.90805 17.4167 5.73219 17.4167 4.88954V2.8525C17.4167 2.00985 17.2296 1.83398 16.3334 1.83398H13.25C10.2585 1.83398 7.83337 4.11402 7.83337 6.92658V9.47284H5.66671Z" stroke="white" stroke-width="1.5" stroke-linejoin="round"/>
</svg>
