<svg width="116" height="75" viewBox="0 0 116 75" fill="none" xmlns="http://www.w3.org/2000/svg">
<path opacity="0.2" d="M58 75C90.0325 75 116 66.1858 116 55.3131C116 44.4403 90.0325 35.6262 58 35.6262C25.9675 35.6262 0 44.4403 0 55.3131C0 66.1858 25.9675 75 58 75Z" fill="black"/>
<path d="M110.968 42.1271L110.977 46.7391C110.977 46.7853 110.975 46.8333 110.974 46.8798C110.926 48.4559 109.988 49.8821 108.537 50.5382C106.503 51.4581 104.095 52.1734 101.468 52.7005C100.652 52.8658 99.8167 53.0125 98.9642 53.1409C97.0894 53.4226 95.1332 53.6193 93.1445 53.7357C92.441 53.7771 91.7346 53.8079 91.025 53.8293C88.3606 53.9084 85.6664 53.8516 83.0498 53.6695C81.8776 53.5867 80.721 53.4791 79.5893 53.3467C76.6861 53.0076 73.955 52.5073 71.5649 51.8643C70.193 51.4961 68.9331 51.0811 67.8178 50.6213C67.3006 50.4089 66.8426 50.1024 66.4605 49.7277C65.7245 49.0044 65.2682 48.024 65.2165 46.9643C65.2116 46.8978 65.2099 46.8316 65.2099 46.7651L65.2012 42.2119L110.968 42.1271Z" fill="#FDB748"/>
<path d="M110.974 46.8799C110.926 48.4559 109.989 49.8821 108.538 50.5383C105.872 51.7439 102.568 52.5981 98.9647 53.141C96.4285 53.5212 93.7426 53.7469 91.0251 53.8294C88.3608 53.9085 85.6665 53.8517 83.0499 53.6696C81.8777 53.5868 80.7211 53.4792 79.5895 53.3468C76.6862 53.0077 73.9551 52.5074 71.5651 51.8643C70.1931 51.4962 68.9332 51.0812 67.818 50.6214C67.3008 50.409 66.8428 50.1025 66.4607 49.7277C65.7246 49.0045 65.2684 48.0241 65.2166 46.9644C66.1263 47.3782 67.0843 47.763 68.0793 48.1149C69.8515 48.7419 71.7482 49.2731 73.7289 49.7083C76.3696 50.2891 79.1593 50.6996 82.0005 50.9445C83.1819 51.0458 84.3745 51.1177 85.5668 51.1619C88.3481 51.265 91.1418 51.2119 93.8559 51.0092C96.8032 50.7875 99.6584 50.3868 102.308 49.8102C105.583 49.0975 108.543 48.1186 110.974 46.8799Z" fill="#FF901E"/>
<path opacity="0.2" d="M81.2818 42.1819L73.7287 49.7079L71.5646 51.8642C70.1926 51.4961 68.9328 51.0811 67.8175 50.6213C67.3003 50.4089 66.8423 50.1024 66.4602 49.7276L68.0789 48.1148L74.0194 42.1956L81.2818 42.1819Z" fill="#FFEAA5"/>
<path opacity="0.2" d="M110.968 42.1271L110.97 43.2565L104.486 49.7174L101.467 52.7002C100.652 52.8655 99.8166 53.0122 98.9641 53.1406C97.0893 53.4223 95.1331 53.619 93.1444 53.7354L96.0341 50.9167L104.843 42.1385L110.968 42.1271Z" fill="#FFEAA5"/>
<path opacity="0.2" d="M94.6014 42.1574L85.5661 51.1616L83.0496 53.6692C81.8774 53.5864 80.7207 53.4788 79.5891 53.3464L82.0001 50.9441L90.8114 42.1642L94.6014 42.1574Z" fill="#FFEAA5"/>
<path d="M110.968 42.0526C110.975 45.387 100.735 48.1093 88.0961 48.1327C75.4581 48.1561 65.2073 45.4715 65.2012 42.137C65.2012 42.0623 65.2055 41.9875 65.2179 41.9127C65.6569 38.6813 75.7189 36.0797 88.0734 36.0569C100.428 36.0341 110.5 38.5985 110.951 41.8282C110.963 41.9033 110.968 41.9781 110.968 42.0526Z" fill="#FFEAA5"/>
<path d="M106.375 42.0612C106.375 42.1351 106.367 42.2093 106.357 42.2826C105.921 44.8422 97.8984 46.9026 88.0935 46.9206C78.2889 46.9389 70.2591 44.9079 69.8126 42.35C69.8022 42.2766 69.7945 42.2024 69.7942 42.1285C69.7893 39.4676 77.9896 37.2876 88.0751 37.2688C98.1609 37.2505 106.37 39.4 106.375 42.0612Z" fill="#FF901E"/>
<path d="M106.357 42.2826C105.921 44.8422 97.8986 46.9026 88.0937 46.9206C87.8743 46.9212 87.6573 46.92 87.4405 46.9186C85.2534 46.9023 83.1629 46.7844 81.2335 46.5812C79.3037 46.378 77.5373 46.0903 76.0002 45.735C75.6098 45.6448 75.2343 45.5506 74.8718 45.4516C73.2327 45.0015 71.9199 44.4677 71.0433 43.8755C70.8311 43.734 70.6445 43.5881 70.4861 43.4403C70.1077 43.0915 69.88 42.7262 69.8128 42.35C70.2495 39.7904 78.2716 37.7294 88.0765 37.7112C89.3168 37.7089 90.5289 37.7397 91.7031 37.7999C92.3003 37.8305 92.8899 37.869 93.4667 37.9152C95.8225 38.1028 97.9771 38.4133 99.8229 38.8186C100.221 38.9062 100.607 38.9984 100.977 39.0951C102.415 39.4696 103.617 39.9071 104.519 40.3909C105.398 40.8627 105.991 41.3773 106.242 41.9202C106.298 42.0397 106.337 42.1608 106.357 42.2826Z" fill="#FDB748"/>
<path opacity="0.2" d="M106.242 41.9207L87.4405 46.9186C85.2534 46.9023 83.1629 46.7844 81.2335 46.5812L104.519 40.3912C105.398 40.863 105.991 41.3779 106.242 41.9207Z" fill="#FFEAA5"/>
<path opacity="0.2" d="M93.4664 37.9155L71.043 43.8755C70.8308 43.7339 70.6442 43.5881 70.4858 43.4402L91.7028 37.8002C92.3 37.831 92.8896 37.8695 93.4664 37.9155Z" fill="#FFEAA5"/>
<path opacity="0.2" d="M100.977 39.0957L76 45.7352C75.6095 45.6451 75.234 45.5509 74.8715 45.4518L99.8226 38.8191C100.221 38.9065 100.606 38.9987 100.977 39.0957Z" fill="#FFEAA5"/>
<path d="M97.4369 40.069L91.375 40.0801C91.9038 40.2936 92.3362 40.5505 92.5673 40.8564L97.4383 40.8473L97.44 41.7675L92.6093 41.7763C92.0237 42.6685 89.6293 43.1534 87.8056 43.3512C87.3013 43.4066 86.7571 43.4323 86.2125 43.4334L83.7529 43.438L93.4807 45.9856L88.9315 45.9938L79.2036 43.4463L79.2019 42.5261L84.8802 42.5155C86.7203 42.5121 88.3157 42.2098 88.9559 41.7826L79.737 41.7997L79.7352 40.8798L88.9487 40.8627C88.3605 40.4234 87.0725 40.1897 86.3589 40.0889L79.7338 40.1012L79.7321 39.181L97.4349 39.1482L97.4369 40.069Z" fill="#FF5E00"/>
<path d="M97.4363 39.874L91.3745 39.8852C91.9032 40.0987 92.3356 40.3555 92.5668 40.6615L97.4377 40.6526L97.4395 41.5728L92.6088 41.5817C92.0231 42.4739 89.6287 42.9588 87.8051 43.1566C87.3008 43.2119 86.7565 43.2379 86.212 43.2388L83.7523 43.2433L93.4802 45.7909L88.9312 45.7995L79.2031 43.2519L79.2013 42.332L84.8796 42.3214C86.7197 42.318 88.3151 42.0158 88.9554 41.5885L79.7364 41.6056L79.7347 40.6855L88.9482 40.6683C88.3599 40.2294 87.0719 39.9953 86.3583 39.8946L79.7332 39.9069L79.7315 38.987L97.4343 38.9542L97.4363 39.874Z" fill="#FF8400"/>
<path d="M103.438 35.1818L103.447 39.7938C103.447 39.84 103.445 39.888 103.444 39.9345C103.396 41.5106 102.458 42.9368 101.007 43.5929C98.9733 44.5128 96.5654 45.2281 93.9376 45.7552C93.1222 45.9205 92.2867 46.0672 91.4342 46.1956C89.5594 46.4773 87.6032 46.674 85.6145 46.7904C84.911 46.8318 84.2046 46.8626 83.495 46.884C80.8306 46.9631 78.1364 46.9063 75.5198 46.7242C74.3476 46.6414 73.191 46.5338 72.0593 46.4014C69.1561 46.0623 66.425 45.562 64.035 44.919C62.663 44.5508 61.4031 44.1358 60.2878 43.676C59.7706 43.4636 59.3126 43.1571 58.9305 42.7824C58.1945 42.0591 57.7382 41.0787 57.6865 40.019C57.6816 39.9525 57.6799 39.8863 57.6799 39.8198L57.6712 35.2666L103.438 35.1818Z" fill="#FDB748"/>
<path d="M103.444 39.9342C103.396 41.5102 102.458 42.9364 101.007 43.5926C98.3418 44.7982 95.0378 45.6524 91.4342 46.1953C88.898 46.5754 86.2121 46.8012 83.4946 46.8837C80.8303 46.9628 78.136 46.906 75.5194 46.7239C74.3472 46.6411 73.1906 46.5335 72.0589 46.4011C69.1557 46.062 66.4246 45.5617 64.0346 44.9186C62.6626 44.5504 61.4027 44.1355 60.2875 43.6757C59.7702 43.4633 59.3122 43.1568 58.9301 42.782C58.1941 42.0588 57.7378 41.0784 57.6861 40.0187C58.5958 40.4325 59.5538 40.8173 60.5488 41.1692C62.321 41.7962 64.2177 42.3274 66.1984 42.7626C68.8391 43.3434 71.6288 43.7539 74.4697 43.9987C75.6511 44.1001 76.8437 44.172 78.036 44.2162C80.8173 44.3193 83.611 44.2662 86.3251 44.0635C89.2724 43.8418 92.1276 43.4411 94.7773 42.8645C98.052 42.1521 101.012 41.1732 103.444 39.9342Z" fill="#FF901E"/>
<path opacity="0.2" d="M73.7518 35.2366L66.1987 42.7627L64.0346 44.919C62.6626 44.5508 61.4027 44.1358 60.2875 43.676C59.7703 43.4636 59.3122 43.1571 58.9301 42.7824L60.5488 41.1695L66.4893 35.2503L73.7518 35.2366Z" fill="#FFEAA5"/>
<path opacity="0.2" d="M103.439 35.1818L103.441 36.3112L96.9565 42.7721L93.938 45.7549C93.1226 45.9202 92.2871 46.0669 91.4347 46.1953C89.5598 46.477 87.6036 46.6737 85.6149 46.7901L88.5047 43.9714L97.3131 35.1932L103.439 35.1818Z" fill="#FFEAA5"/>
<path opacity="0.2" d="M87.0713 35.2121L78.0361 44.2163L75.5195 46.7239C74.3473 46.6412 73.1907 46.5336 72.0591 46.4011L74.4701 43.9988L83.2817 35.2189L87.0713 35.2121Z" fill="#FFEAA5"/>
<path d="M103.438 35.1073C103.444 38.4418 93.2048 41.1641 80.5656 41.1875C67.9276 41.2109 57.6767 38.5266 57.6707 35.1918C57.6704 35.1171 57.675 35.0423 57.6874 34.9675C58.1264 31.7361 68.1883 29.1345 80.5429 29.1117C92.8974 29.0889 102.969 31.6533 103.42 34.883C103.433 34.9581 103.438 35.0326 103.438 35.1073Z" fill="#FFEAA5"/>
<path d="M98.8445 35.1159C98.8448 35.1898 98.837 35.264 98.827 35.3373C98.3902 37.8969 90.3682 39.9573 80.5632 39.9753C70.7586 39.9933 62.7288 37.9626 62.2823 35.4047C62.2719 35.3314 62.2642 35.2571 62.2642 35.1832C62.2593 32.5223 70.4599 30.3423 80.5451 30.3235C90.6309 30.3052 98.8396 32.4547 98.8445 35.1159Z" fill="#FF901E"/>
<path d="M98.8274 35.3374C98.3907 37.897 90.3686 39.9574 80.5637 39.9754C80.3444 39.9757 80.1273 39.9748 79.9105 39.9731C77.7234 39.9568 75.6329 39.8389 73.7035 39.6357C71.7737 39.4325 70.0073 39.1448 68.4702 38.7895C68.0795 38.6993 67.7043 38.6051 67.3418 38.5061C65.7027 38.056 64.3899 37.5223 63.5133 36.93C63.3011 36.7885 63.1145 36.6426 62.9561 36.4948C62.5777 36.146 62.35 35.781 62.2828 35.4045C62.7195 32.8449 70.7416 30.7839 80.5465 30.7657C81.7868 30.7634 82.9989 30.7942 84.1731 30.8544C84.7703 30.885 85.3599 30.9235 85.9367 30.9698C88.2925 31.1573 90.4468 31.4678 92.2929 31.8731C92.6911 31.9604 93.0767 32.0526 93.447 32.1497C94.8845 32.5241 96.0872 32.9616 96.9891 33.4454C97.8677 33.9172 98.4609 34.4318 98.7121 34.9747C98.7682 35.0945 98.8067 35.2156 98.8274 35.3374Z" fill="#FDB748"/>
<path opacity="0.2" d="M98.7119 34.9755L79.9105 39.9733C77.7234 39.9571 75.6329 39.8392 73.7035 39.636L96.9891 33.446C97.8677 33.9177 98.4609 34.4323 98.7119 34.9755Z" fill="#FFEAA5"/>
<path opacity="0.2" d="M85.9364 30.9703L63.513 36.9302C63.3008 36.7887 63.1142 36.6428 62.9558 36.495L84.1728 30.8549C84.77 30.8855 85.3596 30.9243 85.9364 30.9703Z" fill="#FFEAA5"/>
<path opacity="0.2" d="M93.4467 32.1502L68.47 38.7897C68.0792 38.6996 67.704 38.6054 67.3415 38.5063L92.2927 31.8736C92.6909 31.9613 93.0764 32.0534 93.4467 32.1502Z" fill="#FFEAA5"/>
<path d="M89.9072 33.1237L83.8454 33.1349C84.3741 33.3484 84.8065 33.6052 85.0377 33.9112L89.9087 33.9023L89.9104 34.8222L85.0797 34.8311C84.494 35.7233 82.0996 36.2082 80.276 36.406C79.7717 36.4614 79.2274 36.4873 78.6829 36.4882L76.2232 36.4927L85.9511 39.0403L81.4021 39.0486L71.6743 36.501L71.6726 35.5811L77.3509 35.5706C79.1909 35.5672 80.7863 35.2649 81.4266 34.8376L72.2076 34.8548L72.2059 33.9346L81.4194 33.9175C80.8311 33.4782 79.5431 33.2445 78.8295 33.1437L72.2044 33.156L72.2027 32.2358L89.9055 32.203L89.9072 33.1237Z" fill="#FF5E00"/>
<path d="M89.9067 32.9288L83.8448 32.9399C84.3735 33.1534 84.806 33.4103 85.0371 33.7163L89.9081 33.7071L89.9098 34.6273L85.0791 34.6362C84.4934 35.5284 82.0991 36.0133 80.2754 36.2113C79.7711 36.2667 79.2269 36.2924 78.6823 36.2935L76.2227 36.2981L85.9505 38.8457L81.4016 38.8543L71.6737 36.3067L71.672 35.3868L77.3503 35.3762C79.1903 35.3728 80.7857 35.0706 81.426 34.6433L72.207 34.6604L72.2053 33.7405L81.4188 33.7234C80.8306 33.2844 79.5425 33.0504 78.8289 32.9497L72.2039 32.9619L72.2022 32.0418L89.9049 32.0089L89.9067 32.9288Z" fill="#FF8400"/>
<path d="M111.941 27.7891L111.95 32.401C111.95 32.4473 111.948 32.4952 111.947 32.5417C111.899 34.1178 110.961 35.544 109.51 36.2002C107.476 37.12 105.068 37.8353 102.441 38.3624C101.625 38.5277 100.79 38.6744 99.9372 38.8028C98.0623 39.0842 96.1061 39.2812 94.1174 39.3976C93.4139 39.439 92.7075 39.4698 91.9979 39.4913C89.3336 39.5703 86.6393 39.5135 84.0227 39.3314C82.8505 39.2487 81.6939 39.141 80.5622 39.0086C77.659 38.6695 74.9279 38.1692 72.5379 37.5262C71.1659 37.158 69.906 36.743 68.7908 36.2832C68.2736 36.0709 67.8155 35.7643 67.4334 35.3896C66.6974 34.6664 66.2412 33.686 66.1894 32.6262C66.1845 32.5597 66.1828 32.4932 66.1828 32.427L66.1742 27.8738L111.941 27.7891Z" fill="#FDB748"/>
<path d="M111.948 32.5418C111.9 34.1179 110.962 35.5441 109.512 36.2002C106.846 37.4058 103.542 38.2601 99.9385 38.8029C97.4024 39.1831 94.7165 39.4088 91.999 39.4913C89.3347 39.5704 86.6404 39.5136 84.0238 39.3315C82.8516 39.2487 81.695 39.1411 80.5633 39.0087C77.6601 38.6696 74.929 38.1693 72.539 37.5263C71.167 37.1581 69.9071 36.7431 68.7919 36.2833C68.2746 36.0709 67.8166 35.7644 67.4345 35.3897C66.6985 34.6664 66.2422 33.686 66.1905 32.6263C67.1002 33.0402 68.0581 33.4246 69.0532 33.7768C70.8254 34.4039 72.7224 34.935 74.7028 35.37C77.3435 35.9508 80.1332 36.3612 82.9741 36.6061C84.1555 36.7074 85.3481 36.7793 86.5401 36.8236C89.3214 36.9266 92.1151 36.8735 94.8292 36.6709C97.7765 36.4491 100.632 36.0484 103.281 35.4719C106.556 34.7598 109.516 33.7808 111.948 32.5418Z" fill="#FF901E"/>
<path opacity="0.2" d="M82.2549 27.8442L74.7017 35.3702L72.5376 37.5265C71.1657 37.1583 69.9058 36.7434 68.7905 36.2836C68.2733 36.0712 67.8153 35.7647 67.4332 35.3899L69.0519 33.7771L74.9924 27.8579L82.2549 27.8442Z" fill="#FFEAA5"/>
<path opacity="0.2" d="M111.941 27.7891L111.943 28.9184L105.459 35.3796L102.44 38.3624C101.625 38.5277 100.79 38.6744 99.9372 38.8028C98.0623 39.0842 96.1061 39.2812 94.1174 39.3976L97.0072 36.5789L105.816 27.8007L111.941 27.7891Z" fill="#FFEAA5"/>
<path opacity="0.2" d="M95.5744 27.8193L86.5392 36.8235L84.0226 39.3311C82.8504 39.2484 81.6938 39.1408 80.5621 39.0083L82.9732 36.606L91.7847 27.8262L95.5744 27.8193Z" fill="#FFEAA5"/>
<path d="M111.941 27.7148C111.947 31.0492 101.708 33.7715 89.0685 33.7949C76.4305 33.8183 66.1796 31.134 66.1736 27.7993C66.1736 27.7245 66.1779 27.6497 66.1903 27.5749C66.6293 24.3435 76.6912 21.7419 89.0458 21.7191C101.4 21.6963 111.472 24.2607 111.923 27.4904C111.936 27.5652 111.941 27.64 111.941 27.7148Z" fill="#FFEAA5"/>
<path d="M107.347 27.7234C107.347 27.7973 107.34 27.8715 107.33 27.9448C106.893 30.5044 98.8711 32.5648 89.0662 32.5828C79.2616 32.6011 71.2317 30.5701 70.7852 28.0122C70.7749 27.9389 70.7671 27.8649 70.7671 27.7907C70.7622 25.1298 78.9626 22.9498 89.0481 22.931C99.1339 22.9125 107.343 25.0622 107.347 27.7234Z" fill="#FF901E"/>
<path d="M107.33 27.9448C106.893 30.5044 98.871 32.5648 89.0661 32.5828C88.8467 32.5831 88.6297 32.5822 88.4129 32.5805C86.2258 32.5642 84.1356 32.4464 82.2058 32.2432C80.2761 32.0399 78.5096 31.7522 76.9726 31.3969C76.5819 31.3067 76.2067 31.2125 75.8441 31.1135C74.2051 30.6634 72.8923 30.1297 72.0157 29.5374C71.8035 29.3959 71.6169 29.25 71.4585 29.1022C71.0801 28.7534 70.8524 28.3884 70.7851 28.0119C71.2219 25.4523 79.2439 23.3914 89.0488 23.3731C90.2892 23.3708 91.5013 23.4016 92.6755 23.4619C93.2726 23.4924 93.8623 23.5309 94.4391 23.5772C96.7949 23.7647 98.9495 24.0752 100.795 24.4805C101.193 24.5678 101.579 24.66 101.949 24.7571C103.387 25.1315 104.59 25.5691 105.491 26.0528C106.37 26.5246 106.963 27.0392 107.215 27.5821C107.271 27.7017 107.309 27.823 107.33 27.9448Z" fill="#FDB748"/>
<path opacity="0.2" d="M107.215 27.5826L88.4134 32.5805C86.2264 32.5642 84.1362 32.4463 82.2064 32.2431L105.492 26.0531C106.371 26.5252 106.964 27.0398 107.215 27.5826Z" fill="#FFEAA5"/>
<path opacity="0.2" d="M94.4393 23.5777L72.0159 29.538C71.8038 29.3965 71.6172 29.2506 71.4587 29.1028L92.6757 23.4627C93.2729 23.493 93.8623 23.5315 94.4393 23.5777Z" fill="#FFEAA5"/>
<path opacity="0.2" d="M101.949 24.7576L76.9723 31.3972C76.5816 31.307 76.2064 31.2128 75.8439 31.1138L100.795 24.4811C101.194 24.5684 101.579 24.6606 101.949 24.7576Z" fill="#FFEAA5"/>
<path d="M98.4091 25.7312L92.3473 25.7423C92.876 25.9558 93.3085 26.2127 93.5396 26.5186L98.4106 26.5098L98.4123 27.43L93.5816 27.4388C92.9959 28.331 90.6016 28.8159 88.7779 29.0137C88.2736 29.0691 87.7294 29.0951 87.1848 29.0959L84.7252 29.1005L94.453 31.6481L89.9041 31.6563L80.1759 29.1087L80.1742 28.1886L85.8525 28.178C87.6925 28.1746 89.2879 27.8723 89.9282 27.4451L80.7092 27.4622L80.7075 26.5423L89.921 26.5252C89.3328 26.0859 88.0447 25.8522 87.3312 25.7514L80.7061 25.7637L80.7044 24.8435L98.4071 24.8107L98.4091 25.7312Z" fill="#FF5E00"/>
<path d="M98.4089 25.5362L92.347 25.5473C92.8758 25.7608 93.3082 26.0177 93.5393 26.3236L98.4103 26.3148L98.412 27.2347L93.5813 27.2435C92.9956 28.1357 90.6013 28.6206 88.7776 28.8184C88.2733 28.8738 87.7291 28.8995 87.1845 28.9006L84.7249 28.9052L94.4527 31.4528L89.9038 31.4611L80.1759 28.9135L80.1742 27.9933L85.8525 27.9827C87.6925 27.9793 89.2879 27.6771 89.9282 27.2498L80.7092 27.2669L80.7075 26.347L89.921 26.3299C89.3328 25.8907 88.0447 25.6569 87.3312 25.5562L80.7061 25.5684L80.7044 24.6483L98.4071 24.6155L98.4089 25.5362Z" fill="#FF8400"/>
<path d="M103.412 20.4277L103.421 25.0396C103.421 25.0859 103.42 25.1338 103.418 25.1803C103.37 26.7564 102.432 28.1826 100.982 28.8388C98.9474 29.7586 96.5396 30.4739 93.9117 31.001C93.0963 31.1663 92.2608 31.313 91.4084 31.4414C89.5335 31.7228 87.5773 31.9198 85.5886 32.0362C84.8851 32.0776 84.1787 32.1084 83.4691 32.1299C80.8048 32.2089 78.1105 32.1521 75.4939 31.97C74.3217 31.8872 73.1651 31.7796 72.0335 31.6472C69.1302 31.3079 66.3992 30.8078 64.0091 30.1648C62.6371 29.7966 61.3772 29.3816 60.262 28.9218C59.7448 28.7095 59.2868 28.4029 58.9047 28.0282C58.1686 27.305 57.7124 26.3246 57.6606 25.2648C57.6557 25.1983 57.654 25.1318 57.654 25.0656L57.6454 20.5124L103.412 20.4277Z" fill="#FDB748"/>
<path d="M103.418 25.1804C103.37 26.7564 102.432 28.1826 100.982 28.8388C98.316 30.0444 95.012 30.8986 91.4083 31.4415C88.8722 31.8216 86.1863 32.0474 83.4688 32.1299C80.8044 32.2089 78.1102 32.1521 75.4936 31.97C74.3214 31.8873 73.1648 31.7797 72.0331 31.6472C69.1299 31.3079 66.3988 30.8078 64.0087 30.1648C62.6368 29.7966 61.3769 29.3816 60.2617 28.9218C59.7444 28.7095 59.2864 28.403 58.9043 28.0282C58.1683 27.305 57.712 26.3246 57.6603 25.2648C58.5699 25.6787 59.5279 26.0631 60.523 26.4153C62.2955 27.0424 64.1922 27.5735 66.1725 28.0085C68.8133 28.5893 71.603 28.9998 74.4439 29.2446C75.6253 29.346 76.8178 29.4179 78.0101 29.4621C80.7915 29.5652 83.5852 29.5121 86.2993 29.3094C89.2466 29.0877 92.1018 28.6869 94.7515 28.1104C98.0265 27.398 100.986 26.4193 103.418 25.1804Z" fill="#FF901E"/>
<path opacity="0.2" d="M73.7259 20.4824L66.1728 28.0085L64.0087 30.1648C62.6367 29.7966 61.3769 29.3816 60.2616 28.9218C59.7444 28.7095 59.2864 28.4029 58.9043 28.0282L60.523 26.4153L66.4635 20.4961L73.7259 20.4824Z" fill="#FFEAA5"/>
<path opacity="0.2" d="M103.413 20.4277L103.415 21.557L96.9307 28.0179L93.9121 31.0008C93.0967 31.166 92.2612 31.3127 91.4088 31.4411C89.5339 31.7226 87.5777 31.9195 85.589 32.0359L88.4785 29.2172L97.2869 20.4391L103.413 20.4277Z" fill="#FFEAA5"/>
<path opacity="0.2" d="M87.0455 20.4579L78.0102 29.4621L75.4937 31.9697C74.3215 31.887 73.1648 31.7794 72.0332 31.6469L74.4442 29.2446L83.2558 20.4648L87.0455 20.4579Z" fill="#FFEAA5"/>
<path d="M103.412 20.3535C103.419 23.688 93.1792 26.4103 80.5397 26.4337C67.9017 26.4571 57.6512 23.7728 57.6448 20.438C57.6445 20.3632 57.6491 20.2884 57.6615 20.2137C58.1005 16.9822 68.1625 14.3807 80.517 14.3579C92.8716 14.335 102.943 16.8995 103.394 20.1292C103.407 20.204 103.412 20.2787 103.412 20.3535Z" fill="#FFEAA5"/>
<path d="M98.8189 20.3618C98.8192 20.4357 98.8115 20.51 98.8014 20.5833C98.3647 23.1429 90.3426 25.2033 80.5377 25.2213C70.7331 25.2395 62.7032 23.2085 62.2567 20.6507C62.2464 20.5773 62.2386 20.5031 62.2383 20.4292C62.2334 17.768 70.4338 15.5883 80.5193 15.5695C90.6051 15.5512 98.8138 17.7009 98.8189 20.3618Z" fill="#FF901E"/>
<path d="M98.8016 20.5833C98.3649 23.1429 90.3428 25.2033 80.5379 25.2213C80.3185 25.2215 80.1014 25.2207 79.8846 25.219C77.6976 25.2027 75.6074 25.0848 73.6776 24.8816C71.7479 24.6784 69.9814 24.3907 68.4444 24.0354C68.0537 23.9452 67.6785 23.851 67.3159 23.752C65.6768 23.3019 64.3641 22.7681 63.4875 22.1759C63.2753 22.0344 63.0887 21.8885 62.9303 21.7407C62.5519 21.3919 62.3242 21.0266 62.2569 20.6504C62.6936 18.0908 70.7157 16.0298 80.5206 16.0116C81.7609 16.0093 82.9731 16.0401 84.1473 16.1003C84.7444 16.1309 85.3341 16.1694 85.9108 16.2156C88.2667 16.4032 90.4213 16.7137 92.2671 17.119C92.6653 17.2063 93.0508 17.2988 93.4211 17.3955C94.8587 17.77 96.0613 18.2075 96.9632 18.6913C97.8419 19.1631 98.435 19.6777 98.6863 20.2206C98.7424 20.3404 98.7809 20.4617 98.8016 20.5833Z" fill="#FDB748"/>
<path opacity="0.2" d="M98.6857 20.2214L79.8841 25.2192C77.697 25.203 75.6068 25.0851 73.6771 24.8819L96.9627 18.6919C97.8416 19.1636 98.4347 19.6785 98.6857 20.2214Z" fill="#FFEAA5"/>
<path opacity="0.2" d="M85.9105 16.2165L63.4871 22.1768C63.275 22.0352 63.0884 21.8894 62.9299 21.7415L84.1469 16.1015C84.7441 16.1317 85.3338 16.1703 85.9105 16.2165Z" fill="#FFEAA5"/>
<path opacity="0.2" d="M93.4209 17.3964L68.4441 24.0359C68.0534 23.9457 67.6782 23.8515 67.3156 23.7525L92.2668 17.1198C92.665 17.2071 93.0505 17.2993 93.4209 17.3964Z" fill="#FFEAA5"/>
<path d="M89.8819 18.3696L83.8201 18.3807C84.3488 18.5942 84.7812 18.8511 85.0124 19.1571L89.8834 19.1482L89.8851 20.0681L85.0544 20.077C84.4687 20.9692 82.0743 21.4541 80.2507 21.6519C79.7464 21.7072 79.2021 21.7332 78.6576 21.7341L76.198 21.7386L85.9261 24.2862L81.3768 24.2945L71.649 21.7469L71.6473 20.8267L77.3256 20.8162C79.1656 20.8128 80.761 20.5105 81.4013 20.0832L72.1823 20.1004L72.1806 19.1805L81.3941 19.1634C80.8059 18.7241 79.5178 18.4903 78.8042 18.3896L72.1791 18.4019L72.1774 17.482L89.8802 17.4492L89.8819 18.3696Z" fill="#FF5E00"/>
<path d="M89.8811 18.1747L83.8193 18.1858C84.348 18.3993 84.7804 18.6562 85.0116 18.9622L89.8825 18.9533L89.8843 19.8732L85.0535 19.882C84.4679 20.7742 82.0735 21.2592 80.2498 21.4572C79.7456 21.5126 79.2013 21.5386 78.6568 21.5394L76.1971 21.544L85.925 24.0916L81.3757 24.1002L71.6479 21.5526L71.6461 20.6327L77.3244 20.6221C79.1645 20.6187 80.7599 20.3164 81.4002 19.8892L72.1812 19.9063L72.1795 18.9864L81.393 18.9693C80.8047 18.5303 79.5167 18.2963 78.8031 18.1955L72.178 18.2078L72.1763 17.2876L89.8791 17.2548L89.8811 18.1747Z" fill="#FF8400"/>
<path d="M108.682 13.4606L108.691 18.0726C108.691 18.1189 108.69 18.1668 108.688 18.2133C108.64 19.7894 107.702 21.2156 106.252 21.8717C104.217 22.7916 101.81 23.5069 99.1817 24.034C98.3664 24.1993 97.5309 24.346 96.6784 24.4744C94.8036 24.7561 92.8474 24.9528 90.8587 25.0692C90.1551 25.1106 89.4487 25.1414 88.7391 25.1628C86.0748 25.2419 83.3806 25.1851 80.7639 25.003C79.5918 24.9202 78.4351 24.8126 77.3035 24.6802C74.4002 24.3411 71.6692 23.8408 69.2791 23.1978C67.9071 22.8296 66.6473 22.4146 65.532 21.9548C65.0148 21.7425 64.5568 21.4359 64.1747 21.0612C63.4387 20.3379 62.9824 19.3575 62.9306 18.2978C62.9257 18.2313 62.924 18.1651 62.924 18.0986L62.9154 13.5454L108.682 13.4606Z" fill="#FDB748"/>
<path d="M108.689 18.2133C108.641 19.7893 107.704 21.2155 106.253 21.8717C103.587 23.0773 100.283 23.9315 96.6797 24.4741C94.1436 24.8543 91.4577 25.08 88.7401 25.1625C86.0758 25.2416 83.3815 25.1848 80.7649 25.0027C79.5927 24.9199 78.4361 24.8123 77.3045 24.6799C74.4012 24.3408 71.6702 23.8405 69.2801 23.1974C67.9081 22.8293 66.6482 22.4143 65.533 21.9545C65.0158 21.7421 64.5578 21.4356 64.1757 21.0608C63.4396 20.3376 62.9834 19.3572 62.9316 18.2975C63.8413 18.7113 64.7993 19.0958 65.7943 19.448C67.5665 20.075 69.4635 20.6062 71.4439 21.0414C74.0846 21.6222 76.8743 22.0327 79.7152 22.2776C80.8966 22.3789 82.0892 22.4508 83.2815 22.495C86.0628 22.5981 88.8566 22.545 91.5706 22.3423C94.5179 22.1206 97.3731 21.7199 100.023 21.1433C103.298 20.4312 106.257 19.4523 108.689 18.2133Z" fill="#FF901E"/>
<path opacity="0.2" d="M78.9956 13.5154L71.4424 21.0415L69.2783 23.1978C67.9064 22.8296 66.6465 22.4146 65.5312 21.9548C65.014 21.7424 64.556 21.4359 64.1739 21.0612L65.7926 19.4483L71.7331 13.5291L78.9956 13.5154Z" fill="#FFEAA5"/>
<path opacity="0.2" d="M108.682 13.4606L108.684 14.59L102.2 21.0509L99.1812 24.0337C98.3658 24.199 97.5303 24.3457 96.6779 24.4741C94.803 24.7558 92.8468 24.9525 90.8581 25.0689L93.7478 22.2502L102.556 13.4721L108.682 13.4606Z" fill="#FFEAA5"/>
<path opacity="0.2" d="M92.3151 13.4909L83.2799 22.4951L80.7633 25.0027C79.5911 24.92 78.4345 24.8124 77.3028 24.6799L79.7139 22.2776L88.5255 13.4978L92.3151 13.4909Z" fill="#FFEAA5"/>
<path d="M108.682 13.3864C108.688 16.7209 98.4492 19.4432 85.8097 19.4666C73.1717 19.49 62.9209 16.8054 62.9148 13.4709C62.9146 13.3961 62.9191 13.3214 62.9315 13.2466C63.3705 10.0151 73.4325 7.41361 85.7873 7.39078C98.1418 7.36794 108.214 9.93237 108.665 13.1621C108.677 13.2369 108.682 13.3117 108.682 13.3864Z" fill="#FFEAA5"/>
<path d="M104.089 13.3947C104.089 13.4687 104.081 13.5429 104.071 13.6162C103.634 16.1758 95.6123 18.2362 85.8074 18.2542C76.0028 18.2722 67.973 16.2414 67.5265 13.6836C67.5161 13.6102 67.5083 13.536 67.5083 13.4621C67.5035 10.8009 75.7038 8.62122 85.7893 8.60238C95.8751 8.58411 104.084 10.7338 104.089 13.3947Z" fill="#FF901E"/>
<path d="M104.071 13.6165C103.634 16.1761 95.6122 18.2365 85.8073 18.2545C85.5879 18.2548 85.3709 18.2539 85.1541 18.2522C82.967 18.2359 80.8765 18.118 78.9471 17.9148C77.0173 17.7116 75.2509 17.4239 73.7138 17.0686C73.3234 16.9784 72.9479 16.8842 72.5854 16.7852C70.9463 16.3351 69.6335 15.8013 68.7569 15.2091C68.5447 15.0676 68.3581 14.9217 68.1997 14.7739C67.8213 14.4251 67.5936 14.0598 67.5264 13.6836C67.9631 11.124 75.9852 9.06304 85.7901 9.04477C87.0304 9.04249 88.2425 9.07332 89.4167 9.13354C90.0139 9.16408 90.6035 9.20261 91.1803 9.24884C93.5361 9.43636 95.6907 9.74689 97.5365 10.1522C97.9347 10.2398 98.3203 10.332 98.6906 10.4287C100.128 10.8032 101.331 11.2407 102.233 11.7245C103.111 12.1963 103.704 12.7109 103.956 13.2538C104.012 13.3733 104.051 13.4946 104.071 13.6165Z" fill="#FDB748"/>
<path opacity="0.2" d="M103.956 13.2543L85.1547 18.2522C82.9676 18.2359 80.8771 18.118 78.9476 17.9148L102.233 11.7248C103.112 12.1968 103.705 12.7114 103.956 13.2543Z" fill="#FFEAA5"/>
<path opacity="0.2" d="M91.1805 9.24941L68.7571 15.2094C68.545 15.0678 68.3584 14.922 68.2 14.7741L89.417 9.13411C90.0141 9.16465 90.6035 9.20318 91.1805 9.24941Z" fill="#FFEAA5"/>
<path opacity="0.2" d="M98.6903 10.4293L73.7136 17.0688C73.3231 16.9787 72.9476 16.8845 72.5851 16.7854L97.5362 10.1527C97.9347 10.2401 98.3203 10.3322 98.6903 10.4293Z" fill="#FFEAA5"/>
<path d="M95.1503 11.4029L89.0885 11.414C89.6172 11.6275 90.0496 11.8844 90.2808 12.1904L95.1518 12.1815L95.1535 13.1014L90.3228 13.1102C89.7371 14.0024 87.3427 14.4874 85.5191 14.6851C85.0148 14.7405 84.4705 14.7665 83.926 14.7674L81.4663 14.7719L91.1942 17.3195L86.6452 17.3278L76.9171 14.7802L76.9154 13.86L82.5937 13.8495C84.4337 13.846 86.0291 13.5438 86.6694 13.1165L77.4504 13.1337L77.4487 12.2138L86.6622 12.1966C86.074 11.7574 84.7859 11.5236 84.0723 11.4229L77.4473 11.4352L77.4455 10.5153L95.1483 10.4825L95.1503 11.4029Z" fill="#FF5E00"/>
<path d="M95.15 11.2079L89.0882 11.219C89.6169 11.4325 90.0493 11.6894 90.2805 11.9954L95.1515 11.9862L95.1532 12.9061L90.3225 12.915C89.7368 13.8072 87.3424 14.2921 85.5188 14.4902C85.0145 14.5455 84.4702 14.5715 83.9257 14.5724L81.4661 14.5769L91.1942 17.1245L86.645 17.1328L76.9171 14.5852L76.9154 13.6653L82.5937 13.6548C84.4337 13.6513 86.0291 13.3491 86.6694 12.9218L77.4504 12.9389L77.4487 12.0191L86.6622 12.0019C86.074 11.563 84.7859 11.3289 84.0723 11.2282L77.4473 11.2404L77.4455 10.3206L95.1483 10.2877L95.15 11.2079Z" fill="#FF8400"/>
<path d="M108.767 13.07L108.776 17.682C108.776 17.7282 108.775 17.7762 108.773 17.8227C108.725 19.3988 107.787 20.825 106.337 21.4811C104.302 22.401 101.895 23.1163 99.2667 23.6434C98.4513 23.8087 97.6158 23.9554 96.7634 24.0838C94.8885 24.3655 92.9323 24.5621 90.9436 24.6786C90.2401 24.72 89.5337 24.7508 88.8241 24.7722C86.1598 24.8513 83.4655 24.7945 80.8489 24.6124C79.6767 24.5296 78.5201 24.422 77.3884 24.2896C74.4852 23.9505 71.7541 23.4502 69.3641 22.8072C67.9921 22.439 66.7322 22.024 65.617 21.5642C65.0997 21.3518 64.6417 21.0453 64.2596 20.6706C63.5236 19.9473 63.0673 18.9669 63.0156 17.9072C63.0107 17.8407 63.009 17.7745 63.009 17.708L63.0003 13.1548L108.767 13.07Z" fill="#FDB748"/>
<path d="M108.774 17.8227C108.726 19.3987 107.789 20.8249 106.338 21.4811C103.672 22.6866 100.368 23.5409 96.7646 24.0835C94.2285 24.4636 91.5426 24.6894 88.8251 24.7719C86.1607 24.8509 83.4665 24.7941 80.8499 24.612C79.6777 24.5293 78.521 24.4217 77.3894 24.2892C74.4861 23.9502 71.7551 23.4498 69.3651 22.8068C67.9931 22.4386 66.7332 22.0236 65.6179 21.5638C65.1007 21.3515 64.6427 21.045 64.2606 20.6702C63.5246 19.947 63.0683 18.9666 63.0166 17.9069C63.9262 18.3207 64.8842 18.7051 65.8793 19.0573C67.6515 19.6844 69.5485 20.2156 71.5288 20.6508C74.1696 21.2316 76.9593 21.642 79.8002 21.8869C80.9816 21.9883 82.1741 22.0602 83.3664 22.1044C86.1478 22.2074 88.9415 22.1544 91.6556 21.9517C94.6029 21.73 97.4581 21.3292 100.108 20.7527C103.383 20.0406 106.342 19.0616 108.774 17.8227Z" fill="#FF901E"/>
<path opacity="0.2" d="M79.0805 13.1248L71.5274 20.6508L69.3633 22.8071C67.9913 22.439 66.7314 22.024 65.6162 21.5642C65.099 21.3518 64.641 21.0453 64.2589 20.6705L65.8776 19.0577L71.8181 13.1385L79.0805 13.1248Z" fill="#FFEAA5"/>
<path opacity="0.2" d="M108.767 13.07L108.769 14.1994L102.285 20.6603L99.2662 23.6431C98.4508 23.8084 97.6153 23.9551 96.7628 24.0835C94.888 24.3652 92.9318 24.5619 90.9431 24.6783L93.8328 21.8596L102.641 13.0814L108.767 13.07Z" fill="#FFEAA5"/>
<path opacity="0.2" d="M92.4001 13.1003L83.3648 22.1045L80.8483 24.6121C79.6761 24.5293 78.5194 24.4217 77.3878 24.2893L79.7988 21.887L88.6104 13.1071L92.4001 13.1003Z" fill="#FFEAA5"/>
<path d="M108.767 12.9958C108.773 16.3303 98.5342 19.0526 85.8947 19.076C73.2567 19.0994 63.0058 16.4148 62.9998 13.0803C62.9995 13.0055 63.0041 12.9307 63.0165 12.856C63.4555 9.62452 73.5174 7.02298 85.8723 7.00015C98.2268 6.97732 108.299 9.54175 108.75 12.7715C108.762 12.8463 108.767 12.921 108.767 12.9958Z" fill="#FFEAA5"/>
<path d="M104.174 13.0041C104.174 13.078 104.166 13.1522 104.156 13.2256C103.719 15.7852 95.6973 17.8456 85.8924 17.8636C76.0878 17.8815 68.0579 15.8508 67.6114 13.293C67.6011 13.2196 67.5933 13.1454 67.5933 13.0715C67.5884 10.4103 75.7887 8.23059 85.8743 8.21175C95.9601 8.19349 104.169 10.3432 104.174 13.0041Z" fill="#FF901E"/>
<path d="M104.156 13.2259C103.719 15.7855 95.6972 17.8459 85.8923 17.8638C85.6729 17.8641 85.4558 17.8633 85.2391 17.8616C83.052 17.8453 80.9615 17.7274 79.032 17.5242C77.1023 17.321 75.3358 17.0333 73.7988 16.678C73.4084 16.5878 73.0329 16.4936 72.6703 16.3945C71.0312 15.9444 69.7185 15.4107 68.8419 14.8185C68.6297 14.6769 68.4431 14.5311 68.2847 14.3832C67.9063 14.0345 67.6786 13.6691 67.6113 13.293C68.0481 10.7334 76.0701 8.67241 85.875 8.65415C87.1153 8.65186 88.3275 8.68269 89.5017 8.74291C90.0988 8.77345 90.6885 8.81198 91.2652 8.85822C93.6211 9.04573 95.7757 9.35626 97.6215 9.76155C98.0197 9.84917 98.4052 9.94136 98.7755 10.0381C100.213 10.4126 101.416 10.8501 102.318 11.3339C103.196 11.8057 103.789 12.3203 104.041 12.8631C104.097 12.9827 104.136 13.104 104.156 13.2259Z" fill="#FDB748"/>
<path opacity="0.2" d="M104.041 12.8637L85.2396 17.8615C83.0525 17.8453 80.9621 17.7274 79.0326 17.5242L102.318 11.3342C103.197 11.8062 103.79 12.3208 104.041 12.8637Z" fill="#FFEAA5"/>
<path opacity="0.2" d="M91.2655 8.85879L68.8421 14.8188C68.6299 14.6772 68.4433 14.5314 68.2849 14.3835L89.5019 8.74348C90.0991 8.77402 90.6885 8.81255 91.2655 8.85879Z" fill="#FFEAA5"/>
<path opacity="0.2" d="M98.7753 10.0387L73.7985 16.6782C73.4081 16.588 73.0326 16.4938 72.6701 16.3948L97.6212 9.7621C98.0197 9.84944 98.4052 9.94162 98.7753 10.0387Z" fill="#FFEAA5"/>
<path d="M95.2353 11.0123L89.1734 11.0234C89.7022 11.2369 90.1346 11.4938 90.3657 11.7997L95.2367 11.7909L95.2384 12.7108L90.4077 12.7196C89.8221 13.6118 87.4277 14.0967 85.604 14.2945C85.0997 14.3499 84.5555 14.3759 84.0109 14.3767L81.5513 14.3813L91.2792 16.9289L86.7302 16.9372L77.002 14.3896L77.0003 13.4694L82.6786 13.4588C84.5187 13.4554 86.1141 13.1532 86.7543 12.7259L77.5354 12.743L77.5337 11.8231L86.7472 11.806C86.1589 11.3668 84.8709 11.133 84.1573 11.0323L77.5322 11.0445L77.5305 10.1246L95.2333 10.0918L95.2353 11.0123Z" fill="#FF5E00"/>
<path d="M95.235 10.8173L89.1732 10.8284C89.7019 11.0419 90.1343 11.2988 90.3655 11.6047L95.2364 11.5956L95.2382 12.5155L90.4074 12.5243C89.8218 13.4165 87.4274 13.9015 85.6037 14.0995C85.0994 14.1549 84.5552 14.1809 84.0107 14.1817L81.551 14.1863L91.2792 16.7339L86.7299 16.7422L77.002 14.1946L77.0003 13.2747L82.6786 13.2641C84.5187 13.2607 86.1141 12.9585 86.7543 12.5312L77.5354 12.5483L77.5337 11.6284L86.7472 11.6113C86.1589 11.1723 84.8709 10.9383 84.1573 10.8376L77.5322 10.8498L77.5305 9.92994L95.2333 9.89712L95.235 10.8173Z" fill="#FF8400"/>
<path d="M115.134 6.07001L115.142 10.682C115.142 10.7282 115.141 10.7762 115.14 10.8227C115.091 12.3988 114.154 13.825 112.703 14.4811C110.669 15.401 108.261 16.1163 105.633 16.6434C104.818 16.8087 103.982 16.9554 103.13 17.0838C101.255 17.3652 99.2987 17.5622 97.31 17.6786C96.6064 17.72 95.9 17.7508 95.1905 17.7722C92.5261 17.8513 89.8319 17.7945 87.2152 17.6124C86.0431 17.5296 84.8864 17.422 83.7548 17.2896C80.8515 16.9502 78.1205 16.4502 75.7304 15.8071C74.3584 15.439 73.0986 15.024 71.9833 14.5642C71.4661 14.3518 71.0081 14.0453 70.626 13.6706C69.89 12.9473 69.4337 11.9669 69.3819 10.9072C69.3771 10.8407 69.3753 10.7745 69.3753 10.708L69.3667 6.15478L115.134 6.07001Z" fill="#FDB748"/>
<path d="M115.14 10.8228C115.092 12.3988 114.154 13.825 112.703 14.4812C110.038 15.6865 106.734 16.541 103.13 17.0839C100.594 17.4641 97.9081 17.6898 95.1906 17.7723C92.5262 17.8514 89.832 17.7946 87.2154 17.6125C86.0432 17.5297 84.8866 17.4221 83.7549 17.2897C80.8517 16.9503 78.1206 16.4503 75.7306 15.8072C74.3586 15.4391 73.0987 15.0241 71.9834 14.5643C71.4662 14.3519 71.0082 14.0454 70.6261 13.6706C69.8901 12.9474 69.4338 11.967 69.3821 10.9073C70.2918 11.3211 71.2497 11.7059 72.2448 12.0578C74.017 12.6848 75.914 13.216 77.8943 13.6509C80.5351 14.2318 83.3248 14.6422 86.166 14.8871C87.3473 14.9884 88.5399 15.0603 89.7322 15.1046C92.5136 15.2076 95.3073 15.1545 98.0214 14.9519C100.969 14.7301 103.824 14.3294 106.474 13.7528C109.748 13.0404 112.708 12.0618 115.14 10.8228Z" fill="#FF901E"/>
<path opacity="0.2" d="M85.4473 6.12481L77.8942 13.6509L75.7301 15.8071C74.3581 15.439 73.0982 15.024 71.983 14.5642C71.4658 14.3518 71.0078 14.0453 70.6257 13.6705L72.2443 12.0577L78.1848 6.13851L85.4473 6.12481Z" fill="#FFEAA5"/>
<path opacity="0.2" d="M115.134 6.07001L115.136 7.19939L108.651 13.6603L105.633 16.6431C104.818 16.8084 103.982 16.9551 103.13 17.0835C101.255 17.3649 99.2985 17.5619 97.3098 17.6783L100.2 14.8596L109.008 6.08143L115.134 6.07001Z" fill="#FFEAA5"/>
<path opacity="0.2" d="M98.7668 6.10027L89.7316 15.1045L87.215 17.6121C86.0429 17.5293 84.8862 17.4217 83.7546 17.2893L86.1656 14.887L94.9769 6.10712L98.7668 6.10027Z" fill="#FFEAA5"/>
<path d="M115.133 5.99581C115.14 9.33029 104.901 12.0526 92.2611 12.076C79.623 12.0994 69.3722 9.41477 69.3662 6.08029C69.3659 6.00551 69.3705 5.93074 69.3828 5.85596C69.8219 2.62452 79.8838 0.0229843 92.2383 0.000151294C104.593 -0.0226817 114.665 2.54175 115.116 5.77148C115.128 5.84625 115.133 5.92104 115.133 5.99581Z" fill="#FFEAA5"/>
<path d="M110.54 6.00412C110.54 6.07832 110.532 6.15225 110.522 6.2256C110.085 8.78518 102.063 10.8456 92.2585 10.8636C82.4538 10.8818 74.424 8.85082 73.9775 6.29296C73.9671 6.21961 73.9594 6.1454 73.9591 6.07148C73.9542 3.41029 82.1545 1.23059 92.2401 1.21175C102.326 1.19349 110.535 3.34322 110.54 6.00412Z" fill="#FF901E"/>
<path d="M110.522 6.22589C110.086 8.78547 102.064 10.8459 92.2586 10.8638C92.0393 10.8641 91.8222 10.8633 91.6054 10.8616C89.4183 10.8453 87.3279 10.7274 85.3984 10.5242C83.4686 10.321 81.7022 10.0333 80.1652 9.67795C79.7747 9.58776 79.3992 9.49357 79.0367 9.39454C77.3976 8.94444 76.0848 8.41072 75.2082 7.81849C74.996 7.67693 74.8094 7.53108 74.651 7.38323C74.2727 7.03446 74.045 6.66942 73.9777 6.29296C74.4144 3.73338 82.4365 1.67241 92.2414 1.65415C93.4817 1.65186 94.6938 1.68269 95.868 1.7432C96.4652 1.77373 97.0549 1.81227 97.6316 1.8585C99.9875 2.04602 102.142 2.35655 103.988 2.76183C104.386 2.84917 104.772 2.94165 105.142 3.0384C106.579 3.41286 107.782 3.8504 108.684 4.33417C109.563 4.80596 110.156 5.32056 110.407 5.86341C110.463 5.98272 110.502 6.10402 110.522 6.22589Z" fill="#FDB748"/>
<path opacity="0.2" d="M110.407 5.86368L91.606 10.8615C89.4189 10.8453 87.3284 10.7274 85.399 10.5242L108.685 4.33415C109.563 4.80622 110.156 5.32082 110.407 5.86368Z" fill="#FFEAA5"/>
<path opacity="0.2" d="M97.6319 1.85879L75.2085 7.81877C74.9963 7.67721 74.8097 7.53137 74.6513 7.38352L95.8683 1.74348C96.4654 1.77402 97.0551 1.81255 97.6319 1.85879Z" fill="#FFEAA5"/>
<path opacity="0.2" d="M105.142 3.03866L80.1654 9.67822C79.775 9.58803 79.3995 9.49384 79.037 9.3948L103.988 2.7621C104.386 2.84944 104.772 2.94162 105.142 3.03866Z" fill="#FFEAA5"/>
<path d="M93.9284 5.64676V3.78514C95.0565 3.9452 95.8225 4.25412 95.8225 4.60825C95.8225 4.85806 96.6099 5.06056 97.5811 5.06056C98.5524 5.06056 99.3397 4.85806 99.3397 4.60825C99.3397 3.74745 97.0344 3.02267 93.9284 2.82048V2.45231C93.9284 2.20251 93.1411 2 92.1698 2C91.1986 2 90.4112 2.20251 90.4112 2.45231V2.82045C87.3053 3.02267 84.9999 3.74743 84.9999 4.60823C84.9999 5.1222 85.5869 5.52301 86.7942 5.83354C87.6745 6.05995 88.8438 6.2275 90.4112 6.35032V8.21486C89.2832 8.0548 88.5171 7.74591 88.5171 7.39177C88.5171 7.14197 87.7298 6.93946 86.7585 6.93946C85.7873 6.93946 84.9999 7.14197 84.9999 7.39177C84.9999 8.25257 87.3053 8.97733 90.4112 9.17955V9.54769C90.4112 9.7975 91.1986 10 92.1698 10C93.1411 10 93.9284 9.7975 93.9284 9.54769V9.17955C97.0344 8.97733 99.3397 8.25259 99.3397 7.39177C99.3397 6.88492 98.7276 6.47052 97.5206 6.16006C96.6433 5.9344 95.4594 5.76524 93.9284 5.64676ZM89.2813 5.19389C88.9255 5.10241 88.5172 4.95314 88.5172 4.60823C88.5172 4.25409 89.2833 3.9452 90.4113 3.78512V5.38633C89.937 5.32983 89.5614 5.26596 89.2813 5.19389ZM93.9284 8.21486V6.6087C95.4569 6.79177 95.8225 7.05367 95.8225 7.39177C95.8225 7.74591 95.0565 8.0548 93.9284 8.21486Z" fill="#FF5E00"/>
<path d="M94.2761 5.64676V3.78514C95.4041 3.9452 96.1702 4.25412 96.1702 4.60825C96.1702 4.85806 96.9575 5.06056 97.9288 5.06056C98.9 5.06056 99.6874 4.85806 99.6874 4.60825C99.6874 3.74745 97.382 3.02267 94.2761 2.82048V2.45231C94.2761 2.20251 93.4887 2 92.5175 2C91.5462 2 90.7589 2.20251 90.7589 2.45231V2.82045C87.6529 3.02267 85.3476 3.74743 85.3476 4.60823C85.3476 5.1222 85.9345 5.52301 87.1419 5.83354C88.0222 6.05995 89.1915 6.2275 90.7589 6.35032V8.21486C89.6308 8.0548 88.8648 7.74591 88.8648 7.39177C88.8648 7.14197 88.0775 6.93946 87.1062 6.93946C86.1349 6.93946 85.3476 7.14197 85.3476 7.39177C85.3476 8.25257 87.6529 8.97733 90.7589 9.17955V9.54769C90.7589 9.7975 91.5462 10 92.5175 10C93.4887 10 94.2761 9.7975 94.2761 9.54769V9.17955C97.382 8.97733 99.6874 8.25259 99.6874 7.39177C99.6874 6.88492 99.0753 6.47052 97.8682 6.16006C96.9909 5.9344 95.807 5.76524 94.2761 5.64676ZM89.6289 5.19389C89.2731 5.10241 88.8648 4.95314 88.8648 4.60823C88.8648 4.25409 89.6308 3.9452 90.7589 3.78512V5.38633C90.2846 5.32983 89.9091 5.26596 89.6289 5.19389ZM94.2761 8.21486V6.6087C95.8045 6.79177 96.1702 7.05367 96.1702 7.39177C96.1701 7.74591 95.4041 8.0548 94.2761 8.21486Z" fill="#FF8400"/>
<path d="M55.7292 53.2045V57.9997C55.7292 58.0479 55.7275 58.0976 55.7261 58.1458C55.6726 59.7844 54.6954 61.2657 53.1854 61.9452C51.0687 62.898 48.5637 63.6369 45.8303 64.1797C44.9825 64.3501 44.1133 64.5011 43.2266 64.6327C41.2765 64.9218 39.2423 65.1227 37.1743 65.2401C36.4429 65.2817 35.708 65.3123 34.9702 65.3331C32.1998 65.4102 29.3986 65.3459 26.6782 65.1516C25.4597 65.0631 24.2574 64.9492 23.0809 64.8094C20.0629 64.4512 17.2243 63.9257 14.7403 63.2527C13.3145 62.8671 12.0055 62.4333 10.8465 61.9532C10.3092 61.7315 9.83365 61.4118 9.43717 61.0214C8.67326 60.2679 8.20088 59.2478 8.14913 58.1458C8.14424 58.0768 8.14252 58.0077 8.14252 57.9386V53.2042H55.7292V53.2045Z" fill="#FDB748"/>
<path d="M55.7262 58.1461C55.6727 59.7846 54.6955 61.2659 53.1855 61.9455C50.4116 63.1939 46.9744 64.0758 43.2265 64.6332C40.5886 65.0237 37.7954 65.2534 34.9701 65.3336C32.1996 65.4107 29.3984 65.3465 26.678 65.1521C25.4596 65.0636 24.2572 64.9498 23.0807 64.8099C20.0627 64.4517 17.2242 63.9263 14.7401 63.2533C13.3143 62.8677 12.0053 62.4338 10.8464 61.9538C10.309 61.732 9.83346 61.4123 9.43699 61.0219C8.67308 60.2684 8.2007 59.2484 8.14895 58.1464C9.09399 58.5785 10.0893 58.9801 11.1232 59.348C12.9647 60.0036 14.9359 60.5593 16.9944 61.0153C19.739 61.6241 22.6391 62.0562 25.5924 62.3165C26.8206 62.4241 28.0604 62.5012 29.2998 62.5494C32.1916 62.6619 35.0966 62.6122 37.9188 62.4064C40.9839 62.1815 43.9533 61.7703 46.7093 61.176C50.1157 60.4417 53.1953 59.4296 55.7262 58.1461Z" fill="#FF901E"/>
<path opacity="0.2" d="M24.8618 53.2045L16.9935 61.0151L14.7392 63.253C13.3134 62.8674 12.0044 62.4336 10.8455 61.9535C10.3081 61.7317 9.83256 61.4121 9.43608 61.0216L11.1223 59.3477L17.3107 53.2045H24.8618Z" fill="#FFEAA5"/>
<path opacity="0.2" d="M55.729 53.2045V54.379L48.9743 61.0844L45.8301 64.18C44.9822 64.3504 44.1131 64.5014 43.2264 64.633C41.2762 64.9221 39.2421 65.123 37.174 65.2403L40.184 62.3148L49.3595 53.2045H55.729Z" fill="#FFEAA5"/>
<path opacity="0.2" d="M38.711 53.2045L29.2991 62.5495L26.6776 65.1519C25.4592 65.0634 24.2568 64.9495 23.0803 64.8096L25.592 62.3163L34.771 53.2042H38.711V53.2045Z" fill="#FFEAA5"/>
<path d="M55.7293 53.1271C55.7293 56.5943 45.0776 59.4051 31.9356 59.4051C18.795 59.4051 8.14196 56.5943 8.14196 53.1271C8.14196 53.0495 8.14685 52.9716 8.15978 52.8939C8.62267 49.5349 19.0897 46.8492 31.9356 46.8492C44.7815 46.8492 55.2485 49.5349 55.7114 52.8939C55.7244 52.9718 55.7293 53.0495 55.7293 53.1271Z" fill="#FFEAA5"/>
<path d="M50.9528 53.1271C50.9528 53.2042 50.9447 53.2812 50.9341 53.3574C50.4749 56.0178 42.13 58.1449 31.9352 58.1449C21.7404 58.1449 13.3955 56.018 12.9364 53.3574C12.9257 53.2812 12.918 53.2042 12.918 53.1271C12.918 50.3603 21.4489 48.1093 31.9352 48.1093C42.4215 48.1093 50.9528 50.3603 50.9528 53.1271Z" fill="#FF901E"/>
<path d="M50.9345 53.3575C50.4754 56.0178 42.1305 58.145 31.9357 58.145C31.7074 58.145 31.482 58.1436 31.2563 58.1416C28.9824 58.1204 26.8091 57.9937 24.8032 57.7788C22.7972 57.5639 20.9609 57.2613 19.3635 56.8889C18.9575 56.7944 18.5674 56.6957 18.1907 56.5921C16.4873 56.1208 15.1233 55.5637 14.2134 54.9461C13.9931 54.7985 13.7993 54.6464 13.6349 54.4926C13.2421 54.1292 13.0061 53.7491 12.9371 53.3578C13.3963 50.6974 21.7412 48.5697 31.936 48.5697C33.2254 48.5697 34.4859 48.6039 35.7066 48.669C36.3277 48.7018 36.9406 48.7432 37.5401 48.7923C39.9891 48.9918 42.2288 49.3189 44.147 49.7439C44.5611 49.8355 44.9616 49.9322 45.3465 50.0338C46.8404 50.426 48.0902 50.883 49.0269 51.3878C49.9398 51.8799 50.5553 52.4162 50.8152 52.9813C50.8733 53.1049 50.9133 53.2308 50.9345 53.3575Z" fill="#FDB748"/>
<path opacity="0.2" d="M50.8148 52.9809L31.2559 58.1415C28.982 58.1204 26.8087 57.9936 24.8027 57.7787L49.0262 51.3875C49.9394 51.8795 50.5549 52.4158 50.8148 52.9809Z" fill="#FFEAA5"/>
<path opacity="0.2" d="M37.5396 48.7919L14.2128 54.946C13.9926 54.7984 13.7988 54.6463 13.6344 54.4925L35.7058 48.6689C36.3268 48.7017 36.9398 48.7431 37.5396 48.7919Z" fill="#FFEAA5"/>
<path opacity="0.2" d="M45.3462 50.0333L19.3634 56.8889C18.9575 56.7944 18.5673 56.6957 18.1907 56.592L44.147 49.7436C44.5607 49.8352 44.9615 49.932 45.3462 50.0333Z" fill="#FFEAA5"/>
<path d="M41.6645 51.0387H35.3615C35.9109 51.2616 36.36 51.5296 36.5998 51.8481H41.6645V52.8048H36.6417C36.0311 53.7313 33.5404 54.231 31.644 54.4334C31.1195 54.4902 30.5534 54.5159 29.9873 54.5159H27.4299L37.5399 57.1833H32.8098L22.7001 54.5159V53.5591H28.6041C30.5172 53.5591 32.1767 53.2478 32.8432 52.8048H23.2576V51.8481H32.8374C32.2267 51.3903 30.8878 51.1446 30.146 51.0387H23.2573V50.082H41.6642V51.0387H41.6645Z" fill="#FF5E00"/>
<path d="M41.6645 50.8361H35.3615C35.9109 51.059 36.36 51.327 36.5998 51.6455H41.6645V52.6022H36.6417C36.0311 53.5286 33.5404 54.0284 31.644 54.2308C31.1195 54.2873 30.5534 54.3133 29.9873 54.3133H27.4299L37.5399 56.9807H32.8098L22.7001 54.3133V53.3565H28.6041C30.5172 53.3565 32.1767 53.0454 32.8432 52.6022H23.2576V51.6455H32.8374C32.2267 51.1877 30.8878 50.942 30.146 50.8361H23.2573V49.8794H41.6642V50.8361H41.6645Z" fill="#FF8400"/>
<path d="M55.7292 45.9688V50.7643C55.7292 50.8125 55.7275 50.8622 55.7261 50.9105C55.6726 52.549 54.6954 54.0303 53.1854 54.7099C51.0687 55.6626 48.5637 56.4015 45.8303 56.9444C44.9825 57.1147 44.1133 57.2657 43.2266 57.3973C41.2765 57.6864 39.2423 57.8874 37.1743 58.0047C36.4429 58.0463 35.708 58.0769 34.9702 58.098C32.1998 58.1751 29.3986 58.1108 26.6782 57.9165C25.4597 57.8283 24.2574 57.7141 23.0809 57.5743C20.0629 57.2161 17.2243 56.6906 14.7403 56.0176C13.3145 55.632 12.0055 55.1982 10.8465 54.7179C10.3092 54.4961 9.83365 54.1764 9.43717 53.786C8.67326 53.0325 8.20088 52.0124 8.14913 50.9105C8.14424 50.8414 8.14252 50.7723 8.14252 50.7032V45.9688H55.7292Z" fill="#FDB748"/>
<path d="M55.7262 50.9103C55.6727 52.5489 54.6955 54.0301 53.1855 54.7097C50.4116 55.9578 46.9744 56.84 43.2265 57.3974C40.5886 57.7879 37.7954 58.0176 34.9701 58.0978C32.1996 58.1749 29.3984 58.1107 26.678 57.9163C25.4596 57.8281 24.2572 57.714 23.0807 57.5741C20.0627 57.2159 17.2242 56.6905 14.7401 56.0175C13.3143 55.6319 12.0053 55.198 10.8464 54.7177C10.309 54.4959 9.83346 54.1763 9.43699 53.7858C8.67308 53.0323 8.2007 52.0123 8.14895 50.9103C9.09399 51.3424 10.0893 51.744 11.1232 52.1119C12.9647 52.7672 14.9359 53.3232 16.9944 53.7793C19.739 54.388 22.6391 54.8202 25.5924 55.0805C26.8206 55.1881 28.0604 55.2651 29.2998 55.3134C32.1916 55.4258 35.0966 55.3759 37.9188 55.1704C40.9839 54.9455 43.9533 54.5342 46.7093 53.9399C50.1157 53.2059 53.1953 52.1938 55.7262 50.9103Z" fill="#FF901E"/>
<path opacity="0.2" d="M24.8618 45.9687L16.9935 53.7796L14.7392 56.0175C13.3134 55.6319 12.0044 55.1981 10.8455 54.7177C10.3081 54.496 9.83256 54.1763 9.43608 53.7858L11.1223 52.1119L17.3107 45.9687H24.8618Z" fill="#FFEAA5"/>
<path opacity="0.2" d="M55.729 45.9687V47.1432L48.9743 53.8486L45.8301 56.9442C44.9822 57.1146 44.1131 57.2656 43.2264 57.3972C41.2762 57.6863 39.2421 57.8872 37.174 58.0045L40.184 55.0791L49.3595 45.9687H55.729Z" fill="#FFEAA5"/>
<path opacity="0.2" d="M38.711 45.9687L29.2991 55.3137L26.6776 57.9161C25.4592 57.8279 24.2568 57.7137 23.0803 57.5738L25.592 55.0805L34.771 45.9684H38.711V45.9687Z" fill="#FFEAA5"/>
<path d="M55.7293 45.8913C55.7293 49.3585 45.0776 52.1693 31.9356 52.1693C18.795 52.1693 8.14196 49.3585 8.14196 45.8913C8.14196 45.8137 8.14685 45.7358 8.15978 45.6581C8.62267 42.2991 19.0897 39.6134 31.9356 39.6134C44.7815 39.6134 55.2485 42.2991 55.7114 45.6581C55.7244 45.7358 55.7293 45.8137 55.7293 45.8913Z" fill="#FFEAA5"/>
<path d="M50.9528 45.8913C50.9528 45.9684 50.9447 46.0454 50.9341 46.1216C50.4749 48.782 42.13 50.9091 31.9352 50.9091C21.7404 50.9091 13.3955 48.7822 12.9364 46.1216C12.9257 46.0454 12.918 45.9684 12.918 45.8913C12.918 43.1245 21.4489 40.8735 31.9352 40.8735C42.4215 40.8735 50.9528 43.1245 50.9528 45.8913Z" fill="#FF901E"/>
<path d="M50.9345 46.1217C50.4754 48.782 42.1305 50.9092 31.9357 50.9092C31.7074 50.9092 31.482 50.9078 31.2563 50.9058C28.9824 50.8846 26.8091 50.7579 24.8032 50.543C22.7972 50.3281 20.9609 50.0256 19.3635 49.6531C18.9575 49.5586 18.5674 49.4599 18.1907 49.3563C16.4873 48.8851 15.1233 48.3279 14.2134 47.7103C13.9931 47.5624 13.7993 47.4106 13.6349 47.2565C13.2421 46.8932 13.0061 46.513 12.9371 46.1217C13.3963 43.4611 21.7412 41.3336 31.936 41.3336C33.2254 41.3336 34.4859 41.3679 35.7066 41.4329C36.3277 41.4657 36.9406 41.5071 37.5401 41.5562C39.9891 41.7557 42.2288 42.0828 44.147 42.5078C44.5611 42.5994 44.9616 42.6962 45.3465 42.7978C46.8404 43.1899 48.0902 43.6469 49.0269 44.1518C49.9398 44.6441 50.5553 45.1801 50.8152 45.7452C50.8733 45.8688 50.9133 45.995 50.9345 46.1217Z" fill="#FDB748"/>
<path opacity="0.2" d="M50.8148 45.7448L31.2559 50.9054C28.982 50.8843 26.8087 50.7576 24.8027 50.5426L49.0262 44.1514C49.9394 44.6437 50.5549 45.18 50.8148 45.7448Z" fill="#FFEAA5"/>
<path opacity="0.2" d="M37.5396 41.5562L14.2128 47.7103C13.9926 47.5624 13.7988 47.4106 13.6344 47.2565L35.7058 41.4329C36.3268 41.4657 36.9398 41.5071 37.5396 41.5562Z" fill="#FFEAA5"/>
<path opacity="0.2" d="M45.3462 42.7975L19.3634 49.6531C18.9575 49.5586 18.5673 49.4599 18.1907 49.3563L44.147 42.5078C44.5607 42.5994 44.9615 42.6959 45.3462 42.7975Z" fill="#FFEAA5"/>
<path d="M41.6645 43.8026H35.3615C35.9109 44.0255 36.36 44.2935 36.5998 44.612H41.6645V45.5687H36.6417C36.0311 46.4952 33.5404 46.9949 31.644 47.1973C31.1195 47.2538 30.5534 47.2798 29.9873 47.2798H27.4299L37.5399 49.9472H32.8098L22.7001 47.2798V46.3231H28.6041C30.5172 46.3231 32.1767 46.0117 32.8432 45.5687H23.2576V44.612H32.8374C32.2267 44.1542 30.8878 43.9085 30.146 43.8026H23.2573V42.8459H41.6642V43.8026H41.6645Z" fill="#FF5E00"/>
<path d="M41.6645 43.6H35.3615C35.9109 43.8229 36.36 44.0909 36.5998 44.4094H41.6645V45.3661H36.6417C36.0311 46.2926 33.5404 46.7923 31.644 46.9947C31.1195 47.0515 30.5534 47.0772 29.9873 47.0772H27.4299L37.5399 49.7446H32.8098L22.7001 47.0772V46.1205H28.6041C30.5172 46.1205 32.1767 45.8091 32.8432 45.3661H23.2576V44.4094H32.8374C32.2267 43.9516 30.8878 43.7059 30.146 43.6H23.2573V42.6433H41.6642V43.6H41.6645Z" fill="#FF8400"/>
<path d="M55.7292 38.2985V43.094C55.7292 43.1422 55.7275 43.1919 55.7261 43.2401C55.6726 44.8787 54.6954 46.36 53.1854 47.0396C51.0687 47.9923 48.5637 48.7312 45.8303 49.274C44.9825 49.4444 44.1133 49.5954 43.2266 49.727C41.2765 50.0161 39.2423 50.2171 37.1743 50.3344C36.4429 50.376 35.708 50.4066 34.9702 50.4274C32.1998 50.5045 29.3986 50.4402 26.6782 50.2459C25.4597 50.1574 24.2574 50.0435 23.0809 49.9037C20.0629 49.5455 17.2243 49.02 14.7403 48.347C13.3145 47.9614 12.0055 47.5276 10.8465 47.0473C10.3092 46.8255 9.83365 46.5058 9.43717 46.1154C8.67326 45.3619 8.20088 44.3418 8.14913 43.2399C8.14424 43.1708 8.14252 43.1017 8.14252 43.0326V38.2982L55.7292 38.2985Z" fill="#FDB748"/>
<path d="M55.7262 43.2401C55.6727 44.8787 54.6955 46.36 53.1855 47.0395C50.4116 48.2879 46.9744 49.1698 43.2265 49.7273C40.5886 50.1177 37.7954 50.3475 34.9701 50.4277C32.1996 50.5047 29.3984 50.4405 26.678 50.2461C25.4596 50.1577 24.2572 50.0438 23.0807 49.9039C20.0627 49.5457 17.2242 49.0203 14.7401 48.3473C13.3143 47.9617 12.0053 47.5279 10.8464 47.0475C10.309 46.8258 9.83346 46.5061 9.43699 46.1157C8.67308 45.3622 8.2007 44.3421 8.14895 43.2401C9.09399 43.6722 10.0893 44.0738 11.1232 44.4417C12.9647 45.0973 14.9359 45.653 16.9944 46.1091C19.739 46.7179 22.6391 47.15 25.5924 47.4103C26.8206 47.5179 28.0604 47.5949 29.2998 47.6432C32.1916 47.7556 35.0966 47.7057 37.9188 47.5002C40.9839 47.2753 43.9533 46.864 46.7093 46.2698C50.1157 45.5357 53.1953 44.5236 55.7262 43.2401Z" fill="#FF901E"/>
<path opacity="0.2" d="M24.8618 38.2985L16.9935 46.1091L14.7392 48.347C13.3134 47.9614 12.0044 47.5276 10.8455 47.0473C10.3081 46.8255 9.83256 46.5058 9.43608 46.1154L11.1223 44.4414L17.3107 38.2982L24.8618 38.2985Z" fill="#FFEAA5"/>
<path opacity="0.2" d="M55.729 38.2985V39.473L48.9743 46.1785L45.8301 49.274C44.9822 49.4444 44.1131 49.5954 43.2264 49.727C41.2762 50.0161 39.2421 50.2171 37.174 50.3344L40.184 47.4089L49.3595 38.2985H55.729Z" fill="#FFEAA5"/>
<path opacity="0.2" d="M38.711 38.2985L29.2991 47.6435L26.6776 50.2459C25.4592 50.1574 24.2568 50.0435 23.0803 49.9037L25.592 47.4103L34.771 38.2982L38.711 38.2985Z" fill="#FFEAA5"/>
<path d="M55.7293 38.2211C55.7293 41.6883 45.0776 44.4991 31.9356 44.4991C18.795 44.4991 8.14196 41.6883 8.14196 38.2211C8.14196 38.1435 8.14685 38.0656 8.15978 37.988C8.62267 34.6289 19.0897 31.9432 31.9356 31.9432C44.7815 31.9432 55.2485 34.6289 55.7114 37.988C55.7244 38.0659 55.7293 38.1435 55.7293 38.2211Z" fill="#FFEAA5"/>
<path d="M50.9528 38.2211C50.9528 38.2982 50.9447 38.3752 50.9341 38.4514C50.4749 41.1118 42.13 43.239 31.9352 43.239C21.7404 43.239 13.3955 41.1121 12.9364 38.4514C12.9257 38.3752 12.918 38.2982 12.918 38.2211C12.918 35.4543 21.4489 33.2033 31.9352 33.2033C42.4215 33.2033 50.9528 35.4543 50.9528 38.2211Z" fill="#FF901E"/>
<path d="M50.9345 38.4515C50.4754 41.1118 42.1305 43.239 31.9357 43.239C31.7074 43.239 31.482 43.2376 31.2563 43.2356C28.9824 43.2145 26.8091 43.0877 24.8032 42.8728C22.7972 42.6579 20.9609 42.3554 19.3635 41.9829C18.9575 41.8884 18.5674 41.7897 18.1907 41.6861C16.4873 41.2149 15.1233 40.6577 14.2134 40.0401C13.9931 39.8923 13.7993 39.7404 13.6349 39.5863C13.2421 39.223 13.0061 38.8428 12.9371 38.4515C13.3963 35.7912 21.7412 33.6634 31.936 33.6634C33.2254 33.6634 34.4859 33.6977 35.7066 33.7627C36.3277 33.7956 36.9406 33.8369 37.5401 33.886C39.9891 34.0855 42.2288 34.4126 44.147 34.8376C44.5611 34.9292 44.9616 35.026 45.3465 35.1276C46.8404 35.5197 48.0902 35.977 49.0269 36.4816C49.9398 36.9736 50.5553 37.5099 50.8152 38.075C50.8733 38.1986 50.9133 38.3248 50.9345 38.4515Z" fill="#FDB748"/>
<path opacity="0.2" d="M50.8148 38.0747L31.2559 43.2352C28.982 43.2141 26.8087 43.0874 24.8027 42.8725L49.0262 36.4812C49.9394 36.9736 50.5549 37.5098 50.8148 38.0747Z" fill="#FFEAA5"/>
<path opacity="0.2" d="M37.5396 33.886L14.2128 40.04C13.9926 39.8922 13.7988 39.7403 13.6344 39.5862L35.7058 33.7627C36.3268 33.7958 36.9398 33.8369 37.5396 33.886Z" fill="#FFEAA5"/>
<path opacity="0.2" d="M45.3462 35.1273L19.3634 41.9829C18.9575 41.8884 18.5673 41.7897 18.1907 41.6861L44.147 34.8376C44.5607 34.9292 44.9615 35.0257 45.3462 35.1273Z" fill="#FFEAA5"/>
<path d="M41.6645 36.1324H35.3615C35.9109 36.3553 36.36 36.6233 36.5998 36.9418H41.6645V37.8985H36.6417C36.0311 38.825 33.5404 39.3248 31.644 39.5271C31.1195 39.5836 30.5534 39.6096 29.9873 39.6096H27.4299L37.5399 42.2771H32.8098L22.7001 39.6096V38.6529H28.6041C30.5172 38.6529 32.1767 38.3415 32.8432 37.8985H23.2576V36.9418H32.8374C32.2267 36.484 30.8878 36.2383 30.146 36.1324H23.2573V35.1757H41.6642V36.1324H41.6645Z" fill="#FF5E00"/>
<path d="M41.6645 35.9298H35.3615C35.9109 36.1527 36.36 36.4207 36.5998 36.7393H41.6645V37.696H36.6417C36.0311 38.6224 33.5404 39.1222 31.644 39.3245C31.1195 39.3813 30.5534 39.407 29.9873 39.407H27.4299L37.5399 42.0745H32.8098L22.7001 39.407V38.4503H28.6041C30.5172 38.4503 32.1767 38.1389 32.8432 37.696H23.2576V36.7393H32.8374C32.2267 36.2815 30.8878 36.0357 30.146 35.9298H23.2573V34.9731H41.6642V35.9298H41.6645Z" fill="#FF8400"/>
<path d="M55.7292 30.6282V35.4237C55.7292 35.4719 55.7275 35.5216 55.7261 35.5698C55.6726 37.2084 54.6954 38.6897 53.1854 39.3692C51.0687 40.3219 48.5637 41.0609 45.8303 41.6037C44.9825 41.7741 44.1133 41.9251 43.2266 42.0567C41.2765 42.3458 39.2423 42.5467 37.1743 42.664C36.4429 42.7057 35.708 42.7362 34.9702 42.7574C32.1998 42.8344 29.3986 42.7702 26.6782 42.5758C25.4597 42.4874 24.2574 42.3735 23.0809 42.2336C20.0629 41.8754 17.2243 41.35 14.7403 40.677C13.3145 40.2914 12.0055 39.8576 10.8465 39.3772C10.3092 39.1555 9.83365 38.8358 9.43717 38.4453C8.67326 37.6919 8.20088 36.6718 8.14913 35.5698C8.14424 35.5007 8.14252 35.4317 8.14252 35.3626V30.6282H55.7292Z" fill="#FDB748"/>
<path d="M55.7262 35.5694C55.6727 37.208 54.6955 38.6893 53.1855 39.3688C50.4116 40.6172 46.9744 41.4992 43.2265 42.0566C40.5886 42.447 37.7954 42.6768 34.9701 42.757C32.1996 42.834 29.3984 42.7698 26.678 42.5755C25.4596 42.487 24.2572 42.3731 23.0807 42.2333C20.0627 41.8751 17.2242 41.3496 14.7401 40.6766C13.3143 40.291 12.0053 39.8572 10.8464 39.3768C10.309 39.1551 9.83346 38.8354 9.43699 38.445C8.67308 37.6915 8.2007 36.6714 8.14895 35.5694C9.09399 36.0016 10.0893 36.4031 11.1232 36.771C12.9647 37.4263 14.9359 37.9823 16.9944 38.4384C19.739 39.0472 22.6391 39.4793 25.5924 39.7396C26.8206 39.8472 28.0604 39.9243 29.2998 39.9725C32.1916 40.085 35.0966 40.0353 37.9188 39.8295C40.9839 39.6046 43.9533 39.1933 46.7093 38.5988C50.1157 37.8653 53.1953 36.8532 55.7262 35.5694Z" fill="#FF901E"/>
<path opacity="0.2" d="M24.8618 30.628L16.9935 38.4389L14.7392 40.6768C13.3134 40.2913 12.0044 39.8574 10.8455 39.3771C10.3081 39.1553 9.83256 38.8357 9.43608 38.4452L11.1223 36.7713L17.3107 30.628H24.8618Z" fill="#FFEAA5"/>
<path opacity="0.2" d="M55.729 30.628V31.8025L48.9743 38.508L45.8301 41.6036C44.9822 41.774 44.1131 41.925 43.2264 42.0565C41.2762 42.3457 39.2421 42.5466 37.174 42.6639L40.184 39.7384L49.3595 30.628H55.729Z" fill="#FFEAA5"/>
<path opacity="0.2" d="M38.711 30.628L29.2991 39.973L26.6776 42.5754C25.4592 42.4869 24.2568 42.3731 23.0803 42.2332L25.592 39.7398L34.771 30.6278L38.711 30.628Z" fill="#FFEAA5"/>
<path d="M55.7293 30.5507C55.7293 34.0179 45.0776 36.8286 31.9356 36.8286C18.795 36.8286 8.14196 34.0179 8.14196 30.5507C8.14196 30.473 8.14685 30.3951 8.15978 30.3175C8.62267 26.9585 19.0897 24.2727 31.9356 24.2727C44.7815 24.2727 55.2485 26.9585 55.7114 30.3175C55.7244 30.3951 55.7293 30.473 55.7293 30.5507Z" fill="#FFEAA5"/>
<path d="M50.9528 30.5507C50.9528 30.6278 50.9447 30.7048 50.9341 30.7811C50.4749 33.4414 42.13 35.5686 31.9352 35.5686C21.7404 35.5686 13.3955 33.4417 12.9364 30.7811C12.9257 30.7048 12.918 30.6278 12.918 30.5507C12.918 27.7839 21.4489 25.5329 31.9352 25.5329C42.4215 25.5329 50.9528 27.7839 50.9528 30.5507Z" fill="#FF901E"/>
<path d="M50.9345 30.781C50.4754 33.4414 42.1305 35.5685 31.9357 35.5685C31.7074 35.5685 31.482 35.5671 31.2563 35.5651C28.9824 35.544 26.8091 35.4173 24.8032 35.2024C22.7972 34.9874 20.9609 34.6849 19.3635 34.3124C18.9575 34.218 18.5674 34.1192 18.1907 34.0156C16.4873 33.5444 15.1233 32.987 14.2134 32.3696C13.9931 32.2218 13.7993 32.07 13.6349 31.9158C13.2421 31.5525 13.0061 31.1723 12.9371 30.781C13.3963 28.1204 21.7412 25.993 31.936 25.993C33.2254 25.993 34.4859 26.0272 35.7066 26.0923C36.3277 26.1251 36.9406 26.1665 37.5401 26.2156C39.9891 26.4151 42.2288 26.7422 44.147 27.1671C44.5611 27.2588 44.9616 27.3555 45.3465 27.4571C46.8404 27.8493 48.0902 28.3062 49.0269 28.8111C49.9398 29.3035 50.5553 29.8395 50.8152 30.4046C50.8733 30.5282 50.9133 30.6543 50.9345 30.781Z" fill="#FDB748"/>
<path opacity="0.2" d="M50.8148 30.4043L31.2559 35.5648C28.982 35.5437 26.8087 35.417 24.8027 35.2021L49.0262 28.8105C49.9394 29.3032 50.5549 29.8392 50.8148 30.4043Z" fill="#FFEAA5"/>
<path opacity="0.2" d="M37.5396 26.2156L14.2128 32.3696C13.9926 32.2218 13.7988 32.07 13.6344 31.9158L35.7058 26.0923C36.3268 26.1251 36.9398 26.1665 37.5396 26.2156Z" fill="#FFEAA5"/>
<path opacity="0.2" d="M45.3462 27.4568L19.3634 34.3124C18.9575 34.218 18.5673 34.1192 18.1907 34.0156L44.147 27.1671C44.5607 27.2588 44.9615 27.3552 45.3462 27.4568Z" fill="#FFEAA5"/>
<path d="M41.6645 28.462H35.3615C35.9109 28.6849 36.36 28.9529 36.5998 29.2714H41.6645V30.2281H36.6417C36.0311 31.1545 33.5404 31.6543 31.644 31.8567C31.1195 31.9135 30.5534 31.9391 29.9873 31.9391H27.4299L37.5399 34.6066H32.8098L22.7001 31.9391V30.9824H28.6041C30.5172 30.9824 32.1767 30.671 32.8432 30.2281H23.2576V29.2714H32.8374C32.2267 28.8136 30.8878 28.5678 30.146 28.462H23.2573V27.5053H41.6642V28.462H41.6645Z" fill="#FF5E00"/>
<path d="M41.6645 28.2594H35.3615C35.9109 28.4823 36.36 28.7503 36.5998 29.0688H41.6645V30.0255H36.6417C36.0311 30.9519 33.5404 31.4517 31.644 31.6541C31.1195 31.7106 30.5534 31.7365 29.9873 31.7365H27.4299L37.5399 34.404H32.8098L22.7001 31.7365V30.7798H28.6041C30.5172 30.7798 32.1767 30.4684 32.8432 30.0255H23.2576V29.0688H32.8374C32.2267 28.611 30.8878 28.3652 30.146 28.2594H23.2573V27.3027H41.6642V28.2594H41.6645Z" fill="#FF8400"/>
<path d="M55.7292 23.3921V28.1876C55.7292 28.2358 55.7275 28.2855 55.7261 28.3337C55.6726 29.9723 54.6954 31.4536 53.1854 32.1332C51.0687 33.0859 48.5637 33.8248 45.8303 34.3677C44.9825 34.538 44.1133 34.689 43.2266 34.8206C41.2765 35.1097 39.2423 35.3107 37.1743 35.428C36.4429 35.4696 35.708 35.5002 34.9702 35.521C32.1998 35.5981 29.3986 35.5338 26.6782 35.3395C25.4597 35.251 24.2574 35.1371 23.0809 34.9973C20.0629 34.6391 17.2243 34.1136 14.7403 33.4406C13.3145 33.055 12.0055 32.6212 10.8465 32.1409C10.3092 31.9191 9.83365 31.5994 9.43717 31.209C8.67326 30.4555 8.20088 29.4354 8.14913 28.3335C8.14424 28.2644 8.14252 28.1953 8.14252 28.1262V23.3921H55.7292Z" fill="#FDB748"/>
<path d="M55.7262 28.3336C55.6727 29.9721 54.6955 31.4534 53.1855 32.133C50.4116 33.3811 46.9744 34.2633 43.2265 34.8207C40.5886 35.2112 37.7954 35.4409 34.9701 35.5211C32.1996 35.5982 29.3984 35.534 26.678 35.3396C25.4596 35.2511 24.2572 35.1373 23.0807 34.9974C20.0627 34.6392 17.2242 34.1138 14.7401 33.4408C13.3143 33.0552 12.0053 32.6213 10.8464 32.141C10.309 31.9192 9.83346 31.5996 9.43699 31.2091C8.67308 30.4556 8.2007 29.4356 8.14895 28.3336C9.09399 28.7657 10.0893 29.1673 11.1232 29.5352C12.9647 30.1905 14.9359 30.7465 16.9944 31.2026C19.739 31.8113 22.6391 32.2435 25.5924 32.5038C26.8206 32.6114 28.0604 32.6884 29.2998 32.7366C32.1916 32.8491 35.0966 32.7992 37.9188 32.5937C40.9839 32.3688 43.9533 31.9575 46.7093 31.363C50.1157 30.6294 53.1953 29.6171 55.7262 28.3336Z" fill="#FF901E"/>
<path opacity="0.2" d="M24.8618 23.392L16.9935 31.2029L14.7392 33.4408C13.3134 33.0552 12.0044 32.6214 10.8455 32.141C10.3081 31.9192 9.83256 31.5996 9.43608 31.2091L11.1223 29.5352L17.3107 23.392H24.8618Z" fill="#FFEAA5"/>
<path opacity="0.2" d="M55.729 23.392V24.5665L48.9743 31.2719L45.8301 34.3675C44.9822 34.5379 44.1131 34.6889 43.2264 34.8205C41.2762 35.1096 39.2421 35.3105 37.174 35.4278L40.184 32.5023L49.3595 23.392H55.729Z" fill="#FFEAA5"/>
<path opacity="0.2" d="M38.711 23.392L29.2991 32.737L26.6776 35.3394C25.4592 35.2509 24.2568 35.137 23.0803 34.9971L25.592 32.5038L34.771 23.3917H38.711V23.392Z" fill="#FFEAA5"/>
<path d="M55.7293 23.3146C55.7293 26.7818 45.0776 29.5925 31.9356 29.5925C18.795 29.5925 8.14196 26.7818 8.14196 23.3146C8.14196 23.237 8.14685 23.1593 8.15978 23.0814C8.62267 19.7224 19.0897 17.0367 31.9356 17.0367C44.7815 17.0367 55.2485 19.7224 55.7114 23.0814C55.7244 23.1593 55.7293 23.237 55.7293 23.3146Z" fill="#FFEAA5"/>
<path d="M50.9528 23.3146C50.9528 23.3916 50.9447 23.4687 50.9341 23.5449C50.4749 26.2052 42.13 28.3324 31.9352 28.3324C21.7404 28.3324 13.3955 26.2055 12.9364 23.5449C12.9257 23.4687 12.918 23.3916 12.918 23.3146C12.918 20.5478 21.4489 18.2967 31.9352 18.2967C42.4215 18.2967 50.9528 20.5478 50.9528 23.3146Z" fill="#FF901E"/>
<path d="M50.9345 23.545C50.4754 26.2053 42.1305 28.3325 31.9357 28.3325C31.7074 28.3325 31.482 28.331 31.2563 28.3291C28.9824 28.3079 26.8091 28.1812 24.8032 27.9663C22.7972 27.7514 20.9609 27.4488 19.3635 27.0764C18.9575 26.9819 18.5674 26.8832 18.1907 26.7795C16.4873 26.3083 15.1233 25.7512 14.2134 25.1336C13.9931 24.9857 13.7993 24.8339 13.6349 24.6798C13.2421 24.3164 13.0061 23.9363 12.9371 23.545C13.3963 20.8846 21.7412 18.7569 31.936 18.7569C33.2254 18.7569 34.4859 18.7911 35.7066 18.8562C36.3277 18.889 36.9406 18.9304 37.5401 18.9795C39.9891 19.179 42.2288 19.5061 44.147 19.9311C44.5611 20.0227 44.9616 20.1194 45.3465 20.221C46.8404 20.6132 48.0902 21.0704 49.0269 21.575C49.9398 22.0674 50.5553 22.6034 50.8152 23.1685C50.8733 23.2924 50.9133 23.4182 50.9345 23.545Z" fill="#FDB748"/>
<path opacity="0.2" d="M50.8148 23.1684L31.2559 28.329C28.982 28.3078 26.8087 28.1811 24.8027 27.9662L49.0262 21.575C49.9394 22.067 50.5549 22.6033 50.8148 23.1684Z" fill="#FFEAA5"/>
<path opacity="0.2" d="M37.5396 18.9794L14.2128 25.1335C13.9926 24.9857 13.7988 24.8338 13.6344 24.6797L35.7058 18.8561C36.3268 18.8892 36.9398 18.9306 37.5396 18.9794Z" fill="#FFEAA5"/>
<path opacity="0.2" d="M45.3462 20.221L19.3634 27.0767C18.9575 26.9822 18.5673 26.8834 18.1907 26.7798L44.147 19.9313C44.5607 20.0227 44.9615 20.1194 45.3462 20.221Z" fill="#FFEAA5"/>
<path d="M41.6645 21.2262H35.3615C35.9109 21.4491 36.36 21.7171 36.5998 22.0356H41.6645V22.9923H36.6417C36.0311 23.9187 33.5404 24.4185 31.644 24.6209C31.1195 24.6774 30.5534 24.7033 29.9873 24.7033H27.4299L37.5399 27.3708H32.8098L22.7001 24.7033V23.7466H28.6041C30.5172 23.7466 32.1767 23.4353 32.8432 22.9923H23.2576V22.0356H32.8374C32.2267 21.5778 30.8878 21.3321 30.146 21.2262H23.2573V20.2695H41.6642V21.2262H41.6645Z" fill="#FF5E00"/>
<path d="M41.6645 21.0236H35.3615C35.9109 21.2465 36.36 21.5145 36.5998 21.833H41.6645V22.7897H36.6417C36.0311 23.7161 33.5404 24.2159 31.644 24.4183C31.1195 24.4751 30.5534 24.5007 29.9873 24.5007H27.4299L37.5399 27.1682H32.8098L22.7001 24.5007V23.544H28.6041C30.5172 23.544 32.1767 23.2327 32.8432 22.7897H23.2576V21.833H32.8374C32.2267 21.3752 30.8878 21.1295 30.146 21.0236H23.2573V20.0669H41.6642V21.0236H41.6645Z" fill="#FF8400"/>
<path d="M55.7293 15.7218V20.517C55.7293 20.5652 55.7276 20.6149 55.7261 20.6631C55.6727 22.3017 54.6954 23.783 53.1854 24.4625C51.0688 25.4152 48.5637 26.1542 45.8304 26.697C44.9825 26.8674 44.1134 27.0184 43.2267 27.15C41.2765 27.4391 39.2424 27.64 37.1744 27.7573C36.4429 27.799 35.7081 27.8295 34.9703 27.8507C32.1999 27.9277 29.3987 27.8635 26.6783 27.6691C25.4598 27.5807 24.2575 27.4668 23.081 27.3269C20.063 26.9687 17.2244 26.4433 14.7403 25.7703C13.3146 25.3847 12.0056 24.9509 10.8466 24.4705C10.3093 24.2488 9.83371 23.9291 9.43724 23.5387C8.67333 22.7852 8.20095 21.7651 8.1492 20.6631C8.14431 20.5941 8.14259 20.525 8.14259 20.4559V15.7215H55.7293V15.7218Z" fill="#FDB748"/>
<path d="M55.7263 20.6634C55.6728 22.302 54.6955 23.7833 53.1855 24.4629C50.4117 25.711 46.9745 26.5932 43.2265 27.1506C40.5886 27.541 37.7955 27.7708 34.9701 27.851C32.1997 27.9281 29.3985 27.8638 26.6781 27.6695C25.4596 27.581 24.2573 27.4671 23.0808 27.3273C20.0628 26.9691 17.2242 26.4436 14.7402 25.7706C13.3144 25.385 12.0054 24.9512 10.8464 24.4709C10.3091 24.2491 9.83353 23.9294 9.43706 23.539C8.67315 22.7855 8.20077 21.7654 8.14902 20.6634C9.09406 21.0956 10.0894 21.4971 11.1233 21.865C12.9648 22.5203 14.936 23.0763 16.9945 23.5324C19.7391 24.1412 22.6392 24.5733 25.5925 24.8336C26.8207 24.9412 28.0604 25.0183 29.2999 25.0665C32.1917 25.179 35.0966 25.1293 37.9188 24.9235C40.984 24.6986 43.9534 24.2873 46.7094 23.6928C50.1158 22.9593 53.1953 21.9469 55.7263 20.6634Z" fill="#FF901E"/>
<path opacity="0.2" d="M24.8619 15.7218L16.9936 23.5327L14.7393 25.7706C13.3135 25.385 12.0045 24.9512 10.8455 24.4708C10.3082 24.249 9.83263 23.9294 9.43615 23.5389L11.1224 21.865L17.3107 15.7218H24.8619Z" fill="#FFEAA5"/>
<path opacity="0.2" d="M55.7291 15.7218V16.8962L48.9743 23.6017L45.8301 26.6973C44.9823 26.8677 44.1131 27.0187 43.2264 27.1503C41.2763 27.4394 39.2421 27.6403 37.1741 27.7576L40.184 24.8321L49.3596 15.7218H55.7291Z" fill="#FFEAA5"/>
<path opacity="0.2" d="M38.7111 15.7218L29.2992 25.0668L26.6777 27.6691C25.4593 27.5807 24.2569 27.4668 23.0804 27.3269L25.5921 24.8336L34.7711 15.7215H38.7111V15.7218Z" fill="#FFEAA5"/>
<path d="M55.7295 15.6444C55.7295 19.1116 45.0779 21.9223 31.9358 21.9223C18.7953 21.9223 8.1422 19.1116 8.1422 15.6444C8.1422 15.5668 8.14709 15.4891 8.16003 15.4112C8.62291 12.0522 19.09 9.36647 31.9358 9.36647C44.7817 9.36647 55.2488 12.0522 55.7117 15.4112C55.7246 15.4891 55.7295 15.5668 55.7295 15.6444Z" fill="#FFEAA5"/>
<path d="M50.9528 15.6445C50.9528 15.7215 50.9448 15.7986 50.9342 15.8748C50.475 18.5351 42.1301 20.6623 31.9353 20.6623C21.7405 20.6623 13.3956 18.5354 12.9364 15.8748C12.9258 15.7986 12.918 15.7215 12.918 15.6445C12.918 12.8777 21.449 10.6266 31.9353 10.6266C42.4216 10.6266 50.9528 12.8777 50.9528 15.6445Z" fill="#FF901E"/>
<path d="M50.9346 15.8748C50.4755 18.5351 42.1305 20.6623 31.9358 20.6623C31.7075 20.6623 31.4821 20.6609 31.2564 20.6589C28.9825 20.6377 26.8092 20.511 24.8032 20.2961C22.7973 20.0812 20.961 19.7786 19.3636 19.4062C18.9576 19.3117 18.5675 19.213 18.1908 19.1093C16.4873 18.6381 15.1234 18.0807 14.2134 17.4634C13.9932 17.3155 13.7994 17.1637 13.635 17.0096C13.2422 16.6462 13.0062 16.2661 12.9372 15.8748C13.3963 13.2144 21.7413 11.0867 31.936 11.0867C33.2255 11.0867 34.486 11.1209 35.7067 11.186C36.3277 11.2188 36.9407 11.2602 37.5402 11.3093C39.9892 11.5088 42.2289 11.8359 44.1471 12.2609C44.5611 12.3525 44.9616 12.4492 45.3466 12.5509C46.8405 12.943 48.0903 13.4 49.027 13.9049C49.9398 14.3972 50.5554 14.9332 50.8153 15.4983C50.8734 15.6222 50.9133 15.748 50.9346 15.8748Z" fill="#FDB748"/>
<path opacity="0.2" d="M50.8149 15.4983L31.256 20.6588C28.982 20.6377 26.8088 20.511 24.8028 20.2961L49.0263 13.9048C49.9394 14.3969 50.555 14.9332 50.8149 15.4983Z" fill="#FFEAA5"/>
<path opacity="0.2" d="M37.5396 11.3093L14.2129 17.4634C13.9927 17.3155 13.7989 17.1637 13.6344 17.0095L35.7059 11.186C36.3269 11.2191 36.9399 11.2605 37.5396 11.3093Z" fill="#FFEAA5"/>
<path opacity="0.2" d="M45.3463 12.5508L19.3635 19.4064C18.9576 19.312 18.5674 19.2132 18.1908 19.1096L44.1471 12.2611C44.5608 12.3525 44.9616 12.4492 45.3463 12.5508Z" fill="#FFEAA5"/>
<path d="M32.9285 15.645V13.7834C34.0566 13.9434 34.8226 14.2523 34.8226 14.6065C34.8226 14.8563 35.6099 15.0588 36.5812 15.0588C37.5525 15.0588 38.3398 14.8563 38.3398 14.6065C38.3398 13.7457 36.0345 13.0209 32.9285 12.8187V12.4505C32.9285 12.2007 32.1412 11.9982 31.1699 11.9982C30.1987 11.9982 29.4113 12.2007 29.4113 12.4505V12.8187C26.3054 13.0209 24 13.7456 24 14.6064C24 15.1204 24.5869 15.5212 25.7943 15.8318C26.6746 16.0582 27.8439 16.2257 29.4113 16.3485V18.2131C28.2833 18.053 27.5172 17.7441 27.5172 17.39C27.5172 17.1402 26.7299 16.9377 25.7586 16.9377C24.7874 16.9377 24 17.1402 24 17.39C24 18.2508 26.3054 18.9755 29.4113 19.1778V19.5459C29.4113 19.7957 30.1987 19.9982 31.1699 19.9982C32.1412 19.9982 32.9285 19.7957 32.9285 19.5459V19.1778C36.0345 18.9755 38.3398 18.2508 38.3398 17.39C38.3398 16.8831 37.7277 16.4687 36.5207 16.1583C35.6434 15.9326 34.4595 15.7635 32.9285 15.645ZM28.2814 15.1921C27.9256 15.1006 27.5173 14.9514 27.5173 14.6064C27.5173 14.2523 28.2834 13.9434 29.4114 13.7833V15.3845C28.937 15.328 28.5615 15.2642 28.2814 15.1921ZM32.9285 18.2131V16.6069C34.4569 16.79 34.8226 17.0519 34.8226 17.39C34.8226 17.7441 34.0566 18.053 32.9285 18.2131Z" fill="#FF5E00"/>
<path d="M33.2762 15.645V13.7834C34.4042 13.9434 35.1703 14.2523 35.1703 14.6065C35.1703 14.8563 35.9576 15.0588 36.9289 15.0588C37.9001 15.0588 38.6875 14.8563 38.6875 14.6065C38.6875 13.7457 36.3821 13.0209 33.2762 12.8187V12.4505C33.2762 12.2007 32.4888 11.9982 31.5176 11.9982C30.5463 11.9982 29.759 12.2007 29.759 12.4505V12.8187C26.653 13.0209 24.3477 13.7456 24.3477 14.6064C24.3477 15.1204 24.9346 15.5212 26.142 15.8318C27.0222 16.0582 28.1916 16.2257 29.759 16.3485V18.2131C28.6309 18.053 27.8649 17.7441 27.8649 17.39C27.8649 17.1402 27.0775 16.9377 26.1063 16.9377C25.135 16.9377 24.3477 17.1402 24.3477 17.39C24.3477 18.2508 26.653 18.9755 29.759 19.1778V19.5459C29.759 19.7957 30.5463 19.9982 31.5176 19.9982C32.4888 19.9982 33.2762 19.7957 33.2762 19.5459V19.1778C36.3821 18.9755 38.6875 18.2508 38.6875 17.39C38.6875 16.8831 38.0754 16.4687 36.8683 16.1583C35.991 15.9326 34.807 15.7635 33.2762 15.645ZM28.629 15.1921C28.2732 15.1006 27.8649 14.9514 27.8649 14.6064C27.8649 14.2523 28.6309 13.9434 29.759 13.7833V15.3845C29.2847 15.328 28.9092 15.2642 28.629 15.1921ZM33.2762 18.2131V16.6069C34.8046 16.79 35.1703 17.0519 35.1703 17.39C35.1702 17.7441 34.4042 18.053 33.2762 18.2131Z" fill="#FF8400"/>
<path d="M14.3376 14.3575C9.23519 14.9568 8.74556 15.4429 8.14151 20.5084C7.53774 15.4432 7.04811 14.9571 1.94569 14.3575C7.0484 13.7581 7.53774 13.272 8.14151 8.20654C8.74556 13.272 9.23519 13.7581 14.3376 14.3575Z" fill="white"/>
<path d="M87.3071 48.6744C87.3071 61.3576 76.9508 71.6407 64.1722 71.6407C51.3958 71.6407 41.0372 61.3573 41.0372 48.6744C41.0372 48.3902 41.0424 48.1059 41.0553 47.8216C41.5041 35.5329 51.6825 25.7081 64.1724 25.7081C76.6624 25.7081 86.8405 35.5329 87.2896 47.8216C87.3019 48.1059 87.3071 48.3902 87.3071 48.6744Z" fill="#FDB748"/>
<path d="M87.2889 47.8216C86.8375 60.1103 76.6617 69.9351 64.1718 69.9351C51.6844 69.9351 41.5063 60.1103 41.0546 47.8216C41.5034 35.5329 51.6818 25.7081 64.1718 25.7081C76.662 25.7081 86.8401 35.5329 87.2889 47.8216Z" fill="#FFEAA5"/>
<path d="M82.6631 48.6745C82.6631 48.9562 82.6553 49.2379 82.645 49.517C82.1985 59.2496 74.0844 67.0305 64.172 67.0305C54.2595 67.0305 46.1454 59.2496 45.6989 49.517C45.6886 49.2379 45.6808 48.9562 45.6808 48.6745C45.6808 38.5526 53.9755 30.3181 64.172 30.3181C74.3684 30.3184 82.6631 38.5526 82.6631 48.6745Z" fill="#FF901E"/>
<path d="M82.6451 49.5173C82.1986 59.2499 74.0846 67.0308 64.1721 67.0308C63.9502 67.0308 63.7311 67.0257 63.5117 67.0179C61.3008 66.9412 59.1876 66.4777 57.2371 65.6913C55.2867 64.905 53.5012 63.7985 51.9481 62.4359C51.5534 62.0903 51.1742 61.729 50.8079 61.3499C49.1515 59.6263 47.8253 57.5876 46.9403 55.3286C46.7261 54.7883 46.5378 54.2323 46.3779 53.6689C45.9961 52.3397 45.7664 50.9489 45.6994 49.5173C46.1456 39.7847 54.26 32.0012 64.1724 32.0012C65.4262 32.0012 66.6519 32.1268 67.8387 32.3649C68.4425 32.4853 69.0385 32.6363 69.6216 32.8155C72.003 33.5453 74.1806 34.7415 76.0457 36.2961C76.4482 36.6315 76.8378 36.9851 77.2118 37.3564C78.6643 38.7906 79.8796 40.4632 80.7904 42.3098C81.678 44.1104 82.2766 46.0721 82.5293 48.139C82.5856 48.5926 82.6244 49.0535 82.6451 49.5173Z" fill="#FDB748"/>
<path opacity="0.2" d="M82.5294 48.1393L63.5119 67.0179C61.3009 66.9411 59.1877 66.4776 57.2373 65.6913L80.7903 42.31C81.6778 44.1104 82.2764 46.0723 82.5294 48.1393Z" fill="#FFEAA5"/>
<path opacity="0.2" d="M69.6209 32.8155L46.9399 55.3285C46.7257 54.7882 46.5374 54.2322 46.3775 53.6688L67.8383 32.3648C68.4418 32.485 69.0378 32.6362 69.6209 32.8155Z" fill="#FFEAA5"/>
<path opacity="0.2" d="M77.2116 37.3564L51.948 62.4358C51.5532 62.0902 51.174 61.7289 50.8077 61.3498L76.0455 36.296C76.448 36.6317 76.8376 36.985 77.2116 37.3564Z" fill="#FFEAA5"/>
<path d="M65.9285 48.3078V42.0249C67.0565 42.5651 67.8226 43.6076 67.8226 44.8028C67.8226 45.6459 68.6099 46.3294 69.5812 46.3294C70.5524 46.3294 71.3398 45.6459 71.3398 44.8028C71.3398 41.8977 69.0344 39.4515 65.9285 38.7691V37.5265C65.9285 36.6835 65.1412 36 64.1699 36C63.1986 36 62.4113 36.6835 62.4113 37.5265V38.769C59.3054 39.4515 57 41.8976 57 44.8028C57 46.5374 57.5869 47.8902 58.7943 48.9382C59.6746 49.7023 60.8439 50.2678 62.4113 50.6823V56.9751C61.2833 56.4349 60.5172 55.3924 60.5172 54.1972C60.5172 53.3541 59.7299 52.6707 58.7586 52.6707C57.7874 52.6707 57 53.3541 57 54.1972C57 57.1024 59.3054 59.5485 62.4113 60.231V61.4735C62.4113 62.3165 63.1986 63 64.1699 63C65.1412 63 65.9285 62.3165 65.9285 61.4735V60.231C69.0344 59.5485 71.3398 57.1025 71.3398 54.1972C71.3398 52.4866 70.7277 51.088 69.5206 50.0402C68.6434 49.2786 67.4595 48.7077 65.9285 48.3078ZM61.2814 46.7794C60.9256 46.4706 60.5173 45.9668 60.5173 44.8028C60.5173 43.6076 61.2834 42.5651 62.4114 42.0248V47.4289C61.937 47.2382 61.5615 47.0226 61.2814 46.7794ZM65.9285 56.9751V51.5544C67.4569 52.1722 67.8226 53.0561 67.8226 54.1972C67.8226 55.3924 67.0565 56.4349 65.9285 56.9751Z" fill="#FF5E00"/>
<path d="M66.2762 48.3078V42.0249C67.4042 42.5651 68.1702 43.6076 68.1702 44.8028C68.1702 45.6459 68.9576 46.3294 69.9288 46.3294C70.9001 46.3294 71.6875 45.6459 71.6875 44.8028C71.6875 41.8977 69.3821 39.4515 66.2762 38.7691V37.5265C66.2762 36.6835 65.4888 36 64.5176 36C63.5463 36 62.7589 36.6835 62.7589 37.5265V38.769C59.653 39.4515 57.3477 41.8976 57.3477 44.8028C57.3477 46.5374 57.9346 47.8902 59.1419 48.9382C60.0222 49.7023 61.1916 50.2678 62.7589 50.6823V56.9751C61.6309 56.4349 60.8649 55.3924 60.8649 54.1972C60.8649 53.3541 60.0775 52.6707 59.1063 52.6707C58.135 52.6707 57.3477 53.3541 57.3477 54.1972C57.3477 57.1024 59.653 59.5485 62.7589 60.231V61.4735C62.7589 62.3165 63.5463 63 64.5176 63C65.4888 63 66.2762 62.3165 66.2762 61.4735V60.231C69.3821 59.5485 71.6875 57.1025 71.6875 54.1972C71.6875 52.4866 71.0754 51.088 69.8683 50.0402C68.991 49.2786 67.807 48.7077 66.2762 48.3078ZM61.6289 46.7794C61.2731 46.4706 60.8649 45.9668 60.8649 44.8028C60.8649 43.6076 61.6309 42.5651 62.7589 42.0248V47.4289C62.2847 47.2382 61.9092 47.0226 61.6289 46.7794ZM66.2762 56.9751V51.5544C67.8046 52.1722 68.1702 53.0561 68.1702 54.1972C68.1701 55.3924 67.4042 56.4349 66.2762 56.9751Z" fill="#FF8400"/>
<path d="M55.6444 64.414C50.5419 65.0134 50.0523 65.4995 49.4483 70.565C48.8445 65.4995 48.3549 65.0137 43.2524 64.414C48.3551 63.8147 48.8445 63.3286 49.4483 58.2631C50.0523 63.3286 50.5419 63.8144 55.6444 64.414Z" fill="white"/>
<path d="M85.1125 29.5007C80.0101 30.1001 79.5204 30.5861 78.9164 35.6516C78.3126 30.5864 77.823 30.1004 72.7206 29.5007C77.823 28.9014 78.3126 28.4153 78.9164 23.3498C79.5204 28.4153 80.0098 28.9011 85.1125 29.5007Z" fill="white"/>
</svg>
