<svg width="588" height="150" viewBox="0 0 588 150" fill="none" xmlns="http://www.w3.org/2000/svg">
<g clip-path="url(#clip0_1_5)">
<rect width="588" height="150" rx="18" fill="url(#paint0_linear_1_5)"/>
<path d="M557.281 62.7909V60.1562C557.281 49.3331 548.479 40.5312 537.656 40.5312H439.531C428.708 40.5312 419.906 49.3331 419.906 60.1562V148.469C419.906 159.292 428.708 168.094 439.531 168.094H547.469C558.292 168.094 567.094 159.292 567.094 148.469V79.7812C567.094 72.5298 563.139 66.1909 557.281 62.7909Z" fill="url(#paint1_linear_1_5)"/>
<path d="M557.281 60.1562V62.8056C554.301 61.074 550.916 60.1601 547.469 60.1562H444.438C441.739 60.1562 439.531 57.9484 439.531 55.25C439.531 52.5516 441.739 50.3438 444.438 50.3438H547.469C550.118 50.3438 552.718 50.6872 555.172 51.3741C556.545 54.0234 557.281 57.0163 557.281 60.1562Z" fill="url(#paint2_linear_1_5)"/>
<path d="M537.656 94.5C526.833 94.5 518.031 103.302 518.031 114.125C518.031 124.948 526.833 133.75 537.656 133.75H567.094V94.5H537.656Z" fill="url(#paint3_linear_1_5)"/>
<path d="M545.31 60.1563H457.733L515.333 21.7403C516.412 21.0044 517.786 20.7591 519.062 21.0044C520.337 21.2988 521.466 22.0838 522.202 23.2122L545.31 60.1563Z" fill="url(#paint4_linear_1_5)"/>
<path fill-rule="evenodd" clip-rule="evenodd" d="M546.767 104.294L545.267 104.283C543.079 104.267 540.974 105.121 539.416 106.657C537.858 108.193 536.973 110.284 536.957 112.472L536.896 120.722C536.892 121.319 537.125 121.893 537.544 122.318C537.962 122.743 538.533 122.984 539.129 122.989L540.629 123C542.817 123.016 544.922 122.162 546.48 120.626C548.038 119.09 548.923 116.999 548.939 114.811L549 106.561C549.004 105.964 548.771 105.39 548.352 104.965C547.933 104.54 547.363 104.299 546.767 104.294ZM535.688 122.189C535.491 121.722 535.392 121.219 535.396 120.712L535.457 112.462C535.466 111.111 535.756 109.777 536.309 108.545C536.861 107.312 537.663 106.208 538.665 105.302C537.43 104.621 536.04 104.27 534.629 104.283L533.181 104.294C532.886 104.296 532.593 104.356 532.321 104.471C532.049 104.586 531.802 104.753 531.595 104.964C531.387 105.174 531.223 105.424 531.112 105.698C531.001 105.971 530.945 106.264 530.948 106.56L531.008 114.81C531.019 116.355 531.464 117.865 532.291 119.17C533.118 120.474 534.295 121.521 535.688 122.189Z" fill="url(#paint5_linear_1_5)" fill-opacity="0.5"/>
<path fill-rule="evenodd" clip-rule="evenodd" d="M56.6608 20.9709L53.4108 20.9465C48.6705 20.9128 44.1109 22.763 40.7345 26.0903C37.3581 29.4176 35.4414 33.9496 35.4058 38.6899L35.2741 56.5649C35.2655 57.8575 35.7703 59.1008 36.6776 60.0216C37.585 60.9423 38.8207 61.4653 40.1134 61.4756L43.3634 61.5C48.1036 61.5337 52.6632 59.6835 56.0396 56.3562C59.416 53.0289 61.3327 48.4968 61.3684 43.7566L61.5 25.8816C61.5087 24.5889 61.0039 23.3457 60.0965 22.4249C59.1892 21.5041 57.9534 20.9812 56.6608 20.9709ZM32.6563 59.7434C32.2314 58.73 32.0163 57.6409 32.0241 56.5421L32.1558 38.6671C32.1767 35.741 32.8054 32.8511 34.0021 30.1807C35.1988 27.5104 36.9374 25.1179 39.1075 23.1549C36.4309 21.6798 33.4194 20.9193 30.3634 20.9465L27.2255 20.9692C26.5852 20.9737 25.9521 21.1043 25.3624 21.3535C24.7726 21.6028 24.2377 21.9658 23.7883 22.4219C23.3389 22.8779 22.9838 23.4181 22.7432 24.0114C22.5026 24.6048 22.3813 25.2397 22.3863 25.88L22.5179 43.755C22.5416 47.1019 23.5045 50.3748 25.2968 53.2014C27.0892 56.028 29.6391 58.2946 32.6563 59.7434Z" fill="url(#paint6_linear_1_5)"/>
<path d="M82.9424 28.6279V33.3125C82.7842 33.5469 82.5322 33.8105 82.1865 34.1035C81.8408 34.3906 81.3633 34.6426 80.7539 34.8594C80.1504 35.0703 79.3711 35.1758 78.416 35.1758C77.6367 35.1758 76.9189 35.041 76.2627 34.7715C75.6123 34.4961 75.0469 34.0977 74.5664 33.5762C74.0918 33.0488 73.7227 32.4102 73.459 31.6602C73.2012 30.9043 73.0723 30.0488 73.0723 29.0938V28.1006C73.0723 27.1455 73.1836 26.293 73.4062 25.543C73.6348 24.793 73.9688 24.1572 74.4082 23.6357C74.8477 23.1084 75.3867 22.71 76.0254 22.4404C76.6641 22.165 77.3965 22.0273 78.2227 22.0273C79.2012 22.0273 80.0186 22.1973 80.6748 22.5371C81.3369 22.8711 81.8525 23.334 82.2217 23.9258C82.5967 24.5176 82.8369 25.1914 82.9424 25.9473H81.2461C81.1699 25.4844 81.0176 25.0625 80.7891 24.6816C80.5664 24.3008 80.2471 23.9961 79.8311 23.7676C79.415 23.5332 78.8789 23.416 78.2227 23.416C77.6309 23.416 77.1182 23.5244 76.6846 23.7412C76.251 23.958 75.8936 24.2686 75.6123 24.6729C75.3311 25.0771 75.1201 25.5664 74.9795 26.1406C74.8447 26.7148 74.7773 27.3623 74.7773 28.083V29.0938C74.7773 29.832 74.8623 30.4912 75.0322 31.0713C75.208 31.6514 75.457 32.1465 75.7793 32.5566C76.1016 32.9609 76.4854 33.2686 76.9307 33.4795C77.3818 33.6904 77.8799 33.7959 78.4248 33.7959C79.0283 33.7959 79.5176 33.7461 79.8926 33.6465C80.2676 33.541 80.5605 33.418 80.7715 33.2773C80.9824 33.1309 81.1436 32.9932 81.2549 32.8643V29.999H78.293V28.6279H82.9424ZM85.0781 30.3506V30.1484C85.0781 29.4629 85.1777 28.8271 85.377 28.2412C85.5762 27.6494 85.8633 27.1367 86.2383 26.7031C86.6133 26.2637 87.0674 25.9238 87.6006 25.6836C88.1338 25.4375 88.7314 25.3145 89.3936 25.3145C90.0615 25.3145 90.6621 25.4375 91.1953 25.6836C91.7344 25.9238 92.1914 26.2637 92.5664 26.7031C92.9473 27.1367 93.2373 27.6494 93.4365 28.2412C93.6357 28.8271 93.7354 29.4629 93.7354 30.1484V30.3506C93.7354 31.0361 93.6357 31.6719 93.4365 32.2578C93.2373 32.8438 92.9473 33.3564 92.5664 33.7959C92.1914 34.2295 91.7373 34.5693 91.2041 34.8154C90.6768 35.0557 90.0791 35.1758 89.4111 35.1758C88.7432 35.1758 88.1426 35.0557 87.6094 34.8154C87.0762 34.5693 86.6191 34.2295 86.2383 33.7959C85.8633 33.3564 85.5762 32.8438 85.377 32.2578C85.1777 31.6719 85.0781 31.0361 85.0781 30.3506ZM86.7041 30.1484V30.3506C86.7041 30.8252 86.7598 31.2734 86.8711 31.6953C86.9824 32.1113 87.1494 32.4805 87.3721 32.8027C87.6006 33.125 87.8848 33.3799 88.2246 33.5674C88.5645 33.749 88.96 33.8398 89.4111 33.8398C89.8564 33.8398 90.2461 33.749 90.5801 33.5674C90.9199 33.3799 91.2012 33.125 91.4238 32.8027C91.6465 32.4805 91.8135 32.1113 91.9248 31.6953C92.042 31.2734 92.1006 30.8252 92.1006 30.3506V30.1484C92.1006 29.6797 92.042 29.2373 91.9248 28.8213C91.8135 28.3994 91.6436 28.0273 91.415 27.7051C91.1924 27.377 90.9111 27.1191 90.5713 26.9316C90.2373 26.7441 89.8447 26.6504 89.3936 26.6504C88.9482 26.6504 88.5557 26.7441 88.2158 26.9316C87.8818 27.1191 87.6006 27.377 87.3721 27.7051C87.1494 28.0273 86.9824 28.3994 86.8711 28.8213C86.7598 29.2373 86.7041 29.6797 86.7041 30.1484ZM97.541 21.5V35H95.9062V21.5H97.541ZM106.146 33.1543V21.5H107.78V35H106.286L106.146 33.1543ZM99.7471 30.3506V30.166C99.7471 29.4395 99.835 28.7803 100.011 28.1885C100.192 27.5908 100.447 27.0781 100.775 26.6504C101.109 26.2227 101.505 25.8945 101.962 25.666C102.425 25.4316 102.94 25.3145 103.509 25.3145C104.106 25.3145 104.628 25.4199 105.073 25.6309C105.524 25.8359 105.905 26.1377 106.216 26.5361C106.532 26.9287 106.781 27.4033 106.963 27.96C107.145 28.5166 107.271 29.1465 107.341 29.8496V30.6582C107.276 31.3555 107.15 31.9824 106.963 32.5391C106.781 33.0957 106.532 33.5703 106.216 33.9629C105.905 34.3555 105.524 34.6572 105.073 34.8682C104.622 35.0732 104.095 35.1758 103.491 35.1758C102.935 35.1758 102.425 35.0557 101.962 34.8154C101.505 34.5752 101.109 34.2383 100.775 33.8047C100.447 33.3711 100.192 32.8613 100.011 32.2754C99.835 31.6836 99.7471 31.042 99.7471 30.3506ZM101.382 30.166V30.3506C101.382 30.8252 101.429 31.2705 101.522 31.6865C101.622 32.1025 101.774 32.4688 101.979 32.7852C102.185 33.1016 102.445 33.3506 102.762 33.5322C103.078 33.708 103.456 33.7959 103.896 33.7959C104.435 33.7959 104.877 33.6816 105.223 33.4531C105.574 33.2246 105.855 32.9229 106.066 32.5479C106.277 32.1729 106.441 31.7656 106.559 31.3262V29.208C106.488 28.8857 106.386 28.5752 106.251 28.2764C106.122 27.9717 105.952 27.7021 105.741 27.4678C105.536 27.2275 105.281 27.0371 104.977 26.8965C104.678 26.7559 104.323 26.6855 103.913 26.6855C103.468 26.6855 103.084 26.7793 102.762 26.9668C102.445 27.1484 102.185 27.4004 101.979 27.7227C101.774 28.0391 101.622 28.4082 101.522 28.8301C101.429 29.2461 101.382 29.6914 101.382 30.166ZM114.258 35.1758C113.596 35.1758 112.995 35.0645 112.456 34.8418C111.923 34.6133 111.463 34.2939 111.076 33.8838C110.695 33.4736 110.402 32.9873 110.197 32.4248C109.992 31.8623 109.89 31.2471 109.89 30.5791V30.21C109.89 29.4365 110.004 28.748 110.232 28.1445C110.461 27.5352 110.771 27.0195 111.164 26.5977C111.557 26.1758 112.002 25.8564 112.5 25.6396C112.998 25.4229 113.514 25.3145 114.047 25.3145C114.727 25.3145 115.312 25.4316 115.805 25.666C116.303 25.9004 116.71 26.2285 117.026 26.6504C117.343 27.0664 117.577 27.5586 117.729 28.127C117.882 28.6895 117.958 29.3047 117.958 29.9727V30.7021H110.856V29.375H116.332V29.252C116.309 28.8301 116.221 28.4199 116.068 28.0215C115.922 27.623 115.688 27.2949 115.365 27.0371C115.043 26.7793 114.604 26.6504 114.047 26.6504C113.678 26.6504 113.338 26.7295 113.027 26.8877C112.717 27.04 112.45 27.2686 112.228 27.5732C112.005 27.8779 111.832 28.25 111.709 28.6895C111.586 29.1289 111.524 29.6357 111.524 30.21V30.5791C111.524 31.0303 111.586 31.4551 111.709 31.8535C111.838 32.2461 112.022 32.5918 112.263 32.8906C112.509 33.1895 112.805 33.4238 113.15 33.5938C113.502 33.7637 113.9 33.8486 114.346 33.8486C114.92 33.8486 115.406 33.7314 115.805 33.4971C116.203 33.2627 116.552 32.9492 116.851 32.5566L117.835 33.3389C117.63 33.6494 117.369 33.9453 117.053 34.2266C116.736 34.5078 116.347 34.7363 115.884 34.9121C115.427 35.0879 114.885 35.1758 114.258 35.1758ZM121.482 27.5205V35H119.856V25.4902H121.395L121.482 27.5205ZM121.096 29.8848L120.419 29.8584C120.425 29.208 120.521 28.6074 120.709 28.0566C120.896 27.5 121.16 27.0166 121.5 26.6064C121.84 26.1963 122.244 25.8799 122.713 25.6572C123.188 25.4287 123.712 25.3145 124.286 25.3145C124.755 25.3145 125.177 25.3789 125.552 25.5078C125.927 25.6309 126.246 25.8301 126.51 26.1055C126.779 26.3809 126.984 26.7383 127.125 27.1777C127.266 27.6113 127.336 28.1416 127.336 28.7686V35H125.701V28.751C125.701 28.2529 125.628 27.8545 125.481 27.5557C125.335 27.251 125.121 27.0312 124.84 26.8965C124.559 26.7559 124.213 26.6855 123.803 26.6855C123.398 26.6855 123.029 26.7705 122.695 26.9404C122.367 27.1104 122.083 27.3447 121.843 27.6436C121.608 27.9424 121.424 28.2852 121.289 28.6719C121.16 29.0527 121.096 29.457 121.096 29.8848ZM134.517 22.2031H138.753C139.714 22.2031 140.525 22.3496 141.188 22.6426C141.855 22.9355 142.362 23.3691 142.708 23.9434C143.06 24.5117 143.235 25.2119 143.235 26.0439C143.235 26.6299 143.115 27.166 142.875 27.6523C142.641 28.1328 142.301 28.543 141.855 28.8828C141.416 29.2168 140.889 29.4658 140.273 29.6299L139.799 29.8145H135.817L135.8 28.4346H138.806C139.415 28.4346 139.922 28.3291 140.326 28.1182C140.73 27.9014 141.035 27.6113 141.24 27.248C141.445 26.8848 141.548 26.4834 141.548 26.0439C141.548 25.5518 141.451 25.1211 141.258 24.752C141.064 24.3828 140.76 24.0986 140.344 23.8994C139.934 23.6943 139.403 23.5918 138.753 23.5918H136.213V35H134.517V22.2031ZM141.996 35L138.885 29.1992L140.651 29.1904L143.807 34.8945V35H141.996ZM144.932 30.3506V30.1484C144.932 29.4629 145.031 28.8271 145.23 28.2412C145.43 27.6494 145.717 27.1367 146.092 26.7031C146.467 26.2637 146.921 25.9238 147.454 25.6836C147.987 25.4375 148.585 25.3145 149.247 25.3145C149.915 25.3145 150.516 25.4375 151.049 25.6836C151.588 25.9238 152.045 26.2637 152.42 26.7031C152.801 27.1367 153.091 27.6494 153.29 28.2412C153.489 28.8271 153.589 29.4629 153.589 30.1484V30.3506C153.589 31.0361 153.489 31.6719 153.29 32.2578C153.091 32.8438 152.801 33.3564 152.42 33.7959C152.045 34.2295 151.591 34.5693 151.058 34.8154C150.53 35.0557 149.933 35.1758 149.265 35.1758C148.597 35.1758 147.996 35.0557 147.463 34.8154C146.93 34.5693 146.473 34.2295 146.092 33.7959C145.717 33.3564 145.43 32.8438 145.23 32.2578C145.031 31.6719 144.932 31.0361 144.932 30.3506ZM146.558 30.1484V30.3506C146.558 30.8252 146.613 31.2734 146.725 31.6953C146.836 32.1113 147.003 32.4805 147.226 32.8027C147.454 33.125 147.738 33.3799 148.078 33.5674C148.418 33.749 148.813 33.8398 149.265 33.8398C149.71 33.8398 150.1 33.749 150.434 33.5674C150.773 33.3799 151.055 33.125 151.277 32.8027C151.5 32.4805 151.667 32.1113 151.778 31.6953C151.896 31.2734 151.954 30.8252 151.954 30.3506V30.1484C151.954 29.6797 151.896 29.2373 151.778 28.8213C151.667 28.3994 151.497 28.0273 151.269 27.7051C151.046 27.377 150.765 27.1191 150.425 26.9316C150.091 26.7441 149.698 26.6504 149.247 26.6504C148.802 26.6504 148.409 26.7441 148.069 26.9316C147.735 27.1191 147.454 27.377 147.226 27.7051C147.003 28.0273 146.836 28.3994 146.725 28.8213C146.613 29.2373 146.558 29.6797 146.558 30.1484ZM161.165 32.4775C161.165 32.2432 161.112 32.0264 161.007 31.8271C160.907 31.6221 160.699 31.4375 160.383 31.2734C160.072 31.1035 159.604 30.957 158.977 30.834C158.449 30.7227 157.972 30.5908 157.544 30.4385C157.122 30.2861 156.762 30.1016 156.463 29.8848C156.17 29.668 155.944 29.4131 155.786 29.1201C155.628 28.8271 155.549 28.4844 155.549 28.0918C155.549 27.7168 155.631 27.3623 155.795 27.0283C155.965 26.6943 156.202 26.3984 156.507 26.1406C156.817 25.8828 157.189 25.6807 157.623 25.5342C158.057 25.3877 158.54 25.3145 159.073 25.3145C159.835 25.3145 160.485 25.4492 161.024 25.7188C161.563 25.9883 161.977 26.3486 162.264 26.7998C162.551 27.2451 162.694 27.7402 162.694 28.2852H161.068C161.068 28.0215 160.989 27.7666 160.831 27.5205C160.679 27.2686 160.453 27.0605 160.154 26.8965C159.861 26.7324 159.501 26.6504 159.073 26.6504C158.622 26.6504 158.256 26.7207 157.975 26.8613C157.699 26.9961 157.497 27.1689 157.368 27.3799C157.245 27.5908 157.184 27.8135 157.184 28.0479C157.184 28.2236 157.213 28.3818 157.271 28.5225C157.336 28.6572 157.447 28.7832 157.605 28.9004C157.764 29.0117 157.986 29.1172 158.273 29.2168C158.561 29.3164 158.927 29.416 159.372 29.5156C160.151 29.6914 160.793 29.9023 161.297 30.1484C161.801 30.3945 162.176 30.6963 162.422 31.0537C162.668 31.4111 162.791 31.8447 162.791 32.3545C162.791 32.7705 162.703 33.1514 162.527 33.4971C162.357 33.8428 162.108 34.1416 161.78 34.3936C161.458 34.6396 161.071 34.833 160.62 34.9736C160.175 35.1084 159.674 35.1758 159.117 35.1758C158.279 35.1758 157.57 35.0264 156.99 34.7275C156.41 34.4287 155.971 34.042 155.672 33.5674C155.373 33.0928 155.224 32.5918 155.224 32.0645H156.858C156.882 32.5098 157.011 32.8643 157.245 33.1279C157.479 33.3857 157.767 33.5703 158.106 33.6816C158.446 33.7871 158.783 33.8398 159.117 33.8398C159.562 33.8398 159.935 33.7812 160.233 33.6641C160.538 33.5469 160.77 33.3857 160.928 33.1807C161.086 32.9756 161.165 32.7412 161.165 32.4775ZM168.873 35.1758C168.211 35.1758 167.61 35.0645 167.071 34.8418C166.538 34.6133 166.078 34.2939 165.691 33.8838C165.311 33.4736 165.018 32.9873 164.812 32.4248C164.607 31.8623 164.505 31.2471 164.505 30.5791V30.21C164.505 29.4365 164.619 28.748 164.848 28.1445C165.076 27.5352 165.387 27.0195 165.779 26.5977C166.172 26.1758 166.617 25.8564 167.115 25.6396C167.613 25.4229 168.129 25.3145 168.662 25.3145C169.342 25.3145 169.928 25.4316 170.42 25.666C170.918 25.9004 171.325 26.2285 171.642 26.6504C171.958 27.0664 172.192 27.5586 172.345 28.127C172.497 28.6895 172.573 29.3047 172.573 29.9727V30.7021H165.472V29.375H170.947V29.252C170.924 28.8301 170.836 28.4199 170.684 28.0215C170.537 27.623 170.303 27.2949 169.98 27.0371C169.658 26.7793 169.219 26.6504 168.662 26.6504C168.293 26.6504 167.953 26.7295 167.643 26.8877C167.332 27.04 167.065 27.2686 166.843 27.5732C166.62 27.8779 166.447 28.25 166.324 28.6895C166.201 29.1289 166.14 29.6357 166.14 30.21V30.5791C166.14 31.0303 166.201 31.4551 166.324 31.8535C166.453 32.2461 166.638 32.5918 166.878 32.8906C167.124 33.1895 167.42 33.4238 167.766 33.5938C168.117 33.7637 168.516 33.8486 168.961 33.8486C169.535 33.8486 170.021 33.7314 170.42 33.4971C170.818 33.2627 171.167 32.9492 171.466 32.5566L172.45 33.3389C172.245 33.6494 171.984 33.9453 171.668 34.2266C171.352 34.5078 170.962 34.7363 170.499 34.9121C170.042 35.0879 169.5 35.1758 168.873 35.1758ZM78.2139 48.2031V61H76.5439V48.2031H78.2139ZM82.3271 48.2031V49.5918H72.4395V48.2031H82.3271ZM82.6699 56.3506V56.1484C82.6699 55.4629 82.7695 54.8271 82.9688 54.2412C83.168 53.6494 83.4551 53.1367 83.8301 52.7031C84.2051 52.2637 84.6592 51.9238 85.1924 51.6836C85.7256 51.4375 86.3232 51.3145 86.9854 51.3145C87.6533 51.3145 88.2539 51.4375 88.7871 51.6836C89.3262 51.9238 89.7832 52.2637 90.1582 52.7031C90.5391 53.1367 90.8291 53.6494 91.0283 54.2412C91.2275 54.8271 91.3271 55.4629 91.3271 56.1484V56.3506C91.3271 57.0361 91.2275 57.6719 91.0283 58.2578C90.8291 58.8438 90.5391 59.3564 90.1582 59.7959C89.7832 60.2295 89.3291 60.5693 88.7959 60.8154C88.2686 61.0557 87.6709 61.1758 87.0029 61.1758C86.335 61.1758 85.7344 61.0557 85.2012 60.8154C84.668 60.5693 84.2109 60.2295 83.8301 59.7959C83.4551 59.3564 83.168 58.8438 82.9688 58.2578C82.7695 57.6719 82.6699 57.0361 82.6699 56.3506ZM84.2959 56.1484V56.3506C84.2959 56.8252 84.3516 57.2734 84.4629 57.6953C84.5742 58.1113 84.7412 58.4805 84.9639 58.8027C85.1924 59.125 85.4766 59.3799 85.8164 59.5674C86.1562 59.749 86.5518 59.8398 87.0029 59.8398C87.4482 59.8398 87.8379 59.749 88.1719 59.5674C88.5117 59.3799 88.793 59.125 89.0156 58.8027C89.2383 58.4805 89.4053 58.1113 89.5166 57.6953C89.6338 57.2734 89.6924 56.8252 89.6924 56.3506V56.1484C89.6924 55.6797 89.6338 55.2373 89.5166 54.8213C89.4053 54.3994 89.2354 54.0273 89.0068 53.7051C88.7842 53.377 88.5029 53.1191 88.1631 52.9316C87.8291 52.7441 87.4365 52.6504 86.9854 52.6504C86.54 52.6504 86.1475 52.7441 85.8076 52.9316C85.4736 53.1191 85.1924 53.377 84.9639 53.7051C84.7412 54.0273 84.5742 54.3994 84.4629 54.8213C84.3516 55.2373 84.2959 55.6797 84.2959 56.1484ZM95.001 47.5V61H93.3662V47.5H95.001ZM100.811 51.4902L96.6621 55.9287L94.3418 58.3369L94.21 56.6055L95.8711 54.6191L98.8242 51.4902H100.811ZM99.3252 61L95.9326 56.4648L96.7764 55.0146L101.241 61H99.3252ZM106.26 61.1758C105.598 61.1758 104.997 61.0645 104.458 60.8418C103.925 60.6133 103.465 60.2939 103.078 59.8838C102.697 59.4736 102.404 58.9873 102.199 58.4248C101.994 57.8623 101.892 57.2471 101.892 56.5791V56.21C101.892 55.4365 102.006 54.748 102.234 54.1445C102.463 53.5352 102.773 53.0195 103.166 52.5977C103.559 52.1758 104.004 51.8564 104.502 51.6396C105 51.4229 105.516 51.3145 106.049 51.3145C106.729 51.3145 107.314 51.4316 107.807 51.666C108.305 51.9004 108.712 52.2285 109.028 52.6504C109.345 53.0664 109.579 53.5586 109.731 54.127C109.884 54.6895 109.96 55.3047 109.96 55.9727V56.7021H102.858V55.375H108.334V55.252C108.311 54.8301 108.223 54.4199 108.07 54.0215C107.924 53.623 107.689 53.2949 107.367 53.0371C107.045 52.7793 106.605 52.6504 106.049 52.6504C105.68 52.6504 105.34 52.7295 105.029 52.8877C104.719 53.04 104.452 53.2686 104.229 53.5732C104.007 53.8779 103.834 54.25 103.711 54.6895C103.588 55.1289 103.526 55.6357 103.526 56.21V56.5791C103.526 57.0303 103.588 57.4551 103.711 57.8535C103.84 58.2461 104.024 58.5918 104.265 58.8906C104.511 59.1895 104.807 59.4238 105.152 59.5938C105.504 59.7637 105.902 59.8486 106.348 59.8486C106.922 59.8486 107.408 59.7314 107.807 59.4971C108.205 59.2627 108.554 58.9492 108.853 58.5566L109.837 59.3389C109.632 59.6494 109.371 59.9453 109.055 60.2266C108.738 60.5078 108.349 60.7363 107.886 60.9121C107.429 61.0879 106.887 61.1758 106.26 61.1758ZM113.484 53.5205V61H111.858V51.4902H113.396L113.484 53.5205ZM113.098 55.8848L112.421 55.8584C112.427 55.208 112.523 54.6074 112.711 54.0566C112.898 53.5 113.162 53.0166 113.502 52.6064C113.842 52.1963 114.246 51.8799 114.715 51.6572C115.189 51.4287 115.714 51.3145 116.288 51.3145C116.757 51.3145 117.179 51.3789 117.554 51.5078C117.929 51.6309 118.248 51.8301 118.512 52.1055C118.781 52.3809 118.986 52.7383 119.127 53.1777C119.268 53.6113 119.338 54.1416 119.338 54.7686V61H117.703V54.751C117.703 54.2529 117.63 53.8545 117.483 53.5557C117.337 53.251 117.123 53.0312 116.842 52.8965C116.561 52.7559 116.215 52.6855 115.805 52.6855C115.4 52.6855 115.031 52.7705 114.697 52.9404C114.369 53.1104 114.085 53.3447 113.845 53.6436C113.61 53.9424 113.426 54.2852 113.291 54.6719C113.162 55.0527 113.098 55.457 113.098 55.8848Z" fill="url(#paint7_linear_1_5)"/>
</g>
<defs>
<linearGradient id="paint0_linear_1_5" x1="577.714" y1="9.00002" x2="254.462" y2="-212.058" gradientUnits="userSpaceOnUse">
<stop stop-color="#342C00"/>
<stop offset="1" stop-color="#624900"/>
</linearGradient>
<linearGradient id="paint1_linear_1_5" x1="420" y1="49" x2="636.808" y2="287.336" gradientUnits="userSpaceOnUse">
<stop offset="0.0459098" stop-color="#EBD559"/>
<stop offset="0.5" stop-color="#E8B00A"/>
<stop offset="1" stop-color="#E57D11"/>
</linearGradient>
<linearGradient id="paint2_linear_1_5" x1="444.766" y1="49.8226" x2="447.041" y2="74.7369" gradientUnits="userSpaceOnUse">
<stop stop-color="#EBD559"/>
<stop offset="0.5" stop-color="#E8B00A"/>
<stop offset="1" stop-color="#E57D11"/>
</linearGradient>
<linearGradient id="paint3_linear_1_5" x1="520.212" y1="92.8587" x2="557.203" y2="146.452" gradientUnits="userSpaceOnUse">
<stop stop-color="#E57D11"/>
<stop offset="0.5" stop-color="#E8B00A"/>
<stop offset="1" stop-color="#EBD559"/>
</linearGradient>
<linearGradient id="paint4_linear_1_5" x1="461.627" y1="19.2714" x2="488.235" y2="88.0963" gradientUnits="userSpaceOnUse">
<stop stop-color="#EBD559"/>
<stop offset="0.5" stop-color="#E8B00A"/>
<stop offset="1" stop-color="#E57D11"/>
</linearGradient>
<linearGradient id="paint5_linear_1_5" x1="530.947" y1="104.283" x2="538.53" y2="126.317" gradientUnits="userSpaceOnUse">
<stop stop-color="white"/>
<stop offset="1" stop-color="white"/>
</linearGradient>
<linearGradient id="paint6_linear_1_5" x1="22.3861" y1="20.9458" x2="38.8144" y2="68.6874" gradientUnits="userSpaceOnUse">
<stop stop-color="white"/>
<stop offset="1" stop-color="white"/>
</linearGradient>
<linearGradient id="paint7_linear_1_5" x1="72" y1="16" x2="82.8589" y2="82.6959" gradientUnits="userSpaceOnUse">
<stop stop-color="white"/>
<stop offset="1" stop-color="white"/>
</linearGradient>
<clipPath id="clip0_1_5">
<rect width="588" height="150" rx="18" fill="white"/>
</clipPath>
</defs>
</svg>
