<svg width="116" height="76" viewBox="0 0 116 76" fill="none" xmlns="http://www.w3.org/2000/svg">
<path opacity="0.2" d="M58 75.4988C90.0325 75.4988 116 66.6847 116 55.8119C116 44.9391 90.0325 36.125 58 36.125C25.9675 36.125 0 44.9391 0 55.8119C0 66.6847 25.9675 75.4988 58 75.4988Z" fill="black"/>
<path d="M110.968 42.6289L110.977 47.2409C110.977 47.2871 110.975 47.3351 110.974 47.3816C110.926 48.9576 109.988 50.3839 108.537 51.04C106.503 51.9599 104.095 52.6751 101.468 53.2023C100.652 53.3676 99.8166 53.5143 98.9642 53.6427C97.0893 53.9244 95.1331 54.121 93.1444 54.2375C92.4409 54.2789 91.7345 54.3097 91.0249 54.3311C88.3606 54.4102 85.6663 54.3534 83.0497 54.1713C81.8775 54.0885 80.7209 53.9809 79.5893 53.8485C76.686 53.5094 73.955 53.0091 71.5649 52.366C70.1929 51.9979 68.933 51.5829 67.8178 51.1231C67.3006 50.9107 66.8426 50.6042 66.4605 50.2294C65.7244 49.5062 65.2682 48.5258 65.2164 47.4661C65.2115 47.3996 65.2098 47.3334 65.2098 47.2669L65.2012 42.7137L110.968 42.6289Z" fill="#FDB748"/>
<path d="M110.975 47.3828C110.926 48.9589 109.989 50.3851 108.538 51.0412C105.873 52.2468 102.568 53.1011 98.9649 53.6439C96.4287 54.0241 93.7428 54.2498 91.0253 54.3323C88.361 54.4114 85.6667 54.3546 83.0501 54.1725C81.8779 54.0897 80.7213 53.9821 79.5896 53.8497C76.6864 53.5106 73.9553 53.0103 71.5653 52.3673C70.1933 51.9991 68.9334 51.5841 67.8182 51.1243C67.3009 50.9119 66.8429 50.6054 66.4608 50.2307C65.7248 49.5074 65.2685 48.527 65.2168 47.4673C66.1265 47.8811 67.0845 48.2659 68.0795 48.6178C69.8517 49.2448 71.7484 49.776 73.7291 50.2113C76.3698 50.7921 79.1595 51.2025 82.0007 51.4474C83.1821 51.5487 84.3747 51.6206 85.567 51.6649C88.3483 51.7679 91.142 51.7148 93.8561 51.5122C96.8034 51.2904 99.6586 50.8897 102.308 50.3131C105.583 49.6005 108.543 48.6215 110.975 47.3828Z" fill="#FF901E"/>
<path opacity="0.2" d="M81.2816 42.6836L73.7285 50.2096L71.5644 52.3659C70.1924 51.9977 68.9325 51.5828 67.8173 51.123C67.3001 50.9106 66.8421 50.6041 66.46 50.2293L68.0786 48.6165L74.0191 42.6973L81.2816 42.6836Z" fill="#FFEAA5"/>
<path opacity="0.2" d="M110.968 42.6289L110.97 43.7583L104.486 50.2192L101.468 53.202C100.652 53.3673 99.8167 53.514 98.9643 53.6424C97.0894 53.9241 95.1332 54.1208 93.1445 54.2372L96.0343 51.4185L104.843 42.6403L110.968 42.6289Z" fill="#FFEAA5"/>
<path opacity="0.2" d="M94.6011 42.6602L85.5659 51.6644L83.0493 54.172C81.8772 54.0892 80.7205 53.9816 79.5889 53.8492L81.9999 51.4469L90.8112 42.667L94.6011 42.6602Z" fill="#FFEAA5"/>
<path d="M110.968 42.5544C110.975 45.8889 100.735 48.6112 88.0961 48.6346C75.458 48.658 65.2072 45.9734 65.2012 42.6389C65.2012 42.5641 65.2055 42.4893 65.2178 42.4146C65.6569 39.1831 75.7188 36.5816 88.0734 36.5587C100.428 36.5359 110.5 39.1003 110.951 42.3301C110.963 42.4051 110.968 42.4799 110.968 42.5544Z" fill="#FFEAA5"/>
<path d="M106.375 42.562C106.375 42.6359 106.367 42.7101 106.357 42.7835C105.92 45.3431 97.8982 47.4035 88.0933 47.4214C78.2887 47.4397 70.2588 45.4087 69.8123 42.8508C69.802 42.7775 69.7942 42.7033 69.7939 42.6294C69.7891 39.9685 77.9894 37.7885 88.0749 37.7696C98.1607 37.7514 106.369 39.9008 106.375 42.562Z" fill="#FF901E"/>
<path d="M106.357 42.7864C105.92 45.346 97.8984 47.4064 88.0935 47.4244C87.8741 47.4249 87.657 47.4238 87.4402 47.4224C85.2532 47.4061 83.1627 47.2882 81.2332 47.085C79.3034 46.8818 77.537 46.5941 76 46.2388C75.6095 46.1486 75.2341 46.0544 74.8715 45.9553C73.2324 45.5053 71.9197 44.9715 71.043 44.3793C70.8309 44.2377 70.6443 44.0919 70.4858 43.944C70.1075 43.5953 69.8798 43.2299 69.8125 42.8538C70.2492 40.2942 78.2713 38.2332 88.0762 38.215C89.3165 38.2127 90.5287 38.2435 91.7028 38.3037C92.3 38.3343 92.8897 38.3728 93.4664 38.419C95.8223 38.6065 97.9769 38.9171 99.8227 39.3224C100.221 39.41 100.606 39.5022 100.977 39.5989C102.414 39.9734 103.617 40.4109 104.519 40.8947C105.397 41.3665 105.991 41.8811 106.242 42.4239C106.298 42.5435 106.336 42.6645 106.357 42.7864Z" fill="#FDB748"/>
<path opacity="0.2" d="M106.242 42.4241L87.4404 47.4219C85.2533 47.4056 83.1629 47.2878 81.2334 47.0846L104.519 40.8945C105.398 41.3663 105.991 41.8812 106.242 42.4241Z" fill="#FFEAA5"/>
<path opacity="0.2" d="M93.4659 38.4161L71.0425 44.3761C70.8304 44.2345 70.6438 44.0887 70.4854 43.9408L91.7024 38.3008C92.2995 38.3316 92.8892 38.3701 93.4659 38.4161Z" fill="#FFEAA5"/>
<path opacity="0.2" d="M100.976 39.5969L75.9996 46.2364C75.6091 46.1462 75.2336 46.0521 74.8711 45.953L99.8223 39.3203C100.22 39.4076 100.606 39.4998 100.976 39.5969Z" fill="#FFEAA5"/>
<path d="M97.4371 40.5731L91.3753 40.5842C91.904 40.7977 92.3364 41.0546 92.5676 41.3605L97.4385 41.3514L97.4403 42.2716L92.6095 42.2804C92.0239 43.1726 89.6295 43.6575 87.8058 43.8553C87.3016 43.9107 86.7573 43.9364 86.2128 43.9375L83.7531 43.9421L93.481 46.4897L88.9317 46.498L79.2039 43.9504L79.2021 43.0302L84.8804 43.0196C86.7205 43.0162 88.3159 42.714 88.9562 42.2867L79.7372 42.3038L79.7355 41.3839L88.949 41.3668C88.3607 40.9276 87.0727 40.6938 86.3591 40.5931L79.734 40.6053L79.7323 39.6852L97.4351 39.6523L97.4371 40.5731Z" fill="#FF5E00"/>
<path d="M97.4361 40.3769L91.3743 40.3881C91.903 40.6015 92.3354 40.8584 92.5666 41.1644L97.4376 41.1555L97.4393 42.0757L92.6086 42.0845C92.0229 42.9767 89.6285 43.4617 87.8049 43.6594C87.3006 43.7148 86.7563 43.7408 86.2118 43.7417L83.7522 43.7462L93.48 46.2938L88.931 46.3024L79.2029 43.7548L79.2012 42.8349L84.8795 42.8243C86.7195 42.8209 88.3149 42.5187 88.9552 42.0914L79.7362 42.1085L79.7345 41.1883L88.948 41.1712C88.3598 40.7323 87.0717 40.4982 86.3581 40.3975L79.7331 40.4097L79.7313 39.4899L97.4341 39.457L97.4361 40.3769Z" fill="#FF8400"/>
<path d="M103.438 35.6836L103.447 40.2956C103.447 40.3418 103.445 40.3898 103.444 40.4363C103.395 42.0123 102.458 43.4385 101.007 44.0947C98.973 45.0146 96.5651 45.7298 93.9373 46.257C93.1219 46.4222 92.2864 46.5689 91.4339 46.6974C89.5591 46.9791 87.6029 47.1757 85.6142 47.2922C84.9106 47.3336 84.2042 47.3644 83.4947 47.3858C80.8303 47.4649 78.1361 47.408 75.5194 47.226C74.3473 47.1432 73.1906 47.0356 72.059 46.9032C69.1557 46.5641 66.4247 46.0638 64.0346 45.4207C62.6626 45.0525 61.4028 44.6376 60.2875 44.1778C59.7703 43.9654 59.3123 43.6589 58.9302 43.2841C58.1942 42.5609 57.7379 41.5805 57.6861 40.5208C57.6813 40.4543 57.6795 40.388 57.6795 40.3215L57.6709 35.7684L103.438 35.6836Z" fill="#FDB748"/>
<path d="M103.443 40.4375C103.395 42.0135 102.458 43.4398 101.007 44.0959C98.3413 45.3015 95.0372 46.1557 91.4336 46.6986C88.8975 47.0788 86.2116 47.3045 83.4941 47.387C80.8297 47.4661 78.1355 47.4093 75.5189 47.2272C74.3467 47.1444 73.19 47.0368 72.0584 46.9044C69.1551 46.5653 66.4241 46.065 64.034 45.4219C62.662 45.0538 61.4022 44.6388 60.2869 44.179C59.7697 43.9666 59.3117 43.6601 58.9296 43.2853C58.1936 42.5621 57.7373 41.5817 57.6855 40.522C58.5952 40.9358 59.5532 41.3206 60.5483 41.6725C62.3205 42.2995 64.2172 42.8307 66.1978 43.2659C68.8386 43.8468 71.6283 44.2572 74.4692 44.5021C75.6505 44.6034 76.8431 44.6753 78.0354 44.7195C80.8168 44.8226 83.6105 44.7695 86.3246 44.5668C89.2718 44.3451 92.1271 43.9444 94.7768 43.3678C98.0515 42.6554 101.012 41.6765 103.443 40.4375Z" fill="#FF901E"/>
<path opacity="0.2" d="M73.7513 35.7383L66.1982 43.2643L64.0341 45.4206C62.6621 45.0524 61.4023 44.6374 60.287 44.1776C59.7698 43.9653 59.3118 43.6588 58.9297 43.284L60.5484 41.6712L66.4889 35.752L73.7513 35.7383Z" fill="#FFEAA5"/>
<path opacity="0.2" d="M103.438 35.6836L103.44 36.813L96.9559 43.2739L93.9374 46.2567C93.122 46.422 92.2865 46.5687 91.434 46.6971C89.5592 46.9788 87.603 47.1754 85.6143 47.2919L88.504 44.4732L97.3124 35.695L103.438 35.6836Z" fill="#FFEAA5"/>
<path opacity="0.2" d="M87.0709 35.7148L78.0356 44.719L75.519 47.2267C74.3469 47.1439 73.1902 47.0363 72.0586 46.9039L74.4696 44.5016L83.2812 35.7217L87.0709 35.7148Z" fill="#FFEAA5"/>
<path d="M103.437 35.6091C103.443 38.9436 93.204 41.6658 80.5648 41.6892C67.9268 41.7126 57.676 39.0283 57.6699 35.6936C57.6696 35.6188 57.6742 35.544 57.6866 35.4692C58.1256 32.2378 68.1876 29.6363 80.5421 29.6134C92.8967 29.5906 102.968 32.155 103.419 35.3848C103.432 35.4598 103.437 35.5343 103.437 35.6091Z" fill="#FFEAA5"/>
<path d="M98.844 35.6167C98.8443 35.6906 98.8365 35.7648 98.8265 35.8382C98.3897 38.3978 90.3677 40.4581 80.5627 40.4761C70.7581 40.4941 62.7283 38.4634 62.2818 35.9055C62.2714 35.8322 62.2637 35.758 62.2637 35.6841C62.2588 33.0232 70.4594 30.8432 80.5446 30.8243C90.6304 30.8061 98.8391 32.9555 98.844 35.6167Z" fill="#FF901E"/>
<path d="M98.8269 35.8375C98.3902 38.3971 90.3681 40.4575 80.5632 40.4754C80.3438 40.4757 80.1267 40.4749 79.91 40.4732C77.7229 40.4569 75.6324 40.339 73.7029 40.1358C71.7732 39.9326 70.0067 39.6449 68.4697 39.2895C68.079 39.1994 67.7038 39.1052 67.3412 39.0061C65.7021 38.556 64.3894 38.0223 63.5128 37.4301C63.3006 37.2885 63.114 37.1427 62.9556 36.9948C62.5772 36.6461 62.3495 36.281 62.2822 35.9046C62.719 33.345 70.741 31.284 80.5459 31.2657C81.7862 31.2635 82.9984 31.2943 84.1726 31.3545C84.7697 31.385 85.3594 31.4236 85.9361 31.4698C88.292 31.6573 90.4463 31.9679 92.2924 32.3731C92.6906 32.4605 93.0761 32.5527 93.4464 32.6497C94.884 33.0242 96.0866 33.4617 96.9886 33.9455C97.8672 34.4173 98.4603 34.9319 98.7116 35.4747C98.7677 35.5946 98.8062 35.7156 98.8269 35.8375Z" fill="#FDB748"/>
<path opacity="0.2" d="M98.7115 35.4787L79.9101 40.4766C77.7231 40.4603 75.6326 40.3425 73.7031 40.1392L96.9887 33.9492C97.8674 34.421 98.4605 34.9356 98.7115 35.4787Z" fill="#FFEAA5"/>
<path opacity="0.2" d="M85.9357 31.4708L63.5123 37.4308C63.3001 37.2892 63.1135 37.1433 62.9551 36.9955L84.1721 31.3555C84.7692 31.386 85.3589 31.4248 85.9357 31.4708Z" fill="#FFEAA5"/>
<path opacity="0.2" d="M93.446 32.6516L68.4693 39.2911C68.0786 39.2009 67.7034 39.1067 67.3408 39.0077L92.292 32.375C92.6902 32.4626 93.0757 32.5548 93.446 32.6516Z" fill="#FFEAA5"/>
<path d="M89.9065 33.6278L83.8447 33.6389C84.3734 33.8524 84.8058 34.1093 85.037 34.4152L89.908 34.4064L89.9097 35.3263L85.079 35.3351C84.4933 36.2273 82.0989 36.7122 80.2753 36.91C79.771 36.9654 79.2267 36.9914 78.6822 36.9922L76.2226 36.9968L85.9504 39.5444L81.4015 39.5527L71.6736 37.0051L71.6719 36.0852L77.3502 36.0746C79.1902 36.0712 80.7856 35.7689 81.4259 35.3417L72.2069 35.3588L72.2052 34.4386L81.4187 34.4215C80.8305 33.9823 79.5424 33.7485 78.8288 33.6477L72.2038 33.66L72.202 32.7399L89.9048 32.707L89.9065 33.6278Z" fill="#FF5E00"/>
<path d="M89.9056 33.4316L83.8437 33.4427C84.3725 33.6562 84.8049 33.9131 85.036 34.2191L89.907 34.2099L89.9087 35.1301L85.078 35.1389C84.4923 36.0311 82.098 36.5161 80.2743 36.7141C79.77 36.7695 79.2258 36.7952 78.6812 36.7963L76.2216 36.8009L85.9494 39.3485L81.4005 39.3571L71.6726 36.8095L71.6709 35.8896L77.3492 35.879C79.1893 35.8756 80.7846 35.5733 81.4249 35.1461L72.206 35.1632L72.2042 34.2433L81.4177 34.2262C80.8295 33.7872 79.5415 33.5532 78.8279 33.4524L72.2028 33.4647L72.2011 32.5445L89.9038 32.5117L89.9056 33.4316Z" fill="#FF8400"/>
<path d="M111.941 28.2891L111.95 32.901C111.95 32.9473 111.948 32.9952 111.947 33.0418C111.898 34.6178 110.961 36.044 109.51 36.7002C107.476 37.6201 105.068 38.3353 102.44 38.8625C101.625 39.0277 100.789 39.1744 99.9368 39.3028C98.062 39.5843 96.1058 39.7812 94.1171 39.8976C93.4136 39.939 92.7071 39.9699 91.9976 39.9913C89.3332 40.0703 86.639 40.0135 84.0224 39.8314C82.8502 39.7487 81.6935 39.6411 80.5619 39.5086C77.6586 39.1696 74.9276 38.6692 72.5375 38.0262C71.1655 37.658 69.9057 37.243 68.7904 36.7832C68.2732 36.5709 67.8152 36.2643 67.4331 35.8896C66.6971 35.1664 66.2408 34.186 66.1891 33.1262C66.1842 33.0597 66.1825 32.9932 66.1825 32.927L66.1738 28.3738L111.941 28.2891Z" fill="#FDB748"/>
<path d="M111.948 33.043C111.9 34.619 110.962 36.0452 109.512 36.7014C106.846 37.907 103.542 38.7612 99.9385 39.3041C97.4024 39.6842 94.7165 39.91 91.9989 39.9925C89.3346 40.0715 86.6404 40.0147 84.0237 39.8326C82.8516 39.7499 81.6949 39.6423 80.5633 39.5098C77.66 39.1708 74.929 38.6704 72.5389 38.0274C71.1669 37.6592 69.9071 37.2442 68.7918 36.7844C68.2746 36.5721 67.8166 36.2656 67.4345 35.8908C66.6985 35.1676 66.2422 34.1872 66.1904 33.1274C67.1001 33.5413 68.0581 33.9257 69.0532 34.2779C70.8254 34.905 72.7223 35.4362 74.7027 35.8711C77.3435 36.4519 80.1332 36.8624 82.974 37.1072C84.1554 37.2086 85.348 37.2805 86.54 37.3247C89.3214 37.4278 92.1151 37.3747 94.8292 37.172C97.7764 36.9503 100.632 36.5495 103.281 35.973C106.556 35.2609 109.516 34.2819 111.948 33.043Z" fill="#FF901E"/>
<path opacity="0.2" d="M82.2543 28.3438L74.7011 35.8698L72.537 38.0261C71.1651 37.6579 69.9052 37.2429 68.7899 36.7831C68.2727 36.5708 67.8147 36.2642 67.4326 35.8895L69.0513 34.2766L74.9918 28.3575L82.2543 28.3438Z" fill="#FFEAA5"/>
<path opacity="0.2" d="M111.941 28.2891L111.943 29.4184L105.459 35.8796L102.44 38.8625C101.625 39.0277 100.789 39.1744 99.9369 39.3028C98.0621 39.5843 96.1059 39.7812 94.1172 39.8976L97.0069 37.0789L105.815 28.3008L111.941 28.2891Z" fill="#FFEAA5"/>
<path opacity="0.2" d="M95.5738 28.3203L86.5385 37.3245L84.022 39.8321C82.8498 39.7494 81.6932 39.6418 80.5615 39.5093L82.9726 37.107L91.7841 28.3272L95.5738 28.3203Z" fill="#FFEAA5"/>
<path d="M111.94 28.2146C111.946 31.549 101.707 34.2713 89.0677 34.2947C76.4297 34.3181 66.1789 31.6338 66.1729 28.299C66.1729 28.2243 66.1772 28.1495 66.1895 28.0747C66.6285 24.8433 76.6905 22.2417 89.045 22.2189C101.4 22.1961 111.471 24.7605 111.922 27.9902C111.935 28.065 111.94 28.1398 111.94 28.2146Z" fill="#FFEAA5"/>
<path d="M107.347 28.2222C107.347 28.2961 107.339 28.3703 107.329 28.4436C106.893 31.0032 98.8706 33.0636 89.0657 33.0816C79.2611 33.0999 71.2312 31.0689 70.7847 28.511C70.7744 28.4377 70.7666 28.3637 70.7666 28.2895C70.7617 25.6286 78.962 23.4486 89.0476 23.4298C99.1334 23.4113 107.342 25.561 107.347 28.2222Z" fill="#FF901E"/>
<path d="M107.329 28.4429C106.892 31.0025 98.87 33.0629 89.0651 33.0809C88.8458 33.0812 88.6287 33.0803 88.4119 33.0786C86.2248 33.0623 84.1346 32.9445 82.2049 32.7413C80.2751 32.538 78.5087 32.2503 76.9717 31.895C76.5809 31.8048 76.2057 31.7106 75.8432 31.6116C74.2041 31.1615 72.8913 30.6278 72.0147 30.0355C71.8025 29.894 71.6159 29.7481 71.4575 29.6003C71.0792 29.2515 70.8515 28.8865 70.7842 28.51C71.2209 25.9504 79.243 23.8895 89.0479 23.8712C90.2882 23.8689 91.5003 23.8997 92.6745 23.96C93.2717 23.9905 93.8613 24.029 94.4381 24.0753C96.7939 24.2628 98.9485 24.5733 100.794 24.9786C101.193 25.0659 101.578 25.1581 101.948 25.2552C103.386 25.6296 104.589 26.0672 105.491 26.5509C106.369 27.0227 106.962 27.5373 107.214 28.0802C107.27 28.1998 107.308 28.3211 107.329 28.4429Z" fill="#FDB748"/>
<path opacity="0.2" d="M107.214 28.0842L88.4131 33.0821C86.226 33.0658 84.1358 32.9479 82.2061 32.7447L105.492 26.5547C106.37 27.0268 106.963 27.5414 107.214 28.0842Z" fill="#FFEAA5"/>
<path opacity="0.2" d="M94.4386 24.076L72.0152 30.0362C71.803 29.8947 71.6164 29.7488 71.458 29.601L92.675 23.9609C93.2722 23.9912 93.8616 24.0297 94.4386 24.076Z" fill="#FFEAA5"/>
<path opacity="0.2" d="M101.948 25.257L76.9713 31.8966C76.5805 31.8064 76.2053 31.7122 75.8428 31.6132L100.794 24.9805C101.192 25.0678 101.578 25.16 101.948 25.257Z" fill="#FFEAA5"/>
<path d="M98.4088 26.233L92.3469 26.2441C92.8757 26.4576 93.3081 26.7144 93.5392 27.0204L98.4102 27.0116L98.4119 27.9317L93.5812 27.9406C92.9956 28.8328 90.6012 29.3177 88.7775 29.5155C88.2732 29.5708 87.729 29.5968 87.1844 29.5977L84.7248 29.6022L94.4527 32.1498L89.9037 32.1581L80.1755 29.6105L80.1738 28.6904L85.8521 28.6798C87.6922 28.6764 89.2876 28.3741 89.9278 27.9469L80.7089 27.964L80.7072 27.0441L89.9207 27.027C89.3324 26.5877 88.0444 26.354 87.3308 26.2532L80.7057 26.2655L80.704 25.3453L98.4068 25.3125L98.4088 26.233Z" fill="#FF5E00"/>
<path d="M98.4085 26.0379L92.3467 26.0491C92.8754 26.2625 93.3078 26.5194 93.539 26.8254L98.4099 26.8165L98.4117 27.7364L93.5809 27.7453C92.9953 28.6375 90.6009 29.1224 88.7772 29.3202C88.2729 29.3755 87.7287 29.4012 87.1842 29.4024L84.7245 29.4069L94.4524 31.9545L89.9034 31.9628L80.1755 29.4152L80.1738 28.495L85.8521 28.4845C87.6922 28.4811 89.2876 28.1788 89.9278 27.7515L80.7089 27.7687L80.7072 26.8488L89.9207 26.8317C89.3324 26.3924 88.0444 26.1587 87.3308 26.0579L80.7057 26.0702L80.704 25.15L98.4068 25.1172L98.4085 26.0379Z" fill="#FF8400"/>
<path d="M103.413 20.9297L103.421 25.5417C103.421 25.5879 103.42 25.6358 103.418 25.6824C103.37 27.2584 102.432 28.6846 100.982 29.3408C98.9476 30.2607 96.5397 30.9759 93.9119 31.5031C93.0965 31.6683 92.261 31.815 91.4085 31.9435C89.5337 32.2249 87.5775 32.4218 85.5888 32.5383C84.8852 32.5797 84.1788 32.6105 83.4693 32.6319C80.8049 32.7109 78.1107 32.6541 75.494 32.4721C74.3219 32.3893 73.1652 32.2817 72.0336 32.1493C69.1303 31.8099 66.3993 31.3099 64.0092 30.6668C62.6372 30.2986 61.3774 29.8836 60.2621 29.4238C59.7449 29.2115 59.2869 28.905 58.9048 28.5302C58.1688 27.807 57.7125 26.8266 57.6607 25.7669C57.6559 25.7004 57.6541 25.6339 57.6541 25.5676L57.6455 21.0145L103.413 20.9297Z" fill="#FDB748"/>
<path d="M103.418 25.6836C103.37 27.2596 102.432 28.6859 100.981 29.342C98.3159 30.5476 95.0119 31.4018 91.4082 31.9447C88.8721 32.3249 86.1862 32.5506 83.4687 32.6331C80.8043 32.7122 78.1101 32.6554 75.4935 32.4733C74.3213 32.3905 73.1646 32.2829 72.033 32.1505C69.1297 31.8111 66.3987 31.3111 64.0086 30.668C62.6366 30.2999 61.3768 29.8849 60.2615 29.4251C59.7443 29.2127 59.2863 28.9062 58.9042 28.5314C58.1682 27.8082 57.7119 26.8278 57.6602 25.7681C58.5698 26.1819 59.5278 26.5664 60.5229 26.9186C62.2954 27.5456 64.1921 28.0768 66.1724 28.5118C68.8132 29.0926 71.6029 29.503 74.4438 29.7479C75.6251 29.8492 76.8177 29.9211 78.01 29.9654C80.7914 30.0684 83.5851 30.0153 86.2992 29.8127C89.2464 29.5909 92.1017 29.1902 94.7514 28.6136C98.0264 27.9013 100.986 26.9226 103.418 25.6836Z" fill="#FF901E"/>
<path opacity="0.2" d="M73.7259 20.9844L66.1728 28.5104L64.0087 30.6667C62.6367 30.2985 61.3769 29.8835 60.2616 29.4237C59.7444 29.2114 59.2864 28.9049 58.9043 28.5301L60.523 26.9173L66.4635 20.9981L73.7259 20.9844Z" fill="#FFEAA5"/>
<path opacity="0.2" d="M103.413 20.9297L103.415 22.0591L96.9305 28.5199L93.912 31.5028C93.0966 31.668 92.2611 31.8147 91.4086 31.9432C89.5338 32.2246 87.5776 32.4215 85.5889 32.538L88.4783 29.7192L97.2867 20.9411L103.413 20.9297Z" fill="#FFEAA5"/>
<path opacity="0.2" d="M87.0455 20.9609L78.0102 29.9651L75.4937 32.4728C74.3215 32.39 73.1648 32.2824 72.0332 32.15L74.4442 29.7477L83.2558 20.9678L87.0455 20.9609Z" fill="#FFEAA5"/>
<path d="M103.412 20.8552C103.418 24.1897 93.1789 26.9119 80.5394 26.9353C67.9014 26.9587 57.6509 24.2744 57.6445 20.9397C57.6443 20.8649 57.6489 20.7901 57.6612 20.7153C58.1002 17.4839 68.1622 14.8824 80.5167 14.8595C92.8713 14.8367 102.943 17.4011 103.394 20.6309C103.407 20.7056 103.412 20.7804 103.412 20.8552Z" fill="#FFEAA5"/>
<path d="M98.8189 20.8628C98.8192 20.9367 98.8114 21.0109 98.8013 21.0843C98.3646 23.6438 90.3425 25.7042 80.5376 25.7222C70.733 25.7405 62.7032 23.7095 62.2567 21.1516C62.2463 21.0783 62.2386 21.0041 62.2383 20.9301C62.2334 18.269 70.4337 16.0893 80.5192 16.0704C90.605 16.0522 98.8137 18.2019 98.8189 20.8628Z" fill="#FF901E"/>
<path d="M98.8015 21.0836C98.3648 23.6432 90.3427 25.7035 80.5378 25.7215C80.3184 25.7218 80.1013 25.721 79.8846 25.7192C77.6975 25.703 75.6073 25.5851 73.6775 25.3819C71.7478 25.1787 69.9813 24.891 68.4443 24.5356C68.0536 24.4454 67.6784 24.3513 67.3158 24.2522C65.6768 23.8021 64.364 23.2684 63.4874 22.6762C63.2752 22.5346 63.0886 22.3888 62.9302 22.2409C62.5518 21.8921 62.3241 21.5268 62.2568 21.1506C62.6936 18.5911 70.7156 16.5301 80.5205 16.5118C81.7609 16.5096 82.973 16.5404 84.1472 16.6006C84.7443 16.6311 85.334 16.6697 85.9108 16.7159C88.2666 16.9034 90.4212 17.214 92.267 17.6192C92.6652 17.7066 93.0507 17.799 93.4211 17.8958C94.8586 18.2703 96.0612 18.7078 96.9632 19.1916C97.8418 19.6634 98.4349 20.178 98.6862 20.7208C98.7423 20.8407 98.7808 20.962 98.8015 21.0836Z" fill="#FDB748"/>
<path opacity="0.2" d="M98.6854 20.7248L79.8838 25.7227C77.6967 25.7064 75.6065 25.5886 73.6768 25.3853L96.9624 19.1953C97.8413 19.6671 98.4344 20.182 98.6854 20.7248Z" fill="#FFEAA5"/>
<path opacity="0.2" d="M85.9103 16.7166L63.4869 22.6769C63.2747 22.5353 63.0881 22.3894 62.9297 22.2416L84.1467 16.6016C84.7438 16.6318 85.3335 16.6703 85.9103 16.7166Z" fill="#FFEAA5"/>
<path opacity="0.2" d="M93.4206 17.8977L68.4439 24.5372C68.0532 24.447 67.678 24.3528 67.3154 24.2538L92.2666 17.6211C92.6648 17.7084 93.0503 17.8006 93.4206 17.8977Z" fill="#FFEAA5"/>
<path d="M89.8812 18.8736L83.8193 18.8847C84.348 19.0982 84.7805 19.3551 85.0116 19.661L89.8826 19.6522L89.8843 20.5721L85.0536 20.5809C84.4679 21.4731 82.0736 21.958 80.2499 22.1558C79.7456 22.2112 79.2014 22.2372 78.6568 22.238L76.1972 22.2426L85.9253 24.7902L81.3761 24.7985L71.6482 22.2509L71.6465 21.3307L77.3248 21.3201C79.1648 21.3167 80.7602 21.0145 81.4005 20.5872L72.1815 20.6043L72.1798 19.6844L81.3933 19.6673C80.8051 19.2281 79.517 18.9943 78.8034 18.8936L72.1784 18.9058L72.1766 17.9859L89.8794 17.9531L89.8812 18.8736Z" fill="#FF5E00"/>
<path d="M89.8805 18.6777L83.8186 18.6888C84.3474 18.9023 84.7798 19.1592 85.0109 19.4651L89.8819 19.4563L89.8836 20.3762L85.0529 20.385C84.4673 21.2772 82.0729 21.7621 80.2492 21.9602C79.7449 22.0156 79.2007 22.0416 78.6561 22.0424L76.1965 22.047L85.9243 24.5946L81.3751 24.6031L71.6472 22.0556L71.6455 21.1357L77.3238 21.1251C79.1639 21.1217 80.7593 20.8194 81.3995 20.3922L72.1806 20.4093L72.1788 19.4894L81.3923 19.4723C80.8041 19.0333 79.5161 18.7993 78.8025 18.6985L72.1774 18.7108L72.1757 17.7906L89.8785 17.7578L89.8805 18.6777Z" fill="#FF8400"/>
<path d="M108.682 13.9609L108.691 18.5729C108.691 18.6192 108.689 18.6671 108.688 18.7136C108.64 20.2897 107.702 21.7159 106.251 22.372C104.217 23.2919 101.809 24.0072 99.1814 24.5343C98.366 24.6996 97.5305 24.8463 96.6781 24.9747C94.8032 25.2564 92.847 25.4531 90.8583 25.5695C90.1548 25.6109 89.4484 25.6417 88.7388 25.6631C86.0744 25.7422 83.3802 25.6854 80.7636 25.5033C79.5914 25.4205 78.4348 25.3129 77.3031 25.1805C74.3999 24.8414 71.6688 24.3411 69.2788 23.6981C67.9068 23.3299 66.6469 22.9149 65.5317 22.4551C65.0144 22.2428 64.5564 21.9362 64.1743 21.5615C63.4383 20.8382 62.982 19.8578 62.9303 18.7981C62.9254 18.7316 62.9237 18.6654 62.9237 18.5989L62.915 14.0457L108.682 13.9609Z" fill="#FDB748"/>
<path d="M108.69 18.7148C108.641 20.2909 107.704 21.7171 106.253 22.3733C103.587 23.5788 100.283 24.4331 96.6797 24.9757C94.1436 25.3558 91.4577 25.5816 88.7402 25.6641C86.0758 25.7431 83.3816 25.6863 80.7649 25.5042C79.5928 25.4215 78.4361 25.3139 77.3045 25.1814C74.4012 24.8424 71.6702 24.342 69.2801 23.699C67.9081 23.3308 66.6483 22.9158 65.533 22.456C65.0158 22.2437 64.5578 21.9372 64.1757 21.5624C63.4397 20.8392 62.9834 19.8588 62.9316 18.799C63.8413 19.2129 64.7993 19.5973 65.7944 19.9495C67.5666 20.5766 69.4636 21.1077 71.4439 21.543C74.0847 22.1238 76.8744 22.5342 79.7153 22.7791C80.8966 22.8804 82.0892 22.9524 83.2815 22.9966C86.0629 23.0996 88.8566 23.0466 91.5707 22.8439C94.5179 22.6221 97.3732 22.2214 100.023 21.6449C103.298 20.9328 106.257 19.9538 108.69 18.7148Z" fill="#FF901E"/>
<path opacity="0.2" d="M78.9955 14.0156L71.4423 21.5417L69.2783 23.698C67.9063 23.3298 66.6464 22.9148 65.5312 22.455C65.0139 22.2426 64.5559 21.9361 64.1738 21.5614L65.7925 19.9485L71.733 14.0293L78.9955 14.0156Z" fill="#FFEAA5"/>
<path opacity="0.2" d="M108.681 13.9609L108.683 15.0903L102.199 21.5512L99.1805 24.534C98.3651 24.6993 97.5296 24.846 96.6772 24.9744C94.8023 25.2561 92.8461 25.4528 90.8574 25.5692L93.7472 22.7505L102.556 13.9724L108.681 13.9609Z" fill="#FFEAA5"/>
<path opacity="0.2" d="M92.315 13.9922L83.2798 22.9964L80.7632 25.504C79.591 25.4212 78.4344 25.3136 77.3027 25.1812L79.7138 22.7789L88.5254 13.999L92.315 13.9922Z" fill="#FFEAA5"/>
<path d="M108.681 13.8864C108.687 17.2209 98.4484 19.9432 85.809 19.9666C73.1709 19.99 62.9201 17.3054 62.9141 13.9709C62.9138 13.8961 62.9184 13.8214 62.9307 13.7466C63.3698 10.5151 73.4317 7.91361 85.7865 7.89078C98.1411 7.86794 108.213 10.4324 108.664 13.6621C108.676 13.7369 108.681 13.8117 108.681 13.8864Z" fill="#FFEAA5"/>
<path d="M104.088 13.894C104.088 13.968 104.081 14.0422 104.071 14.1155C103.634 16.6751 95.6118 18.7355 85.8069 18.7535C76.0023 18.7715 67.9724 16.7407 67.5259 14.1829C67.5156 14.1095 67.5078 14.0353 67.5078 13.9614C67.5029 11.3002 75.7033 9.12052 85.7888 9.10168C95.8746 9.08341 104.083 11.2331 104.088 13.894Z" fill="#FF901E"/>
<path d="M104.07 14.1148C103.633 16.6744 95.6113 18.7348 85.8063 18.7528C85.587 18.7531 85.3699 18.7522 85.1531 18.7505C82.966 18.7342 80.8756 18.6164 78.9461 18.4131C77.0163 18.2099 75.2499 17.9222 73.7129 17.5669C73.3224 17.4767 72.9469 17.3825 72.5844 17.2835C70.9453 16.8334 69.6325 16.2997 68.7559 15.7074C68.5437 15.5659 68.3571 15.42 68.1987 15.2722C67.8204 14.9234 67.5927 14.5581 67.5254 14.1819C67.9621 11.6223 75.9842 9.56135 85.7891 9.54309C87.0294 9.5408 88.2415 9.57163 89.4157 9.63185C90.0129 9.66239 90.6026 9.70092 91.1793 9.74716C93.5352 9.93467 95.6897 10.2452 97.5355 10.6505C97.9337 10.7381 98.3193 10.8303 98.6896 10.9271C100.127 11.3015 101.33 11.7391 102.232 12.2228C103.11 12.6946 103.703 13.2092 103.955 13.7521C104.011 13.8717 104.05 13.993 104.07 14.1148Z" fill="#FDB748"/>
<path opacity="0.2" d="M103.956 13.7561L85.1543 18.7539C82.9672 18.7377 80.8767 18.6198 78.9473 18.4166L102.233 12.2266C103.112 12.6986 103.704 13.2132 103.956 13.7561Z" fill="#FFEAA5"/>
<path opacity="0.2" d="M91.1798 9.74812L68.7564 15.7081C68.5442 15.5665 68.3576 15.4207 68.1992 15.2728L89.4162 9.63281C90.0134 9.66335 90.6028 9.70188 91.1798 9.74812Z" fill="#FFEAA5"/>
<path opacity="0.2" d="M98.6892 10.9289L73.7125 17.5685C73.322 17.4783 72.9465 17.3841 72.584 17.285L97.5351 10.6523C97.9336 10.7397 98.3192 10.8319 98.6892 10.9289Z" fill="#FFEAA5"/>
<path d="M95.15 11.9048L89.0882 11.916C89.6169 12.1294 90.0493 12.3863 90.2805 12.6923L95.1514 12.6834L95.1532 13.6033L90.3224 13.6122C89.7368 14.5044 87.3424 14.9893 85.5187 15.1871C85.0144 15.2424 84.4702 15.2684 83.9257 15.2693L81.466 15.2738L91.1939 17.8214L86.6449 17.8297L76.9168 15.2821L76.915 14.3619L82.5933 14.3514C84.4334 14.348 86.0288 14.0457 86.6691 13.6184L77.4501 13.6356L77.4484 12.7157L86.6619 12.6986C86.0736 12.2593 84.7856 12.0256 84.072 11.9248L77.4469 11.9371L77.4452 11.0172L95.148 10.9844L95.15 11.9048Z" fill="#FF5E00"/>
<path d="M95.1497 11.7092L89.0879 11.7204C89.6166 11.9339 90.049 12.1907 90.2802 12.4967L95.1511 12.4876L95.1529 13.4074L90.3221 13.4163C89.7365 14.3085 87.3421 14.7934 85.5184 14.9915C85.0142 15.0468 84.4699 15.0728 83.9254 15.0737L81.4657 15.0782L91.1939 17.6258L86.6446 17.6341L76.9168 15.0865L76.915 14.1666L82.5933 14.1561C84.4334 14.1526 86.0288 13.8504 86.6691 13.4231L77.4501 13.4403L77.4484 12.5204L86.6619 12.5032C86.0736 12.0643 84.7856 11.8302 84.072 11.7295L77.4469 11.7418L77.4452 10.8219L95.148 10.7891L95.1497 11.7092Z" fill="#FF8400"/>
<path d="M115.134 6.57031L115.143 11.1823C115.143 11.2285 115.141 11.2765 115.14 11.323C115.092 12.899 114.154 14.3253 112.703 14.9814C110.669 15.9013 108.261 16.6165 105.634 17.1437C104.818 17.309 103.983 17.4557 103.13 17.5841C101.255 17.8655 99.2991 18.0624 97.3104 18.1789C96.6069 18.2203 95.9005 18.2511 95.1909 18.2725C92.5266 18.3516 89.8323 18.2948 87.2157 18.1127C86.0436 18.0299 84.8869 17.9223 83.7553 17.7899C80.852 17.4505 78.121 16.9505 75.7309 16.3074C74.3589 15.9393 73.099 15.5243 71.9838 15.0645C71.4666 14.8521 71.0086 14.5456 70.6265 14.1708C69.8904 13.4476 69.4342 12.4672 69.3824 11.4075C69.3775 11.341 69.3758 11.2748 69.3758 11.2083L69.3672 6.65508L115.134 6.57031Z" fill="#FDB748"/>
<path d="M115.141 11.3242C115.092 12.9003 114.155 14.3265 112.704 14.9826C110.039 16.1879 106.735 17.0425 103.131 17.5853C100.595 17.9655 97.9089 18.1912 95.1913 18.2737C92.527 18.3528 89.8327 18.296 87.2161 18.1139C86.0439 18.0311 84.8873 17.9235 83.7557 17.7911C80.8524 17.4517 78.1214 16.9517 75.7313 16.3087C74.3593 15.9405 73.0994 15.5255 71.9842 15.0657C71.467 14.8533 71.009 14.5468 70.6269 14.1721C69.8908 13.4488 69.4346 12.4684 69.3828 11.4087C70.2925 11.8226 71.2505 12.2073 72.2455 12.5592C74.0177 13.1863 75.9147 13.7174 77.8951 14.1524C80.5359 14.7332 83.3255 15.1436 86.1667 15.3885C87.3481 15.4898 88.5407 15.5617 89.733 15.606C92.5143 15.709 95.3081 15.6559 98.0221 15.4533C100.969 15.2315 103.825 14.8308 106.474 14.2543C109.749 13.5419 112.709 12.5632 115.141 11.3242Z" fill="#FF901E"/>
<path opacity="0.2" d="M85.4476 6.625L77.8945 14.151L75.7304 16.3073C74.3584 15.9392 73.0986 15.5242 71.9833 15.0644C71.4661 14.852 71.0081 14.5455 70.626 14.1707L72.2447 12.5579L78.1852 6.6387L85.4476 6.625Z" fill="#FFEAA5"/>
<path opacity="0.2" d="M115.134 6.57031L115.136 7.69969L108.652 14.1606L105.634 17.1434C104.818 17.3087 103.983 17.4554 103.13 17.5838C101.255 17.8652 99.2992 18.0622 97.3105 18.1786L100.2 15.3599L109.009 6.58173L115.134 6.57031Z" fill="#FFEAA5"/>
<path opacity="0.2" d="M98.7672 6.60156L89.7319 15.6058L87.2153 18.1134C86.0432 18.0306 84.8865 17.923 83.7549 17.7906L86.1659 15.3883L94.9772 6.60841L98.7672 6.60156Z" fill="#FFEAA5"/>
<path d="M115.133 6.49581C115.14 9.83029 104.901 12.5526 92.2611 12.576C79.6231 12.5994 69.3723 9.91477 69.3662 6.58029C69.3659 6.50551 69.3705 6.43074 69.3829 6.35596C69.8219 3.12452 79.8839 0.522984 92.2384 0.500151C104.593 0.477318 114.665 3.04175 115.116 6.27148C115.128 6.34625 115.133 6.42104 115.133 6.49581Z" fill="#FFEAA5"/>
<path d="M110.54 6.50341C110.54 6.57762 110.532 6.65154 110.522 6.7249C110.085 9.28447 102.063 11.3449 92.2583 11.3628C82.4537 11.3811 74.4239 9.35012 73.9774 6.79225C73.967 6.7189 73.9593 6.6447 73.959 6.57077C73.9541 3.90959 82.1544 1.72989 92.2399 1.71105C102.326 1.69279 110.535 3.84251 110.54 6.50341Z" fill="#FF901E"/>
<path d="M110.522 6.7242C110.085 9.28378 102.063 11.3442 92.2585 11.3622C92.0391 11.3624 91.8221 11.3616 91.6053 11.3599C89.4182 11.3436 87.3277 11.2257 85.3982 11.0225C83.4685 10.8193 81.702 10.5316 80.165 10.1763C79.7746 10.0861 79.3991 9.99189 79.0365 9.89285C77.3974 9.44275 76.0847 8.90904 75.2081 8.3168C74.9959 8.17524 74.8093 8.02939 74.6509 7.88155C74.2725 7.53277 74.0448 7.16773 73.9775 6.79127C74.4143 4.23169 82.4363 2.17073 92.2412 2.15246C93.4816 2.15018 94.6937 2.181 95.8679 2.24151C96.465 2.27205 97.0547 2.31058 97.6315 2.35682C99.9873 2.54433 102.142 2.85486 103.988 3.26015C104.386 3.34748 104.771 3.43996 105.142 3.53671C106.579 3.91118 107.782 4.34871 108.684 4.83249C109.562 5.30427 110.156 5.81887 110.407 6.36173C110.463 6.48103 110.502 6.60233 110.522 6.7242Z" fill="#FDB748"/>
<path opacity="0.2" d="M110.408 6.36546L91.6064 11.3633C89.4194 11.3471 87.3289 11.2292 85.3994 11.026L108.685 4.83594C109.564 5.30801 110.157 5.82261 110.408 6.36546Z" fill="#FFEAA5"/>
<path opacity="0.2" d="M97.6319 2.35749L75.2086 8.31748C74.9964 8.17591 74.8098 8.03007 74.6514 7.88222L95.8684 2.24219C96.4655 2.27273 97.0552 2.31125 97.6319 2.35749Z" fill="#FFEAA5"/>
<path opacity="0.2" d="M105.142 3.53828L80.1656 10.1778C79.7751 10.0876 79.3997 9.99346 79.0371 9.89442L103.988 3.26172C104.386 3.34905 104.772 3.44124 105.142 3.53828Z" fill="#FFEAA5"/>
<path d="M101.603 4.51449L95.541 4.52562C96.0697 4.73911 96.5021 4.99598 96.7333 5.30194L101.604 5.29281L101.606 6.21269L96.7753 6.22154C96.1896 7.11374 93.7952 7.59866 91.9716 7.79645C91.4673 7.85182 90.923 7.87779 90.3785 7.87865L87.9189 7.88321L97.647 10.4308L93.0977 10.4391L83.3699 7.89149L83.3682 6.97161L89.0465 6.96105C90.8865 6.95762 92.4819 6.65537 93.1222 6.22811L83.9032 6.24523L83.9015 5.32535L93.115 5.30822C92.5268 4.86926 91.2387 4.63522 90.5251 4.53447L83.9001 4.54674L83.8983 3.62657L101.601 3.59375L101.603 4.51449Z" fill="#FF5E00"/>
<path d="M101.602 4.31918L95.5403 4.33031C96.069 4.5438 96.5014 4.80067 96.7326 5.10663L101.604 5.09779L101.605 6.01767L96.7746 6.02652C96.1889 6.91872 93.7946 7.40363 91.9709 7.60142C91.4666 7.65679 90.9223 7.68277 90.3778 7.68362L87.9182 7.68819L97.646 10.2358L93.0971 10.2441L83.3689 7.69647L83.3672 6.7763L89.0455 6.76574C90.8855 6.76231 92.4809 6.46006 93.1212 6.0328L83.9022 6.04992L83.9005 5.12975L93.114 5.11262C92.5258 4.67337 91.2377 4.43962 90.5241 4.33887L83.8991 4.35114L83.8974 3.43126L101.6 3.39844L101.602 4.31918Z" fill="#FF8400"/>
<path d="M55.7293 53.7073V58.5025C55.7293 58.5508 55.7276 58.6004 55.7261 58.6487C55.6727 60.2872 54.6954 61.7685 53.1854 62.4481C51.0688 63.4008 48.5637 64.1397 45.8304 64.6826C44.9825 64.853 44.1134 65.0039 43.2267 65.1355C41.2765 65.4246 39.2424 65.6256 37.1743 65.7429C36.4429 65.7846 35.7081 65.8151 34.9703 65.8359C32.1999 65.913 29.3987 65.8488 26.6783 65.6544C25.4598 65.5659 24.2574 65.452 23.081 65.3122C20.063 64.954 17.2244 64.4286 14.7403 63.7556C13.3146 63.37 12.0055 62.9361 10.8466 62.4561C10.3092 62.2343 9.8337 61.9146 9.43723 61.5242C8.67332 60.7707 8.20094 59.7506 8.14919 58.6487C8.1443 58.5796 8.14258 58.5105 8.14258 58.4415V53.707H55.7293V53.7073Z" fill="#FDB748"/>
<path d="M55.7267 58.6484C55.6732 60.287 54.6959 61.7683 53.1859 62.4479C50.4121 63.6962 46.9749 64.5782 43.2269 65.1356C40.589 65.526 37.7959 65.7558 34.9705 65.836C32.2001 65.913 29.3989 65.8488 26.6785 65.6545C25.46 65.566 24.2577 65.4521 23.0812 65.3122C20.0632 64.9541 17.2246 64.4286 14.7406 63.7556C13.3148 63.37 12.0058 62.9362 10.8468 62.4561C10.3095 62.2344 9.83393 61.9147 9.43745 61.5243C8.67354 60.7708 8.20117 59.7507 8.14941 58.6487C9.09446 59.0808 10.0898 59.4824 11.1237 59.8503C12.9652 60.5059 14.9363 61.0616 16.9949 61.5177C19.7395 62.1265 22.6396 62.5586 25.5929 62.8189C26.8211 62.9265 28.0608 63.0036 29.3003 63.0518C32.192 63.1642 35.097 63.1146 37.9192 62.9088C40.9844 62.6839 43.9537 62.2726 46.7098 61.6784C50.1162 60.944 53.1957 59.9319 55.7267 58.6484Z" fill="#FF901E"/>
<path opacity="0.2" d="M24.8622 53.707L16.994 61.5176L14.7396 63.7556C13.3139 63.37 12.0048 62.9361 10.8459 62.4561C10.3085 62.2343 9.833 61.9146 9.43652 61.5242L11.1228 59.8502L17.3111 53.707H24.8622Z" fill="#FFEAA5"/>
<path opacity="0.2" d="M55.7288 53.707V54.8815L48.9741 61.587L45.8299 64.6826C44.982 64.853 44.1129 65.0039 43.2262 65.1355C41.276 65.4246 39.2419 65.6256 37.1738 65.7429L40.1838 62.8174L49.3593 53.707H55.7288Z" fill="#FFEAA5"/>
<path opacity="0.2" d="M38.7108 53.7073L29.2989 63.0523L26.6774 65.6547C25.4589 65.5662 24.2566 65.4523 23.0801 65.3125L25.5918 62.8191L34.7708 53.707H38.7108V53.7073Z" fill="#FFEAA5"/>
<path d="M55.7289 53.6295C55.7289 57.0967 45.0773 59.9074 31.9353 59.9074C18.7947 59.9074 8.1416 57.0967 8.1416 53.6295C8.1416 53.5519 8.14649 53.4739 8.15943 53.3963C8.62232 50.0373 19.0894 47.3516 31.9353 47.3516C44.7811 47.3516 55.2482 50.0373 55.7111 53.3963C55.724 53.4742 55.7289 53.5519 55.7289 53.6295Z" fill="#FFEAA5"/>
<path d="M50.9528 53.6311C50.9528 53.7082 50.9447 53.7852 50.9341 53.8614C50.475 56.5218 42.13 58.649 31.9352 58.649C21.7405 58.649 13.3955 56.5221 12.9364 53.8614C12.9257 53.7852 12.918 53.7082 12.918 53.6311C12.918 50.8643 21.4489 48.6133 31.9352 48.6133C42.4215 48.6133 50.9528 50.8643 50.9528 53.6311Z" fill="#FF901E"/>
<path d="M50.934 53.8581C50.4748 56.5184 42.1299 58.6456 31.9351 58.6456C31.7068 58.6456 31.4814 58.6442 31.2557 58.6422C28.9818 58.6211 26.8085 58.4944 24.8026 58.2794C22.7966 58.0645 20.9603 57.762 19.3629 57.3895C18.957 57.295 18.5668 57.1963 18.1902 57.0927C16.4867 56.6215 15.1227 56.0643 14.2128 55.4467C13.9925 55.2992 13.7988 55.147 13.6343 54.9932C13.2416 54.6299 13.0055 54.2497 12.9365 53.8584C13.3957 51.1981 21.7406 49.0703 31.9354 49.0703C33.2249 49.0703 34.4853 49.1046 35.7061 49.1696C36.3271 49.2025 36.9401 49.2438 37.5395 49.2929C39.9885 49.4924 42.2282 49.8195 44.1465 50.2445C44.5605 50.3361 44.961 50.4329 45.346 50.5345C46.8398 50.9266 48.0896 51.3836 49.0263 51.8885C49.9392 52.3805 50.5547 52.9168 50.8147 53.4819C50.8727 53.6055 50.9127 53.7314 50.934 53.8581Z" fill="#FDB748"/>
<path opacity="0.2" d="M50.8148 53.4841L31.2559 58.6446C28.982 58.6235 26.8087 58.4968 24.8027 58.2819L49.0262 51.8906C49.9393 52.3827 50.5549 52.919 50.8148 53.4841Z" fill="#FFEAA5"/>
<path opacity="0.2" d="M37.539 49.2949L14.2123 55.4489C13.992 55.3014 13.7982 55.1493 13.6338 54.9954L35.7053 49.1719C36.3263 49.2047 36.9392 49.2461 37.539 49.2949Z" fill="#FFEAA5"/>
<path opacity="0.2" d="M45.3459 50.5358L19.3632 57.3914C18.9572 57.2969 18.5671 57.1982 18.1904 57.0946L44.1467 50.2461C44.5604 50.3377 44.9612 50.4345 45.3459 50.5358Z" fill="#FFEAA5"/>
<path d="M41.6646 51.5426H35.3615C35.9109 51.7655 36.36 52.0335 36.5998 52.3521H41.6646V53.3088H36.6418C36.0311 54.2352 33.5404 54.735 31.644 54.9373C31.1196 54.9941 30.5535 55.0198 29.9874 55.0198H27.43L37.54 57.6873H32.8099L22.7002 55.0198V54.0631H28.6042C30.5173 54.0631 32.1768 53.7517 32.8432 53.3088H23.2577V52.3521H32.8375C32.2268 51.8943 30.8879 51.6485 30.1461 51.5426H23.2574V50.5859H41.6643V51.5426H41.6646Z" fill="#FF5E00"/>
<path d="M41.6646 51.3395H35.3615C35.9109 51.5624 36.36 51.8304 36.5998 52.1489H41.6646V53.1056H36.6418C36.0311 54.0321 33.5404 54.5319 31.644 54.7342C31.1196 54.7907 30.5535 54.8167 29.9874 54.8167H27.43L37.54 57.4842H32.8099L22.7002 54.8167V53.86H28.6042C30.5173 53.86 32.1768 53.5489 32.8432 53.1056H23.2577V52.1489H32.8375C32.2268 51.6911 30.8879 51.4454 30.1461 51.3395H23.2574V50.3828H41.6643V51.3395H41.6646Z" fill="#FF8400"/>
<path d="M55.7293 46.4688V51.2642C55.7293 51.3125 55.7276 51.3621 55.7261 51.4104C55.6727 53.0489 54.6954 54.5302 53.1854 55.2098C51.0688 56.1625 48.5637 56.9014 45.8304 57.4443C44.9825 57.6147 44.1134 57.7657 43.2267 57.8972C41.2765 58.1864 39.2424 58.3873 37.1743 58.5046C36.4429 58.5463 35.7081 58.5768 34.9703 58.5979C32.1999 58.675 29.3987 58.6108 26.6783 58.4164C25.4598 58.3282 24.2574 58.214 23.081 58.0742C20.063 57.716 17.2244 57.1906 14.7403 56.5175C13.3146 56.132 12.0055 55.6981 10.8466 55.2178C10.3092 54.996 9.8337 54.6764 9.43723 54.2859C8.67332 53.5324 8.20094 52.5124 8.14919 51.4104C8.1443 51.3413 8.14258 51.2722 8.14258 51.2032V46.4688H55.7293Z" fill="#FDB748"/>
<path d="M55.7267 51.4102C55.6732 53.0487 54.6959 54.53 53.1859 55.2096C50.4121 56.4577 46.9749 57.3399 43.2269 57.8973C40.589 58.2877 37.7959 58.5175 34.9705 58.5977C32.2001 58.6748 29.3989 58.6105 26.6785 58.4162C25.46 58.328 24.2577 58.2138 23.0812 58.074C20.0632 57.7158 17.2246 57.1903 14.7406 56.5173C13.3148 56.1317 12.0058 55.6979 10.8468 55.2176C10.3095 54.9958 9.83393 54.6761 9.43745 54.2857C8.67354 53.5322 8.20117 52.5121 8.14941 51.4102C9.09446 51.8423 10.0898 52.2438 11.1237 52.6117C12.9652 53.267 14.9363 53.823 16.9949 54.2791C19.7395 54.8879 22.6396 55.32 25.5929 55.5803C26.8211 55.6879 28.0608 55.765 29.3003 55.8132C32.192 55.9257 35.097 55.8757 37.9192 55.6702C40.9844 55.4453 43.9537 55.034 46.7098 54.4398C50.1162 53.7057 53.1957 52.6937 55.7267 51.4102Z" fill="#FF901E"/>
<path opacity="0.2" d="M24.8622 46.4688L16.994 54.2796L14.7396 56.5175C13.3139 56.132 12.0048 55.6981 10.8459 55.2178C10.3085 54.996 9.833 54.6764 9.43652 54.2859L11.1228 52.612L17.3111 46.4688H24.8622Z" fill="#FFEAA5"/>
<path opacity="0.2" d="M55.7288 46.4688V47.6432L48.9741 54.3487L45.8299 57.4443C44.982 57.6147 44.1129 57.7657 43.2262 57.8972C41.276 58.1864 39.2419 58.3873 37.1738 58.5046L40.1838 55.5791L49.3593 46.4688H55.7288Z" fill="#FFEAA5"/>
<path opacity="0.2" d="M38.7108 46.469L29.2989 55.814L26.6774 58.4164C25.4589 58.3282 24.2566 58.214 23.0801 58.0742L25.5918 55.5808L34.7708 46.4688H38.7108V46.469Z" fill="#FFEAA5"/>
<path d="M55.7289 46.3912C55.7289 49.8584 45.0773 52.6692 31.9353 52.6692C18.7947 52.6692 8.1416 49.8584 8.1416 46.3912C8.1416 46.3136 8.14649 46.2357 8.15943 46.158C8.62232 42.799 19.0894 40.1133 31.9353 40.1133C44.7811 40.1133 55.2482 42.799 55.7111 46.158C55.724 46.2357 55.7289 46.3136 55.7289 46.3912Z" fill="#FFEAA5"/>
<path d="M50.9528 46.3928C50.9528 46.4699 50.9447 46.547 50.9341 46.6232C50.475 49.2835 42.13 51.4107 31.9352 51.4107C21.7405 51.4107 13.3955 49.2838 12.9364 46.6232C12.9257 46.547 12.918 46.4699 12.918 46.3928C12.918 43.626 21.4489 41.375 31.9352 41.375C42.4215 41.375 50.9528 43.626 50.9528 46.3928Z" fill="#FF901E"/>
<path d="M50.934 46.6201C50.4748 49.2804 42.1299 51.4076 31.9351 51.4076C31.7068 51.4076 31.4814 51.4062 31.2557 51.4042C28.9818 51.3831 26.8085 51.2564 24.8026 51.0414C22.7966 50.8265 20.9603 50.524 19.3629 50.1515C18.957 50.0571 18.5668 49.9583 18.1902 49.8547C16.4867 49.3835 15.1227 48.8264 14.2128 48.2087C13.9925 48.0609 13.7988 47.909 13.6343 47.7549C13.2416 47.3916 13.0055 47.0114 12.9365 46.6201C13.3957 43.9595 21.7406 41.832 31.9354 41.832C33.2249 41.832 34.4853 41.8663 35.7061 41.9314C36.3271 41.9642 36.9401 42.0056 37.5395 42.0547C39.9885 42.2542 42.2282 42.5812 44.1465 43.0062C44.5605 43.0978 44.961 43.1946 45.346 43.2962C46.8398 43.6884 48.0896 44.1453 49.0263 44.6502C49.9392 45.1425 50.5547 45.6785 50.8147 46.2437C50.8727 46.3672 50.9127 46.4934 50.934 46.6201Z" fill="#FDB748"/>
<path opacity="0.2" d="M50.8148 46.2458L31.2559 51.4063C28.982 51.3852 26.8087 51.2585 24.8027 51.0436L49.0262 44.6523C49.9393 45.1447 50.5549 45.681 50.8148 46.2458Z" fill="#FFEAA5"/>
<path opacity="0.2" d="M37.539 42.0569L14.2123 48.211C13.992 48.0631 13.7982 47.9113 13.6338 47.7572L35.7053 41.9336C36.3263 41.9664 36.9392 42.0078 37.539 42.0569Z" fill="#FFEAA5"/>
<path opacity="0.2" d="M45.3459 43.2975L19.3632 50.1531C18.9572 50.0586 18.5671 49.9599 18.1904 49.8563L44.1467 43.0078C44.5604 43.0994 44.9612 43.1959 45.3459 43.2975Z" fill="#FFEAA5"/>
<path d="M41.6646 44.3044H35.3615C35.9109 44.5273 36.36 44.7953 36.5998 45.1138H41.6646V46.0705H36.6418C36.0311 46.9969 33.5404 47.4967 31.644 47.6991C31.1196 47.7556 30.5535 47.7815 29.9874 47.7815H27.43L37.54 50.449H32.8099L22.7002 47.7815V46.8248H28.6042C30.5173 46.8248 32.1768 46.5135 32.8432 46.0705H23.2577V45.1138H32.8375C32.2268 44.656 30.8879 44.4102 30.1461 44.3044H23.2574V43.3477H41.6643V44.3044H41.6646Z" fill="#FF5E00"/>
<path d="M41.6646 44.1012H35.3615C35.9109 44.3241 36.36 44.5921 36.5998 44.9107H41.6646V45.8674H36.6418C36.0311 46.7938 33.5404 47.2936 31.644 47.4959C31.1196 47.5527 30.5535 47.5784 29.9874 47.5784H27.43L37.54 50.2459H32.8099L22.7002 47.5784V46.6217H28.6042C30.5173 46.6217 32.1768 46.3103 32.8432 45.8674H23.2577V44.9107H32.8375C32.2268 44.4529 30.8879 44.2071 30.1461 44.1012H23.2574V43.1445H41.6643V44.1012H41.6646Z" fill="#FF8400"/>
<path d="M55.7293 38.8011V43.5966C55.7293 43.6448 55.7276 43.6945 55.7261 43.7427C55.6727 45.3812 54.6954 46.8625 53.1854 47.5421C51.0688 48.4948 48.5637 49.2337 45.8304 49.7766C44.9825 49.947 44.1134 50.098 43.2267 50.2296C41.2765 50.5187 39.2424 50.7196 37.1743 50.8369C36.4429 50.8786 35.7081 50.9091 34.9703 50.93C32.1999 51.007 29.3987 50.9428 26.6783 50.7484C25.4598 50.66 24.2574 50.5461 23.081 50.4062C20.063 50.048 17.2244 49.5226 14.7403 48.8496C13.3146 48.464 12.0055 48.0302 10.8466 47.5498C10.3092 47.328 9.8337 47.0084 9.43723 46.6179C8.67332 45.8644 8.20094 44.8444 8.14919 43.7424C8.1443 43.6733 8.14258 43.6043 8.14258 43.5352V38.8008L55.7293 38.8011Z" fill="#FDB748"/>
<path d="M55.7267 43.7422C55.6732 45.3807 54.6959 46.862 53.1859 47.5416C50.4121 48.79 46.9749 49.6719 43.2269 50.2293C40.589 50.6198 37.7959 50.8495 34.9705 50.9297C32.2001 51.0068 29.3989 50.9426 26.6785 50.7482C25.46 50.6597 24.2577 50.5459 23.0812 50.406C20.0632 50.0478 17.2246 49.5224 14.7406 48.8494C13.3148 48.4638 12.0058 48.0299 10.8468 47.5496C10.3095 47.3278 9.83393 47.0082 9.43745 46.6177C8.67354 45.8642 8.20117 44.8442 8.14941 43.7422C9.09446 44.1743 10.0898 44.5759 11.1237 44.9438C12.9652 45.5994 14.9363 46.1551 16.9949 46.6112C19.7395 47.2199 22.6396 47.6521 25.5929 47.9124C26.8211 48.02 28.0608 48.097 29.3003 48.1452C32.192 48.2577 35.097 48.2078 37.9192 48.0023C40.9844 47.7774 43.9537 47.3661 46.7098 46.7718C50.1162 46.0378 53.1957 45.0257 55.7267 43.7422Z" fill="#FF901E"/>
<path opacity="0.2" d="M24.8622 38.8011L16.994 46.6117L14.7396 48.8496C13.3139 48.464 12.0048 48.0302 10.8459 47.5498C10.3085 47.328 9.833 47.0084 9.43652 46.6179L11.1228 44.944L17.3111 38.8008L24.8622 38.8011Z" fill="#FFEAA5"/>
<path opacity="0.2" d="M55.7288 38.8008V39.9753L48.9741 46.6807L45.8299 49.7763C44.982 49.9467 44.1129 50.0977 43.2262 50.2293C41.276 50.5184 39.2419 50.7193 37.1738 50.8366L40.1838 47.9112L49.3593 38.8008H55.7288Z" fill="#FFEAA5"/>
<path opacity="0.2" d="M38.7108 38.8011L29.2989 48.146L26.6774 50.7484C25.4589 50.66 24.2566 50.5461 23.0801 50.4062L25.5918 47.9129L34.7708 38.8008L38.7108 38.8011Z" fill="#FFEAA5"/>
<path d="M55.7289 38.7232C55.7289 42.1904 45.0773 45.0012 31.9353 45.0012C18.7947 45.0012 8.1416 42.1904 8.1416 38.7232C8.1416 38.6456 8.14649 38.5677 8.15943 38.4901C8.62232 35.131 19.0894 32.4453 31.9353 32.4453C44.7811 32.4453 55.2482 35.131 55.7111 38.4901C55.724 38.568 55.7289 38.6456 55.7289 38.7232Z" fill="#FFEAA5"/>
<path d="M50.9528 38.7249C50.9528 38.8019 50.9447 38.879 50.9341 38.9552C50.475 41.6155 42.13 43.7427 31.9352 43.7427C21.7405 43.7427 13.3955 41.6158 12.9364 38.9552C12.9257 38.879 12.918 38.8019 12.918 38.7249C12.918 35.9581 21.4489 33.707 31.9352 33.707C42.4215 33.707 50.9528 35.9581 50.9528 38.7249Z" fill="#FF901E"/>
<path d="M50.934 38.9521C50.4748 41.6125 42.1299 43.7396 31.9351 43.7396C31.7068 43.7396 31.4814 43.7382 31.2557 43.7362C28.9818 43.7151 26.8085 43.5884 24.8026 43.3735C22.7966 43.1586 20.9603 42.856 19.3629 42.4835C18.957 42.3891 18.5668 42.2903 18.1902 42.1867C16.4867 41.7155 15.1227 41.1584 14.2128 40.5408C13.9925 40.3929 13.7988 40.2411 13.6343 40.0869C13.2416 39.7236 13.0055 39.3434 12.9365 38.9521C13.3957 36.2918 21.7406 34.1641 31.9354 34.1641C33.2249 34.1641 34.4853 34.1983 35.7061 34.2634C36.3271 34.2962 36.9401 34.3376 37.5395 34.3867C39.9885 34.5862 42.2282 34.9133 44.1465 35.3383C44.5605 35.4299 44.961 35.5266 45.346 35.6282C46.8398 36.0204 48.0896 36.4776 49.0263 36.9822C49.9392 37.4743 50.5547 38.0106 50.8147 38.5757C50.8727 38.6993 50.9127 38.8254 50.934 38.9521Z" fill="#FDB748"/>
<path opacity="0.2" d="M50.8148 38.5778L31.2559 43.7384C28.982 43.7173 26.8087 43.5905 24.8027 43.3756L49.0262 36.9844C49.9393 37.4767 50.5549 38.013 50.8148 38.5778Z" fill="#FFEAA5"/>
<path opacity="0.2" d="M37.539 34.3889L14.2123 40.543C13.992 40.3952 13.7982 40.2433 13.6338 40.0892L35.7053 34.2656C36.3263 34.2987 36.9392 34.3398 37.539 34.3889Z" fill="#FFEAA5"/>
<path opacity="0.2" d="M45.3459 35.6295L19.3632 42.4851C18.9572 42.3907 18.5671 42.2919 18.1904 42.1883L44.1467 35.3398C44.5604 35.4315 44.9612 35.5279 45.3459 35.6295Z" fill="#FFEAA5"/>
<path d="M41.6646 36.6364H35.3615C35.9109 36.8593 36.36 37.1273 36.5998 37.4458H41.6646V38.4025H36.6418C36.0311 39.329 33.5404 39.8287 31.644 40.0311C31.1196 40.0876 30.5535 40.1136 29.9874 40.1136H27.43L37.54 42.781H32.8099L22.7002 40.1136V39.1569H28.6042C30.5173 39.1569 32.1768 38.8455 32.8432 38.4025H23.2577V37.4458H32.8375C32.2268 36.988 30.8879 36.7423 30.1461 36.6364H23.2574V35.6797H41.6643V36.6364H41.6646Z" fill="#FF5E00"/>
<path d="M41.6646 36.4333H35.3615C35.9109 36.6562 36.36 36.9242 36.5998 37.2427H41.6646V38.1994H36.6418C36.0311 39.1258 33.5404 39.6256 31.644 39.828C31.1196 39.8848 30.5535 39.9104 29.9874 39.9104H27.43L37.54 42.5779H32.8099L22.7002 39.9104V38.9537H28.6042C30.5173 38.9537 32.1768 38.6424 32.8432 38.1994H23.2577V37.2427H32.8375C32.2268 36.7849 30.8879 36.5392 30.1461 36.4333H23.2574V35.4766H41.6643V36.4333H41.6646Z" fill="#FF8400"/>
<path d="M55.7293 31.1289V35.9244C55.7293 35.9726 55.7276 36.0223 55.7261 36.0705C55.6727 37.7091 54.6954 39.1904 53.1854 39.87C51.0688 40.8227 48.5637 41.5616 45.8304 42.1045C44.9825 42.2748 44.1134 42.4258 43.2267 42.5574C41.2765 42.8465 39.2424 43.0475 37.1743 43.1648C36.4429 43.2064 35.7081 43.237 34.9703 43.2581C32.1999 43.3351 29.3987 43.2709 26.6783 43.0766C25.4598 42.9881 24.2574 42.8742 23.081 42.7344C20.063 42.3762 17.2244 41.8507 14.7403 41.1777C13.3146 40.7921 12.0055 40.3583 10.8466 39.8779C10.3092 39.6562 9.8337 39.3365 9.43723 38.9461C8.67332 38.1926 8.20094 37.1725 8.14919 36.0705C8.1443 36.0015 8.14258 35.9324 8.14258 35.8633V31.1289H55.7293Z" fill="#FDB748"/>
<path d="M55.7267 36.0703C55.6732 37.7089 54.6959 39.1902 53.1859 39.8697C50.4121 41.1181 46.9749 42 43.2269 42.5575C40.589 42.9479 37.7959 43.1777 34.9705 43.2579C32.2001 43.3349 29.3989 43.2707 26.6785 43.0763C25.46 42.9879 24.2577 42.874 23.0812 42.7341C20.0632 42.3759 17.2246 41.8505 14.7406 41.1775C13.3148 40.7919 12.0058 40.3581 10.8468 39.8777C10.3095 39.6559 9.83393 39.3363 9.43745 38.9458C8.67354 38.1923 8.20117 37.1723 8.14941 36.0703C9.09446 36.5024 10.0898 36.904 11.1237 37.2719C12.9652 37.9272 14.9363 38.4832 16.9949 38.9393C19.7395 39.5481 22.6396 39.9802 25.5929 40.2405C26.8211 40.3481 28.0608 40.4251 29.3003 40.4734C32.192 40.5858 35.097 40.5362 37.9192 40.3304C40.9844 40.1055 43.9537 39.6942 46.7098 39.0997C50.1162 38.3662 53.1957 37.3541 55.7267 36.0703Z" fill="#FF901E"/>
<path opacity="0.2" d="M24.8622 31.1289L16.994 38.9398L14.7396 41.1777C13.3139 40.7921 12.0048 40.3583 10.8459 39.8779C10.3085 39.6562 9.833 39.3365 9.43652 38.9461L11.1228 37.2721L17.3111 31.1289H24.8622Z" fill="#FFEAA5"/>
<path opacity="0.2" d="M55.7288 31.1289V32.3034L48.9741 39.0089L45.8299 42.1045C44.982 42.2748 44.1129 42.4258 43.2262 42.5574C41.276 42.8465 39.2419 43.0475 37.1738 43.1648L40.1838 40.2393L49.3593 31.1289H55.7288Z" fill="#FFEAA5"/>
<path opacity="0.2" d="M38.7108 31.1292L29.2989 40.4742L26.6774 43.0766C25.4589 42.9881 24.2566 42.8742 23.0801 42.7343L25.5918 40.241L34.7708 31.1289L38.7108 31.1292Z" fill="#FFEAA5"/>
<path d="M55.7289 31.0514C55.7289 34.5186 45.0773 37.3293 31.9353 37.3293C18.7947 37.3293 8.1416 34.5186 8.1416 31.0514C8.1416 30.9737 8.14649 30.8958 8.15943 30.8182C8.62232 27.4592 19.0894 24.7734 31.9353 24.7734C44.7811 24.7734 55.2482 27.4592 55.7111 30.8182C55.724 30.8958 55.7289 30.9737 55.7289 31.0514Z" fill="#FFEAA5"/>
<path d="M50.9528 31.053C50.9528 31.1301 50.9447 31.2071 50.9341 31.2833C50.475 33.9437 42.13 36.0708 31.9352 36.0708C21.7405 36.0708 13.3955 33.9439 12.9364 31.2833C12.9257 31.2071 12.918 31.1301 12.918 31.053C12.918 28.2862 21.4489 26.0352 31.9352 26.0352C42.4215 26.0352 50.9528 28.2862 50.9528 31.053Z" fill="#FF901E"/>
<path d="M50.934 31.2803C50.4748 33.9406 42.1299 36.0678 31.9351 36.0678C31.7068 36.0678 31.4814 36.0663 31.2557 36.0644C28.9818 36.0432 26.8085 35.9165 24.8026 35.7016C22.7966 35.4867 20.9603 35.1841 19.3629 34.8117C18.957 34.7172 18.5668 34.6185 18.1902 34.5149C16.4867 34.0436 15.1227 33.4862 14.2128 32.8689C13.9925 32.721 13.7988 32.5692 13.6343 32.4151C13.2416 32.0517 13.0055 31.6716 12.9365 31.2803C13.3957 28.6197 21.7406 26.4922 31.9354 26.4922C33.2249 26.4922 34.4853 26.5264 35.7061 26.5915C36.3271 26.6243 36.9401 26.6657 37.5395 26.7148C39.9885 26.9143 42.2282 27.2414 44.1465 27.6664C44.5605 27.758 44.961 27.8547 45.346 27.9564C46.8398 28.3485 48.0896 28.8055 49.0263 29.3103C49.9392 29.8027 50.5547 30.3387 50.8147 30.9038C50.8727 31.0274 50.9127 31.1535 50.934 31.2803Z" fill="#FDB748"/>
<path opacity="0.2" d="M50.8148 30.9062L31.2559 36.0668C28.982 36.0457 26.8087 35.9189 24.8027 35.704L49.0262 29.3125C49.9393 29.8051 50.5549 30.3411 50.8148 30.9062Z" fill="#FFEAA5"/>
<path opacity="0.2" d="M37.539 26.7171L14.2123 32.8711C13.992 32.7233 13.7982 32.5714 13.6338 32.4173L35.7053 26.5938C36.3263 26.6266 36.9392 26.668 37.539 26.7171Z" fill="#FFEAA5"/>
<path opacity="0.2" d="M45.3459 27.9577L19.3632 34.8133C18.9572 34.7188 18.5671 34.62 18.1904 34.5164L44.1467 27.668C44.5604 27.7596 44.9612 27.8561 45.3459 27.9577Z" fill="#FFEAA5"/>
<path d="M41.6646 28.9645H35.3615C35.9109 29.1874 36.36 29.4554 36.5998 29.7739H41.6646V30.7306H36.6418C36.0311 31.6571 33.5404 32.1569 31.644 32.3592C31.1196 32.416 30.5535 32.4417 29.9874 32.4417H27.43L37.54 35.1092H32.8099L22.7002 32.4417V31.485H28.6042C30.5173 31.485 32.1768 31.1736 32.8432 30.7306H23.2577V29.7739H32.8375C32.2268 29.3161 30.8879 29.0704 30.1461 28.9645H23.2574V28.0078H41.6643V28.9645H41.6646Z" fill="#FF5E00"/>
<path d="M41.6646 28.7614H35.3615C35.9109 28.9843 36.36 29.2523 36.5998 29.5708H41.6646V30.5275H36.6418C36.0311 31.454 33.5404 31.9537 31.644 32.1561C31.1196 32.2126 30.5535 32.2386 29.9874 32.2386H27.43L37.54 34.906H32.8099L22.7002 32.2386V31.2819H28.6042C30.5173 31.2819 32.1768 30.9705 32.8432 30.5275H23.2577V29.5708H32.8375C32.2268 29.113 30.8879 28.8673 30.1461 28.7614H23.2574V27.8047H41.6643V28.7614H41.6646Z" fill="#FF8400"/>
<path d="M55.7293 23.8945V28.69C55.7293 28.7383 55.7276 28.7879 55.7261 28.8362C55.6727 30.4747 54.6954 31.956 53.1854 32.6356C51.0688 33.5883 48.5637 34.3272 45.8304 34.8701C44.9825 35.0405 44.1134 35.1914 43.2267 35.323C41.2765 35.6121 39.2424 35.8131 37.1743 35.9304C36.4429 35.9721 35.7081 36.0026 34.9703 36.0234C32.1999 36.1005 29.3987 36.0363 26.6783 35.8419C25.4598 35.7534 24.2574 35.6395 23.081 35.4997C20.063 35.1415 17.2244 34.6161 14.7403 33.9431C13.3146 33.5575 12.0055 33.1236 10.8466 32.6433C10.3092 32.4215 9.8337 32.1019 9.43723 31.7114C8.67332 30.9579 8.20094 29.9379 8.14919 28.8359C8.1443 28.7668 8.14258 28.6977 8.14258 28.6287V23.8945H55.7293Z" fill="#FDB748"/>
<path d="M55.7267 28.8359C55.6732 30.4745 54.6959 31.9558 53.1859 32.6354C50.4121 33.8835 46.9749 34.7657 43.2269 35.3231C40.589 35.7135 37.7959 35.9433 34.9705 36.0235C32.2001 36.1005 29.3989 36.0363 26.6785 35.842C25.46 35.7535 24.2577 35.6396 23.0812 35.4998C20.0632 35.1416 17.2246 34.6161 14.7406 33.9431C13.3148 33.5575 12.0058 33.1237 10.8468 32.6433C10.3095 32.4216 9.83393 32.1019 9.43745 31.7115C8.67354 30.958 8.20117 29.9379 8.14941 28.8359C9.09446 29.2681 10.0898 29.6696 11.1237 30.0375C12.9652 30.6928 14.9363 31.2488 16.9949 31.7049C19.7395 32.3137 22.6396 32.7458 25.5929 33.0061C26.8211 33.1137 28.0608 33.1908 29.3003 33.239C32.192 33.3514 35.097 33.3015 37.9192 33.096C40.9844 32.8711 43.9537 32.4598 46.7098 31.8653C50.1162 31.1318 53.1957 30.1194 55.7267 28.8359Z" fill="#FF901E"/>
<path opacity="0.2" d="M24.8622 23.8945L16.994 31.7054L14.7396 33.9433C13.3139 33.5577 12.0048 33.1239 10.8459 32.6436C10.3085 32.4218 9.833 32.1021 9.43652 31.7117L11.1228 30.0378L17.3111 23.8945H24.8622Z" fill="#FFEAA5"/>
<path opacity="0.2" d="M55.7288 23.8945V25.069L48.9741 31.7745L45.8299 34.8701C44.982 35.0405 44.1129 35.1914 43.2262 35.323C41.276 35.6121 39.2419 35.8131 37.1738 35.9304L40.1838 33.0049L49.3593 23.8945H55.7288Z" fill="#FFEAA5"/>
<path opacity="0.2" d="M38.7108 23.8948L29.2989 33.2398L26.6774 35.8422C25.4589 35.7537 24.2566 35.6398 23.0801 35.5L25.5918 33.0066L34.7708 23.8945H38.7108V23.8948Z" fill="#FFEAA5"/>
<path d="M55.7289 23.817C55.7289 27.2842 45.0773 30.0949 31.9353 30.0949C18.7947 30.0949 8.1416 27.2842 8.1416 23.817C8.1416 23.7394 8.14649 23.6617 8.15943 23.5838C8.62232 20.2248 19.0894 17.5391 31.9353 17.5391C44.7811 17.5391 55.2482 20.2248 55.7111 23.5838C55.724 23.6617 55.7289 23.7394 55.7289 23.817Z" fill="#FFEAA5"/>
<path d="M50.9528 23.8186C50.9528 23.8957 50.9447 23.9727 50.9341 24.0489C50.475 26.7093 42.13 28.8365 31.9352 28.8365C21.7405 28.8365 13.3955 26.7096 12.9364 24.0489C12.9257 23.9727 12.918 23.8957 12.918 23.8186C12.918 21.0518 21.4489 18.8008 31.9352 18.8008C42.4215 18.8008 50.9528 21.0518 50.9528 23.8186Z" fill="#FF901E"/>
<path d="M50.934 24.0459C50.4748 26.7062 42.1299 28.8334 31.9351 28.8334C31.7068 28.8334 31.4814 28.832 31.2557 28.83C28.9818 28.8089 26.8085 28.6821 24.8026 28.4672C22.7966 28.2523 20.9603 27.9498 19.3629 27.5773C18.957 27.4828 18.5668 27.3841 18.1902 27.2805C16.4867 26.8093 15.1227 26.2521 14.2128 25.6345C13.9925 25.4867 13.7988 25.3348 13.6343 25.1807C13.2416 24.8174 13.0055 24.4372 12.9365 24.0459C13.3957 21.3856 21.7406 19.2578 31.9354 19.2578C33.2249 19.2578 34.4853 19.2921 35.7061 19.3571C36.3271 19.39 36.9401 19.4313 37.5395 19.4804C39.9885 19.6799 42.2282 20.007 44.1465 20.432C44.5605 20.5236 44.961 20.6204 45.346 20.722C46.8398 21.1141 48.0896 21.5714 49.0263 22.076C49.9392 22.5683 50.5547 23.1043 50.8147 23.6694C50.8727 23.7933 50.9127 23.9192 50.934 24.0459Z" fill="#FDB748"/>
<path opacity="0.2" d="M50.8148 23.6716L31.2559 28.8321C28.982 28.811 26.8087 28.6843 24.8027 28.4694L49.0262 22.0781C49.9393 22.5702 50.5549 23.1065 50.8148 23.6716Z" fill="#FFEAA5"/>
<path opacity="0.2" d="M37.539 19.4827L14.2123 25.6367C13.992 25.4889 13.7982 25.3371 13.6338 25.1829L35.7053 19.3594C36.3263 19.3925 36.9392 19.4339 37.539 19.4827Z" fill="#FFEAA5"/>
<path opacity="0.2" d="M45.3459 20.7233L19.3632 27.5789C18.9572 27.4844 18.5671 27.3857 18.1904 27.2821L44.1467 20.4336C44.5604 20.5249 44.9612 20.6217 45.3459 20.7233Z" fill="#FFEAA5"/>
<path d="M41.6646 21.7301H35.3615C35.9109 21.953 36.36 22.2211 36.5998 22.5396H41.6646V23.4963H36.6418C36.0311 24.4227 33.5404 24.9225 31.644 25.1248C31.1196 25.1813 30.5535 25.2073 29.9874 25.2073H27.43L37.54 27.8748H32.8099L22.7002 25.2073V24.2506H28.6042C30.5173 24.2506 32.1768 23.9392 32.8432 23.4963H23.2577V22.5396H32.8375C32.2268 22.0818 30.8879 21.836 30.1461 21.7301H23.2574V20.7734H41.6643V21.7301H41.6646Z" fill="#FF5E00"/>
<path d="M41.6646 21.527H35.3615C35.9109 21.7499 36.36 22.0179 36.5998 22.3364H41.6646V23.2932H36.6418C36.0311 24.2196 33.5404 24.7194 31.644 24.9217C31.1196 24.9785 30.5535 25.0042 29.9874 25.0042H27.43L37.54 27.6717H32.8099L22.7002 25.0042V24.0475H28.6042C30.5173 24.0475 32.1768 23.7361 32.8432 23.2932H23.2577V22.3364H32.8375C32.2268 21.8786 30.8879 21.6329 30.1461 21.527H23.2574V20.5703H41.6643V21.527H41.6646Z" fill="#FF8400"/>
<path d="M55.7283 16.2229V21.0182C55.7283 21.0664 55.7266 21.1161 55.7252 21.1643C55.6717 22.8028 54.6944 24.2841 53.1844 24.9637C51.0678 25.9164 48.5627 26.6553 45.8294 27.1982C44.9815 27.3686 44.1124 27.5196 43.2257 27.6511C41.2755 27.9403 39.2414 28.1412 37.1734 28.2585C36.4419 28.3002 35.7071 28.3307 34.9693 28.3518C32.1989 28.4289 29.3977 28.3647 26.6773 28.1703C25.4588 28.0818 24.2565 27.968 23.08 27.8281C20.062 27.4699 17.2234 26.9445 14.7394 26.2715C13.3136 25.8859 12.0046 25.452 10.8456 24.9717C10.3083 24.7499 9.83273 24.4303 9.43625 24.0398C8.67234 23.2863 8.19996 22.2663 8.14821 21.1643C8.14333 21.0952 8.1416 21.0262 8.1416 20.9571V16.2227H55.7283V16.2229Z" fill="#FDB748"/>
<path d="M55.7257 21.1641C55.6722 22.8026 54.695 24.2839 53.185 24.9635C50.4111 26.2116 46.9739 27.0938 43.2259 27.6512C40.5881 28.0416 37.7949 28.2714 34.9696 28.3516C32.1991 28.4287 29.3979 28.3644 26.6775 28.1701C25.4591 28.0816 24.2567 27.9677 23.0802 27.8279C20.0622 27.4697 17.2237 26.9442 14.7396 26.2712C13.3138 25.8856 12.0048 25.4518 10.8458 24.9715C10.3085 24.7497 9.83295 24.43 9.43648 24.0396C8.67257 23.2861 8.20019 22.266 8.14844 21.1641C9.09348 21.5962 10.0888 21.9978 11.1227 22.3656C12.9642 23.021 14.9354 23.5769 16.9939 24.033C19.7385 24.6418 22.6386 25.0739 25.5919 25.3342C26.8201 25.4418 28.0599 25.5189 29.2993 25.5671C32.1911 25.6796 35.0961 25.6299 37.9182 25.4241C40.9834 25.1992 43.9528 24.7879 46.7088 24.1934C50.1152 23.4599 53.1947 22.4476 55.7257 21.1641Z" fill="#FF901E"/>
<path opacity="0.2" d="M24.8613 16.2227L16.993 24.0335L14.7386 26.2715C13.3129 25.8859 12.0039 25.452 10.8449 24.9717C10.3076 24.7499 9.83202 24.4303 9.43555 24.0398L11.1218 22.3659L17.3101 16.2227H24.8613Z" fill="#FFEAA5"/>
<path opacity="0.2" d="M55.7278 16.2227V17.3971L48.9731 24.1026L45.8289 27.1982C44.981 27.3686 44.1119 27.5196 43.2252 27.6511C41.275 27.9403 39.2409 28.1412 37.1729 28.2585L40.1828 25.333L49.3583 16.2227H55.7278Z" fill="#FFEAA5"/>
<path opacity="0.2" d="M38.7098 16.2229L29.2979 25.5679L26.6764 28.1703C25.4579 28.0818 24.2556 27.968 23.0791 27.8281L25.5908 25.3347L34.7698 16.2227H38.7098V16.2229Z" fill="#FFEAA5"/>
<path d="M55.7289 16.1451C55.7289 19.6123 45.0773 22.4231 31.9353 22.4231C18.7947 22.4231 8.1416 19.6123 8.1416 16.1451C8.1416 16.0675 8.14649 15.9899 8.15943 15.9119C8.62232 12.5529 19.0894 9.86719 31.9353 9.86719C44.7811 9.86719 55.2482 12.5529 55.7111 15.9119C55.724 15.9899 55.7289 16.0675 55.7289 16.1451Z" fill="#FFEAA5"/>
<path d="M50.9518 16.1467C50.9518 16.2238 50.9438 16.3009 50.9331 16.3771C50.474 19.0374 42.129 21.1646 31.9343 21.1646C21.7395 21.1646 13.3945 19.0377 12.9354 16.3771C12.9248 16.3009 12.917 16.2238 12.917 16.1467C12.917 13.38 21.4479 11.1289 31.9343 11.1289C42.4206 11.1289 50.9518 13.38 50.9518 16.1467Z" fill="#FF901E"/>
<path d="M50.934 16.374C50.4748 19.0343 42.1299 21.1615 31.9351 21.1615C31.7068 21.1615 31.4814 21.1601 31.2557 21.1581C28.9818 21.137 26.8085 21.0103 24.8026 20.7953C22.7966 20.5804 20.9603 20.2779 19.3629 19.9054C18.957 19.811 18.5668 19.7122 18.1902 19.6086C16.4867 19.1374 15.1227 18.58 14.2128 17.9626C13.9925 17.8148 13.7988 17.6629 13.6343 17.5088C13.2416 17.1455 13.0055 16.7653 12.9365 16.374C13.3957 13.7137 21.7406 11.5859 31.9354 11.5859C33.2249 11.5859 34.4853 11.6202 35.7061 11.6853C36.3271 11.7181 36.9401 11.7595 37.5395 11.8086C39.9885 12.0081 42.2282 12.3351 44.1465 12.7601C44.5605 12.8517 44.961 12.9485 45.346 13.0501C46.8398 13.4423 48.0896 13.8992 49.0263 14.4041C49.9392 14.8964 50.5547 15.4324 50.8147 15.9976C50.8727 16.1214 50.9127 16.2473 50.934 16.374Z" fill="#FDB748"/>
<path opacity="0.2" d="M50.8138 15.9997L31.2549 21.1603C28.981 21.1391 26.8077 21.0124 24.8018 20.7975L49.0252 14.4062C49.9384 14.8983 50.5539 15.4346 50.8138 15.9997Z" fill="#FFEAA5"/>
<path opacity="0.2" d="M37.539 11.8108L14.2123 17.9649C13.992 17.817 13.7982 17.6652 13.6338 17.5111L35.7053 11.6875C36.3263 11.7206 36.9392 11.762 37.539 11.8108Z" fill="#FFEAA5"/>
<path opacity="0.2" d="M45.3459 13.0514L19.3632 19.907C18.9572 19.8126 18.5671 19.7138 18.1904 19.6102L44.1467 12.7617C44.5604 12.8531 44.9612 12.9498 45.3459 13.0514Z" fill="#FFEAA5"/>
<path d="M41.6636 14.0583H35.3605C35.91 14.2812 36.359 14.5492 36.5988 14.8677H41.6636V15.8244H36.6408C36.0301 16.7508 33.5394 17.2506 31.643 17.453C31.1186 17.5095 30.5525 17.5354 29.9864 17.5354H27.429L37.539 20.2029H32.8089L22.6992 17.5354V16.5787H28.6032C30.5163 16.5787 32.1758 16.2674 32.8422 15.8244H23.2567V14.8677H32.8365C32.2258 14.4099 30.8869 14.1642 30.1451 14.0583H23.2564V13.1016H41.6633V14.0583H41.6636Z" fill="#FF5E00"/>
<path d="M41.6636 13.8551H35.3605C35.91 14.078 36.359 14.346 36.5988 14.6646H41.6636V15.6213H36.6408C36.0301 16.5477 33.5394 17.0475 31.643 17.2498C31.1186 17.3066 30.5525 17.3323 29.9864 17.3323H27.429L37.539 19.9998H32.8089L22.6992 17.3323V16.3756H28.6032C30.5163 16.3756 32.1758 16.0642 32.8422 15.6213H23.2567V14.6646H32.8365C32.2258 14.2068 30.8869 13.961 30.1451 13.8551H23.2564V12.8984H41.6633L41.6636 13.8551Z" fill="#FF8400"/>
<path d="M14.3372 14.858C9.23481 15.4573 8.74518 15.9434 8.14113 21.0089C7.53736 15.9437 7.04773 15.4576 1.94531 14.858C7.04802 14.2586 7.53736 13.7725 8.14113 8.70703C8.74518 13.7725 9.23481 14.2586 14.3372 14.858Z" fill="white"/>
<path d="M87.307 49.1772C87.307 61.8604 76.9507 72.1435 64.1721 72.1435C51.3958 72.1435 41.0371 61.8601 41.0371 49.1772C41.0371 48.893 41.0423 48.6087 41.0552 48.3244C41.504 36.0357 51.6824 26.2109 64.1724 26.2109C76.6623 26.2109 86.8404 36.0357 87.2895 48.3244C87.3019 48.6087 87.307 48.893 87.307 49.1772Z" fill="#FDB748"/>
<path d="M87.289 48.3244C86.8376 60.6131 76.6618 70.4379 64.1718 70.4379C51.6845 70.4379 41.5064 60.6131 41.0547 48.3244C41.5035 36.0357 51.6819 26.2109 64.1718 26.2109C76.6621 26.2109 86.8402 36.0357 87.289 48.3244Z" fill="#FFEAA5"/>
<path d="M82.6629 49.1766C82.6629 49.4583 82.6551 49.74 82.6448 50.0192C82.1983 59.7517 74.0842 67.5326 64.1718 67.5326C54.2594 67.5326 46.1453 59.7517 45.6988 50.0192C45.6884 49.74 45.6807 49.4583 45.6807 49.1766C45.6807 39.0547 53.9753 30.8203 64.1718 30.8203C74.3683 30.8206 82.6629 39.0547 82.6629 49.1766Z" fill="#FF901E"/>
<path d="M82.645 50.02C82.1985 59.7525 74.0844 67.5334 64.1719 67.5334C63.95 67.5334 63.7309 67.5283 63.5115 67.5206C61.3006 67.4438 59.1874 66.9803 57.2369 66.194C55.2865 65.4077 53.5011 64.3011 51.9479 62.9386C51.5532 62.593 51.174 62.2316 50.8077 61.8526C49.1513 60.129 47.8251 58.0903 46.9401 55.8312C46.7259 55.291 46.5376 54.735 46.3777 54.1716C45.9959 52.8424 45.7662 51.4516 45.6992 50.02C46.1454 40.2874 54.2598 32.5039 64.1722 32.5039C65.4261 32.5039 66.6517 32.6295 67.8385 32.8675C68.4423 32.988 69.0383 33.1389 69.6214 33.3182C72.0028 34.048 74.1804 35.2442 76.0455 36.7988C76.448 37.1342 76.8376 37.4878 77.2116 37.8591C78.6641 39.2933 79.8794 40.9658 80.7902 42.8124C81.6778 44.6131 82.2764 46.5747 82.5291 48.6417C82.5854 49.0952 82.6243 49.5562 82.645 50.02Z" fill="#FDB748"/>
<path opacity="0.2" d="M82.5294 48.6418L63.5119 67.5204C61.301 67.4436 59.1878 66.9801 57.2373 66.1938L80.7903 42.8125C81.6778 44.6129 82.2764 46.5748 82.5294 48.6418Z" fill="#FFEAA5"/>
<path opacity="0.2" d="M69.6203 33.3178L46.9393 55.8309C46.7251 55.2906 46.5368 54.7346 46.377 54.1712L67.8378 32.8672C68.4412 32.9873 69.0372 33.1386 69.6203 33.3178Z" fill="#FFEAA5"/>
<path opacity="0.2" d="M77.2116 37.8611L51.9479 62.9406C51.5531 62.5949 51.1739 62.2336 50.8076 61.8546L76.0454 36.8008C76.4479 37.1364 76.8375 37.4898 77.2116 37.8611Z" fill="#FFEAA5"/>
<path d="M73.6314 41.5388H67.5028C68.037 42.3545 68.4737 43.3343 68.7069 44.5H73.6314V47.9994H68.7474C68.1537 51.3887 65.7321 53.2165 63.888 53.9565C63.3782 54.1637 62.8276 54.2579 62.2771 54.2579H59.7904L69.6203 64.0162H65.0213L55.1914 54.2579V50.7585H60.9321C62.7923 50.7585 64.4058 49.6197 65.0538 47.9991H55.7336V44.4997H65.0484C64.4544 42.8252 63.1528 41.9261 62.4314 41.5385H55.7334V38.0391H73.6308V41.5388H73.6314Z" fill="#FF5E00"/>
<path d="M73.6314 40.7963H67.5028C68.037 41.612 68.4737 42.5918 68.7069 43.7575H73.6314V47.2569H68.7474C68.1537 50.6462 65.7321 52.474 63.888 53.2143C63.3782 53.4215 62.8276 53.5157 62.2771 53.5157H59.7904L69.6203 63.274H65.0213L55.1914 53.5157V50.0163H60.9321C62.7923 50.0163 64.4058 48.8775 65.0538 47.2569H55.7336V43.7575H65.0484C64.4544 42.083 63.1528 41.1839 62.4314 40.7963H55.7334V37.2969H73.6308L73.6314 40.7963Z" fill="#FF8400"/>
<path d="M55.6439 64.9165C50.5415 65.5159 50.0518 66.002 49.4478 71.0675C48.844 66.002 48.3544 65.5162 43.252 64.9165C48.3547 64.3172 48.844 63.8311 49.4478 58.7656C50.0518 63.8311 50.5415 64.3169 55.6439 64.9165Z" fill="white"/>
<path d="M85.1126 30.0025C80.0102 30.6019 79.5206 31.0879 78.9165 36.1534C78.3127 31.0882 77.8231 30.6021 72.7207 30.0025C77.8231 29.4031 78.3127 28.9171 78.9165 23.8516C79.5206 28.9171 80.0099 29.4028 85.1126 30.0025Z" fill="white"/>
</svg>
