<svg width="22" height="22" viewBox="0 0 22 22" fill="none" xmlns="http://www.w3.org/2000/svg">
<path d="M2.29175 10.9993C2.29175 6.8942 2.29175 4.84163 3.56705 3.56632C4.84236 2.29102 6.89494 2.29102 11.0001 2.29102C15.1052 2.29102 17.1578 2.29102 18.4331 3.56632C19.7084 4.84163 19.7084 6.8942 19.7084 10.9993C19.7084 15.1045 19.7084 17.1571 18.4331 18.4324C17.1578 19.7077 15.1052 19.7077 11.0001 19.7077C6.89494 19.7077 4.84236 19.7077 3.56705 18.4324C2.29175 17.1571 2.29175 15.1045 2.29175 10.9993Z" stroke="white" stroke-width="1.5" stroke-linejoin="round"/>
<path d="M15.125 11C15.125 13.2782 13.2782 15.125 11 15.125C8.72183 15.125 6.875 13.2782 6.875 11C6.875 8.72183 8.72183 6.875 11 6.875C13.2782 6.875 15.125 8.72183 15.125 11Z" stroke="white" stroke-width="1.5"/>
<path d="M16.0495 5.95898H16.0405" stroke="white" stroke-width="2" stroke-linecap="round" stroke-linejoin="round"/>
</svg>
