<svg width="20" height="20" viewBox="0 0 20 20" fill="none" xmlns="http://www.w3.org/2000/svg">
<path d="M5.00016 15C3.96289 15.33 3.3335 15.9867 3.3335 16.4614C3.3335 17.4953 6.31826 18.3333 10.0002 18.3333C13.6821 18.3333 16.6668 17.4953 16.6668 16.4614C16.6668 15.9867 16.0374 15.33 15.0002 15" stroke="white" stroke-width="1.5" stroke-linecap="round" stroke-linejoin="round"/>
<path d="M12.0832 7.49935C12.0832 8.64993 11.1504 9.58268 9.99984 9.58268C8.84925 9.58268 7.9165 8.64993 7.9165 7.49935C7.9165 6.34876 8.84925 5.41602 9.99984 5.41602C11.1504 5.41602 12.0832 6.34876 12.0832 7.49935Z" stroke="white" stroke-width="1.5" stroke-linecap="round" stroke-linejoin="round"/>
<path d="M15.8332 7.66602C15.8332 11.6501 11.5814 14.1765 10.3377 14.8303C10.1236 14.9428 9.87609 14.9428 9.662 14.8303C8.41825 14.1765 4.1665 11.6501 4.1665 7.66602C4.1665 4.35231 6.77818 1.66602 9.99984 1.66602C13.2215 1.66602 15.8332 4.35231 15.8332 7.66602Z" stroke="white" stroke-width="1.5" stroke-linecap="round" stroke-linejoin="round"/>
</svg>
