<svg width="500" height="374" viewBox="0 0 500 374" fill="none" xmlns="http://www.w3.org/2000/svg">
<path d="M500 328.143H0V328.393H500V328.143Z" fill="#D1E3FF"/>
<path d="M172.333 334.184H161.851V334.434H172.333V334.184Z" fill="#D1E3FF"/>
<path d="M466.188 340.746H428.249V340.996H466.188V340.746Z" fill="#D1E3FF"/>
<path d="M348 334.309H317.337V334.559H348V334.309Z" fill="#D1E3FF"/>
<path d="M242.471 340.01H189.111V340.26H242.471V340.01Z" fill="#D1E3FF"/>
<path d="M139.675 338.426H121.333V338.676H139.675V338.426Z" fill="#D1E3FF"/>
<path d="M423.422 340.746H408.165V340.996H423.422V340.746Z" fill="#D1E3FF"/>
<path d="M115.503 338.301H64.932V338.551H115.503V338.301Z" fill="#D1E3FF"/>
<path d="M237.014 283.545H43.915C40.768 283.545 38.207 280.984 38.207 277.837V6.40527C38.207 3.25827 40.768 0.697266 43.915 0.697266H237.014C240.16 0.697266 242.721 3.25827 242.721 6.40527V277.837C242.721 280.984 240.16 283.545 237.014 283.545ZM43.915 0.948265C40.905 0.948265 38.457 3.39627 38.457 6.40627V277.838C38.457 280.848 40.905 283.296 43.915 283.296H237.014C240.023 283.296 242.471 280.848 242.471 277.838V6.40527C242.471 3.39627 240.023 0.947266 237.014 0.947266L43.915 0.948265Z" fill="#D1E3FF"/>
<path d="M453.31 283.545H260.212C257.066 283.545 254.505 280.984 254.505 277.837V6.40527C254.505 3.25827 257.066 0.697266 260.212 0.697266H453.31C456.458 0.697266 459.018 3.25827 459.018 6.40527V277.837C459.019 280.984 456.458 283.545 453.31 283.545ZM260.212 0.948265C257.203 0.948265 254.755 3.39627 254.755 6.40627V277.838C254.755 280.848 257.203 283.296 260.212 283.296H453.31C456.32 283.296 458.768 280.848 458.768 277.838V6.40527C458.768 3.39627 456.32 0.947266 453.31 0.947266L260.212 0.948265Z" fill="#D1E3FF"/>
<path d="M193.667 63.8555H74.111V328.267H193.667V63.8555Z" fill="#E3EEFF"/>
<path d="M193.667 63.8555H79.778V328.267H193.667V63.8555Z" fill="#F3F8FF"/>
<path d="M187.667 322.267L187.667 69.8555L85.7765 69.8555L85.7765 322.267H187.667Z" fill="#E9F3FF"/>
<path d="M187.667 322.267L187.667 69.8555H186.111L186.111 322.267H187.667Z" fill="#E3EEFF"/>
<path d="M174.06 190.245C176.883 190.245 179.171 187.957 179.171 185.134C179.171 182.312 176.883 180.023 174.06 180.023C171.237 180.023 168.949 182.312 168.949 185.134C168.949 187.957 171.237 190.245 174.06 190.245Z" fill="#E3EEFF"/>
<path d="M176.06 189.189C178.883 189.189 181.171 186.901 181.171 184.078C181.171 181.255 178.883 178.967 176.06 178.967C173.237 178.967 170.949 181.255 170.949 184.078C170.949 186.901 173.237 189.189 176.06 189.189Z" fill="white"/>
<path d="M445.253 35.6836H364.324V187.707H445.253V35.6836Z" fill="#D1E3FF"/>
<path d="M448.709 35.6836H367.78V187.707H448.709V35.6836Z" fill="#F3F8FF"/>
<path d="M442.506 181.016V42.373L373.983 42.373V181.016H442.506Z" fill="white"/>
<path d="M442.506 181.016V42.373H439.894V181.016H442.506Z" fill="#D1E3FF"/>
<path d="M446.143 140.869H370.345V149.85H446.143V140.869Z" fill="#F3F8FF"/>
<path d="M345.455 35.6836H264.526V187.707H345.455V35.6836Z" fill="#D1E3FF"/>
<path d="M348.911 35.6836H267.982V187.707H348.911V35.6836Z" fill="#F3F8FF"/>
<path d="M342.708 181.016V42.373L274.185 42.373V181.016H342.708Z" fill="white"/>
<path d="M342.708 181.016V42.373H340.095V181.016H342.708Z" fill="#D1E3FF"/>
<path d="M346.346 140.869H270.548V149.85H346.346V140.869Z" fill="#F3F8FF"/>
<path d="M159.5 52.2207L158.585 53.1387H113.944V35.6797L159.5 52.2207Z" fill="#CADEFC"/>
<path d="M115.667 52.2207H159.5L157.777 35.6797H113.944L115.667 52.2207Z" fill="#F3F8FF"/>
<path d="M205.297 194.586H224.198V175.685H205.297V194.586Z" fill="#DCE9FF"/>
<path d="M205.297 175.684H204.656V194.585H205.297V175.684Z" fill="#CADEFC"/>
<path d="M222.433 190.983L221.754 191.665H207.69V178.705L222.433 190.983Z" fill="#CADEFC"/>
<path d="M208.968 190.983H222.433L221.155 178.705H207.69L208.968 190.983Z" fill="white"/>
<path d="M232.294 219.354L241.787 210.779L251.28 219.354V328.393H232.294V219.354Z" fill="#E9F3FF"/>
<path d="M265.199 219.354L274.692 210.779L284.185 219.354V328.393H265.199V219.354Z" fill="#E9F3FF"/>
<path d="M298.103 219.354L307.597 210.779L317.09 219.354V328.393H298.103V219.354Z" fill="#E9F3FF"/>
<path d="M331.008 219.354L340.501 210.779L349.994 219.354V328.393H331.008V219.354Z" fill="#E9F3FF"/>
<path d="M363.913 219.354L373.406 210.779L382.899 219.354V328.393H363.913V219.354Z" fill="#E9F3FF"/>
<path d="M396.818 219.354L406.311 210.779L415.804 219.354V328.393H396.818V219.354Z" fill="#E9F3FF"/>
<path d="M429.723 219.354L439.216 210.779L448.709 219.354V328.393H429.723V219.354Z" fill="#E9F3FF"/>
<path d="M241.787 240.061L439.216 240.061V235.221L241.787 235.221V240.061Z" fill="#E9F3FF"/>
<path d="M241.787 297.342H439.216V292.502H241.787V297.342Z" fill="#E9F3FF"/>
<path d="M249.998 373.304C357.08 373.304 443.887 368.235 443.887 361.981C443.887 355.728 357.08 350.658 249.998 350.658C142.916 350.658 56.1094 355.728 56.1094 361.981C56.1094 368.235 142.916 373.304 249.998 373.304Z" fill="#F0F6FF"/>
<path d="M351.94 135.531L352.472 135.985L353.098 136.488C353.519 136.827 353.963 137.162 354.407 137.49C355.308 138.14 356.227 138.778 357.188 139.359C359.084 140.559 361.067 141.64 363.113 142.584C365.171 143.503 367.274 144.316 369.424 145.007C370.512 145.294 371.588 145.656 372.696 145.873L374.352 146.233L374.553 146.277C374.567 146.277 374.58 146.279 374.593 146.283C374.627 146.298 374.63 146.29 374.639 146.298C374.652 146.306 374.618 146.315 374.582 146.334C374.498 146.373 374.49 146.444 374.627 146.313C374.753 146.195 374.943 145.922 375.11 145.564C375.453 144.838 375.728 143.843 375.917 142.8C376.309 140.694 376.405 138.375 376.464 136.052C376.515 133.72 376.453 131.351 376.321 128.979C376.227 126.608 376.032 124.204 375.835 121.858L379.336 121.227C380.542 126.049 381.36 130.872 381.779 135.886C381.975 138.397 382.022 140.936 381.751 143.628C381.599 144.978 381.373 146.37 380.814 147.892C380.525 148.652 380.144 149.461 379.509 150.286C378.899 151.104 377.895 151.941 376.665 152.377C376.058 152.596 375.421 152.709 374.829 152.729C374.535 152.737 374.236 152.739 373.969 152.708L373.558 152.666L373.313 152.627L371.402 152.317C370.122 152.13 368.874 151.793 367.609 151.522C365.111 150.863 362.638 150.081 360.261 149.056C357.888 148.027 355.574 146.859 353.36 145.505C352.252 144.83 351.182 144.088 350.122 143.319C349.595 142.927 349.071 142.536 348.554 142.11C348.297 141.898 348.04 141.686 347.782 141.456C347.513 141.222 347.292 141.025 346.957 140.706L351.94 135.531Z" fill="#B55B52"/>
<path d="M341.908 131.328C352.034 129.953 360.218 138.141 360.218 138.141L352.654 151.004C352.654 151.004 340.979 146.097 339.234 141.762C337.418 137.247 336.712 132.034 341.908 131.328Z" fill="#0053CC"/>
<path d="M376.669 123.649L371.121 118.535L379.345 115.32C379.345 115.32 381.958 119.721 379.843 124.123L376.669 123.649Z" fill="#B55B52"/>
<path d="M369.998 111.19L376.549 109.941L379.345 115.319L371.121 118.534L369.998 111.19Z" fill="#B55B52"/>
<path d="M306.001 354.316L314.162 355.113L322.655 335.687L314.493 334.889L306.001 354.316Z" fill="#B55B52"/>
<path d="M253.423 325.594L259.553 331.35L272.787 316.805L266.657 311.049L253.423 325.594Z" fill="#B55B52"/>
<path d="M262.384 328.59L257.777 320.29C257.609 319.988 257.264 319.859 256.945 319.981L249.853 322.68C249.117 322.96 248.798 323.904 249.197 324.594C250.853 327.46 251.797 328.76 253.823 332.41C255.069 334.655 257.496 339.806 259.217 342.906C260.9 345.939 264.096 344.47 263.657 343.025C261.689 336.544 262.059 332.937 262.615 330.077C262.715 329.561 262.629 329.032 262.384 328.59Z" fill="#14365B"/>
<path d="M315.246 352.59H305.222C304.857 352.59 304.528 352.843 304.43 353.199L302.25 361.13C302.024 361.953 302.629 362.709 303.473 362.717C307.005 362.749 308.68 362.733 313.088 362.733C315.8 362.733 322.816 362.733 326.561 362.733C330.224 362.733 330.99 359.03 329.474 358.695C322.679 357.191 318.762 355.117 316.665 353.139C316.288 352.782 315.78 352.59 315.246 352.59Z" fill="#14365B"/>
<path d="M322.651 335.691L318.275 345.705H309.761L314.486 334.893L322.651 335.691Z" fill="#9E4541"/>
<path d="M266.652 311.053L272.785 316.811L265.96 324.305L259.828 318.547L266.652 311.053Z" fill="#9E4541"/>
<path d="M350.573 132.275C350.573 132.275 354.241 133.889 341.936 182.588C328.37 181.415 314.349 180.202 307.748 179.631C309.525 165.766 310.283 157.188 306.103 128.057C306.103 128.057 313.401 127.118 320.786 127.4C326.563 127.62 331.293 127.844 336.31 128.743C342.925 129.927 350.573 132.275 350.573 132.275Z" fill="#0053CC"/>
<path d="M320.786 127.399C320.786 127.399 318.847 127.195 316.555 127.195C315.18 129.32 319.364 137.409 326.764 143.493C329.456 138.91 332.997 136.076 332.997 136.076L320.786 127.399Z" fill="white"/>
<path d="M336.31 128.742C336.31 128.742 337.17 128.741 339.239 129.213C340.614 131.338 343.289 138.867 339.231 143.492C336.539 138.909 332.998 136.075 332.998 136.075L336.31 128.742Z" fill="white"/>
<path d="M334.109 141.491C334.142 142.098 333.937 142.603 333.65 142.619C333.363 142.635 333.104 142.155 333.071 141.548C333.038 140.941 333.243 140.436 333.53 140.42C333.816 140.405 334.076 140.884 334.109 141.491Z" fill="white"/>
<path d="M334.038 146.119C334.024 146.727 333.78 147.214 333.493 147.208C333.206 147.201 332.985 146.703 332.999 146.095C333.013 145.487 333.257 145 333.545 145.006C333.831 145.012 334.052 145.511 334.038 146.119Z" fill="white"/>
<path d="M323.836 110.051C324.383 115.131 324.569 124.368 320.786 127.398C320.786 127.398 324.827 131.522 332.998 136.074C338.942 131.967 336.31 128.741 336.31 128.741C330.855 126.929 331.356 122.809 332.662 119.012L323.836 110.051Z" fill="#B55B52"/>
<path d="M327.434 113.709L332.658 119.009C332.346 119.907 332.084 120.823 331.941 121.723C329.84 121.231 326.798 119.048 326.765 116.8C326.748 115.679 327.208 114.21 327.434 113.709Z" fill="#9E4541"/>
<path d="M333.813 95.006C333.813 95.006 339.356 100.438 340.578 103.095C343.933 104.339 343.032 95.489 340.48 90.377C336.016 94.364 333.813 95.006 333.813 95.006Z" fill="#0F264C"/>
<path d="M319.367 102.116C321.486 110.23 322.209 113.709 327.186 117.109C334.672 122.222 344.174 117.846 344.522 109.263C344.835 101.537 341.318 89.5665 332.636 87.8785C324.083 86.2155 317.248 94.0015 319.367 102.116Z" fill="#B55B52"/>
<path d="M337.782 91.7788C341.496 92.3368 345.207 88.8488 339.192 85.1188C341.12 84.9258 343.161 78.1198 336.22 78.4978C335.877 75.2648 328.946 72.3818 325.266 77.5198C320.958 74.6818 314.836 77.5878 316.205 81.9938C311.257 82.2988 308.681 89.0638 312.763 90.1638C307.847 93.1418 306.987 98.0158 311.806 98.8908C312.469 104.503 323.46 101.995 322.606 96.7708C324.589 97.8438 330.886 95.5398 329.601 92.7568C331.518 95.3098 337.78 94.1198 337.782 91.7788Z" fill="#0F264C"/>
<path d="M314.956 98.8774C314.956 98.8774 319.033 105.481 319.581 108.354C322.539 110.367 323.789 101.56 322.539 95.9844C317.248 98.7844 314.956 98.8774 314.956 98.8774Z" fill="#0F264C"/>
<path d="M318.697 109.439C319.495 110.983 320.932 112.015 322.3 112.427C324.358 113.046 325.429 111.216 324.893 109.252C324.41 107.484 322.758 105.031 320.676 105.272C318.624 105.509 317.785 107.674 318.697 109.439Z" fill="#B55B52"/>
<path d="M341.936 182.588C341.936 182.588 353.503 233.758 345.782 269.832C340.61 293.993 321.959 342.801 321.959 342.801L307.377 342.426C307.377 342.426 321.496 291.206 324.415 271.062C329.408 236.605 316.902 180.422 316.902 180.422L341.936 182.588Z" fill="#9FC6FF"/>
<path d="M328.598 192.92L321.307 204.42C323.162 216.344 325.008 231.259 325.479 245.611C335.732 227.253 330.877 202.638 328.598 192.92Z" fill="#77B3FC"/>
<path d="M324.015 343.556L306.001 343.098L307.043 337.562L326.711 338.495L324.015 343.556Z" fill="#0053CC"/>
<path d="M334.461 182.043C334.461 182.043 327.675 236.309 312.965 265.935C301.084 289.864 269.38 323.928 269.38 323.928L261.274 315.577C261.274 315.577 282.688 278.556 291.518 262.66C313.17 223.683 295.475 193.94 307.746 179.629L334.461 182.043Z" fill="#9FC6FF"/>
<path d="M270.202 325.046L259.741 314.849L263.212 310.127L274.612 321.913L270.202 325.046Z" fill="#0053CC"/>
<path d="M307.409 177.58L305.603 180.507C305.463 180.734 305.723 181 306.118 181.035L341.972 184.136C342.28 184.163 342.549 184.034 342.585 183.842L343.158 180.809C343.198 180.599 342.946 180.396 342.609 180.367L307.988 177.373C307.734 177.349 307.5 177.434 307.409 177.58Z" fill="#14365B"/>
<path d="M311.724 181.853L310.797 181.773C310.612 181.757 310.48 181.65 310.503 181.535L311.282 177.597C311.305 177.482 311.475 177.4 311.659 177.416L312.586 177.496C312.771 177.512 312.903 177.619 312.88 177.735L312.101 181.673C312.079 181.788 311.909 181.869 311.724 181.853Z" fill="#9FC6FF"/>
<path d="M339.338 184.242L338.411 184.162C338.226 184.146 338.094 184.039 338.117 183.923L338.896 179.985C338.919 179.87 339.089 179.789 339.273 179.805L340.2 179.885C340.385 179.901 340.517 180.008 340.494 180.124L339.715 184.062C339.692 184.177 339.523 184.258 339.338 184.242Z" fill="#9FC6FF"/>
<path d="M325.531 183.047L324.604 182.967C324.419 182.951 324.287 182.844 324.31 182.728L325.089 178.79C325.112 178.675 325.281 178.593 325.466 178.609L326.393 178.689C326.578 178.705 326.71 178.812 326.687 178.928L325.908 182.866C325.885 182.982 325.716 183.063 325.531 183.047Z" fill="#9FC6FF"/>
<path d="M332.276 101.962C332.407 102.631 332.868 103.103 333.306 103.017C333.743 102.931 333.991 102.319 333.859 101.651C333.728 100.982 333.267 100.51 332.829 100.596C332.392 100.681 332.144 101.293 332.276 101.962Z" fill="#0F264C"/>
<path d="M339.834 100.478C339.965 101.147 340.426 101.619 340.864 101.533C341.301 101.447 341.549 100.835 341.417 100.167C341.286 99.4977 340.825 99.0257 340.387 99.1117C339.951 99.1967 339.703 99.8087 339.834 100.478Z" fill="#0F264C"/>
<path d="M340.202 99.1853L341.717 98.4062C341.717 98.4062 341.14 99.8233 340.202 99.1853Z" fill="#0F264C"/>
<path d="M338.062 102.018C338.062 102.018 339.763 104.674 341.285 105.817C340.564 106.815 338.989 106.733 338.989 106.733L338.062 102.018Z" fill="#A02724"/>
<path d="M335.897 109.921C333.529 109.921 332.154 108.539 332.087 108.471C332.023 108.405 332.024 108.3 332.09 108.236C332.155 108.173 332.262 108.174 332.325 108.239C332.344 108.257 334.139 110.053 337.082 109.47C337.17 109.45 337.26 109.511 337.277 109.601C337.295 109.691 337.236 109.779 337.146 109.796C336.705 109.884 336.288 109.921 335.897 109.921Z" fill="#0F264C"/>
<path d="M328.562 97.787C328.503 97.787 328.444 97.771 328.39 97.739C328.233 97.644 328.182 97.439 328.277 97.282C329.405 95.418 331.215 95.336 331.292 95.334C331.295 95.334 331.299 95.334 331.303 95.334C331.482 95.334 331.628 95.475 331.635 95.654C331.642 95.837 331.498 95.991 331.316 95.999C331.253 96.001 329.783 96.081 328.848 97.627C328.785 97.729 328.675 97.787 328.562 97.787Z" fill="#0F264C"/>
<path d="M342.76 96.5664C342.704 96.5664 342.649 96.5524 342.598 96.5244C341.008 95.6374 339.663 96.3234 339.65 96.3304C339.487 96.4154 339.286 96.3534 339.2 96.1904C339.115 96.0274 339.177 95.8264 339.34 95.7414C339.408 95.7054 341.023 94.8804 342.923 95.9434C343.083 96.0334 343.141 96.2354 343.051 96.3964C342.989 96.5054 342.876 96.5664 342.76 96.5664Z" fill="#0F264C"/>
<path d="M308.698 140.288C307.274 143.191 305.732 145.749 304.079 148.367C302.4 150.939 300.618 153.446 298.705 155.868C296.798 158.296 294.696 160.585 292.489 162.786C291.356 163.865 290.226 164.942 289.008 165.945L288.112 166.71C287.703 167.037 287.268 167.355 286.767 167.649C285.787 168.233 284.435 168.725 282.953 168.676C281.463 168.652 280.124 168.036 279.185 167.356C278.223 166.665 277.539 165.9 276.964 165.15C275.834 163.64 275.087 162.137 274.442 160.644C273.185 157.655 272.308 154.696 271.631 151.709C270.269 145.742 269.426 139.813 268.984 133.768L272.515 133.33C273.09 136.176 273.698 139.074 274.41 141.908C275.088 144.754 275.836 147.577 276.711 150.326C277.603 153.061 278.526 155.784 279.74 158.198C280.336 159.398 281.019 160.522 281.727 161.348C282.076 161.756 282.436 162.069 282.699 162.22C282.974 162.381 283.069 162.355 283.074 162.334C283.082 162.322 283.193 162.319 283.476 162.131C283.612 162.041 283.77 161.912 283.938 161.772L284.703 161.055C285.74 160.124 286.713 159.105 287.688 158.093C289.608 156.025 291.384 153.808 293.123 151.55C294.845 149.277 296.453 146.902 297.974 144.473C298.75 143.268 299.489 142.04 300.214 140.806C300.912 139.581 301.643 138.285 302.249 137.126L308.698 140.288Z" fill="#B55B52"/>
<path d="M274.102 134.531L273.206 127.039L265.783 131.821C265.783 131.821 268.221 135.861 271.577 136.898L274.102 134.531Z" fill="#B55B52"/>
<path d="M270.457 123.998L265.609 128.577L265.784 131.821L273.206 127.038L270.457 123.998Z" fill="#B55B52"/>
<path d="M306.103 128.057C301.912 128.798 296.039 140.819 296.039 140.819L306.604 150.375C306.604 150.375 315.007 141.209 314.559 135.748C314.178 131.112 311.441 127.113 306.103 128.057Z" fill="#0053CC"/>
<path d="M264 333.05C263.891 333.05 263.782 333.032 263.674 332.995C262.671 332.658 262.014 330.803 261.711 329.727C261.693 329.663 261.715 329.595 261.767 329.553C261.819 329.511 261.889 329.503 261.949 329.535C262.255 329.695 264.933 331.127 265.02 332.184C265.033 332.345 264.995 332.579 264.735 332.775C264.49 332.958 264.245 333.05 264 333.05ZM262.145 330.021C262.61 331.504 263.21 332.488 263.78 332.68C264.023 332.762 264.272 332.706 264.533 332.508C264.684 332.394 264.693 332.283 264.687 332.21C264.634 331.561 263.064 330.543 262.145 330.021Z" fill="#407BFF"/>
<path d="M264.414 330.441C263.463 330.441 262.297 330.137 261.784 329.824C261.733 329.794 261.703 329.738 261.705 329.678C261.706 329.62 261.738 329.565 261.79 329.536C261.88 329.486 263.999 328.322 265.143 328.726C265.441 328.831 265.651 329.031 265.768 329.318C265.95 329.766 265.751 330.025 265.617 330.139C265.362 330.355 264.918 330.441 264.414 330.441ZM262.237 329.682C263.146 330.071 264.906 330.309 265.4 329.887C265.482 329.817 265.564 329.703 265.459 329.445C265.379 329.247 265.239 329.115 265.032 329.042C264.255 328.767 262.841 329.385 262.237 329.682Z" fill="#407BFF"/>
<path d="M319.693 354.211C318.73 354.211 317.683 354.024 316.957 353.863C316.888 353.848 316.836 353.79 316.828 353.719C316.82 353.648 316.858 353.58 316.923 353.55C317.335 353.356 320.975 351.68 321.887 352.295C322.004 352.374 322.141 352.528 322.124 352.811C322.101 353.202 321.934 353.517 321.629 353.749C321.174 354.093 320.46 354.211 319.693 354.211ZM317.528 353.64C318.61 353.843 320.607 354.105 321.427 353.483C321.656 353.311 321.775 353.085 321.791 352.792C321.799 352.656 321.746 352.603 321.7 352.572C321.188 352.222 319.039 352.976 317.528 353.64Z" fill="#407BFF"/>
<path d="M316.993 353.868C316.954 353.868 316.916 353.854 316.886 353.829C316.838 353.789 316.818 353.725 316.831 353.665C316.865 353.512 317.716 349.911 319.664 350.154C320.159 350.213 320.294 350.459 320.32 350.654C320.444 351.568 318.15 353.409 317.055 353.856C317.036 353.864 317.015 353.868 316.993 353.868ZM319.486 350.476C318.226 350.476 317.491 352.563 317.247 353.399C318.432 352.779 320.07 351.283 319.991 350.699C319.985 350.656 319.968 350.525 319.625 350.484C319.578 350.478 319.532 350.476 319.486 350.476Z" fill="#407BFF"/>
<path d="M332.643 100.672L334.158 99.8926C334.158 99.8926 333.581 101.31 332.643 100.672Z" fill="#0F264C"/>
<path d="M123.532 102.705C142.201 84.0359 166.661 74.7089 191.118 74.7129C200.527 74.7129 204.644 74.7129 204.644 74.7129C204.644 74.7129 268.478 91.4199 268.478 159.808C268.478 226.647 224.284 285.83 204.655 305.458H191.136L123.532 237.854C86.2244 200.546 86.2244 140.013 123.532 102.705ZM191.126 214.659C215.636 214.659 235.505 194.79 235.505 170.29C235.505 145.78 215.636 125.911 191.126 125.911C166.616 125.911 146.747 145.78 146.747 170.29C146.747 194.79 166.617 214.659 191.126 214.659Z" fill="#14365B"/>
<path d="M273.968 100.938C270.001 96.9717 265.694 93.3337 261.163 90.1227L261.741 89.3077C266.317 92.5507 270.669 96.2257 274.675 100.231L273.968 100.938ZM255.19 86.2107C252.839 84.7907 250.402 83.4567 247.943 82.2437L248.385 81.3477C250.868 82.5727 253.332 83.9207 255.707 85.3547L255.19 86.2107Z" fill="#0053CC"/>
<path d="M137.05 102.705C174.388 65.3671 234.891 65.3971 272.199 102.705C309.537 140.043 309.567 200.546 272.229 237.884L204.655 305.458L137.05 237.854C99.7434 200.546 99.7434 140.013 137.05 102.705ZM204.645 214.659C229.155 214.659 249.024 194.79 249.024 170.29C249.024 145.78 229.155 125.911 204.645 125.911C180.135 125.911 160.266 145.78 160.266 170.29C160.266 194.79 180.135 214.659 204.645 214.659Z" fill="#0053CC"/>
<path opacity="0.4" d="M204.655 300.052C204.591 300.052 204.527 300.028 204.478 299.979L139.702 235.204C103.905 199.405 103.905 141.157 139.702 105.359C157.046 88.0159 180.101 78.4648 204.621 78.4648C229.147 78.4648 252.205 88.0159 269.549 105.359C305.363 141.174 305.376 199.436 269.578 235.234L204.832 299.979C204.783 300.027 204.719 300.052 204.655 300.052ZM204.621 78.9639C180.234 78.9639 157.305 88.4628 140.056 105.711C104.454 141.315 104.454 199.246 140.056 234.849L204.656 299.448L269.225 234.88C304.828 199.276 304.815 141.332 269.196 105.712C251.946 88.4629 229.013 78.9639 204.621 78.9639ZM204.645 218.909C177.831 218.909 156.015 197.098 156.015 170.29C156.015 143.476 177.83 121.661 204.645 121.661C231.459 121.661 253.274 143.476 253.274 170.29C253.274 197.099 231.459 218.909 204.645 218.909ZM204.645 122.161C178.106 122.161 156.515 143.751 156.515 170.29C156.515 196.823 178.106 218.409 204.645 218.409C231.184 218.409 252.774 196.823 252.774 170.29C252.774 143.752 231.184 122.161 204.645 122.161Z" fill="#9FC6FF"/>
</svg>
