<svg width="32" height="32" viewBox="0 0 32 32" fill="none" xmlns="http://www.w3.org/2000/svg">
<path d="M21.5693 24.6117C21.9701 24.8041 22.4672 25.3012 22.7077 25.7021C22.7879 26.2632 23.1888 24.0987 25.1448 22.816M28.6667 24.0052C28.6667 26.9507 26.2788 29.3385 23.3333 29.3385C20.3879 29.3385 18 26.9507 18 24.0052C18 21.0596 20.3879 18.6719 23.3333 18.6719C26.2788 18.6719 28.6667 21.0596 28.6667 24.0052Z" stroke="white" stroke-width="1.5" stroke-linecap="round"/>
<path d="M14.677 18.6693C16.1498 18.6693 17.3437 17.4754 17.3437 16.0026C17.3437 14.5298 16.1498 13.3359 14.677 13.3359C13.2043 13.3359 12.0104 14.5298 12.0104 16.0026C12.0104 17.4754 13.2043 18.6693 14.677 18.6693Z" stroke="white" stroke-width="1.5"/>
<path d="M10.0102 24.0026C11.2768 22.8026 12.3435 22.136 14.7102 22.0026M26.0103 15.336C26.0103 14.2693 26.0436 11.0026 25.8769 9.66927C25.7769 8.56927 25.4769 7.06927 24.1102 6.2026C23.2769 5.76927 22.4769 5.36927 18.6436 5.33594M10.6102 5.33594C7.74352 5.33594 5.51018 5.56927 4.4102 6.93594C3.47686 8.21148 3.53241 9.66927 3.44352 10.1359C3.24352 12.6359 3.37685 21.3693 3.37685 22.836C3.37685 24.3693 3.27685 27.486 5.37685 28.536C7.17685 29.436 9.04352 29.3026 15.3769 29.336" stroke="white" stroke-width="1.5" stroke-linecap="round"/>
<path d="M14.4769 2.66806C13.6769 2.66806 13.0102 2.66806 12.3435 3.36806C11.7768 3.9014 11.8648 4.37237 11.6435 5.2014C11.3322 6.36806 11.1765 6.98337 11.6102 7.46806C12.0077 7.98846 12.6759 7.99016 13.266 7.99164L13.2769 7.99168C13.8436 8.0318 15.7482 8.01342 16.3102 7.99168C16.914 7.96829 17.4 7.93473 17.8102 7.4014C18.1769 6.92473 17.9594 6.13148 17.7436 5.3014C17.5305 4.48241 17.6102 4.06806 17.0436 3.36806C16.2436 2.56806 15.2769 2.66806 14.4769 2.66806Z" stroke="white" stroke-width="1.5" stroke-linecap="round"/>
</svg>
