<svg width="32" height="32" viewBox="0 0 32 32" fill="none" xmlns="http://www.w3.org/2000/svg">
<path d="M18.6666 12H24" stroke="white" stroke-width="1.5" stroke-linecap="round"/>
<path d="M18.6666 16.6641H22.6666" stroke="white" stroke-width="1.5" stroke-linecap="round"/>
<path d="M22.6666 4H9.33329C5.65139 4 2.66663 6.98477 2.66663 10.6667V21.3333C2.66663 25.0152 5.65139 28 9.33329 28H22.6666C26.3485 28 29.3333 25.0152 29.3333 21.3333V10.6667C29.3333 6.98477 26.3485 4 22.6666 4Z" stroke="white" stroke-width="1.5" stroke-linejoin="round"/>
<path d="M6.66663 21.3307C8.27771 17.8893 14.2829 17.6629 16 21.3307" stroke="white" stroke-width="1.5" stroke-linecap="round" stroke-linejoin="round"/>
<path d="M14 12.0026C14 13.4753 12.8061 14.6693 11.3333 14.6693C9.86053 14.6693 8.66663 13.4753 8.66663 12.0026C8.66663 10.5298 9.86053 9.33594 11.3333 9.33594C12.8061 9.33594 14 10.5298 14 12.0026Z" stroke="white" stroke-width="1.5"/>
</svg>
