<svg width="6" height="12" viewBox="0 0 6 12" fill="none" xmlns="http://www.w3.org/2000/svg">
<path d="M0.83285 11.8336C0.638139 11.834 0.449443 11.7662 0.299516 11.6419C0.129094 11.5007 0.021893 11.2974 0.00156875 11.0769C-0.0187555 10.8565 0.0494671 10.637 0.191183 10.4669L3.92452 6.00028L0.324516 1.52528C0.184707 1.35312 0.119292 1.13233 0.142753 0.911794C0.166214 0.691259 0.276616 0.489174 0.449516 0.35028C0.623822 0.196914 0.854206 0.123217 1.08516 0.146945C1.31612 0.170673 1.5267 0.289675 1.66618 0.47528L5.69118 5.47528C5.94395 5.78278 5.94395 6.22611 5.69118 6.53361L1.52452 11.5336C1.35496 11.7382 1.09805 11.8496 0.83285 11.8336Z" fill="#919EAB"/>
</svg>
