<svg width="500" height="374" viewBox="0 0 500 374" fill="none" xmlns="http://www.w3.org/2000/svg">
<path d="M500 328.144H0V328.394H500V328.144Z" fill="#D1E3FF"/>
<path d="M152.5 334.184H142.018V334.434H152.5V334.184Z" fill="#D1E3FF"/>
<path d="M466.188 340.745H448.333V340.995H466.188V340.745Z" fill="#D1E3FF"/>
<path d="M381.894 334.309H322.74V334.559H381.894V334.309Z" fill="#D1E3FF"/>
<path d="M233.897 340.01H188.642V340.26H233.897V340.01Z" fill="#D1E3FF"/>
<path d="M139.675 338.426H124V338.676H139.675V338.426Z" fill="#D1E3FF"/>
<path d="M426.334 340.01H403.778V340.26H426.334V340.01Z" fill="#D1E3FF"/>
<path d="M118.17 338.301H64.9319V338.551H118.17V338.301Z" fill="#D1E3FF"/>
<path d="M237.014 283.545H43.915C40.768 283.545 38.207 280.984 38.207 277.837V6.40527C38.207 3.25827 40.768 0.697266 43.915 0.697266H237.014C240.16 0.697266 242.721 3.25827 242.721 6.40527V277.837C242.721 280.984 240.16 283.545 237.014 283.545ZM43.915 0.948265C40.905 0.948265 38.457 3.39627 38.457 6.40627V277.838C38.457 280.848 40.905 283.296 43.915 283.296H237.014C240.023 283.296 242.471 280.848 242.471 277.838V6.40527C242.471 3.39627 240.023 0.947266 237.014 0.947266L43.915 0.948265Z" fill="#D1E3FF"/>
<path d="M453.31 283.545H260.212C257.066 283.545 254.505 280.984 254.505 277.837V6.40527C254.505 3.25827 257.066 0.697266 260.212 0.697266H453.31C456.458 0.697266 459.018 3.25827 459.018 6.40527V277.837C459.019 280.984 456.458 283.545 453.31 283.545ZM260.212 0.948265C257.203 0.948265 254.755 3.39627 254.755 6.40627V277.838C254.755 280.848 257.203 283.296 260.212 283.296H453.31C456.32 283.296 458.768 280.848 458.768 277.838V6.40527C458.768 3.39627 456.32 0.947266 453.31 0.947266L260.212 0.948265Z" fill="#D1E3FF"/>
<path d="M77.5584 219.316L203.795 219.316L203.795 30.3744L77.5584 30.3744L77.5584 219.316Z" fill="#D1E3FF"/>
<path d="M74.7527 219.316L200.991 219.316L200.991 30.3744L74.7527 30.3744L74.7527 219.316Z" fill="#F3F8FF"/>
<path d="M195.955 213.66L195.955 36.0312L79.7881 36.0312L79.7881 213.66L195.955 213.66Z" fill="white"/>
<path d="M81.9092 213.66L81.9092 36.0312H79.7882L79.7882 213.66H81.9092Z" fill="#D1E3FF"/>
<path d="M76.8357 166.136L198.908 166.136V158.542L76.8357 158.542V166.136Z" fill="#F3F8FF"/>
<path d="M69.263 21.0127H209.285C209.711 21.0127 210.06 21.3617 210.06 21.7877C210.06 22.2137 209.711 22.5627 209.285 22.5627H69.263C68.837 22.5627 68.488 22.2137 68.488 21.7877C68.487 21.3607 68.836 21.0127 69.263 21.0127Z" fill="#D1E3FF"/>
<path d="M64.6111 21.7881C64.6111 23.9291 66.3461 25.6641 68.4871 25.6641C70.6281 25.6641 72.3631 23.9291 72.3631 21.7881C72.3631 19.6471 70.6281 17.9121 68.4871 17.9121C66.3471 17.9121 64.6111 19.6471 64.6111 21.7881Z" fill="#D1E3FF"/>
<path d="M202.749 26.1291C203.325 26.1291 203.796 25.6581 203.796 25.0821V22.8341C203.796 22.2581 203.325 21.7871 202.749 21.7871C202.173 21.7871 201.702 22.2581 201.702 22.8341V25.0821C201.702 25.6581 202.173 26.1291 202.749 26.1291Z" fill="#D1E3FF"/>
<path d="M80.954 26.1291C81.53 26.1291 82.001 25.6581 82.001 25.0821V22.8341C82.001 22.2581 81.53 21.7871 80.954 21.7871C80.378 21.7871 79.907 22.2581 79.907 22.8341V25.0821C79.907 25.6581 80.378 26.1291 80.954 26.1291Z" fill="#D1E3FF"/>
<path opacity="0.4" d="M69.5107 60.6523L198.908 60.6523V21.7873L69.5107 21.7873V60.6523Z" fill="#CCE3FF"/>
<path d="M186.406 21.7881C186.406 23.9291 188.141 25.6641 190.282 25.6641C192.423 25.6641 194.158 23.9291 194.158 21.7881C194.158 19.6471 192.423 17.9121 190.282 17.9121C188.141 17.9121 186.406 19.6471 186.406 21.7881Z" fill="#D1E3FF"/>
<path d="M392.712 323.014H429.228V242.052H392.712V323.014Z" fill="#E3EEFF"/>
<path d="M242.134 328.144H422.217V323.014H242.134V328.144Z" fill="#E3EEFF"/>
<path d="M392.711 242.051H235.122V323.013H392.711V242.051Z" fill="#F3F8FF"/>
<path d="M378.355 252.017H249.479V278.57H378.355V252.017Z" fill="#E3EEFF"/>
<path d="M378.355 286.495H249.479V313.048H378.355V286.495Z" fill="#E3EEFF"/>
<path d="M297.496 267.113H330.338C331.223 267.113 331.946 266.389 331.946 265.505V265.081C331.946 264.196 331.222 263.473 330.338 263.473H297.496C296.611 263.473 295.888 264.197 295.888 265.081V265.505C295.887 266.39 296.611 267.113 297.496 267.113Z" fill="#F3F8FF"/>
<path d="M297.496 301.592H330.338C331.223 301.592 331.946 300.868 331.946 299.984V299.56C331.946 298.675 331.222 297.952 330.338 297.952H297.496C296.611 297.952 295.888 298.676 295.888 299.56V299.984C295.887 300.868 296.611 301.592 297.496 301.592Z" fill="#F3F8FF"/>
<path d="M349.318 229.839C353.611 228.694 356.163 224.285 355.017 219.992C353.872 215.699 349.463 213.148 345.17 214.293C340.877 215.439 338.326 219.847 339.471 224.14C340.617 228.433 345.025 230.985 349.318 229.839Z" fill="#F3F8FF"/>
<path d="M340.273 226.247C343.414 223.105 343.414 218.012 340.273 214.87C337.131 211.728 332.037 211.728 328.895 214.87C325.754 218.012 325.754 223.105 328.895 226.247C332.037 229.389 337.131 229.389 340.273 226.247Z" fill="#F3F8FF"/>
<path d="M295.668 232.317C300.111 232.317 303.713 228.715 303.713 224.272C303.713 219.828 300.111 216.227 295.668 216.227C291.225 216.227 287.623 219.828 287.623 224.272C287.623 228.715 291.225 232.317 295.668 232.317Z" fill="#F3F8FF"/>
<path d="M317.724 235.914C322.11 235.2 325.086 231.067 324.373 226.682C323.659 222.296 319.526 219.32 315.14 220.033C310.755 220.747 307.778 224.88 308.492 229.266C309.206 233.651 313.339 236.628 317.724 235.914Z" fill="#F3F8FF"/>
<path d="M370.633 223.533C370.633 223.533 369.33 242.051 319.37 242.051C269.41 242.051 268.107 223.533 268.107 223.533H370.633Z" fill="#E3EEFF"/>
<path d="M182.264 323.135H200.492V244.079H182.264V323.135Z" fill="#E3EEFF"/>
<path d="M78.7504 328.144H196.992V323.135H78.7504V328.144Z" fill="#E3EEFF"/>
<path d="M182.263 244.078H75.25V323.134H182.263V244.078Z" fill="#F3F8FF"/>
<path d="M175.097 253.81H82.417V279.737H175.097V253.81Z" fill="#E3EEFF"/>
<path d="M175.097 287.477H82.417V313.404H175.097V287.477Z" fill="#E3EEFF"/>
<path d="M114.72 256.978H142.793C144.693 256.978 146.248 255.423 146.248 253.523C146.248 251.623 144.693 250.068 142.793 250.068H114.72C112.82 250.068 111.265 251.623 111.265 253.523C111.265 255.423 112.82 256.978 114.72 256.978Z" fill="#F3F8FF"/>
<path d="M114.721 290.644H142.793C144.693 290.644 146.248 289.089 146.248 287.189C146.248 285.289 144.693 283.734 142.793 283.734H114.721C112.821 283.734 111.266 285.289 111.266 287.189C111.266 289.09 112.821 290.644 114.721 290.644Z" fill="#F3F8FF"/>
<path d="M279.642 154.322H331.985V47.7793H279.642V154.322Z" fill="#D1E3FF"/>
<path d="M275.443 154.322H330.854V47.7793H275.443V154.322Z" fill="#F3F8FF"/>
<path d="M322.791 146.26V55.8418L283.506 55.8418V146.26H322.791Z" fill="white"/>
<path d="M401.421 137.494H430.079V104.478H401.421V137.494Z" fill="#E3EEFF"/>
<path d="M395.622 137.494H426.68V104.478H395.622V137.494Z" fill="#F3F8FF"/>
<path d="M424.078 134.892V107.079H398.224V134.892H424.078Z" fill="white"/>
<path d="M417.812 125.87V116.101C417.812 114.842 416.791 113.82 415.531 113.82H406.771C405.511 113.82 404.49 114.841 404.49 116.101V125.87C404.49 127.13 405.511 128.151 406.771 128.151H415.531C416.791 128.151 417.812 127.13 417.812 125.87Z" fill="#F3F8FF"/>
<path d="M378.328 91.5537H406.986V58.5377H378.328V91.5537Z" fill="#E3EEFF"/>
<path d="M372.529 91.5537H403.587V58.5377L372.529 58.5377V91.5537Z" fill="#F3F8FF"/>
<path d="M400.985 88.9517V61.1387L375.131 61.1387V88.9517H400.985Z" fill="white"/>
<path d="M394.718 79.9299V70.1609C394.718 68.9019 393.697 67.8799 392.437 67.8799H383.677C382.417 67.8799 381.396 68.9009 381.396 70.1609V79.9299C381.396 81.1899 382.417 82.2109 383.677 82.2109H392.437C393.697 82.2109 394.718 81.1899 394.718 79.9299Z" fill="#F3F8FF"/>
<path d="M249.998 373.303C357.08 373.303 443.887 368.234 443.887 361.98C443.887 355.727 357.08 350.657 249.998 350.657C142.916 350.657 56.1094 355.727 56.1094 361.98C56.1094 368.234 142.916 373.303 249.998 373.303Z" fill="#F0F6FF"/>
<path d="M325.58 72.1104H109.672V283.521H325.58V72.1104Z" fill="#0F264C"/>
<path d="M320.039 78.8701H115.225V283.521H320.039V78.8701Z" fill="white"/>
<path d="M325.58 280.539V283.521H216.771L240.285 260.02L272.667 227.626L325.58 280.539Z" fill="#0F264C"/>
<path d="M109.672 283.522V263.202L176.569 196.305L263.786 283.522H109.672Z" fill="#0F264C"/>
<path d="M253.232 173.022C271.489 173.022 286.288 158.222 286.288 139.966C286.288 121.71 271.489 106.91 253.232 106.91C234.976 106.91 220.176 121.71 220.176 139.966C220.176 158.222 234.976 173.022 253.232 173.022Z" fill="#0F264C"/>
<path d="M364.604 83.0623L364.507 84.0576L371.653 84.7555L371.75 83.7602L364.604 83.0623Z" fill="#0053CC"/>
<path d="M340.28 80.6834L340.183 81.6787L357.669 83.3863L357.766 82.391L340.28 80.6834Z" fill="#0053CC"/>
<path d="M173.692 67.9313L153.143 278.349L368.036 299.335L388.585 88.9175L173.692 67.9313Z" fill="#0053CC"/>
<path d="M178.563 75.1995L158.671 278.889L362.522 298.797L382.414 95.1074L178.563 75.1995Z" fill="white"/>
<path d="M368.314 296.369L368.023 299.337L259.729 288.762L285.417 267.658L320.794 238.564L368.314 296.369Z" fill="#0053CC"/>
<path d="M153.137 278.354L155.112 258.13L228.194 198.051L306.521 293.333L153.137 278.354Z" fill="#0053CC"/>
<path d="M340.236 162.685C347.564 145.964 339.95 126.469 323.229 119.14C306.508 111.812 287.012 119.427 279.684 136.148C272.356 152.869 279.97 172.364 296.691 179.693C313.412 187.021 332.908 179.406 340.236 162.685Z" fill="#0053CC"/>
<path d="M292.755 95.8896L77.3 109.967L91.084 320.934L306.539 306.857L292.755 95.8896Z" fill="#9FC6FF"/>
<path d="M287.667 102.997L83.283 116.351L96.6262 320.572L301.01 307.218L287.667 102.997Z" fill="white"/>
<path d="M306.327 303.878L306.521 306.854L197.944 313.945L219.876 288.962L250.078 254.526L306.327 303.878Z" fill="#9FC6FF"/>
<path d="M91.0723 320.925L89.7483 300.649L152.143 229.533L244.859 310.881L91.0723 320.925Z" fill="#9FC6FF"/>
<path d="M248.343 191.693C261.252 178.784 261.252 157.854 248.343 144.945C235.434 132.036 214.504 132.036 201.595 144.945C188.686 157.854 188.686 178.784 201.595 191.693C214.504 204.602 235.434 204.602 248.343 191.693Z" fill="#9FC6FF"/>
<path d="M379.122 202.244L372.1 204.569L378.444 211.379C378.444 211.379 383.982 208.073 382.558 204.943L379.122 202.244Z" fill="#FFC3BD"/>
<path d="M367.29 210.837L372.792 216.137L378.444 211.379L372.1 204.569L367.29 210.837Z" fill="#FFC3BD"/>
<path d="M390.625 146.66C391.334 147.97 391.927 149.137 392.51 150.391C393.095 151.625 393.657 152.865 394.205 154.113C395.28 156.617 396.274 159.162 397.158 161.763C398.064 164.354 398.823 167.024 399.481 169.744L399.95 171.798L400.331 173.896C400.467 174.588 400.551 175.311 400.645 176.026L400.784 177.099L400.818 177.367L400.861 177.813C400.894 178.155 400.893 178.456 400.893 178.767C400.815 181.163 400.204 182.781 399.596 184.294C398.969 185.787 398.258 187.094 397.52 188.348C396.031 190.836 394.388 193.058 392.691 195.201C389.272 199.472 385.595 203.31 381.593 206.968L377.521 203.314C380.432 199.11 383.318 194.768 385.917 190.471C387.211 188.319 388.419 186.139 389.407 184.012C389.897 182.956 390.33 181.901 390.618 180.941C390.908 180.007 391.045 179.066 390.975 178.834C390.965 178.817 390.965 178.791 390.954 178.808C390.946 178.789 390.962 178.866 390.941 178.767L390.894 178.551L390.708 177.688C390.583 177.113 390.474 176.541 390.307 175.958L389.851 174.22L389.336 172.473C388.607 170.146 387.798 167.816 386.892 165.494C385.978 163.178 385.023 160.862 384.004 158.568C383.022 156.287 381.886 153.943 380.866 151.827L390.625 146.66Z" fill="#FFC3BD"/>
<path d="M402.098 164.152L388.488 171.342L385.208 173.082C385.208 173.082 384.438 170.832 383.348 167.562C382.468 164.952 381.368 161.702 380.288 158.412C379.948 157.372 379.608 156.342 379.278 155.322C379.178 155.032 379.078 154.752 378.988 154.462C376.048 145.452 384.208 141.412 389.758 142.572C399.268 144.562 402.098 164.152 402.098 164.152Z" fill="#9FC6FF"/>
<path d="M388.488 171.343L385.208 173.083C385.208 173.083 384.438 170.833 383.348 167.563C382.468 164.953 381.368 161.703 380.288 158.413C379.948 157.373 379.608 156.343 379.278 155.323L386.778 153.853C386.778 153.853 387.808 165.753 388.488 171.343Z" fill="#77B3FC"/>
<path d="M378.931 121.962C377.364 127.163 375.361 136.778 378.72 140.686C378.72 140.686 376.735 145.922 366.88 144.943C356.043 143.866 362.235 139.048 362.235 139.048C368.29 138.223 368.574 133.82 367.953 129.596L378.931 121.962Z" fill="#FFC3BD"/>
<path d="M360.127 140.878C360.625 139.922 359.913 136.326 359.913 136.326C359.913 136.326 375.375 134.244 380.907 136.215C383.883 137.275 381.272 142.622 381.272 142.622L360.127 140.878Z" fill="#14365B"/>
<path d="M360.447 114.092C360.389 114.677 360.032 115.12 359.65 115.082C359.268 115.044 359.005 114.539 359.063 113.954C359.121 113.369 359.478 112.926 359.86 112.964C360.242 113.002 360.505 113.507 360.447 114.092Z" fill="#0F264C"/>
<path d="M360.43 114.384C360.43 114.384 358.765 117.626 357.139 119.108C358.078 120.176 359.881 119.91 359.881 119.91L360.43 114.384Z" fill="#ED847E"/>
<path d="M362.684 112.16C362.568 112.16 362.455 112.101 362.389 111.994C361.587 110.681 360.317 110.629 360.304 110.629C360.114 110.623 359.963 110.464 359.969 110.274C359.974 110.083 360.107 109.927 360.323 109.939C360.39 109.941 361.982 110.006 362.978 111.635C363.077 111.798 363.026 112.01 362.863 112.109C362.808 112.143 362.746 112.16 362.684 112.16Z" fill="#0F264C"/>
<path d="M328.952 346.477L321.686 345.937L321.004 328.966L328.27 329.507L328.952 346.477Z" fill="#FFC3BD"/>
<path d="M375.394 352.949H368.108L362.431 336.076H369.717L375.394 352.949Z" fill="#FFC3BD"/>
<path d="M367.135 352.104H376.018C376.316 352.104 376.574 352.311 376.638 352.602L378.077 359.078C378.226 359.75 377.698 360.385 377.01 360.374C374.152 360.325 372.067 360.158 368.467 360.158C366.252 360.158 361.69 360.387 358.631 360.387C355.64 360.387 355.173 357.363 356.425 357.089C362.039 355.861 364.154 354.167 365.951 352.552C366.277 352.261 366.7 352.104 367.135 352.104Z" fill="#14365B"/>
<path d="M321.339 344.306L329.274 344.896C329.571 344.918 329.813 345.143 329.856 345.438L330.811 352.003C330.91 352.683 330.354 353.28 329.67 353.218C326.811 352.957 322.688 352.481 319.09 352.214C314.883 351.901 312.084 351.753 307.151 351.386C304.168 351.164 303.564 348.087 304.833 347.907C310.61 347.086 314.41 347.406 319.547 344.742C320.105 344.452 320.712 344.259 321.339 344.306Z" fill="#14365B"/>
<path d="M321.006 328.971L321.356 337.718L328.625 338.259L328.275 329.511L321.006 328.971Z" fill="#F29994"/>
<path d="M369.72 336.08H362.431L365.361 344.778H372.65L369.72 336.08Z" fill="#F29994"/>
<path d="M384.808 206.113C379.108 205.693 357.658 204.093 345.948 203.223C344.548 191.883 344.298 182.043 344.668 173.743C344.828 170.203 345.108 166.943 345.448 163.963C347.248 148.373 351.048 140.453 351.048 140.453C351.048 140.453 356.578 139.363 362.368 139.263C366.768 139.193 373.948 139.883 378.888 140.493C385.218 141.273 390.658 142.813 390.658 142.813C382.808 170.493 385.518 200.163 384.808 206.113Z" fill="#9FC6FF"/>
<path d="M349.358 166.953L344.668 173.743C344.828 170.203 345.108 166.943 345.448 163.963L349.358 166.953Z" fill="#77B3FC"/>
<path d="M346.373 145.48C345.717 146.617 344.933 147.907 344.199 149.127C343.447 150.361 342.672 151.584 341.881 152.793C340.307 155.218 338.676 157.598 336.989 159.904C335.294 162.202 333.534 164.426 331.691 166.491C330.028 168.338 328.294 170.05 326.506 171.496C324.964 171.843 323.403 172.08 321.822 172.17C319.841 172.25 317.829 172.172 315.825 171.814C313.818 171.482 311.814 170.92 309.858 170.153C308.882 169.768 307.901 169.357 306.961 168.87C306.488 168.631 306.026 168.374 305.574 168.109C305.137 167.866 304.628 167.545 304.317 167.359L300.504 171.282C301.051 171.9 301.453 172.323 301.945 172.801C302.425 173.252 302.913 173.688 303.416 174.105C304.419 174.941 305.467 175.725 306.572 176.432C308.778 177.852 311.186 178.999 313.727 179.855C316.272 180.692 318.95 181.237 321.669 181.418C324.386 181.582 327.135 181.439 329.81 180.956L330.643 180.806L331.589 180.182C334.515 178.251 337.041 176.064 339.332 173.751C341.638 171.449 343.728 169.03 345.686 166.541C347.657 164.062 349.471 161.497 351.2 158.886C352.055 157.574 352.889 156.251 353.701 154.912C354.529 153.558 355.278 152.255 356.077 150.756L346.373 145.48Z" fill="#FFC3BD"/>
<path d="M359.568 148.829C359.048 155.776 350.826 169.299 350.826 169.299L332.221 159.52C332.221 159.52 338.522 149.394 345.407 143.36C352.364 137.26 360.138 141.206 359.568 148.829Z" fill="#9FC6FF"/>
<path d="M307.59 169.778L302.152 165.023L297.955 172.163C297.955 172.163 301.825 176.506 306.373 173.773L307.59 169.778Z" fill="#FFC3BD"/>
<path d="M294.582 161.86L291.693 168.434L297.956 172.163L302.153 165.023L294.582 161.86Z" fill="#FFC3BD"/>
<path d="M380.355 114.041C379.2 121.179 378.887 125.416 374.894 128.742C368.887 133.745 360.348 129.575 359.347 122.235C358.446 115.629 360.485 105.065 367.8 102.905C375.005 100.779 381.509 106.903 380.355 114.041Z" fill="#FFC3BD"/>
<path d="M388.442 110.284C393.775 114.023 381.064 127.745 376.546 127.595C372.021 127.444 363.578 114.909 366.332 108.248C363.999 107.299 363.248 106.993 362.304 104.617C360.591 100.306 362.662 93.1138 373.22 95.1318C370.6 96.9108 372.414 98.3258 377.387 97.6318C375.443 99.9648 378.665 101.687 383.498 100.687C382.665 104.965 393.442 105.576 388.442 110.284Z" fill="#0F264C"/>
<path d="M370.309 116.254C369.968 118.174 368.773 119.757 367.445 120.654C365.447 122.002 363.691 120.399 363.611 118.117C363.539 116.063 364.492 112.886 366.803 112.45C369.079 112.02 370.698 114.059 370.309 116.254Z" fill="#FFC3BD"/>
<path d="M375.282 343.09H361.932C361.932 343.09 348.923 298.376 345.658 275.22C344.957 270.223 345.362 263.627 346.414 256.461C348.203 244.212 351.825 230.299 354.837 219.92C357.518 210.692 359.726 204.248 359.726 204.248C359.726 204.248 369.93 205.007 384.813 206.117C383.452 224.321 365.434 254.226 366.688 278.935C367.837 301.697 375.282 343.09 375.282 343.09Z" fill="#14365B"/>
<path d="M361.48 225.185C361.337 237.306 352.821 250.696 346.415 256.46C348.204 244.211 351.826 230.298 354.838 219.919C356.71 219.547 359.922 223.095 361.48 225.185Z" fill="#0A1B35"/>
<path d="M345.946 203.224C345.946 203.224 314.468 250.847 313.611 273.064C312.719 296.172 318.755 335.837 318.755 335.837L331.064 336.752C331.064 336.752 332.498 299.032 334.729 276.438C337.161 251.807 372.71 224.356 374.125 205.319C362.107 204.425 345.946 203.224 345.946 203.224Z" fill="#14365B"/>
<path d="M359.573 343.382H377.017V338.687L357.517 338.382L359.573 343.382Z" fill="#0053CC"/>
<path d="M316.289 335.901L333.382 337.213L333.734 332.476L314.61 330.763L316.289 335.901Z" fill="#0053CC"/>
<path d="M364.726 353.379C364.171 353.379 363.653 353.284 363.323 353.007C363.062 352.787 362.942 352.481 362.967 352.095C362.985 351.808 363.137 351.671 363.262 351.607C364.075 351.199 366.418 352.637 366.684 352.803C366.743 352.84 366.774 352.908 366.762 352.977C366.751 353.046 366.7 353.101 366.632 353.118C366.127 353.239 365.4 353.379 364.726 353.379ZM363.643 351.87C363.553 351.87 363.477 351.884 363.419 351.914C363.372 351.937 363.318 351.982 363.31 352.116C363.293 352.391 363.37 352.596 363.544 352.742C363.942 353.078 364.895 353.123 366.131 352.874C365.309 352.398 364.202 351.87 363.643 351.87Z" fill="#407BFF"/>
<path d="M366.592 353.122C366.564 353.122 366.535 353.115 366.51 353.1C365.756 352.691 364.298 351.094 364.452 350.283C364.48 350.136 364.589 349.881 365.001 349.831C365.268 349.793 365.517 349.872 365.736 350.052C366.583 350.744 366.757 352.847 366.763 352.936C366.768 352.999 366.739 353.06 366.685 353.094C366.657 353.112 366.625 353.122 366.592 353.122ZM365.122 350.168C365.096 350.168 365.07 350.17 365.044 350.173C364.819 350.201 364.8 350.304 364.791 350.348C364.7 350.828 365.629 352.034 366.378 352.603C366.293 351.989 366.061 350.763 365.518 350.32C365.393 350.218 365.264 350.168 365.122 350.168Z" fill="#407BFF"/>
<path d="M318.85 345.373C317.902 345.373 316.944 345.24 316.491 344.774C316.266 344.544 316.18 344.253 316.23 343.913C316.261 343.709 316.372 343.558 316.548 343.475C317.473 343.054 320.278 344.748 320.596 344.942C320.659 344.981 320.69 345.054 320.674 345.127C320.658 345.198 320.599 345.252 320.527 345.261C320.061 345.318 319.457 345.373 318.85 345.373ZM316.933 343.746C316.837 343.746 316.756 343.76 316.694 343.789C316.622 343.822 316.586 343.875 316.572 343.964C316.537 344.196 316.592 344.382 316.738 344.533C317.157 344.962 318.347 345.121 319.97 344.973C318.959 344.395 317.594 343.746 316.933 343.746Z" fill="#407BFF"/>
<path d="M320.505 345.263C320.477 345.263 320.448 345.256 320.423 345.241C319.575 344.783 317.955 343.083 318.149 342.271C318.195 342.08 318.349 341.85 318.826 341.837C319.181 341.839 319.493 341.951 319.759 342.203C320.626 343.031 320.677 345.003 320.679 345.086C320.68 345.147 320.649 345.205 320.596 345.237C320.567 345.254 320.536 345.263 320.505 345.263ZM318.863 342.182C318.853 342.182 318.845 342.182 318.835 342.183C318.522 342.191 318.494 342.312 318.484 342.352C318.368 342.838 319.457 344.161 320.311 344.765C320.26 344.187 320.088 342.996 319.518 342.453C319.328 342.27 319.113 342.182 318.863 342.182Z" fill="#407BFF"/>
</svg>
