<svg width="32" height="32" viewBox="0 0 32 32" fill="none" xmlns="http://www.w3.org/2000/svg">
<path d="M5.21893 17.4451C5.71903 16.945 5.99998 16.2667 5.99998 15.5595V12.6641C5.99998 7.14121 10.4771 2.66406 16 2.66406C21.5228 2.66406 26 7.14121 26 12.6641V15.5595C26 16.2667 26.2809 16.945 26.781 17.4451L28.6666 19.3307V21.1734C28.6666 21.6783 28.3837 22.143 27.9232 22.3502C25.843 23.2865 21.8686 24.6641 16 24.6641C10.1313 24.6641 6.15694 23.2865 4.07681 22.3502C3.61627 22.143 3.33331 21.6783 3.33331 21.1734V19.3307L5.21893 17.4451Z" stroke="white" stroke-width="1.5" stroke-linecap="round" stroke-linejoin="round"/>
<path d="M12 28C13.0615 28.8283 14.4633 29.3319 16 29.3319C17.5367 29.3319 18.9385 28.8283 20 28" stroke="white" stroke-width="1.5" stroke-linecap="round" stroke-linejoin="round"/>
</svg>
