<svg width="32" height="32" viewBox="0 0 32 32" fill="none" xmlns="http://www.w3.org/2000/svg">
<path d="M5.33334 24.8585V10.7364C5.33334 6.93106 5.33334 5.0284 6.50492 3.84624C7.67649 2.66406 9.5621 2.66406 13.3333 2.66406H18.6667C22.4379 2.66406 24.3235 2.66406 25.4951 3.84624C26.6667 5.0284 26.6667 6.93106 26.6667 10.7364V24.8585C26.6667 26.8741 26.6667 27.8818 26.0507 28.2785C25.0441 28.9269 23.4881 27.5673 22.7055 27.0738C22.0588 26.6659 21.7356 26.4621 21.3767 26.4503C20.9889 26.4375 20.6599 26.6331 19.9612 27.0738L17.4133 28.6806C16.726 29.1139 16.3824 29.3307 16 29.3307C15.6176 29.3307 15.274 29.1139 14.5867 28.6806L12.0389 27.0738C11.3922 26.6659 11.0689 26.4621 10.7101 26.4503C10.3223 26.4375 9.99325 26.6331 9.2945 27.0738C8.51194 27.5673 6.95584 28.9269 5.94928 28.2785C5.33334 27.8818 5.33334 26.8741 5.33334 24.8585Z" stroke="white" stroke-width="1.5" stroke-linecap="round" stroke-linejoin="round"/>
<path d="M21.3333 8H10.6667" stroke="white" stroke-width="1.5" stroke-linecap="round" stroke-linejoin="round"/>
<path d="M13.3333 13.3359H10.6667" stroke="white" stroke-width="1.5" stroke-linecap="round" stroke-linejoin="round"/>
<path d="M19.3333 13.1667C18.2288 13.1667 17.3333 13.9501 17.3333 14.9167C17.3333 15.8832 18.2288 16.6667 19.3333 16.6667C20.4379 16.6667 21.3333 17.4501 21.3333 18.4167C21.3333 19.3832 20.4379 20.1667 19.3333 20.1667M19.3333 13.1667C20.2041 13.1667 20.9449 13.6536 21.2195 14.3333M19.3333 13.1667V12M19.3333 20.1667C18.4625 20.1667 17.7217 19.6797 17.4472 19M19.3333 20.1667V21.3333" stroke="white" stroke-width="1.5" stroke-linecap="round"/>
</svg>
