<svg width="32" height="32" viewBox="0 0 32 32" fill="none" xmlns="http://www.w3.org/2000/svg">
<path d="M3.33334 10.9183C3.47209 8.11867 3.88717 6.37316 5.12886 5.13146C6.37057 3.88976 8.11608 3.47468 10.9157 3.33594M28.6667 10.9183C28.5279 8.11867 28.1128 6.37316 26.8712 5.13146C25.6295 3.88976 23.8839 3.47468 21.0843 3.33594M21.0843 28.6693C23.8839 28.5305 25.6295 28.1154 26.8712 26.8738C28.1128 25.6321 28.5279 23.8865 28.6667 21.0869M10.9157 28.6693C8.11608 28.5305 6.37057 28.1154 5.12886 26.8738C3.88717 25.6321 3.47209 23.8865 3.33334 21.0869" stroke="white" stroke-width="1.5" stroke-linecap="round" stroke-linejoin="round"/>
<path d="M23.3333 22.6667L23.0637 21.5348C22.8409 20.5996 22.1319 19.8567 21.2081 19.5905L18 18.6659L17.9996 16.7091C19.1952 15.9021 19.9996 14.394 19.9996 12.6667C19.9996 10.0893 18.2087 8 15.9996 8C13.7904 8 11.9995 10.0893 11.9995 12.6667C11.9995 14.394 12.8039 15.9021 13.9996 16.7091L14 18.6659L10.8118 19.5992C9.91662 19.8613 9.22342 20.572 8.98382 21.4735L8.66666 22.6667" stroke="white" stroke-width="1.5" stroke-linecap="round" stroke-linejoin="round"/>
</svg>
