<svg width="52" height="52" viewBox="0 0 52 52" fill="none" xmlns="http://www.w3.org/2000/svg">
<path fill-rule="evenodd" clip-rule="evenodd" d="M40.6604 4.97039L37.4104 4.94602C32.6701 4.91228 28.1105 6.76248 24.7342 10.0898C21.3578 13.4171 19.441 17.9492 19.4054 22.6894L19.2738 40.5644C19.2651 41.8571 19.7699 43.1003 20.6773 44.0211C21.5846 44.9418 22.8203 45.4648 24.113 45.4751L27.363 45.4995C32.1033 45.5332 36.6629 43.683 40.0392 40.3557C43.4156 37.0284 45.3324 32.4964 45.368 27.7561L45.4996 9.88114C45.5083 8.58846 45.0035 7.3452 44.0961 6.42443C43.1888 5.50367 41.9531 4.9807 40.6604 4.97039ZM16.6559 43.7429C16.231 42.7295 16.016 41.6405 16.0238 40.5416L16.1554 22.6666C16.1763 19.7405 16.805 16.8506 18.0017 14.1802C19.1984 11.5099 20.937 9.11737 23.1071 7.15439C20.4305 5.67937 17.419 4.9188 14.363 4.94602L11.2251 4.96877C10.5849 4.97323 9.95177 5.10382 9.362 5.35307C8.77223 5.60232 8.23736 5.96534 7.78794 6.42139C7.33853 6.87744 6.98339 7.41758 6.74282 8.01094C6.50225 8.60431 6.38096 9.23926 6.38589 9.87952L6.51751 27.7545C6.54126 31.1014 7.50411 34.3744 9.29647 37.2009C11.0888 40.0275 13.6387 42.2942 16.6559 43.7429Z" fill="url(#paint0_linear_356_6682)"/>
<defs>
<linearGradient id="paint0_linear_356_6682" x1="6.38574" y1="4.94531" x2="22.8141" y2="52.6869" gradientUnits="userSpaceOnUse">
<stop stop-color="white"/>
<stop offset="1" stop-color="white"/>
</linearGradient>
</defs>
</svg>
