<svg width="157" height="134" viewBox="0 0 157 134" fill="none" xmlns="http://www.w3.org/2000/svg">
<path d="M142.281 46.7909V44.1562C142.281 33.3331 133.479 24.5312 122.656 24.5312H24.5312C13.7081 24.5312 4.90625 33.3331 4.90625 44.1562V132.469C4.90625 143.292 13.7081 152.094 24.5312 152.094H132.469C143.292 152.094 152.094 143.292 152.094 132.469V63.7812C152.094 56.5298 148.139 50.1909 142.281 46.7909Z" fill="url(#paint0_linear_356_6671)"/>
<path d="M142.281 44.1562V46.8056C139.301 45.074 135.916 44.1601 132.469 44.1562H29.4375C26.7391 44.1562 24.5312 41.9484 24.5312 39.25C24.5312 36.5516 26.7391 34.3438 29.4375 34.3438H132.469C135.118 34.3438 137.718 34.6872 140.172 35.3741C141.545 38.0234 142.281 41.0163 142.281 44.1562Z" fill="url(#paint1_linear_356_6671)"/>
<path d="M122.656 78.5C111.833 78.5 103.031 87.3018 103.031 98.125C103.031 108.948 111.833 117.75 122.656 117.75H152.094V78.5H122.656Z" fill="url(#paint2_linear_356_6671)"/>
<path d="M130.31 44.156H42.7334L100.333 5.74004C101.412 5.0041 102.786 4.75879 104.062 5.0041C105.337 5.29848 106.466 6.08348 107.202 7.21191L130.31 44.156Z" fill="url(#paint3_linear_356_6671)"/>
<path fill-rule="evenodd" clip-rule="evenodd" d="M131.766 88.2938L130.266 88.2826C128.079 88.267 125.974 89.1209 124.416 90.6566C122.857 92.1923 121.973 94.284 121.956 96.4718L121.896 104.722C121.892 105.318 122.125 105.892 122.543 106.317C122.962 106.742 123.532 106.984 124.129 106.988L125.629 107C127.817 107.015 129.921 106.161 131.48 104.625C133.038 103.09 133.923 100.998 133.939 98.8103L134 90.5603C134.004 89.9637 133.771 89.3899 133.352 88.9649C132.933 88.5399 132.363 88.2986 131.766 88.2938ZM120.687 106.189C120.491 105.721 120.392 105.218 120.396 104.711L120.456 96.4613C120.466 95.1108 120.756 93.777 121.308 92.5445C121.861 91.312 122.663 90.2078 123.665 89.3018C122.429 88.621 121.04 88.27 119.629 88.2826L118.181 88.2931C117.885 88.2951 117.593 88.3554 117.321 88.4704C117.049 88.5855 116.802 88.753 116.594 88.9635C116.387 89.174 116.223 89.4233 116.112 89.6971C116.001 89.971 115.945 90.264 115.947 90.5596L116.008 98.8096C116.019 100.354 116.463 101.865 117.291 103.169C118.118 104.474 119.295 105.52 120.687 106.189Z" fill="url(#paint4_linear_356_6671)" fill-opacity="0.5"/>
<defs>
<linearGradient id="paint0_linear_356_6671" x1="5" y1="33" x2="221.808" y2="271.336" gradientUnits="userSpaceOnUse">
<stop offset="0.0459098" stop-color="#EBD559"/>
<stop offset="0.5" stop-color="#E8B00A"/>
<stop offset="1" stop-color="#E57D11"/>
</linearGradient>
<linearGradient id="paint1_linear_356_6671" x1="29.7661" y1="33.8226" x2="32.041" y2="58.7369" gradientUnits="userSpaceOnUse">
<stop stop-color="#EBD559"/>
<stop offset="0.5" stop-color="#E8B00A"/>
<stop offset="1" stop-color="#E57D11"/>
</linearGradient>
<linearGradient id="paint2_linear_356_6671" x1="105.212" y1="76.8587" x2="142.203" y2="130.452" gradientUnits="userSpaceOnUse">
<stop stop-color="#E57D11"/>
<stop offset="0.5" stop-color="#E8B00A"/>
<stop offset="1" stop-color="#EBD559"/>
</linearGradient>
<linearGradient id="paint3_linear_356_6671" x1="46.6268" y1="3.27109" x2="73.2353" y2="72.096" gradientUnits="userSpaceOnUse">
<stop stop-color="#EBD559"/>
<stop offset="0.5" stop-color="#E8B00A"/>
<stop offset="1" stop-color="#E57D11"/>
</linearGradient>
<linearGradient id="paint4_linear_356_6671" x1="115.947" y1="88.2822" x2="123.53" y2="110.317" gradientUnits="userSpaceOnUse">
<stop stop-color="white"/>
<stop offset="1" stop-color="white"/>
</linearGradient>
</defs>
</svg>
