<svg width="20" height="20" viewBox="0 0 20 20" fill="none" xmlns="http://www.w3.org/2000/svg">
<path d="M13.2264 18.7441C12.9169 18.7694 12.6055 18.7272 12.314 18.6204C12.0224 18.5135 11.7575 18.3446 11.5376 18.1253C11.1495 17.9691 8.97698 12.5909 8.72698 12.1591L12.8814 8.00469C12.9396 7.94678 12.9858 7.87793 13.0174 7.8021C13.0489 7.72627 13.0651 7.64495 13.0651 7.56282C13.0651 7.48069 13.0489 7.39937 13.0174 7.32353C12.9858 7.2477 12.9396 7.17885 12.8814 7.12094C12.8238 7.06217 12.755 7.01548 12.6791 6.98361C12.6033 6.95174 12.5218 6.93532 12.4395 6.93532C12.3572 6.93532 12.2757 6.95174 12.1998 6.98361C12.124 7.01548 12.0552 7.06217 11.9976 7.12094L7.84324 11.2753L2.53073 8.91532C2.12044 8.73641 1.77657 8.43336 1.54752 8.0488C1.31847 7.66424 1.21577 7.21755 1.25386 6.77157C1.28685 6.32603 1.45845 5.90198 1.7446 5.55889C2.03075 5.2158 2.4171 4.97087 2.84948 4.85844L16.0282 1.32282C16.3951 1.2235 16.7818 1.22312 17.1489 1.3217C17.516 1.42028 17.8504 1.61431 18.1182 1.88407C18.3868 2.15181 18.5798 2.48582 18.6776 2.85221C18.7754 3.21861 18.7745 3.60436 18.6751 3.97032L15.1395 17.1484C15.0271 17.5808 14.7821 17.9672 14.439 18.2533C14.0959 18.5395 13.6719 18.7111 13.2264 18.7441Z" fill="#212B36"/>
</svg>
