<svg width="32" height="32" viewBox="0 0 32 32" fill="none" xmlns="http://www.w3.org/2000/svg">
<path d="M8.95581 19.7554C8.95581 19.8715 8.90972 19.9827 8.82767 20.0648C8.74562 20.1468 8.63435 20.1929 8.51831 20.1929C8.40228 20.1929 8.291 20.1468 8.20895 20.0648C8.12691 19.9827 8.08081 19.8715 8.08081 19.7554C8.08081 15.3888 11.6333 11.8362 15.9999 11.8362C17.5876 11.8362 19.1259 12.3111 20.4266 13.1887L20.2371 12.5911C20.2037 12.481 20.215 12.3621 20.2686 12.2602C20.3223 12.1584 20.4139 12.0818 20.5236 12.047C20.6333 12.0122 20.7523 12.022 20.8548 12.0744C20.9573 12.1267 21.0351 12.2173 21.0713 12.3266L21.7074 14.3329C21.7287 14.4001 21.7335 14.4714 21.7213 14.5408C21.7091 14.6103 21.6804 14.6757 21.6375 14.7316C21.5945 14.7875 21.5388 14.8322 21.4749 14.8619C21.411 14.8916 21.3408 14.9055 21.2704 14.9022L19.2544 14.8101C19.1385 14.8047 19.0294 14.7536 18.9512 14.6679C18.873 14.5822 18.832 14.469 18.8372 14.3531C18.8483 14.1117 19.0559 13.9247 19.2943 13.9359L20.0174 13.969C18.838 13.1495 17.4361 12.7106 15.9999 12.7112C12.1158 12.7112 8.95581 15.8713 8.95581 19.7554ZM31.75 19.7554C31.75 19.8715 31.7039 19.9827 31.6219 20.0648C31.5398 20.1468 31.4285 20.1929 31.3125 20.1929H26.0469C25.9308 20.1929 25.8196 20.1468 25.7375 20.0648C25.6555 19.9827 25.6094 19.8715 25.6094 19.7554C25.6094 14.4568 21.2986 10.1461 16 10.1461C10.7014 10.1461 6.39062 14.4568 6.39062 19.7554C6.39062 19.8715 6.34453 19.9827 6.26248 20.0648C6.18044 20.1468 6.06916 20.1929 5.95312 20.1929H0.6875C0.571468 20.1929 0.460188 20.1468 0.378141 20.0648C0.296094 19.9827 0.25 19.8715 0.25 19.7554C0.25 15.5484 1.88831 11.5932 4.86312 8.6185C7.83787 5.64368 11.7931 4.00537 16 4.00537C20.2069 4.00537 24.1622 5.64368 27.1369 8.6185C30.1117 11.5933 31.75 15.5485 31.75 19.7554ZM7.20075 14.0609L3.61613 11.5227C2.11844 13.7682 1.21475 16.4421 1.13131 19.318H5.52462C5.60425 17.3857 6.20962 15.5871 7.20075 14.0609ZM12.2078 9.981L10.7911 5.82256C8.12144 6.82387 5.814 8.57125 4.12356 10.8099L7.7075 13.3476C8.8655 11.8525 10.4181 10.6777 12.2078 9.981ZM16 9.27112C16.9178 9.27112 17.8082 9.39037 18.6571 9.61293L19.9471 5.4125C18.6896 5.06606 17.3661 4.88043 15.9999 4.88043C14.4757 4.88043 13.0044 5.11125 11.6188 5.53912L13.0358 9.69837C13.9982 9.41441 14.9965 9.27052 15.9999 9.27112H16ZM24.0941 13.0985L27.5989 10.4532C25.8446 8.27012 23.4879 6.59106 20.7833 5.67018L19.4936 9.86981C21.3074 10.5126 22.8934 11.6412 24.0941 13.0985H24.0941ZM30.8686 19.318C30.7806 16.2814 29.7773 13.4707 28.1267 11.1511L24.6214 13.7966C25.7176 15.3777 26.391 17.273 26.4753 19.318H30.8686ZM24.0565 17.2134C24.0984 17.2861 24.1186 17.3692 24.1146 17.453C24.1106 17.5367 24.0827 17.6176 24.0341 17.6859L21.9877 20.5605C22.1952 21.5109 22.1719 22.5056 21.9187 23.4507C21.4951 25.0316 20.4812 26.353 19.0637 27.1713C18.1197 27.7164 17.0718 27.9949 16.01 27.9949C15.4711 27.9945 14.9345 27.9234 14.4141 27.7834C12.8332 27.3599 11.5119 26.3459 10.6936 24.9285C9.87525 23.5111 9.65788 21.8598 10.0814 20.2789C10.505 18.6979 11.5189 17.3766 12.9364 16.5582C14.3538 15.7399 16.0051 15.5227 17.586 15.9461C18.5309 16.1993 19.4041 16.6766 20.1236 17.3314L23.6362 16.9966C23.7197 16.9889 23.8037 17.0052 23.8782 17.0436C23.9527 17.082 24.0146 17.1409 24.0567 17.2134H24.0565ZM22.7659 17.9586L20.0093 18.2213C19.9461 18.2272 19.8824 18.2193 19.8225 18.1982C19.7626 18.1771 19.708 18.1433 19.6624 18.0991C19.0229 17.4759 18.2266 17.0237 17.3594 16.7914C16.9133 16.6714 16.4534 16.6105 15.9914 16.6101C15.0813 16.6101 14.1831 16.8488 13.3737 17.3161C12.1587 18.0176 11.2896 19.1502 10.9266 20.5054C10.5634 21.8606 10.7498 23.276 11.4513 24.4911C12.1528 25.7061 13.2854 26.5752 14.6405 26.9382C15.9958 27.3016 17.4113 27.1151 18.6262 26.4136C19.8412 25.712 20.7103 24.5794 21.0734 23.2242C21.3058 22.3569 21.3124 21.4412 21.0924 20.5759C21.0768 20.5144 21.0747 20.4502 21.0864 20.3877C21.0981 20.3253 21.1232 20.2662 21.16 20.2144L22.7658 17.9586H22.7659ZM20.6384 23.1077C20.3064 24.3467 19.5119 25.3822 18.401 26.0235C17.6611 26.4507 16.8399 26.6689 16.0078 26.6689C15.5855 26.6686 15.165 26.6129 14.7571 26.5032C13.5182 26.1712 12.4826 25.3767 11.8413 24.2659C11.1999 23.1551 11.0296 21.8609 11.3616 20.622C11.6936 19.383 12.4881 18.3474 13.5989 17.7062C14.7099 17.0648 16.0041 16.8945 17.2429 17.2264C19.8005 17.9117 21.3237 20.5501 20.6384 23.1077ZM19.4009 19.9013C18.8764 18.9929 18.0296 18.3431 17.0164 18.0717C16.6829 17.982 16.339 17.9364 15.9936 17.9362C15.3131 17.9362 14.6416 18.1146 14.0365 18.4639C13.1281 18.9884 12.4783 19.8352 12.2069 20.8484C11.9354 21.8616 12.0747 22.9199 12.5991 23.8284C13.1236 24.7367 13.9704 25.3866 14.9836 25.658C15.9969 25.9295 17.0551 25.7902 17.9636 25.2657C18.8719 24.7412 19.5218 23.8944 19.7932 22.8812C20.0647 21.8681 19.9254 20.8097 19.4009 19.9013H19.4009ZM17.0925 21.765C16.76 21.5697 16.4131 21.4871 16.0777 21.4072C15.9649 21.3803 15.8582 21.3549 15.7526 21.3255C15.4369 21.2374 15.2657 21.1414 15.1801 21.0043C15.0767 20.8388 15.1716 20.6991 15.2374 20.6306C15.4103 20.4505 15.8209 20.3586 16.2146 20.4123C16.5285 20.4551 16.7776 20.5819 16.8645 20.7432C16.8917 20.7938 16.9287 20.8386 16.9732 20.8749C17.0177 20.9112 17.069 20.9383 17.124 20.9548C17.179 20.9713 17.2368 20.9768 17.2939 20.971C17.3511 20.9652 17.4066 20.9481 17.4571 20.9209C17.5593 20.8658 17.6354 20.7725 17.6687 20.6613C17.702 20.5502 17.6898 20.4304 17.6348 20.3282C17.4241 19.9372 16.991 19.6614 16.4371 19.5618V19.1743C16.4371 19.0583 16.391 18.947 16.309 18.8649C16.2269 18.7829 16.1157 18.7368 15.9996 18.7368C15.8836 18.7368 15.7723 18.7829 15.6903 18.8649C15.6082 18.947 15.5621 19.0583 15.5621 19.1743V19.5589C15.1744 19.6275 14.8321 19.7893 14.6062 20.0246C14.2124 20.4347 14.1465 21.0013 14.438 21.4679C14.7057 21.8965 15.1555 22.0674 15.5175 22.1684C15.6393 22.2023 15.7591 22.2309 15.8751 22.2584C16.1604 22.3264 16.4299 22.3905 16.6494 22.5195C16.8971 22.665 16.9041 22.7902 16.8912 22.8962C16.8749 23.0293 16.7868 23.1477 16.6554 23.2132C16.1541 23.4625 15.2548 23.3076 15.0519 22.9367C15.0243 22.8863 14.987 22.8419 14.9423 22.8059C14.8975 22.7699 14.846 22.7431 14.7909 22.7269C14.7358 22.7108 14.678 22.7057 14.6208 22.7119C14.5637 22.7181 14.5084 22.7355 14.458 22.7631C14.4076 22.7907 14.3631 22.8279 14.3271 22.8727C14.2911 22.9175 14.2643 22.9689 14.2482 23.024C14.232 23.0792 14.2269 23.137 14.2331 23.1941C14.2393 23.2512 14.2567 23.3065 14.2843 23.3569C14.5239 23.7945 15.0202 24.0632 15.5622 24.1636V24.5553C15.5622 24.6713 15.6083 24.7826 15.6903 24.8647C15.7724 24.9467 15.8837 24.9928 15.9997 24.9928C16.1157 24.9928 16.227 24.9467 16.309 24.8647C16.3911 24.7826 16.4372 24.6713 16.4372 24.5553V24.1808C16.6564 24.1482 16.8641 24.0867 17.0452 23.9966C17.4408 23.7998 17.708 23.4279 17.7598 23.0021C17.8219 22.4935 17.5849 22.0542 17.0926 21.765H17.0925Z" fill="white"/>
</svg>
