<svg width="32" height="32" viewBox="0 0 32 32" fill="none" xmlns="http://www.w3.org/2000/svg">
<path d="M15.8015 15.4145C17.9191 15.4145 19.7526 14.655 21.2512 13.1564C22.7493 11.6582 23.509 9.82492 23.509 7.70705C23.509 5.5898 22.7495 3.75637 21.2509 2.25756C19.7524 0.759498 17.9189 0 15.8015 0C13.6836 0 11.8503 0.759499 10.352 2.25781C8.85378 3.75612 8.09397 5.58961 8.09397 7.70705C8.09397 9.82492 8.85372 11.6584 10.3521 13.1567C11.8508 14.6548 13.6843 15.4145 15.8015 15.4145H15.8015ZM11.6782 3.58374C12.8278 2.43406 14.1765 1.87525 15.8015 1.87525C17.4263 1.87525 18.7751 2.43406 19.925 3.58374C21.0747 4.73362 21.6338 6.08249 21.6338 7.70698C21.6338 9.33198 21.0747 10.6807 19.925 11.8305C18.7751 12.9805 17.4263 13.5393 15.8015 13.5393C14.177 13.5393 12.8284 12.9802 11.6782 11.8305C10.5283 10.6809 9.96921 9.33204 9.96921 7.70705C9.96921 6.08249 10.5283 4.73362 11.6782 3.58374ZM29.2875 24.6064C29.2443 23.9829 29.1569 23.3026 29.0282 22.5845C28.8984 21.8608 28.7312 21.1767 28.5309 20.5515C28.3239 19.9052 28.0429 19.2671 27.695 18.6555C27.3344 18.0207 26.9106 17.468 26.435 17.0132C25.9377 16.5373 25.3288 16.1548 24.6247 15.8757C23.9231 15.5982 23.1454 15.4575 22.3137 15.4575C21.987 15.4575 21.6711 15.5915 21.061 15.9888C20.6273 16.2712 20.1923 16.5516 19.7561 16.83C19.3369 17.0972 18.769 17.3474 18.0676 17.574C17.3833 17.7954 16.6884 17.9077 16.0024 17.9077C15.3169 17.9077 14.622 17.7954 13.9372 17.574C13.2366 17.3476 12.6685 17.0974 12.25 16.8303C11.7643 16.52 11.325 16.2368 10.9438 15.9885C10.3342 15.5913 10.0183 15.4572 9.69165 15.4572C8.85959 15.4572 8.08228 15.5981 7.38084 15.876C6.67722 16.1545 6.0681 16.5371 5.57029 17.0134C5.09472 17.4685 4.67091 18.0209 4.31054 18.6555C3.96316 19.267 3.68191 19.905 3.47485 20.5517C3.27485 21.177 3.10767 21.8608 2.97779 22.5845C2.84885 23.3017 2.76173 23.9821 2.71848 24.6071C2.67598 25.2182 2.65454 25.8542 2.65454 26.4968C2.65454 28.1672 3.18554 29.5194 4.23266 30.5168C5.26685 31.501 6.63503 31.9999 8.29928 31.9999H23.7075C25.3712 31.9999 26.7394 31.5009 27.7739 30.5168C28.8212 29.5202 29.3522 28.1674 29.3522 26.4965C29.352 25.8518 29.3303 25.2158 29.2875 24.6064ZM26.4809 29.1581C25.7976 29.8085 24.8903 30.1247 23.7072 30.1247H8.29934C7.11603 30.1247 6.20878 29.8085 5.52566 29.1584C4.85554 28.5204 4.52985 27.6496 4.52985 26.4968C4.52985 25.8971 4.5496 25.3051 4.58922 24.7368C4.62772 24.1791 4.7066 23.5666 4.8236 22.9157C4.93904 22.2729 5.08597 21.6696 5.26079 21.1235C5.42854 20.5998 5.65728 20.0813 5.94097 19.5818C6.21172 19.1056 6.52322 18.6972 6.86697 18.3682C7.18853 18.0603 7.59384 17.8083 8.07134 17.6194C8.51297 17.4445 9.00934 17.3488 9.54815 17.3344C9.61378 17.3694 9.73078 17.436 9.92021 17.5595C10.3057 17.8108 10.75 18.0974 11.2413 18.4111C11.795 18.7642 12.5083 19.083 13.3606 19.3581C14.232 19.6398 15.1206 19.7829 16.0027 19.7829C16.8848 19.7829 17.7737 19.6398 18.6446 19.3583C19.4976 19.0827 20.2107 18.7642 20.7652 18.4106C21.2679 18.0893 21.6998 17.811 22.0852 17.5595C22.2747 17.4362 22.3916 17.3693 22.4573 17.3345C22.9964 17.3488 23.4927 17.4445 23.9346 17.6193C24.4119 17.8083 24.8172 18.0605 25.1387 18.3681C25.4824 18.697 25.7939 19.1055 26.0647 19.582C26.3486 20.0813 26.5777 20.6001 26.7451 21.1233C26.9202 21.6701 27.0674 22.2731 27.1826 22.9155C27.2993 23.5676 27.3784 24.1804 27.417 24.737V24.7375C27.4568 25.3036 27.4768 25.8954 27.4771 26.4968C27.4768 27.6499 27.1511 28.5205 26.481 29.1581H26.4809Z" fill="white"/>
</svg>
