<svg width="32" height="32" viewBox="0 0 32 32" fill="none" xmlns="http://www.w3.org/2000/svg">
<g clip-path="url(#clip0_356_1507)">
<g clip-path="url(#clip1_356_1507)">
<path d="M27.9885 19.8601C28.3918 18.6152 28.5966 17.3171 28.5966 15.9944C28.5966 14.675 28.393 13.3804 27.9919 12.1387C30.4255 11.2202 32.1291 8.83325 32.0507 6.09081C31.9517 2.63475 29.0581 -0.094 25.6028 0.0025C22.9873 0.0775 20.7871 1.7525 19.9143 4.06087C18.6721 3.6595 17.3774 3.45587 16.0578 3.45587C14.7385 3.45587 13.4438 3.6595 12.2016 4.06087C11.3062 1.69044 9.01372 0 6.33328 0C2.87547 0 0.0624695 2.813 0.0624695 6.2705C0.0624695 8.95044 1.75291 11.2427 4.12328 12.1384C3.72216 13.3801 3.51853 14.6748 3.51853 15.9944C3.51853 17.3174 3.72309 18.6155 4.12666 19.8604C1.75434 20.7551 0.0624695 23.0483 0.0624695 25.7295C0.0624695 29.187 2.87547 32 6.33322 32C9.01759 32 11.313 30.3047 12.2058 27.9287C13.4463 28.3289 14.7397 28.5322 16.0578 28.5322C17.376 28.5322 18.6692 28.3291 19.9099 27.9287C20.1994 28.7028 20.6394 29.4119 21.2045 30.0149C21.2466 30.0599 21.2972 30.096 21.3533 30.1214C21.4093 30.1468 21.4699 30.1609 21.5314 30.1629C21.5929 30.1649 21.6543 30.1547 21.7119 30.133C21.7695 30.1113 21.8222 30.0785 21.8672 30.0364C21.9121 29.9943 21.9483 29.9438 21.9737 29.8878C21.9991 29.8317 22.0133 29.7712 22.0153 29.7097C22.0173 29.6482 22.0072 29.5869 21.9855 29.5293C21.9638 29.4717 21.931 29.4189 21.8889 29.374C20.9604 28.3826 20.4492 27.0884 20.4492 25.7295C20.4492 22.7889 22.8415 20.3965 25.7825 20.3965C28.7233 20.3965 31.1157 22.7888 31.1157 25.7295C31.1157 28.6702 28.7233 31.0623 25.7825 31.0623C25.0073 31.0623 24.2602 30.8999 23.5617 30.5796C23.5058 30.5539 23.4453 30.5395 23.3838 30.5371C23.3222 30.5348 23.2608 30.5447 23.2031 30.5661C23.1454 30.5875 23.0924 30.6201 23.0473 30.662C23.0022 30.7039 22.9658 30.7543 22.9402 30.8103C22.9145 30.8663 22.9001 30.9267 22.8978 30.9882C22.8955 31.0497 22.9054 31.1111 22.9268 31.1687C22.9482 31.2264 22.9808 31.2794 23.0227 31.3245C23.0646 31.3696 23.1149 31.406 23.1708 31.4316C23.9927 31.8086 24.8713 31.9998 25.7825 31.9998C29.2402 31.9998 32.0532 29.187 32.0532 25.7295C32.0532 23.0481 30.361 20.7549 27.9885 19.8601ZM25.6298 0.939687C25.6814 0.938228 25.7329 0.937498 25.7844 0.9375C28.655 0.9375 31.0307 3.23025 31.1135 6.11769C31.1977 9.05713 28.8747 11.5169 25.935 11.6011C22.9985 11.6851 20.5353 9.36256 20.4514 6.42312C20.3672 3.48362 22.6902 1.02394 25.6298 0.939687ZM6.33322 31.0625C3.39259 31.0625 0.999969 28.6702 0.999969 25.7295C0.999969 22.7891 3.39253 20.3967 6.33322 20.3967C9.27416 20.3967 11.6665 22.7891 11.6665 25.7295C11.6665 28.6701 9.27416 31.0625 6.33322 31.0625ZM19.5117 25.7295C19.5117 26.1704 19.559 26.6047 19.6482 27.0278C18.4927 27.4038 17.2871 27.5947 16.0578 27.5947C14.8291 27.5947 13.6237 27.4038 12.4685 27.0283C12.5588 26.6013 12.6043 26.166 12.6042 25.7295C12.6042 22.2722 9.79097 19.4592 6.33322 19.4592C5.88547 19.4592 5.44822 19.5068 5.02684 19.5964C4.64816 18.4375 4.45603 17.2278 4.45603 15.9944C4.45603 14.7649 4.64716 13.5588 5.02316 12.4028C5.4538 12.4946 5.8929 12.5408 6.33322 12.5407C7.93822 12.5407 9.46509 11.9351 10.6328 10.8349C10.7233 10.7497 10.7762 10.632 10.7799 10.5077C10.7836 10.3835 10.7378 10.2629 10.6525 10.1724C10.5672 10.0819 10.4495 10.029 10.3252 10.0252C10.2009 10.0215 10.0803 10.0673 9.98972 10.1526C8.99678 11.0882 7.69822 11.6032 6.33322 11.6032C3.39259 11.6032 0.999969 9.21094 0.999969 6.2705C0.999969 3.32988 3.39253 0.9375 6.33322 0.9375C9.27416 0.9375 11.6665 3.32981 11.6665 6.2705C11.6665 6.95631 11.5383 7.62356 11.2853 8.25412C11.2391 8.36955 11.2406 8.49861 11.2895 8.61293C11.3384 8.72725 11.4307 8.81747 11.5461 8.86375C11.7861 8.96 12.0593 8.8435 12.1555 8.603C12.4531 7.86112 12.604 7.07644 12.604 6.2705C12.604 5.82131 12.5561 5.38331 12.466 4.96069C13.6223 4.58444 14.8283 4.39331 16.0578 4.39331C17.2876 4.39331 18.4936 4.5845 19.6497 4.96044C19.5452 5.44975 19.4997 5.94981 19.5142 6.44994C19.6113 9.84519 22.4045 12.5407 25.78 12.5407C25.8403 12.5407 25.9011 12.5398 25.9618 12.5383C26.3486 12.5271 26.7263 12.4809 27.092 12.4028C27.4683 13.5588 27.6592 14.7649 27.6592 15.9944C27.6592 17.2275 27.4668 18.4373 27.0883 19.5964C26.659 19.5052 26.2214 19.4592 25.7825 19.4592C22.3247 19.4592 19.5117 22.2722 19.5117 25.7295Z" fill="white"/>
<path d="M9.52511 3.50322C9.44623 3.44955 9.35286 3.42122 9.25746 3.422C9.16206 3.42279 9.06916 3.45264 8.99117 3.50759C8.8321 3.62 8.66095 3.71425 8.48092 3.78859C7.83692 3.28491 6.90355 3.29078 6.26417 3.84672C5.93435 4.13307 5.72429 4.53301 5.67573 4.96709C5.33245 4.91602 5.00317 4.79555 4.70797 4.61304C4.41277 4.43053 4.15784 4.1898 3.95873 3.90553C3.91106 3.83764 3.84622 3.78362 3.77084 3.74899C3.69546 3.71435 3.61224 3.70034 3.52967 3.70839C3.4471 3.71643 3.36815 3.74625 3.30087 3.79478C3.2336 3.84332 3.18041 3.90884 3.14673 3.98466C3.1333 4.01491 2.81786 4.73559 2.85811 5.61772C2.88867 6.29272 3.13036 7.16309 4.01073 7.83472C3.69275 7.9377 3.35912 7.98391 3.02511 7.97122C2.8103 7.96216 2.61373 8.10378 2.55511 8.31303C2.52666 8.41457 2.53326 8.52273 2.57385 8.62005C2.61444 8.71737 2.68664 8.79817 2.7788 8.84941C3.51417 9.25784 4.30198 9.46216 5.07173 9.46216C5.81123 9.46216 6.53392 9.27341 7.17698 8.89503C8.43823 8.15316 9.16136 6.79522 9.16136 5.16878C9.16136 5.14409 9.16086 5.11966 9.15967 5.09503C9.42803 4.77898 9.61881 4.40459 9.7168 4.00172C9.73939 3.90899 9.73315 3.81158 9.69889 3.7225C9.66464 3.63342 9.60401 3.55692 9.52511 3.50322ZM8.20949 5.02197C8.21899 5.07134 8.22386 5.12159 8.22386 5.16997C8.22386 6.47341 7.68336 7.50934 6.70136 8.08697C6.13473 8.42041 5.48411 8.56228 4.82105 8.51466C4.97299 8.43946 5.11959 8.3539 5.2598 8.25859C5.32899 8.21168 5.38437 8.14712 5.42021 8.07159C5.45604 7.99607 5.47102 7.91234 5.46359 7.82907C5.45616 7.74581 5.4266 7.66605 5.37796 7.59806C5.32932 7.53007 5.26339 7.47633 5.18698 7.44241C4.31148 7.05322 3.84348 6.43484 3.79611 5.60403C3.78636 5.43384 3.79486 5.27028 3.81298 5.12091C4.45798 5.65966 5.28198 5.95341 6.14598 5.93141C6.2682 5.92823 6.38435 5.87745 6.46968 5.78989C6.55501 5.70233 6.60277 5.58492 6.6028 5.46266V5.17853C6.6028 5.17666 6.6028 5.17441 6.60255 5.17222C6.6009 5.05524 6.62483 4.93932 6.67266 4.83255C6.72048 4.72578 6.79105 4.63075 6.87942 4.55409C7.21411 4.26278 7.72361 4.29847 8.01486 4.63341C8.07203 4.69917 8.14646 4.74762 8.22973 4.77328C8.20056 4.85283 8.19357 4.93875 8.20949 5.02197ZM24.24 6.63991H24.9045V9.43484C24.9045 9.55916 24.9539 9.67839 25.0418 9.7663C25.1297 9.85421 25.249 9.90359 25.3733 9.90359C25.6323 9.90359 25.842 9.69384 25.842 9.43484V6.63991H26.5659C26.6902 6.63991 26.8095 6.59052 26.8974 6.50261C26.9853 6.41471 27.0347 6.29548 27.0347 6.17116C27.0347 6.04684 26.9853 5.92761 26.8974 5.8397C26.8095 5.75179 26.6902 5.70241 26.5659 5.70241H25.842V4.39091C25.842 3.94047 26.2085 3.57422 26.6589 3.57422H27.2658C27.5247 3.57422 27.7345 3.36428 27.7345 3.10547C27.7345 2.98115 27.6852 2.86192 27.5973 2.77401C27.5093 2.6861 27.3901 2.63672 27.2658 2.63672H26.6589C25.6916 2.63672 24.9045 3.42359 24.9045 4.39091V5.70241H24.24C24.1784 5.70238 24.1175 5.71449 24.0606 5.73804C24.0037 5.76159 23.952 5.79611 23.9085 5.83965C23.8649 5.88318 23.8304 5.93486 23.8069 5.99174C23.7833 6.04863 23.7712 6.10959 23.7712 6.17116C23.7712 6.42991 23.9812 6.63991 24.24 6.63991ZM8.78292 25.1075L5.59248 23.2644C5.4944 23.2079 5.3832 23.1782 5.27002 23.1781C5.15683 23.1781 5.04562 23.2078 4.94748 23.2642C4.84951 23.321 4.76815 23.4025 4.71152 23.5005C4.65489 23.5986 4.62496 23.7098 4.62473 23.823V27.5088C4.62473 27.7385 4.74848 27.9527 4.94723 28.0674C5.04686 28.125 5.15817 28.1536 5.26973 28.1536C5.3813 28.1536 5.49267 28.125 5.59223 28.0674L8.78317 26.2247C8.98192 26.1097 9.10542 25.8955 9.10542 25.6658C9.10542 25.436 8.98167 25.2222 8.78292 25.1075ZM5.5623 27.002V24.3296L7.87573 25.6658L5.5623 27.002ZM27.819 29.0493C28.5269 29.0493 29.1025 28.4737 29.1025 27.7659V23.6929C29.1025 22.9852 28.5269 22.4095 27.819 22.4095H23.7456C23.0381 22.4095 22.4624 22.9851 22.4624 23.6929V27.7659C22.4624 28.4737 23.038 29.0493 23.7456 29.0493H27.819ZM23.3999 27.7659V23.6929C23.3999 23.6012 23.4363 23.5133 23.5012 23.4484C23.566 23.3835 23.6539 23.3471 23.7456 23.347H27.819C27.9108 23.347 27.9988 23.3835 28.0636 23.4483C28.1285 23.5132 28.165 23.6012 28.165 23.6929V27.7659C28.165 27.8576 28.1285 27.9456 28.0636 28.0105C27.9987 28.0753 27.9108 28.1118 27.819 28.1118H23.7456C23.6539 28.1117 23.566 28.0752 23.5012 28.0104C23.4364 27.9455 23.3999 27.8576 23.3999 27.7659Z" fill="white"/>
<path d="M25.7822 27.1466H25.7825C26.5637 27.1466 27.1994 26.5111 27.1994 25.7296C27.1994 24.9484 26.5637 24.3129 25.7822 24.3129C25.001 24.3129 24.3655 24.9484 24.3655 25.7296C24.3655 26.5111 25.001 27.1466 25.7822 27.1466ZM25.7825 25.2504C26.0469 25.2504 26.2619 25.4654 26.2619 25.7296C26.2619 25.994 26.0469 26.2091 25.7825 26.2091H25.7822C25.518 26.2091 25.303 25.994 25.303 25.7296C25.303 25.4654 25.518 25.2504 25.7825 25.2504ZM17.4931 10.7401C17.4076 10.6588 17.3001 10.6044 17.1839 10.5836C17.0677 10.5629 16.948 10.5766 16.8396 10.6232C16.7311 10.6696 16.6386 10.7469 16.5736 10.8455C16.5086 10.944 16.474 11.0595 16.4741 11.1776V12.8661C14.8481 13.1681 13.5059 13.8566 12.48 14.9161C11.5605 15.8654 10.8972 17.0871 10.4519 18.6508C10.3606 18.9718 10.501 19.3095 10.7932 19.472C10.9001 19.5317 11.0204 19.563 11.1428 19.5631C11.339 19.5631 11.532 19.4821 11.6716 19.3283C12.135 18.8185 12.6218 18.4215 13.1601 18.1149C13.267 18.0528 13.345 17.951 13.3772 17.8316C13.4094 17.7123 13.3931 17.5851 13.332 17.4777C13.2708 17.3703 13.1697 17.2913 13.0507 17.2581C12.9316 17.2249 12.8042 17.24 12.6963 17.3002C12.3225 17.5131 11.9712 17.7621 11.636 18.0526C12.5964 15.5243 14.3618 14.1064 17.0092 13.7284C17.1209 13.7124 17.2231 13.6567 17.2971 13.5715C17.371 13.4862 17.4117 13.3772 17.4116 13.2643V11.9567L20.7532 15.1361L17.4116 18.1991V16.8043C17.4116 16.68 17.3622 16.5608 17.2743 16.4729C17.1864 16.385 17.0672 16.3356 16.9429 16.3356C16.1174 16.3356 15.3904 16.4047 14.7204 16.5463C14.5988 16.572 14.4924 16.645 14.4246 16.7492C14.3568 16.8534 14.3331 16.9803 14.3589 17.1019C14.4124 17.3554 14.6614 17.517 14.9145 17.4635C15.392 17.3624 15.9055 17.3024 16.4741 17.2816V18.9586C16.4742 19.0757 16.5083 19.1902 16.5723 19.2883C16.6363 19.3863 16.7274 19.4637 16.8345 19.5109C16.9417 19.5579 17.0603 19.5728 17.1759 19.5538C17.2914 19.5347 17.3989 19.4825 17.4854 19.4034L21.3867 15.8273C21.4817 15.7398 21.5578 15.6339 21.6104 15.516C21.6629 15.398 21.6907 15.2706 21.6921 15.1415C21.693 15.0124 21.6675 14.8845 21.617 14.7657C21.5666 14.6469 21.4924 14.5396 21.3989 14.4506L17.4931 10.7401Z" fill="white"/>
</g>
</g>
<defs>
<clipPath id="clip0_356_1507">
<rect width="32" height="32" fill="white"/>
</clipPath>
<clipPath id="clip1_356_1507">
<rect width="32" height="32" fill="white"/>
</clipPath>
</defs>
</svg>
