<svg width="32" height="32" viewBox="0 0 32 32" fill="none" xmlns="http://www.w3.org/2000/svg">
<g clip-path="url(#clip0_356_1499)">
<path d="M13.3333 16.6667C13.3333 16.6667 14 16.6667 14.6666 18C14.6666 18 16.7842 14.6667 18.6666 14" stroke="white" stroke-width="1.5" stroke-linecap="round" stroke-linejoin="round"/>
<path d="M22.6666 16.0002C22.6666 19.682 19.6818 22.6668 16 22.6668C12.3181 22.6668 9.33331 19.682 9.33331 16.0002C9.33331 12.3183 12.3181 9.3335 16 9.3335C19.6818 9.3335 22.6666 12.3183 22.6666 16.0002Z" stroke="white" stroke-width="1.5" stroke-linecap="round"/>
<path d="M28 14.9109V11.0402C28 8.85356 28 7.76021 27.4612 7.04689C26.9224 6.33356 25.7041 5.98725 23.2676 5.29464C21.6029 4.82144 20.1355 4.25134 18.9631 3.73089C17.3645 3.0213 16.5653 2.6665 16 2.6665C15.4347 2.6665 14.6355 3.0213 13.0369 3.73089C11.8645 4.25134 10.3971 4.82142 8.73244 5.29464C6.29591 5.98725 5.07763 6.33356 4.53881 7.04689C4 7.76021 4 8.85356 4 11.0402V14.9109C4 22.4112 10.7504 26.9112 14.1253 28.6924C14.9348 29.1196 15.3395 29.3332 16 29.3332C16.6605 29.3332 17.0652 29.1196 17.8747 28.6924C21.2496 26.9112 28 22.4112 28 14.9109Z" stroke="white" stroke-width="1.5" stroke-linecap="round"/>
</g>
<defs>
<clipPath id="clip0_356_1499">
<rect width="32" height="32" fill="white"/>
</clipPath>
</defs>
</svg>
