<svg width="32" height="32" viewBox="0 0 32 32" fill="none" xmlns="http://www.w3.org/2000/svg">
<g clip-path="url(#clip0_356_1469)">
<path d="M8 23.966C8.1716 25.7105 8.55941 26.8848 9.43588 27.7612C11.0079 29.3333 13.5381 29.3333 18.5985 29.3333C23.6589 29.3333 26.1892 29.3333 27.7612 27.7612C29.3333 26.1892 29.3333 23.6589 29.3333 18.5985C29.3333 13.5381 29.3333 11.0079 27.7612 9.43588C26.8848 8.55941 25.7105 8.1716 23.966 8" stroke="white" stroke-width="1.5"/>
<path d="M2.66666 13.3332C2.66666 8.30485 2.66666 5.7907 4.22875 4.2286C5.79086 2.6665 8.305 2.6665 13.3333 2.6665C18.3616 2.6665 20.8759 2.6665 22.4379 4.2286C24 5.7907 24 8.30485 24 13.3332C24 18.3614 24 20.8757 22.4379 22.4377C20.8759 23.9998 18.3616 23.9998 13.3333 23.9998C8.305 23.9998 5.79086 23.9998 4.22875 22.4377C2.66666 20.8757 2.66666 18.3614 2.66666 13.3332Z" stroke="white" stroke-width="1.5"/>
<path d="M2.66666 14.8246C3.49202 14.7196 4.32644 14.6679 5.16227 14.6696C8.69819 14.6043 12.1475 15.5683 14.8948 17.3898C17.4427 19.0791 19.2329 21.4039 20 23.9999" stroke="white" stroke-width="1.5" stroke-linejoin="round"/>
<path d="M17.3331 9.3335H17.3462" stroke="white" stroke-width="2" stroke-linecap="round" stroke-linejoin="round"/>
</g>
<defs>
<clipPath id="clip0_356_1469">
<rect width="32" height="32" fill="white"/>
</clipPath>
</defs>
</svg>
