<svg width="32" height="32" viewBox="0 0 32 32" fill="none" xmlns="http://www.w3.org/2000/svg">
<g clip-path="url(#clip0_356_1477)">
<path d="M3.33331 10.9159C3.47206 8.11623 3.88714 6.37072 5.12883 5.12902C6.37054 3.88732 8.11605 3.47224 10.9157 3.3335M28.6666 10.9159C28.5278 8.11623 28.1128 6.37072 26.8712 5.12902C25.6294 3.88732 23.8838 3.47224 21.0842 3.3335M21.0842 28.6668C23.8838 28.528 25.6294 28.113 26.8712 26.8714C28.1128 25.6296 28.5278 23.884 28.6666 21.0844M10.9157 28.6668C8.11605 28.528 6.37054 28.113 5.12883 26.8714C3.88714 25.6296 3.47206 23.884 3.33331 21.0844" stroke="white" stroke-width="1.5" stroke-linecap="round" stroke-linejoin="round"/>
<path d="M23.3334 22.6667L23.0638 21.5348C22.841 20.5996 22.1319 19.8567 21.2082 19.5905L18 18.6659L17.9996 16.7091C19.1952 15.9021 19.9996 14.394 19.9996 12.6667C19.9996 10.0893 18.2087 8 15.9996 8C13.7904 8 11.9996 10.0893 11.9996 12.6667C11.9996 14.394 12.804 15.9021 13.9996 16.7091L14 18.6659L10.8118 19.5992C9.91665 19.8613 9.22345 20.572 8.98385 21.4735L8.66669 22.6667" stroke="white" stroke-width="1.5" stroke-linecap="round" stroke-linejoin="round"/>
</g>
<defs>
<clipPath id="clip0_356_1477">
<rect width="32" height="32" fill="white"/>
</clipPath>
</defs>
</svg>
