<svg width="32" height="32" viewBox="0 0 32 32" fill="none" xmlns="http://www.w3.org/2000/svg">
<path d="M9.33334 11.1726H15.3333M15.3333 11.1726H19.3333M15.3333 11.1726V9.3335M22.6667 11.1726H19.3333M19.3333 11.1726C18.63 13.6876 17.1572 16.0651 15.4761 18.1546M15.4761 18.1546C14.0841 19.8847 12.5494 21.4172 11.1905 22.6668M15.4761 18.1546C14.6191 17.1496 13.4191 15.5236 13.0762 14.788M15.4761 18.1546L18.0476 20.8278" stroke="white" stroke-width="1.5" stroke-linecap="round" stroke-linejoin="round"/>
<path d="M3.33334 16.0002C3.33334 10.029 3.33334 7.04348 5.18832 5.18848C7.04332 3.3335 10.0289 3.3335 16 3.3335C21.9711 3.3335 24.9567 3.3335 26.8117 5.18848C28.6667 7.04348 28.6667 10.029 28.6667 16.0002C28.6667 21.9712 28.6667 24.9568 26.8117 26.8119C24.9567 28.6668 21.9711 28.6668 16 28.6668C10.0289 28.6668 7.04332 28.6668 5.18832 26.8119C3.33334 24.9568 3.33334 21.9712 3.33334 16.0002Z" stroke="white" stroke-width="1.5"/>
</svg>
