<svg width="32" height="32" viewBox="0 0 32 32" fill="none" xmlns="http://www.w3.org/2000/svg">
<path d="M29.3334 14.0002V12.9568C29.3334 10.3707 29.3334 9.07759 28.5523 8.27416C27.7712 7.47075 26.5142 7.47075 24 7.47075H21.2286C20.0054 7.47075 19.9952 7.46838 18.8954 6.91795L14.4532 4.69502C12.5985 3.76688 11.6711 3.30282 10.6832 3.33507C9.69526 3.36732 8.79838 3.89094 7.00462 4.93818L5.36746 5.89399C4.04987 6.66322 3.39107 7.04784 3.02887 7.68768C2.66669 8.32754 2.66669 9.10674 2.66669 10.6651V21.6211C2.66669 23.6687 2.66669 24.6926 3.12303 25.2624C3.4267 25.6415 3.85223 25.8964 4.32269 25.981C5.0297 26.1079 5.89533 25.6026 7.62651 24.5918C8.8021 23.9055 9.9335 23.1927 11.3398 23.386C12.5183 23.5479 13.6134 24.2915 14.6667 24.8186" stroke="white" stroke-width="1.5" stroke-linecap="round" stroke-linejoin="round"/>
<path d="M10.6667 3.3335V23.3335" stroke="white" stroke-width="1.5" stroke-linejoin="round"/>
<path d="M20 7.3335V12.6668" stroke="white" stroke-width="1.5" stroke-linecap="round" stroke-linejoin="round"/>
<path d="M23.3333 16C26.5804 16 29.3333 18.6887 29.3333 21.9505C29.3333 25.2643 26.5356 27.5899 23.9513 29.1711C23.763 29.2775 23.55 29.3333 23.3333 29.3333C23.1166 29.3333 22.9036 29.2775 22.7153 29.1711C20.1358 27.5744 17.3333 25.2757 17.3333 21.9505C17.3333 18.6887 20.0862 16 23.3333 16Z" stroke="white" stroke-width="1.5"/>
<path d="M23.3333 22H23.3464" stroke="white" stroke-width="2" stroke-linecap="round" stroke-linejoin="round"/>
</svg>
