<svg width="24" height="24" viewBox="0 0 24 24" fill="none" xmlns="http://www.w3.org/2000/svg">
<path fill-rule="evenodd" clip-rule="evenodd" d="M5 7C5 6.73478 5.10535 6.48043 5.29289 6.29289C5.48043 6.10536 5.73478 6 6 6H18C18.2652 6 18.5196 6.10536 18.7071 6.29289C18.8946 6.48043 19 6.73478 19 7C19 7.26522 18.8946 7.51957 18.7071 7.70711C18.5196 7.89464 18.2652 8 18 8H6C5.73478 8 5.48043 7.89464 5.29289 7.70711C5.10535 7.51957 5 7.26522 5 7ZM5 12C5 11.7348 5.10535 11.4804 5.29289 11.2929C5.48043 11.1054 5.73478 11 6 11H14C14.2652 11 14.5196 11.1054 14.7071 11.2929C14.8946 11.4804 15 11.7348 15 12C15 12.2652 14.8946 12.5196 14.7071 12.7071C14.5196 12.8946 14.2652 13 14 13H6C5.73478 13 5.48043 12.8946 5.29289 12.7071C5.10535 12.5196 5 12.2652 5 12ZM6 16C5.73478 16 5.48043 16.1054 5.29289 16.2929C5.10535 16.4804 5 16.7348 5 17C5 17.2652 5.10535 17.5196 5.29289 17.7071C5.48043 17.8946 5.73478 18 6 18H18C18.2652 18 18.5196 17.8946 18.7071 17.7071C18.8946 17.5196 19 17.2652 19 17C19 16.7348 18.8946 16.4804 18.7071 16.2929C18.5196 16.1054 18.2652 16 18 16H6Z" fill="white"/>
</svg>
