<svg width="28" height="28" viewBox="0 0 28 28" fill="none" xmlns="http://www.w3.org/2000/svg">
<path fill-rule="evenodd" clip-rule="evenodd" d="M8.94331 25.6663H19.0544C23.0097 25.6663 25.6661 22.8919 25.6661 18.7635V9.23585C25.6661 5.10747 23.0097 2.33301 19.0556 2.33301H8.94331C4.98914 2.33301 2.33276 5.10747 2.33276 9.23585V18.7635C2.33276 22.8919 4.98914 25.6663 8.94331 25.6663ZM9.91411 12.8329C8.3057 12.8329 6.99878 11.5242 6.99878 9.9162C6.99878 8.30822 8.3057 6.99953 9.91411 6.99953C11.5214 6.99953 12.8295 8.30822 12.8295 9.9162C12.8295 11.5242 11.5214 12.8329 9.91411 12.8329ZM23.1232 17.4224C23.5138 18.4241 23.3109 19.6281 22.8932 20.6202C22.3982 21.8001 21.4502 22.6935 20.2559 23.0835C19.7257 23.2569 19.1696 23.3328 18.6147 23.3328H8.78232C7.80389 23.3328 6.93809 23.098 6.22832 22.6609C5.78369 22.3864 5.70509 21.7531 6.03475 21.3426C6.58614 20.6563 7.13049 19.9676 7.67953 19.2729C8.72601 17.9437 9.43108 17.5584 10.2148 17.8968C10.5327 18.0364 10.8518 18.2459 11.1803 18.4674C12.0555 19.0622 13.2721 19.8797 14.8746 18.9924C15.9713 18.3782 16.6073 17.3246 17.1612 16.4071L17.1705 16.3918C17.2097 16.3275 17.2485 16.2633 17.2872 16.1992L17.2874 16.1989L17.2874 16.1989C17.4736 15.8908 17.6573 15.587 17.865 15.307C18.1255 14.9566 19.091 13.861 20.3416 14.6412C21.1382 15.1324 21.8081 15.797 22.5249 16.5086C22.7982 16.7807 22.993 17.0901 23.1232 17.4224Z" fill="#212B36"/>
</svg>
