<svg width="40" height="40" viewBox="0 0 40 40" fill="none" xmlns="http://www.w3.org/2000/svg">
<path d="M31.7161 15.2433C31.6326 9.14476 26.6456 4.20898 20.5276 4.20898C17.8061 4.20898 15.1842 5.19898 13.145 6.99663C11.325 8.60093 10.08 10.7448 9.58693 13.0987C9.55092 13.0983 9.51521 13.0979 9.47959 13.0979C4.25265 13.0979 0 17.3505 0 22.5775C0 27.8046 4.25265 32.0571 9.47967 32.0571H16.1002C16.5712 32.0571 16.9532 31.6753 16.9532 31.2041C16.9532 30.7329 16.5712 30.351 16.1002 30.351H9.47967C5.19327 30.351 1.70609 26.8639 1.70609 22.5775C1.70609 18.2912 5.19327 14.804 9.47967 14.804C9.70803 14.804 9.94943 14.8163 10.2178 14.8415C10.6726 14.8841 11.081 14.5606 11.1429 14.1075C11.4501 11.8559 12.5618 9.78507 14.2732 8.2764C16.0006 6.75359 18.2218 5.915 20.5275 5.915C25.7568 5.915 30.011 10.1693 30.011 15.3985C30.011 15.5868 29.997 15.7808 29.9823 15.9863L29.976 16.0736C29.9672 16.1976 29.9856 16.322 30.03 16.4382C30.0743 16.5543 30.1435 16.6593 30.2328 16.7458C30.3219 16.8324 30.4289 16.8985 30.5463 16.9394C30.6637 16.9803 30.7885 16.995 30.9122 16.9826C31.1383 16.9597 31.3653 16.9483 31.5925 16.9482C35.2876 16.9482 38.2939 19.9544 38.2939 23.6496C38.2939 27.3446 35.2877 30.3509 31.5925 30.3509H24.6307C24.1597 30.3509 23.7777 30.7328 23.7777 31.2039C23.7777 31.6751 24.1597 32.057 24.6307 32.057H31.5925C36.2284 32.057 40 28.2855 40 23.6496C39.9999 19.0553 36.2952 15.3096 31.7161 15.2433Z" fill="url(#paint0_linear_356_6591)"/>
<path d="M20.5276 8.21875C16.9605 8.21875 13.9071 10.8845 13.4249 14.4193C13.3612 14.8861 13.6881 15.3162 14.1548 15.3798C14.194 15.3852 14.2328 15.3878 14.2712 15.3878C14.6911 15.3878 15.057 15.0777 15.1152 14.65C15.4827 11.9562 17.8094 9.92484 20.5275 9.92484C20.9987 9.92484 21.3805 9.54297 21.3805 9.0718C21.3806 8.6007 20.9987 8.21875 20.5276 8.21875ZM24.4069 25.0047L21.3039 22.2328C20.769 21.7547 19.9619 21.7548 19.4268 22.2327L16.3238 25.0048C15.9724 25.3186 15.9421 25.8579 16.2559 26.2093C16.5698 26.5605 17.109 26.5911 17.4605 26.2772L19.5123 24.4442V34.9388C19.5123 35.41 19.8942 35.7919 20.3654 35.7919C20.8365 35.7919 21.2184 35.41 21.2184 34.9388V24.4441L23.2704 26.2771C23.4265 26.417 23.6288 26.4942 23.8384 26.494C23.9586 26.4942 24.0774 26.4689 24.1872 26.4198C24.2969 26.3707 24.395 26.299 24.4749 26.2092C24.7886 25.8578 24.7582 25.3186 24.4069 25.0047Z" fill="url(#paint1_linear_356_6591)"/>
<defs>
<linearGradient id="paint0_linear_356_6591" x1="0" y1="4.20898" x2="8.04248" y2="39.0159" gradientUnits="userSpaceOnUse">
<stop stop-color="white"/>
<stop offset="1" stop-color="white"/>
</linearGradient>
<linearGradient id="paint1_linear_356_6591" x1="13.417" y1="8.21875" x2="31.1804" y2="30.1041" gradientUnits="userSpaceOnUse">
<stop stop-color="white"/>
<stop offset="1" stop-color="white"/>
</linearGradient>
</defs>
</svg>
