<svg width="32" height="32" viewBox="0 0 32 32" fill="none" xmlns="http://www.w3.org/2000/svg">
<path d="M3.28585 12.4557C2.95446 12.4557 2.65206 12.1871 2.6673 11.836C2.75651 9.77989 3.00649 8.44137 3.70685 7.38252C4.10978 6.77334 4.61027 6.24352 5.18571 5.81697C6.74107 4.66406 8.93526 4.66406 13.3236 4.66406H18.6765C23.0649 4.66406 25.2591 4.66406 26.8145 5.81697C27.3899 6.24352 27.8904 6.77334 28.2933 7.38252C28.9936 8.44125 29.2436 9.7796 29.3328 11.8353C29.3481 12.1868 29.0453 12.4557 28.7136 12.4557C26.8659 12.4557 25.368 14.0414 25.368 15.9974C25.368 17.9534 26.8659 19.539 28.7136 19.539C29.0453 19.539 29.3481 19.8079 29.3328 20.1595C29.2436 22.2153 28.9936 23.5535 28.2933 24.6123C27.8904 25.2214 27.3899 25.7513 26.8145 26.1778C25.2591 27.3307 23.0649 27.3307 18.6765 27.3307H13.3236C8.93526 27.3307 6.74107 27.3307 5.18571 26.1778C4.61027 25.7513 4.10978 25.2214 3.70685 24.6123C3.00649 23.5534 2.75651 22.2149 2.6673 20.1589C2.65206 19.8077 2.95446 19.539 3.28585 19.539C5.13357 19.539 6.63143 17.9534 6.63143 15.9974C6.63143 14.0414 5.13357 12.4557 3.28585 12.4557Z" stroke="white" stroke-width="1.5" stroke-linejoin="round"/>
<path d="M12.6667 19.3307L19.3335 12.6641" stroke="white" stroke-width="1.5" stroke-linecap="round" stroke-linejoin="round"/>
<path d="M12.6667 12.6641H12.6817M19.3184 19.3307H19.3335" stroke="white" stroke-width="2" stroke-linecap="round" stroke-linejoin="round"/>
</svg>
