<svg width="22" height="22" viewBox="0 0 22 22" fill="none" xmlns="http://www.w3.org/2000/svg">
<path d="M11 20.1673C16.0626 20.1673 20.1667 16.0632 20.1667 11.0007C20.1667 5.93804 16.0626 1.83398 11 1.83398C5.93743 1.83398 1.83337 5.93804 1.83337 11.0007C1.83337 12.2646 2.08919 13.4689 2.55188 14.5644C2.80759 15.1697 2.93545 15.4725 2.95128 15.7013C2.96711 15.9301 2.89977 16.1817 2.76509 16.6851L1.83337 20.1673L5.31558 19.2356C5.81893 19.101 6.07061 19.0336 6.29939 19.0494C6.52818 19.0652 6.8309 19.1931 7.43636 19.4488C8.53187 19.9115 9.73605 20.1673 11 20.1673Z" stroke="white" stroke-width="1.5" stroke-linejoin="round"/>
<path d="M7.87243 11.3452L8.67079 10.3536C9.00727 9.93574 9.4232 9.54671 9.45583 8.99025C9.46399 8.84971 9.36518 8.2187 9.16736 6.95672C9.08964 6.46076 8.62658 6.41602 8.2255 6.41602C7.70284 6.41602 7.44151 6.41602 7.182 6.53455C6.854 6.68437 6.51727 7.10563 6.44337 7.45857C6.3849 7.73781 6.42835 7.93023 6.51525 8.31506C6.88434 9.94958 7.7502 11.5638 9.09282 12.9065C10.4355 14.2491 12.0497 15.115 13.6842 15.484C14.0691 15.5709 14.2615 15.6144 14.5408 15.5559C14.8937 15.482 15.3149 15.1453 15.4648 14.8173C15.5833 14.5578 15.5833 14.2965 15.5833 13.7738C15.5833 13.3727 15.5386 12.9097 15.0426 12.8319C13.7806 12.6341 13.1496 12.5353 13.009 12.5435C12.4526 12.5761 12.0636 12.992 11.6457 13.3285L10.6541 14.1268" stroke="white" stroke-width="1.5"/>
</svg>
